<?xml version="1.0" encoding="UTF-8"?><svg xmlns="http://www.w3.org/2000/svg" viewBox="0 0 1920 1080"><g id="grille"><line x1="359.47" y1="73.31" x2="359.47" y2="1003.34" fill="none" stroke="#f96806" stroke-linecap="square" stroke-linejoin="round" stroke-width=".5"/><line x1="1743.93" y1="128.33" x2="156.45" y2="128.33" fill="none" stroke="#f96806" stroke-linecap="square" stroke-linejoin="round" stroke-width=".5"/><line x1="1743.93" y1="197.33" x2="156.45" y2="197.33" fill="none" stroke="#f96806" stroke-linecap="square" stroke-linejoin="round" stroke-width=".5"/><line x1="1743.93" y1="266.33" x2="156.45" y2="266.33" fill="none" stroke="#f96806" stroke-linecap="square" stroke-linejoin="round" stroke-width=".5"/><line x1="1743.93" y1="335.33" x2="156.45" y2="335.33" fill="none" stroke="#f96806" stroke-linecap="square" stroke-linejoin="round" stroke-width=".5"/><line x1="1743.93" y1="404.33" x2="156.45" y2="404.33" fill="none" stroke="#f96806" stroke-linecap="square" stroke-linejoin="round" stroke-width=".5"/><line x1="1743.93" y1="473.33" x2="156.45" y2="473.33" fill="none" stroke="#f96806" stroke-linecap="square" stroke-linejoin="round" stroke-width=".5"/><line x1="1743.93" y1="542.33" x2="156.45" y2="542.33" fill="none" stroke="#f96806" stroke-linecap="square" stroke-linejoin="round" stroke-width=".5"/><line x1="1743.93" y1="611.33" x2="156.45" y2="611.33" fill="none" stroke="#f96806" stroke-linecap="square" stroke-linejoin="round" stroke-width=".5"/><line x1="1743.93" y1="680.33" x2="156.45" y2="680.33" fill="none" stroke="#f96806" stroke-linecap="square" stroke-linejoin="round" stroke-width=".5"/><line x1="1743.93" y1="749.33" x2="156.45" y2="749.33" fill="none" stroke="#f96806" stroke-linecap="square" stroke-linejoin="round" stroke-width=".5"/><line x1="1743.93" y1="818.33" x2="156.45" y2="818.33" fill="none" stroke="#f96806" stroke-linecap="square" stroke-linejoin="round" stroke-width=".5"/><line x1="1743.93" y1="887.33" x2="156.45" y2="887.33" fill="none" stroke="#f96806" stroke-linecap="square" stroke-linejoin="round" stroke-width=".5"/><line x1="1743.93" y1="956.33" x2="156.45" y2="956.33" fill="none" stroke="#f96806" stroke-linecap="square" stroke-linejoin="round" stroke-width=".5"/><line x1="525.47" y1="73.31" x2="525.47" y2="1003.34" fill="none" stroke="#f96806" stroke-linecap="square" stroke-linejoin="round" stroke-width=".5"/><line x1="193.47" y1="73.31" x2="193.47" y2="1003.34" fill="none" stroke="#f96806" stroke-linecap="square" stroke-linejoin="round" stroke-width=".5"/><line x1="691.47" y1="73.31" x2="691.47" y2="1003.34" fill="none" stroke="#f96806" stroke-linecap="square" stroke-linejoin="round" stroke-width=".5"/><line x1="857.47" y1="73.31" x2="857.47" y2="1003.34" fill="none" stroke="#f96806" stroke-linecap="square" stroke-linejoin="round" stroke-width=".5"/><line x1="1023.47" y1="73.31" x2="1023.47" y2="1003.34" fill="none" stroke="#f96806" stroke-linecap="square" stroke-linejoin="round" stroke-width=".5"/><line x1="1189.47" y1="73.31" x2="1189.47" y2="1003.34" fill="none" stroke="#f96806" stroke-linecap="square" stroke-linejoin="round" stroke-width=".5"/><line x1="1355.47" y1="73.31" x2="1355.47" y2="1003.34" fill="none" stroke="#f96806" stroke-linecap="square" stroke-linejoin="round" stroke-width=".5"/><line x1="1521.47" y1="73.31" x2="1521.47" y2="1003.34" fill="none" stroke="#f96806" stroke-linecap="square" stroke-linejoin="round" stroke-width=".5"/><line x1="1687.47" y1="73.31" x2="1687.47" y2="1003.34" fill="none" stroke="#f96806" stroke-linecap="square" stroke-linejoin="round" stroke-width=".5"/></g><g id="fragments"><path d="m216.21,610.55c61.55,1.37,123.09,2.75,184.64,4.12,5.4.12,10.42-3.05,11.09-8.77.58-4.98-3.34-10.97-8.77-11.09-61.55-1.37-123.09-2.75-184.64-4.12-5.4-.12-10.42,3.05-11.09,8.77-.58,4.98,3.34,10.97,8.77,11.09h0Z" fill="#44c17a" stroke="#ff2372" stroke-miterlimit="10" stroke-width=".5"/><path d="m454.41,435.24c.2-.7,1.02-2.91.91-2.83.7-1.38.73-1.52,1.61-2.5,1.22-1.54,3.06-2.87,4.77-3.74,4.23-2.1,9.01-3,13.31-2.3,7.88,1.37,14.37,6.09,19.23,12.29,3.72,4.5,6.41,9.87,8.64,15.21,5.19,13,7.6,28.54,8.87,43.1,2.1,23.77,3.45,47.66,5.34,71.46.45,5.65.91,11.3,1.39,16.95,1.31,15.49,3.8,31.95,10.84,44.83,1.54,2.76,3.18,5.2,4.89,7.37,4.5,5.5,9.32,9.16,14.66,11.19.81.36,1.62.68,2.45.96,3.28,1.11,6.74,1.53,10.53.4,5.24-.82,10.6-5.77,14-11.36,2.65-4.36,4.56-9.18,6.17-14.07,1.25-3.78,2.36-7.62,3.51-11.36,2.67-8.74,5.36-17.49,8.1-26.24,7.79-24.86,15.81-49.72,23.73-74.59,2.67-8.38,5.33-16.75,7.96-25.13,1.79-5.69,3.64-11.69,5.8-17.53,3.8-10.27,8.41-20.25,16.08-27.07,1.31-1.19,2.68-2.28,4.08-3.25,3.4-2.34,7.06-4.07,10.95-4.87,2.94-.75,5.74-.66,8.45.17,2.85.76,5.32,2.16,7.47,4.27.24.32,1.13,1.04.73,1.01.35.56,1.56,1.96,1.19,1.94.61.93.59,1.19.81,2.39" fill="none" stroke="#ff2372" stroke-linecap="round" stroke-linejoin="round" stroke-width="20"/><path d="m748.68,477.43c2.92-10.8,11.14-19.76,22.53-21.55,10.23-1.6,21.93,3.51,27.27,12.56,4.11,6.95,15.04,8.5,18.43-.25,8.15-21.06,17.17-41.78,27.1-62.06,4.96-10.13,10.04-20.24,15.55-30.09,3.91-6.99,8.52-14.09,14.42-19.56,5.02-4.66,11.5-8.74,18.56-7.08,6.53,1.53,11.22,7.22,14.73,12.77,4.79,7.55,7.94,16.19,11.43,24.39,4.68,11.01,9.37,22.02,14.05,33.04,10.67,25.08,21.34,50.17,32.01,75.25,5.04,11.84,23.37,3.85,18.32-8.02-10.41-24.47-20.82-48.94-31.23-73.41-5.07-11.93-10.15-23.86-15.22-35.79-4.07-9.56-8-19.1-13.68-27.85-11.23-17.33-32.09-26.67-51.36-16.07-19.03,10.46-28.98,31.33-38.52,49.8-12.96,25.08-24.52,50.86-34.71,77.19,6.14-.08,12.29-.17,18.43-.25-9.78-16.56-27.75-26.72-47.23-24.5-18.22,2.08-34.66,16.34-39.43,34-1.41,5.21.08,10.83,5.51,13.03,4.55,1.79,11.62-.31,13.04-5.55h0Z" fill="#98ff7b"/><path d="m989.85,556.72c6,28.19,19.06,63.2,53.8,61.86,15.8-.61,30.73-10.29,40.08-22.68,10.79-14.29,14.95-32.35,17.83-49.68,6.61-39.74,12.24-79.67,18.34-119.49,3.06-20.01,6.13-40.02,9.19-60.03,1.41-9.19,2.5-18.5,4.37-27.61,1.04-5.07,2.8-11.49,6.73-14.77,10.79-9,21.36,12.66,23.83,20.99,4.75,16.01,8.54,34.35,24,43.69,4.62,2.79,10.53,2.64,14.01-1.98,2.99-3.98,2.67-11.2-1.98-14.01-11-6.65-13.32-20.61-16.64-32.09-4.3-14.9-12.78-30.75-28.13-36.65-15.98-6.14-31.04,3.56-37.49,18.19-2.94,6.67-4.29,14.08-5.4,21.24-1.52,9.84-3.01,19.68-4.52,29.52-6.08,39.69-12.16,79.38-18.24,119.07-2.89,18.85-5.36,37.82-8.81,56.58-2.64,14.4-6.85,30.6-18.28,40.67-10.59,9.33-25.95,13.2-36.86,2.44-9.82-9.68-13.29-25.25-16.08-38.33-2.64-12.5-22.44-9.57-19.75,3.07h0Z" fill="#0ec6a2"/><path d="m1239.71,448.52c1.23-1.94,2.19-2.36,4.57-2.2,2.88.18,5.22,1.81,7.31,4.32,6.13,7.4,9.04,18.05,12.12,26.98,7.27,21.03,11.83,42.91,14.11,65.03,1.21,11.69,17.93,10.31,19.82-.36,1.55-8.76,12.78-14.04,21.64-12.87,11.59,1.53,20.48,11.92,25.21,21.89,6.79,14.31,7.75,30.54,9.48,46.04,1.8,16.09,4.49,32.51,12.46,46.84,2.62,4.71,7.89,7.46,13.17,5.15,4.59-2.01,7.79-8.43,5.15-13.17-14.65-26.31-9.31-58.33-19.22-86.24-8.5-23.95-32.2-46.61-59.42-39.28-14.37,3.87-25.71,14.39-28.35,29.33,6.61-.12,13.21-.24,19.82-.36-2.91-28.17-9.68-55.96-20.11-82.3-4.46-11.25-10.48-23.36-22.16-28.56-10.65-4.75-25.02-2.58-31.59,7.74-2.9,4.55-2.57,10.58,1.98,14.01,4.06,3.04,11.1,2.59,14.01-1.99h0Z" fill="#44c17a"/><path d="m1453.13,478.98c12.39-12.16,33.14-7.41,44.89,4.67,15.58,16.02,18.42,40.92,21.35,61.97,1.16,8.31,12.96,11.61,17.88,4.49,4.71-6.81,15.25-5.47,21.93-.18,9.99,7.91,14.31,21.57,19.35,32.78,12.92,28.73,28.28,56.37,45.67,82.63,9.86,14.89,20.44,29.29,31.64,43.2,8.08,10.03,23.78-2.36,15.69-12.41-21.5-26.7-40.65-55.23-56.9-85.42-8.04-14.94-15.14-30.27-22.07-45.75-6.27-14-14.2-28.29-28.45-35.42-14.06-7.04-33.45-5.02-42.83,8.55,5.96,1.5,11.92,2.99,17.88,4.49-3.78-27.22-8.91-57.84-31.05-76.67-18.17-15.45-49.04-20.59-67.36-2.61-3.85,3.78-5.24,9.49-1.64,14.05,3.05,3.88,10.15,5.43,14.02,1.63h0Z" fill="#0ec6a2"/><path d="m266.66,311.92c7.25-8.04,12.92-17.35,19.48-25.96s14.31-16.73,24.2-21.13,22.3-4.39,30.81,2.3c5.58,4.39,8.89,11.04,11.39,17.69,7.74,20.61,9.35,42.99,15.42,64.16.89,3.11,1.93,6.29,4.04,8.75,3.72,4.34,9.96,5.52,15.67,5.37,12.75-.33,24.8-5.86,35.67-12.53,18.41-11.31,34.59-26.23,47.35-43.67,13.12-17.93,24.4-39.9,45.4-47.13" fill="none" stroke="#ff2372" stroke-linecap="round" stroke-miterlimit="10" stroke-width="30"/></g></svg>