<?xml version="1.0" encoding="utf-8"?>
<!-- Generator: Adobe Illustrator 27.4.0, SVG Export Plug-In . SVG Version: 6.00 Build 0)  -->
<svg version="1.1" xmlns="http://www.w3.org/2000/svg" xmlns:xlink="http://www.w3.org/1999/xlink" x="0px" y="0px"
	 viewBox="0 0 1920 1080" enable-background="new 0 0 1920 1080" xml:space="preserve">
<g id="grille">
	
		<line fill="none" stroke="#F96806" stroke-width="0.5" stroke-linecap="square" stroke-linejoin="round" stroke-miterlimit="10" x1="359.47" y1="73.31" x2="359.47" y2="1003.34"/>
	
		<line fill="none" stroke="#F96806" stroke-width="0.5" stroke-linecap="square" stroke-linejoin="round" stroke-miterlimit="10" x1="1743.93" y1="128.33" x2="156.45" y2="128.33"/>
	
		<line fill="none" stroke="#F96806" stroke-width="0.5" stroke-linecap="square" stroke-linejoin="round" stroke-miterlimit="10" x1="1743.93" y1="197.33" x2="156.45" y2="197.33"/>
	
		<line fill="none" stroke="#F96806" stroke-width="0.5" stroke-linecap="square" stroke-linejoin="round" stroke-miterlimit="10" x1="1743.93" y1="266.33" x2="156.45" y2="266.33"/>
	
		<line fill="none" stroke="#F96806" stroke-width="0.5" stroke-linecap="square" stroke-linejoin="round" stroke-miterlimit="10" x1="1743.93" y1="335.33" x2="156.45" y2="335.33"/>
	
		<line fill="none" stroke="#F96806" stroke-width="0.5" stroke-linecap="square" stroke-linejoin="round" stroke-miterlimit="10" x1="1743.93" y1="404.33" x2="156.45" y2="404.33"/>
	
		<line fill="none" stroke="#F96806" stroke-width="0.5" stroke-linecap="square" stroke-linejoin="round" stroke-miterlimit="10" x1="1743.93" y1="473.33" x2="156.45" y2="473.33"/>
	
		<line fill="none" stroke="#F96806" stroke-width="0.5" stroke-linecap="square" stroke-linejoin="round" stroke-miterlimit="10" x1="1743.93" y1="542.33" x2="156.45" y2="542.33"/>
	
		<line fill="none" stroke="#F96806" stroke-width="0.5" stroke-linecap="square" stroke-linejoin="round" stroke-miterlimit="10" x1="1743.93" y1="611.33" x2="156.45" y2="611.33"/>
	
		<line fill="none" stroke="#F96806" stroke-width="0.5" stroke-linecap="square" stroke-linejoin="round" stroke-miterlimit="10" x1="1743.93" y1="680.33" x2="156.45" y2="680.33"/>
	
		<line fill="none" stroke="#F96806" stroke-width="0.5" stroke-linecap="square" stroke-linejoin="round" stroke-miterlimit="10" x1="1743.93" y1="749.33" x2="156.45" y2="749.33"/>
	
		<line fill="none" stroke="#F96806" stroke-width="0.5" stroke-linecap="square" stroke-linejoin="round" stroke-miterlimit="10" x1="1743.93" y1="818.33" x2="156.45" y2="818.33"/>
	
		<line fill="none" stroke="#F96806" stroke-width="0.5" stroke-linecap="square" stroke-linejoin="round" stroke-miterlimit="10" x1="1743.93" y1="887.33" x2="156.45" y2="887.33"/>
	
		<line fill="none" stroke="#F96806" stroke-width="0.5" stroke-linecap="square" stroke-linejoin="round" stroke-miterlimit="10" x1="1743.93" y1="956.33" x2="156.45" y2="956.33"/>
	
		<line fill="none" stroke="#F96806" stroke-width="0.5" stroke-linecap="square" stroke-linejoin="round" stroke-miterlimit="10" x1="525.47" y1="73.31" x2="525.47" y2="1003.34"/>
	
		<line fill="none" stroke="#F96806" stroke-width="0.5" stroke-linecap="square" stroke-linejoin="round" stroke-miterlimit="10" x1="193.47" y1="73.31" x2="193.47" y2="1003.34"/>
	
		<line fill="none" stroke="#F96806" stroke-width="0.5" stroke-linecap="square" stroke-linejoin="round" stroke-miterlimit="10" x1="691.47" y1="73.31" x2="691.47" y2="1003.34"/>
	
		<line fill="none" stroke="#F96806" stroke-width="0.5" stroke-linecap="square" stroke-linejoin="round" stroke-miterlimit="10" x1="857.47" y1="73.31" x2="857.47" y2="1003.34"/>
	
		<line fill="none" stroke="#F96806" stroke-width="0.5" stroke-linecap="square" stroke-linejoin="round" stroke-miterlimit="10" x1="1023.47" y1="73.31" x2="1023.47" y2="1003.34"/>
	
		<line fill="none" stroke="#F96806" stroke-width="0.5" stroke-linecap="square" stroke-linejoin="round" stroke-miterlimit="10" x1="1189.47" y1="73.31" x2="1189.47" y2="1003.34"/>
	
		<line fill="none" stroke="#F96806" stroke-width="0.5" stroke-linecap="square" stroke-linejoin="round" stroke-miterlimit="10" x1="1355.47" y1="73.31" x2="1355.47" y2="1003.34"/>
	
		<line fill="none" stroke="#F96806" stroke-width="0.5" stroke-linecap="square" stroke-linejoin="round" stroke-miterlimit="10" x1="1521.47" y1="73.31" x2="1521.47" y2="1003.34"/>
	
		<line fill="none" stroke="#F96806" stroke-width="0.5" stroke-linecap="square" stroke-linejoin="round" stroke-miterlimit="10" x1="1687.47" y1="73.31" x2="1687.47" y2="1003.34"/>
</g>
<g id="fragments">
	
		<path id="GOUR_x5F_002_x5F_001_x5F_FRAG_x5F_001" fill="none" stroke="#FF2372" stroke-width="25" stroke-linecap="round" stroke-miterlimit="10" d="
		M214.4,599.625c0.15,0,0.3,0,0.45,0h184.896"/>
	
		<path id="GOUR_x5F_002_x5F_002_x5F_FRAG_x5F_002" fill="none" stroke="#FF2372" stroke-width="20" stroke-linecap="round" stroke-linejoin="round" stroke-miterlimit="10" d="
		M454.405,435.24c0.195-0.7,1.019-2.909,0.906-2.826c0.703-1.383,0.732-1.521,1.613-2.504c1.216-1.535,3.059-2.867,4.773-3.738
		c4.23-2.101,9.007-2.995,13.305-2.296c7.881,1.37,14.369,6.095,19.225,12.286c3.723,4.5,6.408,9.865,8.64,15.213
		c5.191,13.005,7.597,28.541,8.874,43.098c2.096,23.765,3.451,47.66,5.341,71.461c0.448,5.652,0.91,11.303,1.39,16.953
		c1.313,15.487,3.799,31.95,10.841,44.834c1.536,2.757,3.181,5.202,4.886,7.368c4.503,5.501,9.317,9.163,14.658,11.193
		c0.808,0.355,1.625,0.679,2.453,0.959c3.283,1.11,6.745,1.526,10.529,0.404c5.237-0.82,10.599-5.766,14.004-11.358
		c2.651-4.36,4.559-9.185,6.175-14.074c1.25-3.781,2.363-7.616,3.506-11.362c2.67-8.742,5.359-17.494,8.098-26.239
		c7.786-24.861,15.81-49.724,23.734-74.588c2.668-8.377,5.326-16.754,7.96-25.129c1.791-5.693,3.636-11.687,5.8-17.533
		c3.805-10.275,8.407-20.246,16.078-27.067c1.311-1.193,2.678-2.276,4.082-3.25c3.397-2.341,7.064-4.069,10.951-4.874
		c2.938-0.748,5.74-0.656,8.45,0.173c2.852,0.764,5.323,2.164,7.468,4.268c0.24,0.321,1.126,1.04,0.729,1.008
		c0.353,0.56,1.56,1.96,1.194,1.942c0.613,0.933,0.591,1.193,0.808,2.389"/>
	
		<path id="GOUR_x5F_002_x5F_003_x5F_FRAG_x5F_003" fill="none" stroke="#FF2372" stroke-width="25" stroke-linecap="round" stroke-linejoin="round" stroke-miterlimit="10" d="
		M741.857,472.809c5.785-15.118,20.916-26.189,37.076-27.128c16.159-0.939,32.471,8.305,39.968,22.651
		c-6.176-22.986-4.373-48.035,5.031-69.9s26.35-40.401,47.284-51.725c12.362-6.687,27.618-10.823,40.315-4.796
		c10.819,5.136,17.209,16.36,22.49,27.108c19.709,40.115,33.539,83.113,40.911,127.196"/>
	
		<path id="GOUR_x5F_002_x5F_004_x5F_FRAG_x5F_003-4-5" fill="none" stroke="#FF2372" stroke-width="25" stroke-linecap="round" stroke-linejoin="round" stroke-miterlimit="10" d="
		M997.877,557.166c1.884,10.954,3.806,22.04,8.324,32.195c4.518,10.155,11.98,19.447,22.186,23.85
		c13.458,5.806,29.794,1.972,41.211-7.22s18.399-22.961,22.122-37.137s4.49-28.931,5.512-43.552
		c3.859-55.201,11.625-110.128,23.222-164.235c2.062-9.621,4.458-19.65,10.93-27.062s18.345-11.077,26.373-5.387
		c8.825,6.256,8.459,19.137,11.824,29.418c3.878,11.85,14.077,21.421,26.15,24.539"/>
	
		<path id="GOUR_x5F_002_x5F_005_x5F_FRAG_x5F_005" fill="none" stroke="#FF2372" stroke-width="25" stroke-linecap="round" stroke-linejoin="round" stroke-miterlimit="10" d="
		M1228.781,447.566c8.978-5.45,21.096-3.219,29.54,3.026c8.444,6.245,13.833,15.759,18.051,25.377
		c9.323,21.255,14.118,44.483,13.975,67.692c4.643-14.394,22.553-21.583,37.132-17.561c14.579,4.022,25.476,16.754,31.154,30.771
		c5.678,14.018,6.938,29.369,8.136,44.445c1.1,13.847,2.2,27.694,3.299,41.54"/>
	
		<path id="GOUR_002_002_FRAG_007-8" fill="none" stroke="#FF2372" stroke-width="25" stroke-linecap="round" stroke-linejoin="round" stroke-miterlimit="10" d="
		M1445.093,477.145c21.379-5.117,45.592-9.798,63.984,2.242c10.887,7.127,17.815,19.32,20.481,32.057
		c2.667,12.737,1.418,26.014-1.413,38.715c13.958-8.7,33.029-4.34,45.883,5.921c12.854,10.261,20.896,25.226,28.589,39.763
		c17.93,33.879,35.861,67.759,53.791,101.638"/>
</g>
</svg>
