<svg width="100%" height="100%" viewBox="0 0 6249 3878" version="1.1" xmlns="http://www.w3.org/2000/svg" xmlns:xlink="http://www.w3.org/1999/xlink" xml:space="preserve" xmlns:serif="http://www.serif.com/" style="fill-rule:evenodd;clip-rule:evenodd;stroke-linecap:square;stroke-linejoin:round;stroke-miterlimit:10;">
  <g id="GRILLE">
    <path d="M262.355,1.04l-0,3875.13" style="fill:none;fill-rule:nonzero;stroke:#f96806;stroke-width:2.08px;" />
    <path d="M6030.97,230.274l-6014.51,0" style="fill:none;fill-rule:nonzero;stroke:#f96806;stroke-width:2.08px;" />
    <path d="M6030.97,517.774l-6014.51,0" style="fill:none;fill-rule:nonzero;stroke:#f96806;stroke-width:2.08px;" />
    <path d="M6030.97,805.274l-6014.51,0" style="fill:none;fill-rule:nonzero;stroke:#f96806;stroke-width:2.08px;" />
    <path d="M6030.97,1092.77l-6014.51,0" style="fill:none;fill-rule:nonzero;stroke:#f96806;stroke-width:2.08px;" />
    <path d="M6030.97,1380.27l-6014.51,0" style="fill:none;fill-rule:nonzero;stroke:#f96806;stroke-width:2.08px;" />
    <path d="M6030.97,1667.77l-6014.51,0" style="fill:none;fill-rule:nonzero;stroke:#f96806;stroke-width:2.08px;" />
    <path d="M6030.97,1955.27l-6014.51,0" style="fill:none;fill-rule:nonzero;stroke:#f96806;stroke-width:2.08px;" />
    <path d="M6030.97,2242.77l-6014.51,0" style="fill:none;fill-rule:nonzero;stroke:#f96806;stroke-width:2.08px;" />
    <path d="M6030.97,2530.27l-6014.51,0" style="fill:none;fill-rule:nonzero;stroke:#f96806;stroke-width:2.08px;" />
    <path d="M6030.97,2817.77l-6014.51,0" style="fill:none;fill-rule:nonzero;stroke:#f96806;stroke-width:2.08px;" />
    <path d="M6030.97,3105.27l-6014.51,0" style="fill:none;fill-rule:nonzero;stroke:#f96806;stroke-width:2.08px;" />
    <path d="M6030.97,3392.77l-6014.51,0" style="fill:none;fill-rule:nonzero;stroke:#f96806;stroke-width:2.08px;" />
    <path d="M6030.97,3680.27l-6014.51,0" style="fill:none;fill-rule:nonzero;stroke:#f96806;stroke-width:2.08px;" />
    <path d="M954.021,1.04l-0,3875.13" style="fill:none;fill-rule:nonzero;stroke:#f96806;stroke-width:2.08px;" />
    <path d="M1645.69,1.04l-0,3875.13" style="fill:none;fill-rule:nonzero;stroke:#f96806;stroke-width:2.08px;" />
    <path d="M2337.35,1.04l0,3875.13" style="fill:none;fill-rule:nonzero;stroke:#f96806;stroke-width:2.08px;" />
    <path d="M3029.02,1.04l-0,3875.13" style="fill:none;fill-rule:nonzero;stroke:#f96806;stroke-width:2.08px;" />
    <path d="M3720.69,1.04l0,3875.13" style="fill:none;fill-rule:nonzero;stroke:#f96806;stroke-width:2.08px;" />
    <path d="M4412.36,1.04l-0,3875.13" style="fill:none;fill-rule:nonzero;stroke:#f96806;stroke-width:2.08px;" />
    <path d="M5104.02,1.04l0,3875.13" style="fill:none;fill-rule:nonzero;stroke:#f96806;stroke-width:2.08px;" />
    <path d="M5795.69,1.04l-0,3875.13" style="fill:none;fill-rule:nonzero;stroke:#f96806;stroke-width:2.08px;" />
  </g>
  <g id="FRAGMENTS">
    <path id="GOUR_009_002_FRAG_001" d="M11.105,1792.17c-19.316,60.2 3.088,119.383 49.963,159.962c46.9,40.596 110.021,47.279 167.337,27.642c131.63,-45.104 168.613,-193.538 180.821,-316.096c14.617,-146.733 26.088,-293.788 40.959,-440.492c2.3,-22.679 5.725,-42.8 14.45,-63.179c3.829,-8.937 6.395,-14.604 13.737,-21.883c3.5,-3.467 6.629,-4.438 12.292,-5.046c2.137,-0.233 8.391,1.1 12.758,4.808c4.717,4.004 9.883,11.146 13.7,18.438c10.55,20.158 15.517,42.366 19.004,64.662c22.521,143.959 48.684,286.704 84.334,428.075c17.362,68.85 33.287,140.513 58.395,207.009c20.617,54.591 73.634,106.095 136.155,79.287c51.554,-22.108 71.52,-82.525 79.92,-133.442c12.271,-74.362 22.68,-149.079 34.017,-223.591c5.567,-36.588 11.133,-73.175 16.7,-109.763c4.383,-28.816 6.154,-59.991 17.071,-87.312c16.417,-41.075 59.875,-28.754 82.621,2.441c17.5,24 22.696,55.45 26.804,84.138c4.562,31.871 7.708,63.896 12.804,95.696c10.646,66.429 26.25,131.812 45.5,196.254c37.854,126.737 93.133,247.183 162.567,359.675c17.025,27.579 35.021,54.521 53.804,80.933c31.146,43.8 96.383,-8.066 65.362,-51.696c-74.554,-104.841 -134.27,-219.425 -178.25,-340.32c-21.762,-59.83 -39.358,-120.975 -52.691,-183.225c-13.554,-63.28 -18.271,-127.584 -30.113,-191.021c-11.562,-61.946 -39.016,-119.567 -97.671,-148.634c-53.412,-26.466 -120.354,-14.75 -153.687,37.138c-34.525,53.75 -35.596,127.737 -44.933,189.121c-11.134,73.175 -22.267,146.35 -33.396,219.525c-4.363,28.671 -6.454,59.841 -15.125,87.054c-2.963,9.283 -6.854,19.675 -11.563,27.229c-1.871,3 -5.941,8.383 -7.158,9.633c-1.579,1.621 -3.892,3.192 -5.221,3.584c1.563,-0.463 -6.137,-0.817 -2.262,0.266c-3.05,-0.85 -4.696,-1.641 -7.8,-4.541c-5.946,-5.554 -10.575,-15.942 -13.963,-23.934c-12.1,-28.541 -19.262,-59.57 -27.608,-89.366c-38.659,-137.988 -70.154,-277.971 -94.359,-419.213c-15.262,-89.079 -20.65,-287.95 -158.4,-271.291c-54.5,6.587 -86.629,56.675 -99.841,105.45c-17.071,63.037 -17.563,131.016 -23.575,195.775c-6.8,73.27 -13.604,146.541 -20.409,219.812c-5.933,63.933 -7.975,130.779 -25.583,192.871c-14.629,51.567 -42.258,103.192 -91.333,129.262c-41.521,22.059 -88.504,17.592 -117.709,-21.554c-10.7,-14.341 -16.391,-32.571 -11.179,-48.821c6.867,-21.404 -1.008,-45.404 -22.962,-54.283c-19.675,-7.958 -47.375,1.429 -54.284,22.963" style="fill:#44c17a;fill-rule:nonzero;" />
    <path id="GOUR_009_002_FRAG_002" d="M1555.84,1220.58c54.133,-3.55 86.908,57.9 99.513,101.446c19.691,68.05 27.012,141.109 39.179,210.796c25.729,147.342 51.454,294.688 77.179,442.029c9.658,55.317 16.871,117.017 54.154,161.942c37.063,44.658 101.896,56.1 148.058,17.408c46.025,-38.583 58.763,-102.25 74.979,-156.908c21.263,-71.671 42.526,-143.342 63.788,-215.017c48.037,-161.921 96.075,-323.846 144.113,-485.771c6.391,-21.55 -0.688,-45.27 -22.963,-54.283c-19.304,-7.808 -47.85,1.271 -54.283,22.963c-41.346,139.358 -82.688,278.72 -124.034,418.083c-20.475,69.017 -40.95,138.033 -61.425,207.05l-31.891,107.504c-7.413,24.983 -13.692,52.463 -27.288,75.025c-8.175,13.563 -17.846,22.683 -28.075,22.121c-5.587,-0.308 -7.108,-1.129 -12.787,-6.542c-4.938,-4.708 -10.184,-13.037 -13.779,-20.383c-10.159,-20.771 -15.063,-42.333 -19.034,-64.95c-6.475,-36.829 -12.866,-73.671 -19.296,-110.508c-25.012,-143.246 -50.025,-286.496 -75.037,-429.746c-12.567,-71.988 -18.629,-152.213 -52.658,-218.067c-33.709,-65.237 -95.609,-111.525 -171.1,-106.575c-22.467,1.475 -38.042,26.683 -34.846,47.533c3.654,23.859 25,36.33 47.533,34.85" style="fill:#44c17a;fill-rule:nonzero;" />
    <path id="GOUR_009_002_FRAG_003" d="M2414.47,1620.25c32.371,87.688 64.746,175.375 97.117,263.063c16.188,43.846 32.375,87.687 48.558,131.533c14.367,38.908 26.988,79.088 44.505,116.729c28.979,62.271 81.258,128.046 158.029,118.234c82.2,-10.509 131.962,-104.18 171.533,-167.217c51.517,-82.079 95.483,-168.725 130.929,-258.908c19.638,-49.963 -57.612,-81.271 -77.246,-31.325c-27.312,69.5 -59.262,137.404 -97.054,201.85c-19.5,33.245 -40.287,65.737 -62.316,97.366c-16.467,23.638 -33.975,54.296 -59.534,69.388c-20.612,12.175 -37.591,6.075 -53.371,-9.317c-19.27,-18.796 -31.475,-44.917 -41.575,-69.404c-30.379,-73.679 -55.65,-149.863 -83.254,-224.625c-33.325,-90.267 -66.65,-180.533 -99.975,-270.8c-18.575,-50.321 -94.896,-16.817 -76.346,33.433" style="fill:#44c17a;fill-rule:nonzero;" />
    <path id="GOUR_009_002_FRAG_004" d="M3207.19,1500.88c21.196,-41.654 73.363,-66.762 119.121,-57.004c47.471,10.121 81.308,52.754 86.475,99.812c5.854,53.284 88.242,40.638 82.383,-12.687c-9.254,-84.263 -76.137,-154.729 -159.196,-169.896c-84.437,-15.421 -168.254,34.208 -206.029,108.454c-10.204,20.059 3.375,46.359 22.963,54.284c22.387,9.054 44.041,-2.83 54.283,-22.963" style="fill:#44c17a;fill-rule:nonzero;" />
    <path id="GOUR_009_002_FRAG_005" d="M3461.95,1992.6c23.408,102.862 61.891,231.729 175.97,265.812c124.28,37.134 240.996,-45.825 298.33,-151.475c35.108,-64.691 51.204,-137.754 67.291,-208.962c4.971,-21.979 -15.883,-43.804 -36.55,-46.217c-24.346,-2.841 -41.237,14.509 -46.221,36.554c-25.116,111.171 -60.887,260.875 -189.716,291.959c-123.259,29.741 -165.538,-107.271 -186.721,-200.359c-4.992,-21.929 -24.158,-38.429 -47.533,-34.845c-21.059,3.225 -39.867,25.487 -34.85,47.533" style="fill:#44c17a;fill-rule:nonzero;" />
    <path id="GOUR_009_002_FRAG_006" d="M4084.29,1523.3c-0.358,-53.688 -3.713,-118.1 26.85,-165.18c18.596,-28.645 61.083,-55.108 91.983,-39.72c20.796,10.354 30.484,35.137 37.579,55.675c9.255,26.779 14.592,55.12 21.134,82.645c15.983,67.259 31.141,134.713 45.466,202.342c27.421,129.408 47.73,260.125 74.396,389.625c22.463,109.079 61.163,229.304 156.871,296.175c95.392,66.65 229.592,77.129 314.221,-11.629c15.537,-16.3 8.262,-45.933 -8.238,-58.358c-19.737,-14.863 -42.779,-8.1 -58.358,8.237c-59.046,61.933 -171.737,27.175 -225.567,-27.729c-76.908,-78.446 -93.85,-198.958 -111.845,-302.267c-24.15,-138.646 -51.596,-276.708 -82.55,-414c-14.667,-65.066 -27.092,-132.175 -48.2,-195.525c-18.238,-54.733 -57.45,-103.358 -117.671,-111.35c-59.804,-7.933 -122.917,26.629 -155.817,75.759c-40.696,60.783 -43.5,134.966 -43.025,205.637c0.15,22.5 12.229,43.375 36.554,46.217c20.238,2.362 46.367,-13.896 46.217,-36.554" style="fill:#44c17a;fill-rule:nonzero;" />
    <path id="GOUR_009_002_FRAG_007" d="M4929.96,1423.66c108.992,197.221 170.075,417.838 177.004,643.163c2.438,79.383 -4.112,207.891 97.925,229.479c44.079,9.329 86.096,-13.317 109.938,-50.029c27.016,-41.6 34.041,-90.246 41.946,-138.171c19.879,-120.542 44.85,-240.384 75.641,-358.621c10.192,-39.133 17.429,-95.104 46.479,-126.013c28.005,-29.795 67.534,1.309 82.959,28.492c25.2,44.413 30.404,100.579 43.054,149.396c13.042,50.321 27.742,100.262 44.058,149.617c33.284,100.658 73.817,198.92 121.025,293.841c105.279,211.679 242.871,407.104 407.996,576.342c15.7,16.096 39.588,21.812 58.525,6.833c16.242,-12.841 22.629,-42.337 6.833,-58.525c-145.616,-149.25 -270.525,-318.633 -368.525,-502.75c-48.733,-91.554 -91.154,-186.475 -126.775,-283.883c-17.75,-48.542 -34.045,-97.704 -48.095,-147.45c-13.842,-49.013 -24.121,-98.808 -37.121,-148.013c-13.917,-52.67 -35.842,-105.454 -83.654,-135.966c-44.775,-28.575 -102.43,-32.588 -145.713,1.421c-38.112,29.95 -54.5,77.1 -66.796,122.15c-16.666,61.066 -31.979,122.533 -45.941,184.275c-13.138,58.116 -25.025,116.516 -35.642,175.145c-8.825,48.717 -11.263,102.284 -30.229,147.813c-5.217,12.517 -14.163,26.496 -20.484,30.362c-4.57,2.796 -5.004,2.838 -10.804,2.571c-4.579,-0.208 -7.854,-2.087 -9.925,-4.237c-18.221,-18.917 -22.708,-62.021 -23.458,-88.584c-1.796,-63.841 -2.438,-126.966 -9.896,-190.529c-7.367,-62.796 -18.875,-125.1 -34.4,-186.387c-31.379,-123.875 -77.754,-243.304 -139.579,-355.175c-10.867,-19.667 -32.933,-31.079 -54.888,-21.459c-19.162,8.4 -32.4,35.092 -21.458,54.892" style="fill:#44c17a;fill-rule:nonzero;" />
  </g>
</svg>