<?xml version="1.0" encoding="UTF-8" standalone="no"?>
<!DOCTYPE svg PUBLIC "-//W3C//DTD SVG 1.1//EN" "http://www.w3.org/Graphics/SVG/1.1/DTD/svg11.dtd"><svg width="100%" height="100%" viewBox="0 0 8000 4500" version="1.1" xmlns="http://www.w3.org/2000/svg" xmlns:xlink="http://www.w3.org/1999/xlink" xml:space="preserve" xmlns:serif="http://www.serif.com/" style="fill-rule:evenodd;clip-rule:evenodd;stroke-linecap:square;stroke-linejoin:round;stroke-miterlimit:10;">
  <g id="grille">
    <path d="M1497.79,305.458l-0,3875.12" style="fill:none;fill-rule:nonzero;stroke:#f96806;stroke-width:2.08px;" />
    <path d="M7266.38,534.708l-6614.5,0" style="fill:none;fill-rule:nonzero;stroke:#f96806;stroke-width:2.08px;" />
    <path d="M7266.38,822.208l-6614.5,0" style="fill:none;fill-rule:nonzero;stroke:#f96806;stroke-width:2.08px;" />
    <path d="M7266.38,1109.71l-6614.5,0" style="fill:none;fill-rule:nonzero;stroke:#f96806;stroke-width:2.08px;" />
    <path d="M7266.38,1397.21l-6614.5,0" style="fill:none;fill-rule:nonzero;stroke:#f96806;stroke-width:2.08px;" />
    <path d="M7266.38,1684.71l-6614.5,0" style="fill:none;fill-rule:nonzero;stroke:#f96806;stroke-width:2.08px;" />
    <path d="M7266.38,1972.21l-6614.5,0" style="fill:none;fill-rule:nonzero;stroke:#f96806;stroke-width:2.08px;" />
    <path d="M7266.38,2259.71l-6614.5,0" style="fill:none;fill-rule:nonzero;stroke:#f96806;stroke-width:2.08px;" />
    <path d="M7266.38,2547.21l-6614.5,0" style="fill:none;fill-rule:nonzero;stroke:#f96806;stroke-width:2.08px;" />
    <path d="M7266.38,2834.71l-6614.5,0" style="fill:none;fill-rule:nonzero;stroke:#f96806;stroke-width:2.08px;" />
    <path d="M7266.38,3122.21l-6614.5,0" style="fill:none;fill-rule:nonzero;stroke:#f96806;stroke-width:2.08px;" />
    <path d="M7266.38,3409.71l-6614.5,0" style="fill:none;fill-rule:nonzero;stroke:#f96806;stroke-width:2.08px;" />
    <path d="M7266.38,3697.21l-6614.5,0" style="fill:none;fill-rule:nonzero;stroke:#f96806;stroke-width:2.08px;" />
    <path d="M7266.38,3984.71l-6614.5,0" style="fill:none;fill-rule:nonzero;stroke:#f96806;stroke-width:2.08px;" />
    <path d="M2189.46,305.458l0,3875.12" style="fill:none;fill-rule:nonzero;stroke:#f96806;stroke-width:2.08px;" />
    <path d="M806.125,305.458l0,3875.12" style="fill:none;fill-rule:nonzero;stroke:#f96806;stroke-width:2.08px;" />
    <path d="M2881.12,305.458l0,3875.12" style="fill:none;fill-rule:nonzero;stroke:#f96806;stroke-width:2.08px;" />
    <path d="M3572.79,305.458l-0,3875.12" style="fill:none;fill-rule:nonzero;stroke:#f96806;stroke-width:2.08px;" />
    <path d="M4264.46,305.458l0,3875.12" style="fill:none;fill-rule:nonzero;stroke:#f96806;stroke-width:2.08px;" />
    <path d="M4956.12,305.458l0,3875.12" style="fill:none;fill-rule:nonzero;stroke:#f96806;stroke-width:2.08px;" />
    <path d="M5647.79,305.458l-0,3875.12" style="fill:none;fill-rule:nonzero;stroke:#f96806;stroke-width:2.08px;" />
    <path d="M6339.46,305.458l0,3875.12" style="fill:none;fill-rule:nonzero;stroke:#f96806;stroke-width:2.08px;" />
    <path d="M7031.12,305.458l0,3875.12" style="fill:none;fill-rule:nonzero;stroke:#f96806;stroke-width:2.08px;" />
  </g>
  <g id="fragments">
    <path id="GOUR_002_001_FRAG_001" d="M900.875,2543.96c256.458,5.709 512.875,11.459 769.333,17.167c22.5,0.5 43.417,-12.708 46.209,-36.542c2.416,-20.75 -13.917,-45.708 -36.542,-46.208c-256.458,-5.708 -512.875,-11.458 -769.333,-17.167c-22.5,-0.5 -43.417,12.709 -46.209,36.542c-2.416,20.75 13.917,45.708 36.542,46.208Z" style="fill:#44c17a;fill-opacity:0.7;fill-rule:nonzero;" />
    <path id="GOUR_002_002_FRAG_002" d="M1931.96,1829.08c0.417,-1.5 5.875,-15.75 3.292,-11.083c4.292,-7.667 2.75,-5.125 8.167,-9.792c5.916,-5.125 16.25,-9.333 24.833,-10.458c21.708,-2.917 44.25,-0.042 61.125,12.208c54.208,39.292 59.042,123.5 66.25,183.875c22.542,189.292 44,378.75 67.458,567.917c8.042,65.042 25.125,138.25 78.292,181.75c65.292,53.375 155.917,25.125 205.292,-35.208c27.125,-33.167 41.875,-74.75 53.416,-115.417c13,-45.792 25.25,-91.833 37.834,-137.75c24.958,-91.042 49.916,-182.042 74.875,-273.083c14.291,-52.209 28.625,-104.417 42.916,-156.625c12.167,-44.417 22.042,-90.625 39.792,-133.25c6.417,-15.459 14.292,-30.75 25.833,-43.084c9.584,-10.25 19,-15.916 29.542,-17.791c12.042,-2.167 22.708,-1.25 33.333,3.375c0.667,0.291 6.792,3.833 2.334,1.041c1.166,0.75 9.666,8.334 5.333,3.917c3.958,4 2.833,2.25 3.917,8.167c9.5,52.625 91.958,40.291 82.375,-12.667c-13.792,-76.5 -102.167,-104.875 -168.625,-77.917c-76.417,30.959 -99.417,121.417 -119,192.75c-53.584,195.459 -107.125,390.875 -160.75,586.334c-10.875,39.708 -20.5,83.375 -45.75,116.833c-18.334,24.25 -50.917,44.125 -78.959,32.292c-22,-9.292 -35,-34.792 -44.083,-60.625c-11.333,-32.125 -14.458,-66.75 -18.458,-100.334c-11.875,-100.125 -23.792,-200.291 -35.667,-300.416c-11.458,-96.417 -20.5,-193.459 -34.833,-289.459c-12.292,-82.375 -44,-181.541 -131.375,-211.333c-68.334,-23.292 -164,-3.833 -185.917,74.667c-6.042,21.666 0.458,45.166 22.958,54.291c19.042,7.542 48.167,-1.333 54.25,-23.125Z" style="fill:#44c17a;fill-rule:nonzero;" />
    <path id="GOUR_002_003_FRAG_003" d="M3119.5,1989.29c12.167,-45 46.417,-82.334 93.875,-89.792c42.625,-6.667 91.375,14.625 113.625,52.333c17.125,28.959 62.667,35.417 76.792,-1.041c33.958,-87.75 71.541,-174.084 112.916,-258.584c20.667,-42.208 41.834,-84.333 64.792,-125.375c16.292,-29.125 35.5,-58.708 60.083,-81.5c20.917,-19.416 47.917,-36.416 77.334,-29.5c27.208,6.375 46.75,30.084 61.375,53.209c19.958,31.458 33.083,67.458 47.625,101.625c19.5,45.875 39.041,91.75 58.541,137.666c44.459,104.5 88.917,209.042 133.375,313.542c21,49.333 97.375,16.042 76.334,-33.417c-43.375,-101.958 -86.75,-203.916 -130.125,-305.875c-21.125,-49.708 -42.292,-99.416 -63.417,-149.125c-16.958,-39.833 -33.333,-79.583 -57,-116.041c-46.792,-72.209 -133.708,-111.125 -214,-66.959c-79.292,43.584 -120.75,130.542 -160.5,207.5c-54,104.5 -102.167,211.917 -144.625,321.625c25.583,-0.333 51.208,-0.708 76.792,-1.041c-40.75,-69 -115.625,-111.334 -196.792,-102.084c-75.917,8.667 -144.417,68.084 -164.292,141.667c-5.875,21.708 0.334,45.125 22.959,54.292c18.958,7.458 48.416,-1.292 54.333,-23.125Z" style="fill:#98ff7b;fill-rule:nonzero;" />
    <path id="GOUR_002_004_FRAG_003-4-5" d="M4124.38,2319.67c25,117.458 79.417,263.333 224.167,257.75c65.833,-2.542 128.041,-42.875 167,-94.5c44.958,-59.542 62.291,-134.792 74.291,-207c27.542,-165.584 51,-331.959 76.417,-497.875c12.75,-83.375 25.542,-166.75 38.292,-250.125c5.875,-38.292 10.416,-77.084 18.208,-115.042c4.333,-21.125 11.667,-47.875 28.042,-61.542c44.958,-37.5 89,52.75 99.291,87.459c19.792,66.708 35.584,143.125 100,182.041c19.25,11.625 43.875,11 58.375,-8.25c12.459,-16.583 11.125,-46.666 -8.25,-58.375c-45.833,-27.708 -55.5,-85.875 -69.333,-133.708c-17.917,-62.083 -53.25,-128.125 -117.208,-152.708c-66.584,-25.584 -129.334,14.833 -156.209,75.791c-12.25,27.792 -17.875,58.667 -22.5,88.5c-6.333,41 -12.541,82 -18.833,123c-25.333,165.375 -50.667,330.75 -76,496.125c-12.042,78.542 -22.333,157.584 -36.708,235.75c-11,60 -28.542,127.5 -76.167,169.459c-44.125,38.875 -108.125,55 -153.583,10.166c-40.917,-40.333 -55.375,-105.208 -67,-159.708c-11,-52.083 -93.5,-39.875 -82.292,12.792Z" style="fill:#0ec6a2;fill-rule:nonzero;" />
    <path id="GOUR_002_005_FRAG_005" d="M5165.46,1868.83c5.125,-8.083 9.125,-9.833 19.042,-9.166c12,0.75 21.75,7.541 30.458,18c25.542,30.833 37.667,75.208 50.5,112.416c30.292,87.625 49.292,178.792 58.792,270.959c5.042,48.708 74.708,42.958 82.583,-1.5c6.459,-36.5 53.25,-58.5 90.167,-53.625c48.292,6.375 85.333,49.666 105.042,91.208c28.291,59.625 32.291,127.25 39.5,191.833c7.5,67.042 18.708,135.459 51.916,195.167c10.917,19.625 32.875,31.083 54.875,21.458c19.125,-8.375 32.459,-35.125 21.459,-54.875c-61.042,-109.625 -38.792,-243.041 -80.084,-359.333c-35.416,-99.792 -134.166,-194.208 -247.583,-163.667c-59.875,16.125 -107.125,59.959 -118.125,122.209c27.542,-0.5 55.042,-1 82.583,-1.5c-12.125,-117.375 -40.333,-233.167 -83.791,-342.917c-18.584,-46.875 -43.667,-97.333 -92.334,-119c-44.375,-19.792 -104.25,-10.75 -131.625,32.25c-12.083,18.958 -10.708,44.083 8.25,58.375c16.917,12.667 46.25,10.792 58.375,-8.292Z" style="fill:#44c17a;fill-opacity:0.7;fill-rule:nonzero;" />
    <path id="GOUR_002_002_FRAG_007-8" d="M6054.71,1995.75c51.625,-50.667 138.084,-30.875 187.042,19.458c64.917,66.75 76.75,170.5 88.958,258.209c4.834,34.625 54,48.375 74.5,18.708c19.625,-28.375 63.542,-22.792 91.375,-0.75c41.625,32.958 59.625,89.875 80.625,136.583c53.834,119.709 117.834,234.875 190.292,344.292c41.083,62.042 85.167,122.042 131.833,180c33.667,41.792 99.084,-9.833 65.375,-51.708c-89.583,-111.25 -169.375,-230.125 -237.083,-355.917c-33.5,-62.25 -63.083,-126.125 -91.958,-190.625c-26.125,-58.333 -59.167,-117.875 -118.542,-147.583c-58.583,-29.334 -139.375,-20.917 -178.458,35.625c24.833,6.25 49.666,12.458 74.5,18.708c-15.75,-113.417 -37.125,-241 -129.375,-319.458c-75.709,-64.375 -204.334,-85.792 -280.667,-10.875c-16.042,15.75 -21.833,39.541 -6.833,58.541c12.708,16.167 42.291,22.625 58.416,6.792Z" style="fill:#0ec6a2;fill-rule:nonzero;" />
  </g>
</svg>