<?xml version="1.0" encoding="UTF-8"?><svg xmlns="http://www.w3.org/2000/svg" viewBox="0 0 1920 1080"><g id="GRILLE"><g><line x1="935.649" y1="161.658" x2="36.882" y2="161.658" fill="none" stroke="#f86806" stroke-linecap="square" stroke-linejoin="round" stroke-width=".25"/><line x1="935.649" y1="204.178" x2="36.882" y2="204.178" fill="none" stroke="#f86806" stroke-linecap="square" stroke-linejoin="round" stroke-width=".25"/><line x1="935.649" y1="246.698" x2="36.882" y2="246.698" fill="none" stroke="#f86806" stroke-linecap="square" stroke-linejoin="round" stroke-width=".25"/><line x1="935.649" y1="289.218" x2="36.882" y2="289.218" fill="none" stroke="#f86806" stroke-linecap="square" stroke-linejoin="round" stroke-width=".25"/><line x1="935.649" y1="331.738" x2="36.882" y2="331.738" fill="none" stroke="#f86806" stroke-linecap="square" stroke-linejoin="round" stroke-width=".25"/><line x1="935.649" y1="374.259" x2="36.882" y2="374.259" fill="none" stroke="#f86806" stroke-linecap="square" stroke-linejoin="round" stroke-width=".25"/><line x1="935.649" y1="416.779" x2="36.882" y2="416.779" fill="none" stroke="#f86806" stroke-linecap="square" stroke-linejoin="round" stroke-width=".25"/><line x1="935.649" y1="459.299" x2="36.882" y2="459.299" fill="none" stroke="#f86806" stroke-linecap="square" stroke-linejoin="round" stroke-width=".25"/><line x1="935.649" y1="502.24" x2="36.882" y2="502.24" fill="none" stroke="#f86806" stroke-linecap="square" stroke-linejoin="round" stroke-width=".25"/><line x1="935.649" y1="545.181" x2="36.882" y2="545.181" fill="none" stroke="#f86806" stroke-linecap="square" stroke-linejoin="round" stroke-width=".25"/><line x1="935.649" y1="588.122" x2="36.882" y2="588.122" fill="none" stroke="#f86806" stroke-linecap="square" stroke-linejoin="round" stroke-width=".25"/><line x1="935.649" y1="631.063" x2="36.882" y2="631.063" fill="none" stroke="#f86806" stroke-linecap="square" stroke-linejoin="round" stroke-width=".25"/><line x1="935.649" y1="674.004" x2="36.882" y2="674.004" fill="none" stroke="#f86806" stroke-linecap="square" stroke-linejoin="round" stroke-width=".25"/><line x1="935.649" y1="716.946" x2="36.882" y2="716.946" fill="none" stroke="#f86806" stroke-linecap="square" stroke-linejoin="round" stroke-width=".25"/><line x1="935.649" y1="759.887" x2="36.882" y2="759.887" fill="none" stroke="#f86806" stroke-linecap="square" stroke-linejoin="round" stroke-width=".25"/><line x1="935.649" y1="802.828" x2="36.882" y2="802.828" fill="none" stroke="#f86806" stroke-linecap="square" stroke-linejoin="round" stroke-width=".25"/><line x1="935.649" y1="845.769" x2="36.882" y2="845.769" fill="none" stroke="#f86806" stroke-linecap="square" stroke-linejoin="round" stroke-width=".25"/><line x1="935.649" y1="888.71" x2="36.882" y2="888.71" fill="none" stroke="#f86806" stroke-linecap="square" stroke-linejoin="round" stroke-width=".25"/><line x1="935.649" y1="931.651" x2="36.882" y2="931.651" fill="none" stroke="#f86806" stroke-linecap="square" stroke-linejoin="round" stroke-width=".25"/></g><g><line x1="1884.873" y1="161.658" x2="986.106" y2="161.658" fill="none" stroke="#f86806" stroke-linecap="square" stroke-linejoin="round" stroke-width=".25"/><line x1="1884.873" y1="204.178" x2="986.106" y2="204.178" fill="none" stroke="#f86806" stroke-linecap="square" stroke-linejoin="round" stroke-width=".25"/><line x1="1884.873" y1="246.698" x2="986.106" y2="246.698" fill="none" stroke="#f86806" stroke-linecap="square" stroke-linejoin="round" stroke-width=".25"/><line x1="1884.873" y1="289.218" x2="986.106" y2="289.218" fill="none" stroke="#f86806" stroke-linecap="square" stroke-linejoin="round" stroke-width=".25"/><line x1="1884.873" y1="331.738" x2="986.106" y2="331.738" fill="none" stroke="#f86806" stroke-linecap="square" stroke-linejoin="round" stroke-width=".25"/><line x1="1884.873" y1="374.259" x2="986.106" y2="374.259" fill="none" stroke="#f86806" stroke-linecap="square" stroke-linejoin="round" stroke-width=".25"/><line x1="1884.873" y1="416.779" x2="986.106" y2="416.779" fill="none" stroke="#f86806" stroke-linecap="square" stroke-linejoin="round" stroke-width=".25"/><line x1="1884.873" y1="459.299" x2="986.106" y2="459.299" fill="none" stroke="#f86806" stroke-linecap="square" stroke-linejoin="round" stroke-width=".25"/><line x1="1884.873" y1="502.24" x2="986.106" y2="502.24" fill="none" stroke="#f86806" stroke-linecap="square" stroke-linejoin="round" stroke-width=".25"/><line x1="1884.873" y1="545.181" x2="986.106" y2="545.181" fill="none" stroke="#f86806" stroke-linecap="square" stroke-linejoin="round" stroke-width=".25"/><line x1="1884.873" y1="588.122" x2="986.106" y2="588.122" fill="none" stroke="#f86806" stroke-linecap="square" stroke-linejoin="round" stroke-width=".25"/><line x1="1884.873" y1="631.063" x2="986.106" y2="631.063" fill="none" stroke="#f86806" stroke-linecap="square" stroke-linejoin="round" stroke-width=".25"/><line x1="1884.873" y1="674.004" x2="986.106" y2="674.004" fill="none" stroke="#f86806" stroke-linecap="square" stroke-linejoin="round" stroke-width=".25"/><line x1="1884.873" y1="716.946" x2="986.106" y2="716.946" fill="none" stroke="#f86806" stroke-linecap="square" stroke-linejoin="round" stroke-width=".25"/><line x1="1884.873" y1="759.887" x2="986.106" y2="759.887" fill="none" stroke="#f86806" stroke-linecap="square" stroke-linejoin="round" stroke-width=".25"/><line x1="1884.873" y1="802.828" x2="986.106" y2="802.828" fill="none" stroke="#f86806" stroke-linecap="square" stroke-linejoin="round" stroke-width=".25"/><line x1="1884.873" y1="845.769" x2="986.106" y2="845.769" fill="none" stroke="#f86806" stroke-linecap="square" stroke-linejoin="round" stroke-width=".25"/><line x1="1884.873" y1="888.71" x2="986.106" y2="888.71" fill="none" stroke="#f86806" stroke-linecap="square" stroke-linejoin="round" stroke-width=".25"/><line x1="1884.873" y1="931.651" x2="986.106" y2="931.651" fill="none" stroke="#f86806" stroke-linecap="square" stroke-linejoin="round" stroke-width=".25"/></g></g><g id="FRAGMENTS"><g id="AQUA_001_019_FRAG_007"><path d="M711.595,252.68c12.93,5.536,21.28,19.042,20.277,33.105-.263,3.691,3.384,6.785,6.972,5.161,11.158-5.052,23.651,1.487,30.384,10.733,7.997,10.982,9.667,25.362,11.427,38.441,.858,6.374,10.746,4.869,9.886-1.522-2.154-16.011-4.715-34.07-16.186-46.421-9.947-10.71-25.568-16.711-39.523-10.393l6.972,5.161c1.322-18.546-9.327-36.202-26.451-43.534-5.928-2.538-9.67,6.738-3.759,9.269h0Z" fill="#c6e1ca"/></g><g id="AQUA_001_019_FRAG_006"><path d="M595.151,279.034c16.389,13.623,36.94,26.062,58.802,18.097,9.278-3.38,16.145-10.606,19.379-19.886,3.017-8.657,3.536-25.443,14.606-28.219,6.183-1.551,4.737-11.456-1.522-9.886-9.29,2.33-15.111,9.814-18.048,18.654-3.152,9.487-3.477,20.755-12.328,27.063-18.398,13.111-40.558-1.914-54.874-13.814-4.963-4.126-10.95,3.888-6.014,7.991h0Z" fill="#c6e1ca"/></g><g id="AQUA_001_019_FRAG_005"><path d="M516.232,265.619c18.039-9.03,39.959-8.193,56.992,2.807,5.387,3.479,11.426-4.496,6.014-7.991-19.962-12.891-45.677-14.66-67.018-3.977-5.732,2.869-1.765,12.054,4.012,9.162h0Z" fill="#c6e1ca"/></g><g id="AQUA_001_019_FRAG_004"><path d="M429.935,206.767c11.888-5.916,20.947,6.609,24.449,16.396,4.528,12.654,5.592,26.801,3.939,40.076-.678,5.445-2.537,11.291-.739,16.707,1.559,4.698,5.488,8.076,10.432,8.783,11.618,1.66,18.14-8.365,22.404-17.499,2.728-5.845-6.556-9.571-9.269-3.759-1.941,4.158-4.399,10.339-9.498,11.302-7.021,1.326-4.391-7.595-3.782-11.577,1.913-12.5,1.469-25.493-1.385-37.815-2.306-9.956-5.871-20.121-13.615-27.179-7.212-6.574-18.027-9.035-26.946-4.596-5.74,2.856-1.772,12.04,4.012,9.162h0Z" fill="#c6e1ca"/></g><g id="AQUA_001_019_FRAG_003"><path d="M303.368,321.996c7.467-.564,12.735-6.013,16.07-12.329,3.279-6.209,3.853-14.631,8.807-19.826,2.921-3.063,7.275-3.58,10.929-5.375,2.718-1.335,5.163-3.15,7.014-5.57,3.912-5.113,4.693-11.673,6.064-17.76,.624-2.773,1.293-5.796,3.007-8.129,2.277-3.1,6.194-3.893,9.681-4.927,6.828-2.026,12.429-5.228,15.289-12.118,2.735-6.586,1.862-14.054,4.52-20.619,2.995-7.396,9.871-12.337,17.66-13.455,6.364-.914,4.865-10.803-1.522-9.886-15.454,2.219-25.478,14.22-27.743,29.138-1.166,7.674-1.321,14.204-9.591,16.99-6.828,2.301-13.181,3.763-17.21,10.321-3.393,5.522-3.803,12.003-5.429,18.127-.651,2.452-1.516,5.244-3.372,7.09-2.805,2.789-7.383,3.279-10.807,5.035-6.609,3.389-10.017,9.756-12.415,16.486-2.242,6.294-4.352,16.307-12.474,16.921-6.411,.484-4.875,10.369,1.522,9.886h0Z" fill="#c6e1ca"/></g><g id="AQUA_001_019_FRAG_002"><path d="M220.497,251.116c7.418,7.229,11.719,16.797,12.866,27.017,.659,5.865,8.913,5.132,9.909-.181,1.885-10.046,14.386-9.847,20.905-4.866,8.18,6.251,10.306,16.967,11.295,26.626,.655,6.399,10.541,4.878,9.886-1.522-1.493-14.586-6.735-30.402-21.286-36.692-12.743-5.509-28.103,1.283-30.732,15.295l9.909-.181c-1.46-12.995-7.426-24.411-16.738-33.486-4.606-4.489-10.564,3.557-6.014,7.991h0Z" fill="#c6e1ca"/></g><g id="AQUA_001_019_FRAG_001"><path d="M92.622,287.087c2.758-15.782,7.806-31.037,15.004-45.356,3.625-7.212,7.823-14.116,12.51-20.686,3.24-4.542,10.029-16.211,16.836-15.047,6.117,1.046,6.662,11.535,7.149,16.168,.964,9.177,1.374,18.405,1.355,27.631-.039,18.432-1.554,36.818-3.07,55.175-.458,5.546,7.414,7.792,9.601,2.459,8.799-21.461,19.195-45.842,43.214-53.477,6.123-1.947,2.079-11.098-4.012-9.162-26.502,8.424-38.735,35.134-48.472,58.881l9.601,2.459c1.41-17.073,2.818-34.165,3.04-51.303,.11-8.504-.044-17.024-.622-25.51-.48-7.054-.799-14.502-3.306-21.198-4.767-12.736-17.995-15.594-28.061-6.587-10.512,9.407-18.317,23.244-24.648,35.681-7.8,15.322-13.094,31.789-16.052,48.712-1.109,6.344,8.827,7.483,9.933,1.16h0Z" fill="#c6e1ca"/></g><g id="AQUA_001_020_FRAG_007"><path d="M739.499,475.774c.298,9.545,.907,19.321,5.926,27.721,2.086,3.491,4.823,6.672,8.248,8.916,3.839,2.515,9.113,3.12,12.568,6.108,3.17,2.742,4.622,7.487,6.859,10.947,2.269,3.509,5.101,6.616,8.232,9.377,6.71,5.918,15.097,9.529,23.886,10.916,6.362,1.004,7.51-8.93,1.16-9.933-7.626-1.204-14.783-4.691-20.295-10.141-5.374-5.313-7.314-13.027-12.738-18.145-5.796-5.47-14.338-5.374-18.95-12.443-4.72-7.234-4.75-16.523-5.01-24.846-.2-6.41-10.085-4.849-9.886,1.522h0Z" fill="#52b378"/></g><g id="AQUA_001_020_FRAG_006"><path d="M620.085,449.284c5.657-4.671,12.812-.006,16.284,5.033,4.075,5.913,6.109,13.358,8.598,20.022,6.194,16.584,12.388,33.168,18.582,49.752,1.534,4.108,7.663,3.711,9.216-.127,13.572-33.536,32.602-64.46,56.355-91.747,4.236-4.866-3.787-10.844-7.991-6.014-24.279,27.892-43.761,59.726-57.633,94.003l9.216-.127c-7.638-20.451-14.784-41.174-22.98-61.407-2.966-7.322-7.114-14.675-14.284-18.558-6.873-3.722-15.388-3.775-21.565,1.325-4.963,4.098,1.229,11.951,6.203,7.843h0Z" fill="#52b378"/></g><g id="AQUA_001_020_FRAG_005"><path d="M567.74,502.165c4.696,15.346,17.581,26.446,33.044,29.987,6.264,1.434,7.376-8.509,1.16-9.933-12.183-2.789-21.44-12.294-25.042-24.066-1.879-6.14-11.029-2.089-9.162,4.012h0Z" fill="#52b378"/></g><g id="AQUA_001_020_FRAG_004"><path d="M452.399,421.093c9.812-1.816,18.664,5.041,22.8,13.573,4.716,9.727,4.893,20.966,5.198,31.558,.048,1.662,1.6,3.304,3.064,3.874,11.248,4.378,15.051,16.863,17.22,27.66,2.414,12.016,4.136,24.561,12.004,34.459,6.248,7.859,16.083,13.092,26.195,10.292,9.459-2.619,16.79-11.063,15.368-21.177-.895-6.368-10.784-4.866-9.886,1.522,1.225,8.716-10.25,12.231-16.715,9.125-8.901-4.277-12.739-14.831-14.734-23.795-3.944-17.722-6.172-39.757-25.694-47.355l3.064,3.874c-.387-13.456-1.136-27.609-8.863-39.158-6.647-9.934-18.478-16.57-30.543-14.337-6.309,1.168-4.831,11.062,1.522,9.886h0Z" fill="#52b378"/></g><g id="AQUA_001_020_FRAG_003"><path d="M324.576,489.05c5.156,11.581,16.745,19.8,29.586,19.805,12.917,.005,24.356-7.933,29.746-19.499l-5.215,3.087c13.962,2.708,27.731-3.795,37.229-13.833,10.846-11.462,15.685-27.014,20.139-41.778,1.846-6.12-7.411-9.92-9.269-3.759-6.392,21.19-18.293,54.994-46.939,49.437-2.218-.43-4.332,1.193-5.215,3.087-8.222,17.641-33.076,17.016-40.901-.559-2.615-5.875-11.788-1.887-9.162,4.012h0Z" fill="#52b378"/></g><g id="AQUA_001_020_FRAG_002"><path d="M224.384,460.429c8.433,9.556,13.36,21.878,13.017,34.714-.136,5.076-1.905,10.67,.807,15.374,3.121,5.413,8.394,3.879,13.249,5.984,4.728,2.05,8.223,6.318,12.901,8.578,5.152,2.488,11.103,2.685,16.583,1.26,12.096-3.145,19.828-13.16,26.695-22.894,3.711-5.26-4.276-11.28-7.991-6.014-5.873,8.325-12.852,18.698-23.97,19.745-9.923,.934-15.581-9.719-25.044-11.272-1.769-.29-3.313,.249-3.901-1.256-.677-1.734,.479-5.717,.566-7.539,.239-4.998-.088-10.054-1.109-14.956-2.159-10.374-6.95-19.984-13.959-27.926-4.248-4.813-12.112,1.366-7.843,6.203h0Z" fill="#52b378"/></g><g id="AQUA_001_020_FRAG_001"><path d="M83.988,528.207c7.797,13.133,24.54,15.796,37.265,8.125,15.301-9.224,20.123-27.024,24.017-43.288l-9.547,1.426c4.014,9.22,8.56,18.864,17.398,24.395,8.082,5.058,17.779,5.249,25.717-.178,7.743-5.294,12.327-14.313,15.906-22.703,4.486-10.517,7.362-21.683,8.786-33.017,.803-6.386-9.129-7.552-9.933-1.16-1.892,15.057-6.242,33.306-16.504,45.05-5.24,5.997-12.392,7.862-19.266,3.164-6.641-4.538-9.853-12.466-12.944-19.564-2.151-4.94-8.463-3.101-9.547,1.426-2.816,11.76-5.947,24.979-15.541,33.211-7.245,6.217-20.818,8.918-26.647-.901-3.242-5.46-12.449-1.526-9.162,4.012h0Z" fill="#52b378"/></g><g id="AQUA_001_021_FRAG_001"><path d="M91.569,732.744c10.358-14.568,28.797-2.834,34.951,9.206,4.32,8.451,5.493,17.746,6.968,26.985,.911,5.708,2.853,12.529,8.666,15.06,6.289,2.739,12.319-1.15,15.277-6.667,4.262-7.949,3.826-18.058,4.153-26.806,.302-8.071,.653-16.765,4.62-24.024,3.478-6.364,12.148-12.488,19.469-8.279,5.519,3.173,11.583-4.79,6.014-7.991-11.149-6.41-24.828-2.239-32.11,8.096-8.815,12.51-7.227,27.977-8.453,42.409-.181,2.126-2.464,18.48-6.164,12.552-1.473-2.36-1.563-5.786-1.949-8.46-.582-4.027-1.243-8.046-2.183-12.007-3.077-12.967-9.317-25.831-21.324-32.652-11.778-6.691-27.767-4.911-35.926,6.563-3.731,5.248,4.257,11.266,7.991,6.014h0Z" fill="#b6e565"/></g><g id="AQUA_001_021_FRAG_002"><path d="M207.012,787.349c15.378-4.875,29.596-12.683,42.028-22.959l-8.068-4.501c-1.746,12.941-2.163,28.525,10.545,36.214,11.773,7.123,22.855-1.127,28.829-11.414,15.06-25.934,25.347-55.691,32.832-84.619,4.436-17.143,7.761-34.521,9.924-52.096,.786-6.388-9.146-7.555-9.933-1.16-4.016,32.632-12.054,64.623-24.115,95.217-2.885,7.318-5.99,14.548-9.312,21.678-3.162,6.786-6.124,14.366-10.882,20.229-4.339,5.347-10.438,6.654-15.236,.958-5.46-6.483-3.756-16.171-2.721-23.847,.574-4.253-4.741-7.251-8.068-4.501-11.834,9.781-25.204,17.002-39.837,21.64-6.125,1.941-2.08,11.093,4.012,9.162h0Z" fill="#b6e565"/></g><g id="AQUA_001_021_FRAG_003"><path d="M333.822,764.545c-3.353,8.382,1.441,17.553,9.476,21.116,8.97,3.977,18.756-.712,24.774-7.606,7.436-8.519,8.482-20.052,11.367-30.51,2.311-8.376,10.791-25.026,21.965-17.044,3.719,2.657,8.286-.46,7.95-4.757-1.913-24.469,17.807-45.728,42.429-45.371,6.372,.092,7.599-9.839,1.16-9.933-31.367-.455-55.926,25.47-53.475,56.826l7.95-4.757c-7.023-5.017-16.037-4.632-23.275-.181-8.125,4.996-12.068,14.162-14.392,23.032-2.395,9.141-3.254,20.183-10.23,27.245-2.844,2.88-7.167,5.436-11.338,4.229-3.528-1.022-6.544-4.9-5.092-8.532,2.393-5.983-6.878-9.737-9.269-3.759h0Z" fill="#b6e565"/></g><g id="AQUA_001_021_FRAG_004"><path d="M474.495,703.863c2.697,22.607,6.934,45.006,12.813,67.004,2.278,8.525,3.854,19.143,9.849,26.016,5.115,5.864,14.025,6.726,19.163,.306,6.429-8.033,1.152-17.279,4.046-26.044,2.346-7.104,8.91-12.42,13.929-17.639,6.137-6.382,10.644-13.143,12.71-21.868,2.274-9.601,1.868-19.594,4.129-29.205,4.68-19.897,17.844-37.832,35.402-48.279,5.457-3.246,1.522-12.454-4.012-9.162-14.154,8.421-25.545,20.197-33.338,34.733-3.992,7.447-6.794,15.462-8.462,23.743-1.741,8.642-1.367,17.632-3.455,26.204-3.823,15.696-20.372,22.499-25.951,37.138-1.227,3.219-1.732,6.529-1.687,9.961,.047,3.551,2.32,11.845-1.303,14.404-5.441,3.844-9.711-16.598-10.391-19.084-6.261-22.878-10.748-46.2-13.557-69.749-.762-6.387-10.649-4.875-9.886,1.522h0Z" fill="#b6e565"/></g><g id="AQUA_001_021_FRAG_005"><path d="M594.721,772.124c7.777-7.711,24.27-5.284,27.545,6.116l8.865-3.863c-4.364-4.703,6.381-6.142,9.104-5.981,5.792,.342,11.543,1.628,17.241-.154,9.304-2.909,12.878-11.825,14.212-20.722,1.823-12.155,2.777-23.985,6.564-35.796,2.828-8.821,6.537-22.032,15.495-26.726,13.264-6.95,16.418,20.421,19.616,27.569,2.522,5.639,6.481,10.562,12.625,12.286,9.887,2.774,18.944-4.218,23.029-12.83,5.44-11.468,2.377-24.896,7.47-36.58,4.574-10.494,13.108-18.72,23.597-23.187,5.92-2.521,1.924-11.69-4.012-9.162-9.71,4.135-18.185,11.015-24.045,19.823-6.529,9.814-8.527,20.23-9.482,31.779-.462,5.586-.918,11.613-4.474,16.215-2.792,3.612-7.558,6.265-11.683,3.221-4.845-3.576-6.174-11.908-7.763-17.285-1.935-6.547-4.087-13.618-9.326-18.343-6.544-5.901-15.867-5.683-22.871-.658-9.099,6.529-13.462,18.193-16.877,28.387-4.099,12.237-6.001,24.616-7.447,37.383-.538,4.749-1.164,11.402-5.646,14.267-5.429,3.471-13.671,.227-19.705,.493-5.721,.252-11.243,2.321-14.337,7.382-2.842,4.647-2.954,10.699,.873,14.822,2.982,3.214,10.384,1.424,8.865-3.863-5.114-17.798-29.825-26.127-43.634-12.437-4.526,4.487,1.632,12.375,6.203,7.843h0Z" fill="#b6e565"/></g><g id="AQUA_001_021_FRAG_006"><path d="M801.186,718.639c4.892-1.528,9.371,3.082,11.162,7.097,2.18,4.889,2.29,10.564,2.548,15.826,.276,5.648,9.468,5.379,9.909-.181,.325-4.099,5.233-4.201,7.926-2.203,3.878,2.877,5.08,8.058,5.809,12.546,1.436,8.845,2.582,17.315,6.232,25.6,6.761,15.344,18.677,27.694,33.499,35.401,5.715,2.972,9.422-6.325,3.759-9.269-19.265-10.017-30.283-28.67-33.113-49.73-1.3-9.674-4.202-21.014-14.383-24.934-8.461-3.257-18.917,2.023-19.663,11.43l9.909-.181c-.415-8.479-1.216-17.87-7.147-24.512-5.341-5.981-12.781-8.449-20.461-6.051-6.131,1.914-2.084,11.065,4.012,9.162h0Z" fill="#b6e565"/></g><g id="AQUA_001_022_FRAG_001"><path d="M1075.861,257.474c-16.91,8.234-19.092,27.667-20.356,44.354-.381,5.03-.771,10.163-2.083,15.053-.589,2.193-4.116,12.896-7.296,9.236-1.304-1.501-1.655-5.175-2.142-6.936-.673-2.437-1.347-4.874-2.02-7.31-1.599-5.787-3.199-11.575-4.798-17.362-1.692-6.122-11.602-4.688-9.886,1.522,1.852,6.701,3.704,13.403,5.556,20.104,1.36,4.92,2.206,10.606,4.713,15.101,5.878,10.541,17.895,5.14,22.39-3.484,5.631-10.806,5.067-23.498,6.351-35.277,1.058-9.704,4.058-21.2,13.584-25.838,5.768-2.809,1.797-11.99-4.012-9.162h0Z" fill="#3db2af"/></g><g id="AQUA_001_022_FRAG_002"><path d="M1097.669,272.401c7.996,9.54,14.454,19.994,19.382,31.426,1.616,3.75,7.856,4.057,9.216-.127,5.687-17.503,11.375-35.007,17.062-52.51,5.574-17.154,10.493-34.713,16.888-51.579,2.381-6.28,5.854-13.443,12.895-15.358,8.442-2.296,11.509,3.853,11.236,11.384-.676,18.641-2.455,37.309-3.693,55.923l8.888-2.522c-1.174-1.829,1.632-4.115,3.205-4.27,2.93-.29,5.483,2.984,6.432,5.333,2.851,7.06-1.513,15.949-4.289,22.355-5.459,12.596-11.973,24.922-11.365,39.058,.506,11.745,7.052,22.794,18.613,26.536,11.313,3.661,21.702-1.798,26.587-12.312,2.14-4.605,3.129-9.634,4.59-14.47,1.518-5.03,5.058-12.541,11.147-13.224,6.853-.769,5.564,10.172,5.287,14.202-.501,7.286-1.173,14.865,1.552,21.83,3.932,10.053,14.972,17.022,25.387,11.728,11.205-5.696,14.75-20.586,18.684-31.351,12.547-34.336,25.095-68.673,37.642-103.009,2.207-6.041-7.058-9.81-9.269-3.759-11.521,31.527-23.042,63.054-34.563,94.581-2.779,7.605-5.294,15.374-8.431,22.839-1.884,4.484-4.948,11.29-10.291,12.428-6.535,1.392-10.221-6.353-10.938-11.575-1.034-7.532,1.064-15.099,.282-22.648-1.254-12.1-12.498-19.151-23.371-12.648-11.486,6.869-11.797,18.975-16.44,30.092-2.198,5.262-6.163,9.196-12.219,8.393-6.137-.814-10.996-5.414-12.998-11.117-4.895-13.951,3.568-28.59,9.023-40.995,5.488-12.479,11.52-31.603-3.524-40.148-11.971-6.8-26.318,6.287-18.575,18.356,2.34,3.647,8.613,1.607,8.888-2.522,1.165-17.515,2.36-35.029,3.495-52.546,.424-6.543,.76-13.541-3.124-19.206-3.211-4.684-8.572-7.052-14.163-7.134-13.66-.201-21.827,11.106-26.122,22.744-5.707,15.466-10.302,31.425-15.396,47.103-6.094,18.754-12.187,37.507-18.281,56.261l9.216-.127c-5.243-12.166-12.19-23.465-20.7-33.618-4.133-4.931-11.988,1.259-7.843,6.203h0Z" fill="#3db2af"/></g><g id="AQUA_001_022_FRAG_003"><path d="M1344.29,313.836c10.082,9.064,15.866,21.578,16.891,35.025,.38,4.985,7.909,5.578,9.578,1.118,5.465-14.606,12.129-28.759,20.198-42.113,5.334-8.828,17.338-26.88,29.421-16.605,2.399,2.04,6.608,.811,7.642-2.116,9.056-25.629,22.275-49.375,39.302-70.565,4.043-5.031-3.965-11.025-7.991-6.014-17.52,21.803-31.261,46.448-40.58,72.82l7.642-2.116c-13.621-11.584-30.642-.473-38.996,11.62-10.851,15.707-19.234,33.497-25.906,51.331l9.578,1.118c-1.23-16.134-8.783-30.724-20.763-41.494-4.795-4.311-10.767,3.718-6.014,7.991h0Z" fill="#3db2af"/></g><g id="AQUA_001_022_FRAG_004"><path d="M1490.662,247.649c.597-.985,1.385,2.081,1.435,2.369,.329,1.889-.087,4.032-.245,5.91-.406,4.818-.675,9.644-.762,14.479-.171,9.465,.226,18.953,1.262,28.364,1.782,16.191,4.006,36.877,16.04,49.101,10.678,10.846,26.937,12.124,37.677,.769s14.489-29.369,17.48-44.204c2.002-9.93,2.723-19.881,3.746-29.931,.882-8.657,3.732-19.983,14.167-20.752,6.411-.473,4.874-10.357-1.522-9.886-18.502,1.364-21.982,21.792-23.15,36.498-1.424,17.931-4.558,37.669-12.802,53.869-3.121,6.132-8.215,12.601-15.722,12.656-9.057,.067-15.56-7.904-18.778-15.527-3.746-8.874-5.228-18.875-6.536-28.359-1.391-10.089-2.079-20.287-1.942-30.472,.074-5.485,.42-10.942,.859-16.408,.36-4.486,.618-9.128-1.731-13.164-3.53-6.064-13.446-7.961-17.467-1.326-3.311,5.464,4.657,11.517,7.991,6.014h0Z" fill="#3db2af"/></g><g id="AQUA_001_022_FRAG_005"><path d="M1603.822,325.924c4.082-6.971,10.933,1.527,12.699,5.733,2.916,6.946,3.943,14.138,8.149,20.561,3.53,5.389,11.348-.853,7.843-6.203-6.002-9.164-5.037-21.499-14.233-28.846-6.604-5.276-17.859-5.098-22.449,2.741-3.221,5.501,4.743,11.561,7.991,6.014h0Z" fill="#3db2af"/></g><g id="AQUA_001_022_FRAG_006"><path d="M1646.813,317.356c2.153,13.881,6.422,30.782,21.968,34.979,14.185,3.829,26.04-8.092,29.707-20.789,2.342-8.112,2.65-16.601,3.403-24.961,.817-9.066,1.75-18.122,2.799-27.164,2.098-18.085,4.659-36.116,7.68-54.069,2.228-13.237,3.842-43.931,23.188-43.767,6.367,.054,7.597-9.878,1.16-9.933-13.662-.115-23.516,9.828-27.887,22.146-5.231,14.742-6.672,31.368-9.018,46.766-2.497,16.391-4.611,32.841-6.34,49.331-.874,8.333-1.592,16.676-2.334,25.021-.668,7.516-1.416,15.764-6.187,21.947-4.877,6.322-12.738,8.318-19.058,2.771-6.683-5.866-7.91-15.511-9.195-23.798-.985-6.351-10.875-4.857-9.886,1.522h0Z" fill="#3db2af"/></g><g id="AQUA_001_022_FRAG_007"><path d="M1750.066,297.829c10.596,2.181,10.692,16.464,10.63,24.778l9.909-.181c-.229-2.317,3.022-1.607,4.072-.902,1.728,1.161,2.678,3.369,3.171,5.302,1.216,4.764,.871,10.081,1.029,14.966,.27,8.375-.537,17.735,2.387,25.745,2.593,7.101,8.976,11.736,16.67,11.029,9.053-.832,15.002-8.025,19.863-14.944,3.7-5.267-4.286-11.288-7.991-6.014-2.671,3.801-5.595,8.476-10.089,10.297-5.189,2.102-8.477-.832-9.647-5.73-2.279-9.537-1.108-20.286-1.574-30.031-.399-8.346-3.064-17.72-11.849-20.725-8.396-2.872-16.792,3.794-15.928,12.53,.545,5.507,9.867,5.513,9.909-.181,.11-14.686-2.263-32.342-19.403-35.87-6.302-1.297-7.425,8.643-1.16,9.933h0Z" fill="#3db2af"/></g><g id="AQUA_001_023_FRAG_001"><path d="M1037.12,484.525c1.284-6.544,10.511-5.648,14.314-2.383,5.512,4.731,6.956,12.592,7.693,19.421,.884,8.19,.296,17.837,4.559,25.224,3.506,6.076,10.235,8.133,16.797,6.064,6.947-2.191,10.945-7.518,15.74-12.558,5.88-6.182,11.738-6.304,17.984-.219,9.761,9.51,16.772,26.797,33.46,23.528,6.291-1.232,4.819-11.128-1.522-9.886-8.488,1.662-14.215-7.361-18.563-13.245-4.535-6.137-10.164-12.505-17.786-14.615s-14.385,1.141-19.695,6.47c-3.181,3.193-12.299,16.066-17.409,9.909-2.622-3.159-2.542-9.128-2.903-13.019-.453-4.882-.622-9.81-1.536-14.638-1.367-7.224-4.266-14.452-9.781-19.509-10.107-9.266-28.416-6.314-31.284,8.297-1.24,6.316,8.699,7.444,9.933,1.16h0Z" fill="#4cd36f"/></g><g id="AQUA_001_023_FRAG_002"><path d="M1176.338,535.716c2.283-4.295,8.869-3.832,12.517-1.901,5.644,2.989,9.214,9.288,12.475,14.515,2.996,4.802,11.056-.069,8.503-5.108-3.742-7.385,.745-17.408,8.901-19.495,9.699-2.481,18.436,7.84,17.772,16.905-.379,5.176,5.671,7.208,8.962,3.587,5.561-6.119,13.966-13.196,20.288-4.258,4.225,5.974,6.233,13.222,11.504,18.508,6.06,6.076,15.685,8.061,23.545,4.334,8.095-3.839,12.078-12.015,11.804-20.693-.202-6.41-10.087-4.85-9.886,1.522,.289,9.178-10.778,14.469-17.727,8.452-4.973-4.306-6.985-11.488-10.465-16.911-3.572-5.567-8.885-9.724-15.758-9.765-8.895-.053-15.713,6.653-21.297,12.797l8.962,3.587c1.14-15.571-12.942-31.349-29.267-27.949-14.259,2.97-23.145,20.279-16.5,33.39,2.834-1.703,5.668-3.405,8.503-5.108-5.099-8.173-11.285-17.021-21.315-19.191-8.397-1.817-16.72,1.365-20.79,9.021-3.022,5.685,6.277,9.388,9.269,3.759h0Z" fill="#4cd36f"/></g><g id="AQUA_001_023_FRAG_003"><path d="M1336.905,525.755c-.926-4.03,1.125-7.724,4.834-9.583,4.151-2.081,8.894-.577,12.42,2.053,8.496,6.337,9.649,17.928,10.253,27.698,.399,6.443,10.188,4.835,9.886-1.522-.242-5.092,6.086-6.961,9.994-5.675,4.528,1.489,7.7,5.457,9.716,9.595,4.734,9.711,6.583,21.353,8.54,31.895,4.172,22.469,5.304,45.33,2.355,68.023-.783,6.021,7.023,7.076,9.601,2.459,1.966-3.52,4.289-7.908,7.984-9.87,2.202-1.17,6.871-1.513,7.47,1.76,1.154,6.312,11.048,4.833,9.886-1.522-1.417-7.75-9.032-12.028-16.604-10.946-8.953,1.279-13.99,9.63-18.006,16.82l9.601,2.459c3.967-30.52,.83-61.56-7.028-91.225-3.087-11.656-7.765-24.885-20.47-28.933-11.53-3.674-23.515,4.298-22.926,16.683l9.886-1.522c-.936-15.121-5.454-33.013-21.798-38.161-12.987-4.09-28.828,6.481-25.481,21.037,1.432,6.227,11.333,4.772,9.886-1.522h0Z" fill="#4cd36f"/></g><g id="AQUA_001_023_FRAG_004"><path d="M1463.326,529.792c9.637-5.727,19.976-9.36,31.098-10.791,6.379-.82,4.872-10.708-1.522-9.886-11.898,1.53-23.272,5.384-33.588,11.515-5.458,3.244-1.524,12.452,4.012,9.162h0Z" fill="#4cd36f"/><path d="M1510.172,482.279c6.783-6.972,17.443-9.176,26.523-5.995,6.063,2.124,9.839-7.139,3.759-9.269-13.731-4.81-28.202-1.1-38.272,9.25-4.485,4.61,3.561,10.568,7.991,6.014h0Z" fill="#4cd36f"/></g><g id="AQUA_001_023_FRAG_005"><path d="M1564.137,502.982c11.427,32.773,17.07,67.624,16.216,102.34-.149,6.065-1.581,13.759,2.529,18.937,4.531,5.708,12.147,4.113,16.968-.205,5.58-4.998,9.959-11.988,14.027-18.221s7.785-12.77,11.083-19.467c7.797-15.832,13.095-32.789,16.026-50.18,1.07-6.351-8.865-7.493-9.933-1.16-2.928,17.372-8.485,34.153-16.497,49.847-3.901,7.642-8.423,14.955-13.456,21.903-2.259,3.119-4.554,6.849-7.453,9.434-2.096,1.869-3.106,2.528-3.541-.555-.294-2.084,.029-4.299,.1-6.389,1.282-37.507-4.556-74.877-16.907-110.297-2.118-6.075-11.274-2.045-9.162,4.012h0Z" fill="#4cd36f"/></g><g id="AQUA_001_023_FRAG_006"><path d="M1656.423,531.853c5.601,4.657,9.016,11.507,9.003,18.848-.007,3.916,3.14,6.471,6.972,5.161,6.147-2.103,10.508,5.279,11.725,10.119,1.539,6.119,1.277,12.681,1.957,18.928,1.359,12.479,4.301,24.781,8.519,36.599,8.477,23.753,22.58,45.066,40.707,62.537,4.633,4.465,10.593-3.579,6.014-7.991-19.979-19.256-34.584-44.327-41.454-71.219-1.667-6.525-2.916-13.155-3.717-19.842-.815-6.803-.609-13.837-2.14-20.534-2.687-11.751-12.881-22.117-25.623-17.759l6.972,5.161c.019-11.07-4.368-20.887-12.921-27.999-4.963-4.127-10.95,3.888-6.014,7.991h0Z" fill="#4cd36f"/></g><g id="AQUA_001_024"><g id="AQUA_001_024_FRAG_001"><path d="M1027.913,776.184c8.101,12.445,16.203,24.89,24.304,37.335,2.43,3.733,8.444,1.53,8.888-2.522,1.56-14.234,2.108-29.052,4.911-43.098,.888-4.452,5.342-13.937,11.406-9.729,4.019,2.789,4.65,9.589,5.041,13.985,.313,3.529,4.095,4.698,6.949,3.82,11.431-3.516,23.007,5.288,22.78,17.2-.121,6.376,9.81,7.6,9.933,1.16,.38-19.926-17.73-33.363-36.725-27.521l6.949,3.82c-.619-6.966-2.47-14.936-8.019-19.71-6.189-5.324-15.019-4.386-20.866,.975-6.827,6.26-7.668,15.747-8.617,24.414-1.225,11.175-2.449,22.351-3.674,33.526l8.888-2.522c-8.101-12.445-16.203-24.89-24.304-37.335-3.514-5.399-11.332,.845-7.843,6.203h0Z" fill="#b0dad4"/></g><g id="AQUA_001_024_FRAG_002"><path d="M1137.945,823.042c23.302,13.792,52.443,1.088,57.774-25.551l-7.973,3.416c8.63,4.998,18.666,3.638,26.486-2.422,8.543-6.62,11.986-17.448,14.861-27.406,1.77-6.131-7.486-9.937-9.269-3.759-1.995,6.911-3.972,14.266-8.502,20.009-3.842,4.87-11.489,9.103-17.561,5.586-3.386-1.961-7.177-.565-7.973,3.416-3.757,18.772-25.251,28.53-41.827,18.719-5.49-3.249-11.548,4.716-6.014,7.991h0Z" fill="#b0dad4"/></g><g id="AQUA_001_024_FRAG_003"><path d="M1252.716,818.122c.807,7.663,7.596,12.946,15.031,13.613,8.911,.799,16.114-5.574,20.036-13.001,4.976-9.425,3.964-20.407,7.753-30.162,1.56-4.015,4.302-8.705,8.756-9.946,3.263-.91,7.951,.34,8.678,4.085,.925,4.767,7.655,5.803,9.578,1.118,1.689-4.117,3.344-8.585,6.667-11.689,2.658-2.483,10.993-4.898,10.23,1.477-.65,5.426,7.924,7.991,9.601,2.459,1.028-3.391,4.366-5.622,8.003-4.823,5.123,1.125,5.492,8.587,6.135,12.739,2.104,13.592,3.458,27.286,4.19,41.019,.342,6.413,10.226,4.865,9.886-1.522-.558-10.464-1.471-20.901-2.813-31.294-1.002-7.753-1.265-17.309-5.704-24.027-7.146-10.814-25.147-8.449-28.966,4.15l9.601,2.459c1.154-9.641-7.861-16.939-17.137-15.152-10.318,1.988-15.333,11.602-18.962,20.446,3.193,.373,6.385,.745,9.578,1.118-1.479-7.618-8.093-12.516-15.742-12.832-8.963-.37-15.829,6.158-19.629,13.702-4.769,9.468-3.648,20.539-7.678,30.195-1.642,3.934-4.658,8.56-9.181,9.42-3.599,.684-7.622-1.257-8.024-5.074-.674-6.397-10.56-4.877-9.886,1.522h0Z" fill="#b0dad4"/></g><g id="AQUA_001_024_FRAG_004"><path d="M1398.987,734.12c7.411-2.012,13.239,3.177,11.707,10.79-.948,4.709,4.79,6.562,8.068,4.501,4.293-2.699,9.944,1.255,12.117,4.908,3.316,5.574,3.035,12.762,2.914,19.007-.124,6.376,9.808,7.6,9.933,1.16,.198-10.18,.147-21.753-7.525-29.497-6.418-6.479-15.812-8.341-23.642-3.42l8.068,4.501c2.73-13.563-9.711-25.487-23.162-21.835-6.134,1.665-4.698,11.575,1.522,9.886h0Z" fill="#b0dad4"/></g><g id="AQUA_001_024_FRAG_005"><path d="M1458.497,807.92c4.407,19.673,26.802,27.289,44.231,19.887,21.221-9.012,29.738-31.837,36.309-52.136,1.974-6.097-7.286-9.886-9.269-3.759-5.192,16.038-10.821,33.955-25.6,43.792-11.515,7.665-32.118,7.065-35.786-9.307-1.398-6.239-11.298-4.781-9.886,1.522h0Z" fill="#b0dad4"/></g><g id="AQUA_001_024_FRAG_006"><path d="M1556.475,797.616c5.683,16.439,10.009,33.25,13.04,50.376,.922,5.21,7.309,5.278,9.578,1.118,4.692-8.606,4.284-18.321,6.988-27.5,1.148-3.899,2.967-8.258,6.594-10.446,3.178-1.917,7.555-2.084,9.902,1.074,2.382,3.205,8.927,1.924,8.888-2.522-.152-17.566,8.274-33.693,22.902-43.459,5.36-3.579-.878-11.399-6.203-7.843-16.523,11.031-26.803,30.256-26.631,50.143,2.963-.841,5.925-1.681,8.888-2.522-7.151-9.62-21.485-7.139-28.365,1.428-8.797,10.954-5.761,26.022-12.231,37.889,3.193,.373,6.385,.745,9.578,1.118-3.18-17.969-7.802-35.62-13.765-52.866-2.102-6.08-11.257-2.049-9.162,4.012h0Z" fill="#b0dad4"/></g><g id="AQUA_001_024_FRAG_007"><path d="M1655.785,789.554c11.02,5.756,13.222,20.367,16.501,31.08,3.415,11.157,9.308,21.091,19.451,27.329,19.702,12.116,45.592,6.549,58.373-12.872,3.529-5.362-4.449-11.397-7.991-6.014-11.887,18.063-37.971,20.986-52.443,4.148-7.293-8.484-8.723-19.896-12.246-30.148-3.292-9.579-8.743-18.017-17.886-22.792-5.709-2.982-9.415,6.315-3.759,9.269h0Z" fill="#b0dad4"/></g><g id="AQUA_001_024_FRAG_008"><path d="M1768.522,808.266c1.633-2.093,4.719,.527,5.554,2.088,1.827,3.417,.932,8.086,.516,11.708-.575,5.011,5.908,7.427,8.962,3.587,2.958-3.719,8.388-3.29,12.249-1.198,5.031,2.725,7.058,8.528,7.786,13.884,1.848,13.596-3.366,27.043-.523,40.678,.738,3.539,5.025,5.701,8.045,3.161,10.606-8.922,18.163,28.644,19.724,33.897,1.828,6.151,10.977,2.096,9.162-4.012-1.857-6.248-3.71-12.497-5.571-18.744-1.516-5.087-2.98-10.3-6.152-14.653-5.32-7.301-15.978-10.546-23.366-4.331l8.045,3.161c-3.67-17.6,6.186-36.606-3.654-53.215-6.863-11.585-24.554-16.186-33.736-4.64l8.962,3.587c.908-7.912,1.158-17.527-6.004-22.775-5.622-4.119-13.596-3.831-17.99,1.804-3.968,5.088,4.035,11.088,7.991,6.014h0Z" fill="#b0dad4"/></g></g></g></svg>