<?xml version="1.0" encoding="utf-8"?>
<!-- Generator: Adobe Illustrator 27.0.0, SVG Export Plug-In . SVG Version: 6.00 Build 0)  -->
<svg version="1.1" xmlns="http://www.w3.org/2000/svg" xmlns:xlink="http://www.w3.org/1999/xlink" x="0px" y="0px"
	 viewBox="0 0 1920 1080" enable-background="new 0 0 1920 1080" xml:space="preserve">
<g id="GRILLE">
	
		<line fill="none" stroke="#F86806" stroke-width="0.5" stroke-linecap="square" stroke-linejoin="round" stroke-miterlimit="10" x1="2031.901" y1="1433.652" x2="2031.901" y2="2364.823"/>
	<g>
		
			<line fill="none" stroke="#F86806" stroke-width="0.25" stroke-linecap="square" stroke-linejoin="round" stroke-miterlimit="10" x1="935.649" y1="161.658" x2="36.882" y2="161.658"/>
		
			<line fill="none" stroke="#F86806" stroke-width="0.25" stroke-linecap="square" stroke-linejoin="round" stroke-miterlimit="10" x1="935.649" y1="204.178" x2="36.882" y2="204.178"/>
		
			<line fill="none" stroke="#F86806" stroke-width="0.25" stroke-linecap="square" stroke-linejoin="round" stroke-miterlimit="10" x1="935.649" y1="246.698" x2="36.882" y2="246.698"/>
		
			<line fill="none" stroke="#F86806" stroke-width="0.25" stroke-linecap="square" stroke-linejoin="round" stroke-miterlimit="10" x1="935.649" y1="289.218" x2="36.882" y2="289.218"/>
		
			<line fill="none" stroke="#F86806" stroke-width="0.25" stroke-linecap="square" stroke-linejoin="round" stroke-miterlimit="10" x1="935.649" y1="331.738" x2="36.882" y2="331.738"/>
		
			<line fill="none" stroke="#F86806" stroke-width="0.25" stroke-linecap="square" stroke-linejoin="round" stroke-miterlimit="10" x1="935.649" y1="374.259" x2="36.882" y2="374.259"/>
		
			<line fill="none" stroke="#F86806" stroke-width="0.25" stroke-linecap="square" stroke-linejoin="round" stroke-miterlimit="10" x1="935.649" y1="416.779" x2="36.882" y2="416.779"/>
		
			<line fill="none" stroke="#F86806" stroke-width="0.25" stroke-linecap="square" stroke-linejoin="round" stroke-miterlimit="10" x1="935.649" y1="459.299" x2="36.882" y2="459.299"/>
		
			<line fill="none" stroke="#F86806" stroke-width="0.25" stroke-linecap="square" stroke-linejoin="round" stroke-miterlimit="10" x1="935.649" y1="502.24" x2="36.882" y2="502.24"/>
		
			<line fill="none" stroke="#F86806" stroke-width="0.25" stroke-linecap="square" stroke-linejoin="round" stroke-miterlimit="10" x1="935.649" y1="545.181" x2="36.882" y2="545.181"/>
		
			<line fill="none" stroke="#F86806" stroke-width="0.25" stroke-linecap="square" stroke-linejoin="round" stroke-miterlimit="10" x1="935.649" y1="588.122" x2="36.882" y2="588.122"/>
		
			<line fill="none" stroke="#F86806" stroke-width="0.25" stroke-linecap="square" stroke-linejoin="round" stroke-miterlimit="10" x1="935.649" y1="631.063" x2="36.882" y2="631.063"/>
		
			<line fill="none" stroke="#F86806" stroke-width="0.25" stroke-linecap="square" stroke-linejoin="round" stroke-miterlimit="10" x1="935.649" y1="674.004" x2="36.882" y2="674.004"/>
		
			<line fill="none" stroke="#F86806" stroke-width="0.25" stroke-linecap="square" stroke-linejoin="round" stroke-miterlimit="10" x1="935.649" y1="716.946" x2="36.882" y2="716.946"/>
		
			<line fill="none" stroke="#F86806" stroke-width="0.25" stroke-linecap="square" stroke-linejoin="round" stroke-miterlimit="10" x1="935.649" y1="759.887" x2="36.882" y2="759.887"/>
		
			<line fill="none" stroke="#F86806" stroke-width="0.25" stroke-linecap="square" stroke-linejoin="round" stroke-miterlimit="10" x1="935.649" y1="802.828" x2="36.882" y2="802.828"/>
		
			<line fill="none" stroke="#F86806" stroke-width="0.25" stroke-linecap="square" stroke-linejoin="round" stroke-miterlimit="10" x1="935.649" y1="845.769" x2="36.882" y2="845.769"/>
		
			<line fill="none" stroke="#F86806" stroke-width="0.25" stroke-linecap="square" stroke-linejoin="round" stroke-miterlimit="10" x1="935.649" y1="888.71" x2="36.882" y2="888.71"/>
		
			<line fill="none" stroke="#F86806" stroke-width="0.25" stroke-linecap="square" stroke-linejoin="round" stroke-miterlimit="10" x1="935.649" y1="931.651" x2="36.882" y2="931.651"/>
	</g>
	<g>
		
			<line fill="none" stroke="#F86806" stroke-width="0.25" stroke-linecap="square" stroke-linejoin="round" stroke-miterlimit="10" x1="1884.873" y1="161.658" x2="986.106" y2="161.658"/>
		
			<line fill="none" stroke="#F86806" stroke-width="0.25" stroke-linecap="square" stroke-linejoin="round" stroke-miterlimit="10" x1="1884.873" y1="204.178" x2="986.106" y2="204.178"/>
		
			<line fill="none" stroke="#F86806" stroke-width="0.25" stroke-linecap="square" stroke-linejoin="round" stroke-miterlimit="10" x1="1884.873" y1="246.698" x2="986.106" y2="246.698"/>
		
			<line fill="none" stroke="#F86806" stroke-width="0.25" stroke-linecap="square" stroke-linejoin="round" stroke-miterlimit="10" x1="1884.873" y1="289.218" x2="986.106" y2="289.218"/>
		
			<line fill="none" stroke="#F86806" stroke-width="0.25" stroke-linecap="square" stroke-linejoin="round" stroke-miterlimit="10" x1="1884.873" y1="331.738" x2="986.106" y2="331.738"/>
		
			<line fill="none" stroke="#F86806" stroke-width="0.25" stroke-linecap="square" stroke-linejoin="round" stroke-miterlimit="10" x1="1884.873" y1="374.259" x2="986.106" y2="374.259"/>
		
			<line fill="none" stroke="#F86806" stroke-width="0.25" stroke-linecap="square" stroke-linejoin="round" stroke-miterlimit="10" x1="1884.873" y1="416.779" x2="986.106" y2="416.779"/>
		
			<line fill="none" stroke="#F86806" stroke-width="0.25" stroke-linecap="square" stroke-linejoin="round" stroke-miterlimit="10" x1="1884.873" y1="459.299" x2="986.106" y2="459.299"/>
		
			<line fill="none" stroke="#F86806" stroke-width="0.25" stroke-linecap="square" stroke-linejoin="round" stroke-miterlimit="10" x1="1884.873" y1="502.24" x2="986.106" y2="502.24"/>
		
			<line fill="none" stroke="#F86806" stroke-width="0.25" stroke-linecap="square" stroke-linejoin="round" stroke-miterlimit="10" x1="1884.873" y1="545.181" x2="986.106" y2="545.181"/>
		
			<line fill="none" stroke="#F86806" stroke-width="0.25" stroke-linecap="square" stroke-linejoin="round" stroke-miterlimit="10" x1="1884.873" y1="588.122" x2="986.106" y2="588.122"/>
		
			<line fill="none" stroke="#F86806" stroke-width="0.25" stroke-linecap="square" stroke-linejoin="round" stroke-miterlimit="10" x1="1884.873" y1="631.063" x2="986.106" y2="631.063"/>
		
			<line fill="none" stroke="#F86806" stroke-width="0.25" stroke-linecap="square" stroke-linejoin="round" stroke-miterlimit="10" x1="1884.873" y1="674.004" x2="986.106" y2="674.004"/>
		
			<line fill="none" stroke="#F86806" stroke-width="0.25" stroke-linecap="square" stroke-linejoin="round" stroke-miterlimit="10" x1="1884.873" y1="716.946" x2="986.106" y2="716.946"/>
		
			<line fill="none" stroke="#F86806" stroke-width="0.25" stroke-linecap="square" stroke-linejoin="round" stroke-miterlimit="10" x1="1884.873" y1="759.887" x2="986.106" y2="759.887"/>
		
			<line fill="none" stroke="#F86806" stroke-width="0.25" stroke-linecap="square" stroke-linejoin="round" stroke-miterlimit="10" x1="1884.873" y1="802.828" x2="986.106" y2="802.828"/>
		
			<line fill="none" stroke="#F86806" stroke-width="0.25" stroke-linecap="square" stroke-linejoin="round" stroke-miterlimit="10" x1="1884.873" y1="845.769" x2="986.106" y2="845.769"/>
		
			<line fill="none" stroke="#F86806" stroke-width="0.25" stroke-linecap="square" stroke-linejoin="round" stroke-miterlimit="10" x1="1884.873" y1="888.71" x2="986.106" y2="888.71"/>
		
			<line fill="none" stroke="#F86806" stroke-width="0.25" stroke-linecap="square" stroke-linejoin="round" stroke-miterlimit="10" x1="1884.873" y1="931.651" x2="986.106" y2="931.651"/>
	</g>
</g>
<g id="FRAGMENTS">
	<g id="AQUA_x5F_001_x5F_019_x5F_FRAG_x5F_007_00000163787117873252793880000011947709398859144879_">
		<g>
			<path fill="#C6E1CA" d="M710.843,244.124c13.053,5.126,22.011,18.234,21.452,32.364c-0.141,3.567,3.325,6.95,6.972,5.161
				c10.984-5.389,23.686,0.517,30.745,9.604c8.354,10.756,10.512,24.978,12.683,38.036c1.053,6.336,10.945,4.849,9.886-1.522
				c-2.659-15.996-5.763-33.828-17.542-45.931c-10.147-10.425-26.075-16.075-39.783-9.349c2.324,1.72,4.648,3.44,6.972,5.161
				c0.735-18.552-10.236-35.963-27.626-42.793C708.606,232.5,704.848,241.77,710.843,244.124L710.843,244.124z"/>
		</g>
	</g>
	<g id="AQUA_x5F_001_x5F_019_x5F_FRAG_x5F_006_00000000192160845225246950000005526187355294406790_">
		<g>
			<path fill="#C6E1CA" d="M595.289,274.033c16.839,13.139,38.31,25.377,59.948,16.156c9.497-4.047,15.903-11.813,18.667-21.687
				c2.324-8.303,2.829-24.314,13.171-27.217c6.111-1.715,4.68-11.627-1.522-9.886c-9.003,2.526-14.629,9.741-17.381,18.477
				c-2.974,9.44-2.762,20.926-11.076,27.663c-17.861,14.474-40.964,0.072-55.792-11.497
				C596.216,262.072,590.216,270.075,595.289,274.033L595.289,274.033z"/>
		</g>
	</g>
	<g id="AQUA_x5F_001_x5F_019_x5F_FRAG_x5F_005_00000039116423624256665270000013468889840093055140_">
		<g>
			<path fill="#C6E1CA" d="M515.977,263.221c17.72-9.559,39.686-9.582,57.067,0.887c5.471,3.295,11.525-4.672,6.014-7.991
				c-20.352-12.259-46.045-13.412-67.094-2.057C506.343,257.092,510.296,266.286,515.977,263.221L515.977,263.221z"/>
		</g>
	</g>
	<g id="AQUA_x5F_001_x5F_019_x5F_FRAG_x5F_004_00000005238102686650841540000004158507160415282838_">
		<g>
			<path fill="#C6E1CA" d="M427.9,207.067c11.717-6.291,21.196,5.64,25.021,15.426c4.921,12.592,6.517,26.704,5.238,40.117
				c-0.905,9.498-3.139,22.807,9.716,24.998c11.863,2.022,18.526-8.515,22.558-17.901c2.546-5.925-6.731-9.667-9.269-3.759
				c-1.863,4.335-4.271,11.059-9.686,11.809c-6.485,0.898-4.145-7.478-3.677-11.296c1.477-12.053,0.803-24.482-2.105-36.275
				c-2.508-10.174-6.245-20.614-14.172-27.858c-7.352-6.719-18.637-9.254-27.637-4.422
				C418.259,200.928,422.212,210.121,427.9,207.067L427.9,207.067z"/>
		</g>
	</g>
	<g id="AQUA_x5F_001_x5F_019_x5F_FRAG_x5F_003_00000018217815474217109220000017429784620696619934_">
		<g>
			<path fill="#C6E1CA" d="M304.947,326.117c7.475-0.798,12.567-6.263,15.777-12.701c3.153-6.324,3.406-14.671,8.154-20.108
				c2.795-3.201,7.088-3.878,10.708-5.771c2.687-1.406,5.091-3.255,6.888-5.724c3.78-5.193,4.436-11.79,5.587-17.91
				c0.527-2.8,1.076-5.825,2.679-8.247c2.108-3.186,5.904-4.11,9.327-5.241c6.773-2.237,12.475-5.526,15.14-12.549
				c2.533-6.677,1.488-14.085,3.88-20.749c2.68-7.468,9.419-12.76,17.138-14.114c6.324-1.109,4.841-11.002-1.522-9.886
				c-15.343,2.69-25.157,14.827-26.966,29.855c-0.918,7.624-0.804,14.343-8.935,17.369c-6.763,2.517-13.127,4.168-16.982,10.84
				c-3.241,5.609-3.513,12.138-4.914,18.317c-0.565,2.491-1.324,5.285-3.127,7.203c-2.681,2.852-7.174,3.514-10.521,5.331
				c-6.544,3.553-9.789,9.961-11.984,16.782c-2.012,6.251-3.844,16.563-11.848,17.417
				C297.029,316.914,298.548,326.801,304.947,326.117L304.947,326.117z"/>
		</g>
	</g>
	<g id="AQUA_x5F_001_x5F_019_x5F_FRAG_x5F_002_00000137132700136571520680000014858581822818285751_">
		<g>
			<path fill="#C6E1CA" d="M219.95,257.719c7.64,6.999,12.327,16.334,13.795,26.545c0.819,5.695,9.053,5.32,9.909-0.181
				c1.567-10.064,13.818-10.565,20.635-5.756c8.418,5.939,10.925,16.578,12.212,26.202c0.853,6.374,10.741,4.87,9.886-1.522
				c-1.935-14.467-7.573-30.283-22.293-36.113c-12.811-5.074-28.167,1.864-30.372,16.029c3.303-0.06,6.606-0.121,9.909-0.181
				c-1.857-12.916-8.079-24.23-17.667-33.013C221.212,245.374,215.243,253.407,219.95,257.719L219.95,257.719z"/>
		</g>
	</g>
	<g id="AQUA_x5F_001_x5F_019_x5F_FRAG_x5F_001_00000049206542889695043140000000198399735619084202_">
		<g>
			<path fill="#C6E1CA" d="M93.359,297.873c2.271-15.874,6.795-31.258,13.553-45.808c3.402-7.324,7.344-14.366,11.829-21.082
				c3.129-4.686,9.437-16.391,16.269-15.708c6.247,0.624,7.178,11.216,7.804,15.809c1.221,8.947,1.9,17.958,2.212,26.981
				c0.644,18.615-0.366,37.251-1.324,55.837c-0.278,5.394,7.527,8.001,9.601,2.459c8.111-21.67,17.719-46.507,41.454-54.869
				c6.069-2.138,2.041-11.294-4.012-9.162c-26.258,9.251-37.697,36.188-46.712,60.272c3.2,0.82,6.401,1.639,9.601,2.459
				c0.876-17.012,1.728-34.035,1.457-51.075c-0.137-8.607-0.525-17.209-1.375-25.777c-0.697-7.02-1.241-14.485-3.922-21.098
				c-5.098-12.579-18.338-15.253-28.196-5.954c-10.234,9.654-17.667,23.784-23.596,36.38c-7.315,15.54-12.147,32.184-14.578,49.176
				C82.515,303.088,92.448,304.244,93.359,297.873L93.359,297.873z"/>
		</g>
	</g>
	<g id="AQUA_x5F_001_x5F_020_x5F_FRAG_x5F_007_00000042012763514886626570000013629373904860416679_">
		<g>
			<path fill="#52B378" d="M743.59,499.733c-0.031,9.449-0.066,19.401,4.381,28.015c1.975,3.826,4.602,7.323,8.069,9.923
				c3.757,2.817,8.849,3.598,12.393,6.58c3.278,2.759,4.555,7.553,6.715,11.155c2.258,3.765,4.992,7.09,8.21,10.077
				c6.6,6.127,14.731,9.949,23.531,11.651c6.32,1.222,7.449-8.716,1.16-9.933c-7.568-1.464-14.603-5.296-19.867-10.949
				c-5.038-5.411-6.747-12.874-11.748-18.174c-5.228-5.54-13.565-5.794-18.043-12.254c-4.979-7.184-4.895-16.56-4.867-24.932
				C753.544,494.53,743.612,493.297,743.59,499.733L743.59,499.733z"/>
		</g>
	</g>
	<g id="AQUA_x5F_001_x5F_020_x5F_FRAG_x5F_006_00000003106494613412713950000010580463969752371878_">
		<g>
			<path fill="#52B378" d="M625.299,470.204c5.785-4.451,12.875,0.763,16.069,5.834c3.825,6.074,5.607,13.586,7.864,20.329
				c5.618,16.788,11.236,33.576,16.854,50.363c1.442,4.309,7.598,3.505,9.216-0.127c14.715-33.034,34.857-63.287,59.525-89.725
				c4.394-4.71-3.642-10.675-7.991-6.014c-25.239,27.051-45.751,58.19-60.803,91.981c3.072-0.042,6.144-0.084,9.216-0.127
				c-6.928-20.702-13.354-41.659-20.848-62.163c-2.706-7.403-6.647-14.923-13.716-18.967c-6.844-3.915-15.205-4.138-21.588,0.772
				C613.986,466.292,620.193,474.132,625.299,470.204L625.299,470.204z"/>
		</g>
	</g>
	<g id="AQUA_x5F_001_x5F_020_x5F_FRAG_x5F_005_00000004546013337695251500000001516444783767372974_">
		<g>
			<path fill="#52B378" d="M570.728,520.267c4.11,15.296,15.667,27.772,31.157,31.886c6.147,1.632,9.964-7.622,3.759-9.269
				c-11.915-3.164-21.782-12.049-25.03-24.139C578.964,512.604,569.055,514.041,570.728,520.267L570.728,520.267z"/>
		</g>
	</g>
	<g id="AQUA_x5F_001_x5F_020_x5F_FRAG_x5F_004_00000149344936832730605690000017679634296228721575_">
		<g>
			<path fill="#52B378" d="M458.719,436.326c9.54-1.427,17.951,5.487,21.869,13.749c4.555,9.604,4.444,20.782,4.384,31.175
				c-0.013,2.279,0.897,4.274,3.087,5.215c11.383,4.889,14.493,18.227,16.268,29.266c1.937,12.052,3.465,24.502,11.169,34.47
				c6.056,7.836,15.77,12.99,25.737,10.374c9.468-2.484,16.709-10.638,15.622-20.704c-0.69-6.396-10.577-4.877-9.886,1.522
				c0.907,8.404-10.42,11.577-16.57,8.599c-8.84-4.28-12.479-14.818-14.23-23.768c-3.56-18.186-4.661-40.572-24.351-49.03
				c1.029,1.738,2.058,3.476,3.087,5.215c0.078-13.563,0.121-28.145-7.212-40.104c-6.426-10.48-17.957-17.741-30.496-15.865
				C450.839,427.391,452.336,437.281,458.719,436.326L458.719,436.326z"/>
		</g>
	</g>
	<g id="AQUA_x5F_001_x5F_020_x5F_FRAG_x5F_003_00000144333148532015218130000002729546362417314483_">
		<g>
			<path fill="#52B378" d="M328.523,500.016c4.731,11.696,16.25,20.39,29.043,20.676c12.966,0.29,24.441-7.235,30.245-18.642
				c-1.738,1.029-3.476,2.058-5.215,3.087c13.904,3.199,28.059-3.032,37.808-12.867c11.055-11.153,16.397-26.359,21.341-40.913
				c2.065-6.077-7.197-9.859-9.269-3.759c-7.158,21.071-20.221,54.163-48.72,47.607c-2.247-0.517-4.289,1.268-5.215,3.087
				c-8.901,17.496-33.71,15.38-40.856-2.288C335.271,490.036,326.106,494.041,328.523,500.016L328.523,500.016z"/>
		</g>
	</g>
	<g id="AQUA_x5F_001_x5F_020_x5F_FRAG_x5F_002_00000134245013578416583110000001566433390017876117_">
		<g>
			<path fill="#52B378" d="M229.417,467.933c8.092,9.834,12.527,22.384,11.684,35.176c-0.333,5.048-2.267,10.627,0.365,15.38
				c3.022,5.456,8.438,3.985,13.157,6.373c4.602,2.329,7.941,6.6,12.567,8.99c5.064,2.616,11.032,3.016,16.542,1.74
				c12.168-2.816,20.207-12.583,27.404-22.072c3.897-5.139-4.101-11.144-7.991-6.014c-6.035,7.958-13.129,17.71-23.946,18.736
				c-10.168,0.964-15.348-9.909-24.723-11.949c-2.28-0.496-3.939,0.011-4.363-2.426c-0.378-2.171,0.769-5.357,0.92-7.599
				c0.335-4.984,0.067-10.065-0.853-14.975c-1.903-10.154-6.363-19.596-12.92-27.565
				C233.17,456.759,225.318,462.952,229.417,467.933L229.417,467.933z"/>
		</g>
	</g>
	<g id="AQUA_x5F_001_x5F_020_x5F_FRAG_x5F_001_00000039852310397901181130000009755673576725868416_">
		<g>
			<path fill="#52B378" d="M86.727,530.848c7.184,13.111,23.74,16.43,36.497,9.491c15.468-8.414,21.188-25.622,25.587-41.549
				c-3.072,0.042-6.144,0.084-9.216,0.127c3.684,9.329,7.935,19.172,16.616,24.928c7.929,5.257,17.655,5.737,25.708,0.499
				c7.899-5.138,12.719-13.879,16.61-22.195c4.851-10.366,8.059-21.419,9.875-32.707c1.023-6.359-8.912-7.505-9.933-1.16
				c-1.348,8.381-3.543,16.52-6.722,24.396c-2.825,6.999-6.144,14.479-11.409,20.023c-5.504,5.795-12.737,7.24-19.393,2.256
				c-6.427-4.813-9.349-12.854-12.191-20.052c-1.471-3.726-8.05-4.094-9.216,0.127c-3.284,11.887-6.701,25.142-16.54,33.422
				c-7.571,6.372-21.48,8.663-27.113-1.616C92.822,521.239,83.626,525.188,86.727,530.848L86.727,530.848z"/>
		</g>
	</g>
	<g id="AQUA_x5F_001_x5F_022_x5F_FRAG_x5F_001_00000139254966281838788540000004568424392080585355_">
		<g>
			<path fill="#3DB2AF" d="M1075.861,257.474c-16.91,8.234-19.091,27.667-20.356,44.354c-0.381,5.03-0.771,10.163-2.083,15.053
				c-0.589,2.193-4.116,12.896-7.296,9.236c-1.304-1.501-1.655-5.175-2.142-6.936c-0.673-2.437-1.347-4.874-2.02-7.31
				c-1.599-5.787-3.199-11.575-4.798-17.362c-1.692-6.122-11.602-4.689-9.886,1.522c1.852,6.701,3.704,13.402,5.556,20.104
				c1.359,4.92,2.207,10.606,4.713,15.101c5.878,10.541,17.895,5.14,22.39-3.484c5.631-10.806,5.067-23.498,6.351-35.277
				c1.058-9.704,4.058-21.2,13.584-25.838C1085.642,263.826,1081.67,254.645,1075.861,257.474L1075.861,257.474z"/>
		</g>
	</g>
	<g id="AQUA_x5F_001_x5F_022_x5F_FRAG_x5F_002_00000139268217421846585970000003481855981139716767_">
		<g>
			<path fill="#3DB2AF" d="M1097.669,272.401c7.996,9.54,14.454,19.994,19.382,31.426c1.616,3.75,7.856,4.057,9.216-0.127
				c5.687-17.503,11.375-35.007,17.062-52.51c5.574-17.154,10.493-34.713,16.888-51.579c2.381-6.28,5.854-13.443,12.895-15.358
				c8.442-2.296,11.509,3.853,11.236,11.384c-0.676,18.641-2.455,37.309-3.693,55.923c2.963-0.841,5.925-1.681,8.888-2.522
				c-1.174-1.829,1.632-4.115,3.205-4.27c2.93-0.29,5.483,2.984,6.432,5.333c2.851,7.06-1.513,15.949-4.289,22.355
				c-5.459,12.596-11.974,24.922-11.365,39.058c0.506,11.745,7.052,22.794,18.613,26.535c11.313,3.661,21.702-1.798,26.587-12.312
				c2.14-4.605,3.13-9.634,4.59-14.47c1.518-5.03,5.058-12.541,11.146-13.224c6.853-0.769,5.564,10.172,5.287,14.202
				c-0.501,7.286-1.173,14.865,1.552,21.83c3.932,10.053,14.972,17.022,25.387,11.728c11.205-5.696,14.75-20.586,18.684-31.351
				c12.547-34.336,25.095-68.673,37.642-103.009c2.208-6.041-7.058-9.81-9.269-3.759c-11.521,31.527-23.042,63.054-34.563,94.581
				c-2.779,7.605-5.294,15.374-8.431,22.839c-1.884,4.484-4.948,11.29-10.291,12.428c-6.536,1.392-10.221-6.353-10.938-11.575
				c-1.033-7.532,1.064-15.099,0.282-22.648c-1.254-12.1-12.498-19.151-23.371-12.648c-11.486,6.869-11.797,18.975-16.44,30.092
				c-2.198,5.262-6.163,9.196-12.219,8.393c-6.137-0.814-10.996-5.414-12.998-11.117c-4.895-13.951,3.568-28.59,9.023-40.995
				c5.488-12.479,11.52-31.603-3.524-40.148c-11.971-6.8-26.318,6.287-18.575,18.356c2.34,3.647,8.613,1.607,8.888-2.522
				c1.165-17.515,2.36-35.029,3.495-52.546c0.424-6.543,0.76-13.541-3.124-19.206c-3.211-4.684-8.572-7.052-14.163-7.134
				c-13.66-0.201-21.827,11.106-26.122,22.744c-5.707,15.466-10.302,31.425-15.396,47.103
				c-6.094,18.754-12.188,37.507-18.281,56.261c3.072-0.042,6.144-0.084,9.216-0.127c-5.243-12.165-12.19-23.465-20.7-33.618
				C1101.38,261.267,1093.525,267.456,1097.669,272.401L1097.669,272.401z"/>
		</g>
	</g>
	<g id="AQUA_x5F_001_x5F_022_x5F_FRAG_x5F_003_00000148620479947962248330000007990453612019604100_">
		<g>
			<path fill="#3DB2AF" d="M1344.29,313.836c10.082,9.064,15.866,21.578,16.891,35.025c0.38,4.985,7.909,5.578,9.578,1.118
				c5.465-14.606,12.129-28.759,20.198-42.113c5.334-8.828,17.338-26.88,29.421-16.605c2.399,2.04,6.608,0.811,7.642-2.116
				c9.056-25.629,22.275-49.375,39.302-70.565c4.043-5.031-3.965-11.025-7.991-6.014c-17.52,21.803-31.261,46.448-40.58,72.82
				c2.547-0.705,5.095-1.411,7.642-2.116c-13.621-11.584-30.642-0.473-38.996,11.62c-10.851,15.707-19.234,33.497-25.906,51.331
				c3.193,0.373,6.385,0.745,9.578,1.118c-1.229-16.134-8.783-30.724-20.763-41.494
				C1345.509,301.534,1339.537,309.564,1344.29,313.836L1344.29,313.836z"/>
		</g>
	</g>
	<g id="AQUA_x5F_001_x5F_022_x5F_FRAG_x5F_004_00000044152541489710989030000009356468755066445966_">
		<g>
			<path fill="#3DB2AF" d="M1490.662,247.649c0.597-0.985,1.385,2.081,1.436,2.369c0.329,1.889-0.087,4.033-0.245,5.91
				c-0.406,4.818-0.675,9.644-0.762,14.479c-0.171,9.465,0.226,18.953,1.262,28.364c1.782,16.191,4.006,36.877,16.04,49.101
				c10.678,10.846,26.937,12.124,37.677,0.769c10.771-11.388,14.489-29.369,17.48-44.204c2.002-9.93,2.723-19.881,3.746-29.931
				c0.882-8.657,3.732-19.983,14.167-20.752c6.411-0.473,4.874-10.357-1.522-9.886c-18.502,1.364-21.982,21.792-23.15,36.498
				c-1.424,17.931-4.558,37.669-12.802,53.869c-3.121,6.133-8.216,12.601-15.723,12.656c-9.057,0.067-15.56-7.904-18.778-15.527
				c-3.746-8.874-5.228-18.875-6.536-28.359c-1.391-10.089-2.079-20.287-1.942-30.472c0.074-5.485,0.42-10.942,0.859-16.408
				c0.36-4.486,0.619-9.128-1.731-13.164c-3.531-6.064-13.447-7.961-17.467-1.326
				C1479.36,247.099,1487.328,253.152,1490.662,247.649L1490.662,247.649z"/>
		</g>
	</g>
	<g id="AQUA_x5F_001_x5F_022_x5F_FRAG_x5F_005_00000055684311190624812890000015183470462577185422_">
		<g>
			<path fill="#3DB2AF" d="M1603.822,325.924c4.082-6.971,10.933,1.527,12.699,5.733c2.916,6.946,3.943,14.138,8.149,20.561
				c3.53,5.389,11.348-0.853,7.843-6.203c-6.002-9.164-5.036-21.499-14.233-28.846c-6.604-5.276-17.859-5.098-22.449,2.741
				C1592.61,325.411,1600.575,331.471,1603.822,325.924L1603.822,325.924z"/>
		</g>
	</g>
	<g id="AQUA_x5F_001_x5F_022_x5F_FRAG_x5F_006_00000014607613600199451890000006414621639706202795_">
		<g>
			<path fill="#3DB2AF" d="M1646.813,317.356c2.153,13.881,6.422,30.782,21.968,34.979c14.185,3.829,26.04-8.092,29.707-20.789
				c2.342-8.112,2.65-16.601,3.403-24.961c0.817-9.066,1.75-18.122,2.799-27.164c2.098-18.085,4.659-36.116,7.68-54.069
				c2.228-13.237,3.842-43.931,23.188-43.767c6.367,0.054,7.597-9.878,1.16-9.933c-13.662-0.115-23.516,9.828-27.887,22.146
				c-5.231,14.742-6.672,31.368-9.018,46.766c-2.497,16.391-4.611,32.841-6.34,49.331c-0.874,8.333-1.592,16.676-2.334,25.021
				c-0.668,7.516-1.417,15.764-6.187,21.947c-4.877,6.322-12.738,8.318-19.058,2.771c-6.683-5.866-7.91-15.511-9.195-23.798
				C1655.715,309.483,1645.824,310.976,1646.813,317.356L1646.813,317.356z"/>
		</g>
	</g>
	<g id="AQUA_x5F_001_x5F_022_x5F_FRAG_x5F_007_00000092437919213619554790000000481625241098177976_">
		<g>
			<path fill="#3DB2AF" d="M1750.066,297.829c10.596,2.181,10.693,16.464,10.63,24.778c3.303-0.06,6.606-0.121,9.909-0.181
				c-0.229-2.317,3.021-1.607,4.072-0.902c1.728,1.161,2.678,3.369,3.171,5.302c1.216,4.764,0.871,10.081,1.029,14.966
				c0.27,8.375-0.537,17.735,2.387,25.745c2.593,7.101,8.976,11.736,16.671,11.029c9.053-0.832,15.002-8.025,19.863-14.944
				c3.7-5.267-4.286-11.288-7.991-6.014c-2.671,3.801-5.594,8.476-10.089,10.297c-5.189,2.102-8.477-0.832-9.647-5.73
				c-2.279-9.537-1.108-20.286-1.574-30.031c-0.399-8.346-3.064-17.72-11.849-20.725c-8.396-2.872-16.792,3.794-15.928,12.53
				c0.545,5.507,9.867,5.513,9.909-0.181c0.11-14.686-2.263-32.342-19.403-35.87C1744.923,286.599,1743.8,296.539,1750.066,297.829
				L1750.066,297.829z"/>
		</g>
	</g>
	<g id="AQUA_x5F_001_x5F_022_x5F_FRAG_x5F_001_00000078037582431177182460000011805103726364146352_">
		<g>
			<path d="M2071.864,250.764c-15.977,7.78-17.689,26.696-18.876,42.354c-0.399,5.26-0.84,10.599-2.249,15.703
				c-1.039,3.766-6.947,17.716-11.904,9.299c-2.442-4.147-3.061-10.231-4.343-14.869c-1.599-5.787-3.199-11.575-4.798-17.362
				c-0.846-3.061-5.801-2.344-4.943,0.761c1.852,6.701,3.704,13.402,5.556,20.104c1.282,4.638,2.016,10.298,4.532,14.478
				c5.015,8.333,14.152,3.324,17.782-3.421c9.912-18.415-1.306-51.483,21.249-62.466
				C2076.754,253.94,2074.769,249.35,2071.864,250.764L2071.864,250.764z"/>
		</g>
	</g>
	<g id="AQUA_x5F_001_x5F_022_x5F_FRAG_x5F_002_00000145045122695866095310000017719203434711357612_">
		<g>
			<path d="M2094.63,261.85c8.122,9.691,14.706,20.361,19.711,31.974c0.808,1.875,3.928,2.029,4.608-0.063
				c5.688-17.503,11.375-35.007,17.062-52.51c5.574-17.154,10.493-34.713,16.888-51.579c2.677-7.059,6.683-14.654,14.52-16.8
				c3.472-0.95,7.49-0.901,10.484,1.348c3.917,2.942,4.088,8.253,3.927,12.708c-0.674,18.641-2.455,37.309-3.693,55.923
				c1.481-0.42,2.963-0.841,4.444-1.261c-2.396-3.734,1.572-8.367,5.456-8.304c3.856,0.063,7.092,3.472,8.432,6.813
				c3.141,7.833-1.159,17.138-4.262,24.298c-5.253,12.121-11.762,24.123-11.21,37.738c0.442,10.91,6.281,21.15,17.081,24.599
				c9.995,3.192,19.033-1.686,23.33-10.935c4.239-9.123,4.628-27.557,17.673-29.227c9.247-1.183,8.556,11.076,8.151,16.963
				c-0.47,6.835-1.174,13.99,1.359,20.537c3.402,8.795,12.92,15.199,22.093,10.44c10.426-5.408,13.71-19.984,17.37-30
				c12.547-34.336,25.095-68.673,37.642-103.009c1.104-3.02-3.529-4.905-4.635-1.879c-11.521,31.527-23.042,63.054-34.562,94.581
				c-2.779,7.605-5.294,15.374-8.431,22.839c-2.252,5.36-5.878,12.713-12.227,13.96c-7.986,1.569-12.874-6.994-13.79-13.666
				c-1.036-7.548,1.064-15.102,0.282-22.648c-1.07-10.322-10.185-16.54-19.623-10.903c-10.836,6.472-11.021,18.423-15.399,28.906
				c-2.633,6.305-7.648,10.844-14.827,9.936c-6.955-0.879-12.72-6.106-14.998-12.597c-5.182-14.767,3.197-29.751,8.996-42.937
				c4.945-11.245,11.381-29.551-2.711-37.211c-9.519-5.174-21.332,5.111-15.11,14.807c1.17,1.823,4.307,0.803,4.444-1.261
				c1.165-17.515,2.36-35.029,3.495-52.546c0.38-5.865,0.803-12.236-2.601-17.365c-2.787-4.199-7.562-6.176-12.492-6.202
				c-12.471-0.066-19.632,10.679-23.514,21.201c-5.707,15.466-10.302,31.425-15.396,47.103
				c-6.094,18.754-12.188,37.507-18.281,56.261c1.536-0.021,3.072-0.042,4.608-0.063c-5.166-11.985-11.986-23.067-20.37-33.07
				C2096.485,256.283,2092.558,259.378,2094.63,261.85L2094.63,261.85z"/>
		</g>
	</g>
	<g id="AQUA_x5F_001_x5F_022_x5F_FRAG_x5F_003_00000158746816566273262440000006134630605013298357_">
		<g>
			<path d="M2340.793,302.839c10.555,9.489,16.783,22.525,17.859,36.642c0.19,2.493,3.955,2.789,4.789,0.559
				c5.542-14.814,12.334-29.135,20.518-42.677c6.146-10.17,19.487-28.525,32.922-17.099c1.2,1.02,3.304,0.405,3.821-1.058
				c9.122-25.814,22.472-49.787,39.622-71.129c2.021-2.516-1.982-5.512-3.996-3.007c-17.398,21.651-31.007,46.068-40.261,72.256
				c1.274-0.353,2.547-0.705,3.821-1.058c-12.544-10.668-27.911,0.148-35.495,11.125c-10.732,15.535-18.989,33.131-25.587,50.767
				c1.596,0.186,3.193,0.373,4.789,0.559c-1.179-15.469-8.284-29.529-19.795-39.877
				C2341.403,296.688,2338.417,300.702,2340.793,302.839L2340.793,302.839z"/>
		</g>
	</g>
	<g id="AQUA_x5F_001_x5F_022_x5F_FRAG_x5F_004_00000124145665717144397550000010123873712059840925_">
		<g>
			<path d="M2483.664,237.146c2.298-3.792,5.609,1.377,5.905,3.492c0.301,2.15-0.053,4.439-0.233,6.581
				c-0.406,4.818-0.675,9.644-0.762,14.479c-0.167,9.243,0.238,18.504,1.25,27.694c1.72,15.623,3.745,35.828,15.3,47.707
				c9.651,9.922,24.428,11.169,34.171,0.811c10.348-11.001,13.89-28.472,16.771-42.762c2.002-9.93,2.723-19.881,3.746-29.931
				c0.994-9.759,4.631-22.076,16.27-22.933c3.206-0.236,2.437-5.179-0.761-4.943c-17.251,1.271-19.971,20.761-21.048,34.317
				c-1.441,18.147-4.64,38.124-12.968,54.519c-3.59,7.068-9.405,14.12-17.994,14.194c-10.089,0.087-17.489-8.413-21.114-17.002
				c-3.828-9.069-5.38-19.286-6.717-28.981c-1.422-10.312-2.094-20.733-1.953-31.142c0.074-5.485,0.42-10.942,0.859-16.408
				c0.319-3.973,0.703-8.334-1.539-11.872c-2.844-4.488-10.153-5.818-13.178-0.826
				C2478.013,236.87,2481.997,239.897,2483.664,237.146L2483.664,237.146z"/>
		</g>
	</g>
	<g id="AQUA_x5F_001_x5F_022_x5F_FRAG_x5F_005_00000129198951090079079140000006975031264477049019_">
		<g>
			<path d="M2596.825,315.421c1.924-3.285,5.737-4.132,9.209-2.872c3.919,1.421,6.258,5.485,7.778,9.106
				c2.819,6.715,3.758,13.812,7.819,20.013c1.765,2.695,5.674-0.426,3.922-3.102c-5.793-8.845-4.992-21.383-13.776-28.399
				c-5.639-4.504-15.029-4.448-18.948,2.246C2591.219,315.164,2595.201,318.194,2596.825,315.421L2596.825,315.421z"/>
		</g>
	</g>
	<g id="AQUA_x5F_001_x5F_022_x5F_FRAG_x5F_006_00000020391957075306915510000007189294416617948805_">
		<g>
			<path d="M2644.285,307.975c2.005,12.926,5.752,29.261,20.436,33.042c12.884,3.318,23.21-8.119,26.45-19.411
				c2.261-7.881,2.506-16.193,3.237-24.312c0.817-9.066,1.75-18.122,2.799-27.164c2.098-18.085,4.659-36.116,7.68-54.069
				c2.544-15.119,4.472-46.142,25.961-45.961c3.184,0.027,3.799-4.939,0.58-4.966c-12.518-0.106-21.323,9.452-25.28,20.602
				c-5.155,14.527-6.541,30.943-8.852,46.116c-2.497,16.391-4.611,32.841-6.341,49.331c-0.874,8.333-1.593,16.676-2.334,25.021
				c-0.708,7.963-1.614,16.626-6.672,23.16c-5.707,7.374-15.138,9.626-22.559,3.265c-7.292-6.251-8.774-16.458-10.163-25.415
				C2648.736,304.039,2643.79,304.786,2644.285,307.975L2644.285,307.975z"/>
		</g>
	</g>
	<g id="AQUA_x5F_001_x5F_022_x5F_FRAG_x5F_007_00000014617130451611925910000006591417263676435134_">
		<g>
			<path d="M2745.356,286.346c12.321,2.536,12.898,17.6,12.824,27.551c1.652-0.03,3.303-0.06,4.955-0.091
				c-0.196-1.978,1.852-4.285,3.748-4.581c1.429-0.223,3.151,0.509,4.299,1.301c2.246,1.548,3.52,4.366,4.139,6.919
				c1.163,4.801,0.87,10.056,1.029,14.966c0.262,8.122-0.59,17.343,2.206,25.123c2.161,6.015,7.403,10.174,13.999,9.56
				c8.395-0.781,13.751-7.578,18.246-13.976c1.85-2.633-2.143-5.644-3.996-3.007c-2.956,4.207-6.152,9.029-11.084,11.084
				c-6.689,2.786-11.681-1.229-13.122-7.64c-2.161-9.615-1.106-20.231-1.574-30.031c-0.353-7.382-2.347-16.18-10.317-18.788
				c-6.572-2.15-13.195,2.97-12.517,9.832c0.272,2.754,4.933,2.757,4.955-0.091c0.098-13.134-1.659-29.896-17.21-33.097
				C2742.784,280.731,2742.223,285.701,2745.356,286.346L2745.356,286.346z"/>
		</g>
	</g>
	<g id="AQUA_x5F_001_x5F_023_x5F_FRAG_x5F_001_00000088108576028134784680000006843976835440457911_">
		<g>
			<path fill="#4CD36F" d="M1034.112,497.078c1.049-6.565,10.001-6.332,14.095-3.168c5.743,4.438,7.513,12.287,8.489,19.066
				c1.175,8.164,0.946,17.797,5.406,25.06c3.671,5.979,10.312,7.914,16.87,5.705c6.872-2.315,10.835-7.827,15.386-13.043
				c5.561-6.373,11.306-6.974,17.838-1.205c10.177,8.989,17.738,26.428,34.328,22.564c6.221-1.449,4.767-11.351-1.522-9.886
				c-8.5,1.98-14.463-6.603-19.083-12.413c-4.754-5.978-10.532-12.129-18.201-14.046c-7.609-1.902-14.275,1.401-19.452,6.864
				c-3.129,3.302-11.649,16.568-17.144,10.885c-2.834-2.931-2.949-9.046-3.441-12.866c-0.625-4.863-0.969-9.782-2.053-14.574
				c-1.624-7.18-4.688-14.3-10.353-19.221c-10.252-8.905-28.745-5.605-31.097,9.119
				C1023.163,502.278,1033.098,503.425,1034.112,497.078L1034.112,497.078z"/>
		</g>
	</g>
	<g id="AQUA_x5F_001_x5F_023_x5F_FRAG_x5F_002_00000129913345922181919770000002879042204516258706_">
		<g>
			<path fill="#4CD36F" d="M1175.009,543.296c2.143-4.401,8.484-4.4,12.34-2.572c5.805,2.752,9.572,8.856,13.035,13.991
				c3.136,4.651,11.266-0.119,8.503-5.108c-3.921-7.078-0.325-17.064,7.531-19.776c9.585-3.31,19.328,6.602,18.977,15.907
				c-0.187,4.967,5.659,7.495,8.962,3.587c5.006-5.922,13.105-13.879,19.772-5.687c4.603,5.655,6.787,12.866,12.023,18.092
				c6.09,6.078,15.491,8.049,23.439,4.484c8.353-3.747,12.516-12.52,11.924-21.343c-0.43-6.412-10.314-4.872-9.886,1.522
				c0.633,9.44-10.387,15.186-17.694,9.001c-5.04-4.266-7.212-11.325-10.957-16.617c-3.8-5.37-9.412-9.168-16.195-8.849
				c-8.676,0.408-15.162,7.166-20.418,13.384c2.987,1.196,5.975,2.391,8.962,3.587c0.595-15.776-14.122-31.309-30.561-26.969
				c-13.787,3.64-22.083,20.979-15.042,33.691c2.834-1.703,5.668-3.405,8.503-5.108c-5.375-7.971-11.858-16.642-21.917-18.544
				c-8.349-1.579-16.794,1.815-20.57,9.569C1162.916,545.335,1172.205,549.053,1175.009,543.296L1175.009,543.296z"/>
		</g>
	</g>
	<g id="AQUA_x5F_001_x5F_023_x5F_FRAG_x5F_003_00000057834554298948527690000017337190374174780827_">
		<g>
			<path fill="#4CD36F" d="M1335.216,527.665c-1.069-3.997,0.639-7.774,4.3-9.849c4.033-2.285,8.87-1.034,12.503,1.434
				c8.787,5.971,10.39,17.496,11.341,27.247c0.626,6.422,10.416,4.86,9.886-1.522c-0.42-5.057,5.477-7.348,9.592-6.264
				c4.856,1.28,8.352,5.599,10.523,9.874c4.855,9.556,7.139,20.908,9.434,31.309c4.885,22.142,6.832,44.813,4.702,67.419
				c-0.551,5.843,7.086,7.363,9.601,2.459c1.852-3.611,3.936-8.042,7.545-10.219c1.982-1.195,6.936-2.009,7.646,1.227
				c1.373,6.248,11.272,4.787,9.886-1.522c-1.692-7.701-9.2-11.85-16.836-10.556c-8.913,1.509-13.748,9.978-17.51,17.312
				c3.2,0.82,6.401,1.639,9.601,2.459c2.846-30.208-1.234-60.476-9.772-89.493c-3.474-11.805-8.178-25.246-21.061-29.537
				c-11.629-3.874-24.29,4.377-23.236,17.056c3.295-0.507,6.591-1.015,9.886-1.522c-1.474-15.113-6.522-32.77-23-37.476
				c-12.985-3.708-28.788,7.214-24.916,21.688C1326.974,535.331,1336.882,533.893,1335.216,527.665L1335.216,527.665z"/>
		</g>
	</g>
	<g id="AQUA_x5F_001_x5F_023_x5F_FRAG_x5F_004_00000032649344373244357600000006890275307669290645_">
		<g>
			<g>
				<path fill="#4CD36F" d="M1462.606,526.462c9.017-5.801,19.022-9.529,29.587-11.27c6.338-1.044,4.85-10.936-1.522-9.886
					c-12.339,2.033-23.763,6.554-34.268,13.312C1450.987,522.103,1457.233,529.919,1462.606,526.462L1462.606,526.462z"/>
			</g>
		</g>
		<g>
			<g>
				<path fill="#4CD36F" d="M1506.701,478.049c6.49-7.177,17.007-10.018,26.232-7.138c6.11,1.907,9.904-7.351,3.759-9.269
					c-13.83-4.318-28.271-0.346-37.982,10.393C1494.386,476.817,1502.416,482.788,1506.701,478.049L1506.701,478.049z"/>
			</g>
		</g>
	</g>
	<g id="AQUA_x5F_001_x5F_023_x5F_FRAG_x5F_005_00000044151275340080611230000016208891959088692632_">
		<g>
			<path fill="#4CD36F" d="M1561.395,496.524c12.586,32.361,19.498,66.941,19.921,101.687c0.074,6.089-1.131,13.767,3.068,18.875
				c4.629,5.63,12.224,3.896,16.925-0.557c5.437-5.149,9.563-12.305,13.405-18.675c3.858-6.397,7.365-13.01,10.427-19.825
				c7.225-16.083,11.974-33.235,14.285-50.705c0.845-6.382-9.088-7.544-9.932-1.16c-2.313,17.482-7.216,34.425-14.676,50.411
				c-3.63,7.78-7.844,15.261-12.632,22.388c-2.129,3.169-4.25,6.668-6.881,9.458c-1.871,1.985-3.062,3.215-3.866,0.122
				c-0.516-1.984-0.171-4.368-0.174-6.386c-0.047-37.525-7.11-74.675-20.711-109.645
				C1568.223,486.512,1559.061,490.523,1561.395,496.524L1561.395,496.524z"/>
		</g>
	</g>
	<g id="AQUA_x5F_001_x5F_023_x5F_FRAG_x5F_006_00000055703412183927018390000002320517586300199823_">
		<g>
			<path fill="#4CD36F" d="M1654.577,522.166c6.359,4.917,9.58,11.812,9.849,19.786c0.115,3.411,4.263,4.846,6.949,3.82
				c5.932-2.267,10.606,4.257,12.104,9.11c1.961,6.358,1.85,13.346,2.831,19.897c1.831,12.231,5.158,24.291,9.744,35.774
				c9.32,23.336,24.067,44.15,42.745,60.916c4.799,4.307,10.771-3.722,6.014-7.991c-20.57-18.464-35.742-42.546-43.844-68.957
				c-1.976-6.44-3.458-13.04-4.529-19.689c-1.127-7-1.167-14.261-2.973-21.133c-3.028-11.526-13.497-21.906-26.104-17.089
				c2.316,1.273,4.633,2.546,6.949,3.82c-0.352-10.431-5.508-19.905-13.72-26.255
				C1655.488,510.228,1649.486,518.229,1654.577,522.166L1654.577,522.166z"/>
		</g>
	</g>
	<g id="AQUA_x5F_001_x5F_024_00000078748591391683160190000014694906262889298875_">
		<g id="AQUA_x5F_001_x5F_024_x5F_FRAG_x5F_001_00000049216344125222734130000005983598821515144088_">
			<g>
				<path fill="#B0DAD4" d="M1027.913,776.184c8.101,12.445,16.203,24.89,24.304,37.335c2.43,3.733,8.444,1.53,8.888-2.522
					c1.56-14.234,2.108-29.052,4.911-43.098c0.888-4.452,5.342-13.937,11.406-9.729c4.019,2.789,4.65,9.589,5.041,13.985
					c0.313,3.529,4.095,4.698,6.949,3.82c11.431-3.516,23.007,5.288,22.78,17.2c-0.121,6.376,9.81,7.6,9.932,1.16
					c0.38-19.926-17.73-33.363-36.725-27.521c2.316,1.273,4.633,2.546,6.949,3.82c-0.619-6.966-2.47-14.936-8.019-19.71
					c-6.189-5.324-15.019-4.386-20.866,0.975c-6.827,6.26-7.668,15.747-8.617,24.414c-1.224,11.175-2.449,22.351-3.674,33.526
					c2.963-0.841,5.925-1.681,8.888-2.522c-8.101-12.445-16.203-24.89-24.304-37.335
					C1032.242,764.582,1024.424,770.825,1027.913,776.184L1027.913,776.184z"/>
			</g>
		</g>
		<g id="AQUA_x5F_001_x5F_024_x5F_FRAG_x5F_002_00000024699847230617710560000005483010792557997480_">
			<g>
				<path fill="#B0DAD4" d="M1137.945,823.042c23.302,13.792,52.443,1.088,57.774-25.551c-2.658,1.139-5.316,2.277-7.973,3.416
					c8.63,4.998,18.666,3.638,26.486-2.422c8.543-6.62,11.986-17.448,14.861-27.406c1.77-6.131-7.486-9.937-9.27-3.759
					c-1.995,6.911-3.972,14.266-8.502,20.009c-3.842,4.87-11.489,9.103-17.561,5.586c-3.386-1.961-7.177-0.565-7.974,3.416
					c-3.757,18.772-25.251,28.53-41.827,18.719C1138.47,811.801,1132.412,819.766,1137.945,823.042L1137.945,823.042z"/>
			</g>
		</g>
		<g id="AQUA_x5F_001_x5F_024_x5F_FRAG_x5F_003_00000007402535789339342170000002907222018993804172_">
			<g>
				<path fill="#B0DAD4" d="M1252.716,818.122c0.807,7.663,7.596,12.946,15.031,13.613c8.911,0.799,16.114-5.574,20.036-13.001
					c4.976-9.425,3.964-20.407,7.753-30.162c1.56-4.015,4.302-8.705,8.756-9.946c3.263-0.91,7.952,0.34,8.678,4.085
					c0.925,4.768,7.655,5.803,9.578,1.118c1.689-4.117,3.344-8.585,6.667-11.689c2.658-2.483,10.993-4.898,10.23,1.477
					c-0.65,5.426,7.924,7.991,9.601,2.459c1.028-3.391,4.366-5.622,8.003-4.823c5.123,1.125,5.492,8.587,6.135,12.739
					c2.104,13.592,3.458,27.286,4.19,41.019c0.342,6.413,10.226,4.865,9.886-1.522c-0.558-10.464-1.471-20.901-2.813-31.294
					c-1.002-7.753-1.265-17.309-5.704-24.027c-7.146-10.814-25.147-8.449-28.966,4.15c3.2,0.82,6.401,1.639,9.601,2.459
					c1.155-9.641-7.861-16.939-17.137-15.152c-10.318,1.988-15.333,11.602-18.962,20.446c3.193,0.373,6.385,0.745,9.578,1.118
					c-1.479-7.618-8.093-12.516-15.742-12.832c-8.963-0.37-15.829,6.158-19.629,13.702c-4.769,9.468-3.648,20.539-7.677,30.195
					c-1.642,3.934-4.658,8.56-9.182,9.42c-3.599,0.684-7.622-1.257-8.024-5.074C1261.928,810.203,1252.042,811.723,1252.716,818.122
					L1252.716,818.122z"/>
			</g>
		</g>
		<g id="AQUA_x5F_001_x5F_024_x5F_FRAG_x5F_004_00000042016974682422195610000007234809280082808720_">
			<g>
				<path fill="#B0DAD4" d="M1398.987,734.12c7.411-2.012,13.239,3.177,11.707,10.79c-0.948,4.709,4.79,6.562,8.068,4.501
					c4.293-2.699,9.944,1.255,12.118,4.908c3.316,5.574,3.035,12.762,2.914,19.007c-0.124,6.376,9.807,7.6,9.932,1.16
					c0.198-10.18,0.147-21.753-7.525-29.497c-6.418-6.479-15.812-8.341-23.642-3.42c2.689,1.5,5.379,3.001,8.068,4.501
					c2.73-13.563-9.711-25.487-23.162-21.835C1391.331,725.9,1392.767,735.809,1398.987,734.12L1398.987,734.12z"/>
			</g>
		</g>
		<g id="AQUA_x5F_001_x5F_024_x5F_FRAG_x5F_005_00000098930970173807827240000002219461043509647516_">
			<g>
				<path fill="#B0DAD4" d="M1458.497,807.92c4.407,19.673,26.802,27.289,44.231,19.887c21.221-9.012,29.738-31.837,36.309-52.136
					c1.974-6.097-7.286-9.886-9.269-3.759c-5.192,16.038-10.822,33.954-25.6,43.792c-11.515,7.665-32.118,7.065-35.786-9.307
					C1466.985,800.158,1457.085,801.616,1458.497,807.92L1458.497,807.92z"/>
			</g>
		</g>
		<g id="AQUA_x5F_001_x5F_024_x5F_FRAG_x5F_006_00000051386028118961647750000001052465983082114689_">
			<g>
				<path fill="#B0DAD4" d="M1556.475,797.616c5.683,16.439,10.009,33.25,13.041,50.376c0.922,5.21,7.309,5.278,9.578,1.118
					c4.692-8.606,4.284-18.321,6.988-27.5c1.148-3.899,2.967-8.258,6.594-10.446c3.178-1.917,7.555-2.083,9.902,1.074
					c2.382,3.205,8.927,1.924,8.888-2.522c-0.152-17.566,8.274-33.693,22.902-43.459c5.36-3.579-0.878-11.399-6.203-7.843
					c-16.523,11.031-26.803,30.256-26.631,50.143c2.963-0.841,5.925-1.681,8.888-2.522c-7.151-9.62-21.485-7.139-28.365,1.428
					c-8.797,10.954-5.761,26.022-12.231,37.889c3.193,0.373,6.385,0.745,9.578,1.118c-3.18-17.969-7.802-35.62-13.765-52.866
					C1563.535,787.524,1554.38,791.556,1556.475,797.616L1556.475,797.616z"/>
			</g>
		</g>
		<g id="AQUA_x5F_001_x5F_024_x5F_FRAG_x5F_007_00000157277708263959172260000004973200731210374037_">
			<g>
				<path fill="#B0DAD4" d="M1655.785,789.554c11.02,5.756,13.221,20.367,16.5,31.08c3.415,11.157,9.308,21.091,19.451,27.329
					c19.702,12.116,45.592,6.549,58.373-12.872c3.529-5.362-4.449-11.397-7.991-6.014c-11.887,18.063-37.971,20.986-52.443,4.148
					c-7.293-8.484-8.723-19.896-12.246-30.148c-3.292-9.579-8.743-18.017-17.886-22.792
					C1653.834,777.302,1650.128,786.599,1655.785,789.554L1655.785,789.554z"/>
			</g>
		</g>
		<g id="AQUA_x5F_001_x5F_024_x5F_FRAG_x5F_008_00000178190091269673944490000011144465848764666285_">
			<g>
				<path fill="#B0DAD4" d="M1768.522,808.266c1.632-2.093,4.719,0.527,5.554,2.088c1.827,3.417,0.932,8.086,0.516,11.708
					c-0.575,5.011,5.908,7.427,8.962,3.587c2.958-3.719,8.388-3.29,12.249-1.198c5.031,2.725,7.058,8.528,7.786,13.883
					c1.848,13.596-3.366,27.043-0.523,40.678c0.738,3.539,5.025,5.701,8.045,3.161c10.606-8.922,18.163,28.644,19.724,33.896
					c1.828,6.151,10.977,2.096,9.162-4.012c-1.857-6.248-3.71-12.497-5.571-18.744c-1.516-5.087-2.98-10.3-6.152-14.653
					c-5.32-7.301-15.978-10.546-23.366-4.331c2.682,1.054,5.363,2.107,8.045,3.161c-3.67-17.6,6.186-36.606-3.654-53.215
					c-6.863-11.585-24.554-16.186-33.736-4.64c2.987,1.196,5.974,2.391,8.962,3.587c0.908-7.912,1.158-17.527-6.004-22.775
					c-5.622-4.119-13.596-3.831-17.99,1.804C1756.562,807.34,1764.565,813.34,1768.522,808.266L1768.522,808.266z"/>
			</g>
		</g>
	</g>
	<g id="AQUA_x5F_001_x5F_021_x5F_FRAG_x5F_001">
		<g>
			<path fill="#B6E565" d="M74.114,754.886c3.988-6.319,11.475-8.775,18.366-5.53c7.274,3.425,11.792,11.003,14.529,18.241
				c3.236,8.557,3.896,17.532,5.334,26.47c0.942,5.855,3.206,13.149,9.658,14.879c17.377,4.659,16.588-26.436,16.901-35.759
				c0.279-8.314,0.619-17.119,4.232-24.779c2.845-6.031,10.374-13.33,17.412-8.752c5.378,3.498,11.415-4.478,6.014-7.991
				c-10.637-6.919-23.789-1.812-30.205,8.419c-7.936,12.655-6.934,27.828-7.753,42.123c-0.121,2.107-1.625,18.166-4.366,16.688
				c-1.65-0.89-1.95-5.963-2.176-7.59c-0.585-4.205-1.052-8.416-1.827-12.595c-2.462-13.281-7.481-27.753-19.083-35.811
				c-11.351-7.884-27.373-6.157-35.028,5.973C62.704,754.288,70.677,760.332,74.114,754.886L74.114,754.886z"/>
		</g>
	</g>
	<g id="AQUA_x5F_001_x5F_021_x5F_FRAG_x5F_002">
		<g>
			<path fill="#B6E565" d="M181.21,811.904c14.514-5.21,27.667-13.455,38.922-23.973c-2.689-1.5-5.379-3.001-8.068-4.501
				c-1.562,13.099-2.474,30.076,10.5,38.036c12.202,7.486,22.352-3.651,27.449-13.876c13.686-27.458,22.894-57.846,29.736-87.665
				c4.052-17.66,7.009-35.545,8.967-53.556c0.695-6.394-9.236-7.569-9.933-1.16c-3.626,33.353-10.777,66.244-21.696,97.977
				c-2.662,7.735-5.536,15.397-8.627,22.972c-2.884,7.068-5.574,14.692-9.658,21.171c-3.753,5.954-9.497,9.224-14.371,2.36
				c-5.032-7.086-3.394-17.055-2.435-25.1c0.482-4.045-4.809-7.547-8.068-4.501c-10.7,10-22.93,17.701-36.731,22.655
				C171.14,804.917,175.166,814.073,181.21,811.904L181.21,811.904z"/>
		</g>
	</g>
	<g id="AQUA_x5F_001_x5F_021_x5F_FRAG_x5F_003">
		<g>
			<path fill="#B6E565" d="M297.893,788.356c-2.935,8.404,0.969,18.271,9.305,21.968c9.234,4.095,18.993-1.975,24.112-9.628
				c6.443-9.633,7.063-21.348,9.955-32.244c1.893-7.132,9.337-23.933,19.206-15.957c3.652,2.952,8.233-0.667,7.95-4.757
				c-1.578-22.841,13.744-48.086,38.791-47.696c6.373,0.099,7.599-9.832,1.16-9.933c-31.925-0.497-51.896,29.346-49.836,59.151
				c2.65-1.586,5.3-3.171,7.95-4.757c-6.311-5.1-14.737-4.752-21.425-0.523c-7.59,4.8-11.244,13.658-13.411,22.007
				c-2.501,9.631-2.855,20.97-8.757,29.332c-2.182,3.092-6.031,6.952-10.223,6.282c-4.095-0.654-6.834-5.688-5.506-9.489
				C309.28,786.05,300.017,782.273,297.893,788.356L297.893,788.356z"/>
		</g>
	</g>
	<g id="AQUA_x5F_001_x5F_021_x5F_FRAG_x5F_007">
		<g>
			<path fill="#B6E565" d="M821.74,732.974c4.645-1.641,8.441,3.91,9.815,7.538c1.98,5.229,2.088,11.082,2.327,16.603
				c0.244,5.634,9.518,5.395,9.909-0.181c0.275-3.93,3.923-4.952,6.75-2.394c3.369,3.048,4.391,8.002,5.053,12.285
				c1.426,9.236,2.324,18.094,5.656,26.911c5.72,15.138,16.283,28.717,30.303,36.964c5.496,3.233,11.555-4.732,6.014-7.991
				c-18.824-11.073-28.913-30.669-31.39-51.885c-1.143-9.792-3.245-22.477-13.629-26.815c-8.53-3.564-18.056,2.715-18.69,11.766
				c3.303-0.06,6.606-0.121,9.909-0.181c-0.378-8.733-0.985-18.394-6.682-25.521c-4.787-5.988-12.004-8.857-19.358-6.259
				C811.66,725.955,815.688,735.111,821.74,732.974L821.74,732.974z"/>
		</g>
	</g>
	<g id="AQUA_x5F_001_x5F_021_x5F_FRAG_x5F_004">
		<g>
			<path fill="#B6E565" d="M428.729,753.58c-2.491,26.898,16.114,55.276,45.318,53.576c15.122-0.88,26.076-10.923,35.631-21.728
				c10.287-11.633,18.781-24.673,25.801-38.505c2.917-5.747-6.377-9.458-9.269-3.759c-5.723,11.275-12.598,21.911-20.632,31.682
				c-7.543,9.174-16.381,19.661-28.669,21.918c-24.383,4.48-40.27-20.176-38.247-42.025
				C439.254,748.341,429.324,747.158,428.729,753.58L428.729,753.58z"/>
		</g>
	</g>
	<g id="AQUA_x5F_001_x5F_021_x5F_FRAG_x5F_005">
		<g>
			<path fill="#B6E565" d="M569.73,788.987c19.229,7.148,41.508,11.668,60.235,0.683c5.482-3.216,1.545-12.421-4.012-9.162
				c-16.489,9.672-35.537,5.502-52.465-0.79C567.458,777.475,563.691,786.742,569.73,788.987L569.73,788.987z"/>
		</g>
	</g>
	<g id="AQUA_x5F_001_x5F_021_x5F_FRAG_x5F_006">
		<g>
			<path fill="#B6E565" d="M668.011,780.562c6.988,8.736,19.138,19.206,29.933,9.541c10.791-9.66,5.542-25.594,9.942-37.744
				c4.137-11.424,14.044-20.06,25.457-23.85c15.127-5.023,31.741-1.829,46.976,0.938c6.335,1.151,7.471-8.786,1.16-9.933
				c-25.432-4.62-53.649-7.142-73.042,13.387c-8.437,8.932-11.994,19.765-12.598,31.858c-0.276,5.526,0.18,14.696-5.079,18.348
				c-5.417,3.761-12.063-5.197-14.904-8.749C671.831,769.328,663.984,775.527,668.011,780.562L668.011,780.562z"/>
		</g>
	</g>
</g>
</svg>
