<?xml version="1.0" encoding="UTF-8"?><svg xmlns="http://www.w3.org/2000/svg" viewBox="0 0 1920 1080"><g id="GRILLE"><g><line x1="924.545" y1="199.496" x2="129.197" y2="199.496" fill="none" stroke="#f86806" stroke-linecap="square" stroke-linejoin="round" stroke-width=".25"/><line x1="924.545" y1="237.124" x2="129.197" y2="237.124" fill="none" stroke="#f86806" stroke-linecap="square" stroke-linejoin="round" stroke-width=".25"/><line x1="924.545" y1="274.751" x2="129.197" y2="274.751" fill="none" stroke="#f86806" stroke-linecap="square" stroke-linejoin="round" stroke-width=".25"/><line x1="924.545" y1="312.378" x2="129.197" y2="312.378" fill="none" stroke="#f86806" stroke-linecap="square" stroke-linejoin="round" stroke-width=".25"/><line x1="924.545" y1="350.006" x2="129.197" y2="350.006" fill="none" stroke="#f86806" stroke-linecap="square" stroke-linejoin="round" stroke-width=".25"/><line x1="924.545" y1="387.633" x2="129.197" y2="387.633" fill="none" stroke="#f86806" stroke-linecap="square" stroke-linejoin="round" stroke-width=".25"/><line x1="924.545" y1="425.261" x2="129.197" y2="425.261" fill="none" stroke="#f86806" stroke-linecap="square" stroke-linejoin="round" stroke-width=".25"/><line x1="924.545" y1="462.888" x2="129.197" y2="462.888" fill="none" stroke="#f86806" stroke-linecap="square" stroke-linejoin="round" stroke-width=".25"/><line x1="924.545" y1="500.888" x2="129.197" y2="500.888" fill="none" stroke="#f86806" stroke-linecap="square" stroke-linejoin="round" stroke-width=".25"/><line x1="924.545" y1="538.888" x2="129.197" y2="538.888" fill="none" stroke="#f86806" stroke-linecap="square" stroke-linejoin="round" stroke-width=".25"/><line x1="924.545" y1="576.888" x2="129.197" y2="576.888" fill="none" stroke="#f86806" stroke-linecap="square" stroke-linejoin="round" stroke-width=".25"/><line x1="924.545" y1="614.888" x2="129.197" y2="614.888" fill="none" stroke="#f86806" stroke-linecap="square" stroke-linejoin="round" stroke-width=".25"/><line x1="924.545" y1="652.888" x2="129.197" y2="652.888" fill="none" stroke="#f86806" stroke-linecap="square" stroke-linejoin="round" stroke-width=".25"/><line x1="924.545" y1="690.888" x2="129.197" y2="690.888" fill="none" stroke="#f86806" stroke-linecap="square" stroke-linejoin="round" stroke-width=".25"/><line x1="924.545" y1="728.888" x2="129.197" y2="728.888" fill="none" stroke="#f86806" stroke-linecap="square" stroke-linejoin="round" stroke-width=".25"/><line x1="924.545" y1="766.888" x2="129.197" y2="766.888" fill="none" stroke="#f86806" stroke-linecap="square" stroke-linejoin="round" stroke-width=".25"/><line x1="924.545" y1="804.888" x2="129.197" y2="804.888" fill="none" stroke="#f86806" stroke-linecap="square" stroke-linejoin="round" stroke-width=".25"/><line x1="924.545" y1="842.888" x2="129.197" y2="842.888" fill="none" stroke="#f86806" stroke-linecap="square" stroke-linejoin="round" stroke-width=".25"/><line x1="924.545" y1="880.888" x2="129.197" y2="880.888" fill="none" stroke="#f86806" stroke-linecap="square" stroke-linejoin="round" stroke-width=".25"/></g><g><line x1="1791.545" y1="199.496" x2="996.197" y2="199.496" fill="none" stroke="#f86806" stroke-linecap="square" stroke-linejoin="round" stroke-width=".25"/><line x1="1791.545" y1="237.124" x2="996.197" y2="237.124" fill="none" stroke="#f86806" stroke-linecap="square" stroke-linejoin="round" stroke-width=".25"/><line x1="1791.545" y1="274.751" x2="996.197" y2="274.751" fill="none" stroke="#f86806" stroke-linecap="square" stroke-linejoin="round" stroke-width=".25"/><line x1="1791.545" y1="312.378" x2="996.197" y2="312.378" fill="none" stroke="#f86806" stroke-linecap="square" stroke-linejoin="round" stroke-width=".25"/><line x1="1791.545" y1="350.006" x2="996.197" y2="350.006" fill="none" stroke="#f86806" stroke-linecap="square" stroke-linejoin="round" stroke-width=".25"/><line x1="1791.545" y1="387.633" x2="996.197" y2="387.633" fill="none" stroke="#f86806" stroke-linecap="square" stroke-linejoin="round" stroke-width=".25"/><line x1="1791.545" y1="425.261" x2="996.197" y2="425.261" fill="none" stroke="#f86806" stroke-linecap="square" stroke-linejoin="round" stroke-width=".25"/><line x1="1791.545" y1="462.888" x2="996.197" y2="462.888" fill="none" stroke="#f86806" stroke-linecap="square" stroke-linejoin="round" stroke-width=".25"/><line x1="1791.545" y1="500.888" x2="996.197" y2="500.888" fill="none" stroke="#f86806" stroke-linecap="square" stroke-linejoin="round" stroke-width=".25"/><line x1="1791.545" y1="538.888" x2="996.197" y2="538.888" fill="none" stroke="#f86806" stroke-linecap="square" stroke-linejoin="round" stroke-width=".25"/><line x1="1791.545" y1="576.888" x2="996.197" y2="576.888" fill="none" stroke="#f86806" stroke-linecap="square" stroke-linejoin="round" stroke-width=".25"/><line x1="1791.545" y1="614.888" x2="996.197" y2="614.888" fill="none" stroke="#f86806" stroke-linecap="square" stroke-linejoin="round" stroke-width=".25"/><line x1="1791.545" y1="652.888" x2="996.197" y2="652.888" fill="none" stroke="#f86806" stroke-linecap="square" stroke-linejoin="round" stroke-width=".25"/><line x1="1791.545" y1="690.888" x2="996.197" y2="690.888" fill="none" stroke="#f86806" stroke-linecap="square" stroke-linejoin="round" stroke-width=".25"/><line x1="1791.545" y1="728.888" x2="996.197" y2="728.888" fill="none" stroke="#f86806" stroke-linecap="square" stroke-linejoin="round" stroke-width=".25"/><line x1="1791.545" y1="766.888" x2="996.197" y2="766.888" fill="none" stroke="#f86806" stroke-linecap="square" stroke-linejoin="round" stroke-width=".25"/><line x1="1791.545" y1="804.888" x2="996.197" y2="804.888" fill="none" stroke="#f86806" stroke-linecap="square" stroke-linejoin="round" stroke-width=".25"/><line x1="1791.545" y1="842.888" x2="996.197" y2="842.888" fill="none" stroke="#f86806" stroke-linecap="square" stroke-linejoin="round" stroke-width=".25"/><line x1="1791.545" y1="880.888" x2="996.197" y2="880.888" fill="none" stroke="#f86806" stroke-linecap="square" stroke-linejoin="round" stroke-width=".25"/></g></g><g id="FRAGMENTS"><g id="AQUA_001_019_FRAG_007"><path d="M726.995,278.26c12.263,5.291,20.046,17.964,19.132,31.303-.127,1.85,1.687,3.387,3.486,2.58,10.653-4.778,22.634,1.141,29.127,10.012,7.329,10.014,8.938,23.02,10.547,34.974,.429,3.187,5.373,2.435,4.943-.761-1.889-14.026-4.078-29.815-14.27-40.536-8.235-8.663-20.982-13.37-32.354-8.27l3.486,2.58c1.068-15.591-7.855-30.32-22.219-36.517-2.961-1.277-4.831,3.361-1.879,4.635h0Z" fill="#c6e1ca"/></g><g id="AQUA_001_019_FRAG_006"><path d="M624.384,301.828c13.92,11.559,31.598,22.663,50.239,15.731,7.814-2.906,13.393-8.875,16.087-16.724,2.968-8.647,3.426-23.151,14.333-25.928,3.087-.786,2.365-5.739-.761-4.943-18.884,4.807-12.333,29.197-25.187,39.455-16.816,13.418-38.225-.394-51.704-11.587-2.483-2.062-5.476,1.945-3.007,3.996h0Z" fill="#c6e1ca"/></g><g id="AQUA_001_019_FRAG_005"><path d="M552.617,289.731c16.642-8.292,36.683-7.377,52.364,2.709,2.696,1.734,5.716-2.253,3.007-3.996-17.154-11.033-39.076-12.413-57.377-3.294-2.869,1.43-.885,6.022,2.006,4.581h0Z" fill="#c6e1ca"/></g><g id="AQUA_001_019_FRAG_004"><path d="M476.249,237.651c12.665-6.191,21.771,7.537,24.967,17.905,3.7,12.003,4.356,24.906,2.373,37.274-1.134,7.071-1.37,16.2,7.854,17.272,9.065,1.053,14.028-7.327,17.318-14.366,1.366-2.922-3.277-4.785-4.635-1.879-2.086,4.463-4.759,10.532-10.309,11.247-7.895,1.016-5.824-7.904-5.115-12.593,1.621-10.732,1.247-21.817-1.153-32.404-1.902-8.392-4.841-17.123-11.317-23.12-5.916-5.479-14.607-7.525-21.99-3.916-2.882,1.409-.896,6,2.006,4.581h0Z" fill="#c6e1ca"/></g><g id="AQUA_001_019_FRAG_003"><path d="M364.726,339.481c14.733-1.247,13.108-18.904,20.596-27.507,4.134-4.75,11.381-4.387,15.559-9.285,3.421-4.01,4.231-9.443,5.283-14.428,.629-2.983,1.262-6.246,3.034-8.798,2.239-3.227,5.93-4.172,9.501-5.246,5.364-1.614,9.91-3.797,12.322-9.151,2.713-6.02,1.747-12.98,4.327-19.02,3.01-7.046,9.518-11.754,17.023-12.854,3.18-.466,2.431-5.411-.761-4.943-12.374,1.814-20.838,11.242-22.814,23.32-1.193,7.29-1.239,14.381-9.343,17.228-5.749,2.02-11.472,2.983-14.854,8.621-2.635,4.394-3.106,9.605-4.289,14.486-.656,2.709-1.478,5.674-3.424,7.776-2.684,2.9-6.879,3.364-10.268,5.077-5.324,2.693-8.052,7.869-9.998,13.27-2.309,6.41-4.431,15.812-12.655,16.508-3.204,.271-2.438,5.214,.761,4.943h0Z" fill="#c6e1ca"/></g><g id="AQUA_001_019_FRAG_002"><path d="M292.383,276.676c7.119,6.975,11.449,15.692,12.588,25.6,.338,2.943,4.439,2.554,4.955-.091,2.045-10.482,14.66-10.974,21.715-5.508,7.561,5.857,9.659,15.688,10.594,24.694,.332,3.199,5.275,2.439,4.943-.761-1.274-12.274-5.559-26.22-18.163-31.19-10.066-3.97-21.912,1.199-24.055,12.186l4.955-.091c-1.228-10.679-5.925-20.412-13.61-27.941-2.271-2.225-6.218,.852-3.922,3.102h0Z" fill="#c6e1ca"/></g><g id="AQUA_001_019_FRAG_001"><path d="M176.611,310.269c2.469-14.078,6.923-27.705,13.33-40.488,3.15-6.284,6.773-12.318,10.812-18.071,3.622-5.158,9.724-15.713,17.043-14.779,7.234,.923,7.781,11.492,8.334,17.096,.798,8.084,1.109,16.21,1.075,24.331-.067,16.097-1.392,32.152-2.716,48.184-.229,2.773,3.707,3.896,4.801,1.23,7.988-19.479,17.505-41.387,39.254-48.364,3.06-.981,1.038-5.557-2.006-4.581-22.984,7.373-33.428,30.447-41.882,51.065l4.801,1.23c1.607-19.453,3.177-38.948,2.585-58.484-.308-10.176,1.13-34.918-13.538-36.797-7.19-.921-12.684,5.081-16.744,10.169-4.999,6.265-9.421,12.988-13.322,19.985-8.274,14.842-13.858,30.968-16.791,47.694-.556,3.172,4.412,3.741,4.966,.58h0Z" fill="#c6e1ca"/></g><g id="AQUA_001_020_FRAG_007"><path d="M752.946,481.074c.121,8.471,.298,17.275,4.706,24.788,1.642,2.799,3.805,5.341,6.501,7.18,3.353,2.287,7.677,2.903,10.792,5.493,3.059,2.543,4.273,6.586,6.307,9.905,1.957,3.194,4.367,6.047,7.148,8.555,5.625,5.072,12.538,8.209,19.959,9.533,3.17,.565,3.738-4.403,.58-4.966-7.312-1.304-14.107-4.791-19.225-10.228-4.385-4.658-6.009-11.18-10.443-15.657-4.555-4.599-11.606-4.785-15.751-10.029-5.315-6.725-5.491-15.825-5.608-23.994-.045-3.172-5.012-3.793-4.966-.58h0Z" fill="#52b378"/></g><g id="AQUA_001_020_FRAG_006"><path d="M644.659,455.139c6.204-4.855,13.743,.013,17.305,5.623,3.585,5.647,5.385,12.501,7.598,18.755,5.112,14.444,10.224,28.888,15.335,43.332,.745,2.105,3.814,1.804,4.608-.063,12.594-29.607,29.999-56.835,51.531-80.739,2.158-2.395-1.857-5.381-3.996-3.007-21.807,24.21-39.417,51.886-52.17,81.867l4.608-.063c-6.514-18.408-12.438-37.168-19.638-55.318-2.435-6.137-5.902-12.432-12.058-15.484-5.311-2.634-11.481-2.536-16.225,1.177-2.538,1.986,.564,5.908,3.102,3.922h0Z" fill="#52b378"/></g><g id="AQUA_001_020_FRAG_005"><path d="M600.28,501.359c3.853,13.297,14.033,23.106,27.465,26.46,3.113,.777,3.663-4.196,.58-4.966-11.003-2.747-19.946-11.362-23.102-22.255-.882-3.044-5.839-2.33-4.943,.761h0Z" fill="#52b378"/></g><g id="AQUA_001_020_FRAG_004"><path d="M497.638,427.271c9.336-1.526,17.622,4.815,21.66,12.881,4.361,8.713,4.431,18.986,4.541,28.506,.013,1.131,.433,2.145,1.543,2.607,11.387,4.735,14.426,17.593,16.335,28.562,1.739,9.993,3.379,20.435,10.128,28.456,5.129,6.096,12.879,9.982,20.852,7.624,7.252-2.145,12.737-8.496,11.826-16.254-.375-3.194-5.319-2.438-4.943,.761,1.108,9.436-10.931,13.302-17.985,9.616-8.414-4.397-11.808-14.464-13.541-23.13-2.996-14.983-4.574-33.526-20.792-40.269l1.543,2.607c-.134-11.551-.249-24.098-6.668-34.19-5.424-8.528-14.978-14.399-25.26-12.719-3.17,.518-2.426,5.464,.761,4.943h0Z" fill="#52b378"/></g><g id="AQUA_001_020_FRAG_003"><path d="M385.51,486.654c9.16,21.399,38.774,21.806,48.944,1.087l-2.607,1.543c11.9,2.479,23.686-2.915,31.847-11.485,9.342-9.81,13.663-23.115,17.709-35.733,.978-3.05-3.651-4.945-4.635-1.879-6.305,19.66-18.028,49.614-44.342,44.131-1.121-.233-2.151,.614-2.607,1.543-8.354,17.019-32.349,16.027-39.729-1.213-1.266-2.958-5.85-.96-4.581,2.006h0Z" fill="#52b378"/></g><g id="AQUA_001_020_FRAG_002"><path d="M297.063,459.364c7.523,8.86,11.778,20.167,11.353,31.854-.138,3.792-1.722,8.426-.169,12.106,1.878,4.45,6.056,3.734,9.938,5.014,4.733,1.561,8.001,5.913,12.404,8.166,4.103,2.1,8.823,2.392,13.273,1.362,10.429-2.414,17.15-11.05,23.155-19.253,1.903-2.6-2.093-5.606-3.996-3.007-5.86,8.005-13.429,18.376-24.63,17.864-5.187-.237-8.571-3.495-12.486-6.45-3.169-2.392-5.901-3.196-9.641-4.166-2.993-.776-3.749-2.051-3.481-5.083,.177-1.998,.516-3.963,.598-5.973,.17-4.193-.169-8.418-1.038-12.523-1.807-8.539-5.718-16.368-11.36-23.013-2.081-2.451-6.01,.643-3.922,3.102h0Z" fill="#52b378"/></g><g id="AQUA_001_020_FRAG_001"><path d="M172.039,517.615c6.113,10.6,19.666,12.781,29.929,6.901,13.021-7.461,17.463-22.42,20.971-36.022l-4.608,.063c3.156,7.603,6.674,15.699,13.678,20.554,6.191,4.291,13.913,5.087,20.461,1.12,6.818-4.13,10.896-11.627,14.118-18.655,4.287-9.35,7.057-19.284,8.526-29.452,.461-3.187-4.506-3.764-4.966-.58-1.991,13.772-6.372,30.834-16.338,41.177-5.509,5.718-12.866,6.744-19.395,1.948-5.93-4.356-8.776-11.55-11.503-18.118-.752-1.812-4.052-2.091-4.608,.063-2.759,10.697-5.678,22.38-14.133,30.13-7.617,6.982-21.54,9.287-27.551-1.136-1.589-2.756-6.191-.786-4.581,2.006h0Z" fill="#52b378"/></g><g id="AQUA_001_021_FRAG_001"><path d="M176.053,703.712c4.598-6.378,13.201-8.16,20.35-5.215,6.609,2.723,11.469,8.57,14.449,14.915,3.671,7.817,4.338,16.096,5.934,24.435,.828,4.328,2.593,9.632,7.346,10.954,13.293,3.697,13.221-20.041,13.464-27.129,.259-7.544,.51-15.5,3.932-22.402,3.57-7.201,12.546-13.3,20.497-8.791,2.766,1.569,5.8-2.412,3.007-3.996-12.12-6.874-24.995,1.952-29.346,13.763-2.782,7.553-2.837,15.626-3.148,23.561-.192,4.89-.265,10.141-1.752,14.849-.563,1.782-1.646,4.646-3.641,5.267-3.107,.968-4.278-2.616-4.88-4.618-2.348-7.798-2.37-16.065-5.173-23.837-2.369-6.568-6.137-12.674-11.534-17.18-9.855-8.228-25.522-8.65-33.5,2.418-1.883,2.613,2.112,5.621,3.996,3.007h0Z" fill="#b6e565"/></g><g id="AQUA_001_021_FRAG_002"><path d="M282.518,751.427c13.475-4.289,25.862-11.069,36.77-20.063l-4.034-2.251c-1.571,11.667-1.236,31.41,14.993,32.313,13.917,.774,20.433-19.104,24.927-28.948,14.863-32.55,24.556-67.346,28.936-102.849,.394-3.194-4.572-3.777-4.966-.58-3.584,29.048-10.739,57.548-21.478,84.783-2.562,6.498-5.318,12.919-8.271,19.249-2.829,6.064-5.494,12.778-9.683,18.055-4.851,6.109-12.303,7.104-17.245,.352-4.548-6.214-3.203-14.699-2.247-21.795,.287-2.128-2.37-3.623-4.034-2.251-10.609,8.747-22.576,15.235-35.674,19.404-3.061,.974-1.039,5.55,2.006,4.581h0Z" fill="#b6e565"/></g><g id="AQUA_001_021_FRAG_003"><path d="M397.292,733.734c-2.456,6.302,.935,13.06,6.888,15.961,7.21,3.514,15.187-.301,20.09-5.895,6.517-7.435,7.316-17.645,9.881-26.771,2.472-8.794,11.239-23.533,22.319-15.683,1.866,1.322,4.138-.226,3.975-2.378-1.743-23.015,16.551-42.634,39.673-42.355,3.185,.038,3.799-4.927,.58-4.966-26.508-.32-47.201,21.607-45.196,48.083l3.975-2.378c-5.252-3.721-11.866-3.665-17.476-.643-6.645,3.579-10.218,10.735-12.267,17.695-2.472,8.396-2.981,18.139-8.537,25.268-2.821,3.619-7.379,6.98-12.231,6.335-4.765-.633-8.896-5.633-7.041-10.393,1.169-3-3.465-4.88-4.635-1.879h0Z" fill="#b6e565"/></g><g id="AQUA_001_021_FRAG_004"><path d="M514.817,679.018c2.398,20.063,6.161,39.937,11.383,59.46,1.906,7.127,3.209,16.337,8.334,22.017,3.512,3.892,9.16,4.886,13.13,1.014,6.178-6.027,1.941-14.601,3.647-21.868,1.616-6.887,7.535-11.941,12.256-16.804,5.324-5.485,9.569-11.114,11.474-18.644,2.069-8.18,1.738-16.729,3.472-24.972,3.979-18.919,16.213-35.776,32.779-45.662,2.725-1.627,.759-6.231-2.006-4.581-11.905,7.105-21.618,17.064-28.255,29.263-3.362,6.18-5.808,12.795-7.322,19.663-1.704,7.731-1.521,15.711-3.114,23.452-2.989,14.52-17.013,20.446-22.812,33.181-1.236,2.715-1.84,5.623-1.883,8.599-.062,4.221,1.689,9.572-.738,13.381-6.699,10.515-12.648-13.758-13.524-16.972-5.483-20.105-9.404-40.599-11.877-61.288-.382-3.194-5.325-2.437-4.943,.761h0Z" fill="#b6e565"/></g><g id="AQUA_001_021_FRAG_005"><path d="M625.192,738.208c8.562-8.41,24.294-4.24,27.653,7.251l4.251-2.554c-2.258-2.481-.656-5.667,1.82-7.198,2.724-1.684,6.186-1.358,9.245-1.089,4.216,.371,8.476,1.125,12.642-.015,7.53-2.06,10.503-9.071,11.672-16.171,1.736-10.55,2.369-20.882,5.52-31.21,2.683-8.793,6.328-21.888,15.302-26.396,13.845-6.955,16.421,17.908,19.892,25.53,2.019,4.435,5.098,8.415,9.993,9.725,7.071,1.892,13.638-2.694,17.067-8.633,5.695-9.862,2.799-22.138,6.912-32.586,4.09-10.392,12.259-18.601,22.484-22.982,2.957-1.267,.96-5.851-2.006-4.581-8.468,3.628-15.767,9.616-20.795,17.366-5.36,8.263-6.93,16.96-7.724,26.615-.466,5.674-1.048,11.663-4.926,16.153-3.286,3.805-8.765,5.652-12.902,2.142-4.664-3.957-5.813-11.751-7.497-17.29-1.578-5.189-3.489-10.996-7.895-14.518-5.444-4.352-12.67-3.553-17.953,.641-7.612,6.044-11.176,16.275-14.04,25.188-3.327,10.354-4.766,20.795-6.031,31.546-.631,5.364-1.771,12.295-7.557,14.425-5.916,2.178-12.649-.833-18.778,.063-7.347,1.073-14.505,9.633-8.367,16.378,2.003,2.201,5.035,.128,4.251-2.554-4.209-14.397-24.657-19.656-35.336-9.167-2.275,2.234,.805,6.178,3.102,3.922h0Z" fill="#b6e565"/></g><g id="AQUA_001_021_FRAG_006"><path d="M808.321,690.624c12.218-3.745,14.417,13.829,14.807,21.756,.14,2.84,4.69,2.671,4.955-.091,.698-7.288,9.338-4.971,12.401-.894,2.7,3.594,3.322,8.183,3.926,12.509,1.009,7.224,2.418,14.074,5.517,20.737,5.876,12.633,15.786,22.792,28.104,29.222,2.855,1.49,4.708-3.158,1.879-4.635-8.445-4.408-15.637-10.852-20.975-18.746-5.854-8.657-8.256-18.011-9.704-28.217-1.076-7.585-3.769-16.6-11.9-19.277-6.355-2.092-13.562,1.898-14.216,8.721l4.955-.091c-.358-7.27-.935-15.319-6.099-20.97-4.117-4.505-9.805-6.399-15.657-4.605-3.069,.941-1.044,5.516,2.006,4.581h0Z" fill="#b6e565"/></g><g id="AQUA_001_022_FRAG_001"><path d="M1095.865,286.05c-13.7,6.748-15.753,22.621-16.767,36.242-.244,3.273-2.928,31.301-11.491,24.542-1.622-1.281-2.034-5.51-2.531-7.301-.684-2.464-1.362-4.929-2.043-7.393-1.362-4.929-2.724-9.858-4.086-14.787-.846-3.061-5.801-2.344-4.943,.761,1.618,5.853,3.235,11.706,4.853,17.559,1.165,4.216,1.856,9.383,4.154,13.184,4.317,7.141,12.393,3.492,15.827-2.416,9.484-16.32-1.075-45.906,19.033-55.81,2.877-1.417,.892-6.008-2.006-4.581h0Z" fill="#3db2af"/></g><g id="AQUA_001_022_FRAG_002"><path d="M1115.9,296.302c7.17,8.567,12.976,17.975,17.405,28.232,.809,1.874,3.928,2.03,4.608-.063,5.08-15.634,10.16-31.267,15.24-46.901,4.82-14.834,9.161-29.937,14.566-44.568,2.399-6.495,6.017-13.76,13.377-15.491,8.976-2.112,12.195,5.01,11.89,12.83-.638,16.314-2.162,32.645-3.245,48.936l4.444-1.261c-2.628-4.164,3.016-7.739,6.597-6.454,3.178,1.14,5.192,4.442,5.813,7.597,1.34,6.81-2.139,14.004-4.809,20.077-4.708,10.708-10.307,21.47-9.474,33.534,.651,9.428,6.019,18.105,15.305,21.054,8.443,2.681,16.446-1.039,20.451-8.799,2.184-4.231,3.114-8.938,4.463-13.466,1.581-5.307,5.455-12.997,11.971-13.339,7.641-.401,6.689,10.241,6.358,15.089-.416,6.098-1.009,12.541,1.389,18.344,3.298,7.98,12.096,13.423,20.287,8.75,8.526-4.864,11.367-16.409,14.469-24.898,11.289-30.892,22.577-61.783,33.866-92.675,1.104-3.02-3.529-4.905-4.635-1.879-10.491,28.707-20.981,57.415-31.472,86.122-2.277,6.23-4.28,12.646-6.969,18.71-2.051,4.626-5.455,10.98-11.193,11.394-8.346,.602-11.101-9.599-11.162-16.045-.058-6.117,1.545-12.432,.121-18.492-2.147-9.139-11.37-11.77-18.716-6.492-8.877,6.379-8.543,16.719-12.815,25.767-6.914,14.646-24.035,6.017-26.405-6.797-2.567-13.882,6.079-26.614,10.88-38.965,3.678-9.462,6.343-24.515-5.846-29.226-8.69-3.359-17.547,6.03-12.398,14.191,1.159,1.837,4.307,.793,4.444-1.261,.656-9.87,1.313-19.741,1.969-29.611,.56-8.422,2.461-17.866,1.086-26.262-2.225-13.586-18.23-14.774-26.852-6.234-5.299,5.248-7.644,12.57-9.894,19.482-3.054,9.378-6.096,18.76-9.144,28.14-6.198,19.073-12.395,38.146-18.593,57.219l4.608-.063c-4.589-10.628-10.634-20.45-18.064-29.328-2.065-2.467-5.992,.628-3.922,3.102h0Z" fill="#3db2af"/></g><g id="AQUA_001_022_FRAG_003"><path d="M1333.791,332.626c9.289,8.38,14.723,19.802,15.693,32.24,.194,2.491,3.953,2.79,4.789,.559,4.762-12.712,10.549-25.021,17.507-36.684,5.432-9.104,17.155-26.3,29.344-16.092,1.206,1.01,3.3,.414,3.821-1.058,8.077-22.826,19.867-43.998,35.026-62.879,2.02-2.516-1.984-5.513-3.996-3.007-15.408,19.192-27.455,40.805-35.665,64.007l3.821-1.058c-11.308-9.469-24.945-.004-31.817,9.9-9.533,13.741-16.827,29.38-22.677,44.992l4.789,.559c-1.075-13.78-7.391-26.238-17.628-35.474-2.394-2.159-5.379,1.855-3.007,3.996h0Z" fill="#3db2af"/></g><g id="AQUA_001_022_FRAG_004"><path d="M1460.625,274.435c.888-1.413,2.629-.414,3.34,.184,1.128,.949,1.316,2.035,1.435,3.462,.191,2.282-.257,4.74-.432,7.023-.335,4.379-.515,8.769-.54,13.161-.046,8.066,.385,16.135,1.348,24.144,1.623,13.498,3.533,30.805,13.768,40.864,8.351,8.208,20.884,9.619,29.541,1.118,9.462-9.291,12.659-24.59,15.307-37.052,1.912-8.994,2.733-18.01,3.573-27.146,.81-8.816,3.618-20.231,14.256-21.101,3.204-.262,2.438-5.205-.761-4.943-14.993,1.226-17.851,17.666-18.797,29.703-1.282,16.307-4.025,34.109-11.426,48.885-3.29,6.568-8.939,13.284-17.051,12.568-8.798-.777-14.657-8.498-17.635-16.114-6.344-16.224-7.474-35.94-7.122-53.17,.101-4.945,.597-9.839,.877-14.771,.182-3.206,.177-6.877-1.852-9.583-2.851-3.803-9.129-4.531-11.826-.24-1.703,2.711,2.282,5.733,3.996,3.007h0Z" fill="#3db2af"/></g><g id="AQUA_001_022_FRAG_005"><path d="M1560.764,343.703c4.931-8.168,12.94,1.283,14.934,6.456,2.205,5.72,3.172,11.552,6.563,16.776,1.753,2.702,5.662-.421,3.922-3.102-5.078-7.824-4.422-18.874-12.143-25.099-5.165-4.165-13.608-4.105-17.271,1.962-1.651,2.734,2.333,5.761,3.996,3.007h0Z" fill="#3db2af"/></g><g id="AQUA_001_022_FRAG_006"><path d="M1602.249,336.985c1.984,12.776,7.923,32.803,25.058,29.746,17.786-3.173,18.594-25.034,19.85-39.007,1.859-20.68,4.401-41.298,7.62-61.81,1.56-9.941,2.948-20.046,5.274-29.843,2.24-9.435,7.764-20.878,19.052-20.854,3.181,.007,3.797-4.959,.58-4.966-15.931-.034-22.641,15.193-25.323,28.643-3.648,18.295-6.31,36.846-8.63,55.35-1.211,9.657-2.272,19.333-3.184,29.023-.803,8.534-.631,17.801-3.515,25.97-3.072,8.702-12.166,16.629-21.344,10.527-7.702-5.121-9.187-15.113-10.495-23.541-.493-3.175-5.438-2.429-4.943,.761h0Z" fill="#3db2af"/></g><g id="AQUA_001_022_FRAG_007"><path d="M1691.941,318.086c10.738,2.261,11.155,15.433,11.096,24.062l4.955-.091c-.523-6.34,6.809-3.098,8.487-.739,1.322,1.858,1.782,4.084,2.114,6.289,.652,4.335,.456,8.876,.597,13.25,.227,7.044-.572,15.454,2.727,21.966,2.58,5.093,7.711,7.54,13.317,6.49,6.821-1.278,11.132-6.914,14.885-12.251,1.851-2.633-2.142-5.643-3.996-3.007-2.651,3.77-5.509,8.151-10.018,9.85-6.65,2.505-10.235-2.497-11.193-8.331-1.502-9.145-.318-18.638-1.289-27.842-.636-6.028-3.553-12.874-10.167-14.227-5.881-1.203-10.885,3.52-10.407,9.313,.228,2.767,4.935,2.746,4.955-.091,.082-11.86-1.574-26.679-15.482-29.608-3.147-.663-3.708,4.308-.58,4.966h0Z" fill="#3db2af"/></g><g id="AQUA_001_023_FRAG_001"><path d="M1058.897,484.989c1.529-7.512,11.49-7.215,16.106-3.106,5.796,5.159,6.813,13.667,7.441,20.916,.82,9.471,1.64,27.908,16.205,23.345,5.485-1.718,8.906-6.069,12.639-10.126,2.686-2.919,5.824-5.804,10.072-5.564,4.075,.23,7.469,3.121,10.126,5.991,7.409,8.006,13.695,21.627,26.856,19.142,3.151-.595,2.413-5.542-.761-4.943-8.452,1.596-13.956-6.684-18.322-12.557-3.669-4.935-8.201-10.218-14.305-12.072-5.695-1.73-11.027,.491-15.183,4.422-4.239,4.008-14.989,18.588-20.007,7.591-3.506-7.683-1.769-17.577-3.758-25.711-1.376-5.629-3.941-11.149-8.531-14.866-7.905-6.401-21.36-3.771-23.544,6.957-.642,3.153,4.328,3.715,4.966,.58h0Z" fill="#4cd36f"/></g><g id="AQUA_001_023_FRAG_002"><path d="M1182.223,529.789c2.845-5.255,10.128-4.86,14.559-2.126,4.837,2.985,7.911,8.108,10.851,12.819,1.5,2.404,5.514-.031,4.251-2.554-3.763-7.516,.726-17.484,8.871-19.781,10.013-2.824,19.052,7.486,18.408,16.941-.176,2.584,2.828,3.61,4.481,1.793,5.975-6.566,14.867-12.847,21.31-3.345,3.493,5.151,5.283,11.325,9.767,15.808,11.059,11.057,28.31,1.823,27.974-12.88-.073-3.203-5.016-2.421-4.943,.761,.255,11.149-13.23,15.848-20.323,7.728-3.837-4.392-5.494-10.258-8.862-14.979-2.962-4.152-7.403-7.074-12.692-6.65-6.755,.542-11.926,5.823-16.227,10.549l4.481,1.793c.862-12.651-10.595-25.506-23.876-22.562-11.407,2.528-18.17,16.403-12.95,26.829l4.251-2.554c-4.227-6.772-9.315-14.428-17.653-16.274-6.518-1.443-13.086,.843-16.313,6.804-1.532,2.83,3.119,4.679,4.635,1.879h0Z" fill="#4cd36f"/></g><g id="AQUA_001_023_FRAG_003"><path d="M1324.196,521.991c-1.031-4.655,1.687-9.069,6.078-10.842,4.239-1.711,8.908-.19,12.402,2.462,7.85,5.958,9.093,16.51,9.667,25.642,.203,3.23,5.073,2.408,4.943-.761-.258-6.314,6.868-8.856,11.921-6.931,4.712,1.795,7.778,6.07,9.739,10.52,3.809,8.644,5.512,18.642,7.213,27.886,3.667,19.929,4.628,40.223,2.025,60.344-.39,3.011,3.51,3.538,4.801,1.23,1.799-3.218,3.783-6.835,6.856-9.035,3.198-2.29,9.533-2.668,10.507,2.289,.618,3.145,5.566,2.409,4.943-.761-1.15-5.85-6.96-8.981-12.7-8.062-7.058,1.131-11.067,8.013-14.24,13.69l4.801,1.23c3.54-27.366,.653-55.264-6.638-81.805-2.567-9.345-6.787-19.876-17.116-22.701-8.653-2.367-17.428,3.711-17.054,12.868l4.943-.761c-.808-12.85-4.485-28.647-18.823-32.471-10.156-2.708-21.648,5.726-19.21,16.732,.692,3.122,5.642,2.392,4.943-.761h0Z" fill="#4cd36f"/></g><g id="AQUA_001_023_FRAG_004"><path d="M1437.201,523.506c8.665-5.136,18.006-8.391,27.999-9.688,3.189-.414,2.436-5.358-.761-4.943-10.393,1.349-20.225,4.705-29.244,10.05-2.732,1.619-.764,6.223,2.006,4.581h0Z" fill="#4cd36f"/><path d="M1477.443,482.524c6.863-7.019,16.833-9.637,26.179-6.389,3.033,1.054,4.922-3.577,1.879-4.635-10.904-3.79-23.039-1.205-31.16,7.102-2.222,2.273,.854,6.22,3.102,3.922h0Z" fill="#4cd36f"/></g><g id="AQUA_001_023_FRAG_005"><path d="M1528.946,500.773c6.654,19.107,11.114,38.906,13.2,59.035,1.062,10.245,1.522,20.551,1.336,30.85-.099,5.46-2.145,14.803,3.414,18.455,6.105,4.011,11.75-2.716,15.158-7.074,5.318-6.799,10.019-14.051,14.158-21.623,8.461-15.483,14.124-32.331,17.065-49.712,.537-3.175-4.431-3.746-4.966-.58-2.588,15.296-7.406,30.087-14.388,43.945-3.561,7.068-7.699,13.838-12.33,20.255-2.217,3.073-4.503,6.706-7.404,9.203-6.729,5.792-5.941-5.306-5.834-8.577,1.063-32.697-4.075-65.306-14.827-96.184-1.058-3.038-5.636-1.023-4.581,2.006h0Z" fill="#4cd36f"/></g><g id="AQUA_001_023_FRAG_006"><path d="M1610.008,525.556c5.528,4.628,8.709,11.203,8.721,18.441,.003,1.972,1.563,3.216,3.486,2.58,7.422-2.453,12.15,5.715,13.31,11.733,1.069,5.54,.963,11.278,1.634,16.875,1.272,10.615,3.828,21.08,7.474,31.127,7.421,20.448,19.547,38.836,35.18,53.924,2.315,2.234,5.295-1.788,3.007-3.996-18.303-17.665-31.514-40.488-37.657-65.183-1.427-5.736-2.484-11.561-3.152-17.434-.695-6.112-.5-12.431-2.058-18.414-2.298-8.824-10.211-16.364-19.744-13.213l3.486,2.58c-.015-9.106-3.678-17.153-10.68-23.016-2.474-2.072-5.467,1.936-3.007,3.996h0Z" fill="#4cd36f"/></g><g id="AQUA_001_024"><g id="AQUA_001_024_FRAG_001"><path d="M1054.171,742.116c7.169,11.013,14.338,22.026,21.508,33.039,1.215,1.867,4.222,.765,4.444-1.261,1.351-12.327,1.964-25.018,4.18-37.219,.998-5.492,5.815-15.615,13.022-10.999,4.266,2.733,5.095,9.167,5.512,13.775,.16,1.767,2.045,2.345,3.474,1.91,11.602-3.533,23.009,5.101,22.843,17.207-.044,3.186,4.922,3.799,4.966,.58,.222-16.126-14.411-27.058-29.815-22.368l3.474,1.91c-.525-5.799-1.95-12.7-6.761-16.557-4.668-3.741-10.991-2.902-15.37,.887-5.728,4.957-6.396,12.958-7.17,19.977-1.114,10.105-2.215,20.211-3.322,30.316l4.444-1.261c-7.169-11.013-14.338-22.026-21.508-33.039-1.757-2.699-5.666,.422-3.922,3.102h0Z" fill="#b0dad4"/></g><g id="AQUA_001_024_FRAG_002"><path d="M1151.19,783.238c19.387,11.4,43.582,.793,48.057-21.296l-3.987,1.708c6.778,3.867,14.578,2.726,20.767-1.876,7.503-5.579,10.403-15.133,12.881-23.706,.886-3.066-3.742-4.968-4.635-1.879-1.787,6.185-3.584,12.726-7.588,17.902-4.157,5.374-11.914,9.273-18.418,5.563-1.7-.97-3.582-.29-3.987,1.708-3.675,18.143-24.057,27.303-40.083,17.88-2.748-1.616-5.778,2.366-3.007,3.996h0Z" fill="#b0dad4"/></g><g id="AQUA_001_024_FRAG_003"><path d="M1253.5,780.13c.686,5.966,5.829,9.921,11.659,10.414,6.516,.551,11.992-3.917,15.109-9.277,4.656-8.006,4.055-17.334,6.802-25.934,1.377-4.312,3.771-8.859,7.958-10.985,4.237-2.152,10.721-.812,11.793,4.445,.483,2.369,3.82,2.917,4.789,.559,1.454-3.54,2.909-7.364,5.546-10.226,3.531-3.833,14.021-6.355,13.103,2.136-.293,2.707,3.941,4.003,4.801,1.23,1.18-3.807,5.162-6.294,9.182-5.452,5.975,1.251,6.447,9.107,7.185,14.005,1.758,11.665,2.908,23.403,3.539,35.182,.172,3.207,5.114,2.433,4.943-.761-.477-8.913-1.24-17.803-2.357-26.659-.863-6.837-.982-15.809-5.022-21.728-5.644-8.269-19.168-5.932-22.104,3.534l4.801,1.23c.771-7.133-5.676-12.529-12.633-11.367-8.56,1.429-12.663,9.807-15.617,16.999l4.789,.559c-1.207-5.919-6.344-9.525-12.287-9.721-6.529-.215-11.8,4.427-14.782,9.878-4.418,8.077-3.758,17.461-6.662,25.995-1.53,4.498-4.322,9.152-8.976,10.878-4.393,1.629-10.045-.745-10.614-5.693-.368-3.195-5.311-2.438-4.943,.761h0Z" fill="#b0dad4"/></g><g id="AQUA_001_024_FRAG_004"><path d="M1380.744,704.184c7.728-2.046,14.104,3.771,12.564,11.674-.461,2.366,2.385,3.269,4.034,2.251,4.902-3.028,10.964,.532,13.564,4.919,3.151,5.317,2.956,12.013,2.843,17.976-.06,3.188,4.905,3.8,4.966,.58,.161-8.5,.207-18.457-6.388-24.817-4.985-4.807-12.098-6.279-18.087-2.58l4.034,2.251c2.125-10.913-7.497-20.055-18.292-17.197-3.075,.814-2.356,5.768,.761,4.943h0Z" fill="#b0dad4"/></g><g id="AQUA_001_024_FRAG_005"><path d="M1435.602,771.101c3.601,15.756,21.453,22.016,35.594,16.477,18.852-7.385,26.264-27.755,31.993-45.445,.987-3.048-3.643-4.943-4.635-1.879-4.713,14.555-9.902,30.573-23.248,39.532-11.461,7.695-31.124,6.468-34.761-9.446-.712-3.115-5.662-2.387-4.943,.761h0Z" fill="#b0dad4"/></g><g id="AQUA_001_024_FRAG_006"><path d="M1522.167,761.504c5.079,14.707,8.962,29.74,11.679,45.059,.46,2.594,3.663,2.653,4.789,.559,4.041-7.514,3.783-15.884,6.059-23.907,1.071-3.776,2.838-7.965,6.208-10.271,3.679-2.517,8.969-2.67,11.808,1.078,1.202,1.587,4.458,.973,4.444-1.261-.102-16.033,7.661-30.805,20.984-39.745,2.676-1.796-.442-5.706-3.102-3.922-14.269,9.574-22.958,25.893-22.849,43.087l4.444-1.261c-5.319-7.022-15.832-5.714-21.342,.406-8.441,9.374-5.587,23.311-11.289,33.917l4.789,.559c-2.792-15.741-6.823-31.194-12.041-46.304-1.05-3.04-5.627-1.025-4.581,2.006h0Z" fill="#b0dad4"/></g><g id="AQUA_001_024_FRAG_007"><path d="M1609.009,753.358c10.4,5.491,12.511,18.31,15.642,28.516,3.023,9.855,8.136,18.37,17.17,23.755,16.539,9.859,37.831,4.615,48.398-11.347,1.772-2.677-2.217-5.694-3.996-3.007-11.434,17.271-36.481,19.5-49.913,3.161-11.447-13.923-7.642-36.325-25.422-45.712-2.847-1.503-4.699,3.146-1.879,4.635h0Z" fill="#b0dad4"/></g><g id="AQUA_001_024_FRAG_008"><path d="M1706.512,770.543c3.054-3.787,7.647,.482,8.634,3.546,1.044,3.24,.566,6.726,.187,10.044-.287,2.519,2.944,3.694,4.481,1.793,3.41-4.217,9.509-3.89,13.859-1.267,4.878,2.942,6.818,8.832,7.422,14.203,1.326,11.78-2.979,23.365-.573,35.151,.364,1.785,2.51,2.832,4.022,1.58,11.995-9.93,18.599,24.636,20.412,30.734,.914,3.075,5.489,1.048,4.581-2.006-1.627-5.474-3.251-10.948-4.881-16.421-1.35-4.535-2.607-9.253-5.529-13.073-4.169-5.45-12.051-7.819-17.685-3.155l4.022,1.58c-3.098-15.171,5.475-32.149-2.965-46.387-5.414-9.133-19.324-13.046-26.682-3.947l4.481,1.793c.713-6.251,1.203-14.128-4.502-18.326-4.207-3.096-9.926-3.012-13.282,1.149-2.026,2.512,1.979,5.508,3.996,3.007h0Z" fill="#b0dad4"/></g></g></g></svg>