<?xml version="1.0" encoding="utf-8"?>
<!-- Generator: Adobe Illustrator 27.0.0, SVG Export Plug-In . SVG Version: 6.00 Build 0)  -->
<svg version="1.1" xmlns="http://www.w3.org/2000/svg" xmlns:xlink="http://www.w3.org/1999/xlink" x="0px" y="0px"
	 viewBox="0 0 1920 1080" enable-background="new 0 0 1920 1080" xml:space="preserve">
<g id="GRILLE">
	
		<line fill="none" stroke="#F86806" stroke-width="0.5" stroke-linecap="square" stroke-linejoin="round" stroke-miterlimit="10" x1="2031.901" y1="1433.652" x2="2031.901" y2="2364.823"/>
	<g>
		
			<line fill="none" stroke="#F86806" stroke-width="0.5" stroke-linecap="square" stroke-linejoin="round" stroke-miterlimit="10" x1="924.545" y1="199.496" x2="129.197" y2="199.496"/>
		
			<line fill="none" stroke="#F86806" stroke-width="0.5" stroke-linecap="square" stroke-linejoin="round" stroke-miterlimit="10" x1="924.545" y1="237.124" x2="129.197" y2="237.124"/>
		
			<line fill="none" stroke="#F86806" stroke-width="0.5" stroke-linecap="square" stroke-linejoin="round" stroke-miterlimit="10" x1="924.545" y1="274.751" x2="129.197" y2="274.751"/>
		
			<line fill="none" stroke="#F86806" stroke-width="0.5" stroke-linecap="square" stroke-linejoin="round" stroke-miterlimit="10" x1="924.545" y1="312.378" x2="129.197" y2="312.378"/>
		
			<line fill="none" stroke="#F86806" stroke-width="0.5" stroke-linecap="square" stroke-linejoin="round" stroke-miterlimit="10" x1="924.545" y1="350.006" x2="129.197" y2="350.006"/>
		
			<line fill="none" stroke="#F86806" stroke-width="0.5" stroke-linecap="square" stroke-linejoin="round" stroke-miterlimit="10" x1="924.545" y1="387.633" x2="129.197" y2="387.633"/>
		
			<line fill="none" stroke="#F86806" stroke-width="0.5" stroke-linecap="square" stroke-linejoin="round" stroke-miterlimit="10" x1="924.545" y1="425.261" x2="129.197" y2="425.261"/>
		
			<line fill="none" stroke="#F86806" stroke-width="0.5" stroke-linecap="square" stroke-linejoin="round" stroke-miterlimit="10" x1="924.545" y1="462.888" x2="129.197" y2="462.888"/>
		
			<line fill="none" stroke="#F86806" stroke-width="0.5" stroke-linecap="square" stroke-linejoin="round" stroke-miterlimit="10" x1="924.545" y1="500.888" x2="129.197" y2="500.888"/>
		
			<line fill="none" stroke="#F86806" stroke-width="0.5" stroke-linecap="square" stroke-linejoin="round" stroke-miterlimit="10" x1="924.545" y1="538.888" x2="129.197" y2="538.888"/>
		
			<line fill="none" stroke="#F86806" stroke-width="0.5" stroke-linecap="square" stroke-linejoin="round" stroke-miterlimit="10" x1="924.545" y1="576.888" x2="129.197" y2="576.888"/>
		
			<line fill="none" stroke="#F86806" stroke-width="0.5" stroke-linecap="square" stroke-linejoin="round" stroke-miterlimit="10" x1="924.545" y1="614.888" x2="129.197" y2="614.888"/>
		
			<line fill="none" stroke="#F86806" stroke-width="0.5" stroke-linecap="square" stroke-linejoin="round" stroke-miterlimit="10" x1="924.545" y1="652.888" x2="129.197" y2="652.888"/>
		
			<line fill="none" stroke="#F86806" stroke-width="0.5" stroke-linecap="square" stroke-linejoin="round" stroke-miterlimit="10" x1="924.545" y1="690.888" x2="129.197" y2="690.888"/>
		
			<line fill="none" stroke="#F86806" stroke-width="0.5" stroke-linecap="square" stroke-linejoin="round" stroke-miterlimit="10" x1="924.545" y1="728.888" x2="129.197" y2="728.888"/>
		
			<line fill="none" stroke="#F86806" stroke-width="0.5" stroke-linecap="square" stroke-linejoin="round" stroke-miterlimit="10" x1="924.545" y1="766.888" x2="129.197" y2="766.888"/>
		
			<line fill="none" stroke="#F86806" stroke-width="0.5" stroke-linecap="square" stroke-linejoin="round" stroke-miterlimit="10" x1="924.545" y1="804.888" x2="129.197" y2="804.888"/>
		
			<line fill="none" stroke="#F86806" stroke-width="0.5" stroke-linecap="square" stroke-linejoin="round" stroke-miterlimit="10" x1="924.545" y1="842.888" x2="129.197" y2="842.888"/>
		
			<line fill="none" stroke="#F86806" stroke-width="0.5" stroke-linecap="square" stroke-linejoin="round" stroke-miterlimit="10" x1="924.545" y1="880.888" x2="129.197" y2="880.888"/>
	</g>
	<g>
		
			<line fill="none" stroke="#F86806" stroke-width="0.5" stroke-linecap="square" stroke-linejoin="round" stroke-miterlimit="10" x1="1791.545" y1="199.496" x2="996.197" y2="199.496"/>
		
			<line fill="none" stroke="#F86806" stroke-width="0.5" stroke-linecap="square" stroke-linejoin="round" stroke-miterlimit="10" x1="1791.545" y1="237.124" x2="996.197" y2="237.124"/>
		
			<line fill="none" stroke="#F86806" stroke-width="0.5" stroke-linecap="square" stroke-linejoin="round" stroke-miterlimit="10" x1="1791.545" y1="274.751" x2="996.197" y2="274.751"/>
		
			<line fill="none" stroke="#F86806" stroke-width="0.5" stroke-linecap="square" stroke-linejoin="round" stroke-miterlimit="10" x1="1791.545" y1="312.378" x2="996.197" y2="312.378"/>
		
			<line fill="none" stroke="#F86806" stroke-width="0.5" stroke-linecap="square" stroke-linejoin="round" stroke-miterlimit="10" x1="1791.545" y1="350.006" x2="996.197" y2="350.006"/>
		
			<line fill="none" stroke="#F86806" stroke-width="0.5" stroke-linecap="square" stroke-linejoin="round" stroke-miterlimit="10" x1="1791.545" y1="387.633" x2="996.197" y2="387.633"/>
		
			<line fill="none" stroke="#F86806" stroke-width="0.5" stroke-linecap="square" stroke-linejoin="round" stroke-miterlimit="10" x1="1791.545" y1="425.261" x2="996.197" y2="425.261"/>
		
			<line fill="none" stroke="#F86806" stroke-width="0.5" stroke-linecap="square" stroke-linejoin="round" stroke-miterlimit="10" x1="1791.545" y1="462.888" x2="996.197" y2="462.888"/>
		
			<line fill="none" stroke="#F86806" stroke-width="0.5" stroke-linecap="square" stroke-linejoin="round" stroke-miterlimit="10" x1="1791.545" y1="500.888" x2="996.197" y2="500.888"/>
		
			<line fill="none" stroke="#F86806" stroke-width="0.5" stroke-linecap="square" stroke-linejoin="round" stroke-miterlimit="10" x1="1791.545" y1="538.888" x2="996.197" y2="538.888"/>
		
			<line fill="none" stroke="#F86806" stroke-width="0.5" stroke-linecap="square" stroke-linejoin="round" stroke-miterlimit="10" x1="1791.545" y1="576.888" x2="996.197" y2="576.888"/>
		
			<line fill="none" stroke="#F86806" stroke-width="0.5" stroke-linecap="square" stroke-linejoin="round" stroke-miterlimit="10" x1="1791.545" y1="614.888" x2="996.197" y2="614.888"/>
		
			<line fill="none" stroke="#F86806" stroke-width="0.5" stroke-linecap="square" stroke-linejoin="round" stroke-miterlimit="10" x1="1791.545" y1="652.888" x2="996.197" y2="652.888"/>
		
			<line fill="none" stroke="#F86806" stroke-width="0.5" stroke-linecap="square" stroke-linejoin="round" stroke-miterlimit="10" x1="1791.545" y1="690.888" x2="996.197" y2="690.888"/>
		
			<line fill="none" stroke="#F86806" stroke-width="0.5" stroke-linecap="square" stroke-linejoin="round" stroke-miterlimit="10" x1="1791.545" y1="728.888" x2="996.197" y2="728.888"/>
		
			<line fill="none" stroke="#F86806" stroke-width="0.5" stroke-linecap="square" stroke-linejoin="round" stroke-miterlimit="10" x1="1791.545" y1="766.888" x2="996.197" y2="766.888"/>
		
			<line fill="none" stroke="#F86806" stroke-width="0.5" stroke-linecap="square" stroke-linejoin="round" stroke-miterlimit="10" x1="1791.545" y1="804.888" x2="996.197" y2="804.888"/>
		
			<line fill="none" stroke="#F86806" stroke-width="0.5" stroke-linecap="square" stroke-linejoin="round" stroke-miterlimit="10" x1="1791.545" y1="842.888" x2="996.197" y2="842.888"/>
		
			<line fill="none" stroke="#F86806" stroke-width="0.5" stroke-linecap="square" stroke-linejoin="round" stroke-miterlimit="10" x1="1791.545" y1="880.888" x2="996.197" y2="880.888"/>
	</g>
</g>
<g id="FRAGMENTS">
	<g id="AQUA_x5F_001_x5F_019_00000069375893765479316100000001350181279406560663_">
		<g id="AQUA_x5F_001_x5F_019_x5F_FRAG_x5F_007_00000163787117873252793880000011947709398859144879_">
			<g>
				<path fill="#C6E1CA" d="M726.056,280.578c11.211,4.837,18.426,16.482,17.589,28.696c-0.253,3.699,3.374,6.774,6.972,5.161
					c9.633-4.32,20.335,1.309,26.164,9.273c7.05,9.632,8.49,22.318,10.037,33.804c0.858,6.374,10.747,4.869,9.886-1.522
					c-1.947-14.461-4.315-30.643-14.781-41.707c-8.977-9.49-22.886-14.585-35.318-9.009c2.324,1.72,4.648,3.44,6.972,5.161
					c1.145-16.716-8.347-32.474-23.763-39.125C723.893,268.754,720.152,278.031,726.056,280.578L726.056,280.578z"/>
			</g>
		</g>
		<g id="AQUA_x5F_001_x5F_019_x5F_FRAG_x5F_006_00000000192160845225246950000005526187355294406790_">
			<g>
				<path fill="#C6E1CA" d="M622.88,303.826c14.699,12.206,33.182,23.299,52.746,16.024c8.371-3.113,14.515-9.665,17.401-18.075
					c2.504-7.296,3.032-22.012,12.396-24.396c6.174-1.572,4.73-11.478-1.522-9.886c-7.722,1.966-12.771,7.633-15.705,14.89
					c-3.4,8.407-3.022,18.975-10.652,25.076c-15.787,12.624-36.158-1.251-48.65-11.624
					C623.929,291.711,617.942,299.725,622.88,303.826L622.88,303.826z"/>
			</g>
		</g>
		<g id="AQUA_x5F_001_x5F_019_x5F_FRAG_x5F_005_00000039116423624256665270000013468889840093055140_">
			<g>
				<path fill="#C6E1CA" d="M553.62,292.022c15.813-7.879,34.912-7.196,49.857,2.416c5.392,3.468,11.432-4.507,6.014-7.991
					c-17.887-11.504-40.757-13.117-59.884-3.587C543.87,285.719,547.837,294.903,553.62,292.022L553.62,292.022z"/>
			</g>
		</g>
		<g id="AQUA_x5F_001_x5F_019_x5F_FRAG_x5F_004_00000005238102686650841540000004158507160415282838_">
			<g>
				<path fill="#C6E1CA" d="M477.252,239.942c11.286-5.517,18.946,7.646,21.674,16.618c3.528,11.604,4.094,24.045,2.18,35.982
					c-1.363,8.498-0.669,18.817,10.048,20.045c10.307,1.18,16.129-7.788,19.925-15.91c2.731-5.843-6.553-9.57-9.27-3.759
					c-1.628,3.482-3.89,9.273-8.372,9.715c-5.213,0.514-2.7-6.864-2.252-9.832c1.651-10.929,1.279-22.293-1.165-33.074
					c-2.051-9.047-5.256-18.327-12.285-24.737c-6.588-6.008-16.334-8.198-24.496-4.208
					C467.477,233.598,471.448,242.779,477.252,239.942L477.252,239.942z"/>
			</g>
		</g>
		<g id="AQUA_x5F_001_x5F_019_x5F_FRAG_x5F_003_00000018217815474217109220000017429784620696619934_">
			<g>
				<path fill="#C6E1CA" d="M365.106,341.953c6.559-0.555,11.261-5.094,14.317-10.637c3.035-5.506,3.544-13.156,7.897-17.838
					c4.212-4.531,11.346-4.243,15.559-9.285c3.685-4.41,4.619-10.194,5.768-15.642c1.447-6.857,3.504-9.822,10.432-11.862
					c6.216-1.83,11.491-4.472,14.259-10.682c2.693-6.042,1.757-12.996,4.327-19.02c2.668-6.253,8.449-10.349,15.086-11.322
					c6.361-0.932,4.863-10.822-1.522-9.886c-13.501,1.979-22.762,12.334-24.916,25.501c-1.053,6.437-0.783,12.702-7.863,15.228
					c-6.204,2.214-12.129,3.385-15.849,9.408c-2.955,4.785-3.414,10.371-4.775,15.7c-0.575,2.25-1.24,4.861-2.938,6.563
					c-2.387,2.391-6.32,2.815-9.273,4.291c-5.933,2.965-9.141,8.592-11.312,14.621c-1.961,5.446-3.672,14.38-10.718,14.976
					C357.176,332.609,358.707,342.494,365.106,341.953L365.106,341.953z"/>
			</g>
		</g>
		<g id="AQUA_x5F_001_x5F_019_x5F_FRAG_x5F_002_00000137132700136571520680000014858581822818285751_">
			<g>
				<path fill="#C6E1CA" d="M290.422,278.226c6.841,6.703,10.982,14.903,12.078,24.43c0.677,5.885,8.878,5.108,9.909-0.181
					c1.678-8.603,12.311-8.023,17.728-3.8c7.008,5.463,8.76,14.741,9.626,23.077c0.664,6.398,10.55,4.878,9.886-1.522
					c-1.367-13.171-6.258-27.828-19.695-33.127c-11.66-4.598-25.026,1.645-27.478,14.213c3.303-0.06,6.606-0.121,9.909-0.181
					c-1.271-11.054-6.162-21.313-14.12-29.111C293.725,267.573,285.83,273.727,290.422,278.226L290.422,278.226z"/>
			</g>
		</g>
		<g id="AQUA_x5F_001_x5F_019_x5F_FRAG_x5F_001_00000049206542889695043140000000198399735619084202_">
			<g>
				<path fill="#C6E1CA" d="M179.094,310.559c2.431-13.862,6.856-27.253,13.164-39.838c3.054-6.094,6.576-11.929,10.493-17.507
					c2.842-4.047,8.873-14.699,14.766-13.888c5.528,0.76,5.745,11.058,6.142,15.082c0.776,7.861,1.096,15.763,1.063,23.661
					c-0.067,16.097-1.392,32.152-2.716,48.184c-0.458,5.546,7.414,7.792,9.601,2.459c7.75-18.899,16.822-40.239,37.939-47.013
					c6.119-1.963,2.076-11.115-4.012-9.162c-23.604,7.572-34.507,31.225-43.197,52.416c3.2,0.82,6.401,1.639,9.601,2.459
					c1.625-19.682,3.172-39.389,2.573-59.154c-0.356-11.738,0.713-36.886-15.72-38.9c-8.165-1.001-14.371,5.308-19.032,11.148
					c-5.137,6.437-9.641,13.356-13.642,20.549c-8.371,15.05-13.984,31.392-16.957,48.344
					C168.049,315.742,177.985,316.881,179.094,310.559L179.094,310.559z"/>
			</g>
		</g>
	</g>
	<g id="AQUA_x5F_001_x5F_020_00000137126794844126764810000012635850627752085680_">
		<g id="AQUA_x5F_001_x5F_020_x5F_FRAG_x5F_007_00000042012763514886626570000013629373904860416679_">
			<g>
				<path fill="#52B378" d="M750.463,480.785c0.128,8.934,0.318,18.126,4.898,26.081c1.835,3.187,4.244,6.072,7.288,8.175
					c3.244,2.242,7.519,2.852,10.564,5.269c2.94,2.334,4.135,6.552,6.079,9.681c2.093,3.371,4.651,6.353,7.605,9.002
					c5.972,5.355,13.321,8.618,21.173,10.018c6.339,1.131,7.477-8.806,1.16-9.933c-6.643-1.185-12.878-4.384-17.554-9.295
					c-4.429-4.652-6.082-11.057-10.443-15.657c-4.468-4.712-11.683-4.931-15.751-10.03c-4.883-6.121-4.979-14.71-5.085-22.153
					C760.305,475.601,750.371,474.359,750.463,480.785L750.463,480.785z"/>
			</g>
		</g>
		<g id="AQUA_x5F_001_x5F_020_x5F_FRAG_x5F_006_00000003106494613412713950000010580463969752371878_">
			<g>
				<path fill="#52B378" d="M646.21,457.1c4.937-3.864,10.874,0.631,13.628,4.939c3.53,5.521,5.267,12.358,7.434,18.481
					c5.112,14.444,10.224,28.888,15.335,43.333c1.49,4.211,7.627,3.607,9.216-0.127c12.514-29.419,29.816-56.423,51.211-80.175
					c4.315-4.791-3.714-10.763-7.991-6.014c-21.943,24.361-39.657,52.263-52.489,82.431c3.072-0.042,6.144-0.084,9.216-0.127
					c-6.514-18.408-12.438-37.168-19.638-55.318c-2.68-6.754-6.626-13.508-13.409-16.799c-6.135-2.976-13.273-2.726-18.716,1.534
					C634.931,453.229,641.135,461.072,646.21,457.1L646.21,457.1z"/>
			</g>
		</g>
		<g id="AQUA_x5F_001_x5F_020_x5F_FRAG_x5F_005_00000004546013337695251500000001516444783767372974_">
			<g>
				<path fill="#52B378" d="M597.809,501.739c4.198,14.49,15.009,24.908,29.647,28.563c6.226,1.555,7.327-8.393,1.16-9.933
					c-9.798-2.446-18.11-10.453-20.92-20.152C605.931,494.129,596.018,495.556,597.809,501.739L597.809,501.739z"/>
			</g>
		</g>
		<g id="AQUA_x5F_001_x5F_020_x5F_FRAG_x5F_004_00000149344936832730605690000017679634296228721575_">
			<g>
				<path fill="#52B378" d="M498.019,429.742c8.217-1.343,15.415,4.356,18.989,11.412c4.188,8.269,4.244,18.159,4.349,27.213
					c0.026,2.263,0.865,4.291,3.087,5.215c10.472,4.354,13.059,16.603,14.803,26.625c1.813,10.419,3.607,21.269,10.638,29.626
					c5.786,6.877,14.545,11.109,23.504,8.454c8.472-2.511,14.666-9.991,13.606-19.016c-0.75-6.389-10.637-4.875-9.886,1.522
					c0.881,7.502-9.358,9.776-14.573,6.918c-7.506-4.112-10.449-13.39-12.01-21.194c-3.193-15.968-5.125-35.055-22.324-42.206
					c1.029,1.738,2.058,3.476,3.087,5.215c-0.143-12.295-0.358-25.308-7.19-36.031c-5.898-9.257-16.493-15.455-27.602-13.64
					C490.156,420.892,491.646,430.784,498.019,429.742L498.019,429.742z"/>
			</g>
		</g>
		<g id="AQUA_x5F_001_x5F_020_x5F_FRAG_x5F_003_00000144333148532015218130000002729546362417314483_">
			<g>
				<path fill="#52B378" d="M383.22,487.657c4.502,10.516,14.894,18.123,26.492,18.252c11.711,0.13,21.975-6.869,27.06-17.229
					c-1.738,1.029-3.476,2.058-5.215,3.087c12.66,2.638,25.226-3.17,33.912-12.236c9.604-10.025,14.103-23.588,18.253-36.526
					c1.956-6.1-7.303-9.891-9.27-3.759c-5.938,18.516-16.709,47.802-41.735,42.588c-2.241-0.467-4.302,1.227-5.215,3.087
					c-7.437,15.15-28.643,13.858-35.121-1.277C389.85,477.73,380.681,481.725,383.22,487.657L383.22,487.657z"/>
			</g>
		</g>
		<g id="AQUA_x5F_001_x5F_020_x5F_FRAG_x5F_002_00000134245013578416583110000001566433390017876117_">
			<g>
				<path fill="#52B378" d="M295.102,460.915c7.085,8.345,11.219,18.981,10.831,30.013c-0.153,4.365-1.719,9.163,0.024,13.399
					c2.223,5.403,6.958,4.856,11.614,6.411c4.507,1.506,7.814,5.943,12.079,8.083c4.481,2.248,9.738,2.643,14.594,1.516
					c11.14-2.584,18.328-11.419,24.772-20.221c3.807-5.2-4.186-11.213-7.991-6.014c-5.31,7.253-12.164,17.143-22.342,16.885
					c-4.676-0.119-7.764-3.317-11.272-5.965c-3.484-2.63-6.679-3.699-10.855-4.651c-1.904-0.434-1.497,0.136-1.287-2.31
					c0.172-1.998,0.516-3.963,0.598-5.973c0.179-4.413-0.135-8.872-1.05-13.194c-1.896-8.955-5.948-17.208-11.87-24.183
					C298.783,449.81,290.926,455.996,295.102,460.915L295.102,460.915z"/>
			</g>
		</g>
		<g id="AQUA_x5F_001_x5F_020_x5F_FRAG_x5F_001_00000039852310397901181130000009755673576725868416_">
			<g>
				<path fill="#52B378" d="M169.748,518.618c6.779,11.756,21.621,14.75,33.222,8.188c13.713-7.756,18.59-23.044,22.285-37.373
					c-3.072,0.042-6.144,0.084-9.216,0.127c3.323,8.006,7.115,16.429,14.465,21.549c7.006,4.88,15.835,5.744,23.241,1.248
					c7.304-4.434,11.696-12.289,15.158-19.841c4.374-9.54,7.192-19.727,8.692-30.102c0.921-6.373-9.012-7.529-9.933-1.16
					c-1.912,13.226-6.059,29.784-15.629,39.735c-4.656,4.842-10.586,5.732-16.117,1.682c-5.564-4.075-8.165-10.979-10.716-17.123
					c-1.504-3.624-8.105-4.182-9.216,0.127c-2.634,10.215-5.321,21.66-13.367,29.109c-6.226,5.765-18.523,8.816-23.71-0.178
					C175.731,509.094,166.528,513.034,169.748,518.618L169.748,518.618z"/>
			</g>
		</g>
	</g>
	<g id="AQUA_x5F_001_x5F_021_00000048490341792393528510000018188265177548404396_">
		<g id="AQUA_x5F_001_x5F_021_x5F_FRAG_x5F_001_00000033359603230718192690000016495112146721344669_">
			<g>
				<path fill="#B6E565" d="M178.051,705.215c9.403-13.043,25.492-1.488,30.511,9.2c3.577,7.618,4.197,15.683,5.753,23.812
					c1.027,5.369,3.387,11.396,9.202,12.973c15.578,4.226,16.248-20.088,16.562-29.24c0.25-7.271,0.379-15.121,3.767-21.753
					c2.831-5.543,10.217-11.396,16.676-7.733c5.532,3.138,11.599-4.824,6.014-7.991c-13.521-7.669-28.183,1.292-33.167,14.821
					c-2.867,7.782-2.993,16.034-3.314,24.211c-0.182,4.641-0.181,9.727-1.587,14.2c-0.251,0.799-1.154,3.89-2.326,3.916
					c-0.663,0.015-1.332-2.523-1.497-3.02c-1.238-3.739-1.275-7.999-2.007-11.865c-0.787-4.16-1.819-8.297-3.257-12.284
					c-2.515-6.972-6.601-13.4-12.32-18.175c-10.885-9.088-28.255-9.221-37.001,2.912
					C166.293,704.426,174.283,710.442,178.051,705.215L178.051,705.215z"/>
			</g>
		</g>
		<g id="AQUA_x5F_001_x5F_021_x5F_FRAG_x5F_002_00000176723616959853808670000012117542081273191309_">
			<g>
				<path fill="#B6E565" d="M283.521,753.718c13.658-4.347,26.261-11.277,37.318-20.393c-2.689-1.5-5.379-3.001-8.068-4.501
					c-1.061,7.879-1.982,16.503,1.704,23.881c2.963,5.932,8.696,10.736,15.482,11.205c15.462,1.07,22.477-19.414,27.535-30.491
					c14.95-32.739,24.696-67.791,29.102-103.498c0.788-6.388-9.144-7.554-9.933-1.16c-3.558,28.838-10.651,57.095-21.312,84.133
					c-2.562,6.498-5.318,12.919-8.271,19.249c-2.74,5.874-5.3,12.379-9.364,17.491c-3.859,4.855-9.368,5.786-13.286,0.305
					c-4.039-5.65-2.584-13.572-1.725-19.954c0.573-4.256-4.739-7.246-8.068-4.501c-10.46,8.624-22.212,14.964-35.127,19.074
					C273.386,746.505,277.431,755.656,283.521,753.718L283.521,753.718z"/>
			</g>
		</g>
		<g id="AQUA_x5F_001_x5F_021_x5F_FRAG_x5F_003_00000029726619264603173370000013295581687485975185_">
			<g>
				<path fill="#B6E565" d="M394.975,732.794c-2.948,7.565,1.054,15.803,8.266,19.218c8.299,3.929,17.386-0.254,23.028-6.708
					c6.68-7.643,7.58-17.96,10.201-27.335c1.943-6.947,9.038-21.327,18.498-14.625c3.731,2.644,8.276-0.451,7.95-4.757
					c-1.612-21.29,15.481-39.75,36.912-39.491c6.37,0.077,7.598-9.855,1.16-9.933c-28.196-0.341-50.093,22.748-47.957,50.946
					c2.65-1.586,5.3-3.171,7.95-4.757c-5.978-4.235-13.549-4.335-19.982-0.936c-7.254,3.832-11.343,11.443-13.581,19.046
					c-2.391,8.122-2.848,17.815-8.217,24.704c-2.25,2.887-6.012,5.932-9.943,5.356c-3.128-0.459-6.278-3.725-5.014-6.97
					C406.583,730.552,397.313,726.794,394.975,732.794L394.975,732.794z"/>
			</g>
		</g>
		<g id="AQUA_x5F_001_x5F_021_x5F_FRAG_x5F_004_00000093178012978270689720000017357731259457724567_">
			<g>
				<path fill="#B6E565" d="M512.346,679.398c2.398,20.063,6.161,39.938,11.383,59.46c2.042,7.634,3.467,17.041,8.845,23.187
					c4.439,5.074,11.871,6.097,16.865,1.195c6.792-6.667,2.447-14.997,4.273-22.985c1.48-6.473,7.438-11.364,11.853-15.915
					c5.461-5.629,9.802-11.498,11.793-19.208c2.169-8.399,1.848-17.157,3.638-25.622c3.798-17.963,15.55-34.263,31.299-43.662
					c5.451-3.253,1.517-12.461-4.012-9.162c-12.519,7.472-22.589,17.784-29.569,30.614c-3.474,6.386-5.924,13.219-7.488,20.313
					c-1.704,7.73-1.47,15.724-3.114,23.452c-2.971,13.967-16.986,20.101-22.646,32.532c-1.32,2.898-1.978,6.077-2.049,9.249
					c-0.074,3.302,1.858,9.632-0.412,12.45c-2.232,2.77-4.037-1.176-4.994-3.382c-1.757-4.051-2.742-8.499-3.901-12.749
					c-5.483-20.105-9.404-40.599-11.877-61.288C521.468,671.489,511.581,673.001,512.346,679.398L512.346,679.398z"/>
			</g>
		</g>
		<g id="AQUA_x5F_001_x5F_021_x5F_FRAG_x5F_005_00000137112915893818399280000007882735876876371853_">
			<g>
				<path fill="#B6E565" d="M626.743,740.169c7.501-7.368,20.878-3.744,23.812,6.293c2.834-1.703,5.668-3.405,8.503-5.108
					c-3.633-3.992,6.918-4.419,8.815-4.252c4.68,0.411,9.334,1.151,13.935-0.208c8.353-2.468,11.835-10.17,13.152-18.171
					c1.698-10.318,2.273-20.462,5.355-30.56c2.439-7.992,5.772-20.882,13.988-25.046c11.156-5.654,13.844,18.193,16.599,24.243
					c2.3,5.052,5.85,9.431,11.344,11.039c8.397,2.458,16.306-2.866,20.324-10.011c5.629-10.007,2.784-22.099,6.912-32.586
					c3.86-9.807,11.522-17.498,21.17-21.632c5.914-2.534,1.919-11.703-4.012-9.162c-8.831,3.783-16.544,10.067-21.789,18.153
					c-5.605,8.639-7.378,17.717-8.209,27.829c-0.425,5.167-0.803,10.889-4.441,14.939c-2.491,2.773-6.318,4.308-9.401,1.647
					c-4.183-3.61-5.191-11.299-6.711-16.295c-1.719-5.651-3.905-11.696-8.682-15.513c-6.308-5.041-14.874-4.192-21.007,0.677
					c-7.973,6.33-11.8,16.85-14.807,26.209c-3.397,10.573-4.906,21.219-6.197,32.196c-0.52,4.424-1.23,10.657-6.077,12.425
					c-5.53,2.017-12.342-0.977-18.156-0.118c-9.115,1.345-17.393,12.219-9.948,20.4c4.006,4.402,10.07,0.255,8.503-5.108
					c-4.634-15.852-27.439-21.654-39.177-10.125C615.99,736.794,622.15,744.68,626.743,740.169L626.743,740.169z"/>
			</g>
		</g>
		<g id="AQUA_x5F_001_x5F_021_x5F_FRAG_x5F_006_00000170258954050521516800000002786856151422331061_">
			<g>
				<path fill="#B6E565" d="M809.324,692.914c4.077-1.25,7.78,2.881,9.196,6.167c1.828,4.243,1.913,9.133,2.137,13.679
					c0.28,5.68,9.38,5.342,9.909-0.181c0.468-4.886,6.257-1.928,7.957,0.367c2.407,3.249,2.873,7.455,3.416,11.338
					c1.036,7.419,2.515,14.516,5.698,21.359c6.166,13.257,16.54,23.795,29.455,30.537c5.71,2.981,9.416-6.316,3.759-9.269
					c-8.062-4.208-14.865-10.457-19.953-17.979c-5.611-8.294-7.808-17.282-9.193-27.046c-1.212-8.549-4.467-18.103-13.432-21.214
					c-7.821-2.714-16.833,2.334-17.639,10.749c3.303-0.06,6.606-0.121,9.909-0.181c-0.381-7.737-1.177-16.118-6.61-22.14
					c-4.903-5.434-11.652-7.481-18.621-5.345C799.174,685.634,803.224,694.784,809.324,692.914L809.324,692.914z"/>
			</g>
		</g>
	</g>
	<g id="AQUA_x5F_001_x5F_022_00000039127728719105431320000004921395689259253126_">
		<g id="AQUA_x5F_001_x5F_022_x5F_FRAG_x5F_001_00000183217259554277085420000016515694199903526062_">
			<g>
				<path fill="#3DB2AF" d="M1094.862,283.759c-14.607,7.195-17.158,23.613-18.247,38.242c-0.339,4.552-0.621,9.178-1.67,13.636
					c-0.424,1.801-2.651,10.482-5.376,9.645c-1.015-0.312-1.796-5.32-2.02-6.131c-0.682-2.464-1.362-4.929-2.043-7.393
					c-1.362-4.929-2.724-9.858-4.086-14.787c-1.692-6.122-11.602-4.689-9.886,1.522c1.618,5.853,3.235,11.706,4.853,17.559
					c1.281,4.635,2.035,10.24,4.664,14.354c5.55,8.685,15.859,4.522,20.105-3.027c5.128-9.118,4.925-20.145,5.861-30.255
					c0.825-8.905,3.029-19.855,11.858-24.204C1104.627,290.087,1100.658,280.905,1094.862,283.759L1094.862,283.759z"/>
			</g>
		</g>
		<g id="AQUA_x5F_001_x5F_022_x5F_FRAG_x5F_002_00000123442897446131059450000003661675110157581490_">
			<g>
				<path fill="#3DB2AF" d="M1113.94,297.853c7.044,8.416,12.725,17.609,17.076,27.684c1.618,3.748,7.855,4.059,9.216-0.127
					c5.08-15.634,10.16-31.267,15.24-46.901c4.82-14.834,9.161-29.937,14.566-44.568c2.076-5.62,5.066-12.319,11.44-13.96
					c7.29-1.876,9.269,3.876,9.026,10.069c-0.641,16.314-2.162,32.644-3.245,48.936c2.963-0.841,5.925-1.681,8.888-2.522
					c-1.251-1.983,2.64-2.891,3.696-2.586c2.392,0.691,3.793,3.451,4.281,5.661c1.378,6.243-2.217,13.213-4.655,18.756
					c-4.905,11.156-10.543,22.297-9.628,34.854c0.748,10.273,6.772,19.731,16.837,22.991c9.761,3.162,19.114-1.16,23.708-10.177
					c2.163-4.246,3.111-8.931,4.463-13.466c1.173-3.938,4.594-12.169,10.034-11.807c5.087,0.338,3.715,9.098,3.495,12.328
					c-0.446,6.542-1.013,13.424,1.582,19.637c3.856,9.232,14.137,15.232,23.581,10.038c9.299-5.115,12.42-17.043,15.784-26.249
					c11.289-30.892,22.578-61.783,33.866-92.675c2.208-6.041-7.058-9.81-9.269-3.759c-10.491,28.707-20.981,57.415-31.472,86.122
					c-2.277,6.23-4.28,12.646-6.969,18.71c-1.635,3.688-4.517,9.703-9.257,9.862c-6.406,0.214-8.21-8.472-8.299-13.283
					c-0.117-6.369,1.539-12.844,0.109-19.163c-2.489-10.994-13.882-14.483-22.739-8.072c-9.375,6.786-9.007,17.267-13.581,26.788
					c-5.879,12.239-19.649,4.117-21.616-6.238c-2.527-13.299,6.13-25.822,10.726-37.645c4.232-10.887,6.331-27.116-7.223-32.483
					c-11.183-4.428-21.701,7.912-15.298,18.059c2.318,3.674,8.615,1.586,8.888-2.522c0.656-9.87,1.313-19.741,1.969-29.611
					c0.575-8.647,2.479-18.312,1.074-26.933c-2.539-15.585-21.095-17.624-31.098-7.585c-5.523,5.543-8.068,12.999-10.438,20.275
					c-3.054,9.378-6.096,18.76-9.144,28.14c-6.198,19.073-12.395,38.146-18.593,57.219c3.072-0.042,6.144-0.084,9.216-0.127
					c-4.667-10.808-10.837-20.847-18.394-29.875C1117.654,286.716,1109.799,292.906,1113.94,297.853L1113.94,297.853z"/>
			</g>
		</g>
		<g id="AQUA_x5F_001_x5F_022_x5F_FRAG_x5F_003_00000138536757488505472160000005419044792911805061_">
			<g>
				<path fill="#3DB2AF" d="M1332.288,334.624c8.815,7.953,13.807,18.856,14.725,30.622c0.389,4.983,7.906,5.581,9.578,1.118
					c4.684-12.504,10.342-24.647,17.188-36.12c4.609-7.724,15.064-24.624,25.843-15.598c2.411,2.019,6.6,0.828,7.642-2.116
					c8.012-22.641,19.67-43.587,34.706-62.315c4.041-5.033-3.967-11.026-7.991-6.014c-15.53,19.344-27.709,41.185-35.984,64.571
					c2.547-0.705,5.095-1.411,7.642-2.116c-12.389-10.375-27.67-0.629-35.318,10.394c-9.653,13.913-17.073,29.745-22.996,45.556
					c3.193,0.373,6.385,0.745,9.578,1.118c-1.126-14.445-7.891-27.433-18.596-37.091
					C1333.515,322.313,1327.544,330.343,1332.288,334.624L1332.288,334.624z"/>
			</g>
		</g>
		<g id="AQUA_x5F_001_x5F_022_x5F_FRAG_x5F_004_00000118383400039925335080000016448465830921288357_">
			<g>
				<path fill="#3DB2AF" d="M1462.623,275.939c-0.497,0.79-0.13-0.89-0.273,0.34c-0.032,0.28,0.526,1.73,0.578,2.182
					c0.233,2-0.29,4.343-0.444,6.353c-0.335,4.379-0.515,8.769-0.54,13.161c-0.048,8.29,0.37,16.582,1.359,24.815
					c1.714,14.254,3.877,31.969,14.736,42.482c9.317,9.02,23.321,10.226,32.819,0.852c9.866-9.737,13.243-25.446,16.016-38.494
					c1.912-8.994,2.734-18.01,3.573-27.146c0.706-7.681,2.743-18.15,12.153-18.92c6.409-0.524,4.876-10.409-1.522-9.886
					c-16.208,1.326-19.863,18.704-20.899,31.885c-1.264,16.076-3.924,33.676-11.26,48.235c-2.814,5.584-7.521,11.522-14.444,11.024
					c-7.897-0.567-13.014-7.933-15.635-14.633c-6.177-15.796-7.272-35.097-6.929-51.877c0.159-7.788,3.517-19.354-1.497-26.195
					c-3.709-5.06-12.263-5.796-15.785-0.193C1451.225,275.346,1459.197,281.391,1462.623,275.939L1462.623,275.939z"/>
			</g>
		</g>
		<g id="AQUA_x5F_001_x5F_022_x5F_FRAG_x5F_005_00000094590566456148998830000002913592960808560567_">
			<g>
				<path fill="#3DB2AF" d="M1562.762,345.207c3.694-6.118,9.316,2.506,10.646,5.955c2.297,5.96,3.357,11.877,6.892,17.324
					c3.507,5.403,11.323-0.841,7.843-6.203c-5.29-8.151-4.466-18.988-12.6-25.546c-6.136-4.948-16.425-4.746-20.772,2.456
					C1551.47,344.661,1559.437,350.714,1562.762,345.207L1562.762,345.207z"/>
			</g>
		</g>
		<g id="AQUA_x5F_001_x5F_022_x5F_FRAG_x5F_006_00000178195820528386864090000004428137200624309151_">
			<g>
				<path fill="#3DB2AF" d="M1599.778,337.366c1.278,8.233,2.822,17.005,8.29,23.627c4.773,5.78,12.017,9.506,19.62,8.21
					c19.185-3.271,20.585-25.983,21.952-41.189c1.859-20.68,4.401-41.298,7.62-61.81c1.56-9.937,2.923-20.056,5.274-29.843
					c1.896-7.89,6.596-18.682,16.279-18.661c6.361,0.013,7.594-9.919,1.16-9.933c-17.495-0.037-25.108,15.851-28.096,30.837
					c-3.648,18.295-6.31,36.846-8.63,55.35c-1.211,9.657-2.272,19.333-3.183,29.023c-0.781,8.301-0.572,17.368-3.349,25.321
					c-2.5,7.159-9.711,14.455-17.523,9.469c-7.161-4.571-8.341-14.28-9.528-21.923
					C1608.678,329.493,1598.787,330.986,1599.778,337.366L1599.778,337.366z"/>
			</g>
		</g>
		<g id="AQUA_x5F_001_x5F_022_x5F_FRAG_x5F_007_00000135658755926459484350000013867050099231547067_">
			<g>
				<path fill="#3DB2AF" d="M1691.651,320.57c8.991,1.893,8.95,14.346,8.902,21.289c3.303-0.06,6.606-0.121,9.909-0.181
					c-0.211-2.552,3.793,0.835,4.055,1.193c1.077,1.468,1.334,3.369,1.603,5.119c0.666,4.329,0.456,8.88,0.597,13.25
					c0.237,7.366-0.452,15.769,2.908,22.589c2.995,6.078,9.316,9.221,15.988,7.959c7.521-1.423,12.333-7.291,16.502-13.219
					c3.702-5.265-4.284-11.286-7.991-6.014c-2.341,3.329-4.956,7.668-9.023,9.063c-5.06,1.735-7.015-2.134-7.719-6.421
					c-1.5-9.146-0.318-18.637-1.289-27.842c-0.749-7.103-4.594-14.953-12.349-16.329c-7.57-1.343-13.782,4.738-13.168,12.176
					c0.457,5.533,9.87,5.492,9.909-0.181c0.093-13.416-2.186-29.119-17.675-32.381
					C1686.516,309.311,1685.396,319.252,1691.651,320.57L1691.651,320.57z"/>
			</g>
		</g>
	</g>
	<g id="AQUA_x5F_001_x5F_023_00000028282690135487585720000002871207741223923884_">
		<g id="AQUA_x5F_001_x5F_023_x5F_FRAG_x5F_001_00000105393042529182438070000007383740391397450140_">
			<g>
				<path fill="#4CD36F" d="M1061.38,485.279c1.136-5.58,9.128-4.143,12.119-1.399c5.185,4.757,5.907,12.756,6.473,19.299
					c0.58,6.697,0.388,15.015,4.478,20.758c3.481,4.888,9.29,6.352,14.891,4.588c6.08-1.916,9.761-6.531,13.945-11.003
					c2.144-2.292,4.719-4.88,8.119-4.59c3.222,0.275,6.006,2.813,8.119,5.065c8.203,8.74,14.775,22.786,29.198,20.063
					c6.303-1.19,4.827-11.085-1.522-9.886c-7.322,1.383-12.242-6.608-15.981-11.636c-3.943-5.304-8.824-10.776-15.326-12.838
					c-6.516-2.067-12.841,0.252-17.674,4.778c-2.738,2.565-12.697,16.262-16.166,8.549c-3.358-7.467-1.643-17.181-3.577-25.088
					c-1.537-6.287-4.373-12.333-9.499-16.483c-9.495-7.689-24.984-3.85-27.531,8.665
					C1050.165,490.425,1060.104,491.549,1061.38,485.279L1061.38,485.279z"/>
			</g>
		</g>
		<g id="AQUA_x5F_001_x5F_023_x5F_FRAG_x5F_002_00000017503880496340176590000007275600280838736318_">
			<g>
				<path fill="#4CD36F" d="M1184.541,530.729c2.072-3.828,8.067-2.751,11.02-0.908c4.501,2.809,7.371,7.821,10.112,12.212
					c3.001,4.808,11.029-0.062,8.502-5.108c-3.077-6.145,0.47-14.529,7.272-16.397c8.268-2.271,15.76,6.538,15.233,14.27
					c-0.352,5.168,5.656,7.219,8.962,3.587c4.938-5.427,12-11.293,17.351-3.298c3.596,5.372,5.477,11.655,10.225,16.255
					c5.33,5.165,13.53,6.849,20.45,3.999c7.9-3.254,11.685-11.102,11.499-19.257c-0.146-6.407-10.031-4.842-9.886,1.522
					c0.2,8.759-10.483,11.853-15.891,5.797c-3.859-4.322-5.509-10.279-8.862-14.979c-3.469-4.862-8.89-8.152-15.033-7.571
					c-7.447,0.705-13.068,6.269-17.844,11.517c2.987,1.196,5.975,2.391,8.962,3.587c0.974-14.292-11.796-28.462-26.74-25.323
					c-12.95,2.72-20.79,18.459-14.859,30.303c2.834-1.703,5.668-3.405,8.503-5.108c-4.563-7.311-10.073-15.107-18.999-17.124
					c-7.819-1.766-15.407,1.174-19.246,8.264C1172.208,532.629,1181.509,536.328,1184.541,530.729L1184.541,530.729z"/>
			</g>
		</g>
		<g id="AQUA_x5F_001_x5F_023_x5F_FRAG_x5F_003_00000093895076819639103130000012049067518776074413_">
			<g>
				<path fill="#4CD36F" d="M1326.667,521.61c-0.788-3.559,1.169-6.838,4.609-8.171c3.421-1.326,7.109,0.051,9.896,2.169
					c7.272,5.529,8.171,15.611,8.7,24.024c0.406,6.46,10.146,4.816,9.886-1.522c-0.179-4.363,5.412-5.372,8.51-4.233
					c4.106,1.509,6.701,5.376,8.388,9.206c3.727,8.458,5.368,18.223,7.032,27.264c3.63,19.726,4.59,39.757,2.013,59.673
					c-0.779,6.022,7.021,7.075,9.601,2.459c1.547-2.767,3.361-6.199,6.089-8.014c1.655-1.101,5.912-2.207,6.485,0.708
					c1.236,6.29,11.132,4.818,9.886-1.522c-1.416-7.204-8.43-11.263-15.552-10.153c-8.027,1.252-12.56,8.752-16.177,15.222
					c3.2,0.82,6.401,1.639,9.601,2.459c3.567-27.572,0.696-55.734-6.65-82.475c-2.847-10.365-7.563-21.624-18.972-24.721
					c-10.497-2.849-20.586,4.746-20.14,15.649c3.295-0.507,6.591-1.015,9.886-1.522c-0.867-13.787-5.201-30.217-20.355-34.408
					c-11.822-3.269-25.497,6.448-22.621,19.43C1318.165,529.377,1328.064,527.917,1326.667,521.61L1326.667,521.61z"/>
			</g>
		</g>
		<g id="AQUA_x5F_001_x5F_023_x5F_FRAG_x5F_004_00000003100697431137749270000009789815279992469649_">
			<g>
				<g>
					<path fill="#4CD36F" d="M1438.204,525.797c8.497-5.036,17.578-8.235,27.376-9.507c6.378-0.828,4.871-10.716-1.522-9.886
						c-10.583,1.374-20.683,4.789-29.866,10.232C1428.728,519.873,1432.663,529.08,1438.204,525.797L1438.204,525.797z"/>
				</g>
			</g>
			<g>
				<g>
					<path fill="#4CD36F" d="M1478.994,484.485c6.231-6.373,15.127-9.008,23.689-6.032c6.067,2.109,9.844-7.154,3.759-9.269
						c-11.675-4.058-24.907-1.485-33.651,7.459C1468.347,481.187,1474.5,489.082,1478.994,484.485L1478.994,484.485z"/>
				</g>
			</g>
		</g>
		<g id="AQUA_x5F_001_x5F_023_x5F_FRAG_x5F_005_00000096043571617842483940000007316041351277674130_">
			<g>
				<path fill="#4CD36F" d="M1526.656,501.775c6.583,18.903,10.955,38.5,13.019,58.413c1.039,10.024,1.507,20.103,1.324,30.18
					c-0.119,6.593-2.118,16.351,4.393,20.742c7.445,5.021,14.314-2.013,18.66-7.568c5.453-6.972,10.236-14.421,14.477-22.187
					c8.563-15.68,14.253-32.763,17.231-50.362c1.074-6.35-8.861-7.492-9.932-1.16c-2.551,15.08-7.339,29.633-14.223,43.296
					c-3.465,6.877-7.505,13.448-12.01,19.691c-2.135,2.958-4.283,6.231-6.957,8.746c-1.978,1.861-1.66,1.314-1.914-0.628
					c-0.243-1.858,0.053-3.835,0.114-5.698c1.078-33.165-4.113-66.156-15.02-97.477
					C1533.702,491.688,1524.547,495.718,1526.656,501.775L1526.656,501.775z"/>
			</g>
		</g>
		<g id="AQUA_x5F_001_x5F_023_x5F_FRAG_x5F_006_00000164489616011508478720000016206973255208524960_">
			<g>
				<path fill="#4CD36F" d="M1608.505,527.553c4.784,4.006,7.731,9.858,7.742,16.153c0.007,3.944,3.125,6.432,6.972,5.161
					c5.635-1.862,9.028,5.641,9.836,9.823c1.069,5.54,0.963,11.278,1.634,16.875c1.297,10.826,3.937,21.504,7.655,31.749
					c7.575,20.872,20.022,39.53,35.967,54.919c4.629,4.468,10.589-3.576,6.014-7.991c-17.793-17.173-30.719-39.565-36.689-63.565
					c-1.427-5.736-2.484-11.561-3.152-17.434c-0.696-6.119-0.526-12.418-2.058-18.414c-2.684-10.504-12.067-18.808-23.218-15.123
					c2.324,1.72,4.648,3.44,6.972,5.161c-0.017-10.042-3.918-18.822-11.66-25.304
					C1609.571,515.419,1603.585,523.434,1608.505,527.553L1608.505,527.553z"/>
			</g>
		</g>
	</g>
	<g id="AQUA_x5F_001_x5F_024_00000105428862764312887460000014838720273937503671_">
		<g id="AQUA_x5F_001_x5F_024_x5F_FRAG_x5F_001_00000102510514137057238590000001266222704539045823_">
			<g>
				<path fill="#B0DAD4" d="M1052.21,743.667c7.169,11.013,14.338,22.026,21.508,33.039c2.43,3.733,8.444,1.53,8.888-2.522
					c1.35-12.324,1.948-25.024,4.18-37.219c0.675-3.69,3.981-12.641,9.317-9.131c3.449,2.269,3.93,8.326,4.262,11.998
					c0.32,3.534,4.089,4.69,6.949,3.82c9.708-2.956,19.496,4.529,19.357,14.627c-0.088,6.372,9.844,7.599,9.933,1.16
					c0.249-18.13-16.004-30.215-33.301-24.948c2.316,1.273,4.633,2.547,6.949,3.82c-0.584-6.45-2.363-13.955-7.729-18.174
					c-5.592-4.396-13.135-3.556-18.424,0.924c-6.331,5.363-7.253,13.945-8.102,21.648c-1.114,10.105-2.215,20.211-3.322,30.316
					c2.963-0.841,5.925-1.681,8.888-2.522c-7.169-11.013-14.338-22.026-21.508-33.039
					C1056.539,732.065,1048.722,738.308,1052.21,743.667L1052.21,743.667z"/>
			</g>
		</g>
		<g id="AQUA_x5F_001_x5F_024_x5F_FRAG_x5F_002_00000017476628538593639200000008343648215669520808_">
			<g>
				<path fill="#B0DAD4" d="M1149.687,785.236c21.073,12.391,47.171,1.048,52.044-23.004c-2.658,1.139-5.316,2.277-7.974,3.416
					c7.802,4.451,16.64,3.427,23.822-1.913c7.869-5.851,11.043-15.715,13.647-24.727c1.772-6.131-7.484-9.937-9.269-3.759
					c-1.723,5.962-3.41,12.347-7.269,17.338c-3.208,4.15-9.691,8.05-14.916,5.069c-3.4-1.939-7.164-0.58-7.974,3.416
					c-3.278,16.181-21.761,24.602-36.097,16.172C1150.204,774.012,1144.145,781.977,1149.687,785.236L1149.687,785.236z"/>
			</g>
		</g>
		<g id="AQUA_x5F_001_x5F_024_x5F_FRAG_x5F_003_00000172435530754846926280000009916410224863860866_">
			<g>
				<path fill="#B0DAD4" d="M1251.028,780.51c0.811,7.052,6.951,11.914,13.84,12.517c7.677,0.672,14.097-4.456,17.717-10.821
					c4.592-8.074,4.086-17.299,6.802-25.934c1.17-3.719,3.201-8.053,6.918-9.799c2.681-1.26,7.337-0.769,8.045,2.7
					c0.966,4.737,7.641,5.833,9.578,1.118c1.347-3.28,2.67-7.077,5.226-9.662c1.95-1.973,9.217-5.159,8.622,0.342
					c-0.585,5.414,7.881,8.005,9.601,2.459c0.834-2.688,3.612-4.739,6.574-3.909c4.325,1.212,4.464,8.324,5.004,11.903
					c1.758,11.665,2.908,23.403,3.539,35.182c0.343,6.413,10.228,4.865,9.886-1.522c-0.477-8.913-1.24-17.803-2.357-26.659
					c-0.926-7.336-1.155-16.602-5.532-22.898c-6.72-9.666-22.883-7.139-26.382,4.145c3.2,0.82,6.401,1.639,9.601,2.459
					c0.943-8.72-6.937-15.558-15.496-14.129c-9.509,1.588-14.24,10.465-17.554,18.531c3.193,0.373,6.385,0.745,9.578,1.118
					c-1.431-7.014-7.374-11.514-14.469-11.823c-7.712-0.336-13.888,4.959-17.389,11.422c-4.396,8.116-3.769,17.447-6.662,25.995
					c-1.239,3.661-3.477,8.028-7.35,9.436c-3.047,1.108-7.047-0.185-7.451-3.693C1260.179,772.597,1250.292,774.112,1251.028,780.51
					L1251.028,780.51z"/>
			</g>
		</g>
		<g id="AQUA_x5F_001_x5F_024_x5F_FRAG_x5F_004_00000025400745336735383800000015641660292510467492_">
			<g>
				<path fill="#B0DAD4" d="M1381.125,706.656c6.225-1.648,10.953,2.479,9.701,8.913c-0.921,4.731,4.77,6.539,8.068,4.501
					c3.523-2.176,8.153,1.31,9.888,4.235c2.841,4.791,2.587,11.046,2.485,16.409c-0.121,6.376,9.811,7.6,9.932,1.16
					c0.177-9.336,0.071-19.918-7.139-26.881c-5.959-5.755-14.285-7.143-21.37-2.766c2.689,1.5,5.379,3.001,8.068,4.501
					c2.413-12.389-8.861-23.213-21.156-19.958C1373.452,698.398,1374.891,708.306,1381.125,706.656L1381.125,706.656z"/>
			</g>
		</g>
		<g id="AQUA_x5F_001_x5F_024_x5F_FRAG_x5F_005_00000174595401267546050900000016241890539113690786_">
			<g>
				<path fill="#B0DAD4" d="M1433.131,771.482c3.969,17.367,23.348,24.545,39.068,18.386c19.495-7.638,27.368-28.457,33.307-46.795
					c1.974-6.097-7.285-9.886-9.27-3.759c-4.566,14.101-9.488,29.865-22.481,38.511c-9.841,6.549-27.54,6.129-30.738-7.866
					C1441.593,763.729,1431.692,765.185,1433.131,771.482L1433.131,771.482z"/>
			</g>
		</g>
		<g id="AQUA_x5F_001_x5F_024_x5F_FRAG_x5F_006_00000110471679953622641050000011772000953509821631_">
			<g>
				<path fill="#B0DAD4" d="M1519.876,762.507c5.009,14.504,8.819,29.328,11.498,44.436c0.92,5.188,7.326,5.306,9.578,1.118
					c4.049-7.53,3.818-15.871,6.059-23.906c1.304-4.674,8.225-15.861,13.738-8.582c2.405,3.175,8.916,1.946,8.888-2.522
					c-0.099-15.451,7.204-29.453,20.052-38.074c5.352-3.591-0.884-11.412-6.203-7.843c-14.743,9.892-23.894,26.984-23.781,44.758
					c2.963-0.841,5.925-1.681,8.888-2.522c-6.347-8.379-18.761-6.833-25.301,0.453c-8.663,9.652-5.776,23.634-11.609,34.48
					c3.193,0.373,6.385,0.745,9.578,1.118c-2.829-15.951-6.935-31.615-12.223-46.926
					C1526.938,752.414,1517.783,756.446,1519.876,762.507L1519.876,762.507z"/>
			</g>
		</g>
		<g id="AQUA_x5F_001_x5F_024_x5F_FRAG_x5F_007_00000097468793187916638170000010966749126196518323_">
			<g>
				<path fill="#B0DAD4" d="M1608.069,755.675c9.559,5.047,11.43,17.888,14.291,27.201c3.141,10.223,8.61,19.143,17.957,24.75
					c17.625,10.573,40.544,5.311,51.899-11.842c3.544-5.354-4.434-11.388-7.991-6.014c-10.523,15.896-33.493,18.272-45.954,3.114
					c-6.253-7.605-7.325-17.792-10.573-26.786c-3.016-8.352-7.907-15.489-15.87-19.693
					C1606.133,743.399,1602.429,752.697,1608.069,755.675L1608.069,755.675z"/>
			</g>
		</g>
		<g id="AQUA_x5F_001_x5F_024_x5F_FRAG_x5F_008_00000113324060629449441080000005916984438399369097_">
			<g>
				<path fill="#B0DAD4" d="M1708.51,772.047c1.536-1.905,3.894,1.669,4.255,2.734c0.972,2.868,0.42,6.13,0.085,9.062
					c-0.574,5.038,5.888,7.389,8.962,3.587c2.517-3.112,7.166-2.6,10.357-0.773c4.382,2.509,5.926,7.888,6.454,12.586
					c1.325,11.775-2.985,23.337-0.573,35.151c0.729,3.57,5.02,5.665,8.045,3.161c8.582-7.105,15.297,25.492,16.57,29.776
					c1.828,6.151,10.977,2.096,9.162-4.012c-1.627-5.474-3.251-10.948-4.881-16.421c-1.418-4.761-2.792-9.612-5.858-13.621
					c-4.98-6.511-14.527-9.087-21.196-3.565c2.682,1.054,5.363,2.107,8.045,3.161c-3.216-15.75,5.541-32.763-3.476-47.557
					c-6.404-10.508-22.277-14.242-30.64-3.899c2.987,1.196,5.975,2.391,8.962,3.587c0.821-7.204,1-15.821-5.481-20.614
					c-5.316-3.931-12.57-3.581-16.783,1.643C1696.467,771.056,1704.476,777.049,1708.51,772.047L1708.51,772.047z"/>
			</g>
		</g>
	</g>
</g>
</svg>
