<?xml version="1.0" encoding="UTF-8"?><svg xmlns="http://www.w3.org/2000/svg" viewBox="0 0 1920 1080"><g id="GRILLE"><g><line x1="935.649" y1="161.658" x2="36.882" y2="161.658" fill="none" stroke="#f86806" stroke-linecap="square" stroke-linejoin="round" stroke-width=".25"/><line x1="935.649" y1="204.178" x2="36.882" y2="204.178" fill="none" stroke="#f86806" stroke-linecap="square" stroke-linejoin="round" stroke-width=".25"/><line x1="935.649" y1="246.698" x2="36.882" y2="246.698" fill="none" stroke="#f86806" stroke-linecap="square" stroke-linejoin="round" stroke-width=".25"/><line x1="935.649" y1="289.218" x2="36.882" y2="289.218" fill="none" stroke="#f86806" stroke-linecap="square" stroke-linejoin="round" stroke-width=".25"/><line x1="935.649" y1="331.738" x2="36.882" y2="331.738" fill="none" stroke="#f86806" stroke-linecap="square" stroke-linejoin="round" stroke-width=".25"/><line x1="935.649" y1="374.259" x2="36.882" y2="374.259" fill="none" stroke="#f86806" stroke-linecap="square" stroke-linejoin="round" stroke-width=".25"/><line x1="935.649" y1="416.779" x2="36.882" y2="416.779" fill="none" stroke="#f86806" stroke-linecap="square" stroke-linejoin="round" stroke-width=".25"/><line x1="935.649" y1="459.299" x2="36.882" y2="459.299" fill="none" stroke="#f86806" stroke-linecap="square" stroke-linejoin="round" stroke-width=".25"/><line x1="935.649" y1="502.24" x2="36.882" y2="502.24" fill="none" stroke="#f86806" stroke-linecap="square" stroke-linejoin="round" stroke-width=".25"/><line x1="935.649" y1="545.181" x2="36.882" y2="545.181" fill="none" stroke="#f86806" stroke-linecap="square" stroke-linejoin="round" stroke-width=".25"/><line x1="935.649" y1="588.122" x2="36.882" y2="588.122" fill="none" stroke="#f86806" stroke-linecap="square" stroke-linejoin="round" stroke-width=".25"/><line x1="935.649" y1="631.063" x2="36.882" y2="631.063" fill="none" stroke="#f86806" stroke-linecap="square" stroke-linejoin="round" stroke-width=".25"/><line x1="935.649" y1="674.004" x2="36.882" y2="674.004" fill="none" stroke="#f86806" stroke-linecap="square" stroke-linejoin="round" stroke-width=".25"/><line x1="935.649" y1="716.946" x2="36.882" y2="716.946" fill="none" stroke="#f86806" stroke-linecap="square" stroke-linejoin="round" stroke-width=".25"/><line x1="935.649" y1="759.887" x2="36.882" y2="759.887" fill="none" stroke="#f86806" stroke-linecap="square" stroke-linejoin="round" stroke-width=".25"/><line x1="935.649" y1="802.828" x2="36.882" y2="802.828" fill="none" stroke="#f86806" stroke-linecap="square" stroke-linejoin="round" stroke-width=".25"/><line x1="935.649" y1="845.769" x2="36.882" y2="845.769" fill="none" stroke="#f86806" stroke-linecap="square" stroke-linejoin="round" stroke-width=".25"/><line x1="935.649" y1="888.71" x2="36.882" y2="888.71" fill="none" stroke="#f86806" stroke-linecap="square" stroke-linejoin="round" stroke-width=".25"/><line x1="935.649" y1="931.651" x2="36.882" y2="931.651" fill="none" stroke="#f86806" stroke-linecap="square" stroke-linejoin="round" stroke-width=".25"/></g><g><line x1="1884.873" y1="161.658" x2="986.106" y2="161.658" fill="none" stroke="#f86806" stroke-linecap="square" stroke-linejoin="round" stroke-width=".25"/><line x1="1884.873" y1="204.178" x2="986.106" y2="204.178" fill="none" stroke="#f86806" stroke-linecap="square" stroke-linejoin="round" stroke-width=".25"/><line x1="1884.873" y1="246.698" x2="986.106" y2="246.698" fill="none" stroke="#f86806" stroke-linecap="square" stroke-linejoin="round" stroke-width=".25"/><line x1="1884.873" y1="289.218" x2="986.106" y2="289.218" fill="none" stroke="#f86806" stroke-linecap="square" stroke-linejoin="round" stroke-width=".25"/><line x1="1884.873" y1="331.738" x2="986.106" y2="331.738" fill="none" stroke="#f86806" stroke-linecap="square" stroke-linejoin="round" stroke-width=".25"/><line x1="1884.873" y1="374.259" x2="986.106" y2="374.259" fill="none" stroke="#f86806" stroke-linecap="square" stroke-linejoin="round" stroke-width=".25"/><line x1="1884.873" y1="416.779" x2="986.106" y2="416.779" fill="none" stroke="#f86806" stroke-linecap="square" stroke-linejoin="round" stroke-width=".25"/><line x1="1884.873" y1="459.299" x2="986.106" y2="459.299" fill="none" stroke="#f86806" stroke-linecap="square" stroke-linejoin="round" stroke-width=".25"/><line x1="1884.873" y1="502.24" x2="986.106" y2="502.24" fill="none" stroke="#f86806" stroke-linecap="square" stroke-linejoin="round" stroke-width=".25"/><line x1="1884.873" y1="545.181" x2="986.106" y2="545.181" fill="none" stroke="#f86806" stroke-linecap="square" stroke-linejoin="round" stroke-width=".25"/><line x1="1884.873" y1="588.122" x2="986.106" y2="588.122" fill="none" stroke="#f86806" stroke-linecap="square" stroke-linejoin="round" stroke-width=".25"/><line x1="1884.873" y1="631.063" x2="986.106" y2="631.063" fill="none" stroke="#f86806" stroke-linecap="square" stroke-linejoin="round" stroke-width=".25"/><line x1="1884.873" y1="674.004" x2="986.106" y2="674.004" fill="none" stroke="#f86806" stroke-linecap="square" stroke-linejoin="round" stroke-width=".25"/><line x1="1884.873" y1="716.946" x2="986.106" y2="716.946" fill="none" stroke="#f86806" stroke-linecap="square" stroke-linejoin="round" stroke-width=".25"/><line x1="1884.873" y1="759.887" x2="986.106" y2="759.887" fill="none" stroke="#f86806" stroke-linecap="square" stroke-linejoin="round" stroke-width=".25"/><line x1="1884.873" y1="802.828" x2="986.106" y2="802.828" fill="none" stroke="#f86806" stroke-linecap="square" stroke-linejoin="round" stroke-width=".25"/><line x1="1884.873" y1="845.769" x2="986.106" y2="845.769" fill="none" stroke="#f86806" stroke-linecap="square" stroke-linejoin="round" stroke-width=".25"/><line x1="1884.873" y1="888.71" x2="986.106" y2="888.71" fill="none" stroke="#f86806" stroke-linecap="square" stroke-linejoin="round" stroke-width=".25"/><line x1="1884.873" y1="931.651" x2="986.106" y2="931.651" fill="none" stroke="#f86806" stroke-linecap="square" stroke-linejoin="round" stroke-width=".25"/></g></g><g id="FRAGMENTS"><g id="AQUA_003_019_FRAG_001"><path d="M101.411,322.112h14.613c2.7,0,5.207-1.48,5.546-4.386,.285-2.443-1.668-5.546-4.386-5.546h-14.613c-2.7,0-5.207,1.48-5.546,4.386-.285,2.443,1.668,5.546,4.386,5.546h0Z" fill="#c6e1ca"/></g><g id="AQUA_003_019_FRAG_002"><path d="M131.411,322.112h14.613c2.7,0,5.207-1.48,5.546-4.386,.285-2.443-1.668-5.546-4.386-5.546h-14.613c-2.7,0-5.207,1.48-5.546,4.386-.285,2.443,1.668,5.546,4.386,5.546h0Z" fill="#c6e1ca"/></g><g id="AQUA_003_019_FRAG_003"><path d="M161.411,322.112h14.613c2.7,0,5.207-1.48,5.546-4.386,.285-2.443-1.668-5.546-4.386-5.546h-14.613c-2.7,0-5.207,1.48-5.546,4.386-.285,2.443,1.668,5.546,4.386,5.546h0Z" fill="#c6e1ca"/></g><g id="AQUA_003_019_FRAG_004"><path d="M191.411,322.112h14.613c2.7,0,5.207-1.48,5.546-4.386,.285-2.443-1.668-5.546-4.386-5.546h-14.613c-2.7,0-5.207,1.48-5.546,4.386-.285,2.443,1.668,5.546,4.386,5.546h0Z" fill="#c6e1ca"/></g><g id="AQUA_003_019_FRAG_005"><path d="M221.411,322.112h14.613c2.7,0,5.207-1.48,5.546-4.386,.285-2.443-1.668-5.546-4.386-5.546h-14.613c-2.7,0-5.207,1.48-5.546,4.386-.285,2.443,1.668,5.546,4.386,5.546h0Z" fill="#c6e1ca"/></g><g id="AQUA_003_019_FRAG_006"><path d="M251.411,322.112h14.613c2.7,0,5.207-1.48,5.546-4.386,.285-2.443-1.668-5.546-4.386-5.546h-14.613c-2.7,0-5.207,1.48-5.546,4.386-.285,2.443,1.668,5.546,4.386,5.546h0Z" fill="#c6e1ca"/></g><g id="AQUA_003_019_FRAG_007"><path d="M281.411,322.112h14.613c2.7,0,5.207-1.48,5.546-4.386,.285-2.443-1.668-5.546-4.386-5.546h-14.613c-2.7,0-5.207,1.48-5.546,4.386-.285,2.443,1.668,5.546,4.386,5.546h0Z" fill="#c6e1ca"/></g><g id="AQUA_003_019_FRAG_008"><path d="M311.411,322.112h14.613c2.7,0,5.207-1.48,5.546-4.386,.285-2.443-1.668-5.546-4.386-5.546h-14.613c-2.7,0-5.207,1.48-5.546,4.386-.285,2.443,1.668,5.546,4.386,5.546h0Z" fill="#c6e1ca"/></g><g id="AQUA_003_019_FRAG_009"><path d="M341.411,322.112h14.613c2.7,0,5.207-1.48,5.546-4.386,.285-2.443-1.668-5.546-4.386-5.546h-14.613c-2.7,0-5.207,1.48-5.546,4.386-.285,2.443,1.668,5.546,4.386,5.546h0Z" fill="#c6e1ca"/></g><g id="AQUA_003_019_FRAG_010"><path d="M371.411,322.112h14.613c2.7,0,5.207-1.48,5.546-4.386,.285-2.443-1.668-5.546-4.386-5.546h-14.613c-2.7,0-5.207,1.48-5.546,4.386-.285,2.443,1.668,5.546,4.386,5.546h0Z" fill="#c6e1ca"/></g><g id="AQUA_003_019_FRAG_011"><path d="M401.411,322.112h14.613c2.7,0,5.207-1.48,5.546-4.386,.285-2.443-1.668-5.546-4.386-5.546h-14.613c-2.7,0-5.207,1.48-5.546,4.386-.285,2.443,1.668,5.546,4.386,5.546h0Z" fill="#c6e1ca"/></g><g id="AQUA_003_019_FRAG_012"><path d="M431.411,322.112h14.613c2.7,0,5.207-1.48,5.546-4.386,.285-2.443-1.668-5.546-4.386-5.546h-14.613c-2.7,0-5.207,1.48-5.546,4.386-.285,2.443,1.668,5.546,4.386,5.546h0Z" fill="#c6e1ca"/></g><g id="AQUA_003_019_FRAG_013"><path d="M461.411,322.112h14.613c2.7,0,5.207-1.48,5.546-4.386,.285-2.443-1.668-5.546-4.386-5.546h-14.613c-2.7,0-5.207,1.48-5.546,4.386-.285,2.443,1.668,5.546,4.386,5.546h0Z" fill="#c6e1ca"/></g><g id="AQUA_003_019_FRAG_014"><path d="M491.411,322.112h14.613c2.7,0,5.207-1.48,5.546-4.386,.285-2.443-1.668-5.546-4.386-5.546h-14.613c-2.7,0-5.207,1.48-5.546,4.386-.285,2.443,1.668,5.546,4.386,5.546h0Z" fill="#c6e1ca"/></g><g id="AQUA_003_019_FRAG_015"><path d="M521.411,322.112h14.613c2.7,0,5.207-1.48,5.546-4.386,.285-2.443-1.668-5.546-4.386-5.546h-14.613c-2.7,0-5.207,1.48-5.546,4.386-.285,2.443,1.668,5.546,4.386,5.546h0Z" fill="#c6e1ca"/></g><g id="AQUA_003_019_FRAG_016"><path d="M551.411,322.112h14.613c2.7,0,5.207-1.48,5.546-4.386,.285-2.443-1.668-5.546-4.386-5.546h-14.613c-2.7,0-5.207,1.48-5.546,4.386-.285,2.443,1.668,5.546,4.386,5.546h0Z" fill="#c6e1ca"/></g><g id="AQUA_003_019_FRAG_017"><path d="M581.411,322.112h14.613c2.7,0,5.207-1.48,5.546-4.386,.285-2.443-1.668-5.546-4.386-5.546h-14.613c-2.7,0-5.207,1.48-5.546,4.386-.285,2.443,1.668,5.546,4.386,5.546h0Z" fill="#c6e1ca"/></g><g id="AQUA_003_019_FRAG_018"><path d="M611.411,322.112h14.613c2.7,0,5.207-1.48,5.546-4.386,.285-2.443-1.668-5.546-4.386-5.546h-14.613c-2.7,0-5.207,1.48-5.546,4.386-.285,2.443,1.668,5.546,4.386,5.546h0Z" fill="#c6e1ca"/></g><g id="AQUA_003_019_FRAG_019"><path d="M641.411,322.112h14.613c2.7,0,5.207-1.48,5.546-4.386,.285-2.443-1.668-5.546-4.386-5.546h-14.613c-2.7,0-5.207,1.48-5.546,4.386-.285,2.443,1.668,5.546,4.386,5.546h0Z" fill="#c6e1ca"/></g><g id="AQUA_003_019_FRAG_020"><path d="M671.411,322.112h14.613c2.7,0,5.207-1.48,5.546-4.386,.285-2.443-1.668-5.546-4.386-5.546h-14.613c-2.7,0-5.207,1.48-5.546,4.386-.285,2.443,1.668,5.546,4.386,5.546h0Z" fill="#c6e1ca"/></g><g id="AQUA_003_019_FRAG_021"><path d="M701.411,322.112h14.613c2.7,0,5.207-1.48,5.546-4.386,.285-2.443-1.668-5.546-4.386-5.546h-14.613c-2.7,0-5.207,1.48-5.546,4.386-.285,2.443,1.668,5.546,4.386,5.546h0Z" fill="#c6e1ca"/></g><g id="AQUA_003_019_FRAG_022"><path d="M731.411,322.112h14.613c2.7,0,5.207-1.48,5.546-4.386,.285-2.443-1.668-5.546-4.386-5.546h-14.613c-2.7,0-5.207,1.48-5.546,4.386-.285,2.443,1.668,5.546,4.386,5.546h0Z" fill="#c6e1ca"/></g><g id="AQUA_003_019_FRAG_023"><path d="M761.411,322.112h14.613c2.7,0,5.207-1.48,5.546-4.386,.285-2.443-1.668-5.546-4.386-5.546h-14.613c-2.7,0-5.207,1.48-5.546,4.386-.285,2.443,1.668,5.546,4.386,5.546h0Z" fill="#c6e1ca"/></g><g id="AQUA_003_019_FRAG_024"><path d="M791.411,322.112h14.613c2.7,0,5.207-1.48,5.546-4.386,.285-2.443-1.668-5.546-4.386-5.546h-14.613c-2.7,0-5.207,1.48-5.546,4.386-.285,2.443,1.668,5.546,4.386,5.546h0Z" fill="#c6e1ca"/></g><g id="AQUA_003_019_FRAG_025"><path d="M821.411,322.112h14.613c2.7,0,5.207-1.48,5.546-4.386,.285-2.443-1.668-5.546-4.386-5.546h-14.613c-2.7,0-5.207,1.48-5.546,4.386-.285,2.443,1.668,5.546,4.386,5.546h0Z" fill="#c6e1ca"/></g><g id="AQUA_003_019_FRAG_026"><path d="M851.411,322.112h14.613c2.7,0,5.207-1.48,5.546-4.386,.285-2.443-1.668-5.546-4.386-5.546h-14.613c-2.7,0-5.207,1.48-5.546,4.386-.285,2.443,1.668,5.546,4.386,5.546h0Z" fill="#c6e1ca"/></g><g id="AQUA_003_020_FRAG_001"><path d="M90.814,544.906c19.176,1.063,37.95-9.83,47.341-26.469,4.915-8.708,5.218-17.899,7.367-27.395,1.199-5.298,3.569-10.477,9.311-11.957,5.71-1.473,10.519,1.75,12.987,6.735,2.853,5.764,11.383,.536,8.54-5.205-4.947-9.992-16.862-14.579-27.164-10.109-10.974,4.762-13.224,16.109-14.789,26.756-1.577,10.727-5.623,19.9-13.867,27.197s-18.928,11.058-29.911,10.449c-6.428-.356-6.213,9.644,.184,9.998h0Z" fill="#52b378"/></g><g id="AQUA_003_020_FRAG_002"><path d="M191.065,524.971c5.052-4.048,12.927-3.7,15.343,3.261,2.166,6.242-1.449,12.862,1.495,19.221,6.145,13.275,22.662,11.254,32.929,4.701,5.416-3.457,.24-12.016-5.205-8.54-4.987,3.183-15.935,7.351-18.903-.885-1.115-3.094,.066-6.85,.18-10.028s-.363-6.269-1.679-9.19c-5.09-11.294-19.682-14.837-29.365-7.08-4.952,3.967,.181,12.565,5.205,8.54h0Z" fill="#52b378"/></g><g id="AQUA_003_020_FRAG_003"><path d="M271.311,560.505c14.934,2.891,27.934-6.315,31.66-20.717,1.982-7.662,2.456-16.461,11.064-19.69,7.291-2.736,14.334,1.514,17.404,8.196,2.681,5.834,11.204,.592,8.54-5.205-6.84-14.883-26.902-18.319-38.333-6.564-6.04,6.211-6.41,14.462-8.774,22.308-2.491,8.266-10.413,13.659-19.08,11.982-6.3-1.22-8.805,8.466-2.481,9.69h0Z" fill="#52b378"/></g><g id="AQUA_003_020_FRAG_004"><path d="M344.131,561.454c4.357,9.079,13.885,14.559,23.772,15.185,11.43,.723,18.816-5.777,25.978-13.768,4.293-4.79,8.476-7.56,14.945-8.542,6.236-.946,12.521-1.064,18.389-3.634,8.886-3.892,21.283-20.436,31.792-12.871,5.225,3.761,10.055-5.006,4.887-8.726-9.811-7.063-21.694-1.196-29.999,5.241-4.845,3.755-9.392,7.436-15.538,8.713-5.93,1.233-12.129,1.013-17.915,2.982-5.094,1.733-9.175,4.912-12.794,8.829-3.521,3.81-6.761,8.588-11.712,10.646-8.81,3.663-19.257-.909-23.264-9.26-2.781-5.795-11.307-.561-8.54,5.205h0Z" fill="#52b378"/></g><g id="AQUA_003_020_FRAG_005"><path d="M477.967,550.776l17.447,15.129c5.15,4.466,10.328,10.377,16.272,13.758,5.913,3.363,10.71-.279,15.337-3.876,6.171-4.796,12.341-9.593,18.512-14.389,5.022-3.903-.117-12.495-5.205-8.54-4.885,3.797-9.77,7.594-14.655,11.391-2.3,1.787-4.53,3.764-6.942,5.396-1.139,.771-1.466,1.209-2.726,.849-1-.285-2.789-2.369-3.475-2.964-9.208-7.985-18.417-15.969-27.625-23.954-4.851-4.206-11.814,2.973-6.94,7.2h0Z" fill="#52b378"/></g><g id="AQUA_003_020_FRAG_006"><path d="M565.245,551.511c8.533-4.13,17.636-6.051,27.093-6.038,6.439,.009,6.254-9.989-.184-9.998-11.276-.016-21.985,2.592-32.115,7.496-5.786,2.801-.554,11.328,5.205,8.54h0Z" fill="#52b378"/></g><g id="AQUA_003_020_FRAG_007"><path d="M616.854,546.363c10.147,.834,20.223,3.449,29.433,7.812,9.147,4.333,16.287,10.74,24.55,16.364,7.942,5.407,17.404,6.407,26.351,2.857,9.545-3.788,16.5-11.304,23.11-18.879,4.222-4.839-2.958-11.801-7.2-6.94-6.082,6.971-12.622,14.812-21.928,17.304-10.236,2.741-16.831-4.401-24.366-9.996-14.655-10.882-31.991-17.029-50.133-18.52-6.408-.527-6.179,9.475,.184,9.998h0Z" fill="#52b378"/></g><g id="AQUA_003_020_FRAG_008"><path d="M739.801,538.701c12.236-2.238,21.006,9.914,27.051,18.559,6.12,8.752,12.526,17.637,22.508,22.231,5.82,2.678,10.738-6.034,4.887-8.726-12.003-5.524-17.63-18.123-25.672-27.847-7.918-9.573-18.898-16.135-31.61-13.81-6.315,1.155-3.45,10.742,2.835,9.592h0Z" fill="#52b378"/></g><g id="AQUA_003_020_FRAG_009"><path d="M812.259,587.31c13.701,3.314,27.71,4.949,41.805,4.884,6.438-.03,6.257-10.028-.184-9.998-13.241,.062-26.27-1.462-39.141-4.575-6.26-1.514-8.741,8.176-2.481,9.69h0Z" fill="#52b378"/></g><g id="AQUA_003_021_FRAG_001"><path d="M90.596,828.466c12.808,4.186,27.63,.318,36.891-9.479,5.477-5.794,7.715-13.111,10.283-20.475,2.236-6.413,6.952-16.546,15.45-13.904,6.159,1.915,8.606-7.785,2.481-9.69-6.828-2.123-13.624,.467-18.678,5.219-5.946,5.59-7.958,13.411-10.601,20.833-5.001,14.047-18.482,22.664-33.346,17.806-6.13-2.003-8.57,7.7-2.481,9.69h0Z" fill="#b6e565"/></g><g id="AQUA_003_021_FRAG_002"><path d="M174.161,789.462c6.305-3.299,10.749,6.151,12.04,10.572,1.919,6.575,2.733,13.422,6.552,19.291,7.976,12.256,21.981,11.126,31.594,1.433,4.54-4.578-2.664-11.514-7.2-6.94-5.261,5.305-11.881,6.829-16.237-.291-3.429-5.605-3.712-12.53-5.847-18.634-3.749-10.719-14.568-20.009-26.106-13.971-5.703,2.984-.486,11.518,5.205,8.54h0Z" fill="#b6e565"/></g><g id="AQUA_003_021_FRAG_003"><path d="M237.801,816.412c11.502,3.443,23.676-1.668,31.382-10.445,8.905-10.142,11.558-23.813,13.793-36.702,1.094-6.309-8.59-8.825-9.69-2.481-1.76,10.147-3.459,20.978-9.346,29.687-5.163,7.639-14.399,13.022-23.659,10.25-6.18-1.85-8.632,7.848-2.481,9.69h0Z" fill="#b6e565"/></g><g id="AQUA_003_021_FRAG_004"><path d="M310.84,801.082c7.189-4.904,16.638-11.758,25.844-8.308,7.541,2.826,9.51,12.731,17.138,16.053,8.75,3.81,18.602-1.519,27.673-1.313,9.331,.211,18.459,3.645,25.685,9.53,4.961,4.041,11.938-3.129,6.94-7.2-7.992-6.509-17.333-10.716-27.605-11.933-4.822-.571-9.573-.482-14.367,.296-5.419,.879-12.083,4.018-16.731-.206-3.151-2.864-4.922-7.027-8.008-9.996-3.434-3.304-7.806-5.215-12.503-5.812-10.991-1.396-20.556,4.404-29.27,10.349-5.295,3.612-.132,12.181,5.205,8.54h0Z" fill="#b6e565"/></g><g id="AQUA_003_021_FRAG_005"><path d="M437.177,808.723c7.646-15.234,25.047-24.288,41.931-21.07,6.302,1.201,8.809-8.484,2.481-9.69-21.151-4.031-43.415,6.501-53.137,25.873-2.884,5.747,5.835,10.648,8.726,4.887h0Z" fill="#b6e565"/></g><g id="AQUA_003_021_FRAG_006"><path d="M498.599,796.32c2.959,10.956,8.113,23.279,21.102,24.3,5.231,.411,10.319-1.694,13.328-6.068,2.774-4.033,3.134-8.812,3.893-13.497,.301-1.855,.488-4.485,1.855-5.944,1.664-1.777,5.177-1.84,7.361-2.739,5.435-2.236,7.621-7.027,7.702-12.665,.085-5.937-.408-11.049,2.027-16.688,2.562-5.932,6.88-10.594,12.449-13.806s.379-11.761-5.205-8.54c-8.679,5.006-15.076,13.128-17.973,22.724-1.421,4.707-1.633,9.487-1.383,14.362,.167,3.257,.263,4.853-3.062,5.881-2.201,.68-4.433,1.127-6.437,2.345-7.679,4.668-5.977,13.532-8.483,20.828-1.694,4.931-6.95,4.659-10.562,1.672-4.292-3.55-5.638-9.88-7.021-15-1.677-6.209-11.273-3.389-9.592,2.835h0Z" fill="#b6e565"/></g><g id="AQUA_003_021_FRAG_007"><path d="M579.566,814.385c19.64,2.302,28.352-15.905,33.113-31.815,1.849-6.18-7.849-8.632-9.69-2.481-2.829,9.452-7.972,26.126-20.942,24.606-6.308-.739-8.853,8.943-2.481,9.69h0Z" fill="#b6e565"/></g><g id="AQUA_003_021_FRAG_008"><path d="M642.298,797.112c9.448-3.262,16.629,6.333,22.777,11.898,5.463,4.945,11.72,8.615,19.005,10.078,13.95,2.8,28.882-1.565,38.5-12.185,4.318-4.768-2.869-11.722-7.2-6.94-8.965,9.899-24.441,13.073-36.444,6.835-7.028-3.652-11.693-10.415-18.05-15.001-6.223-4.488-13.94-6.862-21.424-4.278-6.057,2.092-3.272,11.701,2.835,9.592h0Z" fill="#b6e565"/></g><g id="AQUA_003_021_FRAG_009"><path d="M738.019,786.254c6.907-8.787,19.837-9.509,26.467,.148,5.784,8.425,8.029,19.031,19.328,21.775,6.259,1.52,8.739-8.17,2.481-9.69-6.329-1.537-8.524-8.723-11.26-13.852-2.931-5.496-6.976-10.181-12.716-12.845-10.991-5.102-24.002-2.014-31.5,7.525-3.945,5.019,3.219,12.004,7.2,6.94h0Z" fill="#b6e565"/></g><g id="AQUA_003_021_FRAG_010"><path d="M805.625,809.628c16.776,1.85,32.765,8.776,45.713,19.564,4.922,4.101,11.895-3.072,6.94-7.2-15.184-12.651-33.218-20.199-52.837-22.363-6.378-.703-6.134,9.301,.184,9.998h0Z" fill="#b6e565"/></g><g id="AQUA_003_022_FRAG_001"><path d="M1015.481,325.79c3.94-4.284,10.296-2.095,15.115-.817,5.248,1.391,10.439,2.282,15.792,.896,9.138-2.365,16.354-10.151,18.181-19.349,1.126-5.668-7.592-7.92-8.721-2.233-.92,4.631-3.404,8.453-7.437,10.975-4.731,2.959-9.493,2.566-14.706,1.227-8.489-2.179-18-4.236-24.704,3.054-3.921,4.263,2.55,10.519,6.48,6.246h0Z" fill="#3db2af"/></g><g id="AQUA_003_022_FRAG_002"><path d="M1083.293,326.102c10.694,2.301,20.343-4.084,25.776-13.041,3.058-5.042,4.672-10.942,6.22-16.578,.863-3.143,1.639-6.349,2.774-9.41,.383-1.031,.775-2.902,1.705-3.57,1.833-1.315,2.846,1.57,3.389,3.135,3.589,10.347-.103,22.707,9.327,30.765,6.222,5.317,17.354,4.492,20.979-3.445,2.395-5.243-5.445-9.671-7.853-4.399-1.726,3.778-6.44,2.29-8.516-.362-3.236-4.135-3.173-9.997-3.602-14.975-.671-7.784-3.212-21.779-14.002-20.492-9.563,1.141-11.364,14.981-13.397,22.24-2.546,9.089-8.336,24.043-20.568,21.41-5.657-1.217-7.902,7.501-2.233,8.721h0Z" fill="#3db2af"/></g><g id="AQUA_003_022_FRAG_003"><path d="M1173.944,288.134c.458-5.946,7.815-7.852,11.254-3.085,2.12,2.938,5.721,2.666,7.77-.143,2.485-3.407,5.217-7.073,9.076-8.996,3.732-1.86,9.954-1.825,10.046,3.691,.097,5.791,9.095,5.634,8.998-.166-.14-8.384-7.482-14.326-15.693-13.699-9.208,.703-15.22,7.831-20.282,14.771l7.77-.143c-8.849-12.263-26.784-7.06-27.939,7.935-.444,5.771,8.557,5.568,8.998-.166h0Z" fill="#3db2af"/></g><g id="AQUA_003_022_FRAG_004"><path d="M1235.25,319.131c15.705-3.616,29.967-10.808,42.472-20.925,4.498-3.639-2.028-9.848-6.48-6.246-11.27,9.118-24.447,15.292-38.544,18.538-5.641,1.299-3.085,9.931,2.552,8.633h0Z" fill="#3db2af"/></g><g id="AQUA_003_022_FRAG_005"><path d="M1294.463,285.882c3.238-2.698,12.161-16.184,17.375-11.32,2.193,2.046,1.41,6.824,1.306,9.479-.156,3.95-.221,7.864,.85,11.712,1.712,6.154,6.612,11.939,13.288,12.652,6.245,.667,12.103-3.282,13.432-9.468,1.215-5.657-7.503-7.902-8.721-2.233-1.113,5.18-6.697,2.035-8.359-.889-1.808-3.182-1.687-7.058-1.563-10.589,.202-5.746,.604-12.098-3.582-16.666-4.078-4.45-10.349-4.69-15.604-2.304-6.31,2.865-9.734,9.074-14.902,13.38-4.449,3.708,2.07,9.921,6.48,6.246h0Z" fill="#3db2af"/></g><g id="AQUA_003_022_FRAG_006"><path d="M1351.238,303.398c12.944,12.842,34.709,6.614,38.79-11.196,1.294-5.646-7.426-7.884-8.721-2.233-2.579,11.255-15.594,15.113-23.823,6.948-4.119-4.087-10.362,2.397-6.246,6.48h0Z" fill="#3db2af"/></g><g id="AQUA_003_022_FRAG_007"><path d="M1397.657,268.482c2.861-6.381,10.228-9.332,16.192-4.695,4.532,3.524,10.821-2.922,6.246-6.48-10.123-7.872-24.83-5.406-30.291,6.776-2.356,5.255,5.483,9.686,7.853,4.399h0Z" fill="#3db2af"/></g><g id="AQUA_003_022_FRAG_008"><path d="M1421.995,295.953c.686,7.157,2.337,15.125,9.748,18.138,6.144,2.497,12.038-.801,14.977-6.327,3.682-6.924,4.161-15.78,5.604-23.34,.682-3.575,4.208-22.355,10.923-15.286,3.998,4.208,10.23-2.286,6.246-6.48-3.924-4.131-10.084-4.595-15.048-2.036-5.589,2.881-8.144,8.856-9.49,14.693-1.761,7.641-2.73,15.456-4.467,23.101-.458,2.016-1.396,6.846-3.903,7.487-4.645,1.19-5.343-7.531-5.59-10.115-.549-5.728-9.552-5.611-8.998,.166h0Z" fill="#3db2af"/></g><g id="AQUA_003_022_FRAG_009"><path d="M1488.639,308.622c-.196-6.278,.404-12.416,2.044-18.491,.864-3.198,3.524-14.593,8.037-14.834,4.351-.232,6.047,10.776,6.598,13.491,1.355,6.689,1.614,13.484,1.16,20.28-.385,5.779,8.615,5.58,8.998-.166,.644-9.66-.272-19.475-3.051-28.772-1.92-6.424-6.145-14.024-13.871-13.832s-11.66,8.007-14.122,14.225c-3.565,9.006-5.094,18.598-4.792,28.265,.18,5.785,9.179,5.635,8.998-.166h0Z" fill="#3db2af"/></g><g id="AQUA_003_022_FRAG_010"><path d="M1535.864,314.178c2.594-4.768,7.664-6.893,12.885-5.452,1.988,.549,3.999-.483,5.043-2.161,2.703-4.344,7.043-7.409,12.165-8.138,5.66-.805,5.564-9.814-.166-8.998-8.454,1.203-15.312,5.44-19.853,12.738l5.043-2.161c-9.025-2.492-18.501,1.558-22.971,9.774-2.772,5.095,5.083,9.492,7.853,4.399h0Z" fill="#3db2af"/></g><g id="AQUA_003_022_FRAG_011"><path d="M1583.411,268.373c.883-4.135,4.602-2.722,5.714,.304,1.236,3.361,1.229,7.308,1.569,10.822,.839,8.698,1.268,17.422,1.366,26.159,.065,5.792,9.064,5.633,8.998-.166-.087-7.766-.429-15.522-1.099-23.26-.526-6.075-.443-13.475-3.409-18.993-5.126-9.537-19.542-7.962-21.86,2.9-1.208,5.658,7.511,7.904,8.721,2.233h0Z" fill="#3db2af"/></g><g id="AQUA_003_022_FRAG_012"><path d="M1622.188,269.992c1.897-2.906,6.145-2.796,8.97-1.426,3.803,1.845,5.702,6.146,6.759,10.006,2.431,8.875,1.061,18.427,4.501,27.101,2.751,6.937,8.559,13.075,16.192,14.201,8.947,1.319,15.575-5.331,20.632-11.765,3.55-4.517-2.898-10.804-6.48-6.246-2.603,3.312-5.658,7.65-9.923,8.874-4.971,1.426-9.32-2.718-11.385-6.837-4.249-8.471-2.435-18.868-4.904-27.88-1.956-7.141-6.366-14.07-13.719-16.452-6.998-2.267-14.436-.195-18.497,6.025-3.175,4.862,4.701,9.226,7.853,4.399h0Z" fill="#3db2af"/></g><g id="AQUA_003_022_FRAG_013"><path d="M1744.291,316.805c13.399,5.762,27.002-1.882,34.093-13.608,8.06-13.329,7.915-30.559,18.013-42.745,3.678-4.439-2.777-10.715-6.48-6.246-8.22,9.92-10.624,22.166-14.667,34.062-3.494,10.281-13.115,26.466-26.56,20.684-5.279-2.27-9.717,5.566-4.399,7.853h0Z" fill="#3db2af"/></g><g id="AQUA_003_022_FRAG_014"><path d="M1819.421,289.15c8.597-6.663,11.319,9.918,11.671,14.905,.26,3.686,3.708,5.161,6.842,3.76,11.019-4.924,23.458,4.267,21.974,16.252-.703,5.679,8.011,7.967,8.721,2.233,2.5-20.194-16.799-34.474-35.38-26.171l6.842,3.76c-.521-7.374-1.405-15.606-7.247-20.863-4.898-4.407-12.7-5.755-18.108-1.563-4.525,3.507,.1,11.24,4.685,7.686h0Z" fill="#3db2af"/></g><g id="AQUA_003_022_FRAG_015"><path d="M1690.219,315.342c9.986,7.975,25.492,6.571,32.631-4.598,4.051-6.338,4.482-13.932,5.287-21.195,.729-6.575,3.3-19.468,12.822-17.252,5.643,1.313,7.879-7.407,2.233-8.721-14.641-3.408-22.245,11.101-23.734,23.296-.83,6.792-.559,15.53-5.587,20.859-4.393,4.656-12.447,5.09-17.405,1.13-4.494-3.589-10.778,2.861-6.246,6.48h0Z" fill="#3db2af"/></g><g id="AQUA_003_023_FRAG_001"><path d="M1029.189,582.604c.935-9.989,11.701-14.585,20.049-9.898,2.601,1.46,6.774,.117,7.289-3.123,1.733-10.911,4.51-28.496,18.548-29.571,6.389-.489,6.248-10.491-.184-9.998-19.356,1.483-25.471,20.824-28.054,37.089l7.289-3.123c-15.52-8.715-33.318,1.531-34.935,18.808-.599,6.397,9.404,6.162,9.998-.184h0Z" fill="#4cd36f"/></g><g id="AQUA_003_023_FRAG_002"><path d="M1095.373,544.307c7.088,5.989,16.498,5.373,24.234,.847,8.109-4.745,14.606-14.864,24.885-14.37,6.431,.309,6.221-9.69-.184-9.998-8.212-.395-14.917,3.967-21,9-4.996,4.133-14.142,13.113-20.995,7.322-4.898-4.138-11.867,3.037-6.94,7.2h0Z" fill="#4cd36f"/></g><g id="AQUA_003_023_FRAG_003"><path d="M1177.682,523.78c1.577-6.906,9.433,3.435,10.425,5.725,2.269,5.239,2.693,11.097,2.655,16.735-.082,12.018-2.435,24.32,1.543,36.002,2.969,8.718,9.193,16.697,18.469,19.002,8.641,2.147,17.582-.889,22.505-8.345,3.555-5.384-5.198-10.23-8.726-4.887-2.418,3.662-7.259,4.506-11.298,3.542-5.021-1.198-8.566-5.492-10.579-10.056-4.996-11.331-1.883-24.382-1.918-36.282-.03-10.367-2.154-22.519-10.524-29.583-7.331-6.187-19.867-4.736-22.242,5.667-1.432,6.274,8.256,8.761,9.69,2.481h0Z" fill="#4cd36f"/></g><g id="AQUA_003_023_FRAG_004"><path d="M1256.132,592.74c5.364-6.639,12.282-11.521,20.553-13.821,6.72-1.868,14.703-.421,19.46-6.554,4.219-5.44,3.752-12.501,8.967-17.551,5.163-5,12.511-7.288,19.543-5.731,3.146,.697,6.311-1.605,6.239-4.937-.196-9.15,6.01-16.892,14.844-19.016,6.254-1.504,3.419-11.096-2.835-9.592-13.086,3.146-22.295,15.402-22.007,28.792l6.239-4.937c-15.477-3.427-31.758,5.53-36.709,20.702-.541,1.657-.737,3.7-1.608,5.222-1.226,2.14-3.131,2.154-5.367,2.365-4.271,.404-8.488,1.139-12.542,2.577-8.621,3.057-16.232,8.431-21.976,15.541-4.019,4.975,3.149,11.954,7.2,6.94h0Z" fill="#4cd36f"/></g><g id="AQUA_003_023_FRAG_005"><path d="M1371.48,531.093c6.081,3.51,5.385,12.611,6.211,18.641,.886,6.467,2.822,13.32,8.315,17.39,5.857,4.34,13.645,3.716,19.606-.12,7.235-4.656,10.301-12.939,12.948-20.709,2.079-6.102-7.627-8.536-9.69-2.481-2.004,5.88-4.452,13.856-11.097,15.96-6.516,2.063-8.996-4.401-9.954-9.576-1.909-10.312-1.035-21.82-11.451-27.832-5.588-3.225-10.461,5.509-4.887,8.726h0Z" fill="#4cd36f"/></g><g id="AQUA_003_023_FRAG_006"><path d="M1432.862,536.186c12.239,2.904,15.679,17.076,17.689,27.752,2.198,11.678,4.116,27.015,15.816,33.298,11.072,5.946,19.416-3.718,21.917-13.648,1.456-5.781,2.366-11.551,4.571-17.136,2.606-6.602,6.299-12.755,10.788-18.241,4.053-4.953-3.117-11.93-7.2-6.94-7.577,9.26-13.225,19.898-16.071,31.56-1.085,4.445-1.219,10.325-4.011,14.136-3.871,5.286-9.172-1.498-10.962-5.207-5.395-11.185-4.549-24.355-9.416-35.767-3.903-9.151-10.629-17.122-20.641-19.498-6.265-1.487-8.748,8.203-2.481,9.69h0Z" fill="#4cd36f"/></g><g id="AQUA_003_023_FRAG_007"><path d="M1518.156,532.301c2.666-4.662,9.051-4.399,12.226-.532,1.674,2.039,5.427,1.705,7.07-.13,4.538-5.07,12.322-5.308,17.112-.441,4.523,4.596,11.455-2.612,6.94-7.2-8.472-8.61-23.18-8.316-31.252,.701l7.07-.13c-7.362-8.968-22.313-6.912-27.892,2.844-3.203,5.6,5.531,10.475,8.726,4.887h0Z" fill="#4cd36f"/></g><g id="AQUA_003_023_FRAG_008"><path d="M1570.538,548.281c4.1,12.457,2.568,26.03,7.103,38.378,3.805,10.361,11.855,19.151,23.343,20.273,11.258,1.099,18.9-6.855,22.453-16.744,3.022-8.412,3.077-23.87,13.604-26.694,6.212-1.667,3.391-11.263-2.835-9.592-9.097,2.441-13.895,10.672-16.52,19.157-2.294,7.416-2.698,20.553-11.531,23.532-10.467,3.53-17.833-8.158-20.091-16.499-3.079-11.372-2.226-23.378-5.934-34.646-2.006-6.094-11.612-3.302-9.592,2.835h0Z" fill="#4cd36f"/></g><g id="AQUA_003_023_FRAG_009"><path d="M1653.583,526.113c2.349-4.322,8.455,7.351,9.309,8.682,2.678,4.172,6.429,7.974,11.472,8.943,5.415,1.04,10.346-2.002,13.619-6.081,2.015-2.511,6.13-13.195,10.425-10.647,5.55,3.292,10.418-5.445,4.887-8.726-5.74-3.405-12.467-1.277-16.738,3.472-3.872,4.305-7.856,17.451-14.348,9.007-4.087-5.316-5.982-12.338-13.067-14.602-5.456-1.744-11.467-.122-14.286,5.065-3.078,5.662,5.65,10.548,8.726,4.887h0Z" fill="#4cd36f"/></g><g id="AQUA_003_023_FRAG_010"><path d="M1714.719,544.145c2.593,10.453,6.241,22.149,15.608,28.52,5.282,3.592,11.495,4.338,17.744,4.269,5.985-.067,13.45-1.38,17.834,3.704,3.571,4.141,4.265,10.386,6.128,15.37,2.123,5.68,5.247,10.513,10.085,14.251,11.76,9.088,26.853,8.855,40.97,8.017,6.407-.38,6.256-10.38-.184-9.998-12.567,.746-28.641,1.925-37.738-8.763-6.654-7.818-5.427-19.67-13.186-26.998-9.306-8.789-21.045-3.264-31.945-6.246-10.376-2.838-13.477-15.904-15.724-24.961-1.549-6.244-11.142-3.412-9.592,2.835h0Z" fill="#4cd36f"/></g><g id="AQUA_003_024_FRAG_001"><path d="M1029.956,802.537c20.904,2.248,42.159-10.374,50.228-29.781,2.447-5.885-6.259-10.822-8.726-4.887-6.891,16.574-23.847,26.589-41.685,24.67-6.382-.686-6.139,9.318,.184,9.998h0Z" fill="#b0dad4"/></g><g id="AQUA_003_024_FRAG_002"><path d="M1089.568,789.363c-.784,19.619,14.731,35.319,34.18,35.562,6.44,.08,6.249-9.918-.184-9.998-14.265-.178-24.56-11.676-23.998-25.747,.257-6.435-9.742-6.229-9.998,.184h0Z" fill="#b0dad4"/></g><g id="AQUA_003_024_FRAG_003"><path d="M1148.583,800.128c3.07,15.289,17.265,26.359,32.718,26.32,6.438-.016,6.256-10.014-.184-9.998-11.322,.028-20.741-8.198-22.941-19.157-1.265-6.3-10.853-3.445-9.592,2.835h0Z" fill="#b0dad4"/></g><g id="AQUA_003_024_FRAG_004"><path d="M1201.551,792.796c5.296,1.213,6.96,7.896,9.814,11.845,2.877,3.98,6.957,6.955,11.709,8.289,9.521,2.674,19.062-1.894,24.068-10.116,3.356-5.513-5.385-10.376-8.726-4.887-4.615,7.58-14.457,7.377-19.364,.261-4.321-6.266-6.725-13.182-15.02-15.081-6.273-1.437-8.76,8.252-2.481,9.69h0Z" fill="#b0dad4"/></g><g id="AQUA_003_024_FRAG_005"><path d="M1273.571,813.793c7.258-.394,14.516-.789,21.774-1.183,6.411-.348,6.258-10.348-.184-9.998-7.258,.394-14.516,.789-21.774,1.183-6.411,.348-6.258,10.348,.184,9.998h0Z" fill="#b0dad4"/></g><g id="AQUA_003_024_FRAG_006"><path d="M1321.732,801.17c7.481-.175,14.962-.35,22.443-.525,6.431-.151,6.261-10.149-.184-9.998-7.481,.175-14.962,.35-22.443,.525-6.431,.151-6.261,10.149,.184,9.998h0Z" fill="#b0dad4"/></g><g id="AQUA_003_024_FRAG_007"><path d="M1373.889,794.595c3.634-4.88,10.336-6.35,14.42-.928,1.982,2.631,7.046,3.665,8.633-.159,3.297-7.941,12.273-10.601,18.777-4.395,4.661,4.447,11.605-2.749,6.94-7.2-10.722-10.23-28.612-7.338-34.443,6.707,2.878-.053,5.755-.106,8.633-.159-7.539-10.008-22.284-11.382-30.161-.807-3.797,5.099,3.359,12.096,7.2,6.94h0Z" fill="#b0dad4"/></g><g id="AQUA_003_024_FRAG_008"><path d="M1447.007,790.131c4.029-1.45,8.682-3.45,13.037-2.539,2.47,.516,6.156,3.088,4.638,6.025-2.96,5.727,5.409,10.412,8.726,4.887,2.129-3.546,7.092,6.992,7.686,8.193,1.992,4.031,4.565,7.636,8.582,9.847,9.466,5.211,19.912,1.407,28.883-2.868,5.801-2.765,.566-11.291-5.205-8.54-5.353,2.551-12.261,5.716-18.173,3.021-4.813-2.194-5.897-8.398-8.563-12.476-4.992-7.636-16.388-11.305-21.936-2.064,2.909,1.629,5.817,3.258,8.726,4.887,3.327-6.438,.877-13.723-4.847-17.913-7.299-5.342-16.612-2.852-24.389-.053-6.022,2.167-3.244,11.78,2.835,9.592h0Z" fill="#b0dad4"/></g><g id="AQUA_003_024_FRAG_009"><path d="M1537.652,810.728l42.25-5.369c6.316-.803,6.202-10.81-.184-9.998l-42.25,5.369c-6.316,.803-6.202,10.81,.184,9.998h0Z" fill="#b0dad4"/></g><g id="AQUA_003_024_FRAG_010"><path d="M1605.575,802.433c2.603-1.89,8.592,9.533,10.952,11.279,4.675,3.459,10.76,3.686,16.085,1.662,13.045-4.958,14.547-21.179,26.15-27.394,5.675-3.039,.463-11.576-5.205-8.54-5.528,2.961-9.308,7.786-12.611,12.995-3.285,5.18-6.953,13.193-13.842,14.172-6.526,.927-7.913-6.932-11.706-10.61-3.986-3.866-10.282-5.549-15.027-2.105-5.171,3.754-.019,12.333,5.205,8.54h0Z" fill="#b0dad4"/></g><g id="AQUA_003_024_FRAG_011"><path d="M1671.991,780.853c11.787,15.387,29.985,24.38,49.456,23.732,6.426-.214,6.261-10.213-.184-9.998-15.709,.523-31.113-6.382-40.732-18.939-3.872-5.054-12.461,.087-8.54,5.205h0Z" fill="#b0dad4"/></g><g id="AQUA_003_024_FRAG_012"><path d="M1743.327,806.499c8.817,.056,17.634,.112,26.451,.168,6.439,.041,6.252-9.957-.184-9.998-8.817-.056-17.634-.112-26.451-.168-6.439-.041-6.252,9.957,.184,9.998h0Z" fill="#b0dad4"/></g><g id="AQUA_003_024_FRAG_013"><path d="M1793.867,806.928c5.393-.98,10.775-.612,16.054,.779,6.234,1.643,8.703-8.05,2.481-9.69-7.1-1.872-14.167-1.99-21.37-.681-6.316,1.148-3.45,10.734,2.835,9.592h0Z" fill="#b0dad4"/></g><g id="AQUA_003_024_FRAG_014"><path d="M1831.372,811.38c10.848,3.45,19.569,10.861,25.058,20.786,3.116,5.634,11.656,.428,8.54-5.205-6.759-12.221-17.848-21.051-31.118-25.271-6.146-1.955-8.59,7.747-2.481,9.69h0Z" fill="#b0dad4"/></g></g></svg>