<?xml version="1.0" encoding="UTF-8"?><svg xmlns="http://www.w3.org/2000/svg" viewBox="0 0 1920 1080"><g id="GRILLE"><g><line x1="924.545" y1="199.496" x2="129.197" y2="199.496" fill="none" stroke="#f86806" stroke-linecap="square" stroke-linejoin="round" stroke-width=".5"/><line x1="924.545" y1="237.124" x2="129.197" y2="237.124" fill="none" stroke="#f86806" stroke-linecap="square" stroke-linejoin="round" stroke-width=".5"/><line x1="924.545" y1="274.751" x2="129.197" y2="274.751" fill="none" stroke="#f86806" stroke-linecap="square" stroke-linejoin="round" stroke-width=".5"/><line x1="924.545" y1="312.378" x2="129.197" y2="312.378" fill="none" stroke="#f86806" stroke-linecap="square" stroke-linejoin="round" stroke-width=".5"/><line x1="924.545" y1="350.006" x2="129.197" y2="350.006" fill="none" stroke="#f86806" stroke-linecap="square" stroke-linejoin="round" stroke-width=".5"/><line x1="924.545" y1="387.633" x2="129.197" y2="387.633" fill="none" stroke="#f86806" stroke-linecap="square" stroke-linejoin="round" stroke-width=".5"/><line x1="924.545" y1="425.261" x2="129.197" y2="425.261" fill="none" stroke="#f86806" stroke-linecap="square" stroke-linejoin="round" stroke-width=".5"/><line x1="924.545" y1="462.888" x2="129.197" y2="462.888" fill="none" stroke="#f86806" stroke-linecap="square" stroke-linejoin="round" stroke-width=".5"/><line x1="924.545" y1="500.888" x2="129.197" y2="500.888" fill="none" stroke="#f86806" stroke-linecap="square" stroke-linejoin="round" stroke-width=".5"/><line x1="924.545" y1="538.888" x2="129.197" y2="538.888" fill="none" stroke="#f86806" stroke-linecap="square" stroke-linejoin="round" stroke-width=".5"/><line x1="924.545" y1="576.888" x2="129.197" y2="576.888" fill="none" stroke="#f86806" stroke-linecap="square" stroke-linejoin="round" stroke-width=".5"/><line x1="924.545" y1="614.888" x2="129.197" y2="614.888" fill="none" stroke="#f86806" stroke-linecap="square" stroke-linejoin="round" stroke-width=".5"/><line x1="924.545" y1="652.888" x2="129.197" y2="652.888" fill="none" stroke="#f86806" stroke-linecap="square" stroke-linejoin="round" stroke-width=".5"/><line x1="924.545" y1="690.888" x2="129.197" y2="690.888" fill="none" stroke="#f86806" stroke-linecap="square" stroke-linejoin="round" stroke-width=".5"/><line x1="924.545" y1="728.888" x2="129.197" y2="728.888" fill="none" stroke="#f86806" stroke-linecap="square" stroke-linejoin="round" stroke-width=".5"/><line x1="924.545" y1="766.888" x2="129.197" y2="766.888" fill="none" stroke="#f86806" stroke-linecap="square" stroke-linejoin="round" stroke-width=".5"/><line x1="924.545" y1="804.888" x2="129.197" y2="804.888" fill="none" stroke="#f86806" stroke-linecap="square" stroke-linejoin="round" stroke-width=".5"/><line x1="924.545" y1="842.888" x2="129.197" y2="842.888" fill="none" stroke="#f86806" stroke-linecap="square" stroke-linejoin="round" stroke-width=".5"/><line x1="924.545" y1="880.888" x2="129.197" y2="880.888" fill="none" stroke="#f86806" stroke-linecap="square" stroke-linejoin="round" stroke-width=".5"/></g><g><line x1="1791.545" y1="199.496" x2="996.197" y2="199.496" fill="none" stroke="#f86806" stroke-linecap="square" stroke-linejoin="round" stroke-width=".5"/><line x1="1791.545" y1="237.124" x2="996.197" y2="237.124" fill="none" stroke="#f86806" stroke-linecap="square" stroke-linejoin="round" stroke-width=".5"/><line x1="1791.545" y1="274.751" x2="996.197" y2="274.751" fill="none" stroke="#f86806" stroke-linecap="square" stroke-linejoin="round" stroke-width=".5"/><line x1="1791.545" y1="312.378" x2="996.197" y2="312.378" fill="none" stroke="#f86806" stroke-linecap="square" stroke-linejoin="round" stroke-width=".5"/><line x1="1791.545" y1="350.006" x2="996.197" y2="350.006" fill="none" stroke="#f86806" stroke-linecap="square" stroke-linejoin="round" stroke-width=".5"/><line x1="1791.545" y1="387.633" x2="996.197" y2="387.633" fill="none" stroke="#f86806" stroke-linecap="square" stroke-linejoin="round" stroke-width=".5"/><line x1="1791.545" y1="425.261" x2="996.197" y2="425.261" fill="none" stroke="#f86806" stroke-linecap="square" stroke-linejoin="round" stroke-width=".5"/><line x1="1791.545" y1="462.888" x2="996.197" y2="462.888" fill="none" stroke="#f86806" stroke-linecap="square" stroke-linejoin="round" stroke-width=".5"/><line x1="1791.545" y1="500.888" x2="996.197" y2="500.888" fill="none" stroke="#f86806" stroke-linecap="square" stroke-linejoin="round" stroke-width=".5"/><line x1="1791.545" y1="538.888" x2="996.197" y2="538.888" fill="none" stroke="#f86806" stroke-linecap="square" stroke-linejoin="round" stroke-width=".5"/><line x1="1791.545" y1="576.888" x2="996.197" y2="576.888" fill="none" stroke="#f86806" stroke-linecap="square" stroke-linejoin="round" stroke-width=".5"/><line x1="1791.545" y1="614.888" x2="996.197" y2="614.888" fill="none" stroke="#f86806" stroke-linecap="square" stroke-linejoin="round" stroke-width=".5"/><line x1="1791.545" y1="652.888" x2="996.197" y2="652.888" fill="none" stroke="#f86806" stroke-linecap="square" stroke-linejoin="round" stroke-width=".5"/><line x1="1791.545" y1="690.888" x2="996.197" y2="690.888" fill="none" stroke="#f86806" stroke-linecap="square" stroke-linejoin="round" stroke-width=".5"/><line x1="1791.545" y1="728.888" x2="996.197" y2="728.888" fill="none" stroke="#f86806" stroke-linecap="square" stroke-linejoin="round" stroke-width=".5"/><line x1="1791.545" y1="766.888" x2="996.197" y2="766.888" fill="none" stroke="#f86806" stroke-linecap="square" stroke-linejoin="round" stroke-width=".5"/><line x1="1791.545" y1="804.888" x2="996.197" y2="804.888" fill="none" stroke="#f86806" stroke-linecap="square" stroke-linejoin="round" stroke-width=".5"/><line x1="1791.545" y1="842.888" x2="996.197" y2="842.888" fill="none" stroke="#f86806" stroke-linecap="square" stroke-linejoin="round" stroke-width=".5"/><line x1="1791.545" y1="880.888" x2="996.197" y2="880.888" fill="none" stroke="#f86806" stroke-linecap="square" stroke-linejoin="round" stroke-width=".5"/></g></g><g id="FRAGMENTS"><g id="AQUA_001_019_FRAG_007"><path d="M726.056,280.578c11.211,4.837,18.426,16.482,17.589,28.696-.253,3.699,3.374,6.774,6.972,5.161,9.633-4.32,20.335,1.309,26.164,9.273,7.05,9.632,8.49,22.318,10.037,33.804,.858,6.374,10.747,4.869,9.886-1.522-1.947-14.461-4.315-30.643-14.781-41.707-8.977-9.49-22.886-14.585-35.318-9.009l6.972,5.161c1.145-16.716-8.347-32.474-23.763-39.125-5.922-2.555-9.662,6.722-3.759,9.269h0Z" fill="#c6e1ca"/></g><g id="AQUA_001_019_FRAG_006"><path d="M622.88,303.826c14.699,12.206,33.182,23.299,52.746,16.024,8.371-3.113,14.515-9.665,17.401-18.075,2.504-7.296,3.032-22.012,12.396-24.396,6.174-1.572,4.73-11.478-1.522-9.886-7.722,1.966-12.771,7.633-15.705,14.89-3.4,8.407-3.022,18.975-10.652,25.076-15.787,12.624-36.158-1.251-48.65-11.624-4.966-4.123-10.953,3.891-6.014,7.991h0Z" fill="#c6e1ca"/></g><g id="AQUA_001_019_FRAG_005"><path d="M553.62,292.022c15.813-7.879,34.912-7.196,49.857,2.416,5.392,3.468,11.432-4.507,6.014-7.991-17.887-11.504-40.757-13.117-59.884-3.587-5.738,2.859-1.771,12.043,4.012,9.162h0Z" fill="#c6e1ca"/></g><g id="AQUA_001_019_FRAG_004"><path d="M477.252,239.942c11.286-5.517,18.946,7.646,21.674,16.618,3.528,11.604,4.094,24.045,2.18,35.982-1.363,8.498-.669,18.817,10.048,20.045,10.307,1.18,16.129-7.788,19.925-15.91,2.731-5.843-6.553-9.57-9.269-3.759-1.628,3.482-3.89,9.273-8.372,9.715-5.213,.514-2.7-6.864-2.252-9.832,1.651-10.929,1.279-22.293-1.165-33.074-2.051-9.047-5.256-18.327-12.285-24.737-6.588-6.008-16.334-8.198-24.496-4.208-5.763,2.817-1.793,11.999,4.012,9.162h0Z" fill="#c6e1ca"/></g><g id="AQUA_001_019_FRAG_003"><path d="M365.106,341.953c6.559-.555,11.261-5.094,14.317-10.637,3.035-5.506,3.544-13.156,7.897-17.838,4.212-4.531,11.346-4.243,15.559-9.285,3.685-4.41,4.619-10.194,5.768-15.642,1.447-6.857,3.504-9.822,10.432-11.862,6.216-1.83,11.491-4.472,14.259-10.682,2.693-6.042,1.757-12.996,4.327-19.02,2.668-6.253,8.449-10.349,15.086-11.322,6.361-.932,4.863-10.822-1.522-9.886-13.501,1.979-22.762,12.334-24.916,25.501-1.053,6.437-.783,12.702-7.863,15.228-6.204,2.214-12.129,3.385-15.849,9.408-2.955,4.785-3.414,10.371-4.775,15.7-.575,2.25-1.24,4.861-2.938,6.563-2.387,2.392-6.32,2.815-9.273,4.291-5.933,2.965-9.141,8.592-11.312,14.621-1.961,5.446-3.672,14.38-10.718,14.976-6.408,.542-4.877,10.428,1.522,9.886h0Z" fill="#c6e1ca"/></g><g id="AQUA_001_019_FRAG_002"><path d="M290.422,278.226c6.841,6.703,10.982,14.903,12.078,24.43,.677,5.885,8.878,5.108,9.909-.181,1.678-8.603,12.311-8.023,17.728-3.8,7.008,5.463,8.76,14.741,9.626,23.077,.664,6.398,10.55,4.878,9.886-1.522-1.367-13.171-6.258-27.828-19.695-33.127-11.66-4.598-25.026,1.645-27.478,14.213l9.909-.181c-1.271-11.054-6.162-21.313-14.12-29.111-4.541-4.45-12.436,1.704-7.843,6.203h0Z" fill="#c6e1ca"/></g><g id="AQUA_001_019_FRAG_001"><path d="M179.094,310.559c2.431-13.862,6.856-27.253,13.164-39.838,3.054-6.094,6.576-11.929,10.493-17.507,2.842-4.047,8.873-14.699,14.766-13.888,5.528,.76,5.745,11.058,6.142,15.082,.776,7.861,1.096,15.763,1.063,23.661-.067,16.097-1.392,32.152-2.716,48.184-.458,5.546,7.414,7.792,9.601,2.459,7.75-18.899,16.822-40.239,37.939-47.013,6.119-1.963,2.076-11.115-4.012-9.162-23.604,7.572-34.507,31.225-43.197,52.416,3.2,.82,6.401,1.639,9.601,2.459,1.625-19.682,3.172-39.389,2.573-59.154-.356-11.738,.713-36.886-15.72-38.9-8.165-1.001-14.371,5.308-19.032,11.148-5.137,6.437-9.641,13.356-13.642,20.549-8.371,15.05-13.984,31.392-16.957,48.344-1.112,6.343,8.824,7.482,9.933,1.16h0Z" fill="#c6e1ca"/></g><g id="AQUA_001_020_FRAG_007"><path d="M750.463,480.785c.128,8.934,.318,18.126,4.898,26.081,1.835,3.187,4.244,6.072,7.288,8.175,3.244,2.242,7.519,2.852,10.564,5.269,2.94,2.334,4.135,6.552,6.079,9.681,2.093,3.371,4.651,6.353,7.605,9.002,5.972,5.355,13.321,8.618,21.173,10.018,6.339,1.131,7.477-8.806,1.16-9.933-6.644-1.185-12.878-4.384-17.554-9.295-4.429-4.652-6.082-11.057-10.443-15.657-4.468-4.712-11.683-4.931-15.751-10.029-4.883-6.121-4.979-14.71-5.085-22.153-.091-6.343-10.024-7.586-9.933-1.16h0Z" fill="#52b378"/></g><g id="AQUA_001_020_FRAG_006"><path d="M646.21,457.1c4.937-3.864,10.874,.631,13.628,4.939,3.53,5.521,5.267,12.358,7.434,18.481,5.112,14.444,10.224,28.888,15.335,43.332,1.49,4.211,7.627,3.607,9.216-.127,12.514-29.419,29.816-56.423,51.211-80.175,4.315-4.791-3.714-10.763-7.991-6.014-21.943,24.361-39.657,52.263-52.489,82.431l9.216-.127c-6.514-18.408-12.438-37.168-19.638-55.318-2.68-6.754-6.626-13.508-13.409-16.799-6.135-2.976-13.273-2.726-18.716,1.533-5.075,3.972,1.128,11.816,6.203,7.843h0Z" fill="#52b378"/></g><g id="AQUA_001_020_FRAG_005"><path d="M597.809,501.739c4.198,14.49,15.009,24.908,29.647,28.563,6.226,1.555,7.327-8.393,1.16-9.933-9.798-2.446-18.11-10.453-20.92-20.152-1.764-6.088-11.677-4.661-9.886,1.522h0Z" fill="#52b378"/></g><g id="AQUA_001_020_FRAG_004"><path d="M498.019,429.742c8.217-1.343,15.415,4.356,18.989,11.412,4.188,8.269,4.244,18.159,4.348,27.213,.026,2.263,.865,4.291,3.087,5.215,10.472,4.354,13.059,16.603,14.803,26.625,1.813,10.419,3.607,21.269,10.638,29.626,5.786,6.877,14.545,11.109,23.504,8.454,8.472-2.511,14.666-9.991,13.606-19.016-.75-6.389-10.637-4.875-9.886,1.522,.881,7.502-9.358,9.776-14.574,6.918-7.506-4.112-10.449-13.39-12.01-21.194-3.193-15.968-5.125-35.055-22.324-42.206l3.087,5.215c-.143-12.295-.358-25.308-7.19-36.031-5.898-9.257-16.493-15.455-27.602-13.64-6.34,1.036-4.851,10.928,1.522,9.886h0Z" fill="#52b378"/></g><g id="AQUA_001_020_FRAG_003"><path d="M383.22,487.657c4.502,10.516,14.894,18.123,26.492,18.252,11.711,.13,21.975-6.869,27.06-17.229l-5.215,3.087c12.66,2.638,25.226-3.17,33.912-12.236,9.604-10.025,14.103-23.588,18.252-36.526,1.956-6.1-7.303-9.891-9.269-3.759-5.938,18.516-16.709,47.802-41.735,42.588-2.241-.467-4.302,1.227-5.215,3.087-7.437,15.15-28.643,13.858-35.121-1.277-2.532-5.915-11.701-1.92-9.162,4.012h0Z" fill="#52b378"/></g><g id="AQUA_001_020_FRAG_002"><path d="M295.102,460.915c7.085,8.345,11.219,18.981,10.831,30.013-.153,4.365-1.719,9.163,.024,13.399,2.223,5.403,6.958,4.856,11.614,6.412,4.507,1.506,7.814,5.943,12.079,8.083,4.481,2.248,9.738,2.643,14.594,1.516,11.14-2.584,18.328-11.419,24.772-20.221,3.807-5.2-4.186-11.213-7.991-6.014-5.31,7.253-12.164,17.143-22.342,16.885-4.676-.119-7.764-3.317-11.272-5.965-3.484-2.63-6.679-3.699-10.855-4.651-1.904-.434-1.497,.136-1.287-2.31,.172-1.998,.516-3.963,.598-5.973,.179-4.413-.135-8.872-1.05-13.194-1.896-8.955-5.948-17.208-11.87-24.183-4.162-4.902-12.019,1.285-7.843,6.203h0Z" fill="#52b378"/></g><g id="AQUA_001_020_FRAG_001"><path d="M169.748,518.618c6.779,11.756,21.621,14.75,33.222,8.188,13.713-7.756,18.59-23.044,22.285-37.373l-9.216,.127c3.323,8.006,7.115,16.429,14.465,21.549,7.006,4.88,15.835,5.744,23.241,1.248,7.304-4.434,11.696-12.289,15.158-19.841,4.374-9.54,7.192-19.727,8.692-30.102,.921-6.373-9.012-7.529-9.933-1.16-1.912,13.226-6.059,29.784-15.629,39.735-4.656,4.842-10.586,5.732-16.117,1.682-5.564-4.075-8.165-10.979-10.716-17.123-1.504-3.624-8.105-4.182-9.216,.127-2.634,10.215-5.321,21.66-13.367,29.109-6.226,5.765-18.523,8.816-23.71-.178-3.179-5.512-12.382-1.572-9.162,4.012h0Z" fill="#52b378"/></g><g id="AQUA_001_021_FRAG_001"><path d="M178.051,705.215c9.403-13.044,25.492-1.488,30.511,9.2,3.577,7.618,4.197,15.683,5.753,23.812,1.027,5.369,3.387,11.396,9.202,12.973,15.578,4.226,16.248-20.088,16.562-29.24,.25-7.271,.379-15.121,3.767-21.753,2.831-5.543,10.217-11.396,16.676-7.733,5.532,3.138,11.599-4.824,6.014-7.991-13.521-7.669-28.183,1.292-33.167,14.821-2.867,7.782-2.993,16.034-3.314,24.211-.182,4.641-.181,9.727-1.587,14.2-.251,.799-1.154,3.89-2.326,3.916-.663,.015-1.332-2.523-1.497-3.02-1.238-3.739-1.275-7.999-2.007-11.865-.787-4.16-1.819-8.297-3.257-12.284-2.515-6.972-6.601-13.4-12.32-18.175-10.885-9.088-28.255-9.221-37.001,2.912-3.767,5.226,4.223,11.241,7.991,6.014h0Z" fill="#b6e565"/></g><g id="AQUA_001_021_FRAG_002"><path d="M283.521,753.718c13.658-4.347,26.261-11.277,37.318-20.393l-8.068-4.501c-1.061,7.879-1.982,16.503,1.704,23.881,2.963,5.932,8.696,10.736,15.482,11.205,15.462,1.07,22.477-19.414,27.535-30.491,14.95-32.739,24.696-67.791,29.102-103.498,.788-6.388-9.144-7.554-9.933-1.16-3.558,28.838-10.651,57.095-21.312,84.133-2.562,6.498-5.318,12.919-8.271,19.249-2.74,5.874-5.3,12.379-9.364,17.491-3.859,4.855-9.368,5.786-13.286,.305-4.039-5.65-2.584-13.572-1.725-19.954,.573-4.256-4.739-7.246-8.068-4.501-10.46,8.624-22.212,14.964-35.127,19.074-6.123,1.949-2.078,11.1,4.012,9.162h0Z" fill="#b6e565"/></g><g id="AQUA_001_021_FRAG_003"><path d="M394.975,732.794c-2.948,7.565,1.054,15.803,8.266,19.218,8.299,3.929,17.386-.253,23.028-6.708,6.68-7.643,7.58-17.96,10.201-27.335,1.943-6.947,9.038-21.327,18.498-14.625,3.731,2.644,8.276-.451,7.95-4.757-1.612-21.29,15.481-39.75,36.912-39.491,6.37,.077,7.598-9.855,1.16-9.933-28.196-.34-50.093,22.748-47.957,50.946l7.95-4.757c-5.978-4.235-13.549-4.335-19.982-.936-7.254,3.832-11.343,11.443-13.581,19.046-2.391,8.122-2.848,17.815-8.217,24.704-2.25,2.887-6.011,5.932-9.943,5.356-3.128-.459-6.278-3.725-5.014-6.97,2.339-6.001-6.931-9.76-9.269-3.759h0Z" fill="#b6e565"/></g><g id="AQUA_001_021_FRAG_004"><path d="M512.346,679.399c2.398,20.063,6.161,39.937,11.383,59.46,2.042,7.634,3.467,17.041,8.845,23.187,4.439,5.074,11.871,6.097,16.865,1.195,6.792-6.667,2.447-14.997,4.273-22.985,1.48-6.473,7.437-11.364,11.853-15.915,5.461-5.629,9.802-11.498,11.793-19.208,2.169-8.399,1.848-17.157,3.638-25.622,3.798-17.963,15.55-34.263,31.299-43.662,5.451-3.253,1.517-12.461-4.012-9.162-12.519,7.472-22.589,17.784-29.569,30.614-3.474,6.386-5.924,13.219-7.488,20.313-1.704,7.73-1.47,15.724-3.114,23.452-2.971,13.967-16.986,20.101-22.646,32.532-1.32,2.898-1.978,6.077-2.049,9.249-.074,3.302,1.858,9.632-.412,12.45-2.232,2.77-4.037-1.176-4.994-3.382-1.757-4.051-2.742-8.499-3.901-12.749-5.483-20.105-9.404-40.599-11.877-61.288-.764-6.387-10.651-4.875-9.886,1.522h0Z" fill="#b6e565"/></g><g id="AQUA_001_021_FRAG_005"><path d="M626.743,740.169c7.501-7.368,20.878-3.744,23.812,6.293,2.834-1.703,5.668-3.405,8.503-5.108-3.633-3.992,6.918-4.419,8.815-4.252,4.68,.411,9.334,1.151,13.935-.208,8.353-2.468,11.835-10.17,13.152-18.171,1.698-10.318,2.273-20.462,5.355-30.56,2.439-7.992,5.772-20.882,13.988-25.046,11.156-5.654,13.844,18.193,16.599,24.243,2.3,5.052,5.85,9.431,11.344,11.039,8.397,2.458,16.306-2.866,20.324-10.011,5.629-10.007,2.784-22.099,6.912-32.586,3.86-9.807,11.522-17.498,21.17-21.632,5.914-2.534,1.919-11.703-4.012-9.162-8.831,3.783-16.544,10.067-21.789,18.153-5.605,8.639-7.378,17.717-8.209,27.829-.425,5.167-.803,10.889-4.441,14.939-2.491,2.773-6.318,4.308-9.401,1.647-4.183-3.61-5.191-11.299-6.71-16.295-1.719-5.651-3.905-11.696-8.682-15.513-6.308-5.041-14.874-4.192-21.007,.678-7.973,6.33-11.8,16.85-14.807,26.209-3.397,10.573-4.906,21.219-6.197,32.196-.52,4.424-1.23,10.657-6.077,12.425-5.53,2.017-12.342-.977-18.156-.118-9.115,1.345-17.393,12.219-9.948,20.4,4.006,4.402,10.07,.255,8.503-5.108-4.634-15.852-27.439-21.654-39.177-10.125-4.55,4.469,1.61,12.355,6.203,7.843h0Z" fill="#b6e565"/></g><g id="AQUA_001_021_FRAG_006"><path d="M809.324,692.914c4.077-1.25,7.78,2.881,9.196,6.167,1.828,4.243,1.913,9.133,2.137,13.679,.28,5.68,9.38,5.342,9.909-.181,.468-4.886,6.257-1.928,7.957,.367,2.407,3.249,2.873,7.455,3.416,11.338,1.036,7.419,2.515,14.516,5.698,21.359,6.166,13.257,16.54,23.795,29.455,30.537,5.71,2.981,9.416-6.316,3.759-9.269-8.062-4.208-14.865-10.457-19.953-17.979-5.611-8.294-7.808-17.282-9.193-27.046-1.212-8.549-4.467-18.103-13.432-21.214-7.821-2.714-16.833,2.334-17.639,10.749l9.909-.181c-.381-7.737-1.177-16.118-6.61-22.14-4.903-5.434-11.652-7.481-18.621-5.345-6.139,1.882-2.089,11.032,4.012,9.162h0Z" fill="#b6e565"/></g><g id="AQUA_001_022_FRAG_001"><path d="M1094.862,283.759c-14.607,7.195-17.158,23.613-18.247,38.242-.339,4.552-.621,9.178-1.67,13.636-.424,1.801-2.651,10.482-5.376,9.645-1.015-.312-1.796-5.32-2.02-6.131-.682-2.464-1.362-4.929-2.043-7.393-1.362-4.929-2.724-9.858-4.086-14.787-1.692-6.122-11.602-4.688-9.886,1.522,1.618,5.853,3.235,11.706,4.853,17.559,1.281,4.635,2.035,10.24,4.664,14.354,5.55,8.685,15.859,4.522,20.105-3.027,5.128-9.118,4.925-20.145,5.861-30.255,.825-8.905,3.029-19.855,11.858-24.204,5.753-2.834,1.784-12.016-4.012-9.162h0Z" fill="#3db2af"/></g><g id="AQUA_001_022_FRAG_002"><path d="M1113.94,297.853c7.044,8.416,12.725,17.609,17.076,27.684,1.618,3.748,7.855,4.059,9.216-.127,5.08-15.634,10.16-31.267,15.24-46.901,4.82-14.834,9.161-29.937,14.566-44.568,2.076-5.62,5.066-12.319,11.44-13.96,7.29-1.876,9.269,3.876,9.026,10.069-.641,16.314-2.162,32.644-3.245,48.936,2.963-.841,5.925-1.681,8.888-2.522-1.251-1.983,2.64-2.891,3.697-2.586,2.392,.691,3.793,3.45,4.281,5.661,1.378,6.243-2.217,13.213-4.654,18.756-4.905,11.156-10.543,22.297-9.628,34.854,.748,10.273,6.772,19.731,16.837,22.991,9.761,3.162,19.114-1.16,23.708-10.177,2.163-4.246,3.111-8.931,4.463-13.466,1.173-3.938,4.594-12.169,10.034-11.807,5.087,.338,3.715,9.098,3.495,12.328-.446,6.542-1.013,13.424,1.582,19.637,3.856,9.232,14.137,15.232,23.581,10.038,9.299-5.115,12.42-17.043,15.784-26.249,11.289-30.892,22.577-61.783,33.866-92.675,2.207-6.041-7.058-9.81-9.269-3.759-10.491,28.707-20.981,57.415-31.472,86.122-2.277,6.23-4.28,12.646-6.969,18.71-1.635,3.688-4.517,9.703-9.257,9.862-6.405,.214-8.21-8.472-8.298-13.283-.117-6.369,1.539-12.843,.109-19.163-2.489-10.994-13.882-14.483-22.739-8.072-9.375,6.786-9.007,17.267-13.581,26.788-5.879,12.239-19.649,4.117-21.616-6.238-2.527-13.299,6.13-25.822,10.726-37.645,4.232-10.887,6.331-27.116-7.223-32.483-11.183-4.428-21.701,7.912-15.298,18.059,2.318,3.674,8.615,1.586,8.888-2.522,.656-9.87,1.313-19.741,1.969-29.611,.575-8.647,2.479-18.312,1.074-26.933-2.539-15.585-21.095-17.624-31.098-7.585-5.523,5.543-8.068,12.999-10.437,20.275-3.054,9.378-6.096,18.76-9.144,28.14-6.198,19.073-12.395,38.146-18.593,57.219l9.216-.127c-4.667-10.808-10.837-20.847-18.394-29.875-4.129-4.934-11.984,1.256-7.843,6.203h0Z" fill="#3db2af"/></g><g id="AQUA_001_022_FRAG_003"><path d="M1332.288,334.624c8.815,7.953,13.807,18.856,14.725,30.622,.389,4.983,7.906,5.581,9.578,1.118,4.684-12.504,10.342-24.647,17.188-36.12,4.609-7.724,15.064-24.624,25.843-15.598,2.411,2.019,6.6,.828,7.642-2.116,8.012-22.641,19.67-43.587,34.706-62.315,4.041-5.033-3.967-11.026-7.991-6.014-15.53,19.344-27.709,41.185-35.984,64.571,2.547-.705,5.095-1.411,7.642-2.116-12.389-10.375-27.67-.629-35.318,10.394-9.653,13.913-17.073,29.745-22.996,45.556l9.578,1.118c-1.127-14.445-7.891-27.433-18.596-37.091-4.787-4.319-10.759,3.711-6.014,7.991h0Z" fill="#3db2af"/></g><g id="AQUA_001_022_FRAG_004"><path d="M1462.623,275.939c-.497,.79-.13-.89-.273,.34-.033,.28,.526,1.73,.578,2.182,.233,2-.29,4.343-.444,6.353-.335,4.379-.515,8.769-.54,13.161-.048,8.29,.37,16.582,1.36,24.815,1.714,14.254,3.877,31.969,14.736,42.482,9.317,9.02,23.321,10.226,32.819,.852,9.866-9.737,13.243-25.446,16.016-38.494,1.912-8.994,2.733-18.01,3.573-27.146,.706-7.681,2.743-18.15,12.153-18.92,6.409-.524,4.876-10.409-1.522-9.886-16.208,1.326-19.863,18.704-20.899,31.885-1.264,16.076-3.924,33.676-11.26,48.235-2.814,5.584-7.521,11.522-14.444,11.024-7.897-.567-13.014-7.933-15.634-14.633-6.177-15.796-7.272-35.097-6.929-51.877,.159-7.788,3.517-19.354-1.497-26.195-3.709-5.06-12.263-5.796-15.784-.193-3.407,5.422,4.565,11.467,7.991,6.014h0Z" fill="#3db2af"/></g><g id="AQUA_001_022_FRAG_005"><path d="M1562.762,345.207c3.693-6.118,9.316,2.506,10.646,5.955,2.297,5.96,3.357,11.877,6.892,17.324,3.507,5.403,11.324-.841,7.843-6.203-5.29-8.151-4.466-18.988-12.6-25.546-6.136-4.948-16.425-4.746-20.773,2.456-3.301,5.468,4.666,11.522,7.991,6.014h0Z" fill="#3db2af"/></g><g id="AQUA_001_022_FRAG_006"><path d="M1599.778,337.366c1.278,8.233,2.822,17.005,8.29,23.627,4.773,5.78,12.017,9.506,19.62,8.21,19.185-3.271,20.585-25.983,21.952-41.189,1.859-20.68,4.401-41.298,7.62-61.81,1.56-9.937,2.923-20.056,5.274-29.843,1.896-7.89,6.596-18.682,16.279-18.661,6.361,.013,7.595-9.919,1.16-9.933-17.495-.037-25.108,15.851-28.096,30.837-3.648,18.295-6.31,36.846-8.63,55.35-1.211,9.657-2.272,19.333-3.184,29.023-.781,8.301-.572,17.368-3.349,25.321-2.5,7.159-9.711,14.455-17.523,9.469-7.161-4.571-8.341-14.28-9.528-21.923-.986-6.351-10.876-4.857-9.886,1.522h0Z" fill="#3db2af"/></g><g id="AQUA_001_022_FRAG_007"><path d="M1691.651,320.57c8.991,1.893,8.95,14.346,8.902,21.289l9.909-.181c-.211-2.553,3.793,.835,4.055,1.193,1.077,1.468,1.334,3.369,1.603,5.119,.666,4.329,.456,8.88,.597,13.25,.237,7.366-.452,15.769,2.908,22.589,2.995,6.078,9.316,9.221,15.988,7.959,7.521-1.423,12.333-7.291,16.502-13.219,3.702-5.265-4.284-11.286-7.991-6.014-2.341,3.329-4.956,7.668-9.023,9.063-5.06,1.735-7.015-2.134-7.719-6.421-1.5-9.146-.318-18.637-1.289-27.842-.749-7.103-4.594-14.953-12.349-16.33-7.57-1.343-13.782,4.738-13.168,12.176,.457,5.533,9.87,5.492,9.909-.181,.093-13.416-2.186-29.119-17.675-32.381-6.295-1.326-7.415,8.615-1.16,9.933h0Z" fill="#3db2af"/></g><g id="AQUA_001_023_FRAG_001"><path d="M1061.38,485.279c1.136-5.58,9.128-4.143,12.119-1.399,5.185,4.757,5.907,12.756,6.473,19.299,.58,6.697,.388,15.015,4.478,20.758,3.481,4.888,9.29,6.352,14.891,4.588,6.08-1.916,9.761-6.531,13.945-11.003,2.144-2.292,4.719-4.88,8.119-4.59,3.222,.275,6.006,2.813,8.119,5.065,8.203,8.74,14.775,22.786,29.198,20.063,6.303-1.19,4.827-11.085-1.522-9.886-7.322,1.383-12.243-6.608-15.981-11.636-3.944-5.304-8.824-10.776-15.326-12.838s-12.841,.252-17.674,4.778c-2.738,2.565-12.697,16.262-16.166,8.549-3.358-7.467-1.643-17.181-3.577-25.088-1.537-6.287-4.373-12.333-9.499-16.483-9.495-7.689-24.984-3.85-27.531,8.665-1.283,6.306,8.656,7.43,9.933,1.16h0Z" fill="#4cd36f"/></g><g id="AQUA_001_023_FRAG_002"><path d="M1184.541,530.729c2.072-3.828,8.067-2.751,11.02-.908,4.501,2.809,7.371,7.821,10.112,12.212,3.001,4.808,11.029-.062,8.503-5.108-3.077-6.145,.47-14.529,7.272-16.397,8.268-2.271,15.76,6.538,15.233,14.27-.352,5.168,5.656,7.219,8.962,3.587,4.938-5.427,12-11.293,17.351-3.298,3.596,5.373,5.477,11.655,10.225,16.255,5.33,5.165,13.53,6.849,20.45,3.999,7.9-3.254,11.685-11.102,11.499-19.257-.146-6.407-10.031-4.842-9.886,1.522,.2,8.759-10.483,11.853-15.891,5.797-3.859-4.322-5.509-10.279-8.862-14.979-3.469-4.862-8.89-8.152-15.033-7.571-7.447,.705-13.068,6.269-17.844,11.517,2.987,1.196,5.975,2.391,8.962,3.587,.974-14.292-11.796-28.462-26.74-25.323-12.95,2.72-20.79,18.459-14.859,30.303l8.503-5.108c-4.563-7.311-10.073-15.107-18.999-17.124-7.819-1.766-15.407,1.174-19.246,8.264-3.064,5.659,6.238,9.358,9.269,3.759h0Z" fill="#4cd36f"/></g><g id="AQUA_001_023_FRAG_003"><path d="M1326.667,521.61c-.788-3.559,1.169-6.838,4.609-8.171,3.421-1.326,7.109,.051,9.896,2.169,7.273,5.529,8.171,15.611,8.7,24.024,.406,6.46,10.145,4.816,9.886-1.522-.179-4.363,5.412-5.372,8.51-4.233,4.106,1.509,6.701,5.376,8.388,9.206,3.726,8.458,5.368,18.223,7.032,27.264,3.63,19.726,4.59,39.757,2.013,59.673-.779,6.022,7.02,7.075,9.601,2.459,1.547-2.767,3.361-6.199,6.089-8.014,1.655-1.101,5.912-2.207,6.485,.708,1.236,6.29,11.132,4.818,9.886-1.522-1.416-7.204-8.43-11.263-15.552-10.153-8.027,1.252-12.56,8.752-16.177,15.222l9.601,2.459c3.567-27.572,.696-55.734-6.65-82.475-2.847-10.365-7.563-21.624-18.972-24.721-10.497-2.849-20.586,4.746-20.14,15.649,3.295-.507,6.591-1.015,9.886-1.522-.867-13.787-5.201-30.217-20.355-34.408-11.822-3.269-25.497,6.448-22.621,19.43,1.383,6.244,11.283,4.785,9.886-1.522h0Z" fill="#4cd36f"/></g><g id="AQUA_001_023_FRAG_004"><path d="M1438.204,525.797c8.497-5.036,17.578-8.235,27.376-9.507,6.378-.828,4.871-10.716-1.522-9.886-10.583,1.374-20.683,4.789-29.866,10.232-5.464,3.238-1.528,12.445,4.012,9.162h0Z" fill="#4cd36f"/><path d="M1478.994,484.485c6.231-6.373,15.127-9.008,23.689-6.032,6.067,2.109,9.844-7.154,3.759-9.269-11.675-4.058-24.907-1.485-33.651,7.459-4.444,4.545,1.709,12.44,6.203,7.843h0Z" fill="#4cd36f"/></g><g id="AQUA_001_023_FRAG_005"><path d="M1526.656,501.775c6.583,18.903,10.955,38.5,13.019,58.413,1.039,10.024,1.506,20.103,1.324,30.18-.119,6.593-2.118,16.351,4.393,20.742,7.445,5.021,14.314-2.013,18.66-7.568,5.453-6.972,10.236-14.421,14.477-22.187,8.563-15.68,14.253-32.763,17.231-50.362,1.074-6.35-8.861-7.492-9.933-1.16-2.551,15.08-7.339,29.633-14.222,43.295-3.465,6.877-7.505,13.448-12.01,19.691-2.135,2.958-4.283,6.231-6.957,8.746-1.978,1.861-1.66,1.314-1.914-.628-.243-1.858,.053-3.835,.114-5.698,1.079-33.165-4.113-66.156-15.02-97.477-2.116-6.076-11.271-2.046-9.162,4.012h0Z" fill="#4cd36f"/></g><g id="AQUA_001_023_FRAG_006"><path d="M1608.505,527.553c4.784,4.006,7.731,9.858,7.742,16.153,.007,3.944,3.125,6.432,6.972,5.161,5.635-1.862,9.029,5.641,9.836,9.823,1.069,5.54,.963,11.278,1.634,16.875,1.297,10.826,3.937,21.504,7.655,31.749,7.575,20.872,20.022,39.53,35.967,54.919,4.629,4.468,10.589-3.576,6.014-7.991-17.793-17.173-30.719-39.565-36.689-63.566-1.427-5.736-2.484-11.561-3.152-17.434-.696-6.119-.526-12.418-2.058-18.414-2.684-10.504-12.067-18.808-23.218-15.123,2.324,1.72,4.648,3.44,6.972,5.161-.017-10.043-3.918-18.822-11.66-25.304-4.949-4.143-10.934,3.872-6.014,7.991h0Z" fill="#4cd36f"/></g><g id="AQUA_001_024"><g id="AQUA_001_024_FRAG_001"><path d="M1052.21,743.667c7.169,11.013,14.338,22.026,21.508,33.039,2.43,3.733,8.444,1.53,8.888-2.522,1.35-12.324,1.948-25.024,4.18-37.219,.675-3.69,3.981-12.641,9.317-9.131,3.449,2.269,3.93,8.326,4.262,11.998,.32,3.534,4.089,4.691,6.949,3.82,9.708-2.956,19.496,4.529,19.357,14.627-.088,6.372,9.844,7.599,9.933,1.16,.249-18.13-16.004-30.215-33.301-24.948,2.316,1.273,4.633,2.546,6.949,3.82-.584-6.45-2.363-13.955-7.729-18.174-5.592-4.396-13.135-3.556-18.424,.924-6.331,5.363-7.253,13.945-8.102,21.648-1.114,10.105-2.215,20.211-3.322,30.316,2.963-.841,5.925-1.681,8.888-2.522-7.169-11.013-14.338-22.026-21.508-33.039-3.514-5.399-11.332,.845-7.843,6.203h0Z" fill="#b0dad4"/></g><g id="AQUA_001_024_FRAG_002"><path d="M1149.687,785.236c21.073,12.391,47.171,1.048,52.044-23.004l-7.973,3.416c7.802,4.451,16.64,3.427,23.822-1.913,7.869-5.851,11.043-15.715,13.647-24.727,1.772-6.131-7.484-9.937-9.269-3.759-1.723,5.962-3.41,12.347-7.269,17.338-3.209,4.15-9.691,8.05-14.916,5.069-3.4-1.939-7.164-.58-7.973,3.416-3.278,16.181-21.761,24.602-36.097,16.172-5.497-3.232-11.556,4.733-6.014,7.991h0Z" fill="#b0dad4"/></g><g id="AQUA_001_024_FRAG_003"><path d="M1251.028,780.51c.811,7.052,6.951,11.914,13.84,12.517,7.677,.672,14.097-4.456,17.717-10.821,4.592-8.074,4.086-17.299,6.802-25.934,1.17-3.719,3.201-8.053,6.918-9.799,2.681-1.26,7.337-.769,8.044,2.7,.966,4.737,7.641,5.833,9.578,1.118,1.347-3.28,2.67-7.077,5.226-9.662,1.95-1.973,9.217-5.159,8.622,.342-.585,5.414,7.881,8.005,9.601,2.459,.834-2.688,3.612-4.739,6.574-3.909,4.325,1.212,4.464,8.324,5.004,11.903,1.758,11.665,2.908,23.403,3.539,35.182,.343,6.413,10.228,4.865,9.886-1.522-.477-8.913-1.24-17.803-2.357-26.659-.926-7.336-1.155-16.602-5.533-22.898-6.72-9.666-22.883-7.139-26.382,4.145l9.601,2.459c.943-8.72-6.937-15.558-15.496-14.129-9.509,1.588-14.24,10.465-17.554,18.531,3.193,.373,6.385,.745,9.578,1.118-1.431-7.014-7.374-11.514-14.469-11.823-7.712-.336-13.888,4.959-17.389,11.422-4.396,8.116-3.769,17.447-6.662,25.995-1.239,3.661-3.477,8.028-7.35,9.436-3.047,1.108-7.047-.185-7.451-3.693-.735-6.391-10.622-4.876-9.886,1.522h0Z" fill="#b0dad4"/></g><g id="AQUA_001_024_FRAG_004"><path d="M1381.125,706.656c6.225-1.648,10.954,2.479,9.701,8.913-.921,4.731,4.77,6.539,8.068,4.501,3.523-2.176,8.153,1.31,9.888,4.235,2.841,4.791,2.587,11.046,2.485,16.409-.121,6.376,9.811,7.6,9.933,1.16,.177-9.336,.071-19.918-7.139-26.881-5.959-5.755-14.285-7.143-21.37-2.766,2.689,1.5,5.379,3.001,8.068,4.501,2.413-12.389-8.861-23.213-21.156-19.958-6.15,1.628-4.711,11.536,1.522,9.886h0Z" fill="#b0dad4"/></g><g id="AQUA_001_024_FRAG_005"><path d="M1433.131,771.482c3.969,17.367,23.348,24.545,39.068,18.386,19.495-7.637,27.368-28.457,33.307-46.795,1.974-6.097-7.285-9.886-9.269-3.759-4.566,14.101-9.488,29.865-22.481,38.511-9.841,6.549-27.54,6.129-30.738-7.866-1.424-6.23-11.325-4.774-9.886,1.522h0Z" fill="#b0dad4"/></g><g id="AQUA_001_024_FRAG_006"><path d="M1519.876,762.507c5.009,14.504,8.819,29.328,11.498,44.436,.92,5.188,7.326,5.306,9.578,1.118,4.049-7.53,3.818-15.871,6.059-23.907,1.304-4.675,8.225-15.861,13.738-8.582,2.405,3.175,8.916,1.946,8.888-2.522-.098-15.451,7.204-29.453,20.052-38.074,5.352-3.591-.884-11.412-6.203-7.843-14.743,9.892-23.894,26.984-23.781,44.758l8.888-2.522c-6.347-8.379-18.761-6.833-25.301,.453-8.663,9.652-5.776,23.634-11.609,34.48,3.193,.373,6.385,.745,9.578,1.118-2.829-15.951-6.935-31.615-12.223-46.926-2.1-6.081-11.255-2.049-9.162,4.012h0Z" fill="#b0dad4"/></g><g id="AQUA_001_024_FRAG_007"><path d="M1608.069,755.675c9.559,5.047,11.429,17.888,14.291,27.201,3.141,10.223,8.611,19.143,17.957,24.75,17.625,10.574,40.544,5.311,51.899-11.842,3.544-5.354-4.434-11.388-7.991-6.014-10.523,15.896-33.493,18.272-45.954,3.114-6.253-7.605-7.325-17.792-10.573-26.786-3.016-8.352-7.907-15.489-15.87-19.693-5.695-3.006-9.398,6.292-3.759,9.269h0Z" fill="#b0dad4"/></g><g id="AQUA_001_024_FRAG_008"><path d="M1708.51,772.047c1.536-1.905,3.894,1.669,4.255,2.734,.972,2.868,.42,6.13,.085,9.062-.574,5.038,5.888,7.389,8.962,3.587,2.517-3.112,7.166-2.6,10.357-.773,4.382,2.509,5.926,7.887,6.454,12.586,1.325,11.775-2.985,23.337-.573,35.151,.729,3.57,5.02,5.665,8.045,3.161,8.582-7.105,15.297,25.492,16.57,29.776,1.828,6.151,10.977,2.096,9.162-4.012-1.627-5.474-3.251-10.948-4.881-16.421-1.418-4.761-2.792-9.612-5.858-13.621-4.98-6.511-14.527-9.087-21.196-3.565l8.045,3.161c-3.216-15.75,5.541-32.763-3.476-47.557-6.404-10.508-22.277-14.242-30.64-3.899,2.987,1.196,5.975,2.391,8.962,3.587,.821-7.204,1-15.821-5.481-20.614-5.316-3.931-12.57-3.581-16.783,1.643-4.052,5.024,3.957,11.017,7.991,6.014h0Z" fill="#b0dad4"/></g></g></g></svg>