<?xml version="1.0" encoding="UTF-8"?><svg xmlns="http://www.w3.org/2000/svg" viewBox="0 0 1920 1080"><g id="GRILLE"><g><line x1="935.649" y1="161.658" x2="36.882" y2="161.658" fill="none" stroke="#f86806" stroke-linecap="square" stroke-linejoin="round" stroke-width=".25"/><line x1="935.649" y1="204.178" x2="36.882" y2="204.178" fill="none" stroke="#f86806" stroke-linecap="square" stroke-linejoin="round" stroke-width=".25"/><line x1="935.649" y1="246.698" x2="36.882" y2="246.698" fill="none" stroke="#f86806" stroke-linecap="square" stroke-linejoin="round" stroke-width=".25"/><line x1="935.649" y1="289.218" x2="36.882" y2="289.218" fill="none" stroke="#f86806" stroke-linecap="square" stroke-linejoin="round" stroke-width=".25"/><line x1="935.649" y1="331.738" x2="36.882" y2="331.738" fill="none" stroke="#f86806" stroke-linecap="square" stroke-linejoin="round" stroke-width=".25"/><line x1="935.649" y1="374.259" x2="36.882" y2="374.259" fill="none" stroke="#f86806" stroke-linecap="square" stroke-linejoin="round" stroke-width=".25"/><line x1="935.649" y1="416.779" x2="36.882" y2="416.779" fill="none" stroke="#f86806" stroke-linecap="square" stroke-linejoin="round" stroke-width=".25"/><line x1="935.649" y1="459.299" x2="36.882" y2="459.299" fill="none" stroke="#f86806" stroke-linecap="square" stroke-linejoin="round" stroke-width=".25"/><line x1="935.649" y1="502.24" x2="36.882" y2="502.24" fill="none" stroke="#f86806" stroke-linecap="square" stroke-linejoin="round" stroke-width=".25"/><line x1="935.649" y1="545.181" x2="36.882" y2="545.181" fill="none" stroke="#f86806" stroke-linecap="square" stroke-linejoin="round" stroke-width=".25"/><line x1="935.649" y1="588.122" x2="36.882" y2="588.122" fill="none" stroke="#f86806" stroke-linecap="square" stroke-linejoin="round" stroke-width=".25"/><line x1="935.649" y1="631.063" x2="36.882" y2="631.063" fill="none" stroke="#f86806" stroke-linecap="square" stroke-linejoin="round" stroke-width=".25"/><line x1="935.649" y1="674.004" x2="36.882" y2="674.004" fill="none" stroke="#f86806" stroke-linecap="square" stroke-linejoin="round" stroke-width=".25"/><line x1="935.649" y1="716.946" x2="36.882" y2="716.946" fill="none" stroke="#f86806" stroke-linecap="square" stroke-linejoin="round" stroke-width=".25"/><line x1="935.649" y1="759.887" x2="36.882" y2="759.887" fill="none" stroke="#f86806" stroke-linecap="square" stroke-linejoin="round" stroke-width=".25"/><line x1="935.649" y1="802.828" x2="36.882" y2="802.828" fill="none" stroke="#f86806" stroke-linecap="square" stroke-linejoin="round" stroke-width=".25"/><line x1="935.649" y1="845.769" x2="36.882" y2="845.769" fill="none" stroke="#f86806" stroke-linecap="square" stroke-linejoin="round" stroke-width=".25"/><line x1="935.649" y1="888.71" x2="36.882" y2="888.71" fill="none" stroke="#f86806" stroke-linecap="square" stroke-linejoin="round" stroke-width=".25"/><line x1="935.649" y1="931.651" x2="36.882" y2="931.651" fill="none" stroke="#f86806" stroke-linecap="square" stroke-linejoin="round" stroke-width=".25"/></g><g><line x1="1884.873" y1="161.658" x2="986.106" y2="161.658" fill="none" stroke="#f86806" stroke-linecap="square" stroke-linejoin="round" stroke-width=".25"/><line x1="1884.873" y1="204.178" x2="986.106" y2="204.178" fill="none" stroke="#f86806" stroke-linecap="square" stroke-linejoin="round" stroke-width=".25"/><line x1="1884.873" y1="246.698" x2="986.106" y2="246.698" fill="none" stroke="#f86806" stroke-linecap="square" stroke-linejoin="round" stroke-width=".25"/><line x1="1884.873" y1="289.218" x2="986.106" y2="289.218" fill="none" stroke="#f86806" stroke-linecap="square" stroke-linejoin="round" stroke-width=".25"/><line x1="1884.873" y1="331.738" x2="986.106" y2="331.738" fill="none" stroke="#f86806" stroke-linecap="square" stroke-linejoin="round" stroke-width=".25"/><line x1="1884.873" y1="374.259" x2="986.106" y2="374.259" fill="none" stroke="#f86806" stroke-linecap="square" stroke-linejoin="round" stroke-width=".25"/><line x1="1884.873" y1="416.779" x2="986.106" y2="416.779" fill="none" stroke="#f86806" stroke-linecap="square" stroke-linejoin="round" stroke-width=".25"/><line x1="1884.873" y1="459.299" x2="986.106" y2="459.299" fill="none" stroke="#f86806" stroke-linecap="square" stroke-linejoin="round" stroke-width=".25"/><line x1="1884.873" y1="502.24" x2="986.106" y2="502.24" fill="none" stroke="#f86806" stroke-linecap="square" stroke-linejoin="round" stroke-width=".25"/><line x1="1884.873" y1="545.181" x2="986.106" y2="545.181" fill="none" stroke="#f86806" stroke-linecap="square" stroke-linejoin="round" stroke-width=".25"/><line x1="1884.873" y1="588.122" x2="986.106" y2="588.122" fill="none" stroke="#f86806" stroke-linecap="square" stroke-linejoin="round" stroke-width=".25"/><line x1="1884.873" y1="631.063" x2="986.106" y2="631.063" fill="none" stroke="#f86806" stroke-linecap="square" stroke-linejoin="round" stroke-width=".25"/><line x1="1884.873" y1="674.004" x2="986.106" y2="674.004" fill="none" stroke="#f86806" stroke-linecap="square" stroke-linejoin="round" stroke-width=".25"/><line x1="1884.873" y1="716.946" x2="986.106" y2="716.946" fill="none" stroke="#f86806" stroke-linecap="square" stroke-linejoin="round" stroke-width=".25"/><line x1="1884.873" y1="759.887" x2="986.106" y2="759.887" fill="none" stroke="#f86806" stroke-linecap="square" stroke-linejoin="round" stroke-width=".25"/><line x1="1884.873" y1="802.828" x2="986.106" y2="802.828" fill="none" stroke="#f86806" stroke-linecap="square" stroke-linejoin="round" stroke-width=".25"/><line x1="1884.873" y1="845.769" x2="986.106" y2="845.769" fill="none" stroke="#f86806" stroke-linecap="square" stroke-linejoin="round" stroke-width=".25"/><line x1="1884.873" y1="888.71" x2="986.106" y2="888.71" fill="none" stroke="#f86806" stroke-linecap="square" stroke-linejoin="round" stroke-width=".25"/><line x1="1884.873" y1="931.651" x2="986.106" y2="931.651" fill="none" stroke="#f86806" stroke-linecap="square" stroke-linejoin="round" stroke-width=".25"/></g></g><g id="FRAGMENTS"><g id="AQUA_001_019_FRAG_007"><path d="M710.843,244.124c13.053,5.126,22.012,18.234,21.452,32.364-.141,3.567,3.325,6.95,6.972,5.161,10.984-5.389,23.686,.517,30.745,9.604,8.354,10.756,10.512,24.978,12.683,38.036,1.053,6.336,10.945,4.849,9.886-1.522-2.659-15.996-5.763-33.828-17.542-45.931-10.147-10.425-26.075-16.075-39.783-9.349l6.972,5.161c.735-18.552-10.236-35.963-27.626-42.793-5.996-2.355-9.753,6.915-3.759,9.269h0Z" fill="#c6e1ca"/></g><g id="AQUA_001_019_FRAG_006"><path d="M595.289,274.033c16.839,13.139,38.31,25.377,59.948,16.156,9.497-4.047,15.903-11.813,18.667-21.687,2.324-8.303,2.829-24.314,13.171-27.217,6.111-1.715,4.68-11.627-1.522-9.886-9.003,2.526-14.629,9.741-17.381,18.477-2.974,9.44-2.762,20.926-11.076,27.663-17.861,14.474-40.964,.072-55.792-11.497-5.087-3.969-11.087,4.034-6.014,7.991h0Z" fill="#c6e1ca"/></g><g id="AQUA_001_019_FRAG_005"><path d="M515.977,263.221c17.72-9.559,39.686-9.582,57.067,.887,5.471,3.295,11.525-4.672,6.014-7.991-20.352-12.259-46.045-13.412-67.094-2.057-5.622,3.033-1.67,12.227,4.012,9.162h0Z" fill="#c6e1ca"/></g><g id="AQUA_001_019_FRAG_004"><path d="M427.9,207.067c11.717-6.291,21.196,5.64,25.021,15.426,4.921,12.592,6.517,26.704,5.238,40.117-.905,9.498-3.139,22.807,9.716,24.998,11.863,2.022,18.526-8.515,22.558-17.901,2.546-5.925-6.731-9.667-9.269-3.759-1.863,4.335-4.271,11.059-9.686,11.809-6.485,.898-4.145-7.478-3.677-11.296,1.477-12.053,.803-24.482-2.105-36.275-2.508-10.174-6.245-20.614-14.172-27.858-7.352-6.719-18.637-9.254-27.637-4.422-5.63,3.023-1.676,12.216,4.012,9.162h0Z" fill="#c6e1ca"/></g><g id="AQUA_001_019_FRAG_003"><path d="M304.947,326.117c7.475-.798,12.567-6.263,15.777-12.701,3.153-6.324,3.406-14.671,8.154-20.108,2.795-3.201,7.088-3.878,10.708-5.771,2.687-1.406,5.091-3.255,6.888-5.724,3.78-5.193,4.436-11.79,5.587-17.91,.527-2.8,1.076-5.825,2.679-8.247,2.108-3.186,5.904-4.11,9.327-5.241,6.773-2.237,12.475-5.526,15.14-12.549,2.533-6.677,1.488-14.085,3.88-20.749,2.68-7.468,9.419-12.76,17.138-14.114,6.324-1.109,4.841-11.002-1.522-9.886-15.343,2.69-25.157,14.827-26.966,29.855-.918,7.624-.804,14.343-8.935,17.369-6.763,2.517-13.127,4.168-16.982,10.84-3.241,5.609-3.513,12.138-4.914,18.317-.565,2.491-1.324,5.285-3.127,7.203-2.681,2.852-7.174,3.514-10.521,5.331-6.544,3.553-9.789,9.961-11.984,16.782-2.012,6.251-3.844,16.563-11.848,17.417-6.396,.683-4.877,10.569,1.522,9.886h0Z" fill="#c6e1ca"/></g><g id="AQUA_001_019_FRAG_002"><path d="M219.95,257.719c7.64,6.999,12.327,16.334,13.795,26.545,.819,5.695,9.053,5.32,9.909-.181,1.567-10.064,13.818-10.565,20.635-5.756,8.418,5.938,10.925,16.578,12.212,26.202,.853,6.374,10.741,4.87,9.886-1.522-1.935-14.467-7.573-30.283-22.293-36.113-12.811-5.074-28.167,1.864-30.372,16.029l9.909-.181c-1.857-12.916-8.079-24.23-17.667-33.013-4.752-4.353-10.721,3.68-6.014,7.991h0Z" fill="#c6e1ca"/></g><g id="AQUA_001_019_FRAG_001"><path d="M93.359,297.873c2.271-15.874,6.795-31.258,13.553-45.808,3.402-7.324,7.344-14.366,11.829-21.082,3.129-4.686,9.437-16.391,16.269-15.708,6.247,.624,7.178,11.216,7.804,15.809,1.221,8.947,1.9,17.958,2.212,26.981,.644,18.615-.366,37.251-1.324,55.837-.278,5.394,7.527,8.001,9.601,2.459,8.111-21.67,17.718-46.507,41.454-54.869,6.069-2.138,2.041-11.294-4.012-9.162-26.258,9.251-37.697,36.188-46.712,60.272l9.601,2.459c.876-17.012,1.728-34.035,1.457-51.075-.137-8.607-.525-17.209-1.375-25.777-.697-7.02-1.241-14.485-3.922-21.098-5.098-12.579-18.338-15.253-28.196-5.954-10.234,9.654-17.667,23.784-23.596,36.38-7.315,15.54-12.147,32.184-14.578,49.176-.912,6.375,9.021,7.531,9.933,1.16h0Z" fill="#c6e1ca"/></g><g id="AQUA_001_020_FRAG_007"><path d="M743.59,499.733c-.031,9.449-.066,19.401,4.381,28.015,1.975,3.826,4.602,7.323,8.069,9.923,3.757,2.817,8.849,3.598,12.393,6.58,3.278,2.759,4.555,7.553,6.715,11.155,2.258,3.765,4.992,7.09,8.21,10.077,6.6,6.127,14.73,9.949,23.531,11.651,6.32,1.222,7.449-8.716,1.16-9.933-7.568-1.464-14.603-5.296-19.867-10.949-5.038-5.411-6.747-12.874-11.748-18.174-5.228-5.54-13.565-5.794-18.043-12.254-4.979-7.184-4.895-16.56-4.867-24.932,.021-6.362-9.911-7.595-9.933-1.16h0Z" fill="#52b378"/></g><g id="AQUA_001_020_FRAG_006"><path d="M625.299,470.204c5.785-4.451,12.875,.763,16.069,5.834,3.825,6.074,5.607,13.586,7.864,20.329,5.618,16.788,11.236,33.575,16.854,50.363,1.442,4.309,7.598,3.505,9.216-.127,14.715-33.034,34.857-63.287,59.525-89.725,4.394-4.71-3.642-10.675-7.991-6.014-25.239,27.051-45.751,58.19-60.803,91.981l9.216-.127c-6.928-20.702-13.354-41.659-20.848-62.163-2.705-7.403-6.647-14.923-13.716-18.967-6.844-3.915-15.205-4.138-21.588,.772-5.11,3.931,1.097,11.771,6.203,7.843h0Z" fill="#52b378"/></g><g id="AQUA_001_020_FRAG_005"><path d="M570.728,520.267c4.11,15.296,15.667,27.772,31.157,31.886,6.147,1.632,9.964-7.622,3.759-9.269-11.915-3.164-21.782-12.049-25.03-24.139-1.65-6.141-11.559-4.704-9.886,1.522h0Z" fill="#52b378"/></g><g id="AQUA_001_020_FRAG_004"><path d="M458.719,436.326c9.54-1.427,17.951,5.487,21.869,13.749,4.555,9.604,4.444,20.782,4.384,31.175-.013,2.279,.897,4.274,3.087,5.215,11.383,4.889,14.493,18.227,16.268,29.266,1.937,12.052,3.465,24.502,11.169,34.47,6.056,7.836,15.77,12.99,25.737,10.374,9.468-2.485,16.709-10.638,15.622-20.704-.69-6.396-10.577-4.877-9.886,1.522,.907,8.404-10.42,11.577-16.57,8.599-8.84-4.28-12.479-14.818-14.23-23.768-3.56-18.186-4.661-40.572-24.351-49.03l3.087,5.215c.078-13.563,.121-28.145-7.212-40.104-6.426-10.48-17.957-17.74-30.496-15.865-6.357,.951-4.861,10.841,1.522,9.886h0Z" fill="#52b378"/></g><g id="AQUA_001_020_FRAG_003"><path d="M328.523,500.016c4.731,11.696,16.25,20.39,29.043,20.676,12.966,.29,24.441-7.235,30.245-18.642l-5.215,3.087c13.904,3.199,28.059-3.032,37.808-12.867,11.055-11.153,16.397-26.359,21.341-40.913,2.065-6.077-7.197-9.859-9.269-3.759-7.158,21.071-20.221,54.163-48.72,47.606-2.247-.517-4.289,1.268-5.215,3.087-8.901,17.496-33.71,15.38-40.856-2.288-2.414-5.968-11.578-1.963-9.162,4.012h0Z" fill="#52b378"/></g><g id="AQUA_001_020_FRAG_002"><path d="M229.417,467.933c8.092,9.834,12.527,22.384,11.684,35.176-.333,5.048-2.267,10.627,.365,15.38,3.022,5.456,8.438,3.985,13.157,6.373,4.602,2.329,7.941,6.6,12.567,8.99,5.064,2.616,11.032,3.016,16.542,1.74,12.168-2.816,20.207-12.583,27.404-22.072,3.898-5.139-4.101-11.144-7.991-6.014-6.035,7.958-13.129,17.71-23.946,18.736-10.168,.964-15.348-9.909-24.723-11.949-2.28-.496-3.939,.011-4.363-2.426-.378-2.171,.769-5.357,.92-7.599,.335-4.984,.067-10.065-.853-14.975-1.903-10.154-6.363-19.596-12.92-27.565-4.09-4.971-11.942,1.223-7.843,6.203h0Z" fill="#52b378"/></g><g id="AQUA_001_020_FRAG_001"><path d="M86.727,530.848c7.184,13.111,23.74,16.43,36.497,9.491,15.468-8.414,21.188-25.623,25.587-41.549l-9.216,.127c3.684,9.329,7.935,19.172,16.616,24.928,7.929,5.257,17.655,5.737,25.708,.499,7.899-5.138,12.719-13.879,16.61-22.195,4.851-10.366,8.059-21.419,9.875-32.707,1.023-6.359-8.912-7.505-9.933-1.16-1.348,8.381-3.543,16.52-6.722,24.396-2.825,6.999-6.144,14.479-11.409,20.023-5.504,5.795-12.737,7.24-19.393,2.256-6.427-4.813-9.349-12.854-12.191-20.052-1.471-3.726-8.05-4.094-9.216,.127-3.284,11.887-6.701,25.142-16.54,33.422-7.571,6.372-21.48,8.663-27.113-1.616-3.067-5.598-12.263-1.648-9.162,4.012h0Z" fill="#52b378"/></g><g id="AQUA_001_022_FRAG_001"><path d="M1075.861,257.474c-16.91,8.234-19.092,27.667-20.356,44.354-.381,5.03-.771,10.163-2.083,15.053-.589,2.193-4.116,12.896-7.296,9.236-1.304-1.501-1.655-5.175-2.142-6.936-.673-2.437-1.347-4.874-2.02-7.31-1.599-5.787-3.199-11.575-4.798-17.362-1.692-6.122-11.602-4.688-9.886,1.522,1.852,6.701,3.704,13.403,5.556,20.104,1.36,4.92,2.206,10.606,4.713,15.101,5.878,10.541,17.895,5.14,22.39-3.484,5.631-10.806,5.067-23.498,6.351-35.277,1.058-9.704,4.058-21.2,13.584-25.838,5.768-2.809,1.797-11.99-4.012-9.162h0Z" fill="#3db2af"/></g><g id="AQUA_001_022_FRAG_002"><path d="M1097.669,272.401c7.996,9.54,14.454,19.994,19.382,31.426,1.616,3.75,7.856,4.057,9.216-.127,5.687-17.503,11.375-35.007,17.062-52.51,5.574-17.154,10.493-34.713,16.888-51.579,2.381-6.28,5.854-13.443,12.895-15.358,8.442-2.296,11.509,3.853,11.236,11.384-.676,18.641-2.455,37.309-3.693,55.923,2.963-.841,5.925-1.681,8.888-2.522-1.174-1.829,1.632-4.115,3.205-4.27,2.93-.29,5.483,2.984,6.432,5.333,2.851,7.06-1.513,15.949-4.289,22.355-5.459,12.596-11.973,24.922-11.365,39.058,.506,11.745,7.052,22.794,18.613,26.536,11.313,3.661,21.702-1.798,26.587-12.312,2.14-4.605,3.129-9.634,4.59-14.47,1.518-5.03,5.058-12.541,11.147-13.224,6.853-.769,5.564,10.172,5.287,14.202-.501,7.286-1.173,14.865,1.552,21.83,3.932,10.053,14.972,17.022,25.387,11.728,11.205-5.696,14.75-20.586,18.684-31.351,12.547-34.336,25.095-68.673,37.642-103.009,2.207-6.041-7.058-9.81-9.269-3.759-11.521,31.527-23.042,63.054-34.563,94.581-2.779,7.605-5.294,15.374-8.431,22.839-1.884,4.484-4.948,11.29-10.291,12.428-6.535,1.392-10.221-6.353-10.938-11.575-1.034-7.532,1.064-15.099,.282-22.648-1.254-12.1-12.498-19.151-23.371-12.648-11.486,6.869-11.797,18.975-16.44,30.092-2.198,5.262-6.163,9.196-12.219,8.393-6.137-.814-10.996-5.414-12.998-11.117-4.895-13.951,3.568-28.59,9.023-40.995,5.488-12.479,11.52-31.603-3.524-40.148-11.971-6.8-26.318,6.287-18.575,18.356,2.34,3.647,8.613,1.607,8.888-2.522,1.165-17.515,2.36-35.029,3.495-52.546,.424-6.543,.76-13.541-3.124-19.206-3.211-4.684-8.572-7.052-14.163-7.134-13.66-.201-21.827,11.106-26.122,22.744-5.707,15.466-10.302,31.425-15.396,47.103-6.094,18.754-12.187,37.507-18.281,56.261l9.216-.127c-5.243-12.166-12.19-23.465-20.7-33.618-4.133-4.931-11.988,1.259-7.843,6.203h0Z" fill="#3db2af"/></g><g id="AQUA_001_022_FRAG_003"><path d="M1344.29,313.836c10.082,9.064,15.866,21.578,16.891,35.025,.38,4.985,7.909,5.578,9.578,1.118,5.465-14.606,12.129-28.759,20.198-42.113,5.334-8.828,17.338-26.88,29.421-16.605,2.399,2.04,6.608,.811,7.642-2.116,9.056-25.629,22.275-49.375,39.302-70.565,4.043-5.031-3.965-11.025-7.991-6.014-17.52,21.803-31.261,46.448-40.58,72.82l7.642-2.116c-13.621-11.584-30.642-.473-38.996,11.62-10.851,15.707-19.234,33.497-25.906,51.331,3.193,.373,6.385,.745,9.578,1.118-1.23-16.134-8.783-30.724-20.763-41.494-4.795-4.311-10.767,3.718-6.014,7.991h0Z" fill="#3db2af"/></g><g id="AQUA_001_022_FRAG_004"><path d="M1490.662,247.649c.597-.985,1.385,2.081,1.435,2.369,.329,1.889-.087,4.032-.245,5.91-.406,4.818-.675,9.644-.762,14.479-.171,9.465,.226,18.953,1.262,28.364,1.782,16.191,4.006,36.877,16.04,49.101,10.678,10.846,26.937,12.124,37.677,.769,10.771-11.388,14.489-29.369,17.48-44.204,2.002-9.93,2.723-19.881,3.746-29.931,.882-8.657,3.732-19.983,14.167-20.752,6.411-.473,4.874-10.357-1.522-9.886-18.502,1.364-21.982,21.792-23.15,36.498-1.424,17.931-4.558,37.669-12.802,53.869-3.121,6.132-8.215,12.601-15.722,12.656-9.057,.067-15.56-7.904-18.778-15.527-3.746-8.874-5.228-18.875-6.536-28.359-1.391-10.089-2.079-20.287-1.942-30.472,.074-5.485,.42-10.942,.859-16.408,.36-4.486,.618-9.128-1.731-13.164-3.53-6.064-13.446-7.961-17.467-1.326-3.311,5.464,4.657,11.517,7.991,6.014h0Z" fill="#3db2af"/></g><g id="AQUA_001_022_FRAG_005"><path d="M1603.822,325.924c4.082-6.971,10.933,1.527,12.699,5.733,2.916,6.946,3.943,14.138,8.149,20.561,3.53,5.389,11.348-.853,7.843-6.203-6.002-9.164-5.037-21.499-14.233-28.846-6.604-5.276-17.859-5.098-22.449,2.741-3.221,5.501,4.743,11.561,7.991,6.014h0Z" fill="#3db2af"/></g><g id="AQUA_001_022_FRAG_006"><path d="M1646.813,317.356c2.153,13.881,6.422,30.782,21.968,34.979,14.185,3.829,26.04-8.092,29.707-20.789,2.342-8.112,2.65-16.601,3.403-24.961,.817-9.066,1.75-18.122,2.799-27.164,2.098-18.085,4.659-36.116,7.68-54.069,2.228-13.237,3.842-43.931,23.188-43.767,6.367,.054,7.597-9.878,1.16-9.933-13.662-.115-23.516,9.828-27.887,22.146-5.231,14.742-6.672,31.368-9.018,46.766-2.497,16.391-4.611,32.841-6.34,49.331-.874,8.333-1.592,16.676-2.334,25.021-.668,7.516-1.416,15.764-6.187,21.947-4.877,6.322-12.738,8.318-19.058,2.771-6.683-5.866-7.91-15.511-9.195-23.798-.985-6.351-10.875-4.857-9.886,1.522h0Z" fill="#3db2af"/></g><g id="AQUA_001_022_FRAG_007"><path d="M1750.066,297.829c10.596,2.181,10.692,16.464,10.63,24.778l9.909-.181c-.229-2.317,3.022-1.607,4.072-.902,1.728,1.161,2.678,3.369,3.171,5.302,1.216,4.764,.871,10.081,1.029,14.966,.27,8.375-.537,17.735,2.387,25.745,2.593,7.101,8.976,11.736,16.67,11.029,9.053-.832,15.002-8.025,19.863-14.944,3.7-5.267-4.286-11.288-7.991-6.014-2.671,3.801-5.595,8.476-10.089,10.297-5.189,2.102-8.477-.832-9.647-5.73-2.279-9.537-1.108-20.286-1.574-30.031-.399-8.346-3.064-17.72-11.849-20.725-8.396-2.872-16.792,3.794-15.928,12.53,.545,5.507,9.867,5.513,9.909-.181,.11-14.686-2.263-32.342-19.403-35.87-6.302-1.297-7.425,8.643-1.16,9.933h0Z" fill="#3db2af"/></g><g id="AQUA_001_023_FRAG_001"><path d="M1034.112,497.078c1.049-6.565,10.001-6.332,14.095-3.168,5.743,4.438,7.513,12.287,8.489,19.066,1.175,8.164,.946,17.797,5.405,25.06,3.671,5.979,10.313,7.914,16.87,5.705,6.872-2.315,10.835-7.827,15.386-13.043,5.561-6.373,11.306-6.974,17.838-1.205,10.177,8.989,17.738,26.428,34.328,22.564,6.221-1.449,4.767-11.351-1.522-9.886-8.501,1.98-14.463-6.603-19.083-12.413-4.754-5.978-10.532-12.129-18.201-14.046-7.609-1.902-14.274,1.401-19.452,6.864-3.129,3.302-11.65,16.568-17.144,10.885-2.834-2.931-2.949-9.046-3.44-12.866-.626-4.863-.969-9.782-2.053-14.574-1.624-7.18-4.688-14.3-10.353-19.221-10.253-8.905-28.745-5.605-31.097,9.119-1.016,6.36,8.919,7.507,9.933,1.16h0Z" fill="#4cd36f"/></g><g id="AQUA_001_023_FRAG_002"><path d="M1175.009,543.296c2.143-4.401,8.484-4.4,12.34-2.572,5.805,2.752,9.572,8.856,13.035,13.991,3.136,4.651,11.266-.119,8.503-5.108-3.92-7.078-.325-17.064,7.531-19.776,9.585-3.31,19.328,6.602,18.977,15.907-.187,4.967,5.659,7.495,8.962,3.587,5.006-5.922,13.105-13.879,19.772-5.687,4.603,5.655,6.787,12.866,12.023,18.092,6.09,6.078,15.491,8.049,23.439,4.484,8.353-3.747,12.515-12.52,11.924-21.343-.43-6.412-10.315-4.872-9.886,1.522,.633,9.44-10.387,15.186-17.694,9.001-5.04-4.266-7.212-11.325-10.957-16.617-3.8-5.37-9.413-9.168-16.195-8.849-8.676,.408-15.162,7.166-20.418,13.384l8.962,3.587c.595-15.776-14.122-31.309-30.561-26.969-13.787,3.64-22.083,20.979-15.042,33.691,2.834-1.703,5.668-3.405,8.503-5.108-5.375-7.971-11.858-16.642-21.917-18.544-8.349-1.579-16.794,1.815-20.57,9.569-2.823,5.798,6.466,9.516,9.269,3.759h0Z" fill="#4cd36f"/></g><g id="AQUA_001_023_FRAG_003"><path d="M1335.216,527.665c-1.069-3.997,.639-7.774,4.3-9.849,4.033-2.285,8.87-1.034,12.503,1.434,8.787,5.971,10.39,17.496,11.341,27.247,.626,6.422,10.416,4.86,9.886-1.522-.42-5.057,5.477-7.348,9.592-6.264,4.856,1.28,8.352,5.599,10.523,9.874,4.855,9.556,7.139,20.908,9.434,31.309,4.885,22.142,6.832,44.813,4.702,67.419-.551,5.843,7.086,7.363,9.601,2.459,1.852-3.611,3.936-8.042,7.545-10.219,1.982-1.195,6.935-2.009,7.646,1.227,1.372,6.248,11.272,4.787,9.886-1.522-1.692-7.701-9.2-11.85-16.836-10.556-8.913,1.51-13.748,9.978-17.51,17.312l9.601,2.459c2.846-30.208-1.234-60.476-9.772-89.493-3.473-11.805-8.178-25.246-21.061-29.537-11.629-3.874-24.29,4.377-23.236,17.056l9.886-1.522c-1.474-15.113-6.523-32.77-23-37.476-12.985-3.708-28.788,7.214-24.916,21.688,1.643,6.144,11.552,4.706,9.886-1.522h0Z" fill="#4cd36f"/></g><g id="AQUA_001_023_FRAG_004"><path d="M1462.606,526.462c9.017-5.801,19.022-9.529,29.587-11.27,6.338-1.044,4.85-10.936-1.522-9.886-12.34,2.033-23.763,6.554-34.268,13.312-5.416,3.484,.83,11.3,6.203,7.843h0Z" fill="#4cd36f"/><path d="M1506.701,478.049c6.49-7.177,17.007-10.018,26.232-7.138,6.11,1.907,9.904-7.351,3.759-9.269-13.83-4.318-28.272-.346-37.982,10.393-4.324,4.782,3.706,10.753,7.991,6.014h0Z" fill="#4cd36f"/></g><g id="AQUA_001_023_FRAG_005"><path d="M1561.395,496.524c12.586,32.361,19.498,66.941,19.921,101.687,.074,6.089-1.131,13.767,3.068,18.875,4.629,5.63,12.224,3.896,16.925-.557,5.437-5.149,9.563-12.305,13.405-18.675s7.365-13.01,10.427-19.825c7.225-16.083,11.974-33.235,14.285-50.705,.845-6.382-9.088-7.544-9.933-1.16-2.313,17.482-7.216,34.425-14.676,50.411-3.63,7.78-7.844,15.261-12.632,22.388-2.129,3.169-4.25,6.668-6.881,9.459-1.871,1.985-3.061,3.215-3.866,.122-.516-1.984-.171-4.368-.174-6.386-.047-37.525-7.11-74.675-20.711-109.645-2.334-6-11.495-1.988-9.162,4.012h0Z" fill="#4cd36f"/></g><g id="AQUA_001_023_FRAG_006"><path d="M1654.577,522.166c6.359,4.917,9.58,11.812,9.849,19.786,.115,3.411,4.263,4.846,6.949,3.82,5.932-2.267,10.606,4.257,12.104,9.11,1.961,6.358,1.85,13.346,2.831,19.897,1.831,12.231,5.158,24.291,9.744,35.774,9.32,23.336,24.067,44.15,42.745,60.916,4.799,4.307,10.771-3.722,6.014-7.991-20.57-18.464-35.742-42.546-43.844-68.957-1.976-6.44-3.458-13.04-4.529-19.689-1.127-7-1.167-14.261-2.973-21.133-3.028-11.526-13.497-21.906-26.104-17.089l6.949,3.82c-.352-10.431-5.508-19.905-13.72-26.255-5.104-3.947-11.105,4.055-6.014,7.991h0Z" fill="#4cd36f"/></g><g id="AQUA_001_024"><g id="AQUA_001_024_FRAG_001"><path d="M1027.913,776.184c8.101,12.445,16.203,24.89,24.304,37.335,2.43,3.733,8.444,1.53,8.888-2.522,1.56-14.234,2.108-29.052,4.911-43.098,.888-4.452,5.342-13.937,11.406-9.729,4.019,2.789,4.65,9.589,5.041,13.985,.313,3.529,4.095,4.698,6.949,3.82,11.431-3.516,23.007,5.288,22.78,17.2-.121,6.376,9.81,7.6,9.933,1.16,.38-19.926-17.73-33.363-36.725-27.521l6.949,3.82c-.619-6.966-2.47-14.936-8.019-19.71-6.189-5.324-15.019-4.386-20.866,.975-6.827,6.26-7.668,15.747-8.617,24.414-1.225,11.175-2.449,22.351-3.674,33.526,2.963-.841,5.925-1.681,8.888-2.522-8.101-12.445-16.203-24.89-24.304-37.335-3.514-5.399-11.332,.845-7.843,6.203h0Z" fill="#b0dad4"/></g><g id="AQUA_001_024_FRAG_002"><path d="M1137.945,823.042c23.302,13.792,52.443,1.088,57.774-25.551l-7.973,3.416c8.63,4.998,18.666,3.638,26.486-2.422,8.543-6.62,11.986-17.448,14.861-27.406,1.77-6.131-7.486-9.937-9.269-3.759-1.995,6.911-3.972,14.266-8.502,20.009-3.842,4.87-11.489,9.103-17.561,5.586-3.386-1.961-7.177-.565-7.973,3.416-3.757,18.772-25.251,28.53-41.827,18.719-5.49-3.249-11.548,4.716-6.014,7.991h0Z" fill="#b0dad4"/></g><g id="AQUA_001_024_FRAG_003"><path d="M1252.716,818.122c.807,7.663,7.596,12.946,15.031,13.613,8.911,.799,16.114-5.574,20.036-13.001,4.976-9.425,3.964-20.407,7.753-30.162,1.56-4.015,4.302-8.705,8.756-9.946,3.263-.91,7.951,.34,8.678,4.085,.925,4.767,7.655,5.803,9.578,1.118,1.689-4.117,3.344-8.585,6.667-11.689,2.658-2.483,10.993-4.898,10.23,1.477-.65,5.426,7.924,7.991,9.601,2.459,1.028-3.391,4.366-5.622,8.003-4.823,5.123,1.125,5.492,8.587,6.135,12.739,2.104,13.592,3.458,27.286,4.19,41.019,.342,6.413,10.226,4.865,9.886-1.522-.558-10.464-1.471-20.901-2.813-31.294-1.002-7.753-1.265-17.309-5.704-24.027-7.146-10.814-25.147-8.449-28.966,4.15l9.601,2.459c1.154-9.641-7.861-16.939-17.137-15.152-10.318,1.988-15.333,11.602-18.962,20.446,3.193,.373,6.385,.745,9.578,1.118-1.479-7.618-8.093-12.516-15.742-12.832-8.963-.37-15.829,6.158-19.629,13.702-4.769,9.468-3.648,20.539-7.678,30.195-1.642,3.934-4.658,8.56-9.181,9.42-3.599,.684-7.622-1.257-8.024-5.074-.674-6.397-10.56-4.877-9.886,1.522h0Z" fill="#b0dad4"/></g><g id="AQUA_001_024_FRAG_004"><path d="M1398.987,734.12c7.411-2.012,13.239,3.177,11.707,10.79-.948,4.709,4.79,6.562,8.068,4.501,4.293-2.699,9.944,1.255,12.117,4.908,3.316,5.574,3.035,12.762,2.914,19.007-.124,6.376,9.808,7.6,9.933,1.16,.198-10.18,.147-21.753-7.525-29.497-6.418-6.479-15.812-8.341-23.642-3.42l8.068,4.501c2.73-13.563-9.711-25.487-23.162-21.835-6.134,1.665-4.698,11.575,1.522,9.886h0Z" fill="#b0dad4"/></g><g id="AQUA_001_024_FRAG_005"><path d="M1458.497,807.92c4.407,19.673,26.802,27.289,44.231,19.887,21.221-9.012,29.738-31.837,36.309-52.136,1.974-6.097-7.286-9.886-9.269-3.759-5.192,16.038-10.821,33.955-25.6,43.792-11.515,7.665-32.118,7.065-35.786-9.307-1.398-6.239-11.298-4.781-9.886,1.522h0Z" fill="#b0dad4"/></g><g id="AQUA_001_024_FRAG_006"><path d="M1556.475,797.616c5.683,16.439,10.009,33.25,13.04,50.376,.922,5.21,7.309,5.278,9.578,1.118,4.692-8.606,4.284-18.321,6.988-27.5,1.148-3.899,2.967-8.258,6.594-10.446,3.178-1.917,7.555-2.084,9.902,1.074,2.382,3.205,8.927,1.924,8.888-2.522-.152-17.566,8.274-33.693,22.902-43.459,5.36-3.579-.878-11.399-6.203-7.843-16.523,11.031-26.803,30.256-26.631,50.143l8.888-2.522c-7.151-9.62-21.485-7.139-28.365,1.428-8.797,10.954-5.761,26.022-12.231,37.889,3.193,.373,6.385,.745,9.578,1.118-3.18-17.969-7.802-35.62-13.765-52.866-2.102-6.08-11.257-2.049-9.162,4.012h0Z" fill="#b0dad4"/></g><g id="AQUA_001_024_FRAG_007"><path d="M1655.785,789.554c11.02,5.756,13.222,20.367,16.501,31.08,3.415,11.157,9.308,21.091,19.451,27.329,19.702,12.116,45.592,6.549,58.373-12.872,3.529-5.362-4.449-11.397-7.991-6.014-11.887,18.063-37.971,20.986-52.443,4.148-7.293-8.484-8.723-19.896-12.246-30.148-3.292-9.579-8.743-18.017-17.886-22.792-5.709-2.982-9.415,6.315-3.759,9.269h0Z" fill="#b0dad4"/></g><g id="AQUA_001_024_FRAG_008"><path d="M1768.522,808.266c1.633-2.093,4.719,.527,5.554,2.088,1.827,3.417,.932,8.086,.516,11.708-.575,5.011,5.908,7.427,8.962,3.587,2.958-3.719,8.388-3.29,12.249-1.198,5.031,2.725,7.058,8.528,7.786,13.884,1.848,13.596-3.366,27.043-.523,40.678,.738,3.539,5.025,5.701,8.045,3.161,10.606-8.922,18.163,28.644,19.724,33.897,1.828,6.151,10.977,2.096,9.162-4.012-1.857-6.248-3.71-12.497-5.571-18.744-1.516-5.087-2.98-10.3-6.152-14.653-5.32-7.301-15.978-10.546-23.366-4.331l8.045,3.161c-3.67-17.6,6.186-36.606-3.654-53.215-6.863-11.585-24.554-16.186-33.736-4.64,2.987,1.196,5.975,2.391,8.962,3.587,.908-7.912,1.158-17.527-6.004-22.775-5.622-4.119-13.596-3.831-17.99,1.804-3.968,5.088,4.035,11.088,7.991,6.014h0Z" fill="#b0dad4"/></g></g><g id="AQUA_001_021_FRAG_001"><path d="M74.114,754.886c3.988-6.319,11.475-8.775,18.366-5.53,7.274,3.425,11.792,11.003,14.529,18.241,3.236,8.557,3.896,17.532,5.334,26.47,.942,5.855,3.206,13.149,9.658,14.879,17.377,4.659,16.588-26.436,16.901-35.759,.279-8.314,.619-17.119,4.232-24.779,2.845-6.031,10.374-13.33,17.412-8.752,5.378,3.498,11.415-4.478,6.014-7.991-10.637-6.919-23.789-1.812-30.205,8.419-7.936,12.655-6.934,27.828-7.753,42.123-.121,2.107-1.625,18.166-4.366,16.688-1.65-.89-1.95-5.963-2.176-7.59-.585-4.205-1.052-8.416-1.827-12.595-2.462-13.28-7.481-27.754-19.083-35.811-11.351-7.884-27.373-6.157-35.028,5.973-3.418,5.416,4.554,11.46,7.991,6.014h0Z" fill="#b6e565"/></g><g id="AQUA_001_021_FRAG_002"><path d="M181.209,811.904c14.514-5.21,27.668-13.455,38.922-23.973l-8.068-4.501c-1.562,13.099-2.474,30.076,10.5,38.036,12.202,7.486,22.352-3.651,27.449-13.876,13.686-27.458,22.894-57.846,29.736-87.665,4.052-17.66,7.009-35.545,8.967-53.556,.695-6.394-9.236-7.569-9.933-1.16-3.626,33.353-10.777,66.244-21.696,97.977-2.662,7.735-5.536,15.397-8.627,22.972-2.884,7.068-5.574,14.692-9.658,21.171-3.753,5.954-9.497,9.224-14.371,2.36-5.032-7.086-3.394-17.055-2.435-25.1,.482-4.045-4.809-7.547-8.068-4.501-10.7,10-22.93,17.701-36.731,22.655-6.057,2.174-2.032,11.331,4.012,9.162h0Z" fill="#b6e565"/></g><g id="AQUA_001_021_FRAG_003"><path d="M297.893,788.356c-2.935,8.404,.969,18.271,9.305,21.968,9.234,4.095,18.993-1.975,24.112-9.628,6.443-9.633,7.063-21.348,9.955-32.244,1.893-7.132,9.337-23.933,19.206-15.957,3.652,2.952,8.233-.667,7.95-4.757-1.578-22.841,13.744-48.086,38.791-47.696,6.373,.099,7.599-9.832,1.16-9.933-31.925-.497-51.896,29.346-49.836,59.151l7.95-4.757c-6.311-5.1-14.737-4.752-21.425-.523-7.59,4.8-11.244,13.658-13.411,22.007-2.501,9.631-2.855,20.97-8.757,29.332-2.182,3.092-6.031,6.952-10.223,6.282-4.095-.654-6.834-5.688-5.506-9.489,2.118-6.064-7.145-9.841-9.269-3.759h0Z" fill="#b6e565"/></g><g id="AQUA_001_021_FRAG_004"><path d="M821.74,732.973c4.645-1.641,8.441,3.91,9.815,7.538,1.98,5.229,2.088,11.082,2.327,16.603,.244,5.634,9.518,5.395,9.909-.181,.275-3.93,3.923-4.952,6.75-2.394,3.369,3.048,4.391,8.002,5.053,12.285,1.426,9.236,2.324,18.094,5.656,26.911,5.72,15.138,16.283,28.717,30.303,36.964,5.496,3.233,11.555-4.732,6.014-7.991-18.824-11.073-28.913-30.669-31.39-51.885-1.143-9.792-3.245-22.477-13.629-26.815-8.53-3.564-18.056,2.715-18.69,11.766l9.909-.181c-.378-8.733-.985-18.394-6.682-25.521-4.787-5.988-12.004-8.857-19.358-6.259-6.067,2.143-2.04,11.299,4.012,9.162h0Z" fill="#b6e565"/></g><g id="AQUA_001_021_FRAG_005"><path d="M428.729,753.58c-2.491,26.898,16.114,55.276,45.318,53.576,15.122-.88,26.076-10.923,35.631-21.728,10.287-11.633,18.781-24.673,25.801-38.505,2.917-5.747-6.377-9.458-9.269-3.759-5.723,11.275-12.598,21.911-20.632,31.682-7.543,9.174-16.381,19.661-28.669,21.918-24.383,4.48-40.27-20.176-38.247-42.025,.592-6.399-9.338-7.582-9.933-1.16h0Z" fill="#b6e565"/></g><g id="AQUA_001_021_FRAG_006"><path d="M569.73,788.987c19.229,7.148,41.508,11.668,60.235,.683,5.482-3.216,1.545-12.421-4.012-9.162-16.489,9.672-35.537,5.502-52.465-.79-6.031-2.242-9.797,7.025-3.759,9.269h0Z" fill="#b6e565"/></g><g id="AQUA_001_021_FRAG_007"><path d="M668.011,780.562c6.988,8.736,19.138,19.206,29.933,9.541,10.791-9.66,5.542-25.594,9.942-37.744,4.137-11.424,14.044-20.06,25.457-23.85,15.127-5.023,31.741-1.829,46.976,.938,6.335,1.151,7.471-8.786,1.16-9.933-25.432-4.62-53.649-7.142-73.042,13.387-8.437,8.932-11.994,19.765-12.598,31.858-.276,5.526,.18,14.696-5.079,18.348-5.417,3.761-12.063-5.197-14.904-8.749-4.024-5.031-11.871,1.168-7.843,6.203h0Z" fill="#b6e565"/></g></g></svg>