<?xml version="1.0" encoding="UTF-8"?><svg xmlns="http://www.w3.org/2000/svg" viewBox="0 0 1920 1080"><g id="GRILLE"><g><line x1="924.545" y1="199.496" x2="129.197" y2="199.496" fill="none" stroke="#4ad0c9" stroke-linecap="square" stroke-linejoin="round" stroke-width=".5"/><line x1="924.545" y1="237.124" x2="129.197" y2="237.124" fill="none" stroke="#4ad0c9" stroke-linecap="square" stroke-linejoin="round" stroke-width=".5"/><line x1="924.545" y1="274.751" x2="129.197" y2="274.751" fill="none" stroke="#4ad0c9" stroke-linecap="square" stroke-linejoin="round" stroke-width=".5"/><line x1="924.545" y1="312.378" x2="129.197" y2="312.378" fill="none" stroke="#4ad0c9" stroke-linecap="square" stroke-linejoin="round" stroke-width=".5"/><line x1="924.545" y1="350.006" x2="129.197" y2="350.006" fill="none" stroke="#4ad0c9" stroke-linecap="square" stroke-linejoin="round" stroke-width=".5"/><line x1="924.545" y1="387.633" x2="129.197" y2="387.633" fill="none" stroke="#4ad0c9" stroke-linecap="square" stroke-linejoin="round" stroke-width=".5"/><line x1="924.545" y1="425.261" x2="129.197" y2="425.261" fill="none" stroke="#4ad0c9" stroke-linecap="square" stroke-linejoin="round" stroke-width=".5"/><line x1="924.545" y1="462.888" x2="129.197" y2="462.888" fill="none" stroke="#4ad0c9" stroke-linecap="square" stroke-linejoin="round" stroke-width=".5"/><line x1="924.545" y1="500.888" x2="129.197" y2="500.888" fill="none" stroke="#4ad0c9" stroke-linecap="square" stroke-linejoin="round" stroke-width=".5"/><line x1="924.545" y1="538.888" x2="129.197" y2="538.888" fill="none" stroke="#4ad0c9" stroke-linecap="square" stroke-linejoin="round" stroke-width=".5"/><line x1="924.545" y1="576.888" x2="129.197" y2="576.888" fill="none" stroke="#4ad0c9" stroke-linecap="square" stroke-linejoin="round" stroke-width=".5"/><line x1="924.545" y1="614.888" x2="129.197" y2="614.888" fill="none" stroke="#4ad0c9" stroke-linecap="square" stroke-linejoin="round" stroke-width=".5"/><line x1="924.545" y1="652.888" x2="129.197" y2="652.888" fill="none" stroke="#4ad0c9" stroke-linecap="square" stroke-linejoin="round" stroke-width=".5"/><line x1="924.545" y1="690.888" x2="129.197" y2="690.888" fill="none" stroke="#4ad0c9" stroke-linecap="square" stroke-linejoin="round" stroke-width=".5"/><line x1="924.545" y1="728.888" x2="129.197" y2="728.888" fill="none" stroke="#4ad0c9" stroke-linecap="square" stroke-linejoin="round" stroke-width=".5"/><line x1="924.545" y1="766.888" x2="129.197" y2="766.888" fill="none" stroke="#4ad0c9" stroke-linecap="square" stroke-linejoin="round" stroke-width=".5"/><line x1="924.545" y1="804.888" x2="129.197" y2="804.888" fill="none" stroke="#4ad0c9" stroke-linecap="square" stroke-linejoin="round" stroke-width=".5"/><line x1="924.545" y1="842.888" x2="129.197" y2="842.888" fill="none" stroke="#4ad0c9" stroke-linecap="square" stroke-linejoin="round" stroke-width=".5"/><line x1="924.545" y1="880.888" x2="129.197" y2="880.888" fill="none" stroke="#4ad0c9" stroke-linecap="square" stroke-linejoin="round" stroke-width=".5"/></g><g><line x1="1791.545" y1="199.496" x2="996.197" y2="199.496" fill="none" stroke="#4ad0c9" stroke-linecap="square" stroke-linejoin="round" stroke-width=".5"/><line x1="1791.545" y1="237.124" x2="996.197" y2="237.124" fill="none" stroke="#4ad0c9" stroke-linecap="square" stroke-linejoin="round" stroke-width=".5"/><line x1="1791.545" y1="274.751" x2="996.197" y2="274.751" fill="none" stroke="#4ad0c9" stroke-linecap="square" stroke-linejoin="round" stroke-width=".5"/><line x1="1791.545" y1="312.378" x2="996.197" y2="312.378" fill="none" stroke="#4ad0c9" stroke-linecap="square" stroke-linejoin="round" stroke-width=".5"/><line x1="1791.545" y1="350.006" x2="996.197" y2="350.006" fill="none" stroke="#4ad0c9" stroke-linecap="square" stroke-linejoin="round" stroke-width=".5"/><line x1="1791.545" y1="387.633" x2="996.197" y2="387.633" fill="none" stroke="#4ad0c9" stroke-linecap="square" stroke-linejoin="round" stroke-width=".5"/><line x1="1791.545" y1="425.261" x2="996.197" y2="425.261" fill="none" stroke="#4ad0c9" stroke-linecap="square" stroke-linejoin="round" stroke-width=".5"/><line x1="1791.545" y1="462.888" x2="996.197" y2="462.888" fill="none" stroke="#4ad0c9" stroke-linecap="square" stroke-linejoin="round" stroke-width=".5"/><line x1="1791.545" y1="500.888" x2="996.197" y2="500.888" fill="none" stroke="#4ad0c9" stroke-linecap="square" stroke-linejoin="round" stroke-width=".5"/><line x1="1791.545" y1="538.888" x2="996.197" y2="538.888" fill="none" stroke="#4ad0c9" stroke-linecap="square" stroke-linejoin="round" stroke-width=".5"/><line x1="1791.545" y1="576.888" x2="996.197" y2="576.888" fill="none" stroke="#4ad0c9" stroke-linecap="square" stroke-linejoin="round" stroke-width=".5"/><line x1="1791.545" y1="614.888" x2="996.197" y2="614.888" fill="none" stroke="#4ad0c9" stroke-linecap="square" stroke-linejoin="round" stroke-width=".5"/><line x1="1791.545" y1="652.888" x2="996.197" y2="652.888" fill="none" stroke="#4ad0c9" stroke-linecap="square" stroke-linejoin="round" stroke-width=".5"/><line x1="1791.545" y1="690.888" x2="996.197" y2="690.888" fill="none" stroke="#4ad0c9" stroke-linecap="square" stroke-linejoin="round" stroke-width=".5"/><line x1="1791.545" y1="728.888" x2="996.197" y2="728.888" fill="none" stroke="#4ad0c9" stroke-linecap="square" stroke-linejoin="round" stroke-width=".5"/><line x1="1791.545" y1="766.888" x2="996.197" y2="766.888" fill="none" stroke="#4ad0c9" stroke-linecap="square" stroke-linejoin="round" stroke-width=".5"/><line x1="1791.545" y1="804.888" x2="996.197" y2="804.888" fill="none" stroke="#4ad0c9" stroke-linecap="square" stroke-linejoin="round" stroke-width=".5"/><line x1="1791.545" y1="842.888" x2="996.197" y2="842.888" fill="none" stroke="#4ad0c9" stroke-linecap="square" stroke-linejoin="round" stroke-width=".5"/><line x1="1791.545" y1="880.888" x2="996.197" y2="880.888" fill="none" stroke="#4ad0c9" stroke-linecap="square" stroke-linejoin="round" stroke-width=".5"/></g></g><g id="FRAGMENTS"><g id="CLAN_001_012_FRAG_001"><path d="M158.648,314.575c3.167-12.142,15.323-17.43,26.373-11.373,1.383,.758,3.865,.406,4.981-.713,3.266-3.275,6.532-6.551,9.799-9.826,4.496-4.509-1.66-12.399-6.203-7.843-3.266,3.275-6.532,6.551-9.799,9.826l4.981-.713c-15.378-8.429-34.965-.124-39.401,16.884-1.604,6.149,7.65,9.969,9.269,3.759h0Z" fill="#f37516"/></g><g id="CLAN_001_012_FRAG_002"><path d="M216.754,292.357c2.168,.547,3.593,4.336,4.582,6.046,1.551,2.681,3.16,5.407,5.596,7.396,5.484,4.476,13.082,4.135,19.07,.828,13.271-7.33,14.987-30.795,31.923-32.303,8.253-.735,11.135,6.167,13.686,12.627,2.183,5.53,4.464,11.374,9.284,15.182,10.603,8.376,27.075,.595,28.178-12.628,.534-6.4-9.396-7.588-9.933-1.16-.426,5.111-6.497,9.321-11.301,6.483-4.627-2.734-6.077-9.591-7.985-14.197-2.201-5.313-5.098-10.463-10.142-13.535-5.761-3.509-12.857-3.481-19.07-1.254-6.368,2.283-11.458,7.251-15.349,12.643-4.119,5.708-6.603,13.39-12.089,17.989-2.403,2.014-6.395,3.868-9.4,2.009-2.088-1.291-3.271-4.074-4.441-6.102-2.858-4.952-5.717-8.511-11.45-9.957-6.221-1.569-7.32,8.378-1.16,9.933h0Z" fill="#f37516"/></g><g id="CLAN_001_012_FRAG_003"><path d="M339.281,296.929c2.596,5.338,8.108,7.731,13.908,6.712,6.162-1.082,10.141-6.27,12.667-11.599,3.477-7.333,5.972-15.26,8.872-22.837,.709-1.853,2.432-8.771,4.835-9.53,4.291-1.356,3.787,7.198,3.681,9.407-.168,3.507,3.367,7.033,6.972,5.161,6.591-3.423,12.783,2.403,9.578,9.172-2.76,5.83,6.526,9.554,9.269,3.759,6.88-14.534-8.547-29.525-22.859-22.093l6.972,5.161c.348-7.257-.227-15.527-7.451-19.385-5.978-3.192-12.255-.497-15.836,4.826-4.477,6.654-6.54,15.278-9.387,22.715-1.446,3.779-2.604,8.028-4.739,11.499-.924,1.503-5.57,6.617-7.32,3.019-2.806-5.77-11.988-1.798-9.162,4.012h0Z" fill="#f37516"/></g><g id="CLAN_001_012_FRAG_004"><path d="M433.595,280.362c-.338,1.866-.451,1.614,.522,3.099,.494,.754,1.262,1.445,1.897,2.08,1.446,1.445,3.031,2.669,4.951,3.404,1.767,.676,3.556,.768,5.392,.416,2.537-.486,4.395-2.297,6.882-.874,3.84,2.197,5.087,9.026,7.183,12.606,2.017,3.445,4.794,6.473,8.115,8.709,14.36,9.668,33.093,3.746,40.471-11.532,2.804-5.807-6.484-9.528-9.269-3.759-3.782,7.831-12.817,12.08-21.171,9.247-4.074-1.382-7.517-4.204-9.662-7.917-2.48-4.292-3.611-9.171-7.022-12.921-2.713-2.983-6.434-5.14-10.54-5.194-2.075-.027-3.579,.906-5.518,1.251-2.747,.49-3.407-1.323-5.262-3.218-5.444-5.56-15.289-5.447-16.9,3.443-1.149,6.336,8.788,7.472,9.933,1.16h0Z" fill="#f37516"/></g><g id="CLAN_001_012_FRAG_005"><path d="M518.086,298.988c-.036,7.514,4.779,13.896,12.357,15.397,7.196,1.425,14.076-2.355,18.545-7.813,5.284-6.453,6.526-14.975,7.958-22.918,1.395-7.736,3.753-18.214,13.114-19.322,6.388-.756,4.875-10.643-1.522-9.886-13.131,1.555-18.806,14.022-21.067,25.571-1.275,6.515-1.714,13.806-5.62,19.42-1.611,2.316-3.923,4.422-6.744,5.058-2.764,.623-7.105-.865-7.088-4.347,.031-6.364-9.902-7.596-9.933-1.16h0Z" fill="#f37516"/></g><g id="CLAN_001_012_FRAG_006"><path d="M586.338,261.096c15.488,11.641,24.948,29.263,26.397,48.551,.307,4.085,5.176,5.029,8.045,3.161,9.112-5.934,18.224-11.868,27.336-17.802,5.398-3.515-.845-11.333-6.203-7.843-9.112,5.934-18.224,11.868-27.336,17.802l8.045,3.161c-1.634-21.75-12.858-41.934-30.268-55.019-5.155-3.874-11.162,4.122-6.014,7.991h0Z" fill="#f37516"/></g><g id="CLAN_001_012_FRAG_007"><path d="M659.691,271.667c2.452,3.357,4.905,6.713,7.357,10.07,2.042,2.795,5.865,2.189,7.917-.095,2.454-2.731,9.614,10.582,10.356,11.788,3.55,5.77,7.1,11.541,10.651,17.311,2.479,4.029,8.18,1.262,8.888-2.522,1.567-8.369,3.354-16.696,5.448-24.949,1.012-3.988,3.508-21.043,10.382-18.99,6.123,1.829,9.924-7.428,3.759-9.269-11.139-3.328-18.129,5.633-20.947,15.326-3.508,12.065-6.264,24.378-8.575,36.723l8.888-2.522c-2.874-4.671-5.748-9.342-8.622-14.014-2.769-4.5-5.273-9.636-8.776-13.617-5.27-5.987-13.781-7.581-19.443-1.28l7.917-.095-7.357-10.07c-3.805-5.208-11.637,1.01-7.843,6.203h0Z" fill="#f37516"/></g><g id="CLAN_001_012_FRAG_008"><path d="M745.06,303.34c4.297-9.44,9.743-21.084,20.943-23.498s15.646,7.376,16.504,16.798c.698,7.664-.009,18.622,9.673,20.791,4.988,1.118,10.096-1.084,15.211-.311,5.223,.789,9.723,3.23,13.628,6.715,4.811,4.294,10.785-3.734,6.014-7.991-4.444-3.966-9.726-6.712-15.529-8.068-2.692-.629-5.364-.922-8.126-.896-2.039,.019-6.456,1.483-8.303,.893-3.802-1.215-2.475-11.462-2.911-14.759-.675-5.098-2.175-10.314-5.175-14.552-6.577-9.292-18.614-10.986-28.64-6.564-11.547,5.094-17.594,16.775-22.56,27.685-2.672,5.871,6.61,9.602,9.269,3.759h0Z" fill="#f37516"/></g><g id="CLAN_001_013_FRAG_001"><path d="M160.615,476.661c1.441-3.4,4.411-1.571,4.533,1.454,.207,5.13,7.853,5.388,9.578,1.118,1.441-3.568,3.803-7.566,7.763-8.71,3.687-1.065,7.303,1.073,7.41,4.99l9.886-1.522c-.784-7.433,12.003-2.028,14.592-.68,5.045,2.628,9.833,5.222,15.611,5.664,6.4,.489,7.592-9.441,1.16-9.933-9.95-.76-17.205-9.693-27.658-8.923-8.047,.593-14.453,7.212-13.589,15.394,.691,6.546,10.057,4.731,9.886-1.522-.225-8.212-8.337-14.14-16.196-13.748-8.748,.436-15.05,7.6-18.132,15.231l9.578,1.118c-.546-13.531-18.651-15.574-23.689-3.69-2.517,5.937,6.759,9.681,9.269,3.759h0Z" fill="#ef9b5e"/></g><g id="CLAN_001_013_FRAG_002"><path d="M250.947,461.169c7.036-10.324,13.973-21.034,21.923-30.685,3.584-4.352,8.024-6.216,12.476-1.638,3.933,4.044,4.957,10.257,5.77,15.593,1.466,9.62,2.518,20.537,10.267,27.436,6.543,5.825,17.017,7.453,23.883,1.31,4.781-4.277-1.395-12.145-6.203-7.843-3.53,3.158-8.55,1.676-11.637-1.492-3.897-3.998-4.844-10.224-5.647-15.5-1.53-10.052-2.748-21.126-11.076-28.109s-18.21-4.49-24.905,3.128c-8.518,9.694-15.586,21.136-22.843,31.785-3.62,5.313,4.362,11.34,7.991,6.014h0Z" fill="#ef9b5e"/></g><g id="CLAN_001_013_FRAG_003"><path d="M346.49,457.839c4.047-6.128,11.498-9.677,18.819-7.681,2.019,.551,4.611,.367,5.875-1.628,2.815-4.444,5.758-9.5,10.402-12.255,3.253-1.93,9.048-2.552,11.083,1.46,1.898,3.741,7.543,4.028,9.216-.127,1.978-4.911,4.33-10.58,9.024-13.507,3.683-2.296,8.611-2.316,11.185,1.488,3.613,5.339,11.435-.896,7.843-6.203-4.506-6.659-13.42-8.292-20.683-5.579-8.678,3.242-13.374,11.932-16.64,20.043l9.216-.127c-3.652-7.197-11.613-10.177-19.367-8.458-8.995,1.994-14.636,9.931-19.272,17.25l5.875-1.628c-11.524-3.143-23.853,.767-30.568,10.936-3.538,5.357,4.44,11.392,7.991,6.014h0Z" fill="#ef9b5e"/></g><g id="CLAN_001_013_FRAG_004"><path d="M437.87,444.96c6.287,11.614,17.502,26.359,32.689,19.388,6.334-2.908,10.217-9.072,13.162-15.095,2.869-5.869,6.287-16.187,14.507-15.611,6.399,.448,7.595-9.482,1.16-9.933-13.811-.967-19.734,11.197-24.936,21.785-2.768,5.634-7.232,12.3-14.465,9.981-6.437-2.064-9.973-9.019-12.955-14.527-3.041-5.617-12.235-1.665-9.162,4.012h0Z" fill="#ef9b5e"/></g><g id="CLAN_001_013_FRAG_005"><path d="M511.309,454.679c4.418,9.385,8.836,18.77,13.253,28.155,2.153,4.574,8.748,3.459,9.547-1.426,1.015-6.203,2.102-12.57,4.982-18.23,3.324-6.533,9.339-8.117,14.447-12.696,9.575-8.584,4.991-21.885,9.447-32.502,2.495-5.945-6.78-9.691-9.269-3.759-2.535,6.04-2.514,12.383-3.171,18.787-.261,2.544-.539,5.25-1.762,7.546-1.731,3.25-5.179,4.549-8.134,6.417-11.402,7.208-14.439,20.841-16.473,33.277l9.547-1.426c-4.418-9.385-8.836-18.77-13.253-28.155-2.735-5.811-11.913-1.833-9.162,4.012h0Z" fill="#ef9b5e"/></g><g id="CLAN_001_013_FRAG_006"><path d="M584.782,475.457c9.115-11.539,21.106-19.884,34.99-24.676,6.081-2.099,2.05-11.254-4.012-9.162-15.447,5.332-28.851,15.014-38.969,27.823-4,5.064,4.005,11.061,7.991,6.014h0Z" fill="#ef9b5e"/></g><g id="CLAN_001_013_FRAG_007"><path d="M638.252,455.215c14.813,5.99,27.815,15.287,38.2,27.44,2.101,2.459,5.893,2.525,7.917-.095,9.269-11.993,18.539-23.986,27.808-35.979,3.945-5.105-4.056-11.106-7.991-6.014-9.269,11.993-18.539,23.986-27.808,35.979l7.917-.095c-11.488-13.445-25.884-23.873-42.284-30.506-5.975-2.416-9.727,6.856-3.759,9.269h0Z" fill="#ef9b5e"/></g><g id="CLAN_001_013_FRAG_008"><path d="M723.498,443.249c4.922,3.997,8.337,8.872,10.619,14.772,1.713,4.429,7.309,3.34,9.216-.127,1.528-2.778,4.81-1.813,5.94,.629,.849,1.835,.62,4.441,1.218,6.421,1.238,4.096,4.047,6.795,8.329,7.496,5.398,.884,9.349,.784,13.843,4.565,4.652,3.914,7.725,9.439,10.679,14.653,3.14,5.543,12.34,1.6,9.162-4.012-3.829-6.759-7.748-13.611-13.826-18.632-2.775-2.292-6.037-4.163-9.473-5.253-2.658-.843-7.856-.241-9.289-2.172-.68-.916-.496-3.453-.756-4.589-.347-1.516-.848-2.944-1.633-4.286-1.613-2.756-4.161-4.792-7.16-5.85-6.826-2.408-13.054,1.365-16.303,7.271l9.216-.127c-2.891-7.474-7.556-13.708-13.767-18.752-5.01-4.069-11.002,3.941-6.014,7.991h0Z" fill="#ef9b5e"/></g><g id="CLAN_001_014_FRAG_001"><path d="M165.633,666.298c.183-4.831,.117-10.434,2.756-14.701,1.617-2.615,7.05-6.643,9.414-2.406,2.174,3.896,9.32,4.017,9.547-1.426,.315-7.553,8.742-12.162,14.404-5.986,3.145,3.43,7.833,1.694,8.888-2.522,1.036-4.143,2.613-8.789,6.306-11.297,2.679-1.819,8.572-2.301,8.156,2.487-.556,6.399,9.375,7.586,9.933,1.16,.808-9.31-7.557-16.502-16.698-14.856-10.613,1.91-15.276,11.939-17.629,21.347,2.963-.841,5.925-1.681,8.888-2.522-10.99-11.987-31.472-5.953-32.18,11.03l9.547-1.426c-4.148-7.432-13.19-9.814-20.541-5.403-8.867,5.321-10.366,15.924-10.723,25.363-.242,6.388,9.689,7.602,9.933,1.16h0Z" fill="#e46441"/></g><g id="CLAN_001_014_FRAG_002"><path d="M256.548,632.073c4.495-5.12,13.031-4.022,16.85,1.218,2.749,3.772,8.085,1.459,8.888-2.522,1.142-5.659,8.387-4.394,11.64-1.757,4.805,3.894,6.353,10.323,7.592,16.09,1.122,5.222,9.58,5.753,9.909-.181,.867-15.638,13.218-28.108,29.198-27.745,6.379,.145,7.601-9.787,1.16-9.933-21.164-.48-39.1,15.067-40.29,36.518l9.909-.181c-2.24-10.427-6.4-22.119-17.499-25.906-9.495-3.24-19.551,2.019-21.552,11.936,2.963-.841,5.925-1.681,8.888-2.522-7.85-10.772-24.113-10.793-32.685-1.029-4.256,4.848,3.769,10.825,7.991,6.014h0Z" fill="#e46441"/></g><g id="CLAN_001_014_FRAG_003"><path d="M371.166,617.326c12.244-5.118,27.395,.482,33.219,12.462,1.322,2.719,5.192,4.167,7.683,1.916,5.466-4.939,12.129-7.665,19.549-7.367,6.39,.256,7.602-9.674,1.16-9.933-10.001-.401-19.442,2.705-26.912,9.456l7.683,1.916c-8.215-16.898-29.013-24.876-46.393-17.612-5.938,2.482-1.939,11.649,4.012,9.162h0Z" fill="#e46441"/></g><g id="CLAN_001_014_FRAG_004"><path d="M451.49,635.099c7.447,9.881,21.376,8.954,30.879,2.759,11.017-7.182,18.286-22.834,32.785-23.247,6.409-.183,4.847-10.067-1.522-9.886-11.833,.337-20.143,9.001-27.844,16.945-5.849,6.033-18.868,17.291-26.454,7.225-3.881-5.15-11.718,1.062-7.843,6.203h0Z" fill="#e46441"/></g><g id="CLAN_001_014_FRAG_005"><path d="M530.798,629.886c5.924,4.698,13.842,3.889,20.038,.11,6.895-4.205,11.162-11.644,19.084-14.292,17.276-5.777,33.91,6.57,46.977,16.238,5.182,3.834,11.193-4.16,6.014-7.991-13.368-9.89-27.873-19.977-45.239-19.525-7.59,.197-14.915,2.492-20.9,7.242-4.665,3.703-13.033,15.721-19.96,10.228-5.056-4.01-11.053,3.996-6.014,7.991h0Z" fill="#e46441"/></g><g id="CLAN_001_014_FRAG_006"><path d="M631.712,643.167c8.362,10.083,21.852,3.52,29.035-4.343,8.483-9.286,14.142-26.165,28.638-27.022,6.413-.379,4.868-10.264-1.522-9.886-11.336,.67-19.537,9.244-25.641,18.035-3.364,4.845-6.435,10.141-10.807,14.173-2.567,2.367-8.753,6.585-11.859,2.84-4.108-4.954-11.961,1.238-7.843,6.203h0Z" fill="#e46441"/></g><g id="CLAN_001_014_FRAG_007"><path d="M706.835,651.207c19.739,3.005,39.77,.554,58.254-6.966,5.963-2.426,1.959-11.591-4.012-9.162-16.914,6.882-35.04,8.942-53.083,6.196-6.367-.969-7.518,8.965-1.16,9.933h0Z" fill="#e46441"/></g><g id="CLAN_001_014_FRAG_008"><path d="M794.126,634.177c3.548-7.506,14.598-6.939,16.749,1.363,1.185,4.575,7.54,5.984,9.578,1.118,1.373-3.279,5.915-2.86,8.434-1.261,4.143,2.631,5.915,8.228,7.409,12.612,1.14,3.345,6.732,4.161,8.576,1.001,3.049-5.224,8.467,1.951,9.986,4.757,2.536,4.684,4.651,9.441,7.8,13.78,6.397,8.816,15.133,15.595,25.023,20.067,5.877,2.658,9.61-6.623,3.759-9.269-6.21-2.808-11.883-6.7-16.562-11.681-4.969-5.29-7.798-11.304-11.222-17.584-2.853-5.233-6.618-9.965-12.712-11.31-5.289-1.168-11.199,.319-14.063,5.226l8.576,1.001c-2.749-8.065-7.243-16.915-16.187-19.218-7.239-1.864-15.11,1.01-18.087,8.12,3.193,.373,6.385,.745,9.578,1.118-4.607-17.78-27.939-20.453-35.904-3.6-2.756,5.831,6.53,9.556,9.269,3.759h0Z" fill="#e46441"/></g><g id="CLAN_001_015_FRAG_001"><path d="M165.029,805.733c1.12-5.057,8.167-6.096,11.613-3.168,2.686,2.282,6.23,.541,7.642-2.116,4.448-8.371,9.408-18,17.93-22.921,6.867-3.965,16.738-3.91,21.52,3.073,1.202,1.756,4.04,2.392,5.928,1.479,8.767-4.239,17.596,1.11,18.301,10.685,.126,1.707,1.548,3.247,3.064,3.874,12.709,5.254,22.074,15.549,26.455,28.544,2.055,6.094,11.208,2.059,9.162-4.012-5.171-15.338-16.936-27.633-31.858-33.801l3.064,3.874c-1.172-15.92-17.947-25.216-32.199-18.325l5.928,1.479c-6.81-9.946-20.483-11.536-31.04-7.151-12.533,5.207-19.492,18.092-25.523,29.443l7.642-2.116c-9.791-8.318-24.923-1.905-27.56,10-1.391,6.277,8.552,7.392,9.933,1.16h0Z" fill="#fb2727"/></g><g id="CLAN_001_015_FRAG_002"><path d="M308.038,773.994c7.797-3.052,16.341-.521,21.506,5.955,2.401,3.01,4.62,5.939,8.322,7.386,4.536,1.773,9.052,.235,13.699,.633,4.204,.36,8.259,2.665,10.815,6.013,2.514,3.293,2.77,7.639,5.281,10.918,2.444,3.19,5.959,4.443,9.882,4.638,4.251,.211,9.373,1.005,9.334,6.535-.046,6.366,9.886,7.597,9.933,1.16,.037-5.149-1.52-9.829-5.427-13.367-3.761-3.406-7.818-3.964-12.679-4.26-3.491-.213-3.655-2.006-4.764-5.028-.892-2.432-2.129-4.743-3.716-6.799-2.989-3.872-7.324-6.978-11.969-8.512-2.261-.747-4.592-1.238-6.974-1.314-2.777-.089-5.995,.9-8.705,.328-4.202-.887-7.039-7.227-10.455-9.822-8.055-6.119-18.774-7.275-28.096-3.627-5.995,2.347-1.984,11.509,4.012,9.162h0Z" fill="#fb2727"/></g><g id="CLAN_001_015_FRAG_003"><path d="M423.337,801.011c6.514-11.005,17.416-29.026,33.034-23.108,6.442,2.441,7.074,10.079,14.054,12.037,3.444,.966,6.662,.872,9.798,2.904,3.31,2.145,5.608,5.502,6.483,9.329,1.423,6.23,11.325,4.774,9.886-1.522-2.034-8.904-8.277-16.448-17.205-19.09-1.952-.578-4.996-.323-6.708-1.283-1.788-1.002-2.502-3.615-3.722-5.183-2.514-3.232-6.108-5.606-9.987-6.86-20.364-6.582-34.526,11.389-43.625,26.762-3.249,5.49,4.716,11.548,7.991,6.014h0Z" fill="#fb2727"/></g><g id="CLAN_001_015_FRAG_004"><path d="M511.537,816.409c7.473,.852,13.933-1.917,20.208-5.709,5.766-3.484,13.645-10.018,20.884-7.665,5.514,1.792,6.729,8.53,8.045,13.432,1.522,5.666,3.133,11.196,6.941,15.798,4.103,4.958,11.956-1.234,7.843-6.203-8.006-9.674-4.519-25.442-17.545-31.673-7.194-3.441-15.456-1.289-22.171,2.258-7.23,3.818-14.298,10.828-23.045,9.831-6.392-.729-7.564,9.203-1.16,9.933h0Z" fill="#fb2727"/></g><g id="CLAN_001_015_FRAG_005"><path d="M589.2,788.659c6.804-1.656,13.352,1.524,15.941,8.107,1.488,3.785,6.187,3.603,8.576,1.001,8.888-9.676,22.223-13.603,35-11.203,6.328,1.189,7.46-8.749,1.16-9.933-16.421-3.085-32.941,2.917-44.151,15.121l8.576,1.001c-4.096-10.415-15.687-16.644-26.625-13.981-6.199,1.509-4.75,11.413,1.522,9.886h0Z" fill="#fb2727"/></g><g id="CLAN_001_015_FRAG_006"><path d="M670.097,795.438c1.221-.664,4.042,4.668,4.634,5.387,1.416,1.72,3.151,3.291,5.275,4.076,2.232,.826,4.588,.669,6.815-.023,2.427-.754,4.11-2.815,6.267-1.272,2.274,1.627,4.206,5.09,5.982,7.255,2.532,3.087,5.064,6.175,7.596,9.262,4.642,5.66,9.284,11.32,13.926,16.98,4.083,4.978,11.934-1.216,7.843-6.203-5.908-7.204-11.816-14.408-17.724-21.611-2.532-3.087-5.052-6.185-7.596-9.262-2.095-2.534-4.3-5.487-7.505-6.7-2.719-1.029-5.518-.7-8.172,.338-3.281,1.283-3.816,2.538-5.99-.585-3.487-5.012-8.816-10.365-15.362-6.804-5.609,3.052-1.658,12.246,4.012,9.162h0Z" fill="#fb2727"/></g><g id="CLAN_001_016_FRAG_001"><path d="M1023.107,319.429c2.811-4.084,8.419-5.911,12.853-3.149,3.349,2.087,7.193,.469,7.973-3.416,2.65-13.196,16.601-19.201,28.438-13.668,3.468,1.621,7.441-1.768,6.822-5.396-1.733-10.17,8.793-18.024,17.802-12.153,2.822,1.839,7.964,.686,7.973-3.416,.03-12.624,10.58-20.817,22.822-17.819,6.235,1.527,7.338-8.419,1.16-9.933-17.125-4.194-33.873,8.982-33.915,26.592l7.973-3.416c-16.053-10.462-36.995,2.348-33.703,21.666,2.274-1.799,4.548-3.597,6.822-5.396-18.133-8.475-38.267,2.546-42.129,21.778l7.973-3.416c-8.903-5.546-20.762-3.732-26.859,5.126-3.646,5.298,4.337,11.324,7.991,6.014h0Z" fill="#ffb17d"/></g><g id="CLAN_001_016_FRAG_002"><path d="M1153.576,288.951c1.987-8.349,11.535-12.159,18.821-7.768,2.891,1.742,7.889,.761,7.973-3.416,.239-11.851,12.43-19.657,22.893-12.784,3.588,2.357,8.579-.259,7.95-4.757-1.471-10.518,8.286-18.248,18.191-14.393,6.002,2.336,9.761-6.934,3.759-9.269-17.016-6.622-34.365,7.099-31.836,25.185l7.95-4.757c-16.194-10.636-38.436-.407-38.84,19.616l7.973-3.416c-14.191-8.553-30.948-1.449-34.768,14.6-1.487,6.248,8.458,7.355,9.933,1.16h0Z" fill="#ffb17d"/></g><g id="CLAN_001_016_FRAG_003"><path d="M1255.506,262.233c.894-11.39,13.424,1.007,17.604,2.598,7.615,2.898,13.374-1.989,17.902-7.52,2.227-2.72,4.448-5.986,8.34-4.187,4.327,1.999,6.394,7.878,8.205,11.938,4.67,10.469,7.581,21.476,8.991,32.84,.792,6.383,10.68,4.873,9.886-1.522-1.721-13.871-5.62-27.638-11.984-40.115-4.78-9.372-15.296-18.755-25.808-10.884-3.47,2.598-5.386,7.242-8.973,9.537-3.743,2.395-7.92-3.009-10.915-4.887-9.47-5.938-22.266-.625-23.182,11.042-.502,6.4,9.428,7.591,9.933,1.16h0Z" fill="#ffb17d"/></g><g id="CLAN_001_016_FRAG_004"><path d="M1354.239,317.083c6.322-7.4,6.662-16.787,8.379-25.91,.796-4.228,2.209-9.066,5.825-11.777,2.904-2.178,7.239-2.077,8.605,1.677,1.511,4.15,7.653,3.67,9.216-.127,2.255-5.479,4.51-10.957,6.765-16.436,1.253-3.044,2.5-6.09,3.758-9.131,.701-1.695,1.426-4.532,2.843-5.782,3.657-3.228,4.3,5.199,4.298,7.42-.005,4.777-.075,9.228,2.045,13.632,1.251,2.599,5.3,4.31,7.683,1.916,4.888-4.912,13.425-4.478,15.407,3.099,1.611,6.158,11.518,4.717,9.886-1.522-3.67-14.029-20.651-20.321-31.496-9.42l7.683,1.916c-2.983-6.197-.077-13.519-3.03-19.935-2.378-5.166-7.49-9.173-13.402-7.859-6.269,1.393-8.953,7.4-11.185,12.777-3.532,8.512-7.015,17.045-10.523,25.567l9.216-.127c-4.209-11.562-19.032-11.082-26.41-3.185-9.8,10.489-4.59,26.704-13.552,37.194-4.192,4.907,3.828,10.888,7.991,6.014h0Z" fill="#ffb17d"/></g><g id="CLAN_001_016_FRAG_005"><path d="M1444,310.235c3.629,8.341,14.259,10.498,21.595,5.652,10.534-6.958,9.187-19.697,12.638-30.299,1.188-3.649,5.579-11.376,10.61-7.965,1.962,1.33,1.757,4.737,2.307,6.822,.57,2.16,1.49,4.167,2.853,5.948,5.255,6.864,15.635,9.344,23.175,4.907,5.477-3.223,1.54-12.429-4.012-9.162-2.996,1.763-6.311,1.917-9.304-.054-3.734-2.459-3.068-6.655-4.455-10.422-2.923-7.938-12.615-10.501-19.885-7.029-8.842,4.223-11.336,14.417-12.789,23.214-.787,4.764-1.403,10.156-4.707,13.958-2.139,2.462-7.126,4.416-8.866,.417-2.566-5.899-11.737-1.907-9.162,4.012h0Z" fill="#ffb17d"/></g><g id="CLAN_001_016_FRAG_006"><path d="M1540.018,286.349c6.021-6.14,13.192,.184,16.128,6.116,3.495,7.063,3.864,15.295,7.535,22.265,2.961,5.622,8.445,9.944,15.127,8.498,7.363-1.593,11.005-8.268,13.612-14.668,2.432-5.969-6.84-9.72-9.269-3.759-1.063,2.609-3.468,9.737-7.552,8.652-2.473-.657-3.599-4.341-4.359-6.469-2.535-7.091-3.495-14.605-7.375-21.187-5.949-10.093-20.386-17.15-30.051-7.293-4.451,4.54,1.702,12.434,6.203,7.843h0Z" fill="#ffb17d"/></g><g id="CLAN_001_016_FRAG_007"><path d="M1605.84,298.955c12.567-.219,22.6,11.092,22.978,23.135,.201,6.41,10.086,4.849,9.886-1.522-.568-18.087-16.818-31.804-34.387-31.498-6.404,.111-4.836,9.997,1.522,9.886h0Z" fill="#ffb17d"/></g><g id="CLAN_001_017_FRAG_001"><path d="M1020.061,473.994c18.069-4.614,26.863-20.277,37.371-34.159,4.235-5.596,10.908-14.171,19.049-12.502,8.624,1.768,11.971,12.35,14.324,19.523,2.608,7.954,5.226,16.529,11.959,22.059,5.58,4.583,13.665,6.167,20.105,2.436,5.264-3.05,7.695-8.665,9.298-14.272,1.287-4.502,1.997-11.917,6.706-14.25,5.746-2.847,1.777-12.03-4.012-9.162-5.45,2.7-8.379,7.487-10.156,13.154-1.43,4.56-1.975,11.423-5.578,14.95-7.595,7.432-14.92-6.727-16.918-12.175-2.845-7.759-4.607-15.982-9.769-22.658-4.278-5.534-10.534-9.662-17.678-9.756-7.943-.105-14.729,4.656-19.972,10.209-11.456,12.135-18.574,32.203-36.252,36.717-6.172,1.576-4.729,11.482,1.522,9.886h0Z" fill="#fbbf08"/></g><g id="CLAN_001_017_FRAG_002"><path d="M1159.126,440.069c10.836,.005,21.671,.01,32.507,.016,6.359,.003,7.594-9.929,1.16-9.933-10.836-.005-21.671-.01-32.507-.016-6.359-.003-7.594,9.929-1.16,9.933h0Z" fill="#fbbf08"/></g><g id="CLAN_001_017_FRAG_003"><path d="M1217.478,456.084c13.162-8.285,28.008-13.077,43.465-14.493,6.405-.587,4.877-10.472-1.522-9.886-17.258,1.581-33.505,7.32-48.146,16.536-5.447,3.428,.804,11.242,6.203,7.843h0Z" fill="#fbbf08"/></g><g id="CLAN_001_017_FRAG_004"><path d="M1277.283,447.419c6.003,14.246,20.748,23.833,36.299,22.843,14.906-.949,28.255-12.02,32.472-26.231,1.817-6.125-7.439-9.926-9.269-3.759-3.141,10.584-12.125,18.881-23.326,19.993-11.6,1.151-22.596-6.373-27.013-16.857-2.499-5.93-11.667-1.933-9.162,4.012h0Z" fill="#fbbf08"/></g><g id="CLAN_001_017_FRAG_005"><path d="M1371.524,458.756c13.753-10.636,32.833-11.651,47.205-1.527,6.665,4.695,10.672,12.314,17.609,16.589,6.011,3.704,13.741,4.223,19.342-.487,4.923-4.14-1.265-11.996-6.203-7.843-6.706,5.639-14.474-6.926-18.396-10.855-5.582-5.592-12.519-9.893-20.081-12.234-15.804-4.893-32.636-1.573-45.679,8.514-5.099,3.944,1.107,11.785,6.203,7.843h0Z" fill="#fbbf08"/></g><g id="CLAN_001_017_FRAG_006"><path d="M1471.625,464.211c12.242-11.419,23.202-24.038,32.662-37.854,3.633-5.306-4.35-11.332-7.991-6.014-8.975,13.107-19.256,25.187-30.874,36.025-4.68,4.366,1.489,12.241,6.203,7.843h0Z" fill="#fbbf08"/></g><g id="CLAN_001_017_FRAG_007"><path d="M1514.334,468.675c13.872,6.285,25.841-5.807,32.191-16.852,3.663-6.372,7.081-13.592,13.917-17.118,6.417-3.31,13.671-3.194,20.136-.169,5.842,2.734,9.568-6.551,3.759-9.269-12.437-5.821-27.682-2.989-36.994,7.169-6.962,7.594-14.948,33.449-29.249,26.97-5.876-2.662-9.608,6.62-3.759,9.269h0Z" fill="#fbbf08"/></g><g id="CLAN_001_017_FRAG_008"><path d="M1601.562,446.954c5.277-.57,8.937,4.579,9.839,9.235,1.134,5.851-.631,12.082-2.025,17.736-.732,2.967,2.822,6.312,5.727,5.523,9.41-2.557,20.429,2.493,23.078,12.356,1.65,6.141,11.558,4.704,9.886-1.522-3.949-14.7-19.354-24.832-34.487-20.72l5.727,5.523c2.188-8.872,4.171-18.804-.345-27.318-3.754-7.078-10.846-11.571-18.924-10.699-6.396,.69-4.877,10.577,1.522,9.886h0Z" fill="#fbbf08"/></g><g id="CLAN_001_018_FRAG_001"><path d="M1032.175,645.173c9.522-6.103,20.822-7.638,31.757-5.145,2.047,.467,4.523-1.192,5.215-3.087,3.996-10.953,12.64-16.667,23.68-19.014,10.119-2.152,18.698-5.751,21.282-16.716,.869-3.688,.466-12.795,5.035-14.334,2.182-.735,3.515,2.103,5.021,3.504,1.59,1.478,3.289,2.598,5.445,3.058,5.79,1.236,8.792-3.034,13.823-4.448,4.855-1.365,8.634,5.299,10.592,8.775,3.128,5.553,12.327,1.608,9.162-4.012-2.853-5.064-6.195-10.208-11.415-13.091-5.606-3.096-10.835-1.837-16.119,1.193-3.601,2.065-3.842,1.971-6.701-.954-1.989-2.036-4.129-3.759-7.016-4.259-5.955-1.031-11.181,3.131-13.95,8.047-3.122,5.543-1.506,13.179-5.151,18.259-3.399,4.738-11.147,4.829-16.294,6.162-12.353,3.2-22.279,12.049-26.666,24.072l5.215-3.087c-13.622-3.106-27.436-.255-39.12,7.234-5.421,3.475,.826,11.29,6.203,7.843h0Z" fill="#ffdc91"/></g><g id="CLAN_001_018_FRAG_002"><path d="M1181.097,616.205c4.937-5.228,12.55-13.39,20.563-9.722,3.984,1.824,3.427,5.38,4.119,9.112,.66,3.561,2.284,7.043,5.503,8.953,3.018,1.791,6.458,1.573,9.542,.067,1.076-.525,3.073-2.63,4.229-2.635,1.674-.008,3.142,2.768,4.032,3.913,6.701,8.619,13.358,17.272,20.037,25.908,3.944,5.099,11.785-1.107,7.843-6.203-7.535-9.742-14.544-20.642-23.032-29.563-3.112-3.271-7.292-5.157-11.772-3.639-1.939,.657-3.523,2.519-5.393,3.068-1.304,.383-.197,1.174-.981-.649-.463-1.078-.341-2.59-.473-3.731-1.071-9.265-8.077-15.201-17.381-15.401-10.461-.225-18.149,7.437-24.827,14.509-4.421,4.681,3.618,10.645,7.991,6.014h0Z" fill="#ffdc91"/></g><g id="CLAN_001_018_FRAG_003"><path d="M1279.263,658.856c1.388-3.957,3.766-7.263,7.39-9.46,4.057-2.46,8.286-1.973,12.715-2.994,8.68-2.001,11.734-9.949,14.252-17.55,.932-2.814,2.49-7.956,5.77-8.904,1.764-.51,3.892,.785,5.59,1.217,2.049,.521,4.045,.69,6.121,.221,3.778-.854,6.696-3.475,9.041-6.447,2.14-2.712,4.583-9.061,8.724-8.399,6.36,1.017,7.507-8.917,1.16-9.933-4.676-.748-8.685,1.197-11.945,4.469-2.594,2.603-5.366,9.744-9.128,10.6-2.001,.455-4.699-1.357-6.701-1.659-2.157-.326-4.258-.167-6.314,.59-4.02,1.48-6.916,4.775-8.977,8.425-2.158,3.821-2.966,8.061-4.674,12.064-.873,2.046-1.958,4.303-4.112,5.265-2.473,1.104-5.708,.665-8.35,1.204-9.2,1.878-16.745,8.737-19.829,17.534-2.126,6.063,7.138,9.839,9.269,3.759h0Z" fill="#ffdc91"/></g><g id="CLAN_001_018_FRAG_004"><path d="M1378.001,617.798c20.292-11.331,45.816-11.574,65.93,.413,5.482,3.267,11.539-4.699,6.014-7.991-23.075-13.751-52.353-14.764-75.956-1.584-5.567,3.109-1.621,12.307,4.012,9.162h0Z" fill="#ffdc91"/></g><g id="CLAN_001_018_FRAG_005"><path d="M1474.61,597.539c11.056-.789,20.996,6.485,24.576,16.749,2.119,6.075,11.274,2.045,9.162-4.012-5.124-14.693-19.951-23.716-35.26-22.623-6.412,.458-4.873,10.343,1.522,9.886h0Z" fill="#ffdc91"/></g><g id="CLAN_001_018_FRAG_006"><path d="M1512.478,632.412c7.396,11.352,22.363,4.6,28.293-4.293,3.85-5.774,6.682-11.987,11.156-17.371,4.51-5.426,9.938-9.88,15.904-13.616,5.454-3.415-.798-11.228-6.203-7.843-8.905,5.576-16.684,13.024-22.413,21.858-2.476,3.818-12.456,24.944-18.894,15.062-3.517-5.397-11.334,.846-7.843,6.203h0Z" fill="#ffdc91"/></g><g id="CLAN_001_018_FRAG_007"><path d="M1581.141,612.875c18.454,17.819,47.908,15.319,63.988-4.215,4.102-4.983-3.91-10.972-7.991-6.014-12.934,15.712-35.588,16.138-49.982,2.238-4.628-4.469-10.588,3.575-6.014,7.991h0Z" fill="#ffdc91"/></g><g id="CLAN_001_018_FRAG_008"><path d="M1661.049,603.313c5.371,6.072,10.742,12.143,16.113,18.215,4.253,4.808,12.118-1.371,7.843-6.203-5.371-6.072-10.742-12.143-16.113-18.215-4.253-4.808-12.118,1.371-7.843,6.203h0Z" fill="#ffdc91"/></g><g id="CLAN_001_018_FRAG_009"><path d="M1706.094,632.2c5.826-3.049,10.094,6.584,13.028,10.116,3.004,3.615,6.821,6.4,11.252,8,8.962,3.235,19.063,1.681,26.524-4.234,5.049-4.003-1.152-11.848-6.203-7.843-7.434,5.893-18.363,4.681-24.235-2.777-5.878-7.465-13.341-18.198-24.378-12.423-5.669,2.966-1.711,12.156,4.012,9.162h0Z" fill="#ffdc91"/></g></g></svg>