<?xml version="1.0" encoding="UTF-8"?><svg xmlns="http://www.w3.org/2000/svg" viewBox="0 0 1920 1080"><g id="GRILLE"><g><line x1="935.831" y1="161.717" x2="37.023" y2="161.717" fill="none" stroke="#4ad0c9" stroke-linecap="square" stroke-linejoin="round" stroke-width=".5"/><line x1="935.831" y1="204.239" x2="37.023" y2="204.239" fill="none" stroke="#4ad0c9" stroke-linecap="square" stroke-linejoin="round" stroke-width=".5"/><line x1="935.831" y1="246.761" x2="37.023" y2="246.761" fill="none" stroke="#4ad0c9" stroke-linecap="square" stroke-linejoin="round" stroke-width=".5"/><line x1="935.831" y1="289.283" x2="37.023" y2="289.283" fill="none" stroke="#4ad0c9" stroke-linecap="square" stroke-linejoin="round" stroke-width=".5"/><line x1="935.831" y1="331.805" x2="37.023" y2="331.805" fill="none" stroke="#4ad0c9" stroke-linecap="square" stroke-linejoin="round" stroke-width=".5"/><line x1="935.831" y1="374.327" x2="37.023" y2="374.327" fill="none" stroke="#4ad0c9" stroke-linecap="square" stroke-linejoin="round" stroke-width=".5"/><line x1="935.831" y1="416.85" x2="37.023" y2="416.85" fill="none" stroke="#4ad0c9" stroke-linecap="square" stroke-linejoin="round" stroke-width=".5"/><line x1="935.831" y1="459.372" x2="37.023" y2="459.372" fill="none" stroke="#4ad0c9" stroke-linecap="square" stroke-linejoin="round" stroke-width=".5"/><line x1="935.831" y1="502.315" x2="37.023" y2="502.315" fill="none" stroke="#4ad0c9" stroke-linecap="square" stroke-linejoin="round" stroke-width=".5"/><line x1="935.831" y1="545.258" x2="37.023" y2="545.258" fill="none" stroke="#4ad0c9" stroke-linecap="square" stroke-linejoin="round" stroke-width=".5"/><line x1="935.831" y1="588.201" x2="37.023" y2="588.201" fill="none" stroke="#4ad0c9" stroke-linecap="square" stroke-linejoin="round" stroke-width=".5"/><line x1="935.831" y1="631.144" x2="37.023" y2="631.144" fill="none" stroke="#4ad0c9" stroke-linecap="square" stroke-linejoin="round" stroke-width=".5"/><line x1="935.831" y1="674.087" x2="37.023" y2="674.087" fill="none" stroke="#4ad0c9" stroke-linecap="square" stroke-linejoin="round" stroke-width=".5"/><line x1="935.831" y1="717.03" x2="37.023" y2="717.03" fill="none" stroke="#4ad0c9" stroke-linecap="square" stroke-linejoin="round" stroke-width=".5"/><line x1="935.831" y1="759.973" x2="37.023" y2="759.973" fill="none" stroke="#4ad0c9" stroke-linecap="square" stroke-linejoin="round" stroke-width=".5"/><line x1="935.831" y1="802.916" x2="37.023" y2="802.916" fill="none" stroke="#4ad0c9" stroke-linecap="square" stroke-linejoin="round" stroke-width=".5"/><line x1="935.831" y1="845.859" x2="37.023" y2="845.859" fill="none" stroke="#4ad0c9" stroke-linecap="square" stroke-linejoin="round" stroke-width=".5"/><line x1="935.831" y1="888.803" x2="37.023" y2="888.803" fill="none" stroke="#4ad0c9" stroke-linecap="square" stroke-linejoin="round" stroke-width=".5"/><line x1="935.831" y1="931.746" x2="37.023" y2="931.746" fill="none" stroke="#4ad0c9" stroke-linecap="square" stroke-linejoin="round" stroke-width=".5"/></g><g><line x1="1885.37" y1="161.717" x2="986.562" y2="161.717" fill="none" stroke="#4ad0c9" stroke-linecap="square" stroke-linejoin="round" stroke-width=".5"/><line x1="1885.37" y1="204.239" x2="986.562" y2="204.239" fill="none" stroke="#4ad0c9" stroke-linecap="square" stroke-linejoin="round" stroke-width=".5"/><line x1="1885.37" y1="246.761" x2="986.562" y2="246.761" fill="none" stroke="#4ad0c9" stroke-linecap="square" stroke-linejoin="round" stroke-width=".5"/><line x1="1885.37" y1="289.283" x2="986.562" y2="289.283" fill="none" stroke="#4ad0c9" stroke-linecap="square" stroke-linejoin="round" stroke-width=".5"/><line x1="1885.37" y1="331.805" x2="986.562" y2="331.805" fill="none" stroke="#4ad0c9" stroke-linecap="square" stroke-linejoin="round" stroke-width=".5"/><line x1="1885.37" y1="374.327" x2="986.562" y2="374.327" fill="none" stroke="#4ad0c9" stroke-linecap="square" stroke-linejoin="round" stroke-width=".5"/><line x1="1885.37" y1="416.85" x2="986.562" y2="416.85" fill="none" stroke="#4ad0c9" stroke-linecap="square" stroke-linejoin="round" stroke-width=".5"/><line x1="1885.37" y1="459.372" x2="986.562" y2="459.372" fill="none" stroke="#4ad0c9" stroke-linecap="square" stroke-linejoin="round" stroke-width=".5"/><line x1="1885.37" y1="502.315" x2="986.562" y2="502.315" fill="none" stroke="#4ad0c9" stroke-linecap="square" stroke-linejoin="round" stroke-width=".5"/><line x1="1885.37" y1="545.258" x2="986.562" y2="545.258" fill="none" stroke="#4ad0c9" stroke-linecap="square" stroke-linejoin="round" stroke-width=".5"/><line x1="1885.37" y1="588.201" x2="986.562" y2="588.201" fill="none" stroke="#4ad0c9" stroke-linecap="square" stroke-linejoin="round" stroke-width=".5"/><line x1="1885.37" y1="631.144" x2="986.562" y2="631.144" fill="none" stroke="#4ad0c9" stroke-linecap="square" stroke-linejoin="round" stroke-width=".5"/><line x1="1885.37" y1="674.087" x2="986.562" y2="674.087" fill="none" stroke="#4ad0c9" stroke-linecap="square" stroke-linejoin="round" stroke-width=".5"/><line x1="1885.37" y1="717.03" x2="986.562" y2="717.03" fill="none" stroke="#4ad0c9" stroke-linecap="square" stroke-linejoin="round" stroke-width=".5"/><line x1="1885.37" y1="759.973" x2="986.562" y2="759.973" fill="none" stroke="#4ad0c9" stroke-linecap="square" stroke-linejoin="round" stroke-width=".5"/><line x1="1885.37" y1="802.916" x2="986.562" y2="802.916" fill="none" stroke="#4ad0c9" stroke-linecap="square" stroke-linejoin="round" stroke-width=".5"/><line x1="1885.37" y1="845.859" x2="986.562" y2="845.859" fill="none" stroke="#4ad0c9" stroke-linecap="square" stroke-linejoin="round" stroke-width=".5"/><line x1="1885.37" y1="888.803" x2="986.562" y2="888.803" fill="none" stroke="#4ad0c9" stroke-linecap="square" stroke-linejoin="round" stroke-width=".5"/><line x1="1885.37" y1="931.746" x2="986.562" y2="931.746" fill="none" stroke="#4ad0c9" stroke-linecap="square" stroke-linejoin="round" stroke-width=".5"/></g></g><g id="FRAGMENTS"><path d="M76.73,202.282c6.412-3.244,13.872,.389,16.711,6.553,.891,1.933,3.769,2.817,5.688,2.194,7.338-2.384,16.161,.931,19.246,8.304,2.455,5.866,12.081,3.112,9.592-2.835-5.145-12.294-18.731-19.265-31.674-15.061l5.688,2.194c-5.265-11.431-19.584-15.389-30.457-9.888-5.741,2.904-.518,11.436,5.205,8.54h0Z" fill="#f37516"/><g id="CLAN_007_012_FRAG__002"><path d="M143.776,229.186c21.474-1.478,42.823,.441,63.675,5.789,6.243,1.601,8.716-8.091,2.481-9.69-21.653-5.554-44.037-7.633-66.339-6.097-6.397,.44-6.252,10.441,.184,9.998h0Z" fill="#f37516"/></g><g id="CLAN_007_012_FRAG__003"><path d="M237.779,234.682c4.092-3.594,7.49,5.437,8.213,7.938,.821,2.837,4.796,4.851,7.399,2.853,5.316-4.08,10.434-7.683,16.753-3.469,4.582,3.056,8.216,7.253,13.312,9.565,10.106,4.586,22.291,3.383,31.143-3.37,5.064-3.863-.078-12.452-5.205-8.54-4.676,3.567-10.264,5.357-16.169,4.518s-9.851-4.446-14.325-8.015c-4.104-3.274-8.576-6.178-14-6.358-6.384-.213-11.863,3.405-16.714,7.128l7.399,2.853c-1.635-5.653-4.353-11.329-9.856-14.099-5.211-2.623-10.853-1.717-15.15,2.057-4.842,4.253,2.39,11.164,7.2,6.94h0Z" fill="#f37516"/></g><g id="CLAN_007_012_FRAG__004"><path d="M333.28,232.349c7.031-4.27,14.702-1.573,18.267,5.65,1.553,3.147,5.645,2.758,7.87,.867,6.54-5.557,15.154-3.998,20.554,2.174,4.243,4.85,11.154-2.383,6.94-7.2-9.248-10.57-24.277-10.764-34.694-1.913l7.87,.867c-5.962-12.08-20.654-15.884-32.013-8.985-5.498,3.339-.312,11.891,5.205,8.54h0Z" fill="#f37516"/></g><g id="CLAN_007_012_FRAG__005"><path d="M408.82,223.01c6.182-6.022,11.072,2.113,14.76,6.072,4.676,5.02,11.99,2.728,18.053,4.24,7.125,1.777,13.963,4.396,21.176,5.889,7.263,1.504,14.65,2.339,22.056,2.659,6.433,.278,6.226-9.721-.184-9.998-8.66-.374-17.194-1.605-25.585-3.796-7.813-2.04-15.357-5.406-23.525-5.741-1.843-.076-3.591,.537-5.108-.645-.849-.662-1.757-2.55-2.484-3.414-2.2-2.615-4.929-4.648-8.099-5.915-6.449-2.576-13.32-1.103-18.259,3.709-4.619,4.5,2.591,11.43,7.2,6.94h0Z" fill="#f37516"/></g><g id="CLAN_007_012_FRAG__006"><path d="M508.368,245.349c12.961,.26,25.921,.52,38.882,.78,6.439,.129,6.244-9.869-.184-9.998-12.961-.26-25.921-.52-38.882-.78-6.439-.129-6.244,9.869,.184,9.998h0Z" fill="#f37516"/></g><g id="CLAN_007_012_FRAG__007"><path d="M573.911,235.537c4.066-3.538,10.081,2.297,13.004,4.786,3.802,3.236,7.662,6.083,12.434,7.72,9.874,3.387,20.675,1.378,30.617-.592,6.303-1.249,3.446-10.837-2.835-9.592-5.874,1.164-11.848,2.268-17.865,1.935-6.53-.361-11.142-3.064-16.025-7.199-7.736-6.552-17.659-11.717-26.53-3.997-4.86,4.23,2.374,11.14,7.2,6.94h0Z" fill="#f37516"/></g><g id="CLAN_007_012_FRAG__008"><path d="M648.538,230.543c10.945-9.613,19.215,6.921,27.262,11.82,11.307,6.883,25.096,4.644,37.247,1.772,6.26-1.479,3.423-11.071-2.835-9.592-7.405,1.75-15.227,3.464-22.802,1.729-7.156-1.639-10.643-6.276-15.524-11.212-8.601-8.699-21.222-9.647-30.548-1.457-4.842,4.252,2.39,11.164,7.2,6.94h0Z" fill="#f37516"/></g><g id="CLAN_007_012_FRAG__009"><path d="M733.425,241.237c15.118-1.958,30.311-2.968,45.555-3.03,6.438-.026,6.257-10.024-.184-9.998-15.244,.062-30.437,1.073-45.555,3.03-6.312,.817-6.199,10.825,.184,9.998h0Z" fill="#f37516"/></g><g id="CLAN_007_012_FRAG__010"><path d="M798.737,239.138c11.111,.047,22.206-.325,33.289-1.118,6.395-.457,6.251-10.458-.184-9.998-11.083,.792-22.178,1.165-33.289,1.118-6.439-.027-6.253,9.971,.184,9.998h0Z" fill="#f37516"/></g><g id="CLAN_007_012_FRAG__011"><path d="M852.325,238.022c15.055-.052,29.566,3.663,42.754,10.921,5.648,3.108,10.53-5.62,4.887-8.726-14.712-8.097-31.034-12.251-47.825-12.193-6.438,.022-6.256,10.02,.184,9.998h0Z" fill="#f37516"/></g><g id="CLAN_007_013_FRAG__001"><path d="M76.471,464.881c9.38-3.319,18.761-6.639,28.141-9.958,6.037-2.136,3.256-11.748-2.835-9.592-9.38,3.319-18.761,6.639-28.141,9.958-6.037,2.136-3.256,11.748,2.835,9.592h0Z" fill="#ef9b5e"/></g><g id="CLAN_007_013_FRAG__002"><path d="M126.25,441.902c11.955-10.707,21.621-23.985,27.896-38.776,3.177-7.488,5.171-15.099,7.092-22.979,.897-3.68,1.918-7.851,4.863-10.483,2.657-2.376,6.984-2.907,7.663,1.367,1.005,6.329,10.591,3.452,9.592-2.835-1.356-8.537-11.22-12.332-18.682-9.323-9.729,3.923-12.077,14.567-14.229,23.687-4.802,20.35-15.846,38.478-31.394,52.403-4.802,4.301,2.426,11.215,7.2,6.94h0Z" fill="#ef9b5e"/></g><g id="CLAN_007_013_FRAG__003"><path d="M191.235,440.371c3.629,5.218,8.006,10.871,14.477,12.548,6.983,1.809,13.699-2.012,18.594-6.716,4.713-4.53,7.9-10.519,9.299-16.878,.748-3.401,2.771-21.472,9.774-14.442,4.826,4.845,3.008,14.448,6.082,20.438,2.803,5.461,8.239,9.551,14.585,8.688,6.832-.928,11.732-7.163,15.573-12.35,4.625-6.247,7.972-13.123,10.307-20.527,1.94-6.151-7.761-8.596-9.69-2.481-1.667,5.285-15.396,34.395-21.925,22.096-2.912-5.485-1.85-12.348-4.567-18.018-2.226-4.646-6.223-8.524-11.488-9.215-5.055-.663-9.642,1.892-12.726,5.776-4.077,5.134-4.266,11.419-5.615,17.554-1.266,5.759-4.382,11.164-9.361,14.504-6.728,4.513-11.01-.765-14.778-6.183-3.657-5.258-12.229-.098-8.54,5.205h0Z" fill="#ef9b5e"/></g><g id="CLAN_007_013_FRAG__004"><path d="M317.96,452.526c8.677-8.37,19.659-16.525,32.31-12.309,2.638,.879,5.354-1.165,6.085-3.605,3.49-11.646,10.922-24.336,24.787-23.462,6.423,.405,6.205-9.595-.184-9.998-18.467-1.165-29.581,15.256-34.293,30.98l6.085-3.605c-16.143-5.38-30.811,4.275-41.991,15.059-4.642,4.478,2.571,11.405,7.2,6.94h0Z" fill="#ef9b5e"/></g><g id="CLAN_007_013_FRAG__005"><path d="M395.612,441.991c2.134,6.967,4.798,14.362,11.282,18.438,5.979,3.759,13.562,3.633,18.823-1.338,5.611-5.301,8.029-14.034,10.177-21.186,1.934-6.439,2.384-20.793,10.252-23.124,7.273-2.155,11.257,11.697,12.817,16.448,2.188,6.666,3.044,14.099,7.112,19.996,3.982,5.773,10.675,8.318,17.48,6.474,8.057-2.184,12.737-9.334,16.637-16.159,3.201-5.601-5.533-10.476-8.726-4.887-2.6,4.551-8.838,15.547-15.577,10.686-4.537-3.272-5.104-11.592-6.572-16.523-3.069-10.31-8.77-26.506-22.023-26.271-15.253,.271-17.403,17.955-20.569,29.097-1.419,4.995-3.755,17.341-9.561,19.288-7.21,2.418-10.535-9.122-11.96-13.774-1.881-6.142-11.484-3.339-9.592,2.835h0Z" fill="#ef9b5e"/></g><g id="CLAN_007_013_FRAG__006"><path d="M516.817,421.118c1.348-3.984,6.781-.201,8.118,1.554,2.604,3.419,3.588,7.989,4.701,12.057,2.151,7.865,4.574,16.03,11.054,21.488,13.568,11.428,35.97,9.569,52.117,6.508,6.31-1.196,3.449-10.784-2.835-9.592-10.653,2.02-22.43,2.691-33.043,.057-4.591-1.139-9.035-3.121-11.997-6.946-3.035-3.918-4.214-8.912-5.5-13.603-2.236-8.161-4.923-17.544-13.123-21.65-7.459-3.736-16.533-.182-19.181,7.646-2.066,6.107,7.639,8.541,9.69,2.481h0Z" fill="#ef9b5e"/></g><g id="CLAN_007_013_FRAG__007"><path d="M617.07,454.676c4.282-8.291,14.231-9.192,22.551-9.935,3.398-.304,5.422-3.088,4.704-6.417-4.298-19.923,8.886-38.373,28.546-42.17,6.307-1.218,3.448-10.806-2.835-9.592-25.308,4.888-40.665,29.743-35.303,54.598l4.704-6.417c-11.946,1.068-25.045,3.333-31.093,15.046-2.953,5.718,5.769,10.614,8.726,4.887h0Z" fill="#ef9b5e"/></g><g id="CLAN_007_013_FRAG__008"><path d="M688.038,452.599c16.011,6.664,31.705,1.337,46.841-5.101,5.847-2.487,3.095-12.115-2.835-9.592-11.99,5.1-26.135,11.371-39.119,5.967-5.884-2.449-10.821,6.256-4.887,8.726h0Z" fill="#ef9b5e"/></g><g id="CLAN_007_013_FRAG__009"><path d="M748.489,413.387c2.548-3.468,5.347-3.179,7.294,.315,2.156,3.869,3.712,8.171,5.513,12.215,3.832,8.603,7.664,17.206,11.496,25.808,2.61,5.859,11.131,.611,8.54-5.205-2.907-6.526-5.814-13.052-8.721-19.579-2.793-6.27-5.16-13.096-8.619-19.029-6.091-10.445-17.831-8.121-24.23,.587-3.809,5.184,4.962,10.01,8.726,4.887h0Z" fill="#ef9b5e"/></g><g id="CLAN_007_013_FRAG__010"><path d="M788.132,466.782c15.429,6.209,31.877-.983,36.865-17.069l-6.085,3.605c17.835,4.753,34.27-7.595,35.844-25.644,.559-6.404-9.444-6.172-9.998,.184-1.024,11.734-12.317,18.714-23.365,15.77-2.707-.721-5.291,1.042-6.085,3.605-2.904,9.365-13.01,14.557-22.288,10.823-5.901-2.375-10.844,6.329-4.887,8.726h0Z" fill="#ef9b5e"/></g><g id="CLAN_007_014_FRAG__001"><path d="M72.195,677.355h22.604c6.439,0,6.255-9.998-.184-9.998h-22.604c-6.439,0-6.255,9.998,.184,9.998h0Z" fill="#e46441"/></g><g id="CLAN_007_014_FRAG__002"><path d="M121.916,677.14c10.052-.324,20.104-.648,30.155-.972,6.427-.207,6.261-10.206-.184-9.998-10.052,.324-20.104,.648-30.155,.972-6.427,.207-6.261,10.206,.184,9.998h0Z" fill="#e46441"/></g><g id="CLAN_007_014_FRAG__003"><path d="M177.484,669.529c8.887-1.366,17.249-4.01,25.442-7.681,5.855-2.623,.608-11.144-5.205-8.54-7.347,3.291-15.128,5.408-23.072,6.629-6.331,.973-3.451,10.558,2.835,9.592h0Z" fill="#e46441"/></g><g id="CLAN_007_014_FRAG__004"><path d="M224.569,655.728c3.756-2.528,7.842-5.587,12.477-6.138,4.15-.494,7.479,2.71,11.566,1.795,3.498-.784,4.882-4.442,8.088-5.694,3.335-1.303,7.019-.536,9.601,1.858,4.721,4.377,11.67-2.814,6.94-7.2-7.142-6.621-18.719-7.134-25.988-.311-.578,.543-2.565,1.766-1.108,1.584,1.753-.219-1.575-1.178-1.998-1.306-2.864-.866-5.853-.94-8.793-.509-5.97,.877-11.072,4.069-15.991,7.38-5.32,3.581-.154,12.148,5.205,8.54h0Z" fill="#e46441"/></g><g id="CLAN_007_014_FRAG__005"><path d="M294.261,637.392c3.795-15.613,16.439-27.339,32.147-30.381,6.306-1.221,3.447-10.809-2.835-9.592-18.982,3.677-34.451,18.77-39.001,37.493-1.521,6.259,8.169,8.739,9.69,2.481h0Z" fill="#e46441"/></g><g id="CLAN_007_014_FRAG__006"><path d="M356.05,641.469c3.265-3.128,8.262-2.959,11.481,.113,1.998,1.907,5.125,1.766,7.07-.13,4.832-4.709,11.326-6.107,17.736-4.215,6.186,1.827,8.641-7.871,2.481-9.69-9.836-2.904-20.113-.153-27.417,6.965l7.07-.13c-7.25-6.92-18.434-6.738-25.62,.147-4.657,4.462,2.556,11.388,7.2,6.94h0Z" fill="#e46441"/></g><g id="CLAN_007_014_FRAG__007"><path d="M402.469,599.062c6.717,12.143,20.305,19.426,34.148,18.118,6.367-.602,6.235-10.605-.184-9.998-10.549,.997-20.28-4.025-25.424-13.325-3.116-5.634-11.657-.428-8.54,5.205h0Z" fill="#e46441"/></g><g id="CLAN_007_014_FRAG__008"><path d="M464.409,605.871c1.191-4.481,5.889-6.53,9.672-3.4,2.764,2.287,7.439,1.55,8.315-2.36,2.005-8.951,5.884-19.385,17.177-14.444,5.855,2.562,10.783-6.147,4.887-8.726-7.31-3.198-15.663-3.86-22.211,1.441-5.813,4.706-7.974,12.24-9.544,19.248l8.315-2.36c-9.465-7.832-23.079-4.006-26.302,8.119-1.656,6.231,8.037,8.699,9.69,2.481h0Z" fill="#e46441"/></g><g id="CLAN_007_014_FRAG__009"><path d="M522.685,596.279c7.615,1.464,6.998,11.2,7.269,17.153,.289,6.339,1.17,13.024,5.537,17.96,7.405,8.371,20.003,8.517,28.395,1.755,5.005-4.033-2.247-10.931-7.2-6.94-3.33,2.683-8.727,2.403-12.131,.018-4.815-3.373-4.491-10.287-4.686-15.505-.374-10.026-3.221-21.923-14.703-24.13-6.301-1.211-8.807,8.474-2.481,9.69h0Z" fill="#e46441"/></g><g id="CLAN_007_014_FRAG__010"><path d="M585.979,647.92c6.188-4.047,9.683,6.815,10.964,10.838,1.189,3.735,5.624,4.588,8.396,2.052,2.15-1.967,6.517-5.769,9.02-2.291,1.767,2.454,2.052,6.573,3.389,9.351,1.113,2.312,4.838,3.128,6.873,1.668,7.265-5.216,14.261,3.74,18.408,8.809,4.072,4.978,10.973-2.27,6.94-7.2-7.234-8.843-19.122-18.356-30.553-10.149l6.873,1.668c-2.876-5.974-2.985-12.914-10.59-15.055-6.781-1.909-12.763,1.872-17.56,6.26l8.396,2.052c-1.875-5.89-4.147-12.179-9.441-15.861-4.906-3.412-11.234-4.009-16.32-.682-5.373,3.514-.202,12.077,5.205,8.54h0Z" fill="#e46441"/></g><g id="CLAN_007_014_FRAG__011"><path d="M687.134,608.032c3.238-5.959,9.175-9.191,15.912-8.937,6.435,.243,6.231-9.756-.184-9.998-10.133-.382-19.629,5.171-24.454,14.048-3.077,5.663,5.65,10.548,8.726,4.887h0Z" fill="#e46441"/></g><g id="CLAN_007_014_FRAG__012"><path d="M733.097,688.155c12.084,1.259,24.182,1.365,36.286,.317,6.377-.552,6.241-10.555-.184-9.998-12.105,1.048-24.202,.942-36.286-.317-6.386-.665-6.145,9.339,.184,9.998h0Z" fill="#e46441"/></g><g id="CLAN_007_014_FRAG__013"><path d="M826.614,675.064c-9.052,2.773-18.137,3.85-27.589,3.354-6.429-.337-6.217,9.662,.184,9.998,10.257,.538,20.422-.753,30.24-3.76,6.142-1.882,3.339-11.484-2.835-9.592h0Z" fill="#e46441"/></g><g id="CLAN_007_014_FRAG__014"><path d="M848.366,614.698c-3.042,15.534,13.562,27.714,27.073,18.324-2.483-1.837-4.965-3.674-7.448-5.51-2.522,8.055-3.927,19.754,1.606,26.966,5.376,7.008,14.582,5.411,21.788,2.643l-6.263-6.036c-5.581,17.504,11.818,34.051,28.992,27.048,5.897-2.404,3.138-12.028-2.835-9.592-10.191,4.156-19.868-4.309-16.467-14.975,1.111-3.484-2.768-7.379-6.263-6.036s-9.818,4.21-11.75-.569c-2.079-5.142-.698-11.922,.882-16.966,1.273-4.067-3.908-7.97-7.448-5.51-5.78,4.017-13.651,.217-12.178-7.303,1.234-6.299-8.452-8.803-9.69-2.481h0Z" fill="#e46441"/></g><g id="CLAN_007_015_FRAG__001"><path d="M72.196,806.835c8.649,7.265,11.652,18.576,16.517,28.349,5.033,10.111,12.905,18.873,24.548,20.815,5.87,.979,11.945,.395,17.442-1.913,2.828-1.188,5.326-2.723,7.678-4.688,2.279-1.903,4.61-5.049,7.899-4.237,6.623,1.635,7.482,11.822,8.855,17.194,1.868,7.305,4.369,14.42,7.408,21.317,5.489,12.456,15.904,27.001,31.367,19.559,5.792-2.787,.559-11.314-5.205-8.54-8.275,3.982-14.012-8.211-16.611-13.963-3.803-8.418-6.322-17.151-8.542-26.088-1.789-7.202-4.671-14.394-11.658-17.991-6.573-3.384-12.829-1.077-18.071,3.474-5.589,4.853-12.024,7.479-19.496,5.918-7.065-1.476-11.771-6.547-15.223-12.568-6.574-11.467-9.442-24.995-19.971-33.839-4.908-4.123-11.879,3.051-6.94,7.2h0Z" fill="#fb2727"/></g><g id="CLAN_007_015_FRAG__002"><path d="M234.867,888.047c-1.229-13.055,15.054-12.143,23.218-9.245,3.169,1.125,6.228-1.946,6.239-4.937,.018-4.857-.063-10.81,2.715-15.046,3.909-5.962,11.569-3.48,17.203-1.801,3.132,.933,6.304-1.792,6.239-4.937-.301-14.729,13.25-24.53,27.172-20.212,6.161,1.911,8.608-7.789,2.481-9.69-20.152-6.25-40.079,9.139-39.651,30.086l6.239-4.937c-8.924-2.659-19.257-4.143-26.186,3.557-5.573,6.193-6.18,15.241-6.21,23.164l6.239-4.937c-8.094-2.873-17.314-3.841-25.139,.386-6.738,3.64-11.285,11.016-10.558,18.733,.599,6.367,10.603,6.235,9.998-.184h0Z" fill="#fb2727"/></g><g id="CLAN_007_015_FRAG__003"><path d="M338.988,873.183c10.262,8.699,25.663,8.849,35.001-1.489,4.186-4.633,5.794-10.417,8.196-16.026,3.153-7.359,8.197-9.552,16.017-9.608,6.437-.046,6.258-10.044-.184-9.998-6.02,.043-12.203,.949-17.141,4.649-4.227,3.168-6.547,7.79-8.447,12.59-2.057,5.196-3.721,10.878-8.68,14.078-5.652,3.647-12.76,2.897-17.823-1.395-4.892-4.147-11.861,3.029-6.94,7.2h0Z" fill="#fb2727"/></g><g id="CLAN_007_015_FRAG__004"><path d="M444.012,822.936c4.033-2.856,9.101-1.019,11.993,2.677,3.266,4.173,4.077,9.99,4.642,15.087,.406,3.661,4.133,6.293,7.602,4.178,1.945-1.186,3.958-2.415,6.202-2.941,3.379-.792,4.161,.792,5.266,3.739,2.138,5.705,3.563,11.727,4.379,17.757,.671,4.961,6.433,6.629,9.362,2.352,3.118-4.553,9.022-3.849,12.249,.033,3.258,3.92,4.264,9.492,5.52,14.282,2.467,9.404,7.27,20.029,17.895,21.93,6.307,1.129,8.82-8.556,2.481-9.69-6.502-1.163-8.888-8.123-10.451-13.79-1.649-5.979-2.949-12.239-6.518-17.45-7.462-10.894-22.393-11.165-29.902-.203,3.121,.784,6.241,1.568,9.362,2.352-.689-5.094-1.607-10.127-3.044-15.067-1.236-4.249-2.562-9.501-5.752-12.776-6.362-6.532-15.554-3.152-22.254,.932l7.602,4.178c-.963-8.685-2.753-18.249-9.789-24.207-6.113-5.177-15.294-6.698-22.05-1.913-5.221,3.698-.065,12.273,5.205,8.54h0Z" fill="#fb2727"/></g><g id="CLAN_007_015_FRAG__005"><path d="M562.031,887.587c10.173-.9,20.947-2.207,28.845-9.343,7.476-6.756,9.935-17.086,10.34-26.781,.51-12.207-2.161-24.315-2.241-36.514-.035-5.356,.233-11.304,3.071-16.027,2.731-4.544,8.285-7.318,13.067-4.157,5.381,3.558,10.227-5.195,4.887-8.726-8.79-5.812-20.295-1.537-25.852,6.685-6.654,9.846-5.493,23.318-4.487,34.522,1.034,11.517,3.544,24.239-.375,35.485-4.192,12.03-16.275,13.871-27.44,14.859-6.375,.564-6.24,10.567,.184,9.998h0Z" fill="#fb2727"/></g><g id="CLAN_007_015_FRAG__006"><path d="M643.839,858.946c10.637,14.478,29.525,9.626,40.71-1.369,6.027-5.925,10.726-13.248,13.214-21.339,2.887-9.386,2.934-19.363,6.158-28.677,2.108-6.091-7.599-8.522-9.69-2.481-4.517,13.048-3.195,27.529-11.441,39.226-5.69,8.07-21.617,21.403-30.411,9.435-3.78-5.145-12.362,.004-8.54,5.205h0Z" fill="#fb2727"/></g><g id="CLAN_007_015_FRAG__007"><path d="M728.225,853.292c5.39-6.203,9.973,5.017,10.449,9.112,.863,7.426-.309,14.885,2.477,22.037,4.491,11.529,17.718,19.39,29.187,11.941,5.386-3.498,.213-12.059-5.205-8.54-7.12,4.624-13.641-2.52-15.34-9.148-1.857-7.248-.173-14.938-2.064-22.229-1.504-5.799-5.029-11.25-10.756-13.522-5.541-2.198-11.953-1.187-15.948,3.41-4.212,4.847,2.968,11.81,7.2,6.94h0Z" fill="#fb2727"/></g><g id="CLAN_007_015_FRAG__008"><path d="M806.038,841.988c.91-2.282,2.688-6.512,5.729-5.341,3.464,1.334,3.734,7.201,4.043,10.154,.488,4.669,6.84,7.013,9.362,2.352,3.917-7.238,11.709,1.328,13.662,5.496,3.341,7.129,4.01,15.393,5.504,23.026,2.574,13.154,8.327,25.836,21.499,31.015,5.983,2.353,8.394-7.365,2.481-9.69-16.802-6.607-13.992-32.615-19.541-46.366-2.721-6.744-7.364-13.45-14.772-15.434-6.761-1.811-14.183,.826-17.559,7.065,3.121,.784,6.241,1.568,9.362,2.352-.865-8.264-3.307-18.118-12.783-20.057-8.758-1.793-13.878,5.922-16.678,12.948-2.379,5.97,7.339,8.379,9.69,2.481h0Z" fill="#fb2727"/></g><g id="CLAN_007_016_FRAG__001"><path d="M1040.468,325.751c22.246-6.345,45.537-7.297,68.211-2.679,6.294,1.282,8.794-8.404,2.481-9.69-24.431-4.976-49.544-4.064-73.527,2.777-6.183,1.764-3.37,11.362,2.835,9.592h0Z" fill="#ffb17d"/></g><g id="CLAN_007_016_FRAG__002"><path d="M1137.566,327.476c14.469-3.616,32.282-8.176,45.652,1.188,5.97,4.182,9.22,8.167,17.121,7.75,7.064-.373,13.128,.37,17.595,6.591,3.729,5.193,12.307,.04,8.54-5.205-4.487-6.248-10.895-10.521-18.616-11.487-3.577-.447-8.249,1.124-11.618-.082-3.397-1.216-6.319-5.246-9.472-7.142-15.919-9.577-35.175-5.419-52.038-1.204-6.241,1.56-3.411,11.153,2.835,9.592h0Z" fill="#ffb17d"/></g><g id="CLAN_007_016_FRAG__003"><path d="M1256.41,308.976c.219-4.355,5.237-3.061,5.051,.842l9.998-.184c-.284-2.15,1.134-3.584,3.35-2.677,1.936,.793,2.492,3.218,2.8,5.033,.984,5.794,9.625,3.839,9.795-1.51,.151-4.753,5.267-3.82,6.115,.037,1.38,6.28,10.97,3.435,9.592-2.835-1.424-6.48-7.507-11.24-14.222-10.485-6.911,.778-11.273,6.861-11.483,13.467l9.795-1.51c-1.127-6.636-6.684-12.671-13.749-12.588-6.864,.081-12.908,6.317-11.991,13.251,.832,6.294,9.686,6.367,9.998-.184,.32-6.709-4.761-12.96-11.586-13.474-7.635-.575-13.101,5.832-13.462,13-.323,6.43,9.676,6.219,9.998-.184h0Z" fill="#ffb17d"/></g><g id="CLAN_007_016_FRAG__004"><path d="M1334.692,316.475c12.11-3.831,22.987-9.931,32.712-18.077,4.934-4.133-2.308-11.037-7.2-6.94-8.356,6.999-17.97,12.141-28.347,15.424-6.122,1.937-3.323,11.541,2.835,9.592h0Z" fill="#ffb17d"/></g><g id="CLAN_007_016_FRAG__005"><path d="M1395.276,306.273c2.416-3.889,4.833-7.779,7.249-11.668,.933-1.502,5.638-10.456,7.39-8.575,2.534,2.721,7.544,1.213,8.315-2.36,2.025-9.38,10.341-14.777,17.707-19.948,7.158-5.025,14.145-10.473,17.956-18.567,2.732-5.803-5.982-10.716-8.726-4.887-4.247,9.021-13.082,13.6-20.706,19.378-7.348,5.57-13.914,12.243-15.922,21.544l8.315-2.36c-12.721-13.661-25.506,14.832-30.305,22.555-3.406,5.483,5.338,10.341,8.726,4.887h0Z" fill="#ffb17d"/></g><g id="CLAN_007_016_FRAG__006"><path d="M1480.557,260.755c10.177-9.447,25.118-8.107,34.201,2.043,1.839,2.055,5.251,1.647,7.07-.13,4.52-4.419,11.296,2.843,14.631,5.545,4.481,3.63,8.889,6.063,14.691,6.601,6.398,.593,6.164-9.41-.184-9.998-7.226-.67-12.269-8.977-18.738-11.813-6.043-2.649-12.811-1.956-17.6,2.726l7.07-.13c-12.854-14.365-34.408-14.716-48.34-1.782-4.726,4.387,2.494,11.308,7.2,6.94h0Z" fill="#ffb17d"/></g><g id="CLAN_007_016_FRAG__007"><path d="M1574.75,303.421c2.706-2.288,6.582-.506,8.02,2.223,1.398,2.654,5.942,3.333,7.87,.867,4.016-5.136,10.528-6.214,15.939-2.522,5.326,3.634,10.166-5.124,4.887-8.726-8.767-5.983-21.475-4.069-28.026,4.309l7.87,.867c-4.705-8.932-16.414-10.167-23.76-3.957-4.917,4.157,2.324,11.062,7.2,6.94h0Z" fill="#ffb17d"/></g><g id="CLAN_007_016_FRAG__008"><path d="M1623.048,326.116c10.94,6.966,24.812,7.016,35.966,.523,5.562-3.238,.368-11.785-5.205-8.54-8.21,4.78-17.911,4.362-25.873-.708-5.444-3.466-10.297,5.281-4.887,8.726h0Z" fill="#ffb17d"/></g><g id="CLAN_007_016_FRAG__009"><path d="M1689.25,315.116c1.699-5.408,8.27-6.148,11.332-1.49,2.917,4.438,8.789,2.072,9.269-2.695,.508-5.039,.999-11.019,4.335-15.122,1.179-1.45,2.865-2.896,4.731-3.331,2.02-.471,5.942,.75,5.569,3.556-.674,5.071,6.702,9.352,9.208,3.684,1.728-3.908,2.596-7.794,3.2-12.011,.598-4.174,.973-8.68,3.533-12.201,2.819-3.879,7.015-3.261,9.593,.641,2.639,3.994,2.343,9.388,2.343,13.967,0,3.446,3.331,5.374,6.417,4.704,4.743-1.03,9.939,2.186,11.595,6.698,.861,2.348,.069,4.736,1.628,6.844,1.765,2.385,5.463,4.162,7.826,5.944,10.79,8.134,21.04,16.95,30.787,26.305,4.649,4.462,11.591-2.736,6.94-7.2-12.285-11.79-25.4-22.598-39.239-32.513l2.555,4.271c.268-13.095-12.443-22.653-24.928-19.941l6.417,4.704c0-6.727-.278-13.865-4.205-19.619-3.563-5.219-9.883-8.72-16.268-7.297-5.815,1.296-9.885,5.969-12.121,11.288-2.765,6.576-1.924,14.028-4.798,20.528l9.208,3.684c1.449-10.899-9.043-19.012-19.404-15.177-11.514,4.261-13.839,17.058-14.919,27.778l9.269-2.695c-7.931-12.065-25.265-9.468-29.562,4.215-1.933,6.154,7.768,8.599,9.69,2.481h0Z" fill="#ffb17d"/></g><g id="CLAN_007_017_FRAG__001"><path d="M1018.365,584.3c6.969-.429,13.939-.858,20.908-1.287,6.404-.394,6.255-10.395-.184-9.998-6.969,.429-13.939,.858-20.908,1.287-6.404,.394-6.255,10.395,.184,9.998h0Z" fill="#fbbf08"/></g><g id="CLAN_007_017_FRAG__002"><path d="M1060.076,582.33l39.548-3.252c6.382-.525,6.244-10.527-.184-9.998l-39.548,3.252c-6.382,.525-6.244,10.527,.184,9.998h0Z" fill="#fbbf08"/></g><g id="CLAN_007_017_FRAG__003"><path d="M1119.306,577.709c8.715-.962,17.429-1.924,26.144-2.886,6.344-.7,6.221-10.705-.184-9.998-8.715,.962-17.429,1.924-26.144,2.886-6.344,.7-6.221,10.705,.184,9.998h0Z" fill="#fbbf08"/></g><g id="CLAN_007_017_FRAG__004"><path d="M1167.683,572.284c8.91-2.406,17.879-3.716,27.106-3.977,6.429-.181,6.261-10.18-.184-9.998-10.079,.284-20.023,1.754-29.757,4.383-6.209,1.677-3.389,11.273,2.835,9.592h0Z" fill="#fbbf08"/></g><g id="CLAN_007_017_FRAG__005"><path d="M1221.404,564.4c5.023-4.252,12.569-3.337,17.041,1.146,1.911,1.916,5.216,1.783,7.07-.13,5.284-5.454,14.494-6.788,20.772-2.098,5.094,3.805,12.091-3.352,6.94-7.2-10.659-7.962-25.484-7.374-34.912,2.358l7.07-.13c-8.595-8.617-22.075-8.593-31.18-.885-4.914,4.16,2.326,11.066,7.2,6.94h0Z" fill="#fbbf08"/></g><g id="CLAN_007_017_FRAG__006"><path d="M1294.326,560.4c4.734-6.458,14.124-7.234,20.516-3.079,2.63,1.709,6.679-.09,7.289-3.123,1.386-6.897,8.05-11.765,15.094-10.221,6.282,1.377,8.774-8.311,2.481-9.69-12.121-2.657-24.785,5.091-27.265,17.431l7.289-3.123c-11.391-7.404-26.324-3.73-34.129,6.918-3.804,5.189,4.967,10.016,8.726,4.887h0Z" fill="#fbbf08"/></g><g id="CLAN_007_017_FRAG__007"><path d="M1355.231,528.722c7.333,14.341,23.572,23.055,39.583,21.081,6.323-.779,6.207-10.786-.184-9.998-12.836,1.582-24.959-4.749-30.858-16.288-2.929-5.729-11.462-.508-8.54,5.205h0Z" fill="#fbbf08"/></g><g id="CLAN_007_017_FRAG__008"><path d="M1412.29,554.49c12.812,20.229,43.502,18.808,53.31-3.537,2.569-5.853-6.14-10.78-8.726-4.887-6.666,15.187-26.913,17.636-36.044,3.22-3.439-5.429-11.996-.251-8.54,5.205h0Z" fill="#fbbf08"/></g><g id="CLAN_007_017_FRAG__009"><path d="M1489.494,573.888c10.76,4.596,23.024,4.325,33.159-1.869,4.358-2.663,7.866-6.442,11.372-10.093,3.467-3.61,7.33-8.032,12.62-8.618,6.343-.703,6.22-10.708-.184-9.998-9.899,1.097-15.877,7.938-22.494,14.655-7.863,7.982-18.797,11.806-29.586,7.197-5.87-2.507-10.802,6.2-4.887,8.726h0Z" fill="#fbbf08"/></g><g id="CLAN_007_017_FRAG__010"><path d="M1571.178,575.771c11.409,.116,22.819,.233,34.228,.349,6.439,.066,6.25-9.933-.184-9.998-11.409-.116-22.819-.233-34.228-.349-6.439-.066-6.25,9.933,.184,9.998h0Z" fill="#fbbf08"/></g><g id="CLAN_007_017_FRAG__011"><path d="M1631.736,576.535c4.992-3.846,11.726-4.288,16.657-.016,2.954,2.559,7.11,1.291,8.315-2.36,2.208-6.687,9.376-11.041,16.333-9.833,6.309,1.096,8.824-8.588,2.481-9.69-12.577-2.185-24.496,4.901-28.504,17.042l8.315-2.36c-8.077-6.998-20.159-7.983-28.802-1.324-5.042,3.884,.098,12.475,5.205,8.54h0Z" fill="#fbbf08"/></g><g id="CLAN_007_017_FRAG__012"><path d="M1695.105,583.576l28.14,1.587c6.427,.362,6.212-9.638-.184-9.998l-28.14-1.587c-6.427-.362-6.212,9.638,.184,9.998h0Z" fill="#fbbf08"/></g><g id="CLAN_007_017_FRAG__013"><path d="M1740.402,564.552c7.549,.457,15.099,.913,22.648,1.37,6.425,.389,6.208-9.612-.184-9.998-7.549-.457-15.099-.913-22.648-1.37-6.425-.389-6.208,9.612,.184,9.998h0Z" fill="#fbbf08"/></g><g id="CLAN_007_017_FRAG__014"><path d="M1782.938,589.088l23.398-.614c6.43-.169,6.261-10.167-.184-9.998l-23.398,.614c-6.43,.169-6.261,10.167,.184,9.998h0Z" fill="#fbbf08"/></g><g id="CLAN_007_017_FRAG__015"><path d="M1821.076,574.954c13.978,2.462,26.635,9.718,35.308,21.053,3.869,5.057,12.458-.084,8.54-5.205-10.229-13.369-24.714-22.605-41.367-25.538-6.308-1.111-8.822,8.573-2.481,9.69h0Z" fill="#fbbf08"/></g><g id="CLAN_007_018_FRAG__001"><path d="M1029.975,842.928c3.679-5.136,10.232-6.895,16.134-5.242,2.789,.781,5.177-1.111,6.085-3.605,3.941-10.823,15.999-17.898,27.365-16.101,2.406,.38,5.719-.732,6.085-3.605,1.525-11.966,7.98-28.27,22.844-20.418,10.145,5.359,19.946,13.471,31.735,7.232,5.689-3.011,.475-11.547-5.205-8.54-6.539,3.461-14.105-3.057-19.441-6.179-5.638-3.299-11.826-5.68-18.436-4.354-13.978,2.804-19.584,17.192-21.188,29.78l6.085-3.605c-17.139-2.71-33.603,7.018-39.536,23.311l6.085-3.605c-10.557-2.955-21.064,1.282-27.34,10.045-3.75,5.235,5.017,10.066,8.726,4.887h0Z" fill="#ffdc91"/></g><g id="CLAN_007_018_FRAG__002"><path d="M1161.001,774.073c2.053-2.302,4.998-3.2,8-2.218,3.293,1.077,4.272,4.215,5.104,7.256,1.674,6.12,2.659,12.728,8.372,16.522,7.687,5.104,15.729,.842,23.395-1.693,12.163-4.021,14.518,7.926,15.29,17.378,.521,6.383,10.523,6.245,9.998-.184-.817-10.002-2.725-21.687-12.78-26.602-4.888-2.389-10.325-1.887-15.344-.184-4.466,1.515-12.372,6.548-16.254,1.744-2.397-2.966-2.456-8.112-3.621-11.64-1.306-3.954-3.296-7.553-6.789-9.956-6.986-4.806-16.925-3.693-22.571,2.637-4.279,4.797,2.905,11.755,7.2,6.94h0Z" fill="#ffdc91"/></g><g id="CLAN_007_018_FRAG__003"><path d="M1256.529,821.785c22.478-.501,42.862-17.832,46.349-40.178,.985-6.313-8.698-8.838-9.69-2.481-2.812,18.022-18.472,32.251-36.843,32.661-6.432,.143-6.261,10.142,.184,9.998h0Z" fill="#ffdc91"/></g><g id="CLAN_007_018_FRAG__004"><path d="M1320.839,769.483c-.225-5.335,6.91-6.095,7.178-.596,.279,5.729,8.144,6.516,9.844,1.148,2.957-9.335,14.543-6.74,16.029,1.94,1.083,6.323,10.669,3.452,9.592-2.835-1.401-8.181-8.617-14.806-16.987-15.19-8.607-.395-15.815,5.681-18.325,13.605l9.844,1.148c-.362-7.438-6.31-14.096-14.103-13.849-7.701,.244-13.383,7.407-13.071,14.813,.27,6.42,10.27,6.26,9.998-.184h0Z" fill="#ffdc91"/></g><g id="CLAN_007_018_FRAG__005"><path d="M1381.506,773.29c1.434-4.915,6.683-8.682,11.889-7.387,5.403,1.344,7.946,6.814,7.404,11.972-.552,5.261,7.03,6.204,9.362,2.352,2.85-4.708,9.854-3.982,13.864-1.24,5.752,3.933,8.732,11.196,11.508,17.301,2.656,5.843,11.179,.599,8.54-5.205-4.196-9.229-9.476-19.456-19.715-22.996-8.455-2.923-18.161-.617-22.924,7.252,3.121,.784,6.241,1.568,9.362,2.352,1.048-9.979-6.234-20.04-16.229-21.735-10.249-1.738-19.912,5.119-22.753,14.853-1.807,6.192,7.89,8.648,9.69,2.481h0Z" fill="#ffdc91"/></g><g id="CLAN_007_018_FRAG__006"><path d="M1464.192,800.313c3.839-3.708,9.621-3.628,14.587-2.886,6.647,.992,13.182,3.095,19.981,2.506,11.828-1.025,20.239-9.775,27.483-18.332,4.143-4.894-3.032-11.863-7.2-6.94-3.769,4.452-7.643,9.145-12.624,12.293-6.22,3.931-12.654,3.211-19.568,1.856-10.406-2.039-21.55-3.461-29.859,4.564-4.639,4.48,2.573,11.408,7.2,6.94h0Z" fill="#ffdc91"/></g><g id="CLAN_007_018_FRAG__007"><path d="M1556.096,801.329c10.133-7.638,19.242-16.324,27.167-26.243,3.989-4.993-3.178-11.974-7.2-6.94-7.369,9.223-15.74,17.532-25.173,24.643-5.09,3.837,.054,12.423,5.205,8.54h0Z" fill="#ffdc91"/></g><g id="CLAN_007_018_FRAG__008"><path d="M1603.341,762.804c.443-5.259,6.292-6.564,9.772-3.274,2.899,2.74,7.108,1.14,8.315-2.36,2.87-8.324,8.346-22.473,19.781-18.406,6.07,2.159,8.497-7.55,2.481-9.69-7.216-2.567-14.922-.103-20.51,4.839-6.082,5.379-8.87,13.316-11.442,20.776l8.315-2.36c-10.288-9.723-25.561-2.984-26.71,10.658-.54,6.406,9.462,6.176,9.998-.184h0Z" fill="#ffdc91"/></g><g id="CLAN_007_018_FRAG__009"><path d="M1652.793,753.816c-2.744,19.419,10.513,36.098,30.115,37.542,6.415,.473,6.191-9.529-.184-9.998-12.679-.934-22.026-12.43-20.241-25.064,.892-6.313-8.791-8.846-9.69-2.481h0Z" fill="#ffdc91"/></g><g id="CLAN_007_018_FRAG__010"><path d="M1711.45,770.812c1.322-7.661,11.146-10.792,14.994-2.904,2.96,6.066,.988,13.85,3.211,20.241s7.485,10.768,14.154,11.838c7.746,1.242,14.486-2.13,20.36-6.858,5.007-4.03-2.245-10.928-7.2-6.94-6.791,5.467-16.907,5.968-18.582-4.245-1.181-7.2-.098-14.69-4.51-21.026-9.108-13.081-29.461-7.981-32.118,7.413-1.089,6.309,8.595,8.825,9.69,2.481h0Z" fill="#ffdc91"/></g><g id="CLAN_007_018_FRAG__011"><path d="M1787.096,788.017c2.045-3.085,7.216-.926,9.116,1.213,3.462,3.9,3.83,10.158,4.304,15.074,.325,3.373,4.318,6.676,7.602,4.178,10.765-8.189,17.522,11.019,20.063,17.984,3.488,9.561,8.787,18.943,19.238,21.827,6.216,1.715,8.68-7.98,2.481-9.69-12.283-3.389-12.891-21.497-18.829-30.655-5.794-8.935-18.574-15.297-28.158-8.006l7.602,4.178c-.876-9.078-2.413-20.024-11.117-25.073-7.196-4.174-16.327-3.006-21.027,4.082-3.565,5.377,5.189,10.222,8.726,4.887h0Z" fill="#ffdc91"/></g></g></svg>