<?xml version="1.0" encoding="UTF-8"?><svg xmlns="http://www.w3.org/2000/svg" viewBox="0 0 1920 1080"><g id="GRILLE"><g><line x1="935.831" y1="161.717" x2="37.023" y2="161.717" fill="none" stroke="#4ad0c9" stroke-linecap="square" stroke-linejoin="round" stroke-width=".5"/><line x1="935.831" y1="204.239" x2="37.023" y2="204.239" fill="none" stroke="#4ad0c9" stroke-linecap="square" stroke-linejoin="round" stroke-width=".5"/><line x1="935.831" y1="246.761" x2="37.023" y2="246.761" fill="none" stroke="#4ad0c9" stroke-linecap="square" stroke-linejoin="round" stroke-width=".5"/><line x1="935.831" y1="289.283" x2="37.023" y2="289.283" fill="none" stroke="#4ad0c9" stroke-linecap="square" stroke-linejoin="round" stroke-width=".5"/><line x1="935.831" y1="331.805" x2="37.023" y2="331.805" fill="none" stroke="#4ad0c9" stroke-linecap="square" stroke-linejoin="round" stroke-width=".5"/><line x1="935.831" y1="374.327" x2="37.023" y2="374.327" fill="none" stroke="#4ad0c9" stroke-linecap="square" stroke-linejoin="round" stroke-width=".5"/><line x1="935.831" y1="416.85" x2="37.023" y2="416.85" fill="none" stroke="#4ad0c9" stroke-linecap="square" stroke-linejoin="round" stroke-width=".5"/><line x1="935.831" y1="459.372" x2="37.023" y2="459.372" fill="none" stroke="#4ad0c9" stroke-linecap="square" stroke-linejoin="round" stroke-width=".5"/><line x1="935.831" y1="502.315" x2="37.023" y2="502.315" fill="none" stroke="#4ad0c9" stroke-linecap="square" stroke-linejoin="round" stroke-width=".5"/><line x1="935.831" y1="545.258" x2="37.023" y2="545.258" fill="none" stroke="#4ad0c9" stroke-linecap="square" stroke-linejoin="round" stroke-width=".5"/><line x1="935.831" y1="588.201" x2="37.023" y2="588.201" fill="none" stroke="#4ad0c9" stroke-linecap="square" stroke-linejoin="round" stroke-width=".5"/><line x1="935.831" y1="631.144" x2="37.023" y2="631.144" fill="none" stroke="#4ad0c9" stroke-linecap="square" stroke-linejoin="round" stroke-width=".5"/><line x1="935.831" y1="674.087" x2="37.023" y2="674.087" fill="none" stroke="#4ad0c9" stroke-linecap="square" stroke-linejoin="round" stroke-width=".5"/><line x1="935.831" y1="717.03" x2="37.023" y2="717.03" fill="none" stroke="#4ad0c9" stroke-linecap="square" stroke-linejoin="round" stroke-width=".5"/><line x1="935.831" y1="759.973" x2="37.023" y2="759.973" fill="none" stroke="#4ad0c9" stroke-linecap="square" stroke-linejoin="round" stroke-width=".5"/><line x1="935.831" y1="802.916" x2="37.023" y2="802.916" fill="none" stroke="#4ad0c9" stroke-linecap="square" stroke-linejoin="round" stroke-width=".5"/><line x1="935.831" y1="845.859" x2="37.023" y2="845.859" fill="none" stroke="#4ad0c9" stroke-linecap="square" stroke-linejoin="round" stroke-width=".5"/><line x1="935.831" y1="888.803" x2="37.023" y2="888.803" fill="none" stroke="#4ad0c9" stroke-linecap="square" stroke-linejoin="round" stroke-width=".5"/><line x1="935.831" y1="931.746" x2="37.023" y2="931.746" fill="none" stroke="#4ad0c9" stroke-linecap="square" stroke-linejoin="round" stroke-width=".5"/></g><g><line x1="1885.37" y1="161.717" x2="986.562" y2="161.717" fill="none" stroke="#4ad0c9" stroke-linecap="square" stroke-linejoin="round" stroke-width=".5"/><line x1="1885.37" y1="204.239" x2="986.562" y2="204.239" fill="none" stroke="#4ad0c9" stroke-linecap="square" stroke-linejoin="round" stroke-width=".5"/><line x1="1885.37" y1="246.761" x2="986.562" y2="246.761" fill="none" stroke="#4ad0c9" stroke-linecap="square" stroke-linejoin="round" stroke-width=".5"/><line x1="1885.37" y1="289.283" x2="986.562" y2="289.283" fill="none" stroke="#4ad0c9" stroke-linecap="square" stroke-linejoin="round" stroke-width=".5"/><line x1="1885.37" y1="331.805" x2="986.562" y2="331.805" fill="none" stroke="#4ad0c9" stroke-linecap="square" stroke-linejoin="round" stroke-width=".5"/><line x1="1885.37" y1="374.327" x2="986.562" y2="374.327" fill="none" stroke="#4ad0c9" stroke-linecap="square" stroke-linejoin="round" stroke-width=".5"/><line x1="1885.37" y1="416.85" x2="986.562" y2="416.85" fill="none" stroke="#4ad0c9" stroke-linecap="square" stroke-linejoin="round" stroke-width=".5"/><line x1="1885.37" y1="459.372" x2="986.562" y2="459.372" fill="none" stroke="#4ad0c9" stroke-linecap="square" stroke-linejoin="round" stroke-width=".5"/><line x1="1885.37" y1="502.315" x2="986.562" y2="502.315" fill="none" stroke="#4ad0c9" stroke-linecap="square" stroke-linejoin="round" stroke-width=".5"/><line x1="1885.37" y1="545.258" x2="986.562" y2="545.258" fill="none" stroke="#4ad0c9" stroke-linecap="square" stroke-linejoin="round" stroke-width=".5"/><line x1="1885.37" y1="588.201" x2="986.562" y2="588.201" fill="none" stroke="#4ad0c9" stroke-linecap="square" stroke-linejoin="round" stroke-width=".5"/><line x1="1885.37" y1="631.144" x2="986.562" y2="631.144" fill="none" stroke="#4ad0c9" stroke-linecap="square" stroke-linejoin="round" stroke-width=".5"/><line x1="1885.37" y1="674.087" x2="986.562" y2="674.087" fill="none" stroke="#4ad0c9" stroke-linecap="square" stroke-linejoin="round" stroke-width=".5"/><line x1="1885.37" y1="717.03" x2="986.562" y2="717.03" fill="none" stroke="#4ad0c9" stroke-linecap="square" stroke-linejoin="round" stroke-width=".5"/><line x1="1885.37" y1="759.973" x2="986.562" y2="759.973" fill="none" stroke="#4ad0c9" stroke-linecap="square" stroke-linejoin="round" stroke-width=".5"/><line x1="1885.37" y1="802.916" x2="986.562" y2="802.916" fill="none" stroke="#4ad0c9" stroke-linecap="square" stroke-linejoin="round" stroke-width=".5"/><line x1="1885.37" y1="845.859" x2="986.562" y2="845.859" fill="none" stroke="#4ad0c9" stroke-linecap="square" stroke-linejoin="round" stroke-width=".5"/><line x1="1885.37" y1="888.803" x2="986.562" y2="888.803" fill="none" stroke="#4ad0c9" stroke-linecap="square" stroke-linejoin="round" stroke-width=".5"/><line x1="1885.37" y1="931.746" x2="986.562" y2="931.746" fill="none" stroke="#4ad0c9" stroke-linecap="square" stroke-linejoin="round" stroke-width=".5"/></g></g><g id="FRAGMENTS"><g id="CLAN_001_012_FRAG_001"><path d="M74.223,283.345c3.521-13.75,17.577-19.843,30.02-12.94,1.377,.764,3.87,.402,4.981-.713,3.628-3.639,7.257-7.277,10.885-10.916,4.496-4.509-1.66-12.399-6.203-7.843-3.628,3.639-7.257,7.277-10.885,10.916l4.981-.713c-16.765-9.301-38.283-.156-43.048,18.451-1.575,6.152,7.678,9.974,9.269,3.759h0Z" fill="#f37516"/></g><g id="CLAN_001_012_FRAG_002"><path d="M139.351,264.321c3.664,.897,5.912,8.02,7.845,10.837,3.362,4.9,8.374,7.931,14.406,7.829,14.739-.25,20.45-14.269,27.314-24.795,3.739-5.734,8.562-11.54,15.445-13.391,6.615-1.78,12.185,.731,15.436,6.619,4.986,9.031,6.354,20.875,16.576,25.953,11.5,5.713,26.155-3.166,27.139-15.733,.501-6.4-9.429-7.591-9.933-1.16-.473,6.039-7.693,10.96-13.334,7.651-5.031-2.951-6.749-10.107-8.767-15.115-2.248-5.578-5.054-11.231-10.049-14.857-6.127-4.447-14.17-4.813-21.185-2.527-7.54,2.456-13.489,8.203-17.985,14.564-4.459,6.308-7.242,14.626-13.245,19.686-2.854,2.406-7.577,4.479-11.12,2.24-2.106-1.331-3.384-3.965-4.57-6.045-3.193-5.597-6.255-10.081-12.814-11.687-6.235-1.527-7.338,8.419-1.16,9.933h0Z" fill="#f37516"/></g><g id="CLAN_001_012_FRAG_003"><path d="M277.91,269.728c2.773,5.818,8.921,8.317,15.155,7.067,7.556-1.516,11.786-8.516,14.48-15.121,3.499-8.578,6.608-17.322,9.957-25.959,.879-2.268,2.561-8.275,5.813-7.998,4.342,.37,3.608,8.674,3.476,11.364-.171,3.492,3.375,7.053,6.972,5.161,7.766-4.086,15.196,2.948,11.376,10.906-2.791,5.814,6.496,9.536,9.269,3.759,7.493-15.611-9.293-31.91-24.658-23.826l6.972,5.161c.376-7.655-.144-16.084-7.305-20.618-6.903-4.371-14.402-.529-18.182,5.877-4.635,7.856-7.17,17.34-10.422,25.836-1.569,4.1-2.858,8.75-5.473,12.333-1.416,1.94-6.469,5.825-8.27,2.047-2.763-5.795-11.942-1.82-9.162,4.012h0Z" fill="#f37516"/></g><g id="CLAN_001_012_FRAG_004"><path d="M382.625,251.482l-.705,.987c.628,.416,1.178,.916,1.65,1.5,.952,.959,1.767,2.034,2.728,2.987,1.543,1.532,3.234,2.826,5.274,3.611,1.994,.767,4.073,.839,6.134,.361,2.363-.548,4.189-2.244,6.669-1.374,4.735,1.661,6.255,9.567,8.352,13.458,2.134,3.959,5,7.437,8.633,10.117,15.535,11.459,36.926,5.143,45.078-11.898,2.783-5.818-6.504-9.54-9.269-3.759-4.106,8.584-13.974,13.61-23.282,10.899-4.66-1.357-8.89-4.413-11.509-8.515-2.787-4.366-3.896-9.579-7.054-13.764-2.665-3.531-6.757-6.435-11.254-6.9-2.064-.214-4.129,.17-6.053,.895-3.506,1.32-4.049,.422-6.506-2.229-2.93-3.163-6.524-5.95-11.113-5.274-4.18,.615-7.095,3.642-7.705,7.739-.948,6.37,8.985,7.523,9.933,1.16h0Z" fill="#f37516"/></g><g id="CLAN_001_012_FRAG_005"><path d="M477.587,272.302c-.137,7.792,4.772,14.248,12.374,16.257,8.101,2.141,16.16-2.198,21.151-8.464,5.781-7.257,7.065-16.783,8.662-25.624,1.563-8.656,4.522-20.096,14.914-21.281,6.391-.729,4.876-10.616-1.522-9.886-15.257,1.74-20.952,16.868-23.325,30.008-1.304,7.22-2.08,15.603-7.171,21.336-2.189,2.465-5.466,4.792-8.936,4.51-2.9-.236-6.271-2.52-6.215-5.695,.112-6.375-9.819-7.6-9.933-1.16h0Z" fill="#f37516"/></g><g id="CLAN_001_012_FRAG_006"><path d="M562.022,230.811c17.62,13.208,28.463,33.358,30.082,55.287,.302,4.086,5.179,5.027,8.045,3.161,10.297-6.706,20.595-13.412,30.892-20.118,5.398-3.515-.845-11.333-6.203-7.843-10.297,6.706-20.595,13.412-30.892,20.118l8.045,3.161c-1.8-24.387-14.413-47.108-33.954-61.756-5.16-3.868-11.167,4.129-6.014,7.991h0Z" fill="#f37516"/></g><g id="CLAN_001_012_FRAG_007"><path d="M645.035,242.873l8.314,11.379c2.022,2.767,5.892,2.222,7.917-.095,3.56-4.072,11.208,10.831,12.232,12.495,4.179,6.793,8.358,13.585,12.538,20.378,2.478,4.028,8.18,1.263,8.888-2.522,1.835-9.817,3.944-19.582,6.427-29.256,1.251-4.875,3.965-23.537,12.354-20.926,6.111,1.902,9.906-7.357,3.759-9.269-12.255-3.814-19.83,6.58-22.857,17.071-3.911,13.553-7.023,27.36-9.615,41.221l8.888-2.522c-3.343-5.434-6.687-10.868-10.03-16.302-2.909-4.728-5.537-9.933-9.053-14.244-5.53-6.781-15.207-9.359-21.521-2.137l7.917-.095-8.314-11.379c-3.805-5.208-11.637,1.01-7.843,6.203h0Z" fill="#f37516"/></g><g id="CLAN_001_012_FRAG_008"><path d="M740.396,278.825c4.768-10.484,10.748-23.307,22.883-26.656,13.102-3.615,19.38,6.881,20.593,18.322,.895,8.443-.511,20.534,9.802,23.689,5.599,1.713,11.773-1.026,17.586-.213,6.097,.853,11.424,3.662,15.97,7.742,4.799,4.306,10.772-3.722,6.014-7.991-4.89-4.388-10.684-7.402-17.068-8.95-3.231-.783-6.445-1.116-9.771-1.049-2.234,.045-8.607,1.981-10.47,.599-3.232-2.399-1.834-12.561-2.253-16.067-.684-5.726-2.245-11.434-5.417-16.3-7.01-10.756-20.749-12.825-31.992-7.831-12.873,5.718-19.608,18.765-25.148,30.946-2.67,5.872,6.611,9.603,9.269,3.759h0Z" fill="#f37516"/></g><g id="CLAN_001_013_FRAG_001"><path d="M76.408,466.407c1.796-4.369,5.983-2.195,6.098,1.739,.151,5.14,7.87,5.371,9.578,1.118,1.691-4.212,4.468-8.662,9.084-10.037,3.082-.918,8.743,.656,8.811,4.688l9.909-.181c-.329-2.887,2.742-4.718,5.272-5.022,3.813-.459,7.72,1.632,10.999,3.299,5.831,2.964,11.215,6.149,17.893,6.625,6.399,.455,7.594-9.475,1.16-9.933-10.757-.766-18.623-10.281-29.8-9.958-8.863,.256-16.448,7.407-15.409,16.511,.624,5.468,10.006,5.532,9.909-.181-.153-9.072-7.221-15.981-16.386-16.161-9.937-.195-17.278,8.044-20.71,16.592l9.578,1.118c-.424-14.438-19.998-16.762-25.254-3.976-2.451,5.962,6.823,9.711,9.269,3.759h0Z" fill="#ef9b5e"/></g><g id="CLAN_001_013_FRAG_002"><path d="M179.829,452.071c7.893-11.585,15.683-23.616,24.633-34.422,4.191-5.061,9.478-6.653,14.459-1.497,3.973,4.113,5.292,10.195,6.218,15.635,1.855,10.9,2.392,23.266,10.865,31.466,6.983,6.758,18.844,9,26.486,2.065,4.747-4.308-1.427-12.178-6.203-7.843-3.796,3.445-9.162,2.234-12.839-.907-4.754-4.062-6.088-11.074-7.04-16.933-1.81-11.141-2.667-23.494-11.568-31.618-9.132-8.335-20.375-5.671-27.909,3.059-9.287,10.761-17.1,23.249-25.093,34.981-3.62,5.313,4.362,11.341,7.991,6.014h0Z" fill="#ef9b5e"/></g><g id="CLAN_001_013_FRAG_003"><path d="M285.967,448.372c4.606-7.022,13.225-11.012,21.557-8.713,2.016,.556,4.614,.364,5.875-1.628,3.302-5.216,6.867-11.407,12.591-14.28,3.822-1.918,10.055-1.966,12.228,2.399,1.874,3.764,7.556,4.009,9.216-.127,2.25-5.608,4.943-11.943,10.277-15.299,4.271-2.687,10.165-2.63,13.123,1.812,3.572,5.364,11.392-.874,7.843-6.203-4.893-7.348-14.806-8.97-22.685-5.904-9.287,3.614-14.325,13.108-17.827,21.836l9.216-.127c-3.831-7.696-12.451-10.904-20.701-9.138-9.949,2.13-16.167,10.952-21.272,19.016l5.875-1.628c-12.532-3.458-26.042,.894-33.307,11.968-3.52,5.366,4.457,11.402,7.991,6.014h0Z" fill="#ef9b5e"/></g><g id="CLAN_001_013_FRAG_004"><path d="M388.433,434.176c6.804,12.575,19.427,29.401,35.996,21.028,6.833-3.453,10.912-10.012,14.13-16.691s7.22-17.941,16.483-17.239c6.4,.485,7.592-9.445,1.16-9.933-15.609-1.184-21.737,13.241-27.634,24.89-3.173,6.267-8.39,12.956-16.276,10.346-7.323-2.423-11.273-10.088-14.695-16.413-3.04-5.618-12.234-1.666-9.162,4.012h0Z" fill="#ef9b5e"/></g><g id="CLAN_001_013_FRAG_005"><path d="M470.016,444.973c4.908,10.426,9.815,20.852,14.723,31.278,2.152,4.572,8.75,3.46,9.547-1.426,1.143-6.999,2.363-14.251,5.679-20.612,3.521-6.755,9.354-8.698,14.956-13.136,11.787-9.337,6.33-24.681,11.48-36.859,2.512-5.939-6.764-9.683-9.269-3.759-2.794,6.608-2.772,13.6-3.474,20.611-.347,3.465-.779,7.217-2.909,10.105-2.107,2.858-5.61,4.169-8.519,6.024-12.386,7.897-15.667,22.934-17.875,36.465l9.547-1.426c-4.908-10.426-9.815-20.852-14.723-31.278-2.735-5.811-11.913-1.833-9.162,4.012h0Z" fill="#ef9b5e"/></g><g id="CLAN_001_013_FRAG_006"><path d="M554.352,473.184c10.342-13.126,24.014-22.664,39.801-28.09,6.084-2.091,2.051-11.246-4.012-9.162-17.33,5.957-32.45,16.857-43.78,31.238-3.994,5.069,4.011,11.066,7.991,6.014h0Z" fill="#ef9b5e"/></g><g id="CLAN_001_013_FRAG_007"><path d="M620.542,450.097c16.83,6.788,31.654,17.396,43.434,31.208,2.099,2.461,5.894,2.523,7.917-.095,10.475-13.553,20.95-27.106,31.425-40.659,3.945-5.105-4.056-11.106-7.991-6.014-10.475,13.553-20.95,27.106-31.425,40.659l7.917-.095c-12.889-15.112-29.092-26.843-47.519-34.274-5.977-2.41-9.729,6.861-3.759,9.269h0Z" fill="#ef9b5e"/></g><g id="CLAN_001_013_FRAG_008"><path d="M719.024,436.658c5.636,4.55,9.618,10.204,12.206,16.953,1.688,4.404,7.342,3.371,9.216-.127,1.508-2.816,5.354-3.171,7.263-.596,1.418,1.913,1.163,5.002,1.658,7.231,1.09,4.907,4.069,8.637,9.259,9.402,2.795,.412,5.557,.056,8.313,.919,3.002,.94,5.711,2.678,8.075,4.728,5.127,4.445,8.547,10.632,11.845,16.457,3.138,5.544,12.339,1.601,9.162-4.012-4.181-7.386-8.461-14.846-14.992-20.436-2.996-2.565-6.583-4.742-10.33-6.006-1.836-.619-3.8-1.097-5.726-1.307-1.64-.179-4.526,.406-5.553-.808-.793-.938-.624-3.514-.84-4.695-.299-1.633-.655-3.289-1.335-4.81-1.452-3.246-4.203-5.933-7.484-7.313-7.51-3.159-14.947,.697-18.583,7.488l9.216-.127c-3.185-8.308-8.441-15.353-15.353-20.932-5.022-4.054-11.015,3.955-6.014,7.991h0Z" fill="#ef9b5e"/></g><g id="CLAN_001_014_FRAG_001"><path d="M81.945,680.219c.219-5.797,.166-12.515,3.728-17.42,2.184-3.007,8.282-6.423,10.851-1.743,2.15,3.917,9.344,3.999,9.547-1.426,.332-8.888,10.506-14.059,16.987-6.93,3.131,3.444,7.843,1.684,8.888-2.522,1.183-4.762,3.055-10.241,7.366-13.078,3.39-2.231,10.344-2.242,9.801,3.42-.613,6.398,9.317,7.58,9.933,1.16,.975-10.171-8.425-17.733-18.236-15.852-11.309,2.168-16.305,13.163-18.796,23.191l8.888-2.522c-11.845-13.03-34.077-6.377-34.763,11.973l9.547-1.426c-4.33-7.888-14.012-10.447-21.819-5.895-9.856,5.747-11.462,17.545-11.854,27.91-.242,6.388,9.689,7.602,9.933,1.16h0Z" fill="#e46441"/></g><g id="CLAN_001_014_FRAG_002"><path d="M183.05,641.929c5.175-5.957,15.173-4.793,19.597,1.342,2.722,3.776,8.11,1.459,8.888-2.522,1.305-6.675,9.713-5.552,13.721-2.425,5.55,4.331,7.345,11.794,8.743,18.327,1.117,5.22,9.595,5.754,9.909-.181,.936-17.694,15.004-31.742,33.051-31.309,6.38,.153,7.601-9.778,1.16-9.933-23.194-.557-42.9,16.598-44.143,40.082l9.909-.181c-2.426-11.334-6.845-23.84-18.727-28.241-10.191-3.775-21.451,1.938-23.555,12.701l8.888-2.522c-8.405-11.658-26.222-11.753-35.431-1.153-4.231,4.871,3.791,10.849,7.991,6.014h0Z" fill="#e46441"/></g><g id="CLAN_001_014_FRAG_003"><path d="M310.6,625.372c13.844-5.827,31.08,.562,37.633,14.129,1.312,2.717,5.202,4.171,7.683,1.916,6.162-5.603,13.741-8.661,22.125-8.3,6.391,.275,7.602-9.655,1.16-9.933-10.933-.471-21.346,2.986-29.488,10.389l7.683,1.916c-8.931-18.488-31.839-27.264-50.807-19.279-5.931,2.497-1.933,11.664,4.012,9.162h0Z" fill="#e46441"/></g><g id="CLAN_001_014_FRAG_004"><path d="M400.49,645.28c7.966,10.694,23.091,9.686,33.343,3.09,12.435-8.001,20.535-25.633,36.861-26.054,6.408-.165,4.844-10.05-1.522-9.886-13.468,.347-22.653,10.537-31.408,19.476-6.616,6.755-21.126,18.32-29.431,7.171-3.853-5.172-11.688,1.042-7.843,6.203h0Z" fill="#e46441"/></g><g id="CLAN_001_014_FRAG_005"><path d="M496.257,647.573c6.451,5.182,15.212,4.205,21.954,.074,8.064-4.94,12.962-13.565,22.381-16.438,19.6-5.98,38.148,7.725,52.963,18.687,5.182,3.834,11.192-4.16,6.014-7.991-15.029-11.121-31.329-22.468-50.861-21.939-8.582,.232-16.946,2.963-23.599,8.48-5.349,4.436-14.841,17.56-22.838,11.136-5.032-4.042-11.025,3.966-6.014,7.991h0Z" fill="#e46441"/></g><g id="CLAN_001_014_FRAG_006"><path d="M610.417,662.698c9.615,11.713,25.064,2.874,32.835-6.085,9.137-10.534,15.624-28.721,31.73-29.6,6.413-.35,4.866-10.234-1.522-9.886-12.79,.698-21.964,10.566-28.783,20.462-3.667,5.322-7.077,11.064-11.816,15.528-3.218,3.031-10.713,8.114-14.602,3.377-4.085-4.976-11.936,1.218-7.843,6.203h0Z" fill="#e46441"/></g><g id="CLAN_001_014_FRAG_007"><path d="M694.877,671.541c22.169,3.397,44.74,.646,65.496-7.822,5.96-2.432,1.957-11.597-4.012-9.162-19.185,7.828-39.854,10.189-60.324,7.052-6.366-.976-7.516,8.958-1.16,9.933h0Z" fill="#e46441"/></g><g id="CLAN_001_014_FRAG_008"><path d="M792.845,652.697c4.25-9.083,17.625-8.305,20.173,1.686,1.163,4.56,7.58,6.004,9.578,1.118,1.657-4.052,7.248-3.803,10.421-1.784,4.853,3.09,6.935,9.444,8.683,14.595,1.557,4.588,7.343,3.178,9.216-.127,.894-1.579,4.012-1.067,5.302-.589,2.824,1.046,4.603,3.872,6.017,6.386,3.035,5.397,5.385,11.005,9.023,16.07,7.154,9.961,17.02,17.657,28.162,22.675,5.881,2.649,9.614-6.632,3.759-9.269-7.213-3.249-13.805-7.809-19.192-13.626-5.571-6.016-8.719-12.776-12.589-19.861-3.288-6.02-7.83-11.485-14.993-12.595-6.272-.972-11.654,1.575-14.757,7.052l9.216-.127c-2.98-8.782-7.778-18.508-17.435-21.239-7.902-2.235-16.868,.777-20.1,8.681,3.193,.373,6.385,.745,9.578,1.118-2.205-8.647-8.999-15.73-18.198-16.652-9.129-.915-17.355,4.66-21.131,12.729-2.734,5.842,6.551,9.568,9.269,3.759h0Z" fill="#e46441"/></g><g id="CLAN_001_015_FRAG_001"><path d="M81.274,835.117c1.294-5.973,9.603-7.485,13.786-3.898,2.677,2.295,6.236,.53,7.642-2.116,5.067-9.538,10.763-20.614,20.643-25.986,7.803-4.242,18.797-4.065,24.131,3.801,1.19,1.754,4.051,2.396,5.928,1.479,9.987-4.88,20.333,1.33,21.101,12.294,.119,1.703,1.553,3.251,3.064,3.874,14.233,5.86,24.804,17.445,29.689,32.001,2.046,6.097,11.199,2.061,9.162-4.012-5.67-16.896-18.649-30.489-35.092-37.259l3.064,3.874c-1.213-17.303-19.535-27.489-34.999-19.933l5.928,1.479c-7.345-10.832-22.206-12.511-33.654-7.841-13.88,5.662-21.579,19.945-28.233,32.47l7.642-2.116c-10.445-8.956-26.952-2.1-29.733,10.73-1.362,6.285,8.58,7.402,9.933,1.16h0Z" fill="#fb2727"/></g><g id="CLAN_001_015_FRAG_002"><path d="M231.471,799.415c8.857-3.497,18.69-.62,24.549,6.78,3.041,3.841,5.925,7.429,10.923,8.61,4.769,1.127,9.571-.552,14.344,.236,4.616,.762,8.909,3.466,11.619,7.283,2.58,3.635,2.892,8.32,5.647,11.857,3.032,3.892,7.358,4.491,11.972,4.698,4.671,.21,9.398,2.343,9.304,7.854-.109,6.375,9.822,7.6,9.933,1.16,.094-5.448-1.615-10.394-5.656-14.185-4.153-3.897-8.555-4.399-13.973-4.782-4.033-.285-4.314-1.914-5.547-5.38-.943-2.649-2.176-5.144-3.836-7.425-3.149-4.327-7.818-7.782-12.837-9.607-5.873-2.136-10.87-.829-16.831-1.203-5.527-.347-8.489-7.564-12.592-10.807-8.767-6.927-20.753-8.306-31.028-4.25-5.988,2.364-1.979,11.527,4.012,9.162h0Z" fill="#fb2727"/></g><g id="CLAN_001_015_FRAG_003"><path d="M359.337,829.602c7.386-12.481,19.882-32.79,37.54-25.767,7.227,2.874,7.899,11.661,16.041,13.475,3.879,.864,7.327,1.008,10.731,3.345,3.609,2.478,6.124,6.231,7.077,10.487,1.398,6.239,11.298,4.781,9.886-1.522-2.129-9.501-8.845-17.735-18.334-20.667-2.383-.736-5.256-.577-7.519-1.487-2.36-.949-3.173-3.939-4.669-5.893-2.672-3.49-6.498-6.03-10.636-7.431-22.414-7.591-38.137,12.596-48.108,29.445-3.249,5.49,4.717,11.548,7.991,6.014h0Z" fill="#fb2727"/></g><g id="CLAN_001_015_FRAG_004"><path d="M457.825,846.491c8.294,.972,15.491-2.239,22.434-6.463,6.506-3.958,15.571-11.309,23.75-8.253,5.941,2.22,7.359,9.568,8.817,14.983,1.689,6.275,3.426,12.466,7.667,17.553,4.12,4.942,11.974-1.248,7.843-6.203-8.817-10.577-5.06-28.066-19.171-34.975-7.751-3.795-16.78-1.465-24.057,2.328-8.243,4.295-16.178,12.264-26.124,11.098-6.391-.749-7.561,9.182-1.16,9.933h0Z" fill="#fb2727"/></g><g id="CLAN_001_015_FRAG_005"><path d="M552.766,826.876c7.904-1.957,15.735,1.893,18.709,9.543,1.473,3.788,6.199,3.602,8.576,1.001,10.149-11.102,25.507-15.701,40.148-12.915,6.324,1.203,7.455-8.735,1.16-9.933-18.276-3.478-36.839,3.204-49.299,16.833l8.576,1.001c-4.47-11.499-17.351-18.399-29.393-15.418-6.19,1.532-4.743,11.437,1.522,9.886h0Z" fill="#fb2727"/></g><g id="CLAN_001_015_FRAG_006"><path d="M644.024,834.584c1.99-1.146,4.726,4.655,5.665,5.846,1.653,2.097,3.614,3.973,6.177,4.886,2.423,.863,5.072,.666,7.468-.168,2.595-.904,4.7-3.263,7.126-1.433,2.89,2.179,5.337,6.371,7.612,9.145,2.504,3.053,5.007,6.106,7.511,9.158,5.425,6.614,10.849,13.229,16.274,19.843,4.083,4.978,11.934-1.216,7.843-6.203-6.259-7.632-12.519-15.264-18.778-22.896-3.338-4.07-6.664-8.151-10.015-12.211-2.205-2.672-4.419-5.569-7.698-6.974-3.082-1.32-6.246-.986-9.288,.27-3.691,1.523-4.496,2.973-7.136-.664-3.845-5.297-9.528-11.934-16.774-7.761-5.515,3.176-1.574,12.379,4.012,9.162h0Z" fill="#fb2727"/></g><g id="CLAN_001_016_FRAG_001"><path d="M1027.453,296.86c3.357-4.933,10.15-7.018,15.436-3.687,3.334,2.101,7.209,.459,7.973-3.416,3.014-15.28,19.296-22.466,33.028-15.974,3.45,1.631,7.461-1.777,6.822-5.396-2.127-12.055,10.528-21.324,21.152-14.352,2.808,1.843,7.982,.682,7.973-3.416-.03-14.554,12.388-24.202,26.513-20.708,6.23,1.541,7.332-8.405,1.16-9.933-18.983-4.696-37.645,9.932-37.605,29.481l7.973-3.416c-17.611-11.555-40.79,2.681-37.053,23.866,2.274-1.799,4.548-3.597,6.822-5.396-19.998-9.455-42.517,2.781-46.719,24.084l7.973-3.416c-9.699-6.112-22.843-4.03-29.441,5.664-3.617,5.314,4.365,11.342,7.991,6.014h0Z" fill="#ffb17d"/></g><g id="CLAN_001_016_FRAG_002"><path d="M1168.768,262.733c2.288-9.887,13.717-14.485,22.306-9.223,2.874,1.761,7.909,.747,7.973-3.416,.216-13.907,14.783-22.948,26.909-14.892,3.566,2.369,8.605-.269,7.95-4.757-1.801-12.339,9.846-21.561,21.445-16.967,5.99,2.372,9.746-6.899,3.759-9.269-18.675-7.395-37.99,7.881-35.089,27.759l7.95-4.757c-17.833-11.848-42.513-.327-42.856,21.723l7.973-3.416c-15.433-9.455-34.188-1.51-38.253,16.055-1.449,6.26,8.495,7.37,9.933,1.16h0Z" fill="#ffb17d"/></g><g id="CLAN_001_016_FRAG_003"><path d="M1288.957,232.54c.31-4.597,4.719-7.509,8.967-5.334,4.11,2.104,7.103,5.858,11.478,7.594,8.68,3.445,14.967-2.212,20.108-8.514,2.534-3.106,5.147-6.563,9.61-4.754,5.301,2.149,7.884,9.454,10.022,14.281,5.225,11.801,8.512,24.215,10.087,37.013,.786,6.384,10.673,4.874,9.886-1.522-1.892-15.367-6.202-30.538-13.114-44.418-2.954-5.932-6.732-11.973-13.122-14.623-5.41-2.244-11.291-1.451-15.875,2.168-3.71,2.929-5.863,8.137-9.859,10.576-4.601,2.809-9.511-3.539-13.186-5.796-10.218-6.277-24.088-.369-24.934,12.171-.432,6.399,9.498,7.596,9.933,1.16h0Z" fill="#ffb17d"/></g><g id="CLAN_001_016_FRAG_004"><path d="M1396.476,292.007c7.148-8.298,7.29-18.961,9.323-29.173,.942-4.731,2.703-10.122,6.862-13.028,3.476-2.429,8.55-2.04,10.104,2.308,1.49,4.167,7.659,3.654,9.216-.127,2.579-6.265,5.157-12.53,7.736-18.795,1.997-4.852,3.581-12.215,7.171-16.17,4.061-4.473,5.743,4.819,5.795,7.485,.109,5.608-.328,10.83,2.214,16.028,1.792,3.666,5.961,3.682,8.576,1.001,5.573-5.712,15.167-2.874,17.114,4.708,1.584,6.169,11.491,4.726,9.886-1.522-4.217-16.419-23.256-21.228-34.991-9.2l8.576,1.001c-3.302-6.754-.121-14.731-3.18-21.734-2.589-5.928-8.323-10.465-15.01-8.685-6.996,1.862-9.636,9.273-12.106,15.274-3.684,8.95-7.368,17.9-11.052,26.851l9.216-.127c-4.607-12.885-21.197-11.731-28.965-2.812-10.159,11.664-4.648,29.293-14.477,40.703-4.211,4.889,3.809,10.869,7.991,6.014h0Z" fill="#ffb17d"/></g><g id="CLAN_001_016_FRAG_005"><path d="M1497.142,284.51c4.05,9.464,16.339,11.277,24.18,5.364,11.047-8.331,8.878-22.42,13.267-33.973,1.659-4.368,6.126-10.802,11.714-8.069,2.857,1.398,2.551,5.496,3.26,8.166,.579,2.179,1.462,4.198,2.813,6.021,5.655,7.629,17.019,10.563,25.332,5.614,5.456-3.247,1.521-12.455-4.012-9.162-3.382,2.013-7.159,2.156-10.597,.072-4.533-2.746-3.802-7.563-5.418-11.995-3.147-8.631-13.623-11.235-21.452-7.483-9.952,4.77-12.343,16.547-13.955,26.345-.867,5.266-1.761,11.146-5.582,15.197-2.696,2.858-8.444,4.432-10.387-.11-2.532-5.915-11.7-1.92-9.162,4.012h0Z" fill="#ffb17d"/></g><g id="CLAN_001_016_FRAG_006"><path d="M1609.851,256.848c6.494-6.762,15.303,2.565,17.995,8.174,3.686,7.678,4.179,16.541,8.057,24.116,3.101,6.056,8.73,10.836,15.925,9.588,8.213-1.424,12.329-9.066,15.173-16.063,2.427-5.971-6.846-9.722-9.269-3.759-1.317,3.241-3.247,9.357-7.426,9.935-3.553,.491-5.288-3.518-6.365-6.226-3.193-8.029-4.027-16.72-8.368-24.326-6.939-12.16-22.778-18.84-33.713-7.454-4.457,4.641,3.586,10.602,7.991,6.014h0Z" fill="#ffb17d"/></g><g id="CLAN_001_016_FRAG_007"><path d="M1684.338,271.654c14.224-.283,25.764,12.47,26.159,26.164,.185,6.409,10.07,4.847,9.886-1.522-.57-19.73-18.36-34.91-37.567-34.528-6.405,.127-4.839,10.013,1.522,9.886h0Z" fill="#ffb17d"/></g><g id="CLAN_001_017_FRAG_001"><path d="M1024.431,471.279c14.777-3.726,24.872-14.641,33.45-26.643,6.67-9.332,19.615-33.122,34.294-24.612,12.971,7.52,12.822,26.729,20.09,38.435,6.778,10.917,22.494,17.536,32.401,6.419,3.694-4.145,5.22-9.607,6.64-14.844,1.284-4.737,2.353-11.543,7.23-13.927,5.764-2.817,1.793-11.999-4.012-9.162-9.887,4.833-10.925,15.388-14.057,24.758-1.706,5.106-4.499,10.105-10.796,8.707-7.616-1.691-10.981-10.338-13.287-16.881-4.484-12.726-8.123-27.476-21.774-33.428-13.945-6.08-26.688,4.485-34.845,14.843-10.4,13.206-19.108,31.973-36.857,36.448-6.18,1.558-4.735,11.464,1.522,9.886h0Z" fill="#fbbf08"/></g><g id="CLAN_001_017_FRAG_002"><path d="M1185.761,432.938c12.245,.006,24.49,.012,36.736,.018,6.359,.003,7.594-9.929,1.16-9.933-12.245-.006-24.49-.012-36.736-.018-6.359-.003-7.594,9.929-1.16,9.933h0Z" fill="#fbbf08"/></g><g id="CLAN_001_017_FRAG_003"><path d="M1245.225,451.172c14.947-9.432,31.851-14.921,49.423-16.512,6.405-.58,4.877-10.465-1.522-9.886-19.364,1.753-37.687,8.195-54.105,18.554-5.443,3.435,.807,11.248,6.203,7.843h0Z" fill="#fbbf08"/></g><g id="CLAN_001_017_FRAG_004"><path d="M1319.809,441.629c6.533,15.647,22.597,26.168,39.611,25.455,16.881-.707,32.176-13.182,36.907-29.268,1.802-6.127-7.454-9.93-9.269-3.759-3.661,12.445-14.538,22.165-27.731,23.062-13.086,.89-25.402-7.637-30.356-19.503-2.48-5.939-11.647-1.94-9.162,4.012h0Z" fill="#fbbf08"/></g><g id="CLAN_001_017_FRAG_005"><path d="M1418.778,449.29c15.202-11.799,36.43-13.09,52.496-2.137,7.523,5.128,11.974,13.513,19.526,18.474,6.503,4.273,15.29,5.125,21.467-.146,4.891-4.173-1.295-12.031-6.203-7.843-7.583,6.47-16.084-6.9-20.55-11.476-6.157-6.309-13.759-11.197-22.169-13.914-17.453-5.637-36.334-2.007-50.771,9.198-5.092,3.952,1.113,11.794,6.203,7.843h0Z" fill="#fbbf08"/></g><g id="CLAN_001_017_FRAG_006"><path d="M1531.98,455.35c13.569-12.65,25.707-26.639,36.185-41.951,3.631-5.306-4.351-11.333-7.991-6.014-9.992,14.601-21.454,28.055-34.398,40.122-4.681,4.364,1.487,12.24,6.203,7.843h0Z" fill="#fbbf08"/></g><g id="CLAN_001_017_FRAG_007"><path d="M1577.978,460.23c15.712,7.231,28.767-7.358,35.725-19.625,3.982-7.02,7.928-14.573,15.473-18.308,7.144-3.536,15.257-3.363,22.392,.008,5.832,2.755,9.556-6.53,3.759-9.269-13.848-6.542-30.604-3.108-40.839,8.224-7.767,8.6-16.539,37.162-32.751,29.701-5.86-2.697-9.589,6.586-3.759,9.269h0Z" fill="#fbbf08"/></g><g id="CLAN_001_017_FRAG_008"><path d="M1680.586,436.065c5.729-.664,10.031,4.572,11.326,9.661,1.74,6.84-.368,14.263-2.01,20.914-.73,2.959,2.822,6.322,5.727,5.523,10.743-2.957,23.298,2.978,26.27,14.19,1.63,6.149,11.538,4.711,9.886-1.522-4.252-16.04-21.237-27.08-37.679-22.554l5.727,5.523c2.41-9.765,4.693-20.841-.42-30.177-4.121-7.526-11.633-12.453-20.351-11.443-6.39,.741-4.876,10.628,1.522,9.886h0Z" fill="#fbbf08"/></g><g id="CLAN_001_018_FRAG_001"><path d="M1031.818,664.858c10.868-6.999,23.863-8.83,36.367-5.95,2.041,.47,4.53-1.193,5.215-3.087,4.282-11.848,13.752-18.97,25.833-21.585,11.667-2.525,22.008-5.892,24.974-18.83,1.033-4.507,.624-15.152,6.455-16.737,2.505-.681,4.158,2.628,5.783,4.152,1.924,1.806,3.918,3.115,6.57,3.564,5.767,.977,9.363-3.048,14.316-4.936,6.048-2.305,10.742,5.733,13.188,10.084,3.124,5.556,12.323,1.611,9.162-4.012-3.354-5.966-7.583-12.534-14.169-15.318-6.631-2.804-11.723-.092-17.475,3.025-3.684,1.996-4.13,.902-6.786-1.921-2.097-2.229-4.47-4.144-7.559-4.71-6.828-1.252-12.729,3.783-15.669,9.508-3.198,6.226-1.277,15.814-6.27,20.993-4.4,4.564-12.362,4.687-18.15,6.202-13.65,3.572-24.663,13.457-29.473,26.763l5.215-3.087c-15.184-3.497-30.71-.347-43.73,8.039-5.414,3.487,.832,11.303,6.203,7.843h0Z" fill="#ffdc91"/></g><g id="CLAN_001_018_FRAG_002"><path d="M1189.995,632.241c5.831-6.177,14.502-15.351,23.932-11.232,4.862,2.124,4.296,6.299,5.124,10.834,.723,3.962,2.565,7.882,6.257,9.853,3.505,1.872,7.196,1.315,10.556-.584,1.349-.762,3.213-2.768,4.772-2.643,1.804,.145,3.448,3.198,4.486,4.535,7.612,9.801,15.184,19.634,22.776,29.45,3.944,5.099,11.785-1.107,7.843-6.203-8.45-10.927-16.346-22.929-25.713-33.08-3.336-3.614-7.787-5.858-12.717-4.282-2.174,.695-3.932,2.756-6.014,3.351-1.213,.347-.826,.999-1.785,.013-.823-.846-.769-3.457-.891-4.463-1.274-10.478-8.184-17.5-19.077-17.719-11.586-.233-20.145,8.32-27.542,16.156-4.42,4.682,3.619,10.646,7.991,6.014h0Z" fill="#ffdc91"/></g><g id="CLAN_001_018_FRAG_003"><path d="M1300.848,680.587c1.626-4.695,4.561-8.692,8.919-11.218,4.416-2.56,9.048-2.136,13.845-3.168,9.561-2.058,13.169-10.541,15.889-18.977,1.156-3.583,2.827-9.248,6.729-10.8,3.682-1.465,8.673,2.271,12.862,1.64,4.585-.691,8.202-4.069,10.907-7.609,2.457-3.216,5.278-10.228,10.184-9.393,6.349,1.081,7.49-8.855,1.16-9.933-5.181-.882-9.639,1.412-13.192,5.084-2.98,3.079-6.031,11.149-10.582,11.964-2.396,.429-5.369-1.579-7.755-1.931-2.341-.345-4.832-.135-7.043,.76-4.547,1.839-7.756,5.816-9.974,10.053-2.364,4.516-3.137,9.634-5.407,14.183-3.016,6.044-7.973,4.96-13.743,6.135-10.227,2.081-18.666,9.628-22.069,19.451-2.102,6.068,7.161,9.847,9.269,3.759h0Z" fill="#ffdc91"/></g><g id="CLAN_001_018_FRAG_004"><path d="M1410.094,625.897c22.684-12.702,51.332-12.901,73.798,.524,5.48,3.274,11.535-4.692,6.014-7.991-25.422-15.191-57.833-16.249-83.824-1.695-5.562,3.115-1.617,12.314,4.012,9.162h0Z" fill="#ffdc91"/></g><g id="CLAN_001_018_FRAG_005"><path d="M1506.098,602.102c12.532-.623,23.626,8.021,27.373,19.703,1.963,6.119,11.114,2.076,9.162-4.012-5.207-16.234-21.306-26.41-38.057-25.578-6.413,.319-4.863,10.203,1.522,9.886h0Z" fill="#ffdc91"/></g><g id="CLAN_001_018_FRAG_006"><path d="M1553.716,642.282c3.036,5.025,8.982,7.036,14.642,6.445,6.663-.695,11.848-4.902,15.66-10.184,4.253-5.892,7.309-12.416,11.978-18.052,5.118-6.178,11.358-11.476,18.261-15.567,5.463-3.238,1.528-12.446-4.012-9.162-10.756,6.375-20.129,14.722-27.05,25.203-3.125,4.732-5.456,10.332-9.464,14.424-3.228,3.296-9.293,5.452-12.171,.689-3.324-5.501-11.133,.759-7.843,6.203h0Z" fill="#ffdc91"/></g><g id="CLAN_001_018_FRAG_007"><path d="M1635.318,620.493c20.187,19.606,52.685,16.915,70.308-4.572,4.093-4.991-3.919-10.98-7.991-6.014-14.496,17.675-40.158,18.275-56.302,2.596-4.614-4.481-10.573,3.564-6.014,7.991h0Z" fill="#ffdc91"/></g><g id="CLAN_001_018_FRAG_008"><path d="M1740.19,609.969c5.967,6.745,11.933,13.49,17.9,20.235,4.253,4.808,12.118-1.371,7.843-6.203-5.967-6.745-11.933-13.49-17.9-20.235-4.253-4.808-12.118,1.371-7.843,6.203h0Z" fill="#ffdc91"/></g><g id="CLAN_001_018_FRAG_009"><path d="M1789.572,641.896c6.466-3.473,11.099,6.205,14.251,10.281,3.279,4.24,7.374,7.596,12.399,9.559,9.915,3.874,21.34,2.29,29.667-4.346,5.038-4.015-1.161-11.862-6.203-7.843-8.323,6.633-20.839,5.435-27.515-2.935-6.394-8.017-14.533-20.365-26.61-13.878-5.629,3.024-1.676,12.217,4.012,9.162h0Z" fill="#ffdc91"/></g></g></svg>