<?xml version="1.0" encoding="UTF-8"?><svg xmlns="http://www.w3.org/2000/svg" viewBox="0 0 1920 1080"><g id="GRILLE"><g><line x1="924.545" y1="199.496" x2="129.197" y2="199.496" fill="none" stroke="#4ad0c9" stroke-linecap="square" stroke-linejoin="round" stroke-width=".5"/><line x1="924.545" y1="237.124" x2="129.197" y2="237.124" fill="none" stroke="#4ad0c9" stroke-linecap="square" stroke-linejoin="round" stroke-width=".5"/><line x1="924.545" y1="274.751" x2="129.197" y2="274.751" fill="none" stroke="#4ad0c9" stroke-linecap="square" stroke-linejoin="round" stroke-width=".5"/><line x1="924.545" y1="312.378" x2="129.197" y2="312.378" fill="none" stroke="#4ad0c9" stroke-linecap="square" stroke-linejoin="round" stroke-width=".5"/><line x1="924.545" y1="350.006" x2="129.197" y2="350.006" fill="none" stroke="#4ad0c9" stroke-linecap="square" stroke-linejoin="round" stroke-width=".5"/><line x1="924.545" y1="387.633" x2="129.197" y2="387.633" fill="none" stroke="#4ad0c9" stroke-linecap="square" stroke-linejoin="round" stroke-width=".5"/><line x1="924.545" y1="425.261" x2="129.197" y2="425.261" fill="none" stroke="#4ad0c9" stroke-linecap="square" stroke-linejoin="round" stroke-width=".5"/><line x1="924.545" y1="462.888" x2="129.197" y2="462.888" fill="none" stroke="#4ad0c9" stroke-linecap="square" stroke-linejoin="round" stroke-width=".5"/><line x1="924.545" y1="500.888" x2="129.197" y2="500.888" fill="none" stroke="#4ad0c9" stroke-linecap="square" stroke-linejoin="round" stroke-width=".5"/><line x1="924.545" y1="538.888" x2="129.197" y2="538.888" fill="none" stroke="#4ad0c9" stroke-linecap="square" stroke-linejoin="round" stroke-width=".5"/><line x1="924.545" y1="576.888" x2="129.197" y2="576.888" fill="none" stroke="#4ad0c9" stroke-linecap="square" stroke-linejoin="round" stroke-width=".5"/><line x1="924.545" y1="614.888" x2="129.197" y2="614.888" fill="none" stroke="#4ad0c9" stroke-linecap="square" stroke-linejoin="round" stroke-width=".5"/><line x1="924.545" y1="652.888" x2="129.197" y2="652.888" fill="none" stroke="#4ad0c9" stroke-linecap="square" stroke-linejoin="round" stroke-width=".5"/><line x1="924.545" y1="690.888" x2="129.197" y2="690.888" fill="none" stroke="#4ad0c9" stroke-linecap="square" stroke-linejoin="round" stroke-width=".5"/><line x1="924.545" y1="728.888" x2="129.197" y2="728.888" fill="none" stroke="#4ad0c9" stroke-linecap="square" stroke-linejoin="round" stroke-width=".5"/><line x1="924.545" y1="766.888" x2="129.197" y2="766.888" fill="none" stroke="#4ad0c9" stroke-linecap="square" stroke-linejoin="round" stroke-width=".5"/><line x1="924.545" y1="804.888" x2="129.197" y2="804.888" fill="none" stroke="#4ad0c9" stroke-linecap="square" stroke-linejoin="round" stroke-width=".5"/><line x1="924.545" y1="842.888" x2="129.197" y2="842.888" fill="none" stroke="#4ad0c9" stroke-linecap="square" stroke-linejoin="round" stroke-width=".5"/><line x1="924.545" y1="880.888" x2="129.197" y2="880.888" fill="none" stroke="#4ad0c9" stroke-linecap="square" stroke-linejoin="round" stroke-width=".5"/></g><g><line x1="1791.545" y1="199.496" x2="996.197" y2="199.496" fill="none" stroke="#4ad0c9" stroke-linecap="square" stroke-linejoin="round" stroke-width=".5"/><line x1="1791.545" y1="237.124" x2="996.197" y2="237.124" fill="none" stroke="#4ad0c9" stroke-linecap="square" stroke-linejoin="round" stroke-width=".5"/><line x1="1791.545" y1="274.751" x2="996.197" y2="274.751" fill="none" stroke="#4ad0c9" stroke-linecap="square" stroke-linejoin="round" stroke-width=".5"/><line x1="1791.545" y1="312.378" x2="996.197" y2="312.378" fill="none" stroke="#4ad0c9" stroke-linecap="square" stroke-linejoin="round" stroke-width=".5"/><line x1="1791.545" y1="350.006" x2="996.197" y2="350.006" fill="none" stroke="#4ad0c9" stroke-linecap="square" stroke-linejoin="round" stroke-width=".5"/><line x1="1791.545" y1="387.633" x2="996.197" y2="387.633" fill="none" stroke="#4ad0c9" stroke-linecap="square" stroke-linejoin="round" stroke-width=".5"/><line x1="1791.545" y1="425.261" x2="996.197" y2="425.261" fill="none" stroke="#4ad0c9" stroke-linecap="square" stroke-linejoin="round" stroke-width=".5"/><line x1="1791.545" y1="462.888" x2="996.197" y2="462.888" fill="none" stroke="#4ad0c9" stroke-linecap="square" stroke-linejoin="round" stroke-width=".5"/><line x1="1791.545" y1="500.888" x2="996.197" y2="500.888" fill="none" stroke="#4ad0c9" stroke-linecap="square" stroke-linejoin="round" stroke-width=".5"/><line x1="1791.545" y1="538.888" x2="996.197" y2="538.888" fill="none" stroke="#4ad0c9" stroke-linecap="square" stroke-linejoin="round" stroke-width=".5"/><line x1="1791.545" y1="576.888" x2="996.197" y2="576.888" fill="none" stroke="#4ad0c9" stroke-linecap="square" stroke-linejoin="round" stroke-width=".5"/><line x1="1791.545" y1="614.888" x2="996.197" y2="614.888" fill="none" stroke="#4ad0c9" stroke-linecap="square" stroke-linejoin="round" stroke-width=".5"/><line x1="1791.545" y1="652.888" x2="996.197" y2="652.888" fill="none" stroke="#4ad0c9" stroke-linecap="square" stroke-linejoin="round" stroke-width=".5"/><line x1="1791.545" y1="690.888" x2="996.197" y2="690.888" fill="none" stroke="#4ad0c9" stroke-linecap="square" stroke-linejoin="round" stroke-width=".5"/><line x1="1791.545" y1="728.888" x2="996.197" y2="728.888" fill="none" stroke="#4ad0c9" stroke-linecap="square" stroke-linejoin="round" stroke-width=".5"/><line x1="1791.545" y1="766.888" x2="996.197" y2="766.888" fill="none" stroke="#4ad0c9" stroke-linecap="square" stroke-linejoin="round" stroke-width=".5"/><line x1="1791.545" y1="804.888" x2="996.197" y2="804.888" fill="none" stroke="#4ad0c9" stroke-linecap="square" stroke-linejoin="round" stroke-width=".5"/><line x1="1791.545" y1="842.888" x2="996.197" y2="842.888" fill="none" stroke="#4ad0c9" stroke-linecap="square" stroke-linejoin="round" stroke-width=".5"/><line x1="1791.545" y1="880.888" x2="996.197" y2="880.888" fill="none" stroke="#4ad0c9" stroke-linecap="square" stroke-linejoin="round" stroke-width=".5"/></g></g><g id="FRAGMENTS"><g id="CLAN_001_012_FRAG_001"><path d="M156.331,313.635c3.483-13.357,17.49-19.405,29.63-12.751,.691,.379,1.933,.203,2.491-.357,3.266-3.275,6.532-6.551,9.799-9.826,2.248-2.254-.83-6.2-3.102-3.922-3.266,3.275-6.532,6.551-9.799,9.826l2.491-.357c-14.297-7.837-32.024-.292-36.144,15.506-.802,3.075,3.825,4.985,4.635,1.879h0Z" fill="#f37516"/></g><g id="CLAN_001_012_FRAG_002"><path d="M217.044,289.874c5.648,1.425,7.117,10.387,11.392,13.927,4.767,3.948,11.392,3.467,16.563,.535,13.711-7.774,14.394-30.668,32.545-32.484,16.684-1.67,14.844,20.378,24.854,28.283,9.146,7.222,23.244,.438,24.192-10.92,.267-3.2-4.698-3.794-4.966-.58-.587,7.032-8.993,12.147-15.288,8.191-5.031-3.162-6.641-10.048-8.772-15.192-4.559-11.005-13.639-17.926-25.919-13.502-5.994,2.16-10.689,6.777-14.354,11.857-4.275,5.924-6.838,13.657-12.536,18.446-3.295,2.77-8.496,4.649-12.454,2.046-2.453-1.613-3.816-4.655-5.228-7.097-2.351-4.067-4.719-7.284-9.449-8.477-3.11-.785-3.66,4.189-.58,4.966h0Z" fill="#f37516"/></g><g id="CLAN_001_012_FRAG_003"><path d="M341.571,295.926c2.086,4.288,6.584,6.14,11.237,5.244,5.26-1.012,8.561-5.501,10.73-10.067,3.482-7.329,5.972-15.261,8.872-22.837,1.159-3.028,2.533-8.774,5.601-10.551,7.255-4.202,7.899,7.811,7.715,11.658-.084,1.754,1.684,3.516,3.486,2.58,8.501-4.414,17.016,3.704,12.898,12.402-1.38,2.915,3.263,4.777,4.635,1.879,5.968-12.607-7.139-25.302-19.539-18.862l3.486,2.58c.292-6.095,.107-13.348-5.908-16.777-4.933-2.813-9.986-.399-12.899,4.013-4.298,6.507-6.296,14.909-9.067,22.151-1.529,3.994-2.78,8.407-5.058,12.063-2.103,3.374-8.835,8.219-11.608,2.518-1.403-2.885-5.994-.899-4.581,2.006h0Z" fill="#f37516"/></g><g id="CLAN_001_012_FRAG_004"><path d="M431.112,280.072c.247-1.365,4.478,1.306,4.966,1.838,.636,.692,1.223,1.423,1.897,2.08,1.142,1.114,2.418,2.097,3.93,2.637,4.56,1.627,8.573-3.006,12.839-.138,4.294,2.887,5.319,9.108,7.805,13.327,1.872,3.177,4.429,5.925,7.493,7.988,12.973,8.734,29.99,3.318,36.65-10.474,1.402-2.904-3.242-4.764-4.635-1.879-4.354,9.016-14.776,14.033-24.428,10.625-4.584-1.619-8.416-4.763-10.848-8.957-2.413-4.162-3.497-9.057-6.858-12.647-2.301-2.459-5.41-4.314-8.869-4.261-1.601,.024-2.731,.777-4.225,1.058-4.368,.823-5.297-1.057-7.997-3.734-3.954-3.92-11.428-4.975-12.685,1.959-.574,3.168,4.394,3.736,4.966,.58h0Z" fill="#f37516"/></g><g id="CLAN_001_012_FRAG_005"><path d="M520.569,299.278c-.03,6.157,4.039,11.295,10.164,12.623,6.285,1.364,12.366-2.081,16.257-6.834,4.998-6.105,6.118-14.195,7.472-21.704,1.603-8.889,4.573-20.244,15.216-21.504,3.194-.378,2.438-5.322-.761-4.943-11.941,1.414-16.916,12.927-18.964,23.389-1.364,6.971-1.893,14.648-6.105,20.634-1.952,2.775-4.695,5.129-8.05,5.935-4.613,1.108-10.289-1.682-10.263-7.018,.015-3.182-4.951-3.798-4.966-.58h0Z" fill="#f37516"/></g><g id="CLAN_001_012_FRAG_006"><path d="M587.842,259.099c15.969,12.002,25.869,30.264,27.364,50.168,.153,2.042,2.588,2.514,4.022,1.58,9.112-5.934,18.224-11.868,27.336-17.802,2.699-1.758-.423-5.666-3.102-3.922-9.112,5.934-18.224,11.868-27.336,17.802l4.022,1.58c-1.588-21.136-12.37-40.677-29.3-53.402-2.577-1.937-5.581,2.061-3.007,3.996h0Z" fill="#f37516"/></g><g id="CLAN_001_012_FRAG_007"><path d="M661.651,270.116l7.357,10.07c1.021,1.397,2.933,1.094,3.959-.047,5.335-5.937,12.391,8.614,14.315,11.741,3.55,5.77,7.1,11.541,10.651,17.311,1.239,2.014,4.09,.631,4.444-1.261,1.587-8.48,3.408-16.912,5.531-25.274,1.545-6.087,4-23.597,13.722-20.692,3.061,.915,4.962-3.714,1.879-4.635-9.763-2.917-15.316,5.782-17.69,13.948-3.446,11.852-6.139,23.947-8.409,36.073l4.444-1.261c-2.874-4.671-5.748-9.342-8.622-14.014-2.762-4.489-5.258-9.663-8.776-13.617-4.163-4.677-10.929-6.397-15.485-1.327l3.959-.047-7.357-10.07c-1.902-2.604-5.819,.505-3.922,3.102h0Z" fill="#f37516"/></g><g id="CLAN_001_012_FRAG_008"><path d="M742.743,302.4c4.675-10.27,10.693-22.532,22.88-25.03,12.623-2.587,18.368,8.037,19.356,18.889,.576,6.323-.546,16.594,7.491,18.688,4.837,1.261,10.17-1.072,15.211-.311,5.642,.852,10.614,3.426,14.842,7.2,2.406,2.147,5.392-1.867,3.007-3.996-4.115-3.672-8.938-6.291-14.315-7.583-2.566-.616-5.153-.918-7.79-.901-2.558,.016-5.477,1.101-7.967,.887-7.05-.607-5.112-11.927-5.763-16.85-.619-4.677-1.934-9.473-4.664-13.382-5.884-8.424-16.669-9.798-25.677-5.824-10.911,4.813-16.562,16.043-21.246,26.334-1.336,2.935,3.305,4.801,4.635,1.879h0Z" fill="#f37516"/></g><g id="CLAN_001_013_FRAG_001"><path d="M158.298,475.721c2.28-5.378,9.092-3.69,9.322,2.013,.104,2.565,3.927,2.694,4.789,.559,1.752-4.336,4.658-8.744,9.389-10.151,4.945-1.471,10.425,1.593,10.573,6.991l4.943-.761c-.393-3.725,2.997-6.392,6.419-6.803,4.036-.485,8.124,1.623,11.584,3.426,4.843,2.523,9.418,5.075,14.961,5.498,3.2,.244,3.796-4.721,.58-4.966-9.719-.742-16.961-9.519-26.988-8.934-6.643,.387-12.218,5.725-11.498,12.542,.345,3.273,5.029,2.365,4.943-.761-.191-6.979-6.927-12.02-13.679-11.652-7.729,.422-13.163,7.016-15.86,13.694l4.789,.559c-.441-10.936-14.751-12.919-18.9-3.131-1.258,2.968,3.38,4.84,4.635,1.879h0Z" fill="#ef9b5e"/></g><g id="CLAN_001_013_FRAG_002"><path d="M248.95,459.665c7.035-10.323,13.967-21.042,21.923-30.685,4.578-5.549,10.983-7.601,16.435-1.685,4.157,4.511,5.389,10.908,6.281,16.763,1.356,8.902,2.17,19.355,9.3,25.819,5.701,5.169,14.787,6.753,20.829,1.347,2.391-2.139-.698-6.072-3.102-3.922-4.469,3.997-11.01,2.329-14.921-1.678-4.316-4.422-5.492-11.022-6.386-16.894-1.419-9.325-2.375-19.969-10.108-26.492-7.199-6.073-15.573-4.001-21.403,2.634-8.518,9.694-15.586,21.136-22.843,31.785-1.81,2.656,2.181,5.67,3.996,3.007h0Z" fill="#ef9b5e"/></g><g id="CLAN_001_013_FRAG_003"><path d="M344.492,456.335c4.72-7.148,13.372-10.781,21.756-8.494,1.009,.275,2.306,.184,2.937-.814,3.014-4.759,6.165-9.926,11.123-12.877,4.629-2.755,11.894-2.85,14.651,2.583,.949,1.871,3.771,2.014,4.608-.063,2.204-5.473,4.869-11.439,10.065-14.693,4.671-2.925,11.152-2.772,14.423,2.063,1.806,2.669,5.717-.448,3.922-3.102-3.875-5.727-11.432-7.16-17.719-4.84-8.068,2.977-12.307,11.195-15.325,18.692l4.608-.063c-3.146-6.2-10.094-8.491-16.696-6.99-8.272,1.882-13.411,9.582-17.655,16.282l2.937-.814c-10.478-2.858-21.579,.958-27.631,10.122-1.769,2.679,2.22,5.696,3.996,3.007h0Z" fill="#ef9b5e"/></g><g id="CLAN_001_013_FRAG_004"><path d="M440.161,443.957c5.585,10.317,15.678,24.487,29.396,18.101,5.709-2.657,9.188-8.305,11.847-13.744,3.477-7.112,7.356-17.838,17.114-17.155,3.2,.224,3.797-4.741,.58-4.966-12.478-.874-17.684,10.794-22.329,20.242-3.377,6.869-9.028,14.355-17.722,11.358-7.111-2.451-10.956-9.654-14.305-15.841-1.52-2.809-6.117-.833-4.581,2.006h0Z" fill="#ef9b5e"/></g><g id="CLAN_001_013_FRAG_005"><path d="M513.6,453.676c4.418,9.385,8.836,18.77,13.253,28.155,1.076,2.287,4.374,1.73,4.774-.713,1.052-6.431,2.211-12.997,5.148-18.88,1.579-3.164,3.753-5.991,6.609-8.102,2.761-2.04,6.056-3.271,8.604-5.615,8.796-8.093,4.473-21.456,8.68-31.48,1.248-2.973-3.39-4.845-4.635-1.879-2.442,5.818-2.372,11.966-3.005,18.137-.285,2.779-.651,5.671-1.927,8.196-1.901,3.763-5.517,5.322-8.9,7.438-10.856,6.788-13.615,19.832-15.541,31.606l4.774-.713c-4.418-9.385-8.836-18.77-13.253-28.155-1.368-2.905-5.957-.917-4.581,2.006h0Z" fill="#ef9b5e"/></g><g id="CLAN_001_013_FRAG_006"><path d="M582.784,473.953c9.366-11.856,21.711-20.536,35.985-25.463,3.041-1.049,1.025-5.627-2.006-4.581-15.06,5.198-28.105,14.542-37.975,27.036-2,2.532,2.002,5.53,3.996,3.007h0Z" fill="#ef9b5e"/></g><g id="CLAN_001_013_FRAG_007"><path d="M639.192,452.898c15.215,6.153,28.557,15.727,39.221,28.206,1.05,1.229,2.946,1.263,3.959-.047,9.269-11.993,18.539-23.986,27.808-35.979,1.973-2.552-2.028-5.553-3.996-3.007-9.269,11.993-18.539,23.986-27.808,35.979l3.959-.047c-11.211-13.12-25.263-23.268-41.263-29.739-2.987-1.208-4.863,3.428-1.879,4.635h0Z" fill="#ef9b5e"/></g><g id="CLAN_001_013_FRAG_008"><path d="M725.002,441.251c5.249,4.263,8.969,9.467,11.406,15.767,.857,2.215,3.654,1.67,4.608-.063,2.65-4.817,9.085-3.882,10.729,1.188,.671,2.069,.511,4.34,1.218,6.421,1.022,3.009,2.998,4.821,6.147,5.394,2.424,.441,4.852,.066,7.276,.757,2.856,.814,5.513,2.406,7.781,4.294,5.015,4.174,8.299,10.057,11.466,15.648,1.57,2.771,6.17,.8,4.581-2.006-3.607-6.368-7.313-12.907-13.039-17.638-2.617-2.162-5.658-3.927-8.909-4.933-3.877-1.2-8.933,.293-10.821-4.109-1.09-2.542-.578-5.446-2.043-7.979-1.324-2.289-3.484-3.975-5.974-4.81-5.465-1.831-10.44,1.157-13.046,5.893l4.608-.063c-2.739-7.081-7.092-12.975-12.98-17.757-2.505-2.034-5.501,1.971-3.007,3.996h0Z" fill="#ef9b5e"/></g><g id="CLAN_001_014_FRAG_001"><path d="M163.149,666.008c.2-5.302,.256-11.292,3.241-15.915,2.839-4.397,10.328-7.952,13.702-1.906,1.087,1.948,4.66,2.008,4.774-.713,.414-9.94,11.841-14.889,18.848-7.247,1.573,1.715,3.917,.847,4.444-1.261,1.238-4.95,3.073-10.177,7.512-13.133,4.493-2.992,12.516-2.008,11.916,4.903-.278,3.2,4.687,3.793,4.966,.58,.673-7.751-6.33-13.425-13.834-12.095-9.382,1.663-13.463,10.917-15.527,19.165l4.444-1.261c-9.65-10.525-27.126-4.869-27.736,9.769l4.774-.713c-3.494-6.26-11.215-7.881-17.248-4.116-7.926,4.947-8.923,14.909-9.243,23.362-.121,3.194,4.844,3.801,4.966,.58h0Z" fill="#e46441"/></g><g id="CLAN_001_014_FRAG_002"><path d="M254.55,630.569c5.517-6.285,15.984-5.45,20.809,1.17,1.374,1.886,4.042,.729,4.444-1.261,1.534-7.604,10.707-7.386,15.627-3.465,5.375,4.284,7.182,11.295,8.56,17.707,.561,2.611,4.79,2.877,4.955-.091,.948-17.098,14.689-30.33,31.971-29.939,3.189,.072,3.8-4.893,.58-4.966-19.873-.45-36.407,14.323-37.517,34.325l4.955-.091c-2.058-9.581-5.735-20.485-15.967-23.97-7.883-2.685-16.457,1.622-18.129,9.909l4.444-1.261c-6.846-9.393-21.17-9.684-28.726-1.076-2.128,2.424,1.884,5.412,3.996,3.007h0Z" fill="#e46441"/></g><g id="CLAN_001_014_FRAG_003"><path d="M370.163,615.035c13.531-5.656,30.089,.537,36.512,13.749,.661,1.36,2.596,2.083,3.841,.958,5.973-5.398,13.316-8.213,21.39-7.89,3.195,.128,3.801-4.837,.58-4.966-9.361-.375-18.099,2.633-25.071,8.934l3.841,.958c-7.617-15.668-27.004-23.052-43.099-16.324-2.969,1.241-.969,5.825,2.006,4.581h0Z" fill="#e46441"/></g><g id="CLAN_001_014_FRAG_004"><path d="M453.451,633.548c6.586,8.739,18.959,7.791,27.367,2.349,11.524-7.458,18.745-23.325,33.955-23.758,3.204-.091,2.423-5.034-.761-4.943-11.152,.318-18.971,8.458-26.227,15.977-7.017,7.271-21.608,18.955-30.412,7.273-1.94-2.575-5.859,.531-3.922,3.102h0Z" fill="#e46441"/></g><g id="CLAN_001_014_FRAG_005"><path d="M532.302,627.889c13.8,10.944,25.282-10.576,36.615-14.475,18.204-6.263,35.639,6.288,49.484,16.53,2.591,1.917,5.596-2.08,3.007-3.996-12.779-9.454-26.73-19.381-43.354-19.052-7.166,.142-14.081,2.248-19.73,6.731-5.847,4.64-14.505,17.013-23.014,10.265-2.528-2.005-5.526,1.998-3.007,3.996h0Z" fill="#e46441"/></g><g id="CLAN_001_014_FRAG_006"><path d="M633.673,641.617c7.209,8.693,19.008,2.316,25.076-4.296,9.047-9.858,14.792-27.076,30.255-27.99,3.207-.19,2.434-5.132-.761-4.943-10.714,.633-18.265,8.773-24.023,17.067-3.492,5.03-6.69,10.466-11.254,14.63-3.771,3.44-11.193,7.468-15.371,2.43-2.054-2.477-5.981,.619-3.922,3.102h0Z" fill="#e46441"/></g><g id="CLAN_001_014_FRAG_007"><path d="M707.125,648.724c19.311,2.94,38.872,.586,56.961-6.774,2.981-1.213,.979-5.795-2.006-4.581-17.311,7.043-35.904,9.2-54.376,6.388-3.183-.485-3.759,4.482-.58,4.966h0Z" fill="#e46441"/></g><g id="CLAN_001_014_FRAG_008"><path d="M791.809,633.237c4.652-9.844,18.774-8.744,21.538,1.922,.593,2.288,3.77,2.992,4.789,.559,1.952-4.662,8.168-4.959,11.973-2.479,4.683,3.053,6.754,8.706,8.478,13.766,.57,1.672,3.366,2.081,4.288,.501,4.292-7.353,11.935,.929,14.274,5.257,2.433,4.502,4.446,9.064,7.471,13.232,6.148,8.473,14.492,15,24.002,19.301,2.939,1.329,4.805-3.312,1.879-4.635-6.615-2.991-12.613-7.133-17.583-12.447-5.09-5.442-8.034-11.68-11.552-18.132-2.47-4.53-5.736-8.765-11.037-9.913-4.411-.955-9.089,.284-11.45,4.329l4.288,.501c-2.475-7.263-6.366-15.72-14.512-17.821-6.035-1.556-12.665,.713-15.155,6.659l4.789,.559c-3.994-15.413-24.253-17.561-31.115-3.041-1.378,2.916,3.265,4.778,4.635,1.879h0Z" fill="#e46441"/></g><g id="CLAN_001_015_FRAG_001"><path d="M162.546,805.443c1.503-6.786,10.562-9.156,15.6-4.876,1.343,1.141,3.115,.27,3.821-1.058,4.752-8.942,10.057-19.13,19.245-24.272,7.858-4.398,19.056-4.113,24.484,3.813,.601,.878,2.02,1.196,2.964,.74,10.142-4.904,20.954,1.429,21.776,12.595,.063,.853,.774,1.624,1.532,1.937,13.267,5.484,23.226,16.274,27.806,29.858,1.027,3.047,5.604,1.029,4.581-2.006-4.974-14.753-16.139-26.548-30.508-32.487l1.532,1.937c-1.055-14.34-15.84-22.645-28.725-16.415l2.964,.74c-6.176-9.02-18.496-10.391-28.076-6.411-11.887,4.939-18.491,17.331-24.209,28.092l3.821-1.058c-8.212-6.976-21.314-1.908-23.574,8.292-.695,3.139,4.276,3.696,4.966,.58h0Z" fill="#fb2727"/></g><g id="CLAN_001_015_FRAG_002"><path d="M307.035,771.704c8.84-3.46,18.589-.679,24.47,6.695,2.12,2.658,4.014,5.362,7.301,6.62,4.247,1.626,8.683,.068,13.05,.467,4.831,.442,9.548,3.083,12.486,6.946,2.522,3.316,2.806,7.659,5.281,10.918,2.046,2.693,4.933,3.543,8.211,3.706,5.8,.288,11.577,2.333,11.527,9.308-.023,3.183,4.943,3.798,4.966,.58,.03-4.244-1.281-8.119-4.448-11.08-3.414-3.192-7.026-3.458-11.466-3.775-4.283-.305-5.414-2.827-6.764-6.509-.824-2.248-1.919-4.349-3.386-6.251-2.755-3.57-6.68-6.317-10.948-7.746-5.195-1.739-9.876,.011-15.029-.82s-7.726-7.313-11.668-10.307c-7.333-5.571-17.094-6.659-25.589-3.334-2.998,1.173-.992,5.754,2.006,4.581h0Z" fill="#fb2727"/></g><g id="CLAN_001_015_FRAG_003"><path d="M421.34,799.507c7.194-12.154,19.066-30.42,35.972-23.922,6.501,2.499,7.319,10.318,14.054,12.037,3.679,.939,7.053,1.01,10.362,3.224,3.85,2.575,6.425,6.458,7.451,10.946,.712,3.115,5.662,2.387,4.943-.761-1.841-8.058-7.592-14.831-15.673-17.154-2.097-.603-4.757-.392-6.708-1.283-2.458-1.122-3.194-3.975-4.743-5.95-2.278-2.904-5.465-4.977-8.966-6.093-19.154-6.109-32.256,11.703-40.688,25.948-1.625,2.745,2.358,5.774,3.996,3.007h0Z" fill="#fb2727"/></g><g id="CLAN_001_015_FRAG_004"><path d="M511.827,813.926c6.781,.773,12.655-1.755,18.367-5.187,6.605-3.969,14.797-10.651,23.049-8.104,6.727,2.076,8.295,9.468,9.902,15.451,1.408,5.243,2.91,10.373,6.431,14.627,2.052,2.479,5.978-.617,3.922-3.102-7.517-9.084-4.604-25.093-16.524-30.907-16.599-8.095-28.69,14.065-44.567,12.255-3.196-.364-3.782,4.601-.58,4.966h0Z" fill="#fb2727"/></g><g id="CLAN_001_015_FRAG_005"><path d="M588.819,786.188c7.84-1.909,15.643,2.026,18.612,9.575,.744,1.892,3.093,1.802,4.288,.501,9.471-10.311,23.595-14.755,37.288-12.183,3.164,.594,3.73-4.375,.58-4.966-15.512-2.914-31.232,2.568-41.863,14.142l4.288,.501c-3.718-9.454-14.05-14.924-23.954-12.512-3.099,.755-2.375,5.706,.761,4.943h0Z" fill="#fb2727"/></g><g id="CLAN_001_015_FRAG_006"><path d="M669.094,793.148c3.614-1.966,8.458,8.271,11.851,9.437,1.723,.592,3.472,.45,5.183-.087,3.714-1.164,4.982-3.746,8.919-.442,2.268,1.904,4.103,4.965,5.982,7.255,2.532,3.087,5.064,6.175,7.596,9.262,4.642,5.66,9.284,11.32,13.926,16.98,2.041,2.489,5.967-.608,3.922-3.102-5.908-7.204-11.816-14.408-17.724-21.611-2.532-3.087-5.052-6.185-7.596-9.262-1.817-2.198-3.703-4.855-6.484-5.933-2.081-.807-4.204-.464-6.23,.311-1.334,.511-3.118,2.023-4.561,2.009-2.28-.023-3.323-1.795-4.393-3.333-2.844-4.087-6.909-9.051-12.398-6.065-2.805,1.526-.829,6.123,2.006,4.581h0Z" fill="#fb2727"/></g><g id="CLAN_001_016_FRAG_001"><path d="M1021.109,317.926c3.636-5.283,10.795-7.107,16.354-3.643,1.675,1.043,3.597,.234,3.987-1.708,2.953-14.704,18.441-21.968,31.861-15.696,1.734,.81,3.72-.884,3.411-2.698-2.12-12.441,11.014-21.546,21.777-14.531,1.411,.919,3.982,.343,3.987-1.708,.032-13.872,12.13-23.31,25.595-20.012,3.118,.764,3.669-4.21,.58-4.966-15.91-3.896-31.103,8.029-31.141,24.399l3.987-1.708c-14.298-9.318-32.632,2.246-29.728,19.288l3.411-2.698c-16.559-7.74-35.146,2.02-38.706,19.751l3.987-1.708c-7.791-4.854-18.078-3.038-23.357,4.632-1.823,2.649,2.169,5.662,3.996,3.007h0Z" fill="#ffb17d"/></g><g id="CLAN_001_016_FRAG_002"><path d="M1151.093,288.661c2.446-10.28,13.786-14.913,22.807-9.476,1.445,.871,3.945,.381,3.987-1.708,.281-13.892,14.985-22.305,26.88-14.492,1.794,1.178,4.29-.129,3.975-2.378-1.736-12.408,9.92-21.638,21.602-17.091,3.001,1.168,4.88-3.467,1.879-4.635-15.241-5.931-30.69,6.289-28.424,22.487l3.975-2.378c-14.768-9.7-34.49-.085-34.854,17.908l3.987-1.708c-12.465-7.513-27.42-1.232-30.781,12.892-.743,3.124,4.229,3.677,4.966,.58h0Z" fill="#ffb17d"/></g><g id="CLAN_001_016_FRAG_003"><path d="M1253.023,261.943c.534-6.802,7.22-8.542,12.271-5.228,2.924,1.918,5.404,4.574,8.755,5.798,6.506,2.378,11.141-2.036,14.964-6.706,3.122-3.814,6.24-7.302,11.56-4.841,4.875,2.255,7.221,8.489,9.274,13.093,4.752,10.653,7.738,21.899,9.172,33.463,.396,3.192,5.34,2.437,4.943-.761-1.697-13.678-5.528-27.189-11.802-39.493-4.038-7.919-12.844-16.675-21.966-9.926-3.541,2.62-5.406,7.027-8.973,9.537-5.293,3.725-9.734-2.257-13.969-4.85-7.992-4.893-18.433-.383-19.195,9.334-.251,3.2,4.714,3.795,4.966,.58h0Z" fill="#ffb17d"/></g><g id="CLAN_001_016_FRAG_004"><path d="M1352.241,315.579c6.032-7.061,6.224-16.004,7.894-24.697,.945-4.921,2.591-10.263,6.757-13.448,4.082-3.121,10.518-2.661,12.446,2.634,.755,2.075,3.827,1.835,4.608-.063,2.255-5.479,4.51-10.957,6.765-16.436,1.928-4.684,3.4-11.714,6.92-15.477,6.175-6.599,8.788,4.85,8.779,9.213-.009,4.329-.067,8.352,1.852,12.34,.626,1.3,2.65,2.155,3.841,.958,6.387-6.42,17.024-4.514,19.429,4.68,.805,3.079,5.759,2.359,4.943-.761-3.254-12.438-18.103-17.258-27.474-7.84l3.841,.958c-3.029-6.294-.044-13.56-3.03-19.935-1.938-4.138-5.924-7.549-10.731-6.391-5.256,1.266-7.384,6.754-9.248,11.246-3.532,8.512-7.015,17.045-10.523,25.567l4.608-.063c-3.528-9.692-15.867-9.26-22.122-2.685-9.816,10.32-4.512,26.612-13.552,37.194-2.096,2.453,1.914,5.444,3.996,3.007h0Z" fill="#ffb17d"/></g><g id="CLAN_001_016_FRAG_005"><path d="M1446.29,309.232c2.974,6.835,11.692,8.597,17.754,4.695,10.045-6.467,8.583-19.317,11.872-29.277,1.806-5.47,7.204-12.798,13.867-9.343,4.193,2.174,3.323,9.782,6.182,13.536,4.623,6.07,13.617,8.048,20.212,4.167,2.738-1.611,.77-6.214-2.006-4.581-3.738,2.199-8.167,2.109-11.811-.346-4.256-2.869-3.67-7.107-5.242-11.417-2.426-6.652-10.529-8.72-16.592-5.742-7.931,3.897-10.002,13.3-11.309,21.213-.867,5.249-1.631,10.955-5.192,15.172-3.315,3.925-10.609,5.766-13.154-.084-1.283-2.949-5.868-.953-4.581,2.006h0Z" fill="#ffb17d"/></g><g id="CLAN_001_016_FRAG_006"><path d="M1538.467,284.388c7.243-7.387,16.406-.184,19.969,7.074,3.468,7.066,3.806,15.337,7.535,22.265,2.503,4.65,6.884,8.249,12.456,7.029,6.412-1.404,9.436-7.639,11.676-13.136,1.216-2.984-3.42-4.86-4.635-1.879-1.704,4.183-4.747,11.87-10.809,10.03-3.184-.967-4.689-4.934-5.71-7.783-2.538-7.083-3.462-14.628-7.375-21.187-5.277-8.846-17.749-14.965-26.21-6.335-2.226,2.27,.851,6.217,3.102,3.922h0Z" fill="#ffb17d"/></g><g id="CLAN_001_016_FRAG_007"><path d="M1605.459,296.484c13.831-.241,25.405,11.662,25.83,25.226,.101,3.205,5.043,2.425,4.943-.761-.52-16.585-15.206-29.692-31.534-29.407-3.202,.056-2.418,4.998,.761,4.943h0Z" fill="#ffb17d"/></g><g id="CLAN_001_017_FRAG_001"><path d="M1019.68,471.522c17.265-4.409,25.74-19.962,35.754-33.191,4.845-6.401,12.175-15.242,21.337-13.481,9.716,1.868,13.64,12.82,16.324,21.003,2.465,7.516,4.841,15.789,11.172,21.064,4.834,4.028,12.015,5.571,17.599,2.143,4.595-2.821,6.567-7.969,7.984-12.921,1.544-5.4,2.423-12.828,8.02-15.601,2.873-1.423,.889-6.015-2.006-4.581-11.102,5.5-7.358,19.339-14.739,27.317-8.993,9.72-18.528-5.372-21.206-12.676-2.763-7.535-4.428-15.629-9.439-22.11-3.874-5.011-9.504-8.832-16.007-8.824-7.005,.009-13.047,4.353-17.684,9.229-12.137,12.763-19.184,32.914-37.869,37.685-3.086,.788-2.364,5.741,.761,4.943h0Z" fill="#fbbf08"/></g><g id="CLAN_001_017_FRAG_002"><path d="M1159.416,437.586c10.836,.005,21.671,.01,32.507,.016,3.18,.002,3.797-4.965,.58-4.966-10.836-.005-21.671-.01-32.507-.016-3.18-.002-3.797,4.965-.58,4.966h0Z" fill="#fbbf08"/></g><g id="CLAN_001_017_FRAG_003"><path d="M1215.927,454.123c13.53-8.516,28.728-13.547,44.635-15.004,3.202-.293,2.439-5.236-.761-4.943-16.812,1.54-32.7,7.04-46.976,16.025-2.723,1.714,.402,5.621,3.102,3.922h0Z" fill="#fbbf08"/></g><g id="CLAN_001_017_FRAG_004"><path d="M1279.574,446.416c5.56,13.195,19.178,22.233,33.628,21.374,14.122-.839,26.553-11.281,30.535-24.699,.909-3.062-3.72-4.963-4.635-1.879-3.38,11.39-13.272,20.289-25.263,21.524-12.694,1.308-24.832-6.81-29.684-18.326-1.249-2.965-5.833-.966-4.581,2.006h0Z" fill="#fbbf08"/></g><g id="CLAN_001_017_FRAG_005"><path d="M1369.974,456.795c14.656-11.334,34.966-12.337,50.259-1.564,8.949,6.304,20.561,27.353,33.897,16.139,2.462-2.07-.633-5.998-3.102-3.922-8.45,7.106-16.805-6.199-21.907-11.265-5.309-5.271-11.911-9.254-19.06-11.468-14.932-4.623-30.892-1.352-43.189,8.158-2.55,1.972,.553,5.892,3.102,3.922h0Z" fill="#fbbf08"/></g><g id="CLAN_001_017_FRAG_006"><path d="M1470.074,462.25c12.086-11.274,22.876-23.758,32.215-37.397,1.816-2.653-2.175-5.666-3.996-3.007-9.097,13.285-19.545,25.498-31.321,36.483-2.34,2.183,.744,6.121,3.102,3.922h0Z" fill="#fbbf08"/></g><g id="CLAN_001_017_FRAG_007"><path d="M1515.274,466.358c12.784,5.792,23.508-6.02,29.254-16.038,3.902-6.804,7.591-14.198,14.912-17.905,7.009-3.549,15.019-3.499,22.078-.196,2.921,1.367,4.784-3.275,1.879-4.635-11.403-5.336-25.426-2.962-34.057,6.355-8.066,8.707-15.748,35.231-32.187,27.784-2.938-1.331-4.804,3.31-1.879,4.635h0Z" fill="#fbbf08"/></g><g id="CLAN_001_017_FRAG_008"><path d="M1601.181,444.482c6.643-.717,11.605,5.255,12.691,11.326,1.1,6.148-.548,12.464-2.014,18.407-.366,1.483,1.411,3.156,2.864,2.761,10.847-2.947,22.953,3.363,25.93,14.447,.825,3.07,5.779,2.352,4.943-.761-3.626-13.498-17.924-22.355-31.635-18.629l2.864,2.761c2.073-8.406,4.189-17.947-.152-26.025-3.251-6.049-9.318-9.979-16.253-9.231-3.198,.345-2.439,5.288,.761,4.943h0Z" fill="#fbbf08"/></g><g id="CLAN_001_018_FRAG_001"><path d="M1030.625,643.212c10.066-6.452,21.987-8.314,33.598-5.667,1.024,.233,2.262-.596,2.607-1.543,4.3-11.786,13.741-18.021,25.617-20.546,8.909-1.894,16.846-4.798,19.179-14.535,1.217-5.077,.614-13.533,6.242-16.17,5.018-2.351,7.517,5.052,12.033,6.205,4.925,1.257,8.281-2.727,12.531-4.256,6.463-2.325,11.249,5.382,13.886,10.063,1.564,2.776,6.164,.804,4.581-2.006-2.524-4.482-5.499-9.139-10.064-11.776-5.009-2.894-9.456-1.541-14.176,1.166-1.153,.661-2.884,1.995-4.299,2.025-2.734,.058-3.754-2.112-5.366-3.719-1.548-1.544-3.138-2.894-5.346-3.327-5.041-.987-9.43,2.943-11.662,7.068-3.045,5.628-1.385,13.006-5.151,18.259-3.89,5.426-12.01,5.593-17.911,7.13-11.513,3-20.655,11.373-24.729,22.54l2.607-1.543c-12.956-2.954-26.131-.434-37.28,6.712-2.711,1.737,.413,5.645,3.102,3.922h0Z" fill="#ffdc91"/></g><g id="CLAN_001_018_FRAG_002"><path d="M1179.099,614.701c5.831-6.175,14.179-14.626,23.5-10.536,8.095,3.552,2.76,14.344,10.186,18.385,2.296,1.249,4.765,.897,7.035-.226,1.383-.684,2.746-2.27,4.229-2.635,3.318-.817,5.309,2.483,6.996,4.653,6.701,8.619,13.358,17.272,20.037,25.908,1.972,2.55,5.893-.553,3.922-3.102-3.929-5.08-7.858-10.16-11.786-15.24-3.663-4.736-7.078-10.02-11.246-14.323-2.367-2.444-5.401-3.926-8.808-2.899-1.841,.555-3.204,1.823-4.845,2.738-4.539,2.529-5.087-2.593-5.477-5.961-.946-8.182-6.95-13.205-15.199-13.299-9.453-.107-16.517,7.152-22.54,13.529-2.21,2.341,1.809,5.322,3.996,3.007h0Z" fill="#ffdc91"/></g><g id="CLAN_001_018_FRAG_003"><path d="M1276.946,657.917c1.566-4.466,4.358-8.179,8.43-10.646,4.407-2.669,8.836-2.186,13.611-3.34,7.669-1.852,10.107-9.352,12.315-16.018,1.209-3.649,3.092-8.82,7.084-10.255,3.944-1.418,8.099,2.288,12.333,1.257,3.116-.759,5.486-3.024,7.424-5.479,2.838-3.596,5.451-10.268,11.012-9.378,3.18,.509,3.753-4.459,.58-4.966-4.05-.648-7.316,1.084-10.105,3.946-3.082,3.163-5.52,10.219-10.298,11.111-4.261,.795-7.856-2.835-12.393-1.25-3.523,1.23-6.033,4.192-7.823,7.356-2.101,3.715-2.842,7.893-4.514,11.782-1.137,2.644-2.631,5.417-5.427,6.616-2.759,1.183-6.066,.781-8.972,1.385-8.376,1.741-15.092,8.016-17.893,16.002-1.063,3.031,3.569,4.919,4.635,1.879h0Z" fill="#ffdc91"/></g><g id="CLAN_001_018_FRAG_004"><path d="M1376.998,615.508c21.123-11.795,47.58-11.724,68.437,.706,2.741,1.634,5.769-2.349,3.007-3.996-22.338-13.312-50.671-14.011-73.45-1.291-2.783,1.554-.81,6.154,2.006,4.581h0Z" fill="#ffdc91"/></g><g id="CLAN_001_018_FRAG_005"><path d="M1474.229,595.067c12.128-.866,23.278,6.839,27.247,18.218,1.059,3.038,5.637,1.023,4.581-2.006-4.739-13.59-18.339-22.172-32.589-21.155-3.206,.229-2.437,5.171,.761,4.943h0Z" fill="#ffdc91"/></g><g id="CLAN_001_018_FRAG_006"><path d="M1514.438,630.862c6.499,9.975,19.268,3.353,24.335-4.246,3.848-5.77,6.685-11.991,11.156-17.371,4.648-5.593,10.201-10.222,16.351-14.073,2.727-1.708-.399-5.614-3.102-3.922-8.749,5.479-16.337,12.72-21.966,21.4-2.723,4.199-4.696,8.929-7.808,12.865-3.439,4.35-11.077,8.335-15.045,2.244-1.758-2.699-5.667,.423-3.922,3.102h0Z" fill="#ffdc91"/></g><g id="CLAN_001_018_FRAG_007"><path d="M1582.644,610.877c17.443,16.843,45.191,14.86,60.487-3.721,2.051-2.492-1.955-5.486-3.996-3.007-13.725,16.672-38.073,17.613-53.484,2.732-2.314-2.234-5.294,1.788-3.007,3.996h0Z" fill="#ffdc91"/></g><g id="CLAN_001_018_FRAG_008"><path d="M1663.01,601.762c5.371,6.072,10.742,12.143,16.113,18.215,2.126,2.404,6.059-.686,3.922-3.102-5.371-6.072-10.742-12.143-16.113-18.215-2.126-2.404-6.059,.686-3.922,3.102h0Z" fill="#ffdc91"/></g><g id="CLAN_001_018_FRAG_009"><path d="M1705.091,629.91c7.495-3.922,12.167,6.252,15.991,10.855,2.734,3.291,6.195,5.789,10.231,7.233,8.144,2.914,17.264,1.49,24.033-3.877,2.525-2.001-.576-5.924-3.102-3.922-8.49,6.731-21.038,5.333-27.746-3.187-5.133-6.519-11.575-16.831-21.414-11.683-2.834,1.483-.855,6.078,2.006,4.581h0Z" fill="#ffdc91"/></g></g></svg>