<?xml version="1.0" encoding="UTF-8"?><svg xmlns="http://www.w3.org/2000/svg" viewBox="0 0 1920 1080"><g id="GRILLE"><g><line x1="924.545" y1="199.496" x2="129.197" y2="199.496" fill="none" stroke="#1a1aa7" stroke-linecap="square" stroke-linejoin="round" stroke-width=".5"/><line x1="924.545" y1="237.124" x2="129.197" y2="237.124" fill="none" stroke="#1a1aa7" stroke-linecap="square" stroke-linejoin="round" stroke-width=".5"/><line x1="924.545" y1="274.751" x2="129.197" y2="274.751" fill="none" stroke="#1a1aa7" stroke-linecap="square" stroke-linejoin="round" stroke-width=".5"/><line x1="924.545" y1="312.378" x2="129.197" y2="312.378" fill="none" stroke="#1a1aa7" stroke-linecap="square" stroke-linejoin="round" stroke-width=".5"/><line x1="924.545" y1="350.006" x2="129.197" y2="350.006" fill="none" stroke="#1a1aa7" stroke-linecap="square" stroke-linejoin="round" stroke-width=".5"/><line x1="924.545" y1="387.633" x2="129.197" y2="387.633" fill="none" stroke="#1a1aa7" stroke-linecap="square" stroke-linejoin="round" stroke-width=".5"/><line x1="924.545" y1="425.261" x2="129.197" y2="425.261" fill="none" stroke="#1a1aa7" stroke-linecap="square" stroke-linejoin="round" stroke-width=".5"/><line x1="924.545" y1="462.888" x2="129.197" y2="462.888" fill="none" stroke="#1a1aa7" stroke-linecap="square" stroke-linejoin="round" stroke-width=".5"/><line x1="924.545" y1="500.888" x2="129.197" y2="500.888" fill="none" stroke="#1a1aa7" stroke-linecap="square" stroke-linejoin="round" stroke-width=".5"/><line x1="924.545" y1="538.888" x2="129.197" y2="538.888" fill="none" stroke="#1a1aa7" stroke-linecap="square" stroke-linejoin="round" stroke-width=".5"/><line x1="924.545" y1="576.888" x2="129.197" y2="576.888" fill="none" stroke="#1a1aa7" stroke-linecap="square" stroke-linejoin="round" stroke-width=".5"/><line x1="924.545" y1="614.888" x2="129.197" y2="614.888" fill="none" stroke="#1a1aa7" stroke-linecap="square" stroke-linejoin="round" stroke-width=".5"/><line x1="924.545" y1="652.888" x2="129.197" y2="652.888" fill="none" stroke="#1a1aa7" stroke-linecap="square" stroke-linejoin="round" stroke-width=".5"/><line x1="924.545" y1="690.888" x2="129.197" y2="690.888" fill="none" stroke="#1a1aa7" stroke-linecap="square" stroke-linejoin="round" stroke-width=".5"/><line x1="924.545" y1="728.888" x2="129.197" y2="728.888" fill="none" stroke="#1a1aa7" stroke-linecap="square" stroke-linejoin="round" stroke-width=".5"/><line x1="924.545" y1="766.888" x2="129.197" y2="766.888" fill="none" stroke="#1a1aa7" stroke-linecap="square" stroke-linejoin="round" stroke-width=".5"/><line x1="924.545" y1="804.888" x2="129.197" y2="804.888" fill="none" stroke="#1a1aa7" stroke-linecap="square" stroke-linejoin="round" stroke-width=".5"/><line x1="924.545" y1="842.888" x2="129.197" y2="842.888" fill="none" stroke="#1a1aa7" stroke-linecap="square" stroke-linejoin="round" stroke-width=".5"/><line x1="924.545" y1="880.888" x2="129.197" y2="880.888" fill="none" stroke="#1a1aa7" stroke-linecap="square" stroke-linejoin="round" stroke-width=".5"/></g><g><line x1="1791.545" y1="199.496" x2="996.197" y2="199.496" fill="none" stroke="#1a1aa7" stroke-linecap="square" stroke-linejoin="round" stroke-width=".5"/><line x1="1791.545" y1="237.124" x2="996.197" y2="237.124" fill="none" stroke="#1a1aa7" stroke-linecap="square" stroke-linejoin="round" stroke-width=".5"/><line x1="1791.545" y1="274.751" x2="996.197" y2="274.751" fill="none" stroke="#1a1aa7" stroke-linecap="square" stroke-linejoin="round" stroke-width=".5"/><line x1="1791.545" y1="312.378" x2="996.197" y2="312.378" fill="none" stroke="#1a1aa7" stroke-linecap="square" stroke-linejoin="round" stroke-width=".5"/><line x1="1791.545" y1="350.006" x2="996.197" y2="350.006" fill="none" stroke="#1a1aa7" stroke-linecap="square" stroke-linejoin="round" stroke-width=".5"/><line x1="1791.545" y1="387.633" x2="996.197" y2="387.633" fill="none" stroke="#1a1aa7" stroke-linecap="square" stroke-linejoin="round" stroke-width=".5"/><line x1="1791.545" y1="425.261" x2="996.197" y2="425.261" fill="none" stroke="#1a1aa7" stroke-linecap="square" stroke-linejoin="round" stroke-width=".5"/><line x1="1791.545" y1="462.888" x2="996.197" y2="462.888" fill="none" stroke="#1a1aa7" stroke-linecap="square" stroke-linejoin="round" stroke-width=".5"/><line x1="1791.545" y1="500.888" x2="996.197" y2="500.888" fill="none" stroke="#1a1aa7" stroke-linecap="square" stroke-linejoin="round" stroke-width=".5"/><line x1="1791.545" y1="538.888" x2="996.197" y2="538.888" fill="none" stroke="#1a1aa7" stroke-linecap="square" stroke-linejoin="round" stroke-width=".5"/><line x1="1791.545" y1="576.888" x2="996.197" y2="576.888" fill="none" stroke="#1a1aa7" stroke-linecap="square" stroke-linejoin="round" stroke-width=".5"/><line x1="1791.545" y1="614.888" x2="996.197" y2="614.888" fill="none" stroke="#1a1aa7" stroke-linecap="square" stroke-linejoin="round" stroke-width=".5"/><line x1="1791.545" y1="652.888" x2="996.197" y2="652.888" fill="none" stroke="#1a1aa7" stroke-linecap="square" stroke-linejoin="round" stroke-width=".5"/><line x1="1791.545" y1="690.888" x2="996.197" y2="690.888" fill="none" stroke="#1a1aa7" stroke-linecap="square" stroke-linejoin="round" stroke-width=".5"/><line x1="1791.545" y1="728.888" x2="996.197" y2="728.888" fill="none" stroke="#1a1aa7" stroke-linecap="square" stroke-linejoin="round" stroke-width=".5"/><line x1="1791.545" y1="766.888" x2="996.197" y2="766.888" fill="none" stroke="#1a1aa7" stroke-linecap="square" stroke-linejoin="round" stroke-width=".5"/><line x1="1791.545" y1="804.888" x2="996.197" y2="804.888" fill="none" stroke="#1a1aa7" stroke-linecap="square" stroke-linejoin="round" stroke-width=".5"/><line x1="1791.545" y1="842.888" x2="996.197" y2="842.888" fill="none" stroke="#1a1aa7" stroke-linecap="square" stroke-linejoin="round" stroke-width=".5"/><line x1="1791.545" y1="880.888" x2="996.197" y2="880.888" fill="none" stroke="#1a1aa7" stroke-linecap="square" stroke-linejoin="round" stroke-width=".5"/></g></g><g id="FRAGMENTS"><g id="GOUR_007_001_FRAG_001"><path d="M158.732,305.908c10.84-8.734,18.128-20.665,21.006-34.279,.588-2.781,.731-6.248,2.635-8.527,2.282-2.731,5.213-2.487,7.122,.467,1.887,2.92,2.1,7.404,2.58,10.754,1.183,8.244,.539,16.82,1.98,24.968,.936,5.292,4.362,10.92,10.258,11.354,6.193,.455,10.254-5.075,12.087-10.26,1.467-4.15,2.449-8.51,3.634-12.744,.649-2.319,1.972-13.336,6.337-9.443,1.626,1.45,1.803,4.9,3.462,6.683,1.762,1.893,3.697,2.676,6.232,2.182,3.146-.613,2.41-5.561-.761-4.943-2.96,.577-4.335-6.755-6.085-8.644-1.406-1.518-3.289-2.548-5.423-2.283-6.216,.77-7.09,9.899-8.397,14.569-1.182,4.222-2.107,8.632-3.634,12.744-1.031,2.776-2.647,6.649-6.12,7.101-4.167,.542-6.061-3.906-6.647-7.077-1.5-8.111-.8-16.742-1.98-24.968-.752-5.24-1.371-12.169-5.843-15.767-4.715-3.794-10.784-1.195-13.596,3.554-1.746,2.949-2.098,6.416-2.807,9.701-.836,3.878-2.029,7.615-3.669,11.229-3.516,7.747-8.864,14.383-15.473,19.708-2.508,2.021,.591,5.945,3.102,3.922h0Z" fill="#8252b1"/></g><g id="GOUR_007_001_FRAG_002"><path d="M254.928,283.728c4.555-4.649,11.769-2.577,15.543,2.068,4.061,4.998,4.818,11.947,5.64,18.101,1.955,14.643,3.829,29.298,5.744,43.947,.315,2.408,3.951,2.887,4.789,.559,6.124-17.012,14.579-32.928,25.276-47.508,1.906-2.598-2.09-5.604-3.996-3.007-10.938,14.908-19.652,31.237-25.915,48.636l4.789,.559c-1.332-10.191-2.664-20.381-3.996-30.572-1.062-8.125-1.532-16.658-3.858-24.543-1.783-6.044-5.143-11.727-11.096-14.383-5.358-2.39-11.777-2.109-16.021,2.221-2.225,2.27,.852,6.218,3.102,3.922h0Z" fill="#8252b1"/></g><g id="GOUR_007_001_FRAG_003"><path d="M325.54,293.364c5.975-6.497,16.311-2.037,23.531-.783,6.818,1.184,13.865,.623,18.662-4.906,4.909-5.659,6.473-13.756,9.604-20.404,3.976-8.443,10.332-16.234,20.229-17.068,3.204-.27,2.438-5.212-.761-4.943-7.516,.633-13.927,4.888-18.517,10.739-5.765,7.347-7.733,16.323-11.836,24.503-5.603,11.169-16.276,6.814-25.972,5.107-6.914-1.217-13.97-.65-18.935,4.748-2.181,2.372,1.836,5.356,3.996,3.007h0Z" fill="#8252b1"/></g><g id="GOUR_007_001_FRAG_004"><path d="M417.51,290.85c6.159-6.796,16.773-7.713,24.133-2.37,1.319,.958,3.185,.445,3.821-1.058,4.961-11.729,16.93-19.294,29.677-18.583,3.198,.178,3.8-4.787,.58-4.966-14.994-.836-29.029,7.811-34.892,21.67l3.821-1.058c-9.715-7.052-23.124-5.481-31.135,3.359-2.165,2.388,1.851,5.374,3.996,3.007h0Z" fill="#8252b1"/></g><g id="GOUR_007_001_FRAG_005"><path d="M493.702,271.251c9.333,3.312,5.827,16.829,8.722,24.191,2.283,5.805,7.752,10.275,14.233,8.489,7.067-1.948,10.475-9.149,12.205-15.623,1.199-4.486,1.972-9.311,4.821-13.119,3.19-4.263,8.322-6.647,13.609-6.649,3.179,0,3.797-4.967,.58-4.966-6.872,.002-13.332,2.594-17.745,8.023-5.263,6.474-4.491,15.256-8.66,22.159-2.843,4.707-8.8,8.106-12.889,2.662-3.048-4.058-2.642-9.518-3.182-14.287-.738-6.517-3.142-13.146-9.815-15.514-3.028-1.075-4.915,3.557-1.879,4.635h0Z" fill="#8252b1"/></g><g id="GOUR_007_001_FRAG_006"><path d="M571.263,298.862c3.531-10.656,6.891-21.388,10.598-31.984,.831-2.376,2.071-6.136,5.227-6.191,2.457-.043,4.779,2.866,6.153,4.525,2.457,2.967,4.487,5.597,7.966,7.372,2.87,1.465,4.725-3.182,1.879-4.635-4.968-2.536-6.81-8.583-11.919-11.114-3.643-1.805-7.702-1.41-10.545,1.626-3.751,4.005-4.855,10.942-6.513,15.945-2.494,7.526-4.987,15.051-7.481,22.577-1.009,3.044,3.622,4.937,4.635,1.879h0Z" fill="#8252b1"/></g><g id="GOUR_007_001_FRAG_007"><path d="M625.239,247.301c5.07,1.28,8.681,4.963,10.402,9.803,.683,1.921,4.03,1.997,4.608-.063,1.573-5.606,8.309-1.742,9.786,1.742,1.881,4.437,1.467,9.975,1.621,14.676,.348,10.652,.697,21.303,1.045,31.955,.08,2.452,4.084,2.84,4.789,.559,1.369-4.431,2.893-10.353,7.644-12.311,5.706-2.352,7.617,2.415,8.095,6.978,.67,6.383,1.714,11.792,6.531,16.433,9.403,9.059,24.652,6.679,31.43-4.305,1.679-2.722-2.306-5.746-3.996-3.007-4.734,7.673-14.78,10.703-22.368,5.094-7.095-5.245-5.152-12.167-7.455-19.506-1.734-5.525-6.76-8.35-12.383-6.894-7.275,1.884-10.129,9.153-12.134,15.64l4.789,.559c-.275-8.392-.549-16.784-.824-25.177-.231-7.06,.562-15.262-1.955-22.001-1.68-4.499-5.084-7.806-10.017-8.137-4.094-.274-8.084,1.721-9.235,5.823l4.608-.063c-2.37-6.663-7.629-11.053-14.403-12.763-3.11-.785-3.66,4.189-.58,4.966h0Z" fill="#8252b1"/></g><g id="GOUR_007_001_FRAG_008"><path d="M725.378,331.568c14.837,1.861,29.748,1.426,44.448-1.314,3.153-.588,2.415-5.535-.761-4.943-14.284,2.662-28.689,3.099-43.107,1.291-3.193-.4-3.776,4.565-.58,4.966h0Z" fill="#8252b1"/></g><g id="GOUR_007_001_FRAG_009"><path d="M836.649,327.217c-14.637-3.106-29.518-3.871-44.402-2.379-3.2,.321-2.439,5.264,.761,4.943,14.456-1.449,28.854-.613,43.061,2.402,3.146,.668,3.706-4.303,.58-4.966h0Z" fill="#8252b1"/></g><g id="GOUR_007_001_FRAG_010"><path d="M857.706,332.706c16.972,.664,32.934,7.767,44.577,20.185,2.188,2.334,6.126-.75,3.922-3.102-12.519-13.352-29.594-21.333-47.919-22.049-3.195-.125-3.801,4.84-.58,4.966h0Z" fill="#8252b1"/></g><g id="GOUR_007_002_FRAG_001"><path d="M148.634,543.823c8.369,8.371,20.907,2.969,26.018-6.14,7.127-12.7,1.757-32.812,15.369-41.582,2.7-1.739,.113-6.019-2.603-4.27-9.79,6.307-11.437,17.575-12.931,28.252-.86,6.148-1.938,12.796-5.926,17.799-3.959,4.965-11.524,7.276-16.458,2.341-2.279-2.28-5.747,1.323-3.47,3.6h0Z" fill="#ad76ff"/></g><g id="GOUR_007_002_FRAG_002"><path d="M205.359,522.103c-.396,8.807-.272,18.937,7.075,25.13,5.396,4.548,13.841,4.467,18.368-1.222l-4.223-2.355c-1.312,5.521,3.891,10.12,9.352,8.661,6.619-1.768,10.19-9.684,11.85-15.676,2.189-7.9,1.93-16.212,2.988-24.283,.556-4.24,1.403-8.638,3.339-12.49,2.082-4.142,8.531-10.321,12.622-4.395,1.82,2.636,6.105,.056,4.27-2.603-3.08-4.46-8.655-5.84-13.585-3.562-5.795,2.678-8.684,9.244-10.21,15.057-1.823,6.945-1.91,14.188-2.611,21.293-.37,3.754-.903,7.559-2.078,11.159-.696,2.134-1.602,4.206-2.824,6.096-.683,1.124-1.503,2.135-2.458,3.032-3.315,2.63-5.252,2.28-5.811-1.05,.539-2.267-2.592-4.404-4.223-2.355-4.355,5.473-11.377,2.52-14.442-2.658-3.136-5.299-2.667-11.968-2.402-17.872,.145-3.216-4.855-3.112-4.999,.092h0Z" fill="#ad76ff"/></g><g id="GOUR_007_002_FRAG_003"><path d="M284.782,519.722c7.037,13.664,14.075,27.329,21.112,40.993,.894,1.735,3.417,1.433,4.317-.079,3.47-5.835,6.095-11.976,7.946-18.507l-4.558,.681c4.465,5.893,8.93,11.785,13.395,17.678,1.024,1.352,3.463,1.794,4.317-.079,4.885-10.724,9.771-21.448,14.656-32.172,1.327-2.914-3.028-5.374-4.363-2.444-4.885,10.724-9.771,21.448-14.656,32.172l4.317-.079c-4.465-5.893-8.93-11.785-13.395-17.678-1.273-1.68-3.934-1.518-4.558,.681-1.736,6.122-4.212,11.835-7.464,17.303l4.317-.079c-7.037-13.664-14.075-27.329-21.112-40.993-1.473-2.861-5.74-.251-4.27,2.603h0Z" fill="#ad76ff"/></g><g id="GOUR_007_002_FRAG_004"><path d="M354.307,520.747c11.065,4.176,11.532,18.369,14.631,27.945,2.513,7.763,7.31,14.841,15.524,17.088,3.11,.851,4.342-3.996,1.24-4.845-11.666-3.192-12.609-17.384-15.49-27.049-2.356-7.903-6.677-14.969-14.665-17.984-3.01-1.136-4.219,3.721-1.24,4.845h0Z" fill="#ad76ff"/></g><g id="GOUR_007_002_FRAG_005"><path d="M404.135,536.365c3.994-2.473,8.279-2.769,12.51-.695,1.22,.598,2.703,.266,3.403-.96,4.741-8.3,3.184-18.721,8.191-26.74,2.73-4.374,8.255-8.375,13.057-4.485,3.576,2.897,4.58,8.275,5.446,12.545,.298,1.471,2.482,2.374,3.699,1.426,4.357-3.392,10.246-.911,12.952,3.444,3.178,5.113,2.564,11.939,2.234,17.671-.133,2.317,2.832,3.039,4.3,1.689,4.339-3.992,9.058,2.211,10.482,5.749,1.304,3.239,1.908,6.712,3.362,9.899,2.402,5.266,7.049,9.68,13.169,9.043,3.177-.331,3.113-5.333-.092-4.999-10.423,1.085-9.845-15.952-15.28-21.719-4.061-4.309-10.702-5.62-15.241-1.444l4.3,1.689c.459-7.974,.694-17.601-5.683-23.518-4.617-4.284-11.897-5.829-17.105-1.775l3.699,1.426c-1.878-9.266-7.974-22.004-19.689-16.6-13.637,6.291-9.906,23.298-16.164,34.254l3.403-.96c-5.827-2.856-12.022-2.639-17.557,.788-2.734,1.692-.142,5.97,2.603,4.27h0Z" fill="#ad76ff"/></g><g id="GOUR_007_002_FRAG_006"><path d="M512.838,533.69c9.299,5.067,17.798-2.95,20.349-11.605,1.685-5.719,1.395-11.857,3.287-17.525,2.435-7.293,9.014-11.251,16.565-10.404,3.188,.357,3.066-4.645-.092-4.999-9.016-1.011-17.489,4.112-20.755,12.585-1.998,5.181-2.055,10.739-3.143,16.123-1.222,6.048-5.994,15.699-13.767,11.463-2.83-1.542-5.272,2.822-2.444,4.363h0Z" fill="#ad76ff"/></g><g id="GOUR_007_002_FRAG_007"><path d="M561.525,524.136c1.832,11.069,4.445,23.486,14.62,29.983,7.775,4.965,17.98,3.68,23.523-3.83,1.91-2.588-2.476-5-4.363-2.444-5.333,7.225-15.337,4.347-20.453-1.363-5.784-6.456-7.168-15.529-8.53-23.764-.523-3.163-5.316-1.726-4.796,1.418h0Z" fill="#ad76ff"/></g><g id="GOUR_007_002_FRAG_008"><path d="M610.242,539.384c3.462-3.079,7.147,9.049,8.913,11.029,2.461,2.759,6.186,4.365,9.873,4.392,7.924,.057,13.586-7.393,12.632-14.97-.397-3.159-5.401-3.102-4.999,.092,.61,4.849-2.34,9.934-7.725,9.879-6.062-.062-7.337-5.431-9.481-9.875-2.38-4.933-8.195-8.123-12.813-4.016-2.408,2.142,1.206,5.599,3.6,3.47h0Z" fill="#ad76ff"/></g><g id="GOUR_007_002_FRAG_009"><path d="M652.378,490.063c.8,11.056,3.405,21.809,7.963,31.926,3.759,8.343,9.471,20.389,18.293,24.46,3.488,1.61,7.111,1.183,10.177-1.08,1.703-1.257,2.955-3.343,4.794-4.38,3.511-1.978,7.104,.317,9.78,2.583,5.631,4.769,14.638,12.477,21.257,4.386,2.026-2.477-1.559-5.965-3.6-3.47-5.741,7.018-15.567-7.217-21.587-8.87-2.912-.8-5.873-.49-8.452,1.102-3.764,2.322-5.933,7.768-11.227,4.689-4.169-2.424-6.985-7.326-9.466-11.306-2.566-4.116-4.801-8.442-6.636-12.932-3.551-8.69-5.619-17.846-6.296-27.2-.231-3.197-5.232-3.125-4.999,.092h0Z" fill="#ad76ff"/></g><g id="GOUR_007_002_FRAG_010"><path d="M740.066,563.589c14.018,5.095,30.067,.974,40.003-10.114,2.145-2.394-1.447-5.872-3.6-3.47-8.861,9.888-22.713,13.264-35.163,8.739-3.026-1.1-4.238,3.755-1.24,4.845h0Z" fill="#ad76ff"/></g><g id="GOUR_007_002_FRAG_011"><path d="M803.16,553.834c15.935-9.581,28.37-23.98,35.392-41.207,1.202-2.948-3.151-5.418-4.363-2.444-6.72,16.485-18.366,30.202-33.632,39.381-2.757,1.658-.163,5.933,2.603,4.27h0Z" fill="#ad76ff"/></g><g id="GOUR_007_002_FRAG_012"><path d="M855.602,537.401c4.894,7.567,7.656,15.828,8.198,24.832,.116,1.917,2.111,3.043,3.801,2.089,10.168-5.74,16.44,9.156,20.353,15.68,3.376,5.628,8.095,10.675,14.868,11.648,3.157,.453,4.422-4.388,1.24-4.845-10.924-1.568-13.337-14.606-19.497-21.855-4.849-5.706-12.669-8.792-19.567-4.898l3.801,2.089c-.593-9.843-3.569-19.058-8.927-27.343-1.744-2.696-6.024-.11-4.27,2.603h0Z" fill="#ad76ff"/></g><g id="GOUR_007_003_FRAG_001"><path d="M154.292,788.072c3.153,1.224,6.305,2.447,9.458,3.671,1.184,.459,2.847-.584,3.043-1.802,1.947-12.116,6.524-24.33,14.275-33.984,4.446-5.537,11.485-4.696,15.337,1.256,3.779,5.839,3.249,13.174,2.866,19.8-.127,2.201,2.888,3.196,4.3,1.689,6.392-6.824,12.536,11.943,15.689,14.859,3.934,3.639,9.641,4.605,13.747,.863,2.383-2.172-1.229-5.631-3.6-3.47-6.528,5.95-12.373-12.519-15.726-15.45-3.951-3.453-9.927-4.311-13.71-.272l4.3,1.689c.465-8.044,.657-16.715-4.425-23.486-3.686-4.911-9.981-7.686-16.035-5.751-6.682,2.136-10.913,10.851-13.899,16.618-3.967,7.661-6.597,15.89-7.964,24.399l3.043-1.802c-3.153-1.224-6.305-2.447-9.458-3.671-2.998-1.163-4.204,3.695-1.24,4.845h0Z" fill="#cd99da"/></g><g id="GOUR_007_003_FRAG_002"><path d="M246.221,764.327c12.801-3.865,25.967,2.39,30.689,14.984,1.122,2.992,5.93,1.606,4.796-1.418-5.666-15.111-21.382-23.048-36.903-18.362-3.076,.929-1.673,5.729,1.418,4.796h0Z" fill="#cd99da"/></g><g id="GOUR_007_003_FRAG_003"><path d="M293.406,782.42c3.569,5.089,7.138,10.178,10.707,15.267,1.603,2.285,5.278,.815,4.533-2.01-1.3-4.931-3.824-15.203,3.318-17.109,5.563-1.485,8.83,9.616,10.807,13.539,1.201,2.383,4.529,.92,4.635-1.347,.469-10.015,1.798-25.459,14.456-27.299,3.141-.457,3.089-5.462-.092-4.999-15.92,2.314-18.738,19.032-19.363,32.39l4.635-1.347c-3.469-6.883-7.086-19.504-17.394-15.554-9.441,3.617-7.812,15.503-5.797,23.145l4.533-2.01c-3.569-5.089-7.138-10.178-10.707-15.267-1.838-2.621-6.125-.042-4.27,2.603h0Z" fill="#cd99da"/></g><g id="GOUR_007_003_FRAG_004"><path d="M352.184,791.173c17.169,9.71,38.619,.03,42.35-19.423,.604-3.151-4.238-4.404-4.845-1.24-3.119,16.262-20.566,24.498-35.061,16.301-2.807-1.588-5.246,2.778-2.444,4.363h0Z" fill="#cd99da"/></g><g id="GOUR_007_003_FRAG_005"><path d="M410.743,771.894c5.327-2.298,11.712-.483,13.37,5.548,.957,3.482-.114,6.394,2.379,9.418,3.964,4.808,10.799,4.791,15.512,1.155,6.604-5.095,7.13-13.534,7.836-21.199,.459-4.984,.994-12.5,7.296-13.144,5.606-.573,8.419,6.145,5.111,10.328l3.982,2.957c2.709-3.847,7.825-.13,9.221,2.697,1.577,3.193,1.565,6.922,1.638,10.406,.067,3.216,5.067,3.13,4.999-.092-.132-6.293-.658-14.162-6.679-17.79-4.654-2.805-10.366-2.174-13.543,2.336-1.621,2.301,2.22,5.184,3.982,2.957,4.477-5.661,3.531-14.87-3.606-17.993-8.674-3.794-15.193,3.6-16.672,11.399-1.207,6.367-.245,13.567-3.458,19.413-1.696,3.086-5.059,6.158-8.872,5.252-3.976-.944-3.537-4.405-3.935-7.514-1.227-9.596-11.374-14.643-19.979-10.93-2.914,1.258-1.54,6.072,1.418,4.796h0Z" fill="#cd99da"/></g><g id="GOUR_007_003_FRAG_006"><path d="M485.185,796.563l21.667,.758c3.218,.113,3.117-4.887-.092-4.999l-21.667-.758c-3.218-.113-3.117,4.887,.092,4.999h0Z" fill="#cd99da"/></g><g id="GOUR_007_003_FRAG_007"><path d="M522.319,783.099c.376-3.182,2.985-6.308,6.572-4.38,2.332,1.253,1.962,3.106,2.845,5.109,1.082,2.452,2.758,4.365,5.297,5.365,4.586,1.807,9.378-.606,11.541-4.8,3.987-7.729,6.575-16.51,9.795-24.595,3.674-9.228,7.349-18.456,11.023-27.685,1.189-2.985-3.671-4.19-4.845-1.24-3.674,9.228-7.349,18.456-11.023,27.685-1.715,4.306-3.43,8.613-5.144,12.919-1.384,3.477-3.298,12.299-7.189,13.217-4.972,1.172-4.844-5.149-6.952-7.826-1.446-1.837-3.603-3.197-5.925-3.593-5.446-.93-10.219,3.322-10.84,8.584-.372,3.154,4.469,4.426,4.845,1.24h0Z" fill="#cd99da"/></g><g id="GOUR_007_003_FRAG_008"><path d="M583.609,745.722c4.259-2.085,4.949,9.013,5.872,11.15,.956,2.215,2.507,4.281,4.811,5.209,1.414,.57,2.934,.459,4.386,.914,2.396,.75,4.345,2.557,5.809,4.534,2.266,3.06,3.333,6.669,4.062,10.351,1.537,7.766,1.525,16.06,6.593,22.609,3.812,4.926,9.199,7.572,15.404,6.519,3.162-.536,1.726-5.329-1.418-4.796-11.634,1.973-13.929-13.797-15.117-21.69-1.028-6.834-2.691-13.766-7.916-18.684-2.214-2.084-4.597-3.147-7.467-3.997-3.082-.913-3.938-1.079-4.987-4.147-.636-1.858-.613-3.92-1.147-5.812-1.472-5.218-6.142-9.047-11.487-6.43-2.888,1.413-.273,5.678,2.603,4.27h0Z" fill="#cd99da"/></g><g id="GOUR_007_003_FRAG_009"><path d="M647.747,805.314c8.758,1.909,17.898-.381,24.635-6.36,3.512-3.116,5.06-7.646,8.458-10.727,4.485-4.067,10.743-4.883,16.263-2.737,2.997,1.166,4.203-3.693,1.24-4.845-7.949-3.092-17.541-.66-22.907,6.067-3.211,4.025-4.937,8.027-9.532,10.867-5.109,3.158-11.071,4.165-16.918,2.89-3.142-.685-4.388,4.159-1.24,4.845h0Z" fill="#cd99da"/></g><g id="GOUR_007_003_FRAG_010"><path d="M708.183,731.397c7.982-5.247,11.761,13.675,15.727,17.685,2.164,2.189,4.683,3.323,7.722,3.524,5.727,.378,10.317,3.411,9.737,9.846-.215,2.388,2.85,2.932,4.3,1.689,2.205-1.891,5.511-2.024,7.958-.493,2.774,1.736,3.848,6.04,5.141,8.836,2.916,6.303,5.832,12.607,8.748,18.91,1.348,2.914,5.61,.294,4.27-2.603-2.361-5.103-4.721-10.205-7.082-15.308-1.877-4.057-3.393-9.614-6.728-12.75-4.513-4.244-11.368-3.955-15.908-.062l4.3,1.689c.445-4.938-1.804-9.506-5.847-12.369-1.868-1.323-3.969-2.15-6.256-2.354-4.252-.38-6.74-.959-8.977-5.09-2.645-4.885-3.274-10.796-7.896-14.437-3.48-2.741-8.032-3.468-11.812-.983-2.682,1.763-.097,6.045,2.603,4.27h0Z" fill="#cd99da"/></g><g id="GOUR_007_003_FRAG_011"><path d="M784.351,756.463c13.386,6.994,4.579,27.592,14.347,37.9,6.708,7.078,20.757,5.474,20.497-6.098-.072-3.216-5.072-3.13-4.999,.092,.083,3.666-3.226,6.006-6.695,5.483-2.855-.43-5.193-2.519-6.701-4.899-3.078-4.86-2.954-11.059-3.455-16.581-.73-8.047-2.875-16.251-10.55-20.261-2.853-1.491-5.3,2.871-2.444,4.363h0Z" fill="#cd99da"/></g><g id="GOUR_007_003_FRAG_012"><path d="M835.521,784.731c2.966-1.977,6.251-1.561,8.667,1.029,1.056,1.132,3.238,.829,3.916-.578,2.951-6.124,7.92-10.241,14.513-11.944,3.114-.804,1.701-5.602-1.418-4.796-7.742,1.999-13.984,7.085-17.458,14.296l3.916-.578c-3.928-4.212-9.95-4.894-14.74-1.7-2.669,1.78-.085,6.062,2.603,4.27h0Z" fill="#cd99da"/></g><g id="GOUR_007_003_FRAG_013"><path d="M871.156,744.427c7.401,5.771,11.875,13.914,12.466,23.313,.174,2.758,4.203,3.386,4.922,.574,1.54-6.018,7.756,1.558,8.79,3.57,1.506,2.93,2.791,5.986,4.165,8.98,2.925,6.372,5.85,12.745,8.775,19.117,1.339,2.917,5.601,.296,4.27-2.603-2.659-5.793-5.318-11.586-7.978-17.379-2.179-4.747-3.961-10.329-7.282-14.424-4.179-5.152-13.598-6.269-15.585,1.498l4.922,.574c-.669-10.631-5.57-20.25-13.995-26.821-2.515-1.962-6.009,1.62-3.47,3.6h0Z" fill="#cd99da"/></g><g id="GOUR_007_004_FRAG_001"><path d="M1022.975,293.28c3.394,7.372,6.788,14.744,10.181,22.116,.966,2.098,3.99,1.171,4.558-.681,1.483-4.836,2.965-9.673,4.448-14.509,1.54-5.024,2.632-10.606,4.726-15.416,.143-.827,.532-1.529,1.169-2.105,.534-1.546,1.19-1.598,1.965-.156,1.292,.89,1.634,2.367,2.21,3.732,1.01,2.391,2.02,4.782,3.03,7.172,2.146,5.08,4.292,10.161,6.438,15.241,1.237,2.928,6.05,1.551,4.796-1.418-3.282-7.77-6.564-15.54-9.847-23.31-1.771-4.191-3.602-8.475-9.063-7.27-5.401,1.192-5.871,7.938-7.212,12.314-2.502,8.162-5.004,16.323-7.506,24.485l4.558-.681c-3.394-7.372-6.788-14.744-10.181-22.116-1.342-2.916-5.604-.295-4.27,2.603h0Z" fill="#a41c78"/></g><g id="GOUR_007_004_FRAG_002"><path d="M1082.795,295.75c6.65-2.282,14.076-.45,18.955,4.675,3.706,3.893,3.69,9.832,8.97,12.212,13.903,6.267,18.913-13.818,29.569-17.007,3.078-.921,1.675-5.722-1.418-4.796-6.676,1.998-10.068,7.37-14.448,12.345-2.292,2.603-5.149,5.499-8.882,5.464-4.676-.044-5.088-3.943-6.868-7.195-5.183-9.467-17.178-13.966-27.297-10.495-3.031,1.04-1.638,5.845,1.418,4.796h0Z" fill="#a41c78"/></g><g id="GOUR_007_004_FRAG_003"><path d="M1172.913,292.455c4.755-4.595,8.965,3.868,10.52,7.161,1.327,2.811,4.919,.501,4.533-2.01-.795-5.178,4.164-10.527,9.459-8.937,4.199,1.262,6.328,5.86,5.281,9.941-.438,1.707,.88,2.983,2.469,3.12,6.809,.584,13.12,3.043,18.526,7.227,2.521,1.951,6.016-1.63,3.47-3.6-6.545-5.066-13.843-7.919-22.088-8.627l2.469,3.12c1.916-7.469-3.241-15.999-11.31-16.486-8.531-.516-14.276,7.817-13.071,15.659l4.533-2.01c-3.204-6.786-10.932-15.235-18.39-8.028-2.319,2.241,1.287,5.705,3.6,3.47h0Z" fill="#a41c78"/></g><g id="GOUR_007_004_FRAG_004"><path d="M1237.949,319.819c15.821,2.331,31.674-1.397,44.603-10.882,2.574-1.889,0-6.179-2.603-4.27-11.784,8.645-26.261,12.444-40.76,10.307-3.157-.465-4.421,4.376-1.24,4.845h0Z" fill="#a41c78"/></g><g id="GOUR_007_004_FRAG_005"><path d="M1297.422,299.063c3.919-2.475,7.837-4.95,11.756-7.425,2.717-1.716,.128-5.995-2.603-4.27-3.919,2.475-7.837,4.95-11.756,7.425-2.717,1.716-.128,5.995,2.603,4.27h0Z" fill="#a41c78"/></g><g id="GOUR_007_004_FRAG_006"><path d="M1327.644,269.272c-1.472,5.305-.004,11.113,4.562,14.461,1.985,1.455,4.383,2.327,6.844,2.487,3.351,.217,6.732-2.109,9.889-1.334,8.558,2.099,8.666,14.212,11.922,20.701,2.598,5.177,6.785,8.853,12.65,9.354,3.203,.274,3.087-4.727-.092-4.999-7.301-.624-9.237-9.37-10.985-15.021-1.467-4.744-3.328-9.317-7.387-12.419-2.854-2.181-6.595-3.432-10.171-2.523-3.377,.858-6.133,2.17-9.405-.113-3.124-2.179-3.972-5.785-2.982-9.353,.862-3.107-3.986-4.339-4.845-1.24h0Z" fill="#a41c78"/></g><g id="GOUR_007_004_FRAG_007"><path d="M1396.705,298.034c-2.001,8.762,6.488,16.785,14.99,12.416,5.207-2.676,6.884-9.282,9.197-14.224,3.393-7.25,6.787-14.5,10.18-21.75,1.359-2.904-2.998-5.361-4.363-2.444-3.665,7.83-7.33,15.66-10.994,23.49-1.459,3.118-2.87,8.566-6.073,10.394-4.691,2.678-9.178-1.883-8.092-6.641,.716-3.137-4.128-4.381-4.845-1.24h0Z" fill="#a41c78"/></g><g id="GOUR_007_004_FRAG_008"><path d="M1442.015,282.055c3.805,12.855,12.981,23.372,25.302,28.71,2.931,1.27,5.395-3.084,2.444-4.363-11.193-4.849-19.481-14.048-22.949-25.764-.912-3.081-5.712-1.677-4.796,1.418h0Z" fill="#a41c78"/></g><g id="GOUR_007_004_FRAG_009"><path d="M1487.262,306.361c-.809-6.292,6.368-8.648,9.247-3.062,1.342,2.604,5.198,.642,4.533-2.01-.866-2.849,.339-4.738,3.614-5.667,1.493,.204,2.841,.74,4.043,1.607,1.185,.518,2.323,1.029,3.592,1.333,2.765,.664,5.709,.538,8.413-.31,5.349-1.678,8.954-6.098,10.44-11.369,.875-3.104-3.973-4.334-4.845-1.24-1.59,5.642-6.769,9.457-12.768,8.074-3.584-.826-5.766-3.392-9.655-3.004-6.093,.608-9.025,6.433-7.63,11.993l4.533-2.01c-5.12-9.934-19.952-5.414-18.516,5.756,.406,3.157,5.41,3.1,4.999-.092h0Z" fill="#a41c78"/></g><g id="GOUR_007_004_FRAG_010"><path d="M1548.595,270.885c5.954-4.172,13.073-.209,12.683,7.058-.112,2.08,2.964,3.36,4.3,1.689,2.785-3.487,7.267-1.092,9.279,1.941,1.893,2.853,2.612,6.352,3.827,9.505,1.747,4.536,4.308,8.749,8.991,10.633,2.951,1.187,5.422-3.165,2.444-4.363-8.225-3.309-7.211-14.633-12.699-20.594-3.988-4.331-11.464-5.571-15.441-.592l4.3,1.689c.589-10.965-11.298-17.533-20.285-11.237-2.621,1.837-.042,6.123,2.603,4.27h0Z" fill="#a41c78"/></g><g id="GOUR_007_004_FRAG_011"><path d="M1604.275,302.076c14.066-2.934,28.911,5.468,33.728,18.98,1.075,3.015,5.881,1.625,4.796-1.418-5.781-16.217-23.112-25.869-39.942-22.358-3.146,.656-1.721,5.451,1.418,4.796h0Z" fill="#a41c78"/></g><g id="GOUR_007_004_FRAG_012"><path d="M1659.514,323.052c5.437,.619,10.838-1.316,14.638-5.288,4.276-4.47,5.761-14.131,14.304-10.369,1.598,.704,3.886-.172,3.721-2.228-.797-9.977,4.137-19.145,12.935-23.944,2.826-1.541,.222-5.811-2.603-4.27-10.231,5.581-16.26,16.68-15.331,28.306l3.721-2.228c-5.078-2.236-10.9-1.476-14.915,2.557-2.368,2.378-2.826,5.702-4.965,8.218-2.937,3.455-7.209,4.746-11.597,4.246-3.187-.363-3.064,4.64,.092,4.999h0Z" fill="#a41c78"/></g><g id="GOUR_007_004_FRAG_013"><path d="M1724.57,309.568c.574-.593,3.484,5.298,3.983,5.859,.949,1.065,2.256,1.856,3.673,2.105,4.414,.774,5.724-4.834,10.123-3.324,4.778,1.641,6.798,7.879,10.461,11.083,3.199,2.798,7.002,4.067,11.119,2.839,3.079-.918,1.676-5.718-1.418-4.796-6.814,2.031-10.18-7.565-14.23-11.273-2.73-2.499-6.693-3.947-10.381-2.97-1.512,.401-2.621,1.935-3.907,2.301-2.507,.713-3.057-3.107-4.595-4.833-2.326-2.61-5.989-2.982-8.428-.462-2.241,2.315,1.358,5.785,3.6,3.47h0Z" fill="#a41c78"/></g><g id="GOUR_007_005_FRAG_001"><path d="M1033.457,548.084c10.509,2.152,14.896-8.092,17.209-16.37,1.196-4.281,5.09-15.093,11.621-10.867,2.446,1.583,2.833,6.877,3.522,9.479,1.011,3.817,2.022,7.633,3.033,11.45,.393,1.484,2.394,2.35,3.699,1.426,4.441-3.141,7.962,.432,9.003,4.626,.908,3.656,2.46,7.025,4.778,10.01,4.343,5.594,10.573,9.294,17.6,10.24,3.156,.425,4.424-4.417,1.24-4.845-5.271-.709-9.948-2.973-13.601-6.888-3.599-3.858-4.124-8.056-5.872-12.722-2.324-6.204-10.468-8.428-15.751-4.691l3.699,1.426c-1.095-4.135-2.19-8.269-3.286-12.404-.791-2.985-1.136-6.661-3.034-9.214-2.373-3.192-6.952-4.19-10.651-3.143-4.655,1.318-7.582,5.635-9.261,9.918-2.273,5.797-3.442,19.62-12.708,17.723-3.147-.644-4.396,4.199-1.24,4.845h0Z" fill="#ee88f6"/></g><g id="GOUR_007_005_FRAG_002"><path d="M1130.773,567.278c7.258-6.737,12.99-14.901,16.676-24.107,.974-2.432,1.822-4.908,2.502-7.439,.728-2.708,.848-7.792,4.768-7.93,5.421-.192,6.758,14.461,7.74,18.434,2.252,9.121,3.081,20.32,13.005,24.375,8.174,3.34,17.262-.971,20.796-8.818,1.314-2.918-3.041-5.379-4.363-2.444-2.675,5.938-9.434,9.438-15.581,6.163-5.876-3.131-6.441-10.086-7.875-15.892-1.502-6.081-2.922-12.189-4.506-18.249-.949-3.631-2.445-6.709-6.232-8.056-3.042-1.082-6.376-.285-8.747,1.846-3.095,2.781-3.164,7.078-4.275,10.843-3.168,10.738-9.331,20.214-17.508,27.805-2.363,2.194,1.247,5.654,3.6,3.47h0Z" fill="#ee88f6"/></g><g id="GOUR_007_005_FRAG_003"><path d="M1218.285,570.667c4.137-1.431,8.448-1.54,12.521,.274,2.599,1.157,4.371,3.415,6.874,4.67,4.377,2.196,9.692,.923,13.591-1.663,4.724-3.135,7.041-8.388,8.853-13.56,2.411-6.881,4.766-17.221,13.47-18.41,3.15-.43,3.095-5.435-.092-4.999-15.065,2.058-14.696,18.364-21.147,28.662-1.945,3.105-5.083,5.739-8.881,6.067-3.757,.324-5.906-2.788-8.899-4.46-5.446-3.044-11.868-3.395-17.707-1.376-3.028,1.047-1.636,5.852,1.418,4.796h0Z" fill="#ee88f6"/></g><g id="GOUR_007_005_FRAG_004"><path d="M1289.777,570.621c6.262,5.356,15.422,6.14,21.818,.444,3.415-3.041,4.733-6.851,5.773-11.169,1.615-6.702,3.229-13.404,4.844-20.106,.754-3.131-4.091-4.371-4.845-1.24-1.836,7.621-3.284,15.472-5.536,22.978-2.488,8.29-11.992,11.132-18.585,5.493-2.438-2.085-5.921,1.503-3.47,3.6h0Z" fill="#ee88f6"/></g><g id="GOUR_007_005_FRAG_005"><path d="M1344.612,567.577c3.157-5.499,5.695-11.304,7.424-17.412,.872-3.08,1.542-6.215,1.995-9.385,.18-1.261,.232-2.889,.485-4.133-.332-1.373,.165-2.284,1.492-2.731,1.169-1.54,1.915-1.294,2.238,.738,2.133,2.106,3.474,6.783,4.868,9.505,1.623,3.168,3.245,6.337,4.868,9.505,3.54,6.913,7.081,13.826,10.621,20.739,1.467,2.864,5.733,.253,4.27-2.603-4.426-8.641-8.851-17.282-13.277-25.924-2.354-4.596-4.549-9.326-7.081-13.826-1.314-2.336-2.505-4.381-5.387-4.897-7.581-1.357-7.272,7.6-7.943,12.385-1.271,9.066-4.387,17.667-8.937,25.593-1.606,2.798,2.761,5.235,4.363,2.444h0Z" fill="#ee88f6"/></g><g id="GOUR_007_005_FRAG_006"><path d="M1400.564,573.167c11.641,5.589,26.939,1.108,32.994-10.597,4.58-8.853,7.559-18.933,11.204-28.206,1.939-4.933,3.878-9.865,5.817-14.798,1.137-2.893,2.032-6.263,3.692-8.914,2.493-3.981,7.825-4.314,9.551,.838,1.019,3.04,5.822,1.646,4.796-1.418-2.207-6.587-9.614-9.979-15.646-5.721-3.364,2.375-4.358,6.645-5.785,10.275-2.302,5.857-4.605,11.715-6.907,17.572-2.181,5.549-4.362,11.098-6.544,16.647-1.951,4.963-3.38,10.773-6.968,14.853-5.804,6.601-15.798,8.928-23.761,5.104-2.893-1.389-5.348,2.969-2.444,4.363h0Z" fill="#ee88f6"/></g><g id="GOUR_007_005_FRAG_007"><path d="M1471.285,536.298c2.089,8.41,1.606,17.964,7.262,25.088,4.162,5.242,10.819,7.147,16.938,4.422l-3.699-1.426c2.044,13.085,18.319,15.66,25.367,5.083,1.788-2.684-2.589-5.106-4.363-2.444-4.97,7.459-14.918,4.198-16.208-4.057-.278-1.781-2.43-1.992-3.699-1.426-7.044,3.137-12.151-4.524-13.76-10.259-1.504-5.358-1.699-10.996-3.041-16.398-.775-3.122-5.572-1.706-4.796,1.418h0Z" fill="#ee88f6"/></g><g id="GOUR_007_005_FRAG_008"><path d="M1541.45,546.534c2.955-6.311,10.946-4.997,12.128,1.699,.463,2.622,4.149,2.031,4.821-.089,3.795-11.986,21.617-8.074,19.741,4.456-.473,3.157,4.369,4.421,4.845,1.24,1.164-7.77-3.263-16.07-11.304-17.939-7.997-1.858-15.744,3.478-18.127,11.003l4.821-.089c-1.949-11.041-16.572-12.792-21.287-2.725-1.36,2.903,2.997,5.361,4.363,2.444h0Z" fill="#ee88f6"/></g><g id="GOUR_007_005_FRAG_009"><path d="M1587.003,575.266c9.435,6.627,21.826,4.21,30.365-2.733,10.871-8.839,15.499-22.519,22.192-34.344,1.589-2.807-2.777-5.245-4.363-2.444-5.487,9.695-9.362,20.676-16.923,29.047-7.288,8.068-19.048,12.98-28.827,6.111-2.636-1.852-5.053,2.53-2.444,4.363h0Z" fill="#ee88f6"/></g><g id="GOUR_007_005_FRAG_010"><path d="M1654.916,572.676c10.611-.133,21.223-.267,31.834-.4,3.218-.04,3.129-5.04-.092-4.999-10.611,.133-21.223,.267-31.834,.4-3.218,.04-3.129,5.04,.092,4.999h0Z" fill="#ee88f6"/></g><g id="GOUR_007_005_FRAG_011"><path d="M1705.028,572.474c16.038,1.985,27.465,14.991,27.1,31.218-.072,3.219,4.927,3.121,4.999-.092,.41-18.219-12.71-33.725-30.859-35.971-3.155-.39-4.426,4.451-1.24,4.845h0Z" fill="#ee88f6"/></g></g></svg>