<?xml version="1.0" encoding="UTF-8"?><svg xmlns="http://www.w3.org/2000/svg" viewBox="0 0 1920 1080"><g id="GRILLE"><g><line x1="934.397" y1="162.253" x2="36.281" y2="162.253" fill="none" stroke="#1a1aa7" stroke-linecap="square" stroke-linejoin="round" stroke-width=".5"/><line x1="934.397" y1="204.742" x2="36.281" y2="204.742" fill="none" stroke="#1a1aa7" stroke-linecap="square" stroke-linejoin="round" stroke-width=".5"/><line x1="934.397" y1="247.231" x2="36.281" y2="247.231" fill="none" stroke="#1a1aa7" stroke-linecap="square" stroke-linejoin="round" stroke-width=".5"/><line x1="934.397" y1="289.721" x2="36.281" y2="289.721" fill="none" stroke="#1a1aa7" stroke-linecap="square" stroke-linejoin="round" stroke-width=".5"/><line x1="934.397" y1="332.21" x2="36.281" y2="332.21" fill="none" stroke="#1a1aa7" stroke-linecap="square" stroke-linejoin="round" stroke-width=".5"/><line x1="934.397" y1="374.699" x2="36.281" y2="374.699" fill="none" stroke="#1a1aa7" stroke-linecap="square" stroke-linejoin="round" stroke-width=".5"/><line x1="934.397" y1="417.189" x2="36.281" y2="417.189" fill="none" stroke="#1a1aa7" stroke-linecap="square" stroke-linejoin="round" stroke-width=".5"/><line x1="934.397" y1="459.678" x2="36.281" y2="459.678" fill="none" stroke="#1a1aa7" stroke-linecap="square" stroke-linejoin="round" stroke-width=".5"/><line x1="934.397" y1="502.588" x2="36.281" y2="502.588" fill="none" stroke="#1a1aa7" stroke-linecap="square" stroke-linejoin="round" stroke-width=".5"/><line x1="934.397" y1="545.498" x2="36.281" y2="545.498" fill="none" stroke="#1a1aa7" stroke-linecap="square" stroke-linejoin="round" stroke-width=".5"/><line x1="934.397" y1="588.408" x2="36.281" y2="588.408" fill="none" stroke="#1a1aa7" stroke-linecap="square" stroke-linejoin="round" stroke-width=".5"/><line x1="934.397" y1="631.318" x2="36.281" y2="631.318" fill="none" stroke="#1a1aa7" stroke-linecap="square" stroke-linejoin="round" stroke-width=".5"/><line x1="934.397" y1="674.228" x2="36.281" y2="674.228" fill="none" stroke="#1a1aa7" stroke-linecap="square" stroke-linejoin="round" stroke-width=".5"/><line x1="934.397" y1="717.138" x2="36.281" y2="717.138" fill="none" stroke="#1a1aa7" stroke-linecap="square" stroke-linejoin="round" stroke-width=".5"/><line x1="934.397" y1="760.048" x2="36.281" y2="760.048" fill="none" stroke="#1a1aa7" stroke-linecap="square" stroke-linejoin="round" stroke-width=".5"/><line x1="934.397" y1="802.958" x2="36.281" y2="802.958" fill="none" stroke="#1a1aa7" stroke-linecap="square" stroke-linejoin="round" stroke-width=".5"/><line x1="934.397" y1="845.868" x2="36.281" y2="845.868" fill="none" stroke="#1a1aa7" stroke-linecap="square" stroke-linejoin="round" stroke-width=".5"/><line x1="934.397" y1="888.778" x2="36.281" y2="888.778" fill="none" stroke="#1a1aa7" stroke-linecap="square" stroke-linejoin="round" stroke-width=".5"/><line x1="934.397" y1="931.688" x2="36.281" y2="931.688" fill="none" stroke="#1a1aa7" stroke-linecap="square" stroke-linejoin="round" stroke-width=".5"/></g><g><line x1="1885.423" y1="162.253" x2="987.307" y2="162.253" fill="none" stroke="#1a1aa7" stroke-linecap="square" stroke-linejoin="round" stroke-width=".5"/><line x1="1885.423" y1="204.742" x2="987.307" y2="204.742" fill="none" stroke="#1a1aa7" stroke-linecap="square" stroke-linejoin="round" stroke-width=".5"/><line x1="1885.423" y1="247.231" x2="987.307" y2="247.231" fill="none" stroke="#1a1aa7" stroke-linecap="square" stroke-linejoin="round" stroke-width=".5"/><line x1="1885.423" y1="289.721" x2="987.307" y2="289.721" fill="none" stroke="#1a1aa7" stroke-linecap="square" stroke-linejoin="round" stroke-width=".5"/><line x1="1885.423" y1="332.21" x2="987.307" y2="332.21" fill="none" stroke="#1a1aa7" stroke-linecap="square" stroke-linejoin="round" stroke-width=".5"/><line x1="1885.423" y1="374.699" x2="987.307" y2="374.699" fill="none" stroke="#1a1aa7" stroke-linecap="square" stroke-linejoin="round" stroke-width=".5"/><line x1="1885.423" y1="417.189" x2="987.307" y2="417.189" fill="none" stroke="#1a1aa7" stroke-linecap="square" stroke-linejoin="round" stroke-width=".5"/><line x1="1885.423" y1="459.678" x2="987.307" y2="459.678" fill="none" stroke="#1a1aa7" stroke-linecap="square" stroke-linejoin="round" stroke-width=".5"/><line x1="1885.423" y1="502.588" x2="987.307" y2="502.588" fill="none" stroke="#1a1aa7" stroke-linecap="square" stroke-linejoin="round" stroke-width=".5"/><line x1="1885.423" y1="545.498" x2="987.307" y2="545.498" fill="none" stroke="#1a1aa7" stroke-linecap="square" stroke-linejoin="round" stroke-width=".5"/><line x1="1885.423" y1="588.408" x2="987.307" y2="588.408" fill="none" stroke="#1a1aa7" stroke-linecap="square" stroke-linejoin="round" stroke-width=".5"/><line x1="1885.423" y1="631.318" x2="987.307" y2="631.318" fill="none" stroke="#1a1aa7" stroke-linecap="square" stroke-linejoin="round" stroke-width=".5"/><line x1="1885.423" y1="674.228" x2="987.307" y2="674.228" fill="none" stroke="#1a1aa7" stroke-linecap="square" stroke-linejoin="round" stroke-width=".5"/><line x1="1885.423" y1="717.138" x2="987.307" y2="717.138" fill="none" stroke="#1a1aa7" stroke-linecap="square" stroke-linejoin="round" stroke-width=".5"/><line x1="1885.423" y1="760.048" x2="987.307" y2="760.048" fill="none" stroke="#1a1aa7" stroke-linecap="square" stroke-linejoin="round" stroke-width=".5"/><line x1="1885.423" y1="802.958" x2="987.307" y2="802.958" fill="none" stroke="#1a1aa7" stroke-linecap="square" stroke-linejoin="round" stroke-width=".5"/><line x1="1885.423" y1="845.868" x2="987.307" y2="845.868" fill="none" stroke="#1a1aa7" stroke-linecap="square" stroke-linejoin="round" stroke-width=".5"/><line x1="1885.423" y1="888.778" x2="987.307" y2="888.778" fill="none" stroke="#1a1aa7" stroke-linecap="square" stroke-linejoin="round" stroke-width=".5"/><line x1="1885.423" y1="931.688" x2="987.307" y2="931.688" fill="none" stroke="#1a1aa7" stroke-linecap="square" stroke-linejoin="round" stroke-width=".5"/></g></g><g id="FRAGMENTS"><g id="GOUR_007_001_FRAG_001"><path d="M70.983,284.122c13.329-10.706,21.441-25.176,24.843-41.801,.519-2.537,2.278-11.3,6.201-7.376,2.491,2.491,2.577,8.525,3.04,11.695,1.372,9.394,.779,19.054,2.27,28.367,1.131,7.061,5.761,14.265,13.513,14.919,8.262,.696,13.777-6.549,16.124-13.551,1.605-4.788,2.776-9.757,4.136-14.619,.712-2.545,1.342-5.133,2.142-7.652,.22-.809,.492-1.6,.816-2.374,.953-1.177,.776-1.357-.531-.541,2.131,5.951,6.168,13.773,13.752,12.098,6.245-1.38,4.785-11.28-1.522-9.886-.713,.158-2.666-5.582-3.028-6.247-1.284-2.356-3.088-4.501-5.639-5.508-5.677-2.241-10.498,1.843-12.526,6.919-2.859,7.156-4.172,15.103-6.39,22.483-.829,2.758-1.866,7.085-4.763,8.441-3.83,1.793-5.695-3.081-6.196-6.004-1.264-7.376-.687-15.168-1.528-22.63-.737-6.549-1.24-14.087-4.491-19.989-2.619-4.754-7.377-7.848-12.918-6.846-6.258,1.132-9.907,6.851-11.405,12.566-1.994,7.608-3.274,14.892-7.073,21.917-3.738,6.912-8.921,12.869-15.03,17.776-5.022,4.034,1.176,11.881,6.203,7.843h0Z" fill="#8252b1"/></g><g id="GOUR_007_001_FRAG_002"><path d="M186.503,258.162c4.049-4.192,11.335-.261,14.059,3.47,4.089,5.601,4.714,13.143,5.588,19.797,2.131,16.222,4.241,32.447,6.361,48.671,.629,4.814,7.904,5.776,9.578,1.118,6.842-19.04,16.285-36.848,28.263-53.155,3.816-5.194-4.178-11.206-7.991-6.014-12.459,16.961-22.424,35.604-29.542,55.411,3.193,.373,6.385,.745,9.578,1.118-1.414-10.816-2.827-21.631-4.241-32.447-1.32-10.097-1.886-20.688-4.829-30.476-2.318-7.71-6.979-14.723-14.751-17.68-7.285-2.772-14.658-1.424-20.065,4.173-4.469,4.627,3.575,10.587,7.991,6.014h0Z" fill="#8252b1"/></g><g id="GOUR_007_001_FRAG_003"><path d="M272.734,269.559c5.728-6.324,17.55-1.309,24.396-.071,8.646,1.563,17.566,.492,23.494-6.612,10.972-13.148,10.273-39.496,32.034-41.213,6.41-.506,4.875-10.391-1.522-9.886-9.298,.734-17.338,6.305-22.84,13.635-6.31,8.407-8.487,18.529-13.212,27.697-5.501,10.674-16.525,6.298-25.898,4.428-8.913-1.778-18.061-1.04-24.443,6.007-4.328,4.778,3.703,10.749,7.991,6.014h0Z" fill="#8252b1"/></g><g id="GOUR_007_001_FRAG_004"><path d="M358.588,266.72c6.108-6.798,16.952-7.558,24.202-2.246,2.627,1.925,6.381,.883,7.642-2.116,5.174-12.309,17.85-20.417,31.241-19.64,6.397,.371,7.599-9.559,1.16-9.933-17.87-1.037-34.711,9.257-41.67,25.814l7.642-2.116c-11.91-8.726-28.441-6.649-38.208,4.223-4.309,4.797,3.72,10.769,7.991,6.014h0Z" fill="#8252b1"/></g><g id="GOUR_007_001_FRAG_005"><path d="M447.067,245.297c9.081,3.148,5.839,18.627,8.576,25.912,2.999,7.984,10.794,13.623,19.41,10.84,8.888-2.871,12.817-11.835,14.928-20.155,2.442-9.623,6.462-19.572,18.167-19.515,6.364,.031,7.596-9.901,1.16-9.933-8.483-.042-16.289,3.101-21.822,9.682-6.465,7.69-5.117,18.505-10.701,26.401-2.395,3.387-6.604,6.097-9.979,2.35-3.329-3.696-3.023-9.732-3.445-14.321-.779-8.467-3.738-17.481-12.536-20.531-6.068-2.104-9.846,7.159-3.759,9.269h0Z" fill="#8252b1"/></g><g id="GOUR_007_001_FRAG_006"><path d="M539.485,275.276c3.889-11.738,7.736-23.491,11.669-35.214,.562-1.675,1.067-4.67,2.529-5.827,2.504-1.981,5.336,1.705,6.786,3.436,3.072,3.668,5.62,6.944,9.994,9.131,5.766,2.883,9.48-6.409,3.759-9.269-5.647-2.824-7.689-9.987-13.778-12.73-5.553-2.502-11.547-.981-15.124,3.96-3.904,5.393-5.261,13.051-7.325,19.28-2.593,7.825-5.186,15.651-7.779,23.476-2.017,6.088,7.243,9.873,9.269,3.759h0Z" fill="#8252b1"/></g><g id="GOUR_007_001_FRAG_007"><path d="M596.165,218.397c4.983,1.241,8.354,5.094,10.004,9.781,1.344,3.816,8.112,4.02,9.216-.127,.993-3.732,5.527-.972,6.7,1.264,2.177,4.147,1.781,9.754,1.929,14.289,.421,12.861,.841,25.722,1.262,38.583,.16,4.901,8.171,5.681,9.578,1.118,1.217-3.949,2.428-9.172,5.906-11.805,4.175-3.161,6.939-.646,7.523,3.724,1.05,7.852,1.677,14.618,7.477,20.642,11.31,11.747,30.921,9.509,39.454-4.398,3.344-5.45-4.625-11.5-7.991-6.014-4.472,7.288-13.75,10.816-21.373,5.912-7.96-5.121-6.196-13.096-8.339-20.965-2.035-7.47-8.821-11.621-16.406-9.868-9.141,2.113-13.011,10.871-15.521,19.013,3.193,.373,6.385,.745,9.578,1.118-.324-9.893-.647-19.786-.971-29.68-.253-7.749,.422-16.321-2.183-23.743-2.053-5.85-6.573-10.255-12.888-10.869-5.509-.536-11.504,2.28-13.005,7.919l9.216-.127c-2.921-8.293-9.635-13.616-18.007-15.701-6.227-1.551-7.328,8.396-1.16,9.933h0Z" fill="#8252b1"/></g><g id="GOUR_007_001_FRAG_008"><path d="M710.244,313.552c16.918,2.136,34.013,1.644,50.775-1.494,6.305-1.18,4.828-11.075-1.522-9.886-15.943,2.985-32,3.479-48.093,1.447-6.386-.806-7.551,9.126-1.16,9.933h0Z" fill="#8252b1"/></g><g id="GOUR_007_001_FRAG_009"><path d="M836.397,304.314c-16.703-3.559-33.737-4.393-50.723-2.676-6.4,.647-4.878,10.533,1.522,9.886,16.12-1.629,32.201-.653,48.042,2.722,6.291,1.34,7.41-8.601,1.16-9.933h0Z" fill="#8252b1"/></g><g id="GOUR_007_001_FRAG_010"><path d="M859.669,314.838c18.54,.699,36.161,8.376,48.882,21.981,4.37,4.674,12.247-1.494,7.843-6.203-14.475-15.481-34.314-24.909-55.565-25.71-6.388-.241-7.602,9.69-1.16,9.933h0Z" fill="#8252b1"/></g><g id="GOUR_007_002_FRAG_001"><path d="M56.719,552.638c10.67,10.857,27.028,3.632,33.212-8.191,3.939-7.531,4.637-15.881,5.88-24.142,1.194-7.931,3.037-16.662,10.287-21.263,5.426-3.443,.248-12.001-5.205-8.54-12.218,7.754-13.837,21.691-15.8,34.812-.938,6.272-2.167,13.105-6.399,18.098-3.706,4.373-10.582,6.559-15.036,2.027-4.52-4.6-11.451,2.609-6.94,7.2h0Z" fill="#ad76ff"/></g><g id="GOUR_007_002_FRAG_002"><path d="M120.108,526.584c-.472,10.428-.115,22.157,8.34,29.618,6.865,6.058,18.19,6.425,24.134-1.15l-8.445-4.71c-2.23,8.488,6.618,14.9,14.402,12.027,8.074-2.98,12.311-12.682,14.16-20.444,2.082-8.739,1.844-17.8,3.087-26.655,.633-4.509,1.569-9.195,3.706-13.254,1.505-2.857,6.996-9.209,10.235-4.409,3.588,5.315,12.155,.15,8.54-5.205-4.226-6.262-12.32-8.02-18.971-4.416-7.076,3.835-10.542,12.059-12.252,19.535-1.826,7.979-1.844,16.212-2.754,24.311-.479,4.267-1.219,8.634-2.821,12.635-.753,1.881-1.706,3.731-2.91,5.366-.623,.846-1.269,1.677-2.133,2.296-.103,.074-2.855,1.666-2.599,.694,1.195-4.55-5.254-8.777-8.445-4.71-3.94,5.022-10.047,2.202-12.798-2.506-3.348-5.731-2.766-12.836-2.478-19.206,.291-6.433-9.708-6.224-9.998,.184h0Z" fill="#ad76ff"/></g><g id="GOUR_007_002_FRAG_003"><path d="M202.11,524.988c7.947,15.43,15.893,30.86,23.84,46.29,1.79,3.475,6.83,2.86,8.633-.159,4.016-6.723,7.062-13.884,9.182-21.422l-9.115,1.362c5.042,6.654,10.084,13.308,15.126,19.962,2.049,2.704,6.926,3.588,8.633-.159,5.517-12.11,11.033-24.219,16.55-36.329,2.655-5.828-6.056-10.748-8.726-4.887-5.517,12.11-11.033,24.219-16.55,36.329l8.633-.159c-5.042-6.654-10.084-13.308-15.126-19.962-2.542-3.355-7.876-3.041-9.115,1.362-1.898,6.745-4.626,13.001-8.219,19.015l8.633-.159c-7.947-15.43-15.893-30.86-23.84-46.29-2.946-5.721-11.479-.501-8.54,5.205h0Z" fill="#ad76ff"/></g><g id="GOUR_007_002_FRAG_004"><path d="M289.938,527.123c11.15,4.12,11.8,19.891,14.771,29.445,3.011,9.682,9.018,18.679,19.281,21.406,6.231,1.656,8.699-8.037,2.481-9.69-11.876-3.156-12.944-18.662-15.756-28.428-2.855-9.918-8.276-18.721-18.296-22.423-6.039-2.232-8.46,7.48-2.481,9.69h0Z" fill="#ad76ff"/></g><g id="GOUR_007_002_FRAG_005"><path d="M347.878,544.508c3.769-2.357,7.901-2.741,11.93-.744,2.445,1.212,5.399,.517,6.807-1.919,2.756-4.77,4.054-9.943,5.004-15.329,.933-5.292,1.513-10.944,4.641-15.484,2.467-3.581,7.155-7.237,11.245-3.747,3.49,2.978,4.411,8.786,5.265,13.02,.591,2.933,4.972,4.759,7.399,2.853,3.977-3.124,9.14-.843,11.633,3.163,3.361,5.4,2.554,12.825,2.205,18.861-.267,4.608,5.675,6.113,8.599,3.378,3.072-2.873,7.006,2.893,7.982,5.087,1.751,3.939,2.403,8.278,4.224,12.206,3.012,6.497,9.165,12.18,16.77,11.255,6.326-.769,6.209-10.776-.184-9.998-5.313,.646-7.566-4.982-8.906-9.192-1.509-4.742-2.754-9.687-5.924-13.646-5.217-6.514-14.786-8.615-21.161-2.651l8.599,3.378c.553-9.56,.583-20.773-6.902-27.916-5.819-5.553-15.457-7.714-22.14-2.464,2.466,.951,4.932,1.902,7.399,2.853-1.252-6.21-3.143-12.9-7.917-17.385-4.894-4.597-12.073-5.444-17.989-2.394-6.261,3.227-10.434,9.625-12.455,16.206-2.353,7.662-2.012,15.966-6.112,23.061l6.807-1.919c-7.21-3.575-15.155-3.364-22.022,.93-5.451,3.409-.27,11.964,5.205,8.54h0Z" fill="#ad76ff"/></g><g id="GOUR_007_002_FRAG_006"><path d="M468.429,541.528c11.691,6.584,22.944-3.43,26.143-14.468,3.169-10.935,1.686-32.094,19.024-30.052,6.308,.743,8.853-8.94,2.481-9.69-11.94-1.406-22.814,4.642-26.997,16.14-2.301,6.327-2.223,13.114-3.799,19.605-1.201,4.946-5.573,13.338-11.965,9.739-5.62-3.165-10.498,5.567-4.887,8.726h0Z" fill="#ad76ff"/></g><g id="GOUR_007_002_FRAG_007"><path d="M522.383,529.457c2.166,13.116,5.412,27.07,17.21,34.912,9.834,6.536,22.887,4.646,29.848-4.933,3.783-5.206-4.986-10.035-8.726-4.887-5.065,6.969-15.022,3.185-19.64-2.007-6.237-7.013-7.628-17.004-9.1-25.92-1.045-6.326-10.631-3.452-9.592,2.835h0Z" fill="#ad76ff"/></g><g id="GOUR_007_002_FRAG_008"><path d="M585.05,547.569c.48-.444,2.984,5.376,3.156,5.802,.963,2.376,2.009,4.694,3.751,6.614,3.174,3.501,7.762,5.515,12.472,5.635,10.119,.259,18.006-9.236,16.708-19.094-.83-6.308-10.838-6.197-9.998,.184,.546,4.149-1.44,8.781-6.218,8.938-5.592,.184-6.926-5.052-8.747-9.183-3.176-7.203-11.705-11.947-18.324-5.836-4.738,4.374,2.483,11.294,7.2,6.94h0Z" fill="#ad76ff"/></g><g id="GOUR_007_002_FRAG_009"><path d="M628.887,490.404c.892,12.523,3.794,24.704,8.883,36.19,4.448,10.039,10.964,23.492,21.069,28.951,4.623,2.498,9.933,2.337,14.246-.669,1.957-1.364,3.322-3.534,5.291-4.822,3.06-2.001,6.139,.133,8.6,2.151,4.214,3.455,7.843,7.718,13.352,9.102,5.011,1.259,10.597,.08,13.902-4.056,3.989-4.992-3.177-11.974-7.2-6.94-3.162,3.957-8.164-.835-10.736-3.155-3.423-3.088-6.964-6.228-11.533-7.46-4.266-1.15-8.562-.442-12.123,2.166-3.482,2.551-5.536,7.314-10.226,4.168-3.934-2.638-6.65-7.454-9.11-11.38-2.759-4.402-5.204-9.016-7.198-13.815-4.057-9.764-6.47-20.077-7.22-30.615-.455-6.395-10.456-6.251-9.998,.184h0Z" fill="#ad76ff"/></g><g id="GOUR_007_002_FRAG_010"><path d="M729.542,575.5c16.456,6.034,35.655,1.026,47.28-12.019,4.276-4.799-2.907-11.757-7.2-6.94-9.482,10.642-24.27,14.157-37.599,9.269-6.046-2.217-8.468,7.495-2.481,9.69h0Z" fill="#ad76ff"/></g><g id="GOUR_007_002_FRAG_011"><path d="M798.461,550.234c18.272-10.962,32.701-27.569,40.732-47.327,2.397-5.897-6.307-10.838-8.726-4.887-7.435,18.291-20.263,33.507-37.211,43.674-5.517,3.31-.328,11.86,5.205,8.54h0Z" fill="#ad76ff"/></g><g id="GOUR_007_002_FRAG_012"><path d="M854.687,544.952c5.317,8.186,8.371,17.191,8.94,26.947,.222,3.802,4.239,6.128,7.602,4.178,9.02-5.231,15.606,9.238,18.878,15.053,4.211,7.484,10.204,14.804,19.221,16.056,6.313,.876,8.847-8.806,2.481-9.69-11.261-1.563-14.27-15.767-20.48-23.439-6.085-7.517-16.39-11.69-25.305-6.521,2.534,1.393,5.068,2.785,7.602,4.178-.669-11.473-4.131-22.321-10.398-31.969-3.498-5.385-12.059-.213-8.54,5.205h0Z" fill="#ad76ff"/></g><g id="GOUR_007_003_FRAG_001"><path d="M64.08,828.989c3.56,1.382,7.12,2.763,10.68,4.145,2.365,.918,5.697-1.167,6.085-3.605,2.154-13.51,7.251-26.71,15.706-37.571,4.3-5.524,10.736-3.839,14.155,1.838,3.67,6.093,2.923,13.852,2.529,20.635-.254,4.371,5.794,6.434,8.599,3.378,4.368-4.758,11.721,13.944,14.028,16.272,5.263,5.313,13.496,6.795,19.212,1.482,4.723-4.391-2.497-11.312-7.2-6.94-2.968,2.759-6.888-4.551-7.743-6.322-1.79-3.709-3.289-7.704-6.307-10.641-5.204-5.066-13.962-6.485-19.189-.79l8.599,3.378c.548-9.427,.623-19.524-5.235-27.487-4.841-6.58-13.126-10.145-21.121-7.418-7.82,2.667-12.846,12.594-16.421,19.445-4.618,8.85-7.73,18.413-9.3,28.262l6.085-3.605c-3.56-1.382-7.12-2.763-10.68-4.145-5.995-2.327-8.409,7.389-2.481,9.69h0Z" fill="#cd99da"/></g><g id="GOUR_007_003_FRAG_002"><path d="M167.044,802.154c13.226-4.025,27.089,2.343,31.949,15.449,2.223,5.995,11.838,3.221,9.592-2.835-6.733-18.154-25.698-27.891-44.377-22.206-6.146,1.871-3.343,11.472,2.835,9.592h0Z" fill="#cd99da"/></g><g id="GOUR_007_003_FRAG_003"><path d="M219.849,821.63c4.03,5.746,8.06,11.493,12.09,17.239,3.203,4.568,10.561,1.631,9.066-4.02-1.031-3.899-4.241-14.932,2.04-16.675,3.044-.845,3.781,2.13,4.891,4.333,1.69,3.354,3.38,6.707,5.07,10.061,2.401,4.765,9.058,1.84,9.269-2.695,.454-9.736,1.459-26.854,14.187-28.609,6.297-.868,6.189-10.877-.184-9.998-19.353,2.669-23.237,22.403-24.001,38.792l9.269-2.695c-4.536-9.002-9.414-23.635-22.502-18.357-11.651,4.698-10.216,18.909-7.632,28.679l9.066-4.02c-4.03-5.746-8.06-11.493-12.09-17.239-3.676-5.241-12.249-.083-8.54,5.205h0Z" fill="#cd99da"/></g><g id="GOUR_007_003_FRAG_004"><path d="M287.016,832.281c20.461,11.669,46.633,.029,50.995-23.293,1.179-6.304-8.506-8.812-9.69-2.481-3.176,16.98-21.233,25.707-36.418,17.047-5.603-3.196-10.479,5.537-4.887,8.726h0Z" fill="#cd99da"/></g><g id="GOUR_007_003_FRAG_005"><path d="M354.824,810.699c4.582-2.02,10.081-1.275,12.109,3.907,1.609,4.11,.145,7.986,3.059,11.859,5.351,7.111,15.324,6.899,21.708,1.383,7.821-6.759,7.951-17.042,8.97-26.534,.451-4.205,1.056-11.188,6.668-11.186,3.977,.001,5.873,5.043,3.461,8.058l7.963,5.914c1.723-2.485,5.614,1.073,6.426,2.589,1.796,3.354,1.685,7.483,1.76,11.183,.131,6.433,10.13,6.26,9.998-.184-.161-7.858-1.069-17.268-8.46-21.828-6.344-3.914-14.167-2.824-18.45,3.353-3.208,4.627,4.415,10.349,7.963,5.914,6.252-7.816,4.475-20.87-5.925-24.249-4.607-1.497-9.77-.632-13.742,2.12-5.054,3.501-6.556,9.623-7.316,15.396-.846,6.424-.135,14.291-4.031,19.854-1.399,1.997-3.895,4.282-6.583,3.73-3.471-.712-2.754-3.518-3.013-6.173-1.193-12.22-14.266-19.604-25.4-14.697-5.801,2.557-3.056,12.189,2.835,9.592h0Z" fill="#cd99da"/></g><g id="GOUR_007_003_FRAG_006"><path d="M438.307,838.644c8.156,.285,16.311,.571,24.467,.856,6.436,.225,6.233-9.774-.184-9.998-8.156-.285-16.311-.571-24.467-.856-6.436-.225-6.233,9.774,.184,9.998h0Z" fill="#cd99da"/></g><g id="GOUR_007_003_FRAG_007"><path d="M485.462,820.471c.188-1.761,2.008-2.983,3.666-2.474,2.036,.625,1.917,2.764,2.468,4.372,1.188,3.465,3.801,6.247,7.154,7.676,7.378,3.143,14.139-1.598,16.841-8.371,7.637-19.143,15.249-38.296,22.873-57.443,2.377-5.971-7.341-8.38-9.69-2.481-3.873,9.726-7.745,19.452-11.618,29.178-1.936,4.863-3.873,9.726-5.809,14.589-.968,2.431-1.936,4.863-2.904,7.294-.818,2.054-1.867,6.803-3.862,7.774-3.638,1.77-4.462-5.422-6.155-7.612-2.117-2.737-5.299-4.605-8.743-5.01-7.88-.928-13.442,5.401-14.219,12.694-.68,6.383,9.324,6.141,9.998-.184h0Z" fill="#cd99da"/></g><g id="GOUR_007_003_FRAG_008"><path d="M552.541,780.917c.809-.418,2.812,9.838,3.113,10.68,1.251,3.502,3.781,6.774,7.356,8.074,3.729,1.357,6.622,1.052,9.466,4.365s4.116,7.461,4.95,11.66c1.737,8.748,1.774,18.139,7.209,25.659,4.902,6.783,12.061,10.489,20.392,8.997,6.318-1.132,3.451-10.718-2.835-9.592-10.627,1.904-13.089-14.397-14.103-21.26-1.249-8.456-2.985-16.866-9.158-23.219-2.409-2.479-5.539-4.508-8.902-5.396-2.418-.638-3.941-.176-4.964-2.735-.777-1.943-.827-4.164-1.275-6.194-1.688-7.653-8.696-13.584-16.452-9.579-5.718,2.953-.499,11.486,5.205,8.54h0Z" fill="#cd99da"/></g><g id="GOUR_007_003_FRAG_009"><path d="M623.294,848.459c11.032,2.448,22.51-.729,30.733-8.517,3.939-3.731,5.702-9.377,10.17-12.474s9.861-3.361,14.83-1.393c5.976,2.366,8.386-7.352,2.481-9.69-9.808-3.884-21.724-.499-28.223,7.776-3.629,4.62-5.681,9.174-11.077,12.185-5.044,2.815-10.806,3.673-16.434,2.424-6.28-1.393-8.77,8.295-2.481,9.69h0Z" fill="#cd99da"/></g><g id="GOUR_007_003_FRAG_010"><path d="M691.211,764.74c4.407-2.963,7.445,4.894,8.549,7.822,1.632,4.325,3.301,8.673,6.664,11.988,3.112,3.067,6.657,4.316,10.936,4.453,5.129,.164,8.54,3.728,8.015,8.985-.474,4.753,5.732,5.887,8.599,3.378,5.734-5.018,9.332,4.648,10.954,8.154,3.43,7.414,6.86,14.829,10.29,22.243,2.696,5.828,11.22,.587,8.54-5.205-2.744-5.931-5.488-11.863-8.232-17.794-2.124-4.591-3.781-10.386-7.411-14.04-5.891-5.93-15.286-5.597-21.341-.297,2.866,1.126,5.733,2.252,8.599,3.378,.633-6.345-2.67-12.568-7.971-16.038-5.358-3.507-12.413-.983-15.858-6.867-3.302-5.641-3.894-12.366-9.063-16.916-4.568-4.021-11.277-5.279-16.477-1.783-5.323,3.579-.157,12.145,5.205,8.54h0Z" fill="#cd99da"/></g><g id="GOUR_007_003_FRAG_011"><path d="M775.025,793.086c7.861,4.043,7.648,13.783,8.325,21.449,.63,7.133,1.836,14.544,6.655,20.154,4.252,4.95,11.024,8.084,17.545,6.115,6.078-1.836,10.265-7.42,10.061-13.747-.207-6.427-10.206-6.261-9.998,.184,.224,6.948-8.442,3.291-10.751,.049-3.346-4.698-3.345-11.109-3.792-16.616-.834-10.288-3.174-21.179-13.158-26.314-5.722-2.944-10.619,5.778-4.887,8.726h0Z" fill="#cd99da"/></g><g id="GOUR_007_003_FRAG_012"><path d="M835.003,824.966c2.575-1.772,5.052-1.438,7.143,.871,2.078,2.295,6.502,1.633,7.833-1.156,3.072-6.438,8.175-10.701,15.106-12.463,6.235-1.584,3.406-11.179-2.835-9.592-9.219,2.343-16.896,8.572-20.996,17.167l7.833-1.156c-4.921-5.436-13.263-6.358-19.288-2.211-5.278,3.633-.116,12.203,5.205,8.54h0Z" fill="#cd99da"/></g><g id="GOUR_007_003_FRAG_013"><path d="M872.599,779.162c7.893,6.112,12.814,14.768,13.411,24.798,.327,5.488,8.484,6.808,9.844,1.148,.742-3.089,5.147,3.107,5.414,3.589,1.824,3.288,3.253,6.837,4.822,10.253,3.444,7.504,6.889,15.007,10.333,22.511,2.678,5.835,11.202,.592,8.54-5.205-2.914-6.349-5.829-12.698-8.743-19.048-2.554-5.565-4.663-11.901-8.42-16.792-5.642-7.344-19.048-8.559-21.636,2.212,3.281,.383,6.563,.766,9.844,1.148-.744-12.499-6.519-24.108-16.47-31.814-5.042-3.904-12.03,3.258-6.94,7.2h0Z" fill="#cd99da"/></g><g id="GOUR_007_004_FRAG_001"><path d="M1015.686,269.287c3.832,8.324,7.665,16.649,11.497,24.973,1.932,4.196,7.98,2.342,9.115-1.362,1.789-5.837,3.579-11.674,5.368-17.511,.848-2.765,1.695-5.53,2.543-8.294,.76-2.481,1.289-7.1,2.825-9.216,.066-.091-.499-1.037-.002-.902,.089,.024,1.081,2.962,1.212,3.273,1.132,2.68,2.264,5.36,3.396,8.04,2.516,5.955,5.031,11.91,7.547,17.866,2.473,5.855,12.1,3.102,9.592-2.835-3.773-8.933-7.547-17.866-11.32-26.798-2.365-5.6-5.503-10.786-12.54-9.257-7.175,1.559-8.01,9.554-9.835,15.507-2.825,9.216-5.651,18.432-8.476,27.648l9.115-1.362c-3.832-8.324-7.665-16.649-11.497-24.973-2.685-5.832-11.208-.59-8.54,5.205h0Z" fill="#a41c78"/></g><g id="GOUR_007_004_FRAG_002"><path d="M1085.712,273.032c6.461-2.255,13.455-.684,18.487,3.983,4.639,4.303,4.594,11.226,10.419,14.451,5.915,3.276,12.921,1.899,18.127-1.978,6.401-4.767,9.901-14.258,17.891-16.592,6.17-1.803,3.36-11.403-2.835-9.592-8.355,2.441-12.39,9.242-17.947,15.289-2.127,2.315-4.924,5.086-8.367,4.72-3.605-.383-3.63-3.84-5.03-6.535-6.122-11.785-21.09-17.697-33.58-13.338-6.049,2.111-3.265,11.721,2.835,9.592h0Z" fill="#a41c78"/></g><g id="GOUR_007_004_FRAG_003"><path d="M1179.425,268.734c3.465-3.444,7.44,5.565,8.452,7.709,2.637,5.586,9.892,1.034,9.066-4.02-.651-3.986,3.55-8.443,7.569-7.551,3.847,.853,5.819,5.218,4.878,8.763-.904,3.405,1.783,5.974,4.937,6.239,7.051,.594,13.777,3.21,19.369,7.552,5.038,3.911,12.026-3.251,6.94-7.2-7.875-6.115-16.552-9.512-26.493-10.35l4.937,6.239c2.566-9.666-4.318-20.7-14.681-21.308-11.211-.657-18.744,10.074-17.048,20.452,3.022-1.34,6.044-2.68,9.066-4.02-2.38-5.04-5.383-10.187-10.901-12.2-4.756-1.735-9.685-.827-13.292,2.757-4.574,4.545,2.633,11.479,7.2,6.94h0Z" fill="#a41c78"/></g><g id="GOUR_007_004_FRAG_004"><path d="M1259.757,300.233c18.382,2.736,37.001-1.472,52.04-12.539,5.142-3.784-.007-12.366-5.205-8.54-12.78,9.404-28.573,13.738-44.354,11.389-6.313-.94-8.842,8.743-2.481,9.69h0Z" fill="#a41c78"/></g><g id="GOUR_007_004_FRAG_005"><path d="M1328.587,276.545c4.425-2.795,8.85-5.59,13.275-8.384,5.434-3.432,.256-11.989-5.205-8.54-4.425,2.795-8.85,5.59-13.275,8.384-5.434,3.432-.256,11.989,5.205,8.54h0Z" fill="#a41c78"/></g><g id="GOUR_007_004_FRAG_006"><path d="M1359.472,240.504c-2.008,7.049,.345,15.014,6.651,19.113,2.644,1.718,5.825,2.728,8.99,2.781,3.427,.057,7.106-2.421,10.316-1.516,7.776,2.192,8.452,14.84,11.218,20.996,3.208,7.14,8.792,12.284,16.769,12.912,6.411,.505,6.184-9.497-.184-9.998-6.853-.54-8.685-10.28-10.273-15.404-1.81-5.84-4.209-11.425-9.228-15.188-4.515-3.384-9.421-4.214-14.767-2.638-6.049,1.783-11.8-1.566-9.802-8.577,1.767-6.203-7.929-8.662-9.69-2.481h0Z" fill="#a41c78"/></g><g id="GOUR_007_004_FRAG_007"><path d="M1437.455,272.983c-2.834,11.993,9.459,22.627,20.671,16.165,6.06-3.493,8.183-11.331,10.972-17.291,3.724-7.957,7.449-15.915,11.173-23.872,2.718-5.807-5.995-10.722-8.726-4.887-4.276,9.136-8.553,18.273-12.829,27.409-1.43,3.055-2.804,9.084-6.322,10.342-3.547,1.268-6.017-2.134-5.249-5.385,1.481-6.266-8.209-8.749-9.69-2.481h0Z" fill="#a41c78"/></g><g id="GOUR_007_004_FRAG_008"><path d="M1488.641,256.096c4.406,14.988,15.209,27.502,29.595,33.702,5.865,2.527,10.795-6.18,4.887-8.726-12.129-5.227-21.154-15.098-24.891-27.811-1.813-6.167-11.413-3.358-9.592,2.835h0Z" fill="#a41c78"/></g><g id="GOUR_007_004_FRAG_009"><path d="M1548,282.885c-.669-4.773,4.143-6.775,6.406-2.284,2.617,5.194,10.489,1.292,9.066-4.02-1.688-6.3,5.797-1.787,7.974-1.009,3.63,1.297,7.55,1.529,11.311,.675,7.422-1.685,12.748-7.596,14.728-14.776,1.714-6.217-7.981-8.68-9.69-2.481-1.244,4.512-4.882,7.867-9.725,7.776-4.657-.088-7.917-3.872-12.748-3.761-8.607,.197-13.551,8.538-11.442,16.411,3.022-1.34,6.044-2.68,9.066-4.02-6.606-13.109-27.008-7.055-24.944,7.673,.882,6.293,10.891,6.186,9.998-.184h0Z" fill="#a41c78"/></g><g id="GOUR_007_004_FRAG_010"><path d="M1614.214,244.725c5.404-3.843,11.413-.449,11.012,6.151-.252,4.144,5.963,6.742,8.599,3.378,5.269-6.725,10.103,9.311,11.118,11.967,2.438,6.38,5.919,11.277,12.406,13.835,5.98,2.358,8.391-7.359,2.481-9.69-3.904-1.539-5.285-6.905-6.5-10.448-1.474-4.298-3.072-8.685-6.24-12.056-5.249-5.585-15.325-7.105-20.464-.548l8.599,3.378c.847-13.943-14.848-22.592-26.215-14.508-5.213,3.707-.058,12.283,5.205,8.54h0Z" fill="#a41c78"/></g><g id="GOUR_007_004_FRAG_011"><path d="M1681.573,280.176c14.643-3.094,30.409,5.901,35.38,19.961,2.135,6.038,11.746,3.256,9.592-2.835-6.884-19.472-27.652-30.978-47.808-26.718-6.29,1.329-3.44,10.918,2.835,9.592h0Z" fill="#a41c78"/></g><g id="GOUR_007_004_FRAG_012"><path d="M1742.04,303.796c7.268,.873,14.355-1.117,19.494-6.569,3.719-3.945,5.766-14.684,13.415-11.234,3.184,1.436,7.784-.365,7.443-4.455-.878-10.515,4.269-20.112,13.563-25.138,5.663-3.062,.453-11.6-5.205-8.54-12.168,6.58-19.507,20.066-18.356,33.862l7.443-4.455c-6.553-2.955-14.306-1.994-19.489,3.262-2.528,2.563-3.078,5.871-5.1,8.688-2.341,3.26-6.701,5.373-10.727,4.89-6.309-.758-8.852,8.925-2.481,9.69h0Z" fill="#a41c78"/></g><g id="GOUR_007_004_FRAG_013"><path d="M1813.361,288.058c-1.546,.104-2.014,.605-1.403,1.504,.241,.616,.503,1.224,.785,1.824,.584,1.232,1.104,2.326,2.038,3.345,1.34,1.462,3.162,2.534,5.119,2.919,2.41,.474,4.98-.099,6.814-1.759,1.765-1.597,1.744-3.048,4.591-2.028,4.691,1.681,7.044,8.611,10.65,11.823,4.181,3.723,9.425,5.624,14.901,3.911,6.129-1.916,3.329-11.52-2.835-9.592-5.723,1.789-9.801-7.99-13.03-11.312-3.767-3.876-9.226-6.156-14.638-4.775-1.44,.367-5.643,1.929-5.94,3.782-.841,.958-.369,.858,1.418-.302-.243-.63-.504-1.253-.784-1.868-.547-1.221-1.046-2.393-1.891-3.446-3.232-4.029-9.399-5.06-12.995-.964-4.239,4.827,2.943,11.788,7.2,6.94h0Z" fill="#a41c78"/></g><g id="GOUR_007_005_FRAG_001"><path d="M1028.841,557.992c14.261,3.068,19.379-11.025,22.593-21.871,.827-2.791,5.471-13.722,9.888-8.628,1.645,1.898,2.193,7.785,2.836,10.211,1.031,3.891,2.061,7.782,3.092,11.672,.779,2.94,4.802,4.734,7.399,2.853,3.212-2.328,5.975-.201,6.783,3.106,1.056,4.319,2.575,8.337,5.218,11.969,5.183,7.123,12.979,12.12,21.761,13.266,6.312,.824,8.85-8.859,2.481-9.69-5.289-.69-9.983-2.772-13.768-6.594-4.018-4.057-4.855-8.383-6.474-13.571-2.669-8.554-14.011-12.237-21.206-7.025,2.466,.951,4.932,1.902,7.399,2.853-1.11-4.19-2.22-8.38-3.33-12.57-.961-3.628-1.472-7.935-3.312-11.246-2.939-5.288-9.797-7.231-15.386-5.573-6.345,1.882-10.028,7.819-12.16,13.684-1.768,4.864-3.322,19.189-11.333,17.466-6.286-1.352-8.78,8.335-2.481,9.69h0Z" fill="#ee88f6"/></g><g id="GOUR_007_005_FRAG_002"><path d="M1140.839,579.067c8.45-7.822,15.06-17.381,19.327-28.08,1.179-2.957,2.21-5.963,3.012-9.046,.464-1.782,.599-6.657,3.174-6.786,3.67-.184,6.082,17.112,6.816,20.086,2.764,11.192,4.141,23.738,16.411,28.334,9.966,3.733,21.307-1.54,25.541-11.149,2.578-5.851-6.131-10.777-8.726-4.887-2.133,4.84-6.92,8.399-12.413,6.999-6.591-1.68-7.692-7.844-9.093-13.519-1.654-6.699-3.308-13.398-4.962-20.097-1.389-5.625-2.242-11.389-7.879-14.323-4.334-2.255-9.53-1.694-13.279,1.433-4.425,3.69-4.561,9.324-6.147,14.488-3.516,11.443-10.233,21.509-18.981,29.607-4.732,4.381,2.488,11.301,7.2,6.94h0Z" fill="#ee88f6"/></g><g id="GOUR_007_005_FRAG_003"><path d="M1238.709,583.471c3.848-1.355,7.826-1.631,11.714-.17,3.261,1.225,5.356,3.892,8.356,5.492,5.693,3.035,12.867,1.482,17.956-2.025,6.144-4.235,8.911-11.131,11.218-17.939,2.108-6.22,4.715-16.655,12.633-17.665,6.316-.805,6.202-10.813-.184-9.998-7.24,.923-12.506,4.972-16.371,11.081-4.413,6.974-5.015,15.664-9.471,22.57-1.858,2.88-4.954,5.514-8.577,5.597-3.382,.077-5.721-3.282-8.531-4.831-6.61-3.643-14.489-4.198-21.578-1.703-6.041,2.127-3.259,11.738,2.835,9.592h0Z" fill="#ee88f6"/></g><g id="GOUR_007_005_FRAG_004"><path d="M1317.311,582.898c8.285,7.159,20.33,7.596,28.403-.201,4.091-3.951,5.418-8.97,6.708-14.327,1.712-7.105,3.423-14.209,5.135-21.314,1.508-6.261-8.181-8.742-9.69-2.481-2.102,8.723-3.51,18.12-6.44,26.594-2.552,7.384-11.269,9.633-17.177,4.528-4.857-4.197-11.822,2.982-6.94,7.2h0Z" fill="#ee88f6"/></g><g id="GOUR_007_005_FRAG_005"><path d="M1387.641,578.957c3.64-6.318,6.557-13.044,8.564-20.06,1.021-3.571,1.785-7.216,2.302-10.893,.238-1.698,.819-3.88,.641-5.589l.129-1.709c-1.365-1.327-1.401-1.018-.109,.928,2.913,7.727,7.781,15.194,11.549,22.551,3.85,7.517,7.7,15.034,11.549,22.551,2.933,5.727,11.466,.507,8.54-5.205-4.886-9.541-9.773-19.082-14.659-28.623-2.369-4.626-4.738-9.252-7.107-13.878-2.004-3.913-3.849-7.978-8.624-8.891-3.603-.689-7.31,.93-9.374,3.922-2.393,3.468-1.751,8.319-2.344,12.312-1.46,9.826-4.833,19.108-9.782,27.698-3.221,5.59,5.513,10.464,8.726,4.887h0Z" fill="#ee88f6"/></g><g id="GOUR_007_005_FRAG_006"><path d="M1447.859,586.106c14.682,7.123,33.98,1.007,40.861-14.157,4.955-10.919,8.854-22.452,13.241-33.613,2.264-5.761,4.529-11.522,6.793-17.282,.911-2.317,1.795-6.884,4.059-8.312,2.321-1.464,4.692,.072,5.453,2.436,1.966,6.11,11.571,3.315,9.592-2.835-3.023-9.399-14.668-13.767-22.339-6.537-3.919,3.694-5.26,9.727-7.171,14.587-2.503,6.367-5.006,12.734-7.508,19.102-2.384,6.064-4.767,12.128-7.151,18.192-2.005,5.102-3.485,10.936-7.355,14.998-5.909,6.203-15.795,8.477-23.589,4.696-5.778-2.803-10.685,5.913-4.887,8.726h0Z" fill="#ee88f6"/></g><g id="GOUR_007_005_FRAG_007"><path d="M1526.693,543.191c2.401,9.564,1.92,20.112,8.071,28.373,5.392,7.24,14.22,9.943,22.477,6.192l-7.602-4.178c2.444,16.907,23.322,22.149,32.836,7.512,3.517-5.41-5.234-10.26-8.726-4.887-3.766,5.794-13.063,4.44-14.111-2.808-.576-3.981-3.915-5.853-7.602-4.178-6.278,2.851-10.812-5.205-12.191-9.93-1.802-6.175-1.994-12.694-3.559-18.93s-11.16-3.41-9.592,2.835h0Z" fill="#ee88f6"/></g><g id="GOUR_007_005_FRAG_008"><path d="M1602.913,555.195c2.54-5.539,8.727-4.352,9.707,1.471,.881,5.239,8.328,4.07,9.641-.177,3.363-10.88,19.86-7.454,18.072,3.951-.99,6.313,8.694,8.837,9.69,2.481,1.566-9.987-4.088-20.417-14.334-22.906-10.155-2.467-20.154,4.404-23.118,13.994,3.214-.059,6.427-.118,9.641-.177-2.404-14.294-22.057-16.54-28.025-3.524-2.67,5.823,6.042,10.742,8.726,4.887h0Z" fill="#ee88f6"/></g><g id="GOUR_007_005_FRAG_009"><path d="M1658.387,588.475c11.675,8.287,27.15,4.784,37.479-3.929,12.043-10.159,17.273-25.457,24.833-38.775,3.184-5.61-5.548-10.486-8.726-4.887-6.133,10.804-10.411,23.103-18.847,32.43-7.583,8.384-19.685,13.651-29.851,6.435-5.252-3.728-10.085,5.037-4.887,8.726h0Z" fill="#ee88f6"/></g><g id="GOUR_007_005_FRAG_010"><path d="M1736.18,585.829c11.983-.151,23.965-.301,35.948-.452,6.436-.081,6.259-10.079-.184-9.998-11.983,.151-23.965,.301-35.948,.452-6.436,.081-6.259,10.079,.184,9.998h0Z" fill="#ee88f6"/></g><g id="GOUR_007_005_FRAG_011"><path d="M1792.187,585.533c17.172,2.077,29.411,15.754,28.965,33.183-.165,6.438,9.834,6.241,9.998-.184,.547-21.391-15.119-40.104-36.482-42.689-6.309-.763-8.852,8.919-2.481,9.69h0Z" fill="#ee88f6"/></g></g></svg>