<?xml version="1.0" encoding="utf-8"?>
<!-- Generator: Adobe Illustrator 27.0.0, SVG Export Plug-In . SVG Version: 6.00 Build 0)  -->
<svg version="1.1" xmlns="http://www.w3.org/2000/svg" xmlns:xlink="http://www.w3.org/1999/xlink" x="0px" y="0px"
	 viewBox="0 0 1920 1080" enable-background="new 0 0 1920 1080" xml:space="preserve">
<g id="GRILLE">
	<g>
		
			<line fill="none" stroke="#1A1AA7" stroke-width="0.5" stroke-linecap="square" stroke-linejoin="round" stroke-miterlimit="10" x1="934.397" y1="162.253" x2="36.281" y2="162.253"/>
		
			<line fill="none" stroke="#1A1AA7" stroke-width="0.5" stroke-linecap="square" stroke-linejoin="round" stroke-miterlimit="10" x1="934.397" y1="204.742" x2="36.281" y2="204.742"/>
		
			<line fill="none" stroke="#1A1AA7" stroke-width="0.5" stroke-linecap="square" stroke-linejoin="round" stroke-miterlimit="10" x1="934.397" y1="247.231" x2="36.281" y2="247.231"/>
		
			<line fill="none" stroke="#1A1AA7" stroke-width="0.5" stroke-linecap="square" stroke-linejoin="round" stroke-miterlimit="10" x1="934.397" y1="289.721" x2="36.281" y2="289.721"/>
		
			<line fill="none" stroke="#1A1AA7" stroke-width="0.5" stroke-linecap="square" stroke-linejoin="round" stroke-miterlimit="10" x1="934.397" y1="332.21" x2="36.281" y2="332.21"/>
		
			<line fill="none" stroke="#1A1AA7" stroke-width="0.5" stroke-linecap="square" stroke-linejoin="round" stroke-miterlimit="10" x1="934.397" y1="374.699" x2="36.281" y2="374.699"/>
		
			<line fill="none" stroke="#1A1AA7" stroke-width="0.5" stroke-linecap="square" stroke-linejoin="round" stroke-miterlimit="10" x1="934.397" y1="417.189" x2="36.281" y2="417.189"/>
		
			<line fill="none" stroke="#1A1AA7" stroke-width="0.5" stroke-linecap="square" stroke-linejoin="round" stroke-miterlimit="10" x1="934.397" y1="459.678" x2="36.281" y2="459.678"/>
		
			<line fill="none" stroke="#1A1AA7" stroke-width="0.5" stroke-linecap="square" stroke-linejoin="round" stroke-miterlimit="10" x1="934.397" y1="502.588" x2="36.281" y2="502.588"/>
		
			<line fill="none" stroke="#1A1AA7" stroke-width="0.5" stroke-linecap="square" stroke-linejoin="round" stroke-miterlimit="10" x1="934.397" y1="545.498" x2="36.281" y2="545.498"/>
		
			<line fill="none" stroke="#1A1AA7" stroke-width="0.5" stroke-linecap="square" stroke-linejoin="round" stroke-miterlimit="10" x1="934.397" y1="588.408" x2="36.281" y2="588.408"/>
		
			<line fill="none" stroke="#1A1AA7" stroke-width="0.5" stroke-linecap="square" stroke-linejoin="round" stroke-miterlimit="10" x1="934.397" y1="631.318" x2="36.281" y2="631.318"/>
		
			<line fill="none" stroke="#1A1AA7" stroke-width="0.5" stroke-linecap="square" stroke-linejoin="round" stroke-miterlimit="10" x1="934.397" y1="674.228" x2="36.281" y2="674.228"/>
		
			<line fill="none" stroke="#1A1AA7" stroke-width="0.5" stroke-linecap="square" stroke-linejoin="round" stroke-miterlimit="10" x1="934.397" y1="717.138" x2="36.281" y2="717.138"/>
		
			<line fill="none" stroke="#1A1AA7" stroke-width="0.5" stroke-linecap="square" stroke-linejoin="round" stroke-miterlimit="10" x1="934.397" y1="760.048" x2="36.281" y2="760.048"/>
		
			<line fill="none" stroke="#1A1AA7" stroke-width="0.5" stroke-linecap="square" stroke-linejoin="round" stroke-miterlimit="10" x1="934.397" y1="802.958" x2="36.281" y2="802.958"/>
		
			<line fill="none" stroke="#1A1AA7" stroke-width="0.5" stroke-linecap="square" stroke-linejoin="round" stroke-miterlimit="10" x1="934.397" y1="845.868" x2="36.281" y2="845.868"/>
		
			<line fill="none" stroke="#1A1AA7" stroke-width="0.5" stroke-linecap="square" stroke-linejoin="round" stroke-miterlimit="10" x1="934.397" y1="888.778" x2="36.281" y2="888.778"/>
		
			<line fill="none" stroke="#1A1AA7" stroke-width="0.5" stroke-linecap="square" stroke-linejoin="round" stroke-miterlimit="10" x1="934.397" y1="931.688" x2="36.281" y2="931.688"/>
	</g>
	<g>
		
			<line fill="none" stroke="#1A1AA7" stroke-width="0.5" stroke-linecap="square" stroke-linejoin="round" stroke-miterlimit="10" x1="1885.423" y1="162.253" x2="987.307" y2="162.253"/>
		
			<line fill="none" stroke="#1A1AA7" stroke-width="0.5" stroke-linecap="square" stroke-linejoin="round" stroke-miterlimit="10" x1="1885.423" y1="204.742" x2="987.307" y2="204.742"/>
		
			<line fill="none" stroke="#1A1AA7" stroke-width="0.5" stroke-linecap="square" stroke-linejoin="round" stroke-miterlimit="10" x1="1885.423" y1="247.231" x2="987.307" y2="247.231"/>
		
			<line fill="none" stroke="#1A1AA7" stroke-width="0.5" stroke-linecap="square" stroke-linejoin="round" stroke-miterlimit="10" x1="1885.423" y1="289.721" x2="987.307" y2="289.721"/>
		
			<line fill="none" stroke="#1A1AA7" stroke-width="0.5" stroke-linecap="square" stroke-linejoin="round" stroke-miterlimit="10" x1="1885.423" y1="332.21" x2="987.307" y2="332.21"/>
		
			<line fill="none" stroke="#1A1AA7" stroke-width="0.5" stroke-linecap="square" stroke-linejoin="round" stroke-miterlimit="10" x1="1885.423" y1="374.699" x2="987.307" y2="374.699"/>
		
			<line fill="none" stroke="#1A1AA7" stroke-width="0.5" stroke-linecap="square" stroke-linejoin="round" stroke-miterlimit="10" x1="1885.423" y1="417.189" x2="987.307" y2="417.189"/>
		
			<line fill="none" stroke="#1A1AA7" stroke-width="0.5" stroke-linecap="square" stroke-linejoin="round" stroke-miterlimit="10" x1="1885.423" y1="459.678" x2="987.307" y2="459.678"/>
		
			<line fill="none" stroke="#1A1AA7" stroke-width="0.5" stroke-linecap="square" stroke-linejoin="round" stroke-miterlimit="10" x1="1885.423" y1="502.588" x2="987.307" y2="502.588"/>
		
			<line fill="none" stroke="#1A1AA7" stroke-width="0.5" stroke-linecap="square" stroke-linejoin="round" stroke-miterlimit="10" x1="1885.423" y1="545.498" x2="987.307" y2="545.498"/>
		
			<line fill="none" stroke="#1A1AA7" stroke-width="0.5" stroke-linecap="square" stroke-linejoin="round" stroke-miterlimit="10" x1="1885.423" y1="588.408" x2="987.307" y2="588.408"/>
		
			<line fill="none" stroke="#1A1AA7" stroke-width="0.5" stroke-linecap="square" stroke-linejoin="round" stroke-miterlimit="10" x1="1885.423" y1="631.318" x2="987.307" y2="631.318"/>
		
			<line fill="none" stroke="#1A1AA7" stroke-width="0.5" stroke-linecap="square" stroke-linejoin="round" stroke-miterlimit="10" x1="1885.423" y1="674.228" x2="987.307" y2="674.228"/>
		
			<line fill="none" stroke="#1A1AA7" stroke-width="0.5" stroke-linecap="square" stroke-linejoin="round" stroke-miterlimit="10" x1="1885.423" y1="717.138" x2="987.307" y2="717.138"/>
		
			<line fill="none" stroke="#1A1AA7" stroke-width="0.5" stroke-linecap="square" stroke-linejoin="round" stroke-miterlimit="10" x1="1885.423" y1="760.048" x2="987.307" y2="760.048"/>
		
			<line fill="none" stroke="#1A1AA7" stroke-width="0.5" stroke-linecap="square" stroke-linejoin="round" stroke-miterlimit="10" x1="1885.423" y1="802.958" x2="987.307" y2="802.958"/>
		
			<line fill="none" stroke="#1A1AA7" stroke-width="0.5" stroke-linecap="square" stroke-linejoin="round" stroke-miterlimit="10" x1="1885.423" y1="845.868" x2="987.307" y2="845.868"/>
		
			<line fill="none" stroke="#1A1AA7" stroke-width="0.5" stroke-linecap="square" stroke-linejoin="round" stroke-miterlimit="10" x1="1885.423" y1="888.778" x2="987.307" y2="888.778"/>
		
			<line fill="none" stroke="#1A1AA7" stroke-width="0.5" stroke-linecap="square" stroke-linejoin="round" stroke-miterlimit="10" x1="1885.423" y1="931.688" x2="987.307" y2="931.688"/>
	</g>
</g>
<g id="FRAGMENTS">
	<g id="GOUR_x5F_009_x5F_001_x5F_FRAG_x5F_001">
		<g>
			<path fill="#8252B1" d="M92.618,307.912c11.185,6.539,24.227,12.403,37.447,9.517c11.677-2.549,19.223-12.388,22.947-23.171
				c4.413-12.78,2.723-26.357,4.62-39.524c1.735-12.044,8.946-26.987,23.317-25.573c6.392,0.629,6.155-9.375-0.184-9.998
				c-11.451-1.126-21.346,6.367-27.037,15.774c-6.971,11.523-6.592,25.534-7.292,38.517c-0.578,10.716-2.377,23.913-11.56,30.951
				c-11.378,8.72-26.8,0.962-37.371-5.217C91.935,295.929,87.064,304.665,92.618,307.912L92.618,307.912z"/>
		</g>
	</g>
	<g id="GOUR_x5F_009_x5F_001_x5F_FRAG_x5F_002">
		<g>
			<path fill="#8252B1" d="M211.562,312.061c12.966,7.945,31.199,3.573,39.491-9.11c5.247-8.027,4.737-17.884,4.792-27.06
				c0.031-5.142,0.187-10.88,2.974-15.394c2.193-3.552,6.814-6.578,10.978-4.501c5.752,2.87,10.655-5.849,4.887-8.726
				c-7.458-3.72-16.091-1.559-21.737,4.455c-6.938,7.39-7.127,18.215-7.09,27.73c0.034,8.925-0.418,18.154-8.659,23.392
				c-6.324,4.02-14.327,4.423-20.748,0.488C210.946,299.963,206.085,308.705,211.562,312.061L211.562,312.061z"/>
		</g>
	</g>
	<g id="GOUR_x5F_009_x5F_001_x5F_FRAG_x5F_003">
		<g>
			<path fill="#8252B1" d="M305.863,320.076c10.176,5.975,24.099,3.945,31.948-5.008c4.644-5.297,6.057-12.13,7.168-18.877
				c0.95-5.765,1.949-14.961,8.406-17.326c6.667-2.442,12.913,4.932,15.272,10.28c3.196,7.244,3.737,15.39,6.572,22.77
				c4.716,12.28,14.823,21.835,27.367,25.84c14.955,4.775,31.485,0.005,42.598-10.733c4.638-4.481-2.574-11.41-7.2-6.94
				c-9.561,9.238-24.254,12.359-36.451,6.572c-5.608-2.661-10.501-6.813-13.863-12.049c-3.777-5.881-5.021-12.738-6.686-19.414
				c-2.937-11.773-9.535-24.976-23.062-26.607c-13.121-1.583-20.068,10.699-22.102,21.858c-1.294,7.101-1.527,15.659-7.983,20.207
				c-5.083,3.581-11.784,3.819-17.096,0.7C305.186,308.083,300.316,316.819,305.863,320.076L305.863,320.076z"/>
		</g>
	</g>
	<g id="GOUR_x5F_009_x5F_001_x5F_FRAG_x5F_004">
		<g>
			<path fill="#8252B1" d="M486.789,315.572c3.754-13.443,19.966-15.722,28.486-5.366c2.87,3.489,8.532,0.3,8.469-3.692
				c-0.095-6.01,2.417-11.761,7.131-15.597c5.546-4.513,12.702-4.239,19.448-4.603c12.034-0.649,22.723-4.737,32.086-12.354
				c20.768-16.893,27.521-43.628,33.208-68.571c1.431-6.274-8.258-8.762-9.69-2.481c-5.762,25.271-12.634,54.658-37.159,68.331
				c-5.523,3.08-11.462,4.657-17.756,5.027c-6.624,0.389-13.402,0.249-19.629,2.873c-10.954,4.616-17.824,15.777-17.638,27.557
				c2.823-1.231,5.646-2.461,8.469-3.692c-13.548-16.469-39.527-9.928-45.115,10.086
				C475.364,319.303,485.06,321.765,486.789,315.572L486.789,315.572z"/>
		</g>
	</g>
	<g id="GOUR_x5F_009_x5F_001_x5F_FRAG_x5F_005">
		<g>
			<path fill="#8252B1" d="M631.518,282.411c7.913-9.468,23.103-8.415,27.96,3.648c1.711,4.25,8.49,5.042,9.641-0.177
				c5.95-26.98,20.911-51.594,42.567-68.861c4.963-3.957-0.171-12.554-5.205-8.54c-23.731,18.922-40.5,45.214-47.052,74.921
				c3.214-0.059,6.427-0.118,9.641-0.177c-7.435-18.467-31.562-23.534-44.752-7.753C620.208,280.388,627.382,287.36,631.518,282.411
				L631.518,282.411z"/>
		</g>
	</g>
	<g id="GOUR_x5F_009_x5F_001_x5F_FRAG_x5F_006">
		<g>
			<path fill="#8252B1" d="M740.553,267.684c5.789-7.021,16.233-5.498,18.854,3.507c1.326,4.556,8.699,4.787,9.641-0.177
				c2.727-14.372,21.256-14.626,25.365-0.964c3.374,11.219,1.392,24.225,12.087,31.959c10.056,7.271,24.924,5.694,36.025,1.916
				c12.192-4.15,22.347-11.933,29.903-22.29c3.793-5.198-4.977-10.026-8.726-4.887c-7.871,10.787-20.458,18.279-33.737,19.897
				c-6.313,0.769-14.635,0.896-19.318-4.191c-3.911-4.248-4.151-10.947-4.929-16.353c-1.707-11.871-6.566-23.451-19.681-25.985
				c-12.429-2.401-24.339,6.084-26.68,18.419c3.214-0.059,6.427-0.118,9.641-0.177c-4.606-15.831-24.986-20.539-35.646-7.612
				C729.279,265.685,736.45,272.66,740.553,267.684L740.553,267.684z"/>
		</g>
	</g>
	<g id="GOUR_x5F_009_x5F_002_x5F_FRAG_x5F_001">
		<g>
			<path fill="#AD76FF" d="M76.659,589.983c14.521-19.076,23.175-41.254,25.421-65.122c0.812-8.625,2.423-27.965,15.924-24.796
				c12.906,3.029,14.361,19.195,15.256,29.927c0.532,6.383,9.857,6.296,9.998-0.184c0.138-6.329,8.442-6.726,12.556-4.329
				c5.989,3.489,8.85,10.633,11.219,16.765c4.545,11.768,10.218,25.117,24.052,27.814c6.3,1.228,8.804-8.458,2.481-9.69
				c-9.052-1.764-12.997-10.693-15.996-18.484c-3.025-7.858-6.047-16.102-12.485-21.883c-5.332-4.787-12.516-7.442-19.596-5.346
				c-7.037,2.083-12.067,7.959-12.228,15.336c3.333-0.061,6.666-0.123,9.998-0.184c-1.117-13.39-3.127-27.973-15.201-36.057
				c-10.828-7.249-24.107-3.723-30.582,7.372c-3.598,6.166-4.434,13.297-5.076,20.273c-0.692,7.519-1.7,14.882-3.644,22.193
				c-3.787,14.245-10.366,27.723-19.296,39.455C65.602,588.11,72.761,595.103,76.659,589.983L76.659,589.983z"/>
		</g>
	</g>
	<g id="GOUR_x5F_009_x5F_002_x5F_FRAG_x5F_002">
		<g>
			<path fill="#AD76FF" d="M225.636,567.025c6.795-13.626,13.848-27.322,21.97-40.215c2.802-4.447,7.333-10.242,13.071-6.626
				c6.026,3.798,6.369,12.179,6.833,18.523c0.428,5.851,7.896,6.358,9.844,1.148c2.012-5.38,7.906-17.409,14.648-9.771
				c4.753,5.384,6.949,14.003,9.699,20.468c7.021,16.504,14.042,33.009,21.064,49.513c2.487,5.846,12.115,3.095,9.592-2.835
				c-9.349-21.976-18.095-44.341-28.133-66.009c-3.404-7.347-9.296-14.466-18.246-13.479c-10.401,1.147-15.082,10.987-18.315,19.633
				c3.281,0.383,6.563,0.766,9.844,1.148c-0.63-8.622-1.691-17.85-8.209-24.21c-5.848-5.705-14.523-7.039-21.444-2.467
				c-7.168,4.735-11.205,13.685-15.305,20.898c-5.486,9.651-10.685,19.459-15.639,29.393
				C214.042,567.891,222.76,572.793,225.636,567.025L225.636,567.025z"/>
		</g>
	</g>
	<g id="GOUR_x5F_009_x5F_002_x5F_FRAG_x5F_003">
		<g>
			<path fill="#AD76FF" d="M355.41,619.006c37.913-9.548,68.302-42.441,74.587-81.069c1.027-6.312-8.656-8.833-9.69-2.481
				c-5.763,35.416-32.9,65.184-67.733,73.957C346.336,610.985,349.166,620.578,355.41,619.006L355.41,619.006z"/>
		</g>
	</g>
	<g id="GOUR_x5F_009_x5F_002_x5F_FRAG_x5F_004">
		<g>
			<path fill="#AD76FF" d="M472.181,545.996c7.484-6.556,20.353-4.739,25.922,3.395c2.484,3.627,7.799,2.81,9.115-1.362
				c3.988-12.645,17.892-19.178,30.159-13.832c5.858,2.552,10.786-6.156,4.887-8.726c-18.339-7.991-38.686,0.893-44.737,20.078
				c3.038-0.454,6.077-0.908,9.115-1.362c-9.405-13.735-29.208-16.041-41.663-5.13C460.134,543.302,467.366,550.213,472.181,545.996
				L472.181,545.996z"/>
		</g>
	</g>
	<g id="GOUR_x5F_009_x5F_002_x5F_FRAG_x5F_005">
		<g>
			<path fill="#AD76FF" d="M558.69,597.498c11.212,17.78,38.687,13.323,42.76-7.676c-2.43,1.041-4.859,2.082-7.289,3.123
				c11.948,6.774,26.615,3.743,37.107-4.419c11.838-9.209,17.535-23.635,22.856-37.158c2.354-5.982-7.364-8.393-9.69-2.481
				c-4.189,10.648-8.658,22.007-17.187,29.996c-7.399,6.93-18.927,10.591-28.198,5.335c-2.676-1.517-6.67-0.067-7.289,3.123
				c-2.369,12.213-17.686,15.804-24.53,4.952C563.802,586.856,555.245,592.035,558.69,597.498L558.69,597.498z"/>
		</g>
	</g>
	<g id="GOUR_x5F_009_x5F_002_x5F_FRAG_x5F_006">
		<g>
			<path fill="#AD76FF" d="M685.847,517.906c0.764-4.469,6.582-3.089,8.72-0.452c3.488,4.302,3.21,11.1,3.018,16.273
				c-0.449,12.139-2.749,24.454,2.115,36.053c3.592,8.566,10.845,15.648,20.526,16.023c8.765,0.339,17.582-4.825,19.532-13.715
				c-2.772,0.787-5.543,1.573-8.315,2.36c6.825,8.17,18.975,8.86,28.106,4.4c11.067-5.406,16.437-17.526,19.862-28.665
				c1.896-6.165-7.804-8.614-9.69-2.481c-2.417,7.86-5.811,16.766-13.107,21.373c-5.812,3.67-13.66,3.645-18.231-1.827
				c-2.429-2.908-7.564-1.062-8.315,2.36c-0.911,4.152-4.773,6.135-8.839,6.214c-4.787,0.094-8.464-2.974-10.839-6.92
				c-6.527-10.846-3.087-24.463-2.77-36.323c0.255-9.529-1.519-21.728-11.28-26.222c-7.689-3.54-18.649,0.092-20.183,9.069
				C675.078,521.735,684.762,524.252,685.847,517.906L685.847,517.906z"/>
		</g>
	</g>
	<g id="GOUR_x5F_009_x5F_002_x5F_FRAG_x5F_007">
		<g>
			<path fill="#AD76FF" d="M806.03,538.229c4.457-4.309,9.849-0.443,9.445,5.067c-0.397,5.411,6.871,6.03,9.362,2.352
				c3.817-5.634,12.43-15.877,18.233-6.592c4.465,7.145,4.208,17.134,6.137,25.12c4.223,17.483,15.329,34.179,34.613,35.914
				c6.401,0.576,6.168-9.427-0.184-9.998c-10.672-0.96-18.316-10.244-22.014-19.587c-3.867-9.768-3.857-20.348-7.14-30.207
				c-2.525-7.583-7.775-14.651-16.408-15.096c-9.932-0.512-16.945,8.153-21.962,15.558c3.121,0.784,6.241,1.568,9.362,2.352
				c1.083-14.767-16.454-21.675-26.643-11.823C794.194,535.772,801.406,542.701,806.03,538.229L806.03,538.229z"/>
		</g>
	</g>
	<g id="GOUR_x5F_009_x5F_003_x5F_FRAG_x5F_001">
		<g>
			<path fill="#CD99DA" d="M68.168,813.055c6.057,9.252,14.708,19.331,26.994,17.447c11.808-1.811,18.585-13.208,22.444-23.423
				c8.822-23.353,4.59-54.271,25.698-71.594c4.972-4.08-2.275-10.982-7.2-6.94c-17.268,14.172-19.52,37.322-23.374,57.791
				c-1.954,10.379-4.378,22.824-12.25,30.508c-9.515,9.288-18.394-0.78-23.771-8.995C73.191,802.478,64.629,807.649,68.168,813.055
				L68.168,813.055z"/>
		</g>
	</g>
	<g id="GOUR_x5F_009_x5F_003_x5F_FRAG_x5F_002">
		<g>
			<path fill="#CD99DA" d="M170.077,764.192c12.578,7.353,18.699,22.663,14.892,36.677c-0.933,3.434,2.659,7.479,6.263,6.036
				c7.69-3.079,15.791,0.546,20.736,6.83c5.674,7.21,7.332,17.038,8.661,25.862c0.936,6.213,9.75,6.433,9.998-0.184
				c1.367-36.439,14.54-72.015,37.356-100.481c3.997-4.988-3.169-11.969-7.2-6.94c-24.561,30.644-38.681,68.344-40.154,107.605
				c3.333-0.061,6.666-0.123,9.998-0.184c-1.819-12.075-4.163-24.82-12.768-34.104c-7.314-7.892-19.165-12.119-29.462-7.995
				c2.088,2.012,4.175,4.024,6.263,6.036c4.981-18.336-3.332-38.318-19.695-47.884C169.394,752.21,164.523,760.946,170.077,764.192
				L170.077,764.192z"/>
		</g>
	</g>
	<g id="GOUR_x5F_009_x5F_003_x5F_FRAG_x5F_003">
		<g>
			<path fill="#CD99DA" d="M297.026,777.834c2.82,12.998,5.662,26.041,10.077,38.61c3.957,11.266,8.971,23.6,17.448,32.276
				c8.222,8.416,19.433,9.853,29.468,3.644c5.97-3.694,22.216-22.871,29.268-11.853c2.497,3.901,7.638,2.55,9.115-1.362
				c3.107-8.23,8.89-15.007,16.297-19.675c5.438-3.427,0.259-11.984-5.205-8.54c-9.767,6.155-16.719,14.973-20.782,25.735
				c3.038-0.454,6.077-0.908,9.115-1.362c-5.722-8.94-17.273-9.363-25.933-4.631c-9.079,4.961-19.285,21.197-30.902,13.811
				c-9.884-6.284-14.972-21.233-18.59-31.71c-4.252-12.312-7.026-25.067-9.784-37.777
				C305.255,768.715,295.665,771.562,297.026,777.834L297.026,777.834z"/>
		</g>
	</g>
	<g id="GOUR_x5F_009_x5F_003_x5F_FRAG_x5F_004">
		<g>
			<path fill="#CD99DA" d="M448.849,808.523c7.049-14.215,25.969-13.514,32.576,0.653c1.857,3.982,8.212,2.562,9.115-1.362
				c2.056-8.925,12.374-13.784,20.017-7.607c6.643,5.369,7.74,15.582,12.416,22.446c9.168,13.459,25.652,19.744,41.478,16.844
				c6.315-1.157,3.45-10.744-2.835-9.592c-8.929,1.636-18.491-1.215-25.308-7.155c-7.524-6.556-8.903-16.201-14.144-24.223
				c-10.977-16.803-36.704-13.206-41.313,6.806c3.038-0.454,6.077-0.908,9.115-1.362c-9.763-20.937-39.688-20.812-49.842-0.336
				C437.267,809.394,445.985,814.297,448.849,808.523L448.849,808.523z"/>
		</g>
	</g>
	<g id="GOUR_x5F_009_x5F_003_x5F_FRAG_x5F_005">
		<g>
			<path fill="#CD99DA" d="M594.252,787.041c8.004,0.86,14.528,9.337,13.43,17.274c-0.731,5.286,6.264,9.007,9.208,3.684
				c2.68-4.845,8.876-7.628,14.138-5.132c5.363,2.545,6.922,8.964,5.084,14.196c-2.027,5.771,6.188,7.918,9.208,3.684
				c5.82-8.159,18.703,14.86,21.966,17.699c8.512,7.405,20.001,6.107,28.518-0.574c9.385-7.362,12.414-18.775,15.217-29.838
				c2.643-10.429,6.478-23.575,18.524-26.126c6.289-1.332,3.44-10.921-2.835-9.592c-11.474,2.43-18.635,12.585-22.425,23.03
				c-4.146,11.425-4.292,26.754-14.706,34.752c-4.555,3.498-10.549,5.091-15.353,1.149c-4.608-3.782-7.068-9.763-10.931-14.236
				c-7.072-8.19-19.735-10.915-26.7-1.15c3.069,1.228,6.139,2.456,9.208,3.684c3.477-9.897-1.367-21.707-11.064-25.943
				c-9.823-4.291-21.498,0.334-26.574,9.512c3.069,1.228,6.139,2.456,9.208,3.684c2.063-14.911-8.376-28.148-23.304-29.753
				C587.686,776.357,587.929,786.361,594.252,787.041L594.252,787.041z"/>
		</g>
	</g>
	<g id="GOUR_x5F_009_x5F_003_x5F_FRAG_x5F_006">
		<g>
			<path fill="#CD99DA" d="M764.04,862.687c4.914-6.932,14.852-8.36,21.916-4.147c3.36,2.004,7.4-0.78,7.443-4.455
				c0.164-14.131,0.321-32.854,13.89-41.391c5.202-3.273,12.667-3.888,17.73,0.014c2.4,1.849,3.835,4.639,6.383,6.339
				c2.922,1.949,6.119,2.381,9.566,2.06c7.25-0.677,12.6-0.799,18.51,4.245c6.113,5.217,9.057,12.821,10.955,20.426
				c3.645,14.604,3.973,29.885,12.213,42.983c3.423,5.441,11.979,0.261,8.54-5.205c-9.792-15.566-7.494-35.192-14.947-51.696
				c-3.326-7.366-8.555-13.929-15.701-17.911c-3.325-1.852-6.978-3.059-10.765-3.431c-3.58-0.351-8.875,1.842-12.128,0.613
				c-1.773-0.67-2.901-2.933-4.155-4.226c-1.233-1.27-2.639-2.423-4.144-3.36c-3.063-1.908-6.564-2.958-10.133-3.329
				c-7.466-0.775-14.72,1.641-20.474,6.399c-14.05,11.619-15.143,30.793-15.338,47.654c2.481-1.485,4.962-2.97,7.443-4.455
				c-12.114-7.226-27.532-3.296-35.53,7.985C751.588,863.054,760.353,867.887,764.04,862.687L764.04,862.687z"/>
		</g>
	</g>
	<g id="GOUR_x5F_009_x5F_004_x5F_FRAG_x5F_001">
		<g>
			<path fill="#A41C78" d="M1050.183,308.583c5.812,7.386,14.58,10.683,23.901,9.421c10.088-1.367,18.04-7.885,23.672-16.083
				c12.578-18.309,9.989-47.553,30.064-60.479c5.401-3.478,0.226-12.038-5.205-8.54c-17.145,11.039-20.352,31.222-26.381,49.133
				c-2.912,8.652-7.288,17.727-15.138,22.926c-6.487,4.296-17.065,5.162-22.372-1.582
				C1054.794,298.385,1046.2,303.521,1050.183,308.583L1050.183,308.583z"/>
		</g>
	</g>
	<g id="GOUR_x5F_009_x5F_004_x5F_FRAG_x5F_002">
		<g>
			<path fill="#A41C78" d="M1171.728,295.172c2.519-6.083,5.628-12.781,11.51-16.291c5.353-3.194,12.092-2.956,15.584,2.682
				c5.887,9.506,3.43,21.918,10.211,31.308c7.122,9.862,19.602,9.673,28.604,2.416c9.013-7.267,13.879-26.673,27.544-25.847
				c6.425,0.388,6.208-9.612-0.184-9.998c-15.884-0.959-21.747,14.433-30.171,24.611c-3.816,4.611-10.992,9.693-16.425,4.492
				c-4.088-3.913-5.014-10.529-5.927-15.828c-1.992-11.563-6.34-24.485-19.911-25.837c-14.824-1.477-24.497,11.178-29.561,23.405
				C1160.564,296.172,1169.269,301.109,1171.728,295.172L1171.728,295.172z"/>
		</g>
	</g>
	<g id="GOUR_x5F_009_x5F_004_x5F_FRAG_x5F_003">
		<g>
			<path fill="#A41C78" d="M1290.907,309.714c32.007,11.901,67.959,9.492,98.359-5.872c5.742-2.902,0.519-11.433-5.205-8.54
				c-28.11,14.207-61.232,15.669-90.673,4.722C1287.353,297.78,1284.933,307.492,1290.907,309.714L1290.907,309.714z"/>
		</g>
	</g>
	<g id="GOUR_x5F_009_x5F_004_x5F_FRAG_x5F_004">
		<g>
			<path fill="#A41C78" d="M1429.568,295.181c9.428-9.403,22.99,2.811,30.38,8.748c8.374,6.728,17.601,11.753,28.101,14.276
				c20.512,4.928,43.131,0.751,59.907-12.211c5.035-3.89-0.104-12.481-5.205-8.54c-17.413,13.454-41.802,16.737-62.062,7.812
				c-11.032-4.859-18.689-14.433-29.328-19.795c-9.401-4.738-21.168-5.034-28.994,2.77
				C1417.803,292.794,1425.008,299.728,1429.568,295.181L1429.568,295.181z"/>
		</g>
	</g>
	<g id="GOUR_x5F_009_x5F_004_x5F_FRAG_x5F_005">
		<g>
			<path fill="#A41C78" d="M1570.405,278.492c11.143-13.804,31.021-19.315,47.454-12.008c5.845,2.599,10.769-6.111,4.888-8.726
				c-20.328-9.039-45.414-3.707-59.541,13.794C1559.189,276.528,1566.357,283.508,1570.405,278.492L1570.405,278.492z"/>
		</g>
	</g>
	<g id="GOUR_x5F_009_x5F_004_x5F_FRAG_x5F_006">
		<g>
			<path fill="#A41C78" d="M1652.618,284.058c2.713-3.82,8.551-5.265,12.611-2.809c4.336,2.622,5.261,7.947,3.67,12.404
				c-1.632,4.57,5.459,8.656,8.445,4.71c4.102-5.42,11.648-15.47,19.713-11.35c5.781,2.953,7.609,12.171,11.684,16.956
				c9.094,10.679,24.451,13.197,36.88,7.352c5.813-2.734,0.576-11.259-5.205-8.54c-6.471,3.043-14.494,2.071-20.349-1.92
				c-6.062-4.132-7.704-11.356-11.929-16.967c-4.575-6.077-11.58-8.808-19.08-7.135c-8.276,1.846-14.009,8.185-18.913,14.665
				c2.815,1.57,5.63,3.14,8.445,4.71c3.232-9.052-0.876-20.002-9.654-24.226c-9.087-4.372-19.432-0.636-25.043,7.263
				C1640.161,284.422,1648.927,289.254,1652.618,284.058L1652.618,284.058z"/>
		</g>
	</g>
	<g id="GOUR_x5F_009_x5F_004_x5F_FRAG_x5F_007">
		<g>
			<path fill="#A41C78" d="M1763.59,273.562c13.237-9.603,27.509,2.822,33.808,14.364c7.262,13.306,9.968,28.588,18.711,41.175
				c3.654,5.26,12.226,0.1,8.54-5.205c-10.473-15.078-12.429-34.42-23.828-48.987c-9.764-12.478-28.265-20.168-42.437-9.887
				C1753.213,268.774,1758.364,277.353,1763.59,273.562L1763.59,273.562z"/>
		</g>
	</g>
	<g id="GOUR_x5F_009_x5F_005_x5F_FRAG_x5F_001">
		<g>
			<path fill="#EE88F6" d="M1046.161,593.03c20.332,5.587,35.54-12.385,40.291-30.127c2.815-10.511,3.018-21.472,5.005-32.133
				c1.34-7.189,6.172-25.422,17.34-19.949c5.769,2.827,10.675-5.891,4.888-8.726c-8.522-4.175-18.179-1.177-23.975,6.105
				c-6.653,8.358-8.141,19.725-9.398,29.993c-1.3,10.617-2.052,21.93-7.037,31.609c-4.649,9.026-14.034,16.451-24.633,13.538
				C1042.424,581.631,1039.96,591.326,1046.161,593.03L1046.161,593.03z"/>
		</g>
	</g>
	<g id="GOUR_x5F_009_x5F_005_x5F_FRAG_x5F_002">
		<g>
			<path fill="#EE88F6" d="M1126.29,553.491c1.577,9.121,4.582,19.268,14.127,22.899c9.202,3.501,18.085-2.533,22.594-10.396
				c5.361-9.346,4.827-20.598,6.103-30.946c1.057-8.574,4.188-19.143,13.464-21.844c6.172-1.797,3.362-11.397-2.835-9.592
				c-16.235,4.728-19.93,22.391-21.147,37.061c-0.69,8.321-0.903,19.536-8.268,25.075c-9.564,7.192-13.353-8.77-14.447-15.091
				C1134.789,544.334,1125.203,547.204,1126.29,553.491L1126.29,553.491z"/>
		</g>
	</g>
	<g id="GOUR_x5F_009_x5F_005_x5F_FRAG_x5F_003">
		<g>
			<path fill="#EE88F6" d="M1209.007,583.881c12.176,3.465,23.915-3.596,30.569-13.602c8.319-12.51,6.651-28.191,7.803-42.409
				c0.193-2.382,0.882-9.529,4.495-6.835c2.006,1.495,2.526,6.395,3.355,8.585c1.967,5.197,5.66,10.096,11.686,10.391
				c6.063,0.297,11.172-4.031,13.991-9.065c1.092-1.95,5.646-17.201,9.872-13.606c4.886,4.156,11.854-3.02,6.94-7.2
				c-4.826-4.106-11.084-3.846-16.163-0.188c-5.572,4.014-6.188,10.552-9.375,16.105c-1.64,2.858-4.586,5.716-6.812,1.933
				c-1.432-2.434-1.773-5.491-2.852-8.084c-2.232-5.367-6.535-10.222-12.871-9.661c-16.224,1.437-12.091,26.547-13.222,37.313
				c-1.283,12.207-9.26,31.091-24.935,26.631C1205.284,572.426,1202.824,582.122,1209.007,583.881L1209.007,583.881z"/>
		</g>
	</g>
	<g id="GOUR_x5F_009_x5F_005_x5F_FRAG_x5F_004">
		<g>
			<path fill="#EE88F6" d="M1316.905,568.661c14.142-1.175,25.971,7.109,37.993,13.282c11.596,5.955,24.29,10.306,37.309,6.767
				c6.206-1.687,3.387-11.284-2.835-9.592c-13.251,3.602-25.908-3.87-37.164-9.986c-10.987-5.971-22.656-11.536-35.487-10.469
				C1310.34,559.193,1310.477,569.195,1316.905,568.661L1316.905,568.661z"/>
		</g>
	</g>
	<g id="GOUR_x5F_009_x5F_005_x5F_FRAG_x5F_005">
		<g>
			<path fill="#EE88F6" d="M1440.115,582.82c7.972-9.731,20.716-13.375,32.622-9.323c2.95,1.004,6.519-1.852,6.239-4.937
				c-1.625-17.93,13.299-33.146,31.536-30.151c3.18,0.522,6.278-1.466,6.24-4.937c-0.146-13.29,1.51-26.427,5.134-39.224
				c1.513-5.343,3.091-11.146,5.945-15.961c1.778-2.999,7.579-8.473,10.48-3.469c3.229,5.568,11.775,0.373,8.54-5.205
				c-3.445-5.942-10.672-7.878-17.042-5.821c-6.712,2.168-10.627,8.648-13.135,14.806c-7.069,17.363-10.127,36.366-9.922,55.058
				c2.08-1.646,4.16-3.291,6.239-4.937c-24.197-3.975-46.27,15.137-44.015,40.025c2.08-1.646,4.16-3.291,6.239-4.937
				c-14.975-5.096-32.277-0.162-42.302,12.074C1428.858,580.832,1436.028,587.808,1440.115,582.82L1440.115,582.82z"/>
		</g>
	</g>
	<g id="GOUR_x5F_009_x5F_005_x5F_FRAG_x5F_006">
		<g>
			<path fill="#EE88F6" d="M1566.462,566.925c5.496-2.697,12.325-2.151,17.362,1.324c4.999,3.448,7.362,9.415,14.247,9.647
				c6.375,0.215,12.079-2.865,18.655-2.067c6.732,0.818,12.87,3.862,17.765,8.5c4.675,4.43,11.621-2.764,6.94-7.2
				c-5.388-5.105-11.988-8.812-19.255-10.449c-3.837-0.864-7.896-1.237-11.821-0.942c-3.585,0.27-7.017,1.755-10.525,2.042
				c-3.8,0.311-5.765-4.086-8.418-6.299c-2.847-2.376-6.19-4.097-9.74-5.152c-6.894-2.05-14.036-1.074-20.415,2.057
				C1555.484,561.218,1560.714,569.746,1566.462,566.925L1566.462,566.925z"/>
		</g>
	</g>
	<g id="GOUR_x5F_009_x5F_005_x5F_FRAG_x5F_007">
		<g>
			<path fill="#EE88F6" d="M1674.293,586.07c13.039-4.39,26.592-5.068,39.98-1.855c6.262,1.503,8.744-8.187,2.481-9.69
				c-15.049-3.611-30.62-2.988-45.296,1.953C1665.381,578.523,1668.17,588.131,1674.293,586.07L1674.293,586.07z"/>
		</g>
	</g>
	<g id="GOUR_x5F_009_x5F_005_x5F_FRAG_x5F_008">
		<g>
			<path fill="#EE88F6" d="M1751.781,581.138c4.933-8.835,16.353-3.864,15.327,5.53c-0.515,4.722,5.764,5.921,8.599,3.378
				c9.275-8.32,23.218-7.386,34.708-9.73c10.426-2.127,20.856-6.916,25.89-16.802c2.919-5.732-5.802-10.631-8.726-4.888
				c-5.023,9.865-17.172,11.901-27.14,13.202c-11.555,1.508-22.949,3.219-31.931,11.278c2.866,1.126,5.733,2.252,8.599,3.378
				c0.91-8.342-4.524-16.992-12.69-19.387c-8.358-2.452-17.205,1.711-21.362,9.154
				C1739.911,581.881,1748.641,586.76,1751.781,581.138L1751.781,581.138z"/>
		</g>
	</g>
</g>
</svg>
