<?xml version="1.0" encoding="UTF-8"?><svg xmlns="http://www.w3.org/2000/svg" viewBox="0 0 1920 1080"><g id="GRILLE"><g><line x1="934.397" y1="162.253" x2="36.281" y2="162.253" fill="none" stroke="#ff1a1a" stroke-linecap="square" stroke-linejoin="round" stroke-width=".5"/><line x1="934.397" y1="204.742" x2="36.281" y2="204.742" fill="none" stroke="#ff1a1a" stroke-linecap="square" stroke-linejoin="round" stroke-width=".5"/><line x1="934.397" y1="247.231" x2="36.281" y2="247.231" fill="none" stroke="#ff1a1a" stroke-linecap="square" stroke-linejoin="round" stroke-width=".5"/><line x1="934.397" y1="289.721" x2="36.281" y2="289.721" fill="none" stroke="#ff1a1a" stroke-linecap="square" stroke-linejoin="round" stroke-width=".5"/><line x1="934.397" y1="332.21" x2="36.281" y2="332.21" fill="none" stroke="#ff1a1a" stroke-linecap="square" stroke-linejoin="round" stroke-width=".5"/><line x1="934.397" y1="374.699" x2="36.281" y2="374.699" fill="none" stroke="#ff1a1a" stroke-linecap="square" stroke-linejoin="round" stroke-width=".5"/><line x1="934.397" y1="417.189" x2="36.281" y2="417.189" fill="none" stroke="#ff1a1a" stroke-linecap="square" stroke-linejoin="round" stroke-width=".5"/><line x1="934.397" y1="459.678" x2="36.281" y2="459.678" fill="none" stroke="#ff1a1a" stroke-linecap="square" stroke-linejoin="round" stroke-width=".5"/><line x1="934.397" y1="502.588" x2="36.281" y2="502.588" fill="none" stroke="#ff1a1a" stroke-linecap="square" stroke-linejoin="round" stroke-width=".5"/><line x1="934.397" y1="545.498" x2="36.281" y2="545.498" fill="none" stroke="#ff1a1a" stroke-linecap="square" stroke-linejoin="round" stroke-width=".5"/><line x1="934.397" y1="588.408" x2="36.281" y2="588.408" fill="none" stroke="#ff1a1a" stroke-linecap="square" stroke-linejoin="round" stroke-width=".5"/><line x1="934.397" y1="631.318" x2="36.281" y2="631.318" fill="none" stroke="#ff1a1a" stroke-linecap="square" stroke-linejoin="round" stroke-width=".5"/><line x1="934.397" y1="674.228" x2="36.281" y2="674.228" fill="none" stroke="#ff1a1a" stroke-linecap="square" stroke-linejoin="round" stroke-width=".5"/><line x1="934.397" y1="717.138" x2="36.281" y2="717.138" fill="none" stroke="#ff1a1a" stroke-linecap="square" stroke-linejoin="round" stroke-width=".5"/><line x1="934.397" y1="760.048" x2="36.281" y2="760.048" fill="none" stroke="#ff1a1a" stroke-linecap="square" stroke-linejoin="round" stroke-width=".5"/><line x1="934.397" y1="802.958" x2="36.281" y2="802.958" fill="none" stroke="#ff1a1a" stroke-linecap="square" stroke-linejoin="round" stroke-width=".5"/><line x1="934.397" y1="845.868" x2="36.281" y2="845.868" fill="none" stroke="#ff1a1a" stroke-linecap="square" stroke-linejoin="round" stroke-width=".5"/><line x1="934.397" y1="888.778" x2="36.281" y2="888.778" fill="none" stroke="#ff1a1a" stroke-linecap="square" stroke-linejoin="round" stroke-width=".5"/><line x1="934.397" y1="931.688" x2="36.281" y2="931.688" fill="none" stroke="#ff1a1a" stroke-linecap="square" stroke-linejoin="round" stroke-width=".5"/></g><g><line x1="1885.423" y1="162.253" x2="987.307" y2="162.253" fill="none" stroke="#ff1a1a" stroke-linecap="square" stroke-linejoin="round" stroke-width=".5"/><line x1="1885.423" y1="204.742" x2="987.307" y2="204.742" fill="none" stroke="#ff1a1a" stroke-linecap="square" stroke-linejoin="round" stroke-width=".5"/><line x1="1885.423" y1="247.231" x2="987.307" y2="247.231" fill="none" stroke="#ff1a1a" stroke-linecap="square" stroke-linejoin="round" stroke-width=".5"/><line x1="1885.423" y1="289.721" x2="987.307" y2="289.721" fill="none" stroke="#ff1a1a" stroke-linecap="square" stroke-linejoin="round" stroke-width=".5"/><line x1="1885.423" y1="332.21" x2="987.307" y2="332.21" fill="none" stroke="#ff1a1a" stroke-linecap="square" stroke-linejoin="round" stroke-width=".5"/><line x1="1885.423" y1="374.699" x2="987.307" y2="374.699" fill="none" stroke="#ff1a1a" stroke-linecap="square" stroke-linejoin="round" stroke-width=".5"/><line x1="1885.423" y1="417.189" x2="987.307" y2="417.189" fill="none" stroke="#ff1a1a" stroke-linecap="square" stroke-linejoin="round" stroke-width=".5"/><line x1="1885.423" y1="459.678" x2="987.307" y2="459.678" fill="none" stroke="#ff1a1a" stroke-linecap="square" stroke-linejoin="round" stroke-width=".5"/><line x1="1885.423" y1="502.588" x2="987.307" y2="502.588" fill="none" stroke="#ff1a1a" stroke-linecap="square" stroke-linejoin="round" stroke-width=".5"/><line x1="1885.423" y1="545.498" x2="987.307" y2="545.498" fill="none" stroke="#ff1a1a" stroke-linecap="square" stroke-linejoin="round" stroke-width=".5"/><line x1="1885.423" y1="588.408" x2="987.307" y2="588.408" fill="none" stroke="#ff1a1a" stroke-linecap="square" stroke-linejoin="round" stroke-width=".5"/><line x1="1885.423" y1="631.318" x2="987.307" y2="631.318" fill="none" stroke="#ff1a1a" stroke-linecap="square" stroke-linejoin="round" stroke-width=".5"/><line x1="1885.423" y1="674.228" x2="987.307" y2="674.228" fill="none" stroke="#ff1a1a" stroke-linecap="square" stroke-linejoin="round" stroke-width=".5"/><line x1="1885.423" y1="717.138" x2="987.307" y2="717.138" fill="none" stroke="#ff1a1a" stroke-linecap="square" stroke-linejoin="round" stroke-width=".5"/><line x1="1885.423" y1="760.048" x2="987.307" y2="760.048" fill="none" stroke="#ff1a1a" stroke-linecap="square" stroke-linejoin="round" stroke-width=".5"/><line x1="1885.423" y1="802.958" x2="987.307" y2="802.958" fill="none" stroke="#ff1a1a" stroke-linecap="square" stroke-linejoin="round" stroke-width=".5"/><line x1="1885.423" y1="845.868" x2="987.307" y2="845.868" fill="none" stroke="#ff1a1a" stroke-linecap="square" stroke-linejoin="round" stroke-width=".5"/><line x1="1885.423" y1="888.778" x2="987.307" y2="888.778" fill="none" stroke="#ff1a1a" stroke-linecap="square" stroke-linejoin="round" stroke-width=".5"/><line x1="1885.423" y1="931.688" x2="987.307" y2="931.688" fill="none" stroke="#ff1a1a" stroke-linecap="square" stroke-linejoin="round" stroke-width=".5"/></g></g><g id="FRAGMENTS"><g id="PHIL_001_006_FRAG_001"><path d="M134.96,310.336c6.916,11.552,23.04,12.691,33.282,4.99,13.575-10.206,14.844-27.595,17.142-43.049,1.171-7.875,2.875-16.322,8.023-22.666,1.868-2.301,5.633-6.252,8.987-5.321,2.847,.79,4.427,5.999,6.228,8.187,8.735,10.609,24.74,4.555,31.135-5.514,4.873-7.673,5.164-17.037,6.909-25.692,1.433-7.111,6.203-19.119,15.565-17.088,6.284,1.363,8.777-8.324,2.481-9.69-14.343-3.111-24.53,10.035-27.388,22.64-1.757,7.75-1.52,16.852-5.637,23.869-2.383,4.062-8.942,9.237-13.906,6.448-2.478-1.392-3.492-4.902-5.058-7.156-1.921-2.765-4.539-4.971-7.861-5.782-6.651-1.624-13.242,2.291-17.632,6.998-11.554,12.389-10.84,29.698-14.034,45.231-1.595,7.758-4.549,16.18-11.34,20.902-5.645,3.925-14.537,3.862-18.354-2.513-3.305-5.52-11.855-.331-8.54,5.205h0Z" fill="#2c2cff"/></g><g id="PHIL_001_006_FRAG_002"><path d="M292.954,275.79c7.569,4.12,12.376,12.64,11.231,21.337-1.214,9.226-7.692,17.298-1.722,26.363,4.946,7.511,14.835,6.87,19.776-.244,2.574-3.706,3.349-8.096,3.826-12.496,.448-4.13,.271-10.609,3.793-13.652,3.41-2.946,9.73-.961,13.94-1.877,3.785-.824,7.223-2.755,10.095-5.331,6.219-5.58,9.686-14.028,10.941-22.143,1.513-9.781,.305-21.118,4.83-30.186,1.575-3.155,5.436-7.66,8.25-3.598,2.727,3.936,3.519,8.29,7.143,11.794,14.471,13.989,39.255,5.691,42.143-14.307,.912-6.313-8.771-8.844-9.69-2.481-1.121,7.761-7.389,14.607-15.718,14.016-3.62-.257-7.204-1.899-9.795-4.429-3.185-3.108-3.867-7.437-6.289-11.013-4.5-6.644-12.682-6.68-18.686-2.146-7.054,5.328-9.208,14.404-10.216,22.74-1.043,8.625-.592,17.832-4.009,25.984-1.451,3.462-3.577,6.936-6.623,9.209-3.755,2.803-7.564,2.171-11.972,2.342-8.537,.332-14.168,5.47-16.526,13.534-1.263,4.321-1.012,8.889-1.86,13.278-.326,1.685-.798,4.835-2.423,5.875-2.228,1.425-3.317-1.005-3.596-3.114-.647-4.881,3.097-10.218,3.982-14.947,.801-4.282,.653-8.604-.325-12.843-2.004-8.684-7.823-16.152-15.613-20.392-5.661-3.081-10.546,5.646-4.887,8.726h0Z" fill="#2c2cff"/></g><g id="PHIL_001_006_FRAG_003"><path d="M448.952,266.654c.548,33.25,21.8,64.814,52.746,77.269,5.901,2.375,10.844-6.329,4.887-8.726-27.814-11.194-47.139-38.646-47.635-68.727-.106-6.434-10.105-6.26-9.998,.184h0Z" fill="#2c2cff"/></g><g id="PHIL_001_006_FRAG_004"><path d="M545.661,241.562c3.024-8.169,13.281-10.752,20.903-8.297,9.332,3.005,15.664,11.326,19.851,19.772,4.803,9.691,7.753,20.397,11.242,30.605,3.843,11.245,7.686,22.489,11.529,33.734,2.073,6.066,11.682,3.279,9.592-2.835-4.778-13.98-9.556-27.959-14.334-41.939-4.236-12.394-8.105-25.447-16.52-35.761-6.875-8.425-17.329-15.142-28.583-14.518-10.571,.586-19.688,6.806-23.371,16.759-2.235,6.038,7.477,8.459,9.69,2.481h0Z" fill="#2c2cff"/></g><g id="PHIL_001_006_FRAG_005"><path d="M650.832,337.585c5.158-8.187,16.734-6.336,24.507-4.02,11.014,3.282,20.987,6.491,32.643,6.38,17.503-.167,43.102-6.157,55.537,10.494,3.816,5.11,12.401-.035,8.54-5.205-15.436-20.669-41.928-15.512-64.261-15.287-7.09,.071-13.777-.881-20.534-3.006-6.16-1.937-12.191-4.293-18.643-5.078-10.213-1.242-20.82,1.796-26.515,10.834-3.441,5.461,5.305,10.316,8.726,4.887h0Z" fill="#2c2cff"/></g><g id="PHIL_001_007_FRAG_001"><path d="M136.262,594.543c12.33,6.017,26.061,1.884,36.595-5.958,11.277-8.394,19.283-21.285,32.23-27.39,12.143-5.726,26.211-5.048,38.927-8.822,13.384-3.972,21.796-12.881,28.915-24.493,6.18-10.082,18.908-31.067,33.486-21.123,5.326,3.633,10.167-5.125,4.887-8.726-10.8-7.367-24.239-2.241-33.145,5.679-10.272,9.136-13.86,23.621-24.298,32.572-10.254,8.794-25.281,8.78-37.888,11.235-13.953,2.717-24.438,9.399-34.414,19.341-9.832,9.8-24.737,26.605-40.407,18.958-5.773-2.817-10.679,5.9-4.887,8.726h0Z" fill="#8080dd"/></g><g id="PHIL_001_007_FRAG_002"><path d="M327.9,530.471c8.081,13.388,17.157,27.101,32.676,32.388,7.103,2.42,14.735,2.171,21.7-.577,7.429-2.931,14.197-8.419,22.277-9.446,8.368-1.064,16.732,2.26,24.432,5.089,7.272,2.671,14.464,5.226,22.21,6.049,13.345,1.419,26.944-1.836,38.612-8.351,13.411-7.489,23.662-19.294,29.129-33.619,2.294-6.011-7.421-8.427-9.69-2.481-8.517,22.318-33.277,36.874-56.881,34.59-14.14-1.368-26.503-9.747-40.653-11.204-7.039-.725-13.53,.675-19.902,3.623-6.268,2.9-12.33,7.387-19.399,7.981-17.428,1.464-28.272-16.49-35.972-29.247-3.325-5.508-11.876-.32-8.54,5.205h0Z" fill="#8080dd"/></g><g id="PHIL_001_007_FRAG_003"><path d="M549.883,558.518c9.503,11.042,21.425,19.696,34.882,25.279,5.886,2.442,10.824-6.263,4.887-8.726-12.779-5.302-23.804-13.266-32.829-23.753-4.202-4.882-11.11,2.354-6.94,7.2h0Z" fill="#8080dd"/></g><g id="PHIL_001_007_FRAG_004"><path d="M638.642,535.428c11.281-8.345,24.146,3.034,31.807,10.968,4.28,4.433,8.456,8.923,13.44,12.585,5.465,4.015,11.705,6.451,18.213,8.227,6.875,1.876,14.033,3.027,20.634,5.798,6.402,2.688,12.189,6.649,18.132,10.185,11.51,6.85,24.861,12.295,38.259,7.827,6.084-2.029,3.294-11.636-2.835-9.592-14.449,4.819-27.653-5.462-39.455-12.363-6.337-3.705-12.908-6.58-20.006-8.48-6.83-1.829-13.984-2.954-20.479-5.843-12.171-5.413-19.023-17.619-29.629-25.179-9.513-6.78-23.196-10.136-33.284-2.673-5.131,3.795,.017,12.378,5.205,8.54h0Z" fill="#8080dd"/></g><g id="PHIL_001_008_FRAG_001"><path d="M143.824,839.55c6.905-5.903,17.04,3.906,21.984,7.99,6.252,5.164,13.335,9.678,21.793,9.082,16.85-1.189,27.875-17.36,31.691-32.371,4.524-17.79,3.746-36.837,17.601-50.701,11.351-11.359,28.502-16.85,44.168-12.538,17.506,4.819,30.704,20.02,33.752,37.765,1.086,6.322,10.672,3.452,9.592-2.835-2.908-16.93-14.248-31.918-29.337-39.999-15.483-8.292-33.485-8.181-49.255-.739-16.804,7.93-27.594,23.105-31.477,41.025-3.613,16.675-3.597,44.176-24.256,49.895-11.109,3.075-18.701-8.054-26.916-13.403s-18.739-6.779-26.54-.11c-4.895,4.185,2.343,11.092,7.2,6.94h0Z" fill="#48bfed"/></g><g id="PHIL_001_008_FRAG_002"><path d="M335.407,841.691c28.459,27.101,72.559,27.73,102.135,2.108,4.869-4.218-2.366-11.128-7.2-6.94-25.466,22.061-63.718,20.75-87.995-2.369-4.665-4.442-11.609,2.753-6.94,7.2h0Z" fill="#48bfed"/></g><g id="PHIL_001_008_FRAG_003"><path d="M471.106,793.233c4.308-3.857,9.853-8.926,15.998-9.082,6.032-.152,9.549,5.438,10.909,10.629,1.601,6.113,.773,12.681,.898,18.924,.117,5.867,.838,11.945,2.974,17.446,3.849,9.916,12.133,18.41,23.191,19.333,9.823,.819,19.605-5.895,21.434-15.735,1.173-6.313-7.791-8.667-9.69-2.481-2.468,8.041,3.006,16.631,11.044,18.645,9.536,2.388,18.639-4.154,23.15-12.098,9.372-16.503,5.654-46.459,27.442-53.715,6.085-2.027,3.295-11.634-2.835-9.592-15.336,5.107-22.402,19.904-26.19,34.534-2.147,8.29-3.108,18.053-7.993,25.295-2.065,3.061-5.554,6.076-9.472,6.039-3.639-.034-6.568-3-5.455-6.627l-9.69-2.481c-.891,4.796-4.841,8.09-9.758,8.295-5.638,.235-10.719-3.802-13.6-8.336-6.702-10.546-3.488-23.258-4.91-34.909-1.154-9.45-5.945-19.385-15.709-22.372-11.063-3.384-21.206,4.426-28.937,11.348-4.803,4.3,2.425,11.215,7.2,6.94h0Z" fill="#48bfed"/></g><g id="PHIL_001_008_FRAG_004"><path d="M635.533,826.785c7.275,14.282,18.407,26.03,32.118,34.296,5.527,3.332,10.392-5.408,4.887-8.726-12.312-7.423-21.948-17.98-28.465-30.775-2.92-5.733-11.452-.511-8.54,5.205h0Z" fill="#48bfed"/></g><g id="PHIL_001_008_FRAG_005"><path d="M712.63,802.697c8.132-7.532,22.104-7.541,30.157,.172,4.723,4.523,6.874,11.054,9.239,16.972,2.465,6.17,5.24,12.043,9.365,17.296,17.117,21.801,46.822,27.877,71.485,15.678,5.765-2.851,.537-11.381-5.205-8.54-13.053,6.456-28.878,6.77-41.965,.211-12.919-6.474-20.042-17.353-25.232-30.389-4.649-11.678-10.808-21.966-23.559-25.697-11.043-3.231-23.077-.43-31.485,7.357-4.731,4.382,2.49,11.303,7.2,6.94h0Z" fill="#48bfed"/></g><g id="PHIL_001_009_FRAG_001"><path d="M1024.505,303.364c19.924-2.229,40.227,9.253,47.593,28.154,2.317,5.946,11.937,3.18,9.592-2.835-8.891-22.813-32.801-38.066-57.37-35.317-6.341,.71-6.219,10.715,.184,9.998h0Z" fill="#a9ccff"/></g><g id="PHIL_001_009_FRAG_002"><path d="M1127.907,323.744c3.965-11.635,19.234-16.503,29.501-10.332,3.136,1.885,7.737-.693,7.443-4.455-.695-8.902,3.754-17.927,12.11-21.721,8.302-3.769,18.073-1.226,24.269,5.155,3.103,3.196,8.458,.504,8.469-3.692,.028-10.498,8.178-19.438,18.952-19.208,10.671,.228,16.683,8.756,21.091,17.388,7.865,15.398,17.108,35.72,38.008,32.431,6.33-.996,3.451-10.582-2.835-9.592-10.981,1.728-18.481-11.23-22.459-19.42-4.448-9.16-8.586-18.936-17.035-25.174-19.233-14.2-45.66,.528-45.721,23.759l8.469-3.692c-8.994-9.264-23.367-12.397-35.247-7.06s-19.072,18.184-18.07,31.01l7.443-4.455c-16.134-9.697-38.109-.943-44.079,16.577-2.079,6.102,7.627,8.535,9.69,2.481h0Z" fill="#a9ccff"/></g><g id="PHIL_001_009_FRAG_003"><path d="M1324.357,312.886c13.48-8.588,25.197-19.508,34.655-32.394,4.793-6.53,8.787-13.477,12.319-20.756,2.976-6.133,7.175-15.739,15.338-15.694,5.784,.032,8.469,6.761,10.667,11.107,2.552,5.047,5.186,10.218,9.851,13.649,12.702,9.344,27.734-.862,34.469-12.314,4.558-7.75,6.922-17.046,13.1-23.781,3.878-4.227,14.751-9.02,17.948-1.077,2.379,5.911,12.001,3.151,9.592-2.835-5.923-14.718-24.45-13.634-34.217-3.569-6.063,6.247-9.067,14.403-12.852,22.059-3.315,6.704-9.128,16.085-18.005,15.094-6.56-.732-9.285-8.404-11.865-13.462-2.661-5.215-5.847-10.487-11.291-13.159-7.142-3.506-15.297-1.134-21.11,3.792-6.483,5.495-9.353,13.766-13.225,21.058-9.488,17.869-23.535,32.882-40.58,43.741-5.419,3.453-.242,12.011,5.205,8.54h0Z" fill="#a9ccff"/></g><g id="PHIL_001_009_FRAG_004"><path d="M1501.058,264.994c2.299,16.367,5.234,34.258,18.891,45.271,12.666,10.213,28.714,8.876,40.752-1.54,13.852-11.986,16.636-30.182,24.325-45.874,2.897-5.912,6.548-10.115,12.782-5.832,5.796,3.983,10.584,8.011,17.395,10.308,6.109,2.06,8.544-7.645,2.481-9.69-10.328-3.483-18.603-16.863-30.717-11.462-6.213,2.77-9.579,9.122-12.147,15.068-3.332,7.714-5.739,15.803-9.224,23.45-5.643,12.383-17.936,27.753-33.424,21.457-15.965-6.49-19.022-26.438-21.115-41.339-.884-6.292-10.893-6.185-9.998,.184h0Z" fill="#a9ccff"/></g><g id="PHIL_001_009_FRAG_005"><path d="M1650.153,228.794c2.079-4.339,7.37-4.913,11.545-3.224,5.72,2.314,8.107,9.14,9.279,14.675,3.174,14.988,1.064,30.853,2.728,46.043,1.488,13.587,5.314,26.402,14.202,37.02,7.732,9.238,19.346,16.191,31.736,15.338,8.094-.557,15.034-4.496,22.607-6.94,5.066-1.635,14.524-2.842,17.084,3.489,2.388,5.906,12.011,3.146,9.592-2.835-5.601-13.852-21.618-13.429-33.482-8.793-7.204,2.815-14.36,6.352-22.293,4.685-7.12-1.496-13.211-6.098-17.832-11.574-11.043-13.087-12.151-30.695-12.563-47.068-.37-14.719,1.379-33.403-8.079-45.891-7.833-10.343-26.741-13.402-33.251,.189-2.773,5.789,5.943,10.699,8.726,4.887h0Z" fill="#a9ccff"/></g><g id="PHIL_001_010_FRAG_001"><path d="M1026.324,589.41c21.195,3.302,34.91-15.425,42.061-32.774,4.062-9.856,7.413-21.213,15.054-29.013,5.466-5.58,15.066-10.041,22.855-6.998,9.282,3.626,9.182,16.243,11.746,24.301s9.192,15.976,18.011,17.212c4.025,.564,7.941-.572,11.002-3.263,1.765-1.552,3.036-4.341,5.581-4.202,2.439,.133,4.546,3.189,5.863,4.948,5.698,7.608,11.853,14.226,22.296,11.564,10.695-2.726,16.479-12.352,19.502-22.233,2.939-9.603,4.393-24.424,16.086-27.379,6.237-1.576,3.408-11.17-2.835-9.592-8.876,2.243-14.672,9.618-17.972,17.793-3.596,8.909-3.727,20.969-10.941,27.977-2.938,2.855-7.697,5.392-11.734,3.256-4.164-2.203-6.137-7.716-9.382-10.977-2.908-2.923-6.89-5.264-11.09-5.443-5.448-.232-7.858,3.122-11.529,6.36-3.305,2.915-7.252,.163-9.768-2.595-3.41-3.74-4.249-8.799-5.345-13.567-1.982-8.623-4.81-17.476-13.003-22.131-16.133-9.166-35.014,3.229-43.28,17.102-6.102,10.242-8.916,22.017-14.667,32.425-5.031,9.105-14.558,19.326-26.03,17.538-6.313-.984-8.838,8.7-2.481,9.69h0Z" fill="#1a1aa8"/></g><g id="PHIL_001_010_FRAG_002"><path d="M1245.702,570.752c6.466,12.13,23.449,11.65,33.476,4.458,13.635-9.78,15.781-29.884,30.64-38.075,15.84-8.731,20.418,10.634,25.273,21.24,2.587,5.652,6.149,11.06,11.729,14.138,6.931,3.823,15.272,3.129,22.326,.061,8.946-3.891,15.119-11.31,21.339-18.538,6.711-7.799,14.645-16.118,25.828-14.926,6.383,.68,6.141-9.324-.184-9.998-18.003-1.918-28.677,14.107-39.466,25.562-5.387,5.72-12.896,11.697-21.327,10.331-6.325-1.025-9.56-6.892-11.881-12.257-4.657-10.768-8.271-24.17-21.3-27.311-16.068-3.874-28.285,10.921-35.279,23.133-3.988,6.963-7.948,15.784-15.401,19.683-5.546,2.901-13.889,3.57-17.233-2.705-3.028-5.681-11.564-.468-8.54,5.205h0Z" fill="#1a1aa8"/></g><g id="PHIL_001_010_FRAG_003"><path d="M1442.29,573.296c13.186,8.533,29.235,10.907,44.389,6.945,6.223-1.627,3.399-11.222-2.835-9.592-12.688,3.318-25.692,1.024-36.666-6.078-5.418-3.506-10.268,5.244-4.887,8.726h0Z" fill="#1a1aa8"/></g><g id="PHIL_001_010_FRAG_004"><path d="M1515.193,534.676c12.776-4.65,34.874-11.112,39.321,7.678,1.66,7.015,1.244,14.29,3.803,21.134,2.227,5.956,5.679,11.344,10.142,15.875,19.658,19.961,52.612,15.442,67.611-7.682,3.511-5.414-5.239-10.264-8.726-4.887-6.843,10.55-19.794,16.868-32.366,15.351-12.742-1.537-23.995-11.334-27.751-23.517-1.99-6.456-1.605-13.336-3.313-19.858-1.617-6.174-5.209-11.36-10.62-14.789-12.736-8.071-27.91-3.638-40.935,1.103-6.012,2.188-3.235,11.802,2.835,9.592h0Z" fill="#1a1aa8"/></g><g id="PHIL_001_011_FRAG_001"><path d="M1018.691,814.965c26.987,7.628,46.857-20.871,73.274-18.747,15.661,1.259,29.687,9.766,44.729,13.578,13.401,3.396,27.696,3.445,39.528-4.509,5.323-3.578,.157-12.145-5.205-8.54-11.84,7.96-26.043,5.543-38.827,1.305-13.908-4.61-27.276-11.383-42.194-11.932-12.749-.469-24.107,5.084-35.152,10.773-10.369,5.341-21.684,11.771-33.672,8.383-6.206-1.754-8.667,7.942-2.481,9.69h0Z" fill="#7f9cc6"/></g><g id="PHIL_001_011_FRAG_002"><path d="M1200.962,803.521c15.868,17.045,43.682,17.069,59.153-.59,7.276-8.306,12.03-22.127,22.503-26.981,5.073-2.351,10.727-.827,14.914,2.623,2.18,1.796,3.956,4.072,5.226,6.591,1.48,2.936,2.117,6.165,4.66,8.444,2.429,2.177,5.32,2.526,8.398,3.059,3.284,.569,6.329,1.608,9.228,3.261,6.447,3.676,11.36,9.691,14.226,16.493,2.469,5.858,12.096,3.105,9.592-2.835-4.911-11.652-13.644-21.382-25.876-25.457-2.367-.789-5.814-.553-7.945-1.648-2.577-1.324-3.537-6.501-5.187-8.964-3.243-4.841-7.79-8.743-13.206-10.924-27.497-11.075-34.13,26.951-52.86,36.654-12.202,6.321-26.739,2.901-35.887-6.926-4.394-4.72-11.316,2.499-6.94,7.2h0Z" fill="#7f9cc6"/></g><g id="PHIL_001_011_FRAG_003"><path d="M1374.972,803.835c10.804-1.346,21.471,.531,31.021,5.845,9.61,5.348,16.496,14.067,25.228,20.579,17.452,13.015,39.417,10.998,58.988,4.351,6.07-2.062,3.283-11.67-2.835-9.592-9.734,3.306-19.979,5.743-30.33,4.826-11.27-.998-19.622-6.807-27.684-14.294-7.497-6.961-14.981-13.535-24.542-17.514s-19.782-5.477-30.029-4.2c-6.321,.788-6.205,10.794,.184,9.998h0Z" fill="#7f9cc6"/></g><g id="PHIL_001_011_FRAG_004"><path d="M1516.257,782.545c4.042-2.373,9.615-6.103,14.274-3.432,3.942,2.26,6.904,7.416,9.206,11.162,4.956,8.066,7.365,17.548,12.883,25.268,9.239,12.926,27.051,17.083,40.417,7.881,5.278-3.633,.116-12.204-5.205-8.54-6.495,4.471-14.588,4.842-21.317,.528-7.758-4.973-10.479-14.883-14.189-22.786-3.607-7.685-8.713-16.629-15.842-21.557-8.288-5.73-17.687-1.612-25.434,2.936-5.55,3.258-.357,11.806,5.205,8.54h0Z" fill="#7f9cc6"/></g><g id="PHIL_001_011_FRAG_005"><path d="M1624.202,835.664c9.305,1.286,18.346-.035,26.752-4.334,4.272-2.185,7.489-5.336,11.279-8.156,3.901-2.902,8.723-1.898,13.286-2.731,17.138-3.128,27.103-21.233,34.538-35.216l-4.271,2.555c22.875,.964,41.207-18.579,45.585-39.826,1.297-6.293-8.39-8.791-9.69-2.481-3.527,17.116-17.465,33.093-36.079,32.309-1.7-.072-3.487,1.081-4.271,2.555-6.329,11.904-14.873,29.344-30.175,30.606-4.012,.331-7.935,.146-11.625,2.065-3.12,1.622-5.466,4.318-8.265,6.39-7.042,5.214-15.855,7.78-24.583,6.574-6.313-.873-8.847,8.81-2.481,9.69h0Z" fill="#7f9cc6"/></g><g id="PHIL_001_011_FRAG_006"><path d="M1761.994,824.977c8.472-3.477,18.403-7.263,27.152-2.557,7.237,3.893,12.113,11.332,18.046,16.816,12.331,11.397,29.104,17.409,45.859,15.215,6.31-.826,6.198-10.834-.184-9.998-8.79,1.151-17.605,.072-25.69-3.682-8.342-3.873-14.398-9.976-20.633-16.544-5.479-5.772-11.623-11.455-19.618-13.292-9.479-2.178-19.053,.874-27.767,4.45-5.889,2.417-3.132,12.041,2.835,9.592h0Z" fill="#7f9cc6"/></g></g></svg>