<?xml version="1.0" encoding="UTF-8"?><svg xmlns="http://www.w3.org/2000/svg" viewBox="0 0 1920 1080"><g id="GRILLE"><g><line x1="934.397" y1="162.253" x2="36.281" y2="162.253" fill="none" stroke="#ff1a1a" stroke-linecap="square" stroke-linejoin="round" stroke-width=".5"/><line x1="934.397" y1="204.742" x2="36.281" y2="204.742" fill="none" stroke="#ff1a1a" stroke-linecap="square" stroke-linejoin="round" stroke-width=".5"/><line x1="934.397" y1="247.231" x2="36.281" y2="247.231" fill="none" stroke="#ff1a1a" stroke-linecap="square" stroke-linejoin="round" stroke-width=".5"/><line x1="934.397" y1="289.721" x2="36.281" y2="289.721" fill="none" stroke="#ff1a1a" stroke-linecap="square" stroke-linejoin="round" stroke-width=".5"/><line x1="934.397" y1="332.21" x2="36.281" y2="332.21" fill="none" stroke="#ff1a1a" stroke-linecap="square" stroke-linejoin="round" stroke-width=".5"/><line x1="934.397" y1="374.699" x2="36.281" y2="374.699" fill="none" stroke="#ff1a1a" stroke-linecap="square" stroke-linejoin="round" stroke-width=".5"/><line x1="934.397" y1="417.189" x2="36.281" y2="417.189" fill="none" stroke="#ff1a1a" stroke-linecap="square" stroke-linejoin="round" stroke-width=".5"/><line x1="934.397" y1="459.678" x2="36.281" y2="459.678" fill="none" stroke="#ff1a1a" stroke-linecap="square" stroke-linejoin="round" stroke-width=".5"/><line x1="934.397" y1="502.588" x2="36.281" y2="502.588" fill="none" stroke="#ff1a1a" stroke-linecap="square" stroke-linejoin="round" stroke-width=".5"/><line x1="934.397" y1="545.498" x2="36.281" y2="545.498" fill="none" stroke="#ff1a1a" stroke-linecap="square" stroke-linejoin="round" stroke-width=".5"/><line x1="934.397" y1="588.408" x2="36.281" y2="588.408" fill="none" stroke="#ff1a1a" stroke-linecap="square" stroke-linejoin="round" stroke-width=".5"/><line x1="934.397" y1="631.318" x2="36.281" y2="631.318" fill="none" stroke="#ff1a1a" stroke-linecap="square" stroke-linejoin="round" stroke-width=".5"/><line x1="934.397" y1="674.228" x2="36.281" y2="674.228" fill="none" stroke="#ff1a1a" stroke-linecap="square" stroke-linejoin="round" stroke-width=".5"/><line x1="934.397" y1="717.138" x2="36.281" y2="717.138" fill="none" stroke="#ff1a1a" stroke-linecap="square" stroke-linejoin="round" stroke-width=".5"/><line x1="934.397" y1="760.048" x2="36.281" y2="760.048" fill="none" stroke="#ff1a1a" stroke-linecap="square" stroke-linejoin="round" stroke-width=".5"/><line x1="934.397" y1="802.958" x2="36.281" y2="802.958" fill="none" stroke="#ff1a1a" stroke-linecap="square" stroke-linejoin="round" stroke-width=".5"/><line x1="934.397" y1="845.868" x2="36.281" y2="845.868" fill="none" stroke="#ff1a1a" stroke-linecap="square" stroke-linejoin="round" stroke-width=".5"/><line x1="934.397" y1="888.778" x2="36.281" y2="888.778" fill="none" stroke="#ff1a1a" stroke-linecap="square" stroke-linejoin="round" stroke-width=".5"/><line x1="934.397" y1="931.688" x2="36.281" y2="931.688" fill="none" stroke="#ff1a1a" stroke-linecap="square" stroke-linejoin="round" stroke-width=".5"/></g><g><line x1="1885.423" y1="162.253" x2="987.307" y2="162.253" fill="none" stroke="#ff1a1a" stroke-linecap="square" stroke-linejoin="round" stroke-width=".5"/><line x1="1885.423" y1="204.742" x2="987.307" y2="204.742" fill="none" stroke="#ff1a1a" stroke-linecap="square" stroke-linejoin="round" stroke-width=".5"/><line x1="1885.423" y1="247.231" x2="987.307" y2="247.231" fill="none" stroke="#ff1a1a" stroke-linecap="square" stroke-linejoin="round" stroke-width=".5"/><line x1="1885.423" y1="289.721" x2="987.307" y2="289.721" fill="none" stroke="#ff1a1a" stroke-linecap="square" stroke-linejoin="round" stroke-width=".5"/><line x1="1885.423" y1="332.21" x2="987.307" y2="332.21" fill="none" stroke="#ff1a1a" stroke-linecap="square" stroke-linejoin="round" stroke-width=".5"/><line x1="1885.423" y1="374.699" x2="987.307" y2="374.699" fill="none" stroke="#ff1a1a" stroke-linecap="square" stroke-linejoin="round" stroke-width=".5"/><line x1="1885.423" y1="417.189" x2="987.307" y2="417.189" fill="none" stroke="#ff1a1a" stroke-linecap="square" stroke-linejoin="round" stroke-width=".5"/><line x1="1885.423" y1="459.678" x2="987.307" y2="459.678" fill="none" stroke="#ff1a1a" stroke-linecap="square" stroke-linejoin="round" stroke-width=".5"/><line x1="1885.423" y1="502.588" x2="987.307" y2="502.588" fill="none" stroke="#ff1a1a" stroke-linecap="square" stroke-linejoin="round" stroke-width=".5"/><line x1="1885.423" y1="545.498" x2="987.307" y2="545.498" fill="none" stroke="#ff1a1a" stroke-linecap="square" stroke-linejoin="round" stroke-width=".5"/><line x1="1885.423" y1="588.408" x2="987.307" y2="588.408" fill="none" stroke="#ff1a1a" stroke-linecap="square" stroke-linejoin="round" stroke-width=".5"/><line x1="1885.423" y1="631.318" x2="987.307" y2="631.318" fill="none" stroke="#ff1a1a" stroke-linecap="square" stroke-linejoin="round" stroke-width=".5"/><line x1="1885.423" y1="674.228" x2="987.307" y2="674.228" fill="none" stroke="#ff1a1a" stroke-linecap="square" stroke-linejoin="round" stroke-width=".5"/><line x1="1885.423" y1="717.138" x2="987.307" y2="717.138" fill="none" stroke="#ff1a1a" stroke-linecap="square" stroke-linejoin="round" stroke-width=".5"/><line x1="1885.423" y1="760.048" x2="987.307" y2="760.048" fill="none" stroke="#ff1a1a" stroke-linecap="square" stroke-linejoin="round" stroke-width=".5"/><line x1="1885.423" y1="802.958" x2="987.307" y2="802.958" fill="none" stroke="#ff1a1a" stroke-linecap="square" stroke-linejoin="round" stroke-width=".5"/><line x1="1885.423" y1="845.868" x2="987.307" y2="845.868" fill="none" stroke="#ff1a1a" stroke-linecap="square" stroke-linejoin="round" stroke-width=".5"/><line x1="1885.423" y1="888.778" x2="987.307" y2="888.778" fill="none" stroke="#ff1a1a" stroke-linecap="square" stroke-linejoin="round" stroke-width=".5"/><line x1="1885.423" y1="931.688" x2="987.307" y2="931.688" fill="none" stroke="#ff1a1a" stroke-linecap="square" stroke-linejoin="round" stroke-width=".5"/></g></g><g id="FRAGMENTS"><path d="M82.772,290.268c13.102-1.878,23.58-9.992,30.281-21.264,7.815-13.146,9.2-28.896,10.212-43.819,.44-6.489,.531-15.751,7.164-19.256,7.505-3.967,12.677,7.501,14.495,12.851,4.9,14.417,3.485,30.08,7.811,44.643s15.014,27.194,30.87,28.521c6.407,.536,6.177-9.466-.184-9.998-15.373-1.287-21.362-18.709-23.299-31.545-2.238-14.827-1.928-30.786-9.947-44.043-7.075-11.697-21.749-15.584-30.879-3.691-4.292,5.591-5.278,12.576-5.804,19.407-.59,7.652-.97,15.306-2.415,22.861-2.886,15.089-11.427,32.889-28.491,35.335-6.287,.901-6.181,10.911,.184,9.998h0Z" fill="#2c2cff"/><g id="PHIL_003_006_FRAG_002"><path d="M210.623,320.894c7.11,3.439,14.81,2.325,21.279-2.08,7.016-4.777,10.782-11.856,13.749-19.594,3.198-8.344,5.369-18.28,13.46-23.35s13.848-.163,16.256,7.945c2.177,7.331,3.037,14.99,8.011,21.145,4.883,6.041,12.584,8.166,19.837,5.204,16.425-6.709,23.394-28.435,29.327-43.478,6.816-17.282,15.952-37.963,36.007-42.433,6.277-1.399,3.433-10.989-2.835-9.592-37.189,8.288-37.989,53.099-57.222,78.409-4.773,6.281-13.529,12.843-18.771,3.526-3.584-6.37-3.682-14.119-6.675-20.764-7.01-15.567-24.982-14.845-35.51-3.164-6.618,7.342-8.572,17.16-12.358,25.999-2.957,6.906-10.731,17.822-19.667,13.5-5.78-2.796-10.689,5.92-4.887,8.726h0Z" fill="#2c2cff"/></g><g id="PHIL_003_006_FRAG_003"><path d="M402.457,235.424c12.329-1.235,23.973,8.425,24.304,20.994,.093,3.526,4.448,6.501,7.602,4.178,10.636-7.835,25.999,.01,23.456,13.78-.804,4.353,5.185,9.09,8.445,4.71,4.935-6.631,13.691-5.092,19.815-.977,7.242,4.866,12.217,12.418,18.778,18.076,12.644,10.903,28.28,12.004,41.294,1.054,13.648-11.484,16.546-28.959,20.304-45.416,3.367-14.743,10.874-35.378,29.246-35.202,6.439,.062,6.251-9.937-.184-9.998-12.867-.123-23.245,8.193-29.856,18.663-7.836,12.409-9.051,27.378-12.83,41.235-3.253,11.93-10.601,26.588-24.326,28.634-14.601,2.177-23.662-14.716-33.327-22.631-10.009-8.196-27.037-12.571-36.114-.378l8.445,4.71c1.778-9.629-1.648-19.719-9.846-25.437-8.489-5.922-20.253-5.443-28.506,.636l7.602,4.178c-.465-17.659-16.726-32.588-34.486-30.809-6.359,.637-6.23,10.641,.184,9.998h0Z" fill="#2c2cff"/></g><g id="PHIL_003_006_FRAG_004"><path d="M626.922,269.677c4.827-3.432,10.532,.597,13.484,4.767,3.953,5.585,4.479,13.297,6.369,19.705,3.283,11.132,10.542,19.552,21.845,22.917,10.533,3.135,22.108,.764,30.196-6.736,9.458-8.77,12.497-21.899,16.202-33.725,2.256-7.201,5.035-15.092,10.931-20.162,5.097-4.383,12.369-6.563,18.413-2.922,2.586,1.557,6.771,.039,7.289-3.123,3.257-19.875,9.963-51.865,36.524-50.018,6.419,.446,6.197-9.555-.184-9.998-13.035-.906-24.9,6.549-32.425,16.784-8.68,11.805-11.289,26.623-13.605,40.752l7.289-3.123c-10.928-6.582-25.048-2.003-32.981,7.224-9.496,11.046-10.872,25.722-16.348,38.689-4.907,11.62-14.32,20.343-27.621,16.998-5.364-1.349-10.284-4.519-13.099-9.366-3.739-6.438-4.26-14.263-6.6-21.226-3.984-11.858-18.14-25.04-30.884-15.977-5.213,3.707-.058,12.283,5.205,8.54h0Z" fill="#2c2cff"/></g><g id="PHIL_003_006_FRAG_005"><path d="M818.919,209.79c10.604-7.555,12.719,31.505,12.861,36.334,.443,15.138,.369,30.838,6.572,44.967,4.952,11.281,13.903,21.538,26.183,24.797,11.129,2.953,24.157-.17,31.265-9.594,3.832-5.08-3.326-12.075-7.2-6.94-7.593,10.067-21.991,9.475-31.084,1.734-11-9.364-14.192-24.275-15.12-38.026-1.018-15.082,.036-30.443-3.796-45.217-1.555-5.996-3.884-12.515-9.176-16.213-4.68-3.27-10.961-3.765-15.709-.382-5.209,3.711-.055,12.288,5.205,8.54h0Z" fill="#2c2cff"/></g><g id="PHIL_003_007_FRAG_001"><path d="M75.254,572.728c6.527,6.133,15.729,7.662,24.22,5.137,9.079-2.7,15.859-9.905,20.453-17.924,8.657-15.108,11.276-46.252,33.152-48.421,6.36-.631,6.231-10.634-.184-9.998-19.708,1.954-28.532,20.038-34.516,36.628-3.116,8.64-6.236,17.862-12.837,24.548-5.971,6.048-16.458,9.305-23.348,2.83-4.693-4.409-11.64,2.784-6.94,7.2h0Z" fill="#8080dd"/></g><g id="PHIL_003_007_FRAG_002"><path d="M188.254,578.001c2.072-24.406,23.025-45.632,47.351-48.158,6.354-.66,6.227-10.664-.184-9.998-30.161,3.132-54.604,28.161-57.166,58.34-.544,6.406,9.458,6.175,9.998-.184h0Z" fill="#8080dd"/></g><g id="PHIL_003_007_FRAG_003"><path d="M250.746,569.094c2.915,10.19,12.281,16.334,22.493,17.486,11.839,1.336,22.502-4.734,30.64-12.887,9.222-9.238,14.992-21.149,23.517-30.941,7.862-9.03,20.885-17.479,32.915-11.038,5.68,3.041,10.568-5.685,4.887-8.726-10.043-5.376-21.588-3.938-31.356,1.389-10.541,5.748-17.59,15.971-24.199,25.649-6.497,9.514-13.625,20.49-24.733,25.074-8.761,3.615-21.639,1.414-24.573-8.842-1.769-6.181-11.367-3.369-9.592,2.835h0Z" fill="#8080dd"/></g><g id="PHIL_003_007_FRAG_004"><path d="M390.61,585.478c8.451,8.599,20.962,7.988,31.176,3.025,12.285-5.969,18.625-18.068,25.124-29.413,6.131-10.702,14.25-22.514,28.027-22.56,12.865-.043,13.212,13.651,15.307,23.159,2.387,10.831,9.985,20.072,22.135,17.947,13.751-2.406,19.835-15.133,24.157-26.931,2.366-6.458,4.799-13.297,10.308-17.79,5.128-4.182,11.165-3.831,15.704,.932,8.445,8.863,8.453,22.762,14.793,32.932,7.662,12.292,22.094,15.15,34.498,8.11,14.018-7.957,18.256-24.383,21.37-39.029,1.337-6.288-8.35-8.783-9.69-2.481-2.657,12.5-5.765,28.409-18.931,34.017-13.342,5.683-19.95-6.135-23.46-17-3.257-10.081-6.588-21.363-16.079-27.411-10.747-6.848-22.951-1.375-29.96,7.989-7.395,9.879-7.674,25.138-17.264,33.263-3.927,3.327-10.291,5.716-14.393,1.354-3.117-3.314-3.645-8.758-4.422-13.042-1.863-10.282-4.92-20.791-15.796-24.662-9.77-3.477-21.176,.025-29.173,6.054-11.497,8.668-16.364,22.969-24.339,34.447-6.36,9.154-22.021,20.2-32.153,9.889-4.52-4.6-11.451,2.609-6.94,7.2h0Z" fill="#8080dd"/></g><g id="PHIL_003_007_FRAG_005"><path d="M668.078,544.407c4.429,18.151,21.445,31.371,40.287,30.039,9.146-.646,17.533-4.292,24.319-10.431,6.344-5.739,10.809-13.16,16.136-19.775,5.44-6.755,12.063-12.778,21.289-12.581,9.511,.203,18.307,6.065,24.877,12.51,14.507,14.23,23.204,33.746,42.766,42.271,18.859,8.218,41.637,6.222,58.319-6.005,5.151-3.775,.001-12.356-5.205-8.54-14.167,10.383-33.507,12.619-49.57,5.217-17.491-8.06-25.799-26.495-38.821-39.591-11.824-11.891-29.922-20.682-46.281-12.723-14.44,7.025-19.774,23.356-31.703,33.151-16.94,13.91-41.787,4.255-46.821-16.377-1.525-6.249-11.118-3.416-9.592,2.835h0Z" fill="#8080dd"/></g><g id="PHIL_003_008_FRAG_001"><path d="M89.091,833.051c4.565,5.654,12.263,7.263,19.138,5.716,7.674-1.727,13.495-7.586,17.037-14.392,4.016-7.717,5.291-16.335,7.772-24.577,2.606-8.659,8.228-18.387,18.643-17.243,6.379,.701,6.135-9.304-.184-9.998-17.765-1.952-26.104,16.289-29.687,30.462-1.865,7.376-3.392,15.563-8.58,21.464-4.429,5.038-12.519,7.164-17.199,1.367-4.038-5.001-10.936,2.25-6.94,7.2h0Z" fill="#48bfed"/></g><g id="PHIL_003_008_FRAG_002"><path d="M183.021,795.99c15.046-4.741,21.163,15.966,23.722,26.394,3.078,12.54,7.378,25.942,19.875,32.103,11.544,5.691,22.892,.426,29.237-10.039,4.866-8.026,8.875-31.953,22.851-26.545,5.998,2.321,8.412-7.395,2.481-9.69-13.518-5.231-23.888,7.463-28.393,18.502-2.418,5.924-4.311,12.999-9.289,17.395-5.399,4.768-12.095,2.731-16.92-1.783-10.978-10.272-9.505-27.81-16.17-40.537-5.649-10.787-17.811-19.305-30.229-15.393-6.124,1.93-3.326,11.533,2.835,9.592h0Z" fill="#48bfed"/></g><g id="PHIL_003_008_FRAG_003"><path d="M311.616,844.247c7.627,4.827,16.644,3.882,24.583,.295,8.994-4.064,15.342-11.515,23.333-17.046,8.474-5.866,17.186-6.327,26.369-1.736,8.578,4.288,15.9,10.606,23.978,15.698,30.321,19.111,72.487,17.919,101.632-2.984,16.142-11.577,28.661-30.193,48.8-35.112,6.249-1.526,3.416-11.119-2.835-9.592-17.063,4.168-29.171,17.145-41.791,28.455-13.324,11.94-28.965,20.068-46.907,22.163-17.441,2.037-35.468-1.032-50.807-9.734-14.975-8.496-28.957-24.174-47.752-22.051-10.483,1.184-18.434,8.017-26.152,14.6-7.186,6.13-18.014,14.359-27.562,8.316-5.454-3.452-10.308,5.295-4.887,8.726h0Z" fill="#48bfed"/></g><g id="PHIL_003_008_FRAG_004"><path d="M603.228,804.114c1.604-11.649,15.532-15.213,25.162-11.208,12.568,5.227,19.845,18.046,26.952,28.88,7.25,11.053,15.482,21.675,27.823,27.29,12.109,5.51,25.755,6.449,38.457,2.462,6.127-1.923,3.328-11.527-2.835-9.592-14.167,4.447-30.179,1.568-41.362-8.442-10.933-9.787-16.868-23.78-26.191-34.932-8.028-9.602-19.661-18.317-32.846-17.32-11.469,.867-23.183,8.269-24.851,20.382-.869,6.313,8.814,8.847,9.69,2.481h0Z" fill="#48bfed"/></g><g id="PHIL_003_008_FRAG_005"><path d="M758.053,827.805c42.308-11.266,88.238-2.948,124.147,22.005,5.293,3.678,10.129-5.084,4.887-8.726-38.047-26.438-87.152-34.778-131.87-22.871-6.216,1.655-3.393,11.251,2.835,9.592h0Z" fill="#48bfed"/></g><g id="PHIL_003_009_FRAG_001"><path d="M1023.835,306.114c15.174-1.448,27.455-11.281,35.125-24.096,4.529-7.568,7.49-16.03,9.935-24.467,2.39-8.246,3.549-17.764,8.087-25.172,4.054-6.616,12.058-10.018,17.798-3.428,5.386,6.182,5.842,14.933,5.834,22.71-.016,15.844-1.83,33.574,9.834,46.229,9.617,10.435,29.256,11.208,36.346-2.563,2.946-5.721-5.776-10.617-8.726-4.887-2.603,5.055-8.677,6.301-13.856,4.753-6.742-2.016-10.429-8.781-12.204-15.147-4.442-15.93,1.899-33.198-4.457-48.808-5.006-12.296-17.656-20.688-30.353-13.038-13.867,8.355-15.035,27.949-19.516,41.878-5.122,15.922-15.458,34.265-34.032,36.038-6.365,.608-6.234,10.611,.184,9.998h0Z" fill="#a9ccff"/></g><g id="PHIL_003_009_FRAG_002"><path d="M1167.961,286.575c11.909,9.258,15.934,24.805,26.181,35.56,11.331,11.894,28.73,14.403,43.387,7.571,5.821-2.713,.582-11.238-5.205-8.54-13.593,6.336-27.602-.039-35.577-11.695-7.029-10.273-11.756-22.254-21.846-30.097-5.036-3.915-12.024,3.248-6.94,7.2h0Z" fill="#a9ccff"/></g><g id="PHIL_003_009_FRAG_003"><path d="M1259.91,296.96c3.565-7.062,12.688-4.513,17.606-.539,6.345,5.125,10.321,12.601,15.856,18.502,9.481,10.107,27.714,15.35,36.326,1.126,3.343-5.521-5.398-10.385-8.726-4.887-4.45,7.35-14.406,2.639-19.018-1.76-5.906-5.634-9.861-12.968-15.767-18.611-9.519-9.096-27.838-12.912-35.004,1.283-2.898,5.741,5.822,10.641,8.726,4.887h0Z" fill="#a9ccff"/></g><g id="PHIL_003_009_FRAG_004"><path d="M1343.793,293.456c15.578-.353,25.368-13.61,30.534-26.911,3.184-8.198,5.15-17.143,9.939-24.622,4.079-6.372,11.252-12.37,19.276-10.871,6.304,1.177,8.812-8.507,2.481-9.69-16.97-3.17-29.196,10.582-34.978,24.911-5.248,13.006-9.356,36.775-27.436,37.185-6.432,.146-6.261,10.145,.184,9.998h0Z" fill="#a9ccff"/></g><g id="PHIL_003_009_FRAG_005"><path d="M1436.331,275.933c1.37-2.682,4.735-2.793,7.212-1.423,3.472,1.921,4.92,6.482,5.853,10.051,1.951,7.462,2.162,15.402,6.596,22.017,8.191,12.221,24.376,14.674,37.872,12.241,9.219-1.662,17.844-5.433,26.775-8.123,8.004-2.411,16.063-3.505,24.418-2.866,16.15,1.235,31.317,8.822,42.292,20.638,4.389,4.725,11.31-2.495,6.94-7.2-18.867-20.315-48.171-28.196-74.752-20.675-13.893,3.931-28.157,11.855-42.974,8.251-6.085-1.48-11.392-4.925-13.824-10.869-2.68-6.55-2.514-13.894-5.111-20.49-2.54-6.452-7.197-12.186-14.316-13.499-6.222-1.147-12.753,1.28-15.706,7.059-2.927,5.729,5.794,10.627,8.726,4.887h0Z" fill="#a9ccff"/></g><g id="PHIL_003_009_FRAG_006"><path d="M1613.954,344.44c25.514,3.238,51.192,1.083,75.717-6.752,6.115-1.954,3.318-11.558-2.835-9.592-22.712,7.256-46.72,9.66-70.401,6.654-6.311-.801-8.851,8.882-2.481,9.69h0Z" fill="#a9ccff"/></g><g id="PHIL_003_009_FRAG_007"><path d="M1720.895,318.502c6.391-8.211,16.485-12.55,26.887-11.578,12.118,1.132,18.703,10.455,27.572,17.475,22.435,17.756,48.606,3.277,68.37-10.931,5.191-3.732,.038-12.31-5.205-8.54-10.88,7.821-22.662,16.611-36.493,17.683-6.508,.504-12.849-.692-18.309-4.388-5.131-3.473-9.152-8.361-13.937-12.263-16.65-13.577-42.598-11.725-56.085,5.603-3.918,5.034,3.245,12.021,7.2,6.94h0Z" fill="#a9ccff"/></g><g id="PHIL_003_010_FRAG_001"><path d="M1030.902,581.302c10.859-3.839,22.635-.039,33.671-3.15,10.937-3.083,16.432-12.244,20.126-22.291,3.833-10.425,7.167-19.877,15.371-27.799,8.077-7.799,18.696-12.838,29.882-13.929,6.363-.62,6.233-10.624-.184-9.998-22.107,2.155-41.998,16.293-50.384,37.034-3.868,9.566-5.709,23.487-16.949,27.195-11.045,3.643-23.166-.615-34.368,3.345-6.038,2.134-3.256,11.746,2.835,9.592h0Z" fill="#1a1aa8"/></g><g id="PHIL_003_010_FRAG_002"><path d="M1159.797,546.526c16.596-6.087,22.112,22.565,27.875,31.888,7.683,12.428,22.503,19.036,36.902,16.697,14.827-2.408,24.693-14.222,32.936-25.769,8.54-11.964,18.616-28.149,35.299-27.728,6.438,.162,6.241-9.836-.184-9.998-16.181-.408-28.447,11.508-37.378,23.707-8.371,11.433-16.84,27.325-32.187,29.96-7.242,1.243-15.104-.788-20.894-5.304-6.617-5.162-9.163-13.265-12.286-20.713-5.338-12.732-16.973-28.18-32.918-22.332-6.005,2.203-3.23,11.817,2.835,9.592h0Z" fill="#1a1aa8"/></g><g id="PHIL_003_010_FRAG_003"><path d="M1323.236,575.775c49.882,20.495,106.604,21.567,157.029,2.185,5.96-2.291,3.192-11.909-2.835-9.592-47.762,18.359-101.89,18.163-149.306-1.319-5.891-2.421-10.831,6.284-4.887,8.726h0Z" fill="#1a1aa8"/></g><g id="PHIL_003_010_FRAG_004"><path d="M1516.959,573.512c16.646,5.847,33.11-3.799,44.299-15.649,11.607-12.293,20.828-29.193,38.009-34.342,6.156-1.845,3.349-11.446-2.835-9.592-15.708,4.708-25.788,17.405-35.848,29.516-9.961,11.993-23.986,26.404-41.144,20.377-6.08-2.136-8.509,7.573-2.481,9.69h0Z" fill="#1a1aa8"/></g><g id="PHIL_003_010_FRAG_005"><path d="M1629.939,577.957c16.683,2.973,29.747-7.136,42.337-16.54,5.969-4.458,12.294-8.932,19.707-10.53,5.729-1.235,11.592-.496,17.169,1.099,23.454,6.708,43.544,27.111,69.565,21.14,6.269-1.438,3.428-11.029-2.835-9.592-11.92,2.735-23.552-2.433-34.02-7.652-10.578-5.275-21.07-11.475-32.677-14.23-12.682-3.009-24.658-.423-35.56,6.596-12.236,7.878-25.117,22.885-41.205,20.019-6.308-1.124-8.821,8.56-2.481,9.69h0Z" fill="#1a1aa8"/></g><g id="PHIL_003_010_FRAG_006"><path d="M1798.584,610.366c18.067,5.394,36.875,6.046,55.321,2.255,6.296-1.294,3.443-10.883-2.835-9.592-16.682,3.429-33.707,2.513-50.005-2.353-6.181-1.845-8.634,7.853-2.481,9.69h0Z" fill="#1a1aa8"/></g><g id="PHIL_003_011_FRAG_001"><path d="M1035.805,850.773c7.12-14.803,14.241-29.606,21.361-44.409,2.344-4.872,14.15-35.015,22.855-22.189,3.833,5.647,2.272,13.209,2.326,19.578,.056,6.646,1.455,13.029,6.188,17.935,3.699,3.833,9.347,6.217,14.663,4.755,2.435-.67,4.53-2.107,6.391-3.769,1.649-1.472,3.57-4.6,5.893-4.79,3.346-.273,7.336,5.534,9.38,7.685,3.193,3.36,6.385,6.72,9.578,10.08,6.613,6.96,13.227,13.92,19.84,20.88,4.443,4.675,11.368-2.54,6.94-7.2-6.385-6.72-12.771-13.44-19.156-20.16-5.767-6.069-11.33-13.531-18.18-18.399-5.589-3.972-11.914-3.795-17.099,.69-1.772,1.533-3.584,4.48-5.872,5.162-3.018,.9-5.796-1.946-7.079-4.459-3.554-6.961-.527-16.237-1.798-23.758-1.011-5.986-3.957-12.052-9.362-15.215-13.031-7.625-23.69,6.459-28.68,16.74-9.037,18.62-17.943,37.304-26.915,55.956-2.783,5.785,5.933,10.694,8.726,4.887h0Z" fill="#7f9cc6"/></g><g id="PHIL_003_011_FRAG_002"><path d="M1200.313,869.923c13.121,1.986,24.858-4.906,32.45-15.348,3.988-5.486,6.657-11.722,9.058-18.029,2.302-6.045,3.701-14.445,7.966-19.461,4.643-5.461,7.328,8.44,8.178,11.184,2.292,7.402,4.181,15.112,7.035,22.318,1.862,4.703,4.848,9.539,10.033,10.999,5.811,1.637,11.494-1.592,14.767-6.293,3.953-5.677,4.446-12.781,9.922-17.518,5.249-4.541,12.415-6.132,19.075-4.403,6.239,1.619,8.711-8.073,2.481-9.69-11.112-2.884-23.576,.759-31.106,9.558-4.146,4.845-4.873,10.944-8.334,16.031-5.242,7.705-8.214-4.245-9.433-8.183-2.34-7.559-4.493-15.208-7.037-22.7-1.709-5.033-4.309-10.423-9.689-12.283-13.571-4.693-18.555,14.169-21.804,23.209-4.713,13.11-13.624,33.562-31.08,30.92-6.313-.955-8.84,8.728-2.481,9.69h0Z" fill="#7f9cc6"/></g><g id="PHIL_003_011_FRAG_003"><path d="M1356.48,873.278c13.368-2.998,18.226-16.728,24.568-27.201,3.488-5.76,7.87-10.783,14.983-11.462,7.865-.751,15.721,2.429,23.388,3.67,7.566,1.225,15.243,1.154,22.052-2.794,6.546-3.796,10.826-10.2,16.151-15.371,7.159-6.953,14.485-5.568,23.553-3.758,7.876,1.572,15.584,2.013,22.819-1.997,6.38-3.536,11.093-9.431,15.868-14.784,4.498-5.044,9.326-10.65,16.665-10.118,6.416,.465,6.193-9.536-.184-9.998-14.076-1.019-22.023,12.194-30.716,20.928-5.723,5.75-11.41,8.171-19.62,6.732-8.647-1.516-17.375-4.311-25.911-.716-6.782,2.856-11.38,8.6-16.233,13.872-5.869,6.376-11.701,9.638-20.585,8.527-15.026-1.879-30.478-9.164-43.433,2.678-5.454,4.985-8.764,11.86-12.274,18.233-3.286,5.966-6.792,12.367-13.925,13.967-6.275,1.407-3.432,10.998,2.835,9.592h0Z" fill="#7f9cc6"/></g><g id="PHIL_003_011_FRAG_004"><path d="M1561.27,833.924c.036,6.082,4.093,10.627,9.603,12.78,6.815,2.663,14.121-.487,20.868,1.726,5.391,1.768,9.315,6.544,13.069,10.549,4.261,4.546,8.712,8.974,14.39,11.728,11.675,5.664,25.809,5.1,36.692-2.128,11.941-7.93,16.385-20.515,17.828-34.242,.836-7.948,.866-16.21,3.656-23.805,2.616-7.12,9.258-14.359,17.557-12.63,6.291,1.311,8.788-8.376,2.481-9.69-16.099-3.355-27.758,10.231-31.094,24.607-3.751,16.167,.292,36.619-15.633,47.219-6.75,4.493-14.884,5.671-22.666,3.419-7.545-2.184-12.505-7.694-17.707-13.214-4.562-4.841-9.567-9.556-16.093-11.504-4.139-1.235-8.332-.91-12.58-.748-3.169,.121-10.344,.519-10.373-4.252-.039-6.437-10.037-6.257-9.998,.184h0Z" fill="#7f9cc6"/></g><g id="PHIL_003_011_FRAG_005"><path d="M1729.502,772.719c5.955-8.086,18.13-10.335,26.63-5.16,5.06,3.081,8.844,7.893,13.156,11.871,4.266,3.936,9.11,7.305,14.356,9.798,21.751,10.336,47.125,6.032,64.784-10.114,4.759-4.351-2.465-11.27-7.2-6.94-19.633,17.952-48.689,16.134-67.296-2.155-7.844-7.71-15.414-14.833-27.017-15.25-10.472-.376-20.024,4.758-26.14,13.062-3.815,5.18,4.957,10.005,8.726,4.887h0Z" fill="#7f9cc6"/></g></g></svg>