<?xml version="1.0" encoding="utf-8"?>
<!-- Generator: Adobe Illustrator 27.0.0, SVG Export Plug-In . SVG Version: 6.00 Build 0)  -->
<svg version="1.1" xmlns="http://www.w3.org/2000/svg" xmlns:xlink="http://www.w3.org/1999/xlink" x="0px" y="0px"
	 viewBox="0 0 1920 1080" enable-background="new 0 0 1920 1080" xml:space="preserve">
<g id="AXE">
	
		<circle fill="#F86806" stroke="#F86806" stroke-width="0.5" stroke-linecap="square" stroke-linejoin="round" stroke-miterlimit="10" cx="958.134" cy="537.133" r="18.112"/>
</g>
<g id="FRAGMENTS">
	<g id="AQUA_x5F_004_x5F_019_x5F_FRAG_x5F_001">
		<g>
			<path fill="#C6E1CA" d="M1014.042,99.441c1.389-3.684,2.778-7.369,4.167-11.053c0.57-1.511,0.948-3.51,1.843-4.845
				c3.91-5.834,6.27-0.81,7.254,2.411c0.348,1.14,1.936,1.089,2.573,0.3c2.279-2.82,6.522-4.969,7.818-0.031
				c0.323,1.23,0.23,2.622,0.383,3.887c0.418,3.459,1.268,6.851,2.511,10.105c2.425,6.345,6.335,11.788,11.293,16.394
				c1.416,1.315,3.206-1.095,1.804-2.397c-4.377-4.066-7.829-8.923-10.073-14.478c-2.026-5.017-1.862-10.042-3.173-15.13
				c-2.047-7.944-9.188-4.823-12.961-0.154c0.858,0.1,1.715,0.2,2.573,0.3c-1.255-4.108-4.919-9.862-9.897-6.548
				c-2.103,1.4-2.927,4.313-3.768,6.508c-1.734,4.525-3.42,9.069-5.129,13.604C1010.58,100.12,1013.36,101.249,1014.042,99.441
				L1014.042,99.441z"/>
		</g>
	</g>
	<g id="AQUA_x5F_004_x5F_019_x5F_FRAG_x5F_002">
		<g>
			<path fill="#C6E1CA" d="M1067.277,119.541c6.314-5.276,10.912-11.907,13.577-19.693c-0.96-0.246-1.92-0.492-2.88-0.738
				c-0.357,8.108,8.978,8.153,13.612,3.847c7.259-6.744,9.638-17.903,11.916-27.101c0.463-1.869-2.521-2.2-2.98-0.348
				c-1.266,5.114-2.556,10.266-4.619,15.13c-0.993,2.342-2.166,4.624-3.594,6.732c-0.832,1.229-1.718,2.531-2.903,3.446
				c-1.948,1.504-8.7,4.247-8.453-1.358c0.07-1.593-2.3-2.435-2.88-0.738c-2.51,7.333-6.708,13.497-12.657,18.468
				C1063.935,118.425,1065.792,120.782,1067.277,119.541L1067.277,119.541z"/>
		</g>
	</g>
	<g id="AQUA_x5F_004_x5F_019_x5F_FRAG_x5F_003">
		<g>
			<path fill="#C6E1CA" d="M1119.367,91.753c7.601-1.238,2.663,8.771,1.675,10.615c-0.472,0.88,0.334,1.947,1.216,2.054
				c5.872,0.71-1.211,23.051-2.006,25.869c-0.52,1.841,2.257,2.984,2.781,1.128c1.99-7.052,3.94-14.398,4.602-21.713
				c0.353-3.902-0.638-7.732-5.029-8.263c0.406,0.685,0.811,1.369,1.217,2.054c1.856-3.464,3.838-7.72,1.688-11.517
				c-1.407-2.485-3.832-3.643-6.6-3.192C1117.008,89.097,1117.455,92.064,1119.367,91.753L1119.367,91.753z"/>
		</g>
	</g>
	<g id="AQUA_x5F_004_x5F_019_x5F_FRAG_x5F_004">
		<g>
			<path fill="#C6E1CA" d="M1134.643,141.718c0.554-0.971,1.051-2.073,1.807-2.9c1.211-1.324,6.179-4.913,6.723-0.36
				c0.142,1.191,2.018,1.81,2.682,0.674c1.447-2.479,6.384-9.689,9.33-4.346c0.628,1.139,2.19,1.182,2.765-0.038
				c5.609-11.9,14.139-21.818,25.005-29.222c1.598-1.089-0.272-3.436-1.861-2.353c-11.288,7.692-20.104,18.096-25.925,30.448
				c0.922-0.013,1.843-0.025,2.765-0.038c-4.148-7.524-11.605-1.173-14.475,3.745c0.894,0.225,1.788,0.449,2.682,0.674
				c-0.369-3.088-2.96-5.014-6.084-4.844c-3.831,0.209-6.103,3.766-7.809,6.756C1131.3,141.571,1133.688,143.391,1134.643,141.718
				L1134.643,141.718z"/>
		</g>
	</g>
	<g id="AQUA_x5F_004_x5F_019_x5F_FRAG_x5F_005">
		<g>
			<path fill="#C6E1CA" d="M1177.023,136.594c0.165,5.765-4.272,11.537-2.044,17.322c1.273,3.307,4.539,5.607,8.116,4.649
				c2.527-0.677,4.488-2.737,6.352-4.431c2.763-2.512,5.493-5.06,8.218-7.612c5.451-5.104,10.842-10.273,16.186-15.489
				c1.37-1.337-0.479-3.703-1.861-2.353c-7.125,6.956-14.338,13.821-21.655,20.574c-1.702,1.571-3.355,3.294-5.183,4.719
				c-2.48,2.619-5.034,1.891-7.664-2.184c-0.208-1.876-0.017-3.711,0.575-5.505c0.904-3.495,2.032-6.486,1.928-10.146
				C1179.933,134.215,1176.968,134.684,1177.023,136.594L1177.023,136.594z"/>
		</g>
	</g>
	<g id="AQUA_x5F_004_x5F_019_x5F_FRAG_x5F_006">
		<g>
			<path fill="#C6E1CA" d="M1211.433,163.779c7.978,2.96-0.437,11.384-3.768,13.997c-1.529,1.199,0.296,3.469,1.861,2.353
				c4.924-3.513,10.996-4.389,16.726-2.476c1.825,0.609,2.961-2.169,1.128-2.781c-6.782-2.264-13.884-1.255-19.715,2.904
				c0.62,0.784,1.241,1.569,1.861,2.353c3.43-2.69,7.439-5.934,7.963-10.594c0.413-3.671-1.414-7.233-4.928-8.537
				C1210.751,160.326,1209.621,163.106,1211.433,163.779L1211.433,163.779z"/>
		</g>
	</g>
	<g id="AQUA_x5F_004_x5F_019_x5F_FRAG_x5F_007">
		<g>
			<path fill="#C6E1CA" d="M1256.966,172.627c4.817-2.928,9.727-5.689,14.75-8.247c2.411-1.228,4.861-2.576,7.377-3.586
				c0.837-0.336,2.326-1.183,3.206-1.022c5.711,1.044,0.594,5.384-0.482,6.375c-7.641,7.038-16.474,13.124-25.25,18.642
				c-6.028,3.79-14.319,7.5-16.542,14.938c-1.569,5.251,0.361,11.038,5.539,13.245c1.78,0.759,2.902-2.024,1.128-2.781
				c-6.288-2.681-4.488-10.434-0.733-14.395c3.484-3.675,8.228-5.989,12.469-8.655c9.211-5.791,19.512-12.265,27-20.25
				c3.613-3.853,3.807-10.565-2.984-10.125c-4.436,0.287-8.898,3.303-12.742,5.279c-4.971,2.556-9.821,5.326-14.596,8.229
				C1253.457,171.275,1255.335,173.618,1256.966,172.627L1256.966,172.627z"/>
		</g>
	</g>
	<g id="AQUA_x5F_004_x5F_019_x5F_FRAG_x5F_008">
		<g>
			<path fill="#C6E1CA" d="M1264.457,224.3c9.749-3.664,19.52-7.394,29.574-10.153c2.626-0.721,10.667-3.233,6.649,3.485
				c-0.981,1.64-4.212,3.164-5.748,4.297c-3.82,2.818-7.834,5.488-11.494,8.511c-3.327,2.748-6.349,7.939-1.367,10.854
				c2.799,1.638,5.567,0.569,8.374-0.361c1.837-1.404,3.661-0.98,5.472,1.273c-0.768,1.041-1.537,2.082-2.305,3.122
				c-1.537,2.082-3.073,4.163-4.61,6.245c-1.149,1.556,1.25,3.359,2.397,1.804c1.92-2.601,3.882-5.177,5.763-7.806
				c1.037-1.45,2.634-3.075,2.615-5.031c-0.026-2.641-2.658-4.222-5.068-4.215c-1.714,0.005-3.178,0.852-4.71,1.488
				c-1.119,0.59-2.3,1.029-3.544,1.316c-0.579-1.959-1.158-3.917-1.737-5.876c0.285-0.955,2.744-2.087,3.501-2.645
				c4.848-3.577,10.518-6.885,14.818-11.102c5.363-5.26-0.04-10.154-6.111-9.195c-11.419,1.803-22.913,7.196-33.672,11.24
				C1261.446,222.231,1262.651,224.979,1264.457,224.3L1264.457,224.3z"/>
		</g>
	</g>
	<g id="AQUA_x5F_004_x5F_019_x5F_FRAG_x5F_009">
		<g>
			<path fill="#C6E1CA" d="M1299.592,278.006c3.446,6.722,10.13,10.957,17.67,11.32c1.918,0.092,2.28-2.887,0.348-2.98
				c-6.453-0.311-12.29-3.733-15.269-9.544C1301.464,275.093,1298.708,276.281,1299.592,278.006L1299.592,278.006z"/>
		</g>
	</g>
	<g id="AQUA_x5F_004_x5F_019_x5F_FRAG_x5F_0010">
		<g>
			<path fill="#C6E1CA" d="M1333.758,298.364c8.905-1.438,17.65,1.639,23.432,8.621c1.231,1.487,3.587-0.37,2.353-1.861
				c-6.447-7.785-16.292-11.333-26.242-9.726C1331.399,295.705,1331.846,298.673,1333.758,298.364L1333.758,298.364z"/>
		</g>
	</g>
	<g id="AQUA_x5F_004_x5F_020_x5F_FRAG_x5F_001">
		<g>
			<path fill="#52B378" d="M1361.665,332.291c-2.624,1.626-3.314,4.67-2.29,7.531c0.726,2.027,2.409,3.566,3.86,5.066
				c2.994,3.096,3.069,5.385,2.455,9.434c-1.695,11.173,9.88,16.604,18.526,19.595c1.821,0.63,2.954-2.149,1.128-2.781
				c-4.17-1.443-8.587-2.894-12.026-5.773c-4.853-4.063-4.62-7.939-3.952-13.553c0.284-2.384-0.169-4.206-1.537-6.235
				c-1.691-2.509-9.41-7.765-4.303-10.93C1365.167,333.627,1363.29,331.284,1361.665,332.291L1361.665,332.291z"/>
		</g>
	</g>
	<g id="AQUA_x5F_004_x5F_020_x5F_FRAG_x5F_002">
		<g>
			<path fill="#52B378" d="M1394.309,392.196c-2.577,4.472-9.257,5.968-10.351,11.428c-0.37,1.845,0.009,3.956,1.301,5.382
				c0.413,0.456,1.14,0.663,1.515,1.107c1.067,0.047,1.423,0.598,1.069,1.65c-0.265,0.446-0.525,0.894-0.78,1.346
				c-3.569,12.378,7.399,18.069,17.688,20.97c1.841,0.519,2.984-2.257,1.128-2.781c-4.612-1.301-9.556-2.623-13.129-5.995
				c-2.257-2.129-4.086-5.495-3.618-8.727c0.292-2.016,2.04-3.486,2.213-5.455c0.088-0.999,0.038-1.278-0.527-2.092
				c-0.263-0.378-0.665-0.524-0.911-0.845c-0.324-0.151-0.648-0.303-0.972-0.454c-0.399-1.765-0.799-3.529-1.198-5.294
				c0.517-1.632,3.719-3.132,5.033-4.136c1.661-1.269,2.893-2.485,3.939-4.3C1397.66,392.345,1395.271,390.526,1394.309,392.196
				L1394.309,392.196z"/>
		</g>
	</g>
	<g id="AQUA_x5F_004_x5F_020_x5F_FRAG_x5F_003">
		<g>
			<path fill="#52B378" d="M1416.354,449.891c-4.072,4.105-12.467,5.829-13.014,12.72c-0.442,5.562,5.207,8.468,9.607,10.168
				c1.802,0.696,2.93-2.084,1.128-2.781c-4.421-1.708-10.738-5.315-5.946-10.582c2.796-3.072,7.136-4.197,10.087-7.172
				C1419.56,450.888,1417.713,448.521,1416.354,449.891L1416.354,449.891z"/>
		</g>
	</g>
	<g id="AQUA_x5F_004_x5F_020_x5F_FRAG_x5F_004">
		<g>
			<path fill="#52B378" d="M1413.313,490.188c-11.089,8.556-0.297,21.244,7.203,27.419c1.495,1.231,3.292-1.173,1.804-2.397
				c-5.882-4.844-16.498-15.453-7.146-22.669C1416.705,491.36,1414.843,489.007,1413.313,490.188L1413.313,490.188z"/>
		</g>
	</g>
	<g id="AQUA_x5F_004_x5F_020_x5F_FRAG_x5F_005">
		<g>
			<path fill="#52B378" d="M1427.397,536.728c1.286,0.167,2.539,0.478,3.758,0.934c1.959,3.528,1.633,5.423-0.978,5.685
				c-1.585,0.844-3.951,0.769-5.699,0.959c-3.223,0.351-6.576,0.536-9.63,1.733c-4.561,1.787-8.155,5.39-8.353,10.441
				c-0.075,1.917,2.904,2.281,2.98,0.348c0.528-13.513,19.225-5.947,25.694-12.709c5.162-5.396-3.082-9.621-7.424-10.371
				C1425.841,533.419,1425.499,536.4,1427.397,536.728L1427.397,536.728z"/>
		</g>
	</g>
	<g id="AQUA_x5F_004_x5F_020_x5F_FRAG_x5F_006">
		<g>
			<path fill="#52B378" d="M1417,573.96c2.722,1.343,3.28,1.477,3.906,4.686c0.693,3.549,0.084,3.319-2.98,3.972
				c-1.733,0.369-3.512,0.381-5.228,0.865c-3.469,0.978-6.722,3.195-8.13,6.617c-3.661,8.899,5.629,15.322,12.208,18.955
				c1.689,0.933,2.798-1.859,1.128-2.781c-5.627-3.107-16.652-11.117-8.338-17.946c3.695-3.035,8.528-1.72,12.515-3.81
				c2.296-1.203,3.527-3.339,3.219-5.927c-0.461-3.874-4.018-5.856-7.173-7.413C1416.393,570.324,1415.278,573.111,1417,573.96
				L1417,573.96z"/>
		</g>
	</g>
	<g id="AQUA_x5F_004_x5F_020_x5F_FRAG_x5F_007">
		<g>
			<path fill="#52B378" d="M1423.672,625.164c4.714,3.213,5.106,5.417,1.175,6.612c-0.948-0.051-1.897-0.101-2.845-0.152
				c-1.589-0.159-3.098-0.648-4.715-0.479c-1.548,0.161-3.205,0.686-4.378,1.756c-2.685,2.447-1.661,5.531,0.871,7.52
				c1.886,1.482,5.424,2.103,2.812,6.456c-1.495,2.493-5.547,2.135-7.92,1.833c-3.332-0.424-6.557-1.502-9.88-1.998
				c-5.612-0.837-11.151-0.303-15.588,3.5c-1.464,1.255,0.391,3.613,1.861,2.353c8.981-7.697,19.077,1.194,28.893-0.912
				c5.06-1.086,9.009-7.171,4.745-11.449c-0.514-0.516-2.997-1.612-3.119-2.18c0.92-1.307,1.84-2.613,2.76-3.92
				c0.831,0.091,1.658,0.21,2.481,0.36c0.885,0.124,1.779,0.322,2.675,0.329c2.86,0.021,5.389-0.922,6.708-3.599
				c2.476-5.023-1.954-9.518-6.993-8.995C1421.296,622.397,1421.752,625.363,1423.672,625.164L1423.672,625.164z"/>
		</g>
	</g>
	<g id="AQUA_x5F_004_x5F_020_x5F_FRAG_x5F_008">
		<g>
			<path fill="#52B378" d="M1382.142,667.247c-1.581,3.657-2.082,7.564-1.002,11.452c0.583,2.099,1.578,3.949,2.859,5.695
				c2.14,2.917,8.437,9.974,0.952,11.472c-3.173,0.635-6.373-1.326-9.413-2.076c-2.183-0.539-4.405-0.788-6.652-0.78
				c-5.026,0.018-9.75,1.435-14.088,3.915c-1.658,0.948-0.475,3.709,1.204,2.749c6.543-3.742,13.711-4.622,20.926-2.357
				c3.893,1.222,8.617,3.2,12.309,0.218c3.097-2.502,2.649-6.696,0.976-9.869c-1.415-2.684-3.906-4.626-5.275-7.35
				c-1.951-3.883-1.689-8.065-0.013-11.94C1385.691,666.599,1382.907,665.477,1382.142,667.247L1382.142,667.247z"/>
		</g>
	</g>
	<g id="AQUA_x5F_004_x5F_021_x5F_FRAG_x5F_001">
		<g>
			<path fill="#B6E565" d="M1347.346,715.071c-9.627,4.918-10.549,17.713-1.239,23.57c-0.009-0.792-0.019-1.583-0.028-2.375
				c-7.119,5.04-0.88,14.71,3.017,19.764c5.755,7.463,13.746,12.821,22.739,15.549c1.836,0.557,2.975-2.22,1.128-2.781
				c-6.455-1.958-12.298-5.206-17.205-9.864c-3.861-3.664-14.485-15.596-7.818-20.316c0.744-0.527,0.769-1.874-0.028-2.375
				c-7.233-4.55-7.193-14.425,0.638-18.424C1350.26,716.946,1349.072,714.19,1347.346,715.071L1347.346,715.071z"/>
		</g>
	</g>
	<g id="AQUA_x5F_004_x5F_021_x5F_FRAG_x5F_002">
		<g>
			<path fill="#B6E565" d="M1322.243,759.278c-4.992,8.974,2.01,19.281,7.798,26.046c6.959,8.134,15.951,14.202,25.975,17.882
				c1.812,0.665,2.942-2.115,1.128-2.781c-8.566-3.145-16.347-8.036-22.664-14.654c-5.864-6.144-14.347-16.576-9.457-25.366
				C1325.962,758.72,1323.17,757.612,1322.243,759.278L1322.243,759.278z"/>
		</g>
	</g>
	<g id="AQUA_x5F_004_x5F_021_x5F_FRAG_x5F_003">
		<g>
			<path fill="#B6E565" d="M1324.786,814.105c-5.428-2.559-10.857-5.119-16.285-7.678c-3.093-1.458-9.109-5.881-12.722-5.079
				c-8.272,1.836,2.325,11.706,4.221,13.676c3.98,4.135,7.961,8.269,11.941,12.404c1.99,2.067,3.98,4.135,5.971,6.202
				c0.881,0.915,6.514,5.669,6.348,6.698c-1.26,1.095-2.521,2.189-3.781,3.284c-0.427-0.323-0.855-0.645-1.282-0.968
				c-1.218-0.509-2.686-2.099-3.769-2.945c-2.261-1.767-4.523-3.534-6.784-5.301c-5.025-3.927-10.05-7.854-15.075-11.781
				c-1.218-0.952-2.819,0.445-2.276,1.8c2.196,5.48,4.392,10.96,6.588,16.44c0.718,1.793,3.468,0.591,2.749-1.204
				c-2.196-5.48-4.392-10.96-6.588-16.44c-0.759,0.6-1.518,1.2-2.276,1.8c5.025,3.927,10.05,7.854,15.075,11.781
				c4.222,3.299,8.547,7.762,13.362,10.151c6.551,3.251,10.417-3.147,6.411-8.479c-3.498-4.655-8.28-8.704-12.318-12.9
				c-4.202-4.364-8.403-8.729-12.604-13.093c-1.179-1.225-7.252-6.029-3.745-7.711c0.932-0.447,7.359,3.47,8.571,4.041
				c5.714,2.694,11.428,5.388,17.142,8.082C1325.408,817.711,1326.526,814.926,1324.786,814.105L1324.786,814.105z"/>
		</g>
	</g>
	<g id="AQUA_x5F_004_x5F_021_x5F_FRAG_x5F_004">
		<g>
			<path fill="#B6E565" d="M1283.29,850.859c-0.538,4.041-11.954-3.924-13.4-4.727c-2.825-1.57-5.81-2.969-9.037-3.443
				c-5.309-0.78-10.694,0.719-13.911,5.176c-1.131,1.567,1.266,3.372,2.397,1.804c6.949-9.627,19.099-0.742,26.312,3.407
				c3.554,2.044,9.819,4.13,10.618-1.87C1286.525,849.293,1283.545,848.945,1283.29,850.859L1283.29,850.859z"/>
		</g>
	</g>
	<g id="AQUA_x5F_004_x5F_021_x5F_FRAG_x5F_005">
		<g>
			<path fill="#B6E565" d="M1237.536,863.377c3.672,4.882,2.179,11.632-2.94,14.794c-0.718,0.443-0.666,1.505-0.246,2.107
				c9.941,14.243,15.133,31.097,14.882,48.469c-0.028,1.912,2.952,2.28,2.98,0.348c0.264-18.217-5.079-35.734-15.509-50.678
				c-0.082,0.702-0.164,1.405-0.246,2.107c6.549-4.046,8.008-12.923,3.432-19.008
				C1238.727,859.97,1236.375,861.834,1237.536,863.377L1237.536,863.377z"/>
		</g>
	</g>
	<g id="AQUA_x5F_004_x5F_021_x5F_FRAG_x5F_006">
		<g>
			<path fill="#B6E565" d="M1232.242,919.164c-4.136-6.194-8.272-12.389-12.408-18.583c-2.477-3.71-5.4-9.467-10.748-8.981
				c-3.44,0.312-5.272,3.345-5.371,6.569c-0.094,3.056,1.326,6.223,2.225,9.073c1.217,3.856,2.433,7.712,3.65,11.567
				c0.562,1.78,1.123,3.559,1.685,5.339c0.714,2.261,3.364,5.617,0.243,6.521c-1.237,1.064-2.094,0.809-2.571-0.764
				c-0.626-0.872-1.21-1.771-1.752-2.698c-1.014-1.644-1.936-3.33-2.817-5.049c-2.648-5.168-4.568-11.43-8.365-15.898
				c-2.261-2.66-6.354-4.662-9.703-2.628c-2.891,1.756-3.3,5.391-1.305,7.911c1.2,1.516,3.553-0.345,2.353-1.861
				c1.715-0.904,3.43-1.808,5.146-2.712c0.53,0.555,1.06,1.111,1.59,1.666c0.93,1.185,1.597,2.597,2.277,3.937
				c1.165,2.294,2.243,4.631,3.362,6.948c1.913,3.961,3.895,7.903,6.381,11.542c1.45,2.123,3.585,5.41,6.687,4.766
				c2.532-0.525,3.362-3.041,3.289-5.29c-0.148-4.545-2.676-9.522-4.033-13.822c-0.842-2.669-1.685-5.339-2.527-8.008
				c-0.716-2.268-3.293-7.1-2.74-9.255c1.439-1.527,2.879-3.055,4.318-4.582c0.885,0.722,1.771,1.445,2.656,2.167
				c0.841,0.912,1.477,2.057,2.165,3.081c1.384,2.061,2.757,4.13,4.136,6.194c3.274,4.904,6.549,9.808,9.823,14.712
				C1230.962,922.633,1233.308,920.761,1232.242,919.164L1232.242,919.164z"/>
		</g>
	</g>
	<g id="AQUA_x5F_004_x5F_021_x5F_FRAG_x5F_007">
		<g>
			<path fill="#B6E565" d="M1174.964,935.74c0.945,9.024,11.18,27.123-2.277,31.266c-1.841,0.567-0.626,3.312,1.204,2.748
				c15.609-4.805,5.099-24.352,4.039-34.471C1177.729,933.364,1174.763,933.82,1174.964,935.74L1174.964,935.74z"/>
		</g>
	</g>
	<g id="AQUA_x5F_004_x5F_021_x5F_FRAG_x5F_008">
		<g>
			<path fill="#B6E565" d="M1150.15,924.195c-10.707,3.145-16.181,13.037-15.252,23.827c1.068,12.408,9.166,24.85,4.779,37.375
				c-0.637,1.819,2.142,2.952,2.781,1.128c3.471-9.91-0.189-19.675-2.737-29.341c-3.199-12.134-2.635-26.049,11.633-30.24
				C1153.2,926.401,1151.984,923.657,1150.15,924.195L1150.15,924.195z"/>
		</g>
	</g>
	<g id="AQUA_x5F_004_x5F_021_x5F_FRAG_x5F_009">
		<g>
			<path fill="#B6E565" d="M1120.679,982.23c-1.128-2.806-3.802-4.869-6.962-3.84c-1.544,0.503-2.671,1.594-3.394,3.014
				c-0.981,1.926-0.816,5.137-3.832,1.532c-3.428-4.097-3.948-12.089-4.906-17.174c-1.005-5.336-1.991-10.753-4.127-15.777
				c-1.257-2.958-3.284-7.544-6.868-8.304c-2.818-0.597-5.155,1.368-5.949,3.98c-1.514,4.984,1.013,12.085,1.766,17.08
				c1.081,7.159,2.161,14.319,3.242,21.478c0.288,1.907,3.255,1.458,2.966-0.457c-1.572-10.413-3.182-20.822-4.716-31.241
				c-0.185-1.158-0.352-2.318-0.501-3.481c2.825-3.812,4.806-4.042,5.945-0.691c1.028,1.827,1.812,3.806,2.476,5.79
				c1.4,4.18,2.134,8.552,2.947,12.873c1.164,6.183,2.287,15.85,7.046,20.524c1.266,1.243,2.94,2.083,4.648,1.084
				c0.602-0.352,1.003-0.91,1.35-1.51c0.2-0.432,0.351-0.88,0.455-1.342c0.193-2.459,2.081-3.238,5.665-2.335
				C1118.651,985.226,1121.4,984.024,1120.679,982.23L1120.679,982.23z"/>
		</g>
	</g>
	<g id="AQUA_x5F_004_x5F_021_x5F_FRAG_x5F_010">
		<g>
			<path fill="#B6E565" d="M1065.071,953.195c-8.429-0.396-9.883,8.752-10.15,15.327c-0.445,10.995,2.242,21.756,4.933,32.327
				c0.472,1.852,3.443,1.419,2.966-0.457c-1.757-6.9-3.513-13.826-4.395-20.903c-0.651-5.219-2.906-23.747,6.298-23.315
				C1066.641,956.265,1067.004,953.286,1065.071,953.195L1065.071,953.195z"/>
		</g>
	</g>
	<g id="AQUA_x5F_004_x5F_021_x5F_FRAG_x5F_011">
		<g>
			<path fill="#B6E565" d="M1040.599,977.011c-5.463-11.461-14.819-20.237-26.629-24.912c-1.797-0.711-2.924,2.07-1.128,2.781
				c11.085,4.389,19.875,12.569,25.008,23.335C1038.68,979.953,1041.433,978.761,1040.599,977.011L1040.599,977.011z"/>
		</g>
	</g>
	<g id="AQUA_x5F_004_x5F_022_x5F_FRAG_x5F_001">
		<g>
			<path fill="#3DB2AF" d="M1003.704,996.106c-1.905-3.626-4.176-7.635-8.439-8.766c-4.678-1.24-8.402,2.815-12.871,3.413
				c-10.248,1.372-18.637,4.699-25.14,13.145c-1.181,1.534,1.22,3.334,2.397,1.804c4.902-6.367,11.854-10.638,19.88-11.67
				c3.339-0.429,6.103-0.478,9.13-2.002c2.37-1.193,4.956-2.207,7.721-0.91c2.161,1.014,3.552,4.245,4.573,6.188
				C1001.848,999.008,1004.605,997.821,1003.704,996.106L1003.704,996.106z"/>
		</g>
	</g>
	<g id="AQUA_x5F_004_x5F_022_x5F_FRAG_x5F_002">
		<g>
			<path fill="#3DB2AF" d="M936.028,998.119c-9.96-0.769-2.4-23.53-0.533-28.391c0.693-1.803-2.088-2.932-2.781-1.128
				c-2.775,7.224-10.724,31.441,2.966,32.498C937.6,1001.247,937.958,998.268,936.028,998.119L936.028,998.119z"/>
		</g>
	</g>
	<g id="AQUA_x5F_004_x5F_022_x5F_FRAG_x5F_003">
		<g>
			<path fill="#3DB2AF" d="M905.199,990.653c-3.586,0.138-5.496-3.36-4.801-6.277c0.303-1.273-1.499-2.157-2.42-1.35
				c-4.612-0.216-6.514-2.043-5.707-5.481c0.266-1.458,0.646-2.885,1.139-4.279c0.42-1.307-1.123-2.831-2.321-1.74
				c-5.616,5.113-5.56-6.345-5.421-8.024c0.122-1.476,0.355-2.905,0.279-4.394c-0.135-2.65-0.819-4.777-2.675-6.7
				c-1.331-1.378-3.696,0.471-2.353,1.861c4.779,4.949-0.758,12.445,2.863,17.965c2.044,3.115,6.308,4.249,9.169,1.645
				c-0.774-0.58-1.547-1.16-2.321-1.74c-1.281,3.985-2.635,8.98,0.395,12.581c2.356,2.8,6.129,3.013,8.815,0.661
				c-0.807-0.45-1.614-0.9-2.42-1.35c-1.271,5.339,2.966,9.794,8.237,9.591C907.579,993.544,907.112,990.579,905.199,990.653
				L905.199,990.653z"/>
		</g>
	</g>
	<g id="AQUA_x5F_004_x5F_022_x5F_FRAG_x5F_004">
		<g>
			<path fill="#3DB2AF" d="M861.765,963.834c-1.908,0.034-3.817,0.068-5.725,0.102c-0.268-0.899-1.65-1.172-2.305-0.575
				c-1.049,0.956-1.673,1.636-2.436,2.855c-0.501,0.897-0.969,1.81-1.404,2.741c-0.651,2.182-2.132,2.666-4.442,1.45
				c0.635-1.837-1.933-2.855-2.781-1.128c-0.342,0.789-0.75,1.542-1.226,2.258c-1.002,2.327-3.102,2.533-6.301,0.618
				c0.324-1.905-2.657-2.247-2.98-0.348c-0.551,3.239,1.765,6.02,5.139,5.972c4.238-0.061,6.518-4.052,8.148-7.373
				c-0.927-0.376-1.854-0.752-2.781-1.128c-0.998,2.885,0.894,5.867,4.177,5.757c4.901-0.165,5.869-6.699,8.748-9.322
				c-0.768-0.192-1.536-0.383-2.305-0.575c1.977,6.622,10.358,5.552,11.454-0.958C865.066,962.277,862.085,961.934,861.765,963.834
				L861.765,963.834z"/>
		</g>
	</g>
	<g id="AQUA_x5F_004_x5F_022_x5F_FRAG_x5F_005">
		<g>
			<path fill="#3DB2AF" d="M829.295,959.97c0.302-3.628,0.686-7.259,0.908-10.892c0.098-1.602,0.414-3.68-0.71-5.077
				c-1.749-2.175-4.819-1.563-6.633,0.083c-1.335,1.211-2.001,2.888-2.816,4.457c-1.581,3.043-3.349,5.952-5.377,8.719
				c-3.818,5.209-8.413,9.698-13.553,13.591c-1.542,1.168,0.321,3.519,1.861,2.353c5.776-4.375,10.893-9.516,15.042-15.472
				c0.936-1.344,1.819-2.724,2.654-4.133c0.648-1.095,1.608-3.99,2.524-4.661c1.37-0.399,2.741-0.799,4.111-1.198
				c-0.11,1.32-0.22,2.64-0.33,3.961c-0.22,2.64-0.44,5.281-0.66,7.921C826.155,961.542,829.134,961.898,829.295,959.97
				L829.295,959.97z"/>
		</g>
	</g>
	<g id="AQUA_x5F_004_x5F_022_x5F_FRAG_x5F_006">
		<g>
			<path fill="#3DB2AF" d="M798.847,953.945c-0.989-1.508-1.977-3.015-2.966-4.523c0.401-1.286-1.13-2.866-2.321-1.74
				c-4.531,4.286-9.625-0.861-9.786-5.811c-0.127-3.891,1.792-7.331,3.757-10.562c2.734-4.496,5.571-8.497,6.608-13.761
				c0.373-1.895-2.609-2.233-2.98-0.348c-1.898,9.636-12.747,17.099-10.055,27.738c1.591,6.289,9.21,9.927,14.316,5.096
				c-0.774-0.58-1.547-1.16-2.321-1.74c-1.299,4.166,1.02,8.032,5.399,8.63C800.413,957.186,800.761,954.206,798.847,953.945
				L798.847,953.945z"/>
		</g>
	</g>
	<g id="AQUA_x5F_004_x5F_022_x5F_FRAG_x5F_007">
		<g>
			<path fill="#3DB2AF" d="M767.267,916.835c-9.02,5.079-18.039,10.158-27.059,15.237c-1.666,0.938-0.482,3.698,1.204,2.748
				c9.02-5.079,18.039-10.158,27.059-15.237C770.136,918.646,768.953,915.886,767.267,916.835L767.267,916.835z"/>
		</g>
	</g>
	<g id="AQUA_x5F_004_x5F_022_x5F_FRAG_x5F_008">
		<g>
			<path fill="#3DB2AF" d="M739.787,912.989c-2.931-0.288-4.189-1.89-3.775-4.806c0.259-1.456-1.867-2.288-2.689-1.076
				c-1.439-0.852-2.877-1.703-4.316-2.555c0.655-1.324-1.234-2.741-2.321-1.74c-3.167,2.916-8.35,2.503-10.59-1.445
				c-0.943-1.662-3.703-0.479-2.749,1.204c3.099,5.463,10.461,6.957,15.199,2.594c-0.774-0.58-1.547-1.16-2.321-1.74
				c-3.208,6.49,5.425,11.491,9.494,5.486c-0.896-0.359-1.792-0.717-2.689-1.076c-0.755,4.241,2.103,7.869,6.407,8.133
				C741.359,916.086,741.719,913.107,739.787,912.989L739.787,912.989z"/>
		</g>
	</g>
	<g id="AQUA_x5F_004_x5F_022_x5F_FRAG_x5F_009">
		<g>
			<path fill="#3DB2AF" d="M709.163,889.051c-5.021-2.594-9.405,0.33-12.848,4.053c-2.865,3.098-5.671,6.176-8.882,8.926
				c-1.928,1.651-13.66,11.716-14.88,4.981c-0.343-1.894-3.311-1.45-2.966,0.457c1.229,6.784,8.365,5.146,12.609,2.326
				c3.96-2.63,7.651-5.709,11.045-9.033c3.704-3.627,8.682-12.087,14.794-8.93C709.752,892.719,710.865,889.93,709.163,889.051
				L709.163,889.051z"/>
		</g>
	</g>
	<g id="AQUA_x5F_004_x5F_022_x5F_FRAG_x5F_010">
		<g>
			<path fill="#3DB2AF" d="M681.267,881.287c-0.454-4.767-6.36-7.902-10.519-5.405c-1.632,0.98-0.452,3.743,1.204,2.749
				c2.535-1.522,6.063,0.106,6.35,3.113C678.484,883.665,681.45,883.207,681.267,881.287L681.267,881.287z"/>
		</g>
	</g>
	<g id="AQUA_x5F_004_x5F_022_x5F_FRAG_x5F_011">
		<g>
			<path fill="#3DB2AF" d="M660.479,865.337c4.947-3.808,5.783-11.864,1.091-16.264c-4.67-4.38-12.699-3.086-16.158,2.122
				c-1.066,1.605,1.328,3.415,2.397,1.804c2.467-3.716,8.212-4.964,11.66-1.774c3.427,3.171,2.693,9.029-0.852,11.758
				C657.086,864.164,658.948,866.516,660.479,865.337L660.479,865.337z"/>
		</g>
	</g>
	<g id="AQUA_x5F_004_x5F_022_x5F_FRAG_x5F_012">
		<g>
			<path fill="#3DB2AF" d="M633.076,839.775c8.205-11.133,18.699-30.055,3.646-40.692c-1.577-1.115-3.383,1.282-1.804,2.397
				c13.556,9.578,2.938,26.753-4.239,36.49C629.531,839.528,631.929,841.331,633.076,839.775L633.076,839.775z"/>
		</g>
	</g>
	<g id="AQUA_x5F_004_x5F_023_x5F_FRAG_x5F_001">
		<g>
			<path fill="#4CD36F" d="M566.708,301.31c3.431-8.661,14.339-6.65,21.668-8.109c4.989-0.993,9.166-3.312,11.517-7.929
				c0.877-1.723-1.911-2.836-2.781-1.128c-6.407,12.581-27.409,1.459-33.185,16.039C563.215,301.979,565.997,303.106,566.708,301.31
				L566.708,301.31z"/>
		</g>
	</g>
	<g id="AQUA_x5F_004_x5F_023_x5F_FRAG_x5F_002">
		<g>
			<path fill="#4CD36F" d="M601.116,269.464c-2.142-7.854,1.219-14.254,7.692-18.691c4.007-2.746,7.838-5.044,10.086-9.497
				c0.871-1.726-1.917-2.84-2.781-1.128c-3.086,6.116-10.514,7.855-14.693,13.019c-3.829,4.73-4.85,10.957-3.27,16.753
				C598.651,271.759,601.624,271.329,601.116,269.464L601.116,269.464z"/>
		</g>
	</g>
	<g id="AQUA_x5F_004_x5F_023_x5F_FRAG_x5F_003">
		<g>
			<path fill="#4CD36F" d="M627.947,223.497c1.258-3.243,6.355-0.597,8.638-0.438c1.875,0.13,3.615-0.361,5.003-1.638
				c3.438-3.162,2.556-8.015,1.436-12.003c-0.515-1.833-3.488-1.404-2.966,0.457c0.702,2.501,1.728,5.655,0.407,8.14
				c-1.803,3.391-5.586,1.416-8.412,1.044c-2.83-0.373-5.789,0.48-6.888,3.312C624.467,224.171,627.248,225.299,627.947,223.497
				L627.947,223.497z"/>
		</g>
	</g>
	<g id="AQUA_x5F_004_x5F_023_x5F_FRAG_x5F_004">
		<g>
			<path fill="#4CD36F" d="M651.663,195.724c1.645-1.213,3.29-2.425,4.935-3.638c0.896,0.224,1.792,0.447,2.689,0.671
				c0.642,0.166,1.271,0.381,1.917,0.534c1.814,0.429,3.627,0.735,5.494,0.808c3.285,0.128,6.56-0.344,9.697-1.312
				c6.775-2.091,12.484-6.498,16.219-12.51c1.013-1.631-1.378-3.445-2.397-1.804c-5.676,9.138-16.612,14.34-27.307,12.157
				c-3.642-0.743-7.606-2.786-11.239-0.875c-2.807,1.477-3.801,4.327-2.756,7.173C649.579,198.74,652.327,197.534,651.663,195.724
				L651.663,195.724z"/>
		</g>
	</g>
	<g id="AQUA_x5F_004_x5F_023_x5F_FRAG_x5F_005">
		<g>
			<path fill="#4CD36F" d="M709.953,178.332c-1.547-1.871-4.292-4.73-3.557-7.438c1.675-6.174,6.919-1.101,8.73,0.63
				c1.076,1.028,2.981-0.523,2.276-1.8c-1.575-2.856-4.652-4.332-6.219-7.002c-1.677-1.524-1.264-2.539,1.24-3.045
				c1.252-1.744,2.386-1.881,3.405-0.411c1.391,0.561,2.611,1.936,4.094,2.559c1.535,0.645,2.913-1.643,1.466-2.589
				c-2.052-1.342-10.124-7.852-0.661-7.922c1.203-0.009,3.097,1.164,4.474,1.325c1.917,0.224,2.268-2.755,0.348-2.98
				c-4.054-0.473-9.283-4.574-11.802,1.008c-2.167,4.803,2.277,8.639,5.836,10.966c0.489-0.863,0.977-1.726,1.466-2.589
				c-3.656-1.537-10.303-9.035-13.708-2.485c-3.174,6.105,4.989,10.152,7.313,14.367c0.759-0.6,1.518-1.2,2.276-1.8
				c-3.164-3.023-8.485-6.467-12.091-2.024c-3.534,4.354-0.147,9.573,2.761,13.091C708.831,181.682,711.186,179.824,709.953,178.332
				L709.953,178.332z"/>
		</g>
	</g>
	<g id="AQUA_x5F_004_x5F_023_x5F_FRAG_x5F_006">
		<g>
			<path fill="#4CD36F" d="M734.333,136.579c1.132-5.038,14.288,5.808,15.629,6.663c1.925,1.227,4.296,2.723,6.686,1.928
				c2.057-0.684,3.035-2.688,2.967-4.75c-0.055-1.666-0.932-2.857-1.513-4.352c-1.407-3.623-1.657-6.453,0.517-9.801
				c1.048-1.614-1.345-3.425-2.397-1.804c-1.952,3.006-2.871,6.355-2.005,9.913c0.247,1.014,0.883,1.917,1.138,2.896
				c0.215,0.42,0.43,0.84,0.645,1.259c-0.676,1.187-1.352,2.374-2.027,3.561c-1.253,0.447-6.813-4.57-8.045-5.458
				c-3.952-2.849-12.695-8.768-14.574-0.403C730.93,138.112,733.913,138.446,734.333,136.579L734.333,136.579z"/>
		</g>
	</g>
	<g id="AQUA_x5F_004_x5F_023_x5F_FRAG_x5F_007">
		<g>
			<path fill="#4CD36F" d="M776.754,119.665c2.438,4.963,5.985,10.977,12.453,10.238c2.196-0.251,4.169-1.338,5.293-3.28
				c1.947-3.366-0.095-7.599,2.158-10.832c-0.7,0.099-1.401,0.198-2.101,0.297c9.195,6.052,20.183,7.88,30.806,4.899
				c1.833-0.514,1.404-3.488-0.457-2.966c-9.829,2.758-19.998,1.295-28.545-4.331c-0.657-0.433-1.614-0.402-2.101,0.297
				c-1.905,2.734-1.151,5.073-1.719,8.16c-1.066,5.797-6.226,5.562-9.467,2.224c-1.599-1.646-2.572-3.876-3.572-5.911
				C778.654,116.735,775.9,117.926,776.754,119.665L776.754,119.665z"/>
		</g>
	</g>
	<g id="AQUA_x5F_004_x5F_023_x5F_FRAG_x5F_008">
		<g>
			<path fill="#4CD36F" d="M831.988,97.864c6.088,1.549,12.189,1.498,18.252-0.147c1.84-0.499,1.41-3.472-0.457-2.966
				c-5.818,1.578-11.608,1.619-17.447,0.133C830.471,94.409,830.141,97.394,831.988,97.864L831.988,97.864z"/>
		</g>
	</g>
	<g id="AQUA_x5F_004_x5F_023_x5F_FRAG_x5F_009">
		<g>
			<path fill="#4CD36F" d="M865.783,110.931c6.148,4.776,14.379,3.861,20.255-0.941c7.316-5.979,9.506-15.656,11.382-24.439
				c0.403-1.887-2.579-2.223-2.98-0.348c-1.439,6.738-2.94,13.846-7.317,19.38c-4.72,5.969-13.016,9.015-19.536,3.95
				C866.059,107.346,864.259,109.746,865.783,110.931L865.783,110.931z"/>
		</g>
	</g>
	<g id="AQUA_x5F_004_x5F_023_x5F_FRAG_x5F_010">
		<g>
			<path fill="#4CD36F" d="M907.199,94.197c2.04,4.281,5.447,9.795,11.022,8.762c6.538-1.212,7.479-8.816,7.474-14.191
				c-0.002-1.907-2.981-2.278-2.98-0.348c0.003,3.888,0.006,10.514-4.951,11.573c-3.988,0.852-6.444-4.118-7.817-7
				C909.119,91.255,906.365,92.447,907.199,94.197L907.199,94.197z"/>
		</g>
	</g>
	<g id="AQUA_x5F_004_x5F_023_x5F_FRAG_x5F_011">
		<g>
			<path fill="#4CD36F" d="M940.883,98.15c2.262-2.568,6.206,1.634,8.229,2.504c1.653,0.711,3.268,0.879,5.012,0.356
				c4.373-1.312,6.324-6.296,10.765-7.561c10.961-3.125,20.16,9.33,31.586,4.995c1.806-0.685,0.601-3.433-1.204-2.749
				c-11.534,4.376-22.519-10.814-34.038-3.959c-1.852,1.102-3.125,2.766-4.747,4.132c-1.062,0.895-2.481,2.299-3.947,2.47
				c-2.487,0.29-4.05-1.785-5.956-2.79c-2.875-1.516-5.843-1.758-8.096,0.799C937.207,97.798,939.614,99.591,940.883,98.15
				L940.883,98.15z"/>
		</g>
	</g>
	<g id="AQUA_x5F_004_x5F_024_x5F_FRAG_x5F__x5F_001">
		<g>
			<path fill="#B0DAD4" d="M611.345,806.98c-3.665-0.101-7.33-0.203-10.995-0.304c-1.832-0.051-3.665-0.101-5.497-0.152
				c-0.833-0.023-3.99,0.313-4.801-0.17c-3.488-2.076,2.954-6.309,3.905-7.801c1.041-1.635,1.6-3.617,1.675-5.547
				c0.341-8.785-9.336-13.568-16.553-9.297c-1.64,0.97-0.459,3.733,1.204,2.748c6.491-3.841,15.041,1.9,11.664,9.508
				c-1.581,3.562-7.338,4.957-6.778,9.568c0.414,3.408,3.811,3.789,6.588,3.894c6.41,0.243,12.828,0.354,19.24,0.532
				C612.912,810.013,613.278,807.034,611.345,806.98L611.345,806.98z"/>
		</g>
	</g>
	<g id="AQUA_x5F_004_x5F_024_x5F_FRAG_x5F__x5F_002">
		<g>
			<path fill="#B0DAD4" d="M582.298,769.983c4.981-4.937,5.793-12.455,1.913-18.315c-1.067-1.612-3.413,0.26-2.353,1.861
				c2.907,4.39,2.333,10.38-1.421,14.101C579.079,768.976,580.926,771.342,582.298,769.983L582.298,769.983z"/>
		</g>
	</g>
	<g id="AQUA_x5F_004_x5F_024_x5F_FRAG_x5F__x5F_003">
		<g>
			<path fill="#B0DAD4" d="M565.76,748.95c-2.04,0.13-13.817,2.608-11.702-2.922c0.906-2.37,4.07-3.329,4.209-6.333
				c0.072-1.563-0.706-2.879-1.93-3.738c-2.566-1.803-4.936,0.025-7.553-0.778c-7.236-2.222,5.197-9.07,6.788-10.126
				c2.394-1.587,4.781-3.417,6.178-5.995c2.142-3.951,1.521-8.908-2.442-11.393c-1.627-1.02-3.441,1.371-1.804,2.397
				c10.42,6.533-9.836,15.052-12.724,19.403c-2.816,4.245-0.823,8.543,4.283,8.683c1.237,0.034,3.332-0.64,4.363-0.139
				c3.981,1.933-0.729,4.792-1.766,6.214c-1.153,1.581-2.331,3.578-1.636,5.614c1.781,5.223,12.451,2.317,16.192,2.078
				C568.141,751.793,567.678,748.828,565.76,748.95L565.76,748.95z"/>
		</g>
	</g>
	<g id="AQUA_x5F_004_x5F_024_x5F_FRAG_x5F__x5F_004">
		<g>
			<path fill="#B0DAD4" d="M541.71,703.08c4.926-0.671,8.812-5.606,6.553-10.533c-0.962-2.097-2.919-3.742-5.158-4.323
				c-1.279-0.332-2.436-0.248-3.715,0.01c-0.235,0.047-1.497,0.524-1.709,0.497c-0.873,0.52-1.446,0.115-1.719-1.215
				c-1.724-1.368-1.314-2.287,1.231-2.755c1.7-0.877,0.59-3.52-1.204-2.749c-4.775,1.521-5.976-0.745-3.605-6.798
				c-0.511-0.85-1.021-1.701-1.532-2.551c-3.456,2.903-5.136,1.354-5.039-4.648c1.899-0.326,1.453-3.294-0.457-2.966
				c-4.278,0.735-6.783,5.106-4.207,9.025c2.761,4.201,7.998,3.518,11.565,0.941c1.353-0.977-0.042-3.418-1.532-2.551
				c-7.915,4.605-2.564,15.984,6.012,12.295c-0.401-0.916-0.802-1.832-1.204-2.749c-3.003,1.55-7.583,5.277-4.318,9.022
				c1.298,1.489,3.058,1.392,4.832,1.164c1.364-0.176,2.626-1.068,4.003-1.167c6.497-0.467,6.944,8.24,0.747,9.083
				C539.342,700.375,539.793,703.341,541.71,703.08L541.71,703.08z"/>
		</g>
	</g>
	<g id="AQUA_x5F_004_x5F_024_x5F_FRAG_x5F__x5F_005">
		<g>
			<path fill="#B0DAD4" d="M522.335,652.864c1.838-3.665,4.527-6.206,8.259-7.907c1.39-0.634,1.022-2.622-0.428-2.864
				c-2.695-0.45-5.391-0.899-8.086-1.348c-1.232-0.206-3.39-0.109-4.492-0.749c-0.572-0.145-1.145-0.29-1.717-0.436
				c0.317-1.066,0.634-2.132,0.952-3.197c1.488-1.185,5.186-0.423,7.056-1.092c1.282-0.459,2.325-1.136,3.162-2.216
				c3.904-5.033-0.715-10.57-6.237-10.281c-1.924,0.101-1.459,3.066,0.457,2.966c1.39,1.208,2.78,2.416,4.171,3.624
				c-1.267,1.114-2.534,2.228-3.801,3.341c-0.828,0.336-2.085,0.111-2.97,0.227c-1.526,0.201-2.84,0.458-4.148,1.34
				c-1.53,1.032-2.835,2.794-2.543,4.73c0.329,2.18,2.077,3.145,4.008,3.714c4.394,1.294,9.325,1.604,13.843,2.357
				c-0.143-0.955-0.285-1.909-0.428-2.864c-4.457,2.032-7.641,5.152-9.836,9.528C518.687,653.465,521.475,654.579,522.335,652.864
				L522.335,652.864z"/>
		</g>
	</g>
	<g id="AQUA_x5F_004_x5F_024_x5F_FRAG_x5F__x5F_006">
		<g>
			<path fill="#B0DAD4" d="M531.255,609.57c3.361-4.151,3.029-9.725,0.294-14.15c-3.601-5.826-10.655-8.016-16.852-9.837
				c-1.838-0.54-2.979,2.237-1.128,2.781c4.363,1.282,9.034,2.58,12.615,5.514c4.082,3.345,6.305,9.402,2.673,13.888
				C527.639,609.27,530.042,611.068,531.255,609.57L531.255,609.57z"/>
		</g>
	</g>
	<g id="AQUA_x5F_004_x5F_024_x5F_FRAG_x5F__x5F_007">
		<g>
			<path fill="#B0DAD4" d="M529.144,573.125c-4.453-5.308-6.456-11.751-5.74-18.652c0.199-1.919-2.78-2.272-2.98-0.348
				c-0.794,7.643,1.424,14.97,6.366,20.861C528.031,576.465,530.388,574.608,529.144,573.125L529.144,573.125z"/>
		</g>
	</g>
	<g id="AQUA_x5F_004_x5F_024_x5F_FRAG_x5F__x5F_008">
		<g>
			<path fill="#B0DAD4" d="M526.531,541.086c1.058-2.527,9.019-5.277,4.919-9.365c-1.629-1.624-4.796-1.271-6.859-1.435
				c-1.77-0.141-3.541-0.279-5.311-0.424c-0.883-0.066-1.764-0.14-2.646-0.221c-1.935,0.044-2.968-1.219-3.1-3.789
				c1.92,0.143,2.278-2.836,0.348-2.98c-5.745-0.427-5.6,6.68-1.246,8.839c3.329,1.651,8.001,1.267,11.607,1.554
				c0.474,0.038,3.516-0.115,3.794,0.303c1.57,2.36-0.616,2.432-1.462,3.172c-1.311,1.148-2.121,1.536-2.825,3.218
				C523.003,541.742,525.785,542.866,526.531,541.086L526.531,541.086z"/>
		</g>
	</g>
	<g id="AQUA_x5F_004_x5F_024_x5F_FRAG_x5F__x5F_009">
		<g>
			<path fill="#B0DAD4" d="M516.888,512.209c6.675-5.13,4.961-15.531-3.268-17.858c-1.841-0.52-2.983,2.256-1.128,2.781
				c5.992,1.694,7.597,8.833,2.534,12.724C513.493,511.034,515.356,513.386,516.888,512.209L516.888,512.209z"/>
		</g>
	</g>
	<g id="AQUA_x5F_004_x5F_024_x5F_FRAG_x5F__x5F_010">
		<g>
			<path fill="#B0DAD4" d="M525.368,485.865c4.264-0.426,5.135-5.452,2.526-8.332c-2.386-2.633-6.523-3.716-9.667-5.07
				c-4.438-1.912-8.876-3.824-13.315-5.736c-1.777-0.765-2.899,2.018-1.128,2.781c3.883,1.673,7.767,3.346,11.65,5.019
				c1.664,0.717,3.331,1.429,4.993,2.151c0.958,0.403,1.909,0.82,2.855,1.25c2.414,0.68,2.957,2.337,1.628,4.971
				C522.991,483.091,523.448,486.057,525.368,485.865L525.368,485.865z"/>
		</g>
	</g>
	<g id="AQUA_x5F_004_x5F_024_x5F_FRAG_x5F__x5F_011">
		<g>
			<path fill="#B0DAD4" d="M516.253,459.529c4.802-1.31,10.805-3.651,10.516-9.641c-0.333-6.897-7.254-13.834-12.182-17.963
				c-1.484-1.244-3.28,1.161-1.804,2.397c3.733,3.128,6.937,6.753,9.266,11.055c3.582,6.615-0.4,9.591-6.252,11.187
				C513.957,457.065,514.388,460.038,516.253,459.529L516.253,459.529z"/>
		</g>
	</g>
	<g id="AQUA_x5F_004_x5F_024_x5F_FRAG_x5F__x5F_012">
		<g>
			<path fill="#B0DAD4" d="M531.415,429.224c4.441-1.872,9.468-5.575,8.755-11.044c-1.019-7.811-16.882-9.934-13.84-17.908
				c0.688-1.805-2.092-2.933-2.781-1.128c-1.554,4.074,0.195,7.865,3.53,10.48c2.703,2.12,6.545,3.211,8.694,6.016
				c3.798,4.958-1.336,9.054-5.561,10.835C528.433,427.226,529.632,429.976,531.415,429.224L531.415,429.224z"/>
		</g>
	</g>
	<g id="AQUA_x5F_004_x5F_024_x5F_FRAG_x5F__x5F_013">
		<g>
			<path fill="#B0DAD4" d="M535.588,387.376c11.445-6.134,8.609-22.838-4.365-24.577c-1.914-0.257-2.263,2.723-0.348,2.98
				c9.883,1.325,12.38,14.095,3.509,18.849C532.695,385.533,533.881,388.291,535.588,387.376L535.588,387.376z"/>
		</g>
	</g>
	<g id="AQUA_x5F_004_x5F_024_x5F_FRAG_x5F__x5F_014">
		<g>
			<path fill="#B0DAD4" d="M538.567,347.434c-3.075-5.468,1.832-11.407,7.764-8.695c1.342,0.613,2.729-1.204,1.74-2.321
				c-4.276-4.828,2.372-8.757,6.305-9.509c3.153-0.604,6.555-0.702,9.749-0.711c6.041-0.017,12.013,0.712,17.914,1.973
				c1.887,0.403,2.223-2.579,0.348-2.98c-9.431-2.016-20.807-3.438-30.29-0.832c-5.949,1.635-11.398,8.251-6.378,13.92
				c0.58-0.774,1.16-1.547,1.74-2.321c-8.284-3.787-16.127,4.703-11.64,12.68C536.755,350.304,539.515,349.121,538.567,347.434
				L538.567,347.434z"/>
		</g>
	</g>
</g>
</svg>
