<?xml version="1.0" encoding="UTF-8"?><svg xmlns="http://www.w3.org/2000/svg" viewBox="0 0 1920 1080"><g id="AXE"><circle cx="958.134" cy="537.133" r="18.112" fill="#f86806"/><line x1="958.5" y1="36.5" x2="958.5" y2="523.5" fill="none" stroke="#f86806" stroke-linecap="square" stroke-linejoin="round" stroke-width=".5"/></g><g id="FRAGMENTS"><g id="AQUA_004_019_FRAG_001"><path d="M1014.042,99.441c1.389-3.684,2.778-7.369,4.167-11.053,.57-1.511,.948-3.51,1.843-4.845,3.91-5.834,6.27-.81,7.254,2.411,.348,1.14,1.936,1.089,2.573,.3,2.279-2.82,6.522-4.969,7.817-.031,.323,1.23,.23,2.622,.383,3.887,.418,3.459,1.268,6.851,2.511,10.105,2.425,6.345,6.335,11.788,11.293,16.394,1.416,1.315,3.206-1.095,1.804-2.397-4.377-4.066-7.829-8.923-10.073-14.478-2.026-5.017-1.862-10.042-3.173-15.13-2.047-7.944-9.188-4.823-12.961-.154,.858,.1,1.715,.2,2.573,.3-1.255-4.108-4.919-9.862-9.897-6.548-2.103,1.4-2.927,4.313-3.768,6.508-1.734,4.525-3.42,9.069-5.129,13.604-.681,1.807,2.099,2.936,2.781,1.128h0Z" fill="#c6e1ca"/></g><g id="AQUA_004_019_FRAG_002"><path d="M1067.277,119.541c6.314-5.276,10.912-11.907,13.577-19.693l-2.88-.738c-.357,8.108,8.978,8.153,13.612,3.847,7.259-6.744,9.639-17.903,11.916-27.101,.463-1.869-2.521-2.2-2.98-.348-1.266,5.114-2.556,10.266-4.619,15.13-.993,2.342-2.166,4.624-3.594,6.732-.832,1.229-1.718,2.531-2.903,3.446-1.948,1.504-8.7,4.247-8.453-1.358,.07-1.593-2.3-2.435-2.88-.738-2.51,7.333-6.708,13.497-12.657,18.468-1.481,1.238,.376,3.594,1.861,2.353h0Z" fill="#c6e1ca"/></g><g id="AQUA_004_019_FRAG_003"><path d="M1119.367,91.753c7.601-1.238,2.663,8.771,1.675,10.615-.472,.88,.334,1.947,1.216,2.054,5.872,.71-1.211,23.051-2.006,25.869-.519,1.841,2.257,2.984,2.781,1.128,1.99-7.052,3.94-14.398,4.602-21.713,.353-3.902-.638-7.732-5.029-8.263,.405,.685,.811,1.369,1.216,2.054,1.856-3.464,3.838-7.72,1.688-11.517-1.407-2.485-3.832-3.643-6.6-3.192-1.902,.31-1.455,3.277,.457,2.966h0Z" fill="#c6e1ca"/></g><g id="AQUA_004_019_FRAG_004"><path d="M1134.643,141.718c.554-.971,1.051-2.072,1.807-2.9,1.211-1.324,6.179-4.913,6.723-.36,.142,1.191,2.018,1.81,2.682,.674,1.447-2.479,6.384-9.689,9.33-4.346,.628,1.139,2.19,1.182,2.765-.038,5.609-11.9,14.139-21.818,25.005-29.222,1.598-1.089-.272-3.436-1.861-2.353-11.288,7.692-20.104,18.096-25.925,30.448,.922-.013,1.843-.025,2.765-.038-4.148-7.524-11.605-1.173-14.475,3.745l2.682,.674c-.369-3.088-2.96-5.014-6.085-4.844-3.831,.209-6.103,3.766-7.809,6.756-.946,1.658,1.443,3.478,2.397,1.804h0Z" fill="#c6e1ca"/></g><g id="AQUA_004_019_FRAG_005"><path d="M1177.023,136.594c.165,5.765-4.272,11.537-2.044,17.322,1.273,3.307,4.539,5.607,8.116,4.649,2.527-.677,4.488-2.737,6.352-4.431,2.763-2.512,5.493-5.06,8.218-7.612,5.451-5.104,10.842-10.273,16.186-15.489,1.37-1.337-.479-3.703-1.861-2.353-7.125,6.956-14.338,13.821-21.655,20.574-1.702,1.571-3.355,3.294-5.184,4.719-2.48,2.619-5.034,1.891-7.664-2.184-.208-1.876-.017-3.711,.575-5.505,.904-3.495,2.032-6.486,1.928-10.146-.055-1.923-3.02-1.454-2.966,.457h0Z" fill="#c6e1ca"/></g><g id="AQUA_004_019_FRAG_006"><path d="M1211.433,163.779c7.978,2.96-.436,11.384-3.768,13.997-1.529,1.199,.296,3.469,1.861,2.353,4.924-3.513,10.996-4.389,16.726-2.476,1.825,.609,2.961-2.169,1.128-2.781-6.782-2.264-13.884-1.255-19.715,2.904l1.861,2.353c3.43-2.69,7.439-5.934,7.963-10.594,.413-3.671-1.414-7.233-4.929-8.537-1.81-.671-2.94,2.109-1.128,2.781h0Z" fill="#c6e1ca"/></g><g id="AQUA_004_019_FRAG_007"><path d="M1256.966,172.627c4.817-2.928,9.727-5.689,14.75-8.247,2.411-1.228,4.861-2.576,7.377-3.586,.837-.336,2.326-1.183,3.206-1.022,5.711,1.044,.594,5.384-.482,6.375-7.641,7.038-16.474,13.124-25.25,18.642-6.028,3.79-14.319,7.5-16.542,14.938-1.569,5.251,.361,11.038,5.539,13.245,1.78,.759,2.902-2.024,1.128-2.781-6.288-2.681-4.488-10.434-.733-14.395,3.484-3.675,8.227-5.989,12.469-8.655,9.211-5.791,19.512-12.265,27-20.25,3.613-3.853,3.807-10.565-2.984-10.125-4.436,.288-8.898,3.303-12.742,5.279-4.971,2.556-9.821,5.326-14.596,8.229-1.648,1.002,.23,3.345,1.861,2.353h0Z" fill="#c6e1ca"/></g><g id="AQUA_004_019_FRAG_008"><path d="M1264.457,224.3c9.749-3.664,19.52-7.394,29.574-10.153,2.626-.721,10.667-3.233,6.649,3.485-.981,1.64-4.212,3.164-5.748,4.297-3.82,2.818-7.834,5.488-11.494,8.511-3.326,2.748-6.349,7.939-1.367,10.854,2.799,1.638,5.567,.569,8.374-.361,1.837-1.404,3.661-.98,5.471,1.273-.768,1.041-1.537,2.082-2.305,3.122-1.537,2.082-3.073,4.163-4.61,6.245-1.149,1.556,1.25,3.359,2.397,1.804,1.92-2.601,3.882-5.177,5.763-7.806,1.037-1.45,2.634-3.075,2.615-5.031-.026-2.641-2.658-4.222-5.068-4.215-1.714,.005-3.178,.852-4.71,1.488-1.119,.59-2.3,1.029-3.544,1.316l-1.737-5.876c.285-.955,2.744-2.087,3.501-2.645,4.848-3.577,10.518-6.885,14.818-11.102,5.363-5.26-.04-10.154-6.111-9.195-11.419,1.803-22.913,7.196-33.672,11.24-1.808,.679-.603,3.427,1.204,2.749h0Z" fill="#c6e1ca"/></g><g id="AQUA_004_019_FRAG_009"><path d="M1299.592,278.006c3.446,6.722,10.13,10.957,17.67,11.32,1.918,.092,2.28-2.887,.348-2.98-6.453-.311-12.29-3.733-15.269-9.544-.876-1.71-3.633-.521-2.749,1.204h0Z" fill="#c6e1ca"/></g><g id="AQUA_004_019_FRAG_0010"><path d="M1333.758,298.364c8.905-1.438,17.65,1.639,23.432,8.621,1.232,1.487,3.587-.37,2.353-1.861-6.447-7.785-16.292-11.333-26.242-9.726-1.903,.307-1.456,3.275,.457,2.966h0Z" fill="#c6e1ca"/></g><g id="AQUA_004_020_FRAG_001"><path d="M1361.665,332.291c-2.624,1.626-3.315,4.67-2.29,7.531,.726,2.028,2.409,3.566,3.86,5.067,2.994,3.096,3.069,5.385,2.455,9.434-1.695,11.173,9.88,16.603,18.526,19.595,1.821,.63,2.954-2.149,1.128-2.781-4.17-1.443-8.587-2.894-12.026-5.773-4.853-4.063-4.62-7.939-3.952-13.553,.284-2.384-.169-4.206-1.537-6.235-1.691-2.509-9.41-7.765-4.303-10.93,1.64-1.017-.236-3.36-1.861-2.353h0Z" fill="#52b378"/></g><g id="AQUA_004_020_FRAG_002"><path d="M1394.309,392.196c-2.577,4.472-9.257,5.968-10.351,11.428-.37,1.845,.009,3.956,1.301,5.382,.413,.456,1.14,.663,1.515,1.107,1.067,.047,1.423,.598,1.069,1.65-.265,.446-.525,.894-.78,1.346-3.569,12.378,7.399,18.069,17.688,20.97,1.841,.519,2.984-2.257,1.128-2.781-4.612-1.301-9.556-2.623-13.129-5.995-2.257-2.129-4.086-5.495-3.618-8.727,.292-2.016,2.04-3.486,2.213-5.455,.088-.999,.038-1.278-.528-2.092-.263-.378-.664-.524-.912-.845l-.971-.454c-.399-1.765-.799-3.529-1.198-5.294,.518-1.632,3.719-3.132,5.033-4.136,1.661-1.269,2.893-2.485,3.939-4.3,.954-1.655-1.435-3.474-2.397-1.804h0Z" fill="#52b378"/></g><g id="AQUA_004_020_FRAG_003"><path d="M1416.354,449.891c-4.072,4.105-12.467,5.829-13.014,12.72-.442,5.562,5.207,8.468,9.607,10.168,1.802,.696,2.93-2.084,1.128-2.781-4.421-1.708-10.738-5.315-5.946-10.582,2.795-3.072,7.136-4.197,10.087-7.172,1.345-1.356-.502-3.723-1.861-2.353h0Z" fill="#52b378"/></g><g id="AQUA_004_020_FRAG_004"><path d="M1413.313,490.188c-11.089,8.556-.297,21.244,7.203,27.419,1.495,1.231,3.291-1.173,1.804-2.397-5.882-4.844-16.498-15.453-7.146-22.669,1.531-1.181-.331-3.534-1.861-2.353h0Z" fill="#52b378"/></g><g id="AQUA_004_020_FRAG_005"><path d="M1427.397,536.728c1.286,.167,2.539,.478,3.758,.934,1.959,3.528,1.633,5.423-.978,5.685-1.585,.844-3.951,.769-5.699,.959-3.223,.351-6.576,.536-9.63,1.733-4.561,1.787-8.155,5.39-8.353,10.441-.075,1.917,2.904,2.281,2.98,.348,.528-13.513,19.225-5.947,25.694-12.709,5.162-5.396-3.082-9.621-7.424-10.371-1.904-.329-2.246,2.652-.348,2.98h0Z" fill="#52b378"/></g><g id="AQUA_004_020_FRAG_006"><path d="M1417,573.96c2.722,1.343,3.28,1.477,3.906,4.686,.693,3.549,.084,3.319-2.98,3.972-1.733,.369-3.512,.381-5.228,.865-3.468,.978-6.722,3.195-8.13,6.618-3.661,8.899,5.629,15.322,12.208,18.955,1.689,.933,2.798-1.859,1.128-2.781-5.627-3.107-16.652-11.117-8.338-17.946,3.695-3.035,8.528-1.72,12.515-3.81,2.295-1.203,3.527-3.339,3.219-5.927-.461-3.874-4.018-5.856-7.173-7.413-1.735-.856-2.85,1.931-1.128,2.781h0Z" fill="#52b378"/></g><g id="AQUA_004_020_FRAG_007"><path d="M1423.672,625.164c4.714,3.213,5.106,5.417,1.175,6.612-.948-.051-1.897-.101-2.845-.152-1.589-.159-3.098-.648-4.715-.479-1.548,.161-3.205,.686-4.379,1.756-2.685,2.447-1.661,5.531,.871,7.52,1.886,1.481,5.424,2.103,2.812,6.456-1.495,2.493-5.547,2.135-7.92,1.833-3.332-.424-6.557-1.502-9.88-1.998-5.612-.837-11.151-.303-15.588,3.501-1.464,1.255,.391,3.613,1.861,2.353,8.981-7.697,19.077,1.194,28.893-.912,5.06-1.086,9.009-7.171,4.745-11.449-.514-.516-2.997-1.612-3.119-2.18,.92-1.307,1.84-2.613,2.76-3.92,.831,.091,1.658,.21,2.481,.36,.885,.124,1.779,.322,2.675,.329,2.86,.021,5.389-.922,6.708-3.599,2.476-5.023-1.954-9.518-6.993-8.995-1.92,.199-1.463,3.165,.457,2.966h0Z" fill="#52b378"/></g><g id="AQUA_004_020_FRAG_008"><path d="M1382.142,667.247c-1.581,3.657-2.082,7.564-1.002,11.452,.583,2.099,1.578,3.949,2.859,5.695,2.14,2.917,8.437,9.974,.952,11.472-3.173,.635-6.373-1.326-9.414-2.076-2.183-.539-4.405-.788-6.652-.78-5.026,.018-9.75,1.435-14.088,3.915-1.658,.948-.475,3.709,1.204,2.749,6.543-3.742,13.711-4.622,20.926-2.357,3.893,1.223,8.617,3.2,12.309,.218,3.097-2.502,2.649-6.696,.976-9.869-1.415-2.684-3.906-4.626-5.275-7.35-1.951-3.883-1.689-8.065-.013-11.94,.768-1.776-2.015-2.898-2.781-1.128h0Z" fill="#52b378"/></g><g id="AQUA_004_021_FRAG_001"><path d="M1347.346,715.071c-9.628,4.918-10.549,17.713-1.239,23.57-.009-.792-.019-1.583-.028-2.375-7.119,5.04-.88,14.71,3.017,19.764,5.755,7.463,13.746,12.821,22.739,15.549,1.836,.557,2.975-2.22,1.128-2.781-6.455-1.958-12.298-5.206-17.205-9.864-3.861-3.664-14.485-15.597-7.818-20.316,.744-.527,.769-1.874-.028-2.375-7.233-4.55-7.193-14.425,.638-18.424,1.711-.874,.522-3.63-1.204-2.749h0Z" fill="#b6e565"/></g><g id="AQUA_004_021_FRAG_002"><path d="M1322.243,759.278c-4.992,8.974,2.01,19.281,7.798,26.046,6.959,8.134,15.951,14.202,25.976,17.882,1.811,.665,2.942-2.115,1.128-2.781-8.566-3.145-16.347-8.036-22.664-14.654-5.864-6.144-14.347-16.576-9.457-25.366,.938-1.686-1.854-2.794-2.781-1.128h0Z" fill="#b6e565"/></g><g id="AQUA_004_021_FRAG_003"><path d="M1324.786,814.105c-5.428-2.559-10.857-5.119-16.285-7.678-3.093-1.458-9.109-5.881-12.722-5.079-8.272,1.836,2.325,11.706,4.222,13.676,3.98,4.135,7.961,8.269,11.941,12.404,1.99,2.067,3.98,4.135,5.971,6.202,.881,.915,6.514,5.669,6.348,6.698-1.26,1.095-2.521,2.189-3.781,3.284l-1.282-.968c-1.218-.509-2.686-2.099-3.769-2.945-2.261-1.767-4.523-3.534-6.784-5.301-5.025-3.927-10.05-7.854-15.075-11.781-1.218-.952-2.82,.445-2.276,1.8,2.196,5.48,4.392,10.96,6.588,16.44,.718,1.793,3.468,.591,2.749-1.204-2.196-5.48-4.392-10.96-6.588-16.44l-2.276,1.8c5.025,3.927,10.05,7.854,15.075,11.781,4.222,3.3,8.548,7.762,13.362,10.151,6.551,3.251,10.417-3.147,6.411-8.479-3.498-4.655-8.28-8.704-12.318-12.9-4.202-4.364-8.403-8.729-12.605-13.093-1.179-1.225-7.252-6.029-3.745-7.711,.932-.447,7.359,3.47,8.571,4.041,5.714,2.694,11.428,5.388,17.143,8.082,1.75,.825,2.868-1.96,1.128-2.781h0Z" fill="#b6e565"/></g><g id="AQUA_004_021_FRAG_004"><path d="M1283.29,850.86c-.538,4.04-11.954-3.924-13.4-4.727-2.825-1.57-5.81-2.969-9.037-3.443-5.309-.78-10.694,.719-13.911,5.176-1.131,1.567,1.266,3.372,2.397,1.804,6.949-9.627,19.099-.742,26.312,3.407,3.554,2.044,9.819,4.129,10.618-1.87,.255-1.915-2.725-2.263-2.98-.348h0Z" fill="#b6e565"/></g><g id="AQUA_004_021_FRAG_005"><path d="M1237.536,863.377c3.671,4.882,2.179,11.632-2.94,14.794-.718,.443-.666,1.506-.246,2.107,9.941,14.243,15.133,31.097,14.882,48.469-.028,1.912,2.952,2.28,2.98,.348,.263-18.217-5.079-35.734-15.509-50.678l-.246,2.107c6.549-4.046,8.008-12.923,3.432-19.008-1.163-1.546-3.514,.317-2.353,1.861h0Z" fill="#b6e565"/></g><g id="AQUA_004_021_FRAG_006"><path d="M1232.242,919.164c-4.136-6.194-8.272-12.389-12.408-18.583-2.477-3.71-5.4-9.467-10.748-8.981-3.44,.312-5.272,3.345-5.371,6.569-.094,3.056,1.326,6.223,2.225,9.073,1.217,3.856,2.433,7.712,3.65,11.567,.562,1.78,1.123,3.559,1.685,5.339,.714,2.261,3.364,5.617,.243,6.521-1.237,1.064-2.094,.809-2.571-.764-.626-.872-1.21-1.771-1.752-2.698-1.014-1.644-1.936-3.33-2.817-5.049-2.648-5.168-4.568-11.43-8.365-15.898-2.261-2.66-6.354-4.662-9.703-2.628-2.891,1.756-3.3,5.391-1.305,7.911,1.2,1.516,3.553-.345,2.353-1.861,1.715-.904,3.43-1.808,5.146-2.712l1.59,1.666c.93,1.185,1.597,2.597,2.277,3.936,1.165,2.294,2.243,4.631,3.362,6.948,1.913,3.961,3.895,7.903,6.381,11.542,1.451,2.123,3.585,5.41,6.687,4.766,2.532-.525,3.362-3.041,3.289-5.29-.148-4.545-2.676-9.522-4.033-13.822-.842-2.669-1.685-5.339-2.527-8.008-.716-2.268-3.293-7.1-2.74-9.255l4.318-4.582c.885,.722,1.771,1.445,2.656,2.167,.841,.912,1.477,2.057,2.165,3.081,1.384,2.061,2.757,4.13,4.136,6.194,3.274,4.904,6.549,9.808,9.823,14.712,1.074,1.608,3.42-.263,2.353-1.861h0Z" fill="#b6e565"/></g><g id="AQUA_004_021_FRAG_007"><path d="M1174.964,935.74c.945,9.024,11.18,27.123-2.277,31.266-1.841,.567-.626,3.312,1.204,2.749,15.609-4.805,5.099-24.352,4.039-34.471-.201-1.919-3.167-1.463-2.966,.457h0Z" fill="#b6e565"/></g><g id="AQUA_004_021_FRAG_008"><path d="M1150.15,924.195c-10.707,3.145-16.181,13.037-15.252,23.827,1.068,12.408,9.166,24.85,4.779,37.375-.637,1.819,2.142,2.952,2.781,1.128,3.471-9.91-.189-19.675-2.737-29.341-3.199-12.134-2.635-26.049,11.633-30.24,1.846-.542,.63-3.287-1.204-2.749h0Z" fill="#b6e565"/></g><g id="AQUA_004_021_FRAG_009"><path d="M1120.679,982.23c-1.128-2.806-3.802-4.869-6.962-3.839-1.544,.503-2.671,1.594-3.394,3.014-.981,1.926-.816,5.137-3.832,1.532-3.428-4.097-3.948-12.089-4.906-17.174-1.005-5.336-1.991-10.753-4.127-15.777-1.257-2.958-3.284-7.544-6.868-8.304-2.818-.598-5.155,1.368-5.949,3.98-1.514,4.984,1.013,12.085,1.766,17.08,1.081,7.159,2.161,14.319,3.242,21.478,.288,1.907,3.255,1.458,2.966-.457-1.572-10.413-3.182-20.822-4.716-31.241-.185-1.158-.352-2.318-.501-3.481,2.825-3.812,4.806-4.042,5.945-.691,1.028,1.827,1.812,3.806,2.476,5.79,1.4,4.18,2.134,8.552,2.947,12.873,1.164,6.183,2.287,15.85,7.046,20.524,1.266,1.243,2.94,2.083,4.648,1.084,.602-.352,1.003-.91,1.35-1.51,.2-.432,.351-.88,.455-1.342,.193-2.459,2.081-3.238,5.665-2.335,.72,1.792,3.469,.59,2.749-1.204h0Z" fill="#b6e565"/></g><g id="AQUA_004_021_FRAG_010"><path d="M1065.071,953.195c-8.429-.396-9.883,8.752-10.15,15.327-.445,10.995,2.242,21.756,4.933,32.327,.472,1.852,3.443,1.419,2.966-.457-1.757-6.9-3.513-13.826-4.395-20.903-.651-5.219-2.906-23.747,6.298-23.315,1.918,.09,2.28-2.889,.348-2.98h0Z" fill="#b6e565"/></g><g id="AQUA_004_021_FRAG_011"><path d="M1040.599,977.011c-5.463-11.461-14.819-20.237-26.629-24.912-1.797-.711-2.924,2.07-1.128,2.781,11.085,4.389,19.875,12.569,25.008,23.335,.829,1.739,3.583,.546,2.749-1.204h0Z" fill="#b6e565"/></g><g id="AQUA_004_022_FRAG_001"><path d="M1003.704,996.106c-1.905-3.626-4.176-7.635-8.439-8.766-4.678-1.24-8.402,2.815-12.871,3.413-10.248,1.371-18.637,4.699-25.14,13.145-1.181,1.534,1.219,3.334,2.397,1.804,4.902-6.367,11.854-10.638,19.88-11.67,3.339-.429,6.103-.478,9.13-2.002,2.37-1.193,4.956-2.207,7.721-.91,2.161,1.014,3.552,4.245,4.573,6.188,.893,1.699,3.65,.512,2.749-1.204h0Z" fill="#3db2af"/></g><g id="AQUA_004_022_FRAG_002"><path d="M936.028,998.119c-9.96-.769-2.4-23.53-.533-28.391,.693-1.803-2.088-2.932-2.781-1.128-2.775,7.224-10.724,31.441,2.966,32.498,1.92,.148,2.277-2.831,.348-2.98h0Z" fill="#3db2af"/></g><g id="AQUA_004_022_FRAG_003"><path d="M905.199,990.653c-3.586,.138-5.496-3.36-4.801-6.277,.303-1.273-1.499-2.157-2.42-1.35-4.612-.216-6.514-2.043-5.707-5.481,.266-1.458,.646-2.885,1.139-4.279,.42-1.307-1.123-2.831-2.321-1.74-5.616,5.113-5.56-6.345-5.421-8.024,.122-1.476,.355-2.905,.279-4.394-.135-2.65-.819-4.778-2.675-6.7-1.331-1.378-3.696,.471-2.353,1.861,4.779,4.949-.758,12.445,2.863,17.965,2.044,3.115,6.308,4.249,9.169,1.645-.774-.58-1.547-1.16-2.321-1.74-1.281,3.985-2.635,8.98,.395,12.581,2.356,2.8,6.129,3.013,8.815,.661l-2.42-1.35c-1.271,5.339,2.966,9.794,8.237,9.591,1.923-.074,1.457-3.04-.457-2.966h0Z" fill="#3db2af"/></g><g id="AQUA_004_022_FRAG_004"><path d="M861.765,963.834c-1.908,.034-3.817,.068-5.725,.102-.268-.899-1.65-1.172-2.305-.575-1.049,.956-1.673,1.636-2.436,2.855-.501,.897-.969,1.81-1.404,2.741-.651,2.182-2.132,2.666-4.442,1.45,.635-1.837-1.933-2.855-2.781-1.128-.342,.789-.75,1.542-1.226,2.258-1.002,2.327-3.102,2.533-6.301,.619,.324-1.905-2.657-2.247-2.98-.348-.551,3.239,1.765,6.02,5.139,5.972,4.238-.061,6.518-4.051,8.149-7.373l-2.781-1.128c-.998,2.885,.894,5.867,4.177,5.757,4.901-.165,5.869-6.699,8.748-9.322-.768-.192-1.537-.383-2.305-.575,1.977,6.622,10.358,5.552,11.454-.958,.321-1.905-2.66-2.248-2.98-.348h0Z" fill="#3db2af"/></g><g id="AQUA_004_022_FRAG_005"><path d="M829.295,959.97c.302-3.627,.686-7.259,.908-10.892,.098-1.602,.414-3.68-.71-5.077-1.749-2.175-4.819-1.564-6.633,.083-1.335,1.211-2.001,2.888-2.816,4.457-1.581,3.043-3.349,5.952-5.377,8.719-3.818,5.209-8.413,9.698-13.553,13.591-1.542,1.168,.321,3.519,1.861,2.353,5.776-4.375,10.893-9.516,15.042-15.472,.936-1.344,1.819-2.724,2.654-4.133,.649-1.095,1.608-3.99,2.524-4.661,1.37-.399,2.741-.799,4.111-1.198l-.33,3.961-.66,7.921c-.16,1.92,2.819,2.276,2.98,.348h0Z" fill="#3db2af"/></g><g id="AQUA_004_022_FRAG_006"><path d="M798.847,953.945c-.989-1.508-1.977-3.015-2.966-4.523,.401-1.286-1.13-2.866-2.321-1.74-4.531,4.286-9.625-.861-9.786-5.811-.127-3.891,1.792-7.331,3.757-10.562,2.734-4.496,5.571-8.497,6.608-13.761,.373-1.895-2.609-2.233-2.98-.348-1.898,9.636-12.747,17.099-10.055,27.738,1.591,6.289,9.21,9.927,14.316,5.096-.774-.58-1.547-1.16-2.321-1.74-1.299,4.166,1.02,8.032,5.399,8.631,1.914,.261,2.262-2.718,.348-2.98h0Z" fill="#3db2af"/></g><g id="AQUA_004_022_FRAG_007"><path d="M767.267,916.835c-9.02,5.079-18.039,10.158-27.059,15.237-1.666,.938-.483,3.698,1.204,2.749,9.02-5.079,18.039-10.158,27.059-15.237,1.666-.938,.483-3.698-1.204-2.749h0Z" fill="#3db2af"/></g><g id="AQUA_004_022_FRAG_008"><path d="M739.787,912.989c-2.931-.288-4.189-1.89-3.775-4.806,.259-1.456-1.867-2.288-2.689-1.076-1.439-.852-2.877-1.703-4.316-2.555,.654-1.324-1.234-2.741-2.321-1.74-3.167,2.916-8.35,2.503-10.59-1.445-.943-1.662-3.703-.479-2.749,1.204,3.099,5.463,10.461,6.957,15.199,2.594l-2.321-1.74c-3.208,6.49,5.425,11.491,9.494,5.486-.896-.359-1.792-.717-2.689-1.076-.755,4.241,2.103,7.869,6.407,8.133,1.919,.118,2.279-2.861,.348-2.98h0Z" fill="#3db2af"/></g><g id="AQUA_004_022_FRAG_009"><path d="M709.163,889.051c-5.021-2.594-9.405,.33-12.848,4.053-2.865,3.098-5.671,6.176-8.882,8.926-1.928,1.651-13.66,11.716-14.88,4.981-.343-1.894-3.311-1.45-2.966,.457,1.229,6.784,8.365,5.146,12.609,2.326,3.96-2.63,7.651-5.709,11.045-9.033,3.704-3.627,8.682-12.087,14.794-8.93,1.717,.887,2.83-1.902,1.128-2.781h0Z" fill="#3db2af"/></g><g id="AQUA_004_022_FRAG_010"><path d="M681.267,881.287c-.454-4.767-6.36-7.902-10.519-5.405-1.632,.98-.452,3.743,1.204,2.749,2.535-1.522,6.063,.106,6.35,3.113,.183,1.921,3.149,1.463,2.966-.457h0Z" fill="#3db2af"/></g><g id="AQUA_004_022_FRAG_011"><path d="M660.479,865.337c4.947-3.808,5.783-11.864,1.091-16.264-4.67-4.38-12.699-3.086-16.158,2.122-1.066,1.605,1.328,3.415,2.397,1.804,2.467-3.716,8.212-4.964,11.66-1.774,3.427,3.171,2.693,9.029-.852,11.758-1.533,1.18,.33,3.532,1.861,2.353h0Z" fill="#3db2af"/></g><g id="AQUA_004_022_FRAG_012"><path d="M633.076,839.775c8.205-11.133,18.699-30.055,3.646-40.692-1.577-1.115-3.383,1.282-1.804,2.397,13.556,9.578,2.938,26.753-4.239,36.49-1.147,1.557,1.251,3.36,2.397,1.804h0Z" fill="#3db2af"/></g><g id="AQUA_004_023_FRAG_001"><path d="M566.708,301.31c3.431-8.661,14.338-6.65,21.668-8.109,4.989-.993,9.166-3.312,11.517-7.929,.877-1.723-1.911-2.836-2.781-1.128-6.407,12.581-27.409,1.459-33.185,16.039-.712,1.797,2.069,2.924,2.781,1.128h0Z" fill="#4cd36f"/></g><g id="AQUA_004_023_FRAG_002"><path d="M601.116,269.464c-2.142-7.854,1.219-14.254,7.692-18.691,4.007-2.746,7.838-5.044,10.086-9.497,.871-1.726-1.917-2.84-2.781-1.128-3.086,6.116-10.514,7.855-14.693,13.019-3.829,4.73-4.85,10.957-3.27,16.753,.502,1.839,3.475,1.409,2.966-.457h0Z" fill="#4cd36f"/></g><g id="AQUA_004_023_FRAG_003"><path d="M627.947,223.497c1.258-3.243,6.355-.597,8.638-.438,1.875,.13,3.615-.361,5.003-1.638,3.438-3.162,2.556-8.015,1.436-12.003-.515-1.833-3.488-1.404-2.966,.457,.702,2.501,1.728,5.655,.407,8.14-1.803,3.391-5.586,1.416-8.412,1.044-2.83-.373-5.789,.48-6.888,3.312-.699,1.801,2.082,2.929,2.781,1.128h0Z" fill="#4cd36f"/></g><g id="AQUA_004_023_FRAG_004"><path d="M651.663,195.724c1.645-1.213,3.29-2.425,4.935-3.638l2.689,.671c.642,.166,1.271,.381,1.917,.534,1.814,.429,3.627,.735,5.494,.808,3.285,.128,6.56-.344,9.697-1.312,6.775-2.091,12.484-6.498,16.219-12.51,1.013-1.631-1.378-3.445-2.397-1.804-5.676,9.138-16.612,14.34-27.307,12.157-3.642-.743-7.606-2.786-11.239-.875-2.807,1.477-3.801,4.327-2.756,7.173,.665,1.813,3.413,.606,2.749-1.204h0Z" fill="#4cd36f"/></g><g id="AQUA_004_023_FRAG_005"><path d="M709.953,178.332c-1.547-1.871-4.292-4.73-3.557-7.438,1.675-6.174,6.919-1.101,8.73,.63,1.076,1.028,2.981-.523,2.276-1.8-1.575-2.856-4.653-4.332-6.219-7.002-1.677-1.524-1.264-2.539,1.24-3.045,1.252-1.744,2.386-1.881,3.405-.411,1.391,.561,2.611,1.936,4.094,2.559,1.535,.645,2.913-1.643,1.466-2.589-2.052-1.342-10.124-7.852-.661-7.922,1.203-.009,3.097,1.164,4.474,1.325,1.917,.224,2.268-2.755,.348-2.98-4.054-.473-9.283-4.574-11.802,1.008-2.167,4.803,2.277,8.639,5.836,10.966,.489-.863,.977-1.726,1.466-2.589-3.656-1.537-10.303-9.035-13.708-2.485-3.174,6.105,4.989,10.152,7.313,14.367,.759-.6,1.518-1.2,2.276-1.8-3.164-3.023-8.485-6.467-12.091-2.024-3.534,4.354-.147,9.573,2.761,13.091,1.23,1.488,3.586-.369,2.353-1.861h0Z" fill="#4cd36f"/></g><g id="AQUA_004_023_FRAG_006"><path d="M734.333,136.579c1.132-5.038,14.288,5.808,15.629,6.663,1.925,1.227,4.296,2.723,6.686,1.928,2.057-.684,3.035-2.688,2.967-4.75-.055-1.666-.932-2.857-1.513-4.352-1.407-3.623-1.658-6.453,.517-9.801,1.048-1.614-1.345-3.425-2.397-1.804-1.952,3.006-2.871,6.355-2.006,9.913,.247,1.014,.883,1.917,1.138,2.896l.645,1.259-2.027,3.561c-1.253,.447-6.813-4.57-8.045-5.458-3.952-2.849-12.695-8.768-14.574-.403-.423,1.882,2.56,2.216,2.98,.348h0Z" fill="#4cd36f"/></g><g id="AQUA_004_023_FRAG_007"><path d="M776.754,119.665c2.438,4.963,5.985,10.977,12.453,10.238,2.196-.251,4.17-1.338,5.293-3.28,1.947-3.366-.095-7.599,2.158-10.832-.7,.099-1.401,.198-2.101,.297,9.195,6.052,20.183,7.88,30.806,4.899,1.833-.514,1.404-3.488-.457-2.966-9.829,2.758-19.998,1.295-28.545-4.331-.657-.433-1.614-.402-2.101,.297-1.905,2.734-1.151,5.073-1.719,8.16-1.066,5.797-6.226,5.562-9.467,2.224-1.598-1.646-2.572-3.876-3.572-5.911-.848-1.727-3.603-.536-2.749,1.204h0Z" fill="#4cd36f"/></g><g id="AQUA_004_023_FRAG_008"><path d="M831.988,97.864c6.088,1.549,12.189,1.498,18.252-.147,1.84-.499,1.41-3.472-.457-2.966-5.818,1.578-11.608,1.619-17.447,.133-1.865-.475-2.194,2.51-.348,2.98h0Z" fill="#4cd36f"/></g><g id="AQUA_004_023_FRAG_009"><path d="M865.783,110.931c6.149,4.776,14.379,3.861,20.255-.941,7.316-5.979,9.506-15.656,11.382-24.439,.403-1.887-2.579-2.223-2.98-.348-1.439,6.738-2.94,13.846-7.317,19.38-4.72,5.969-13.016,9.015-19.536,3.95-1.529-1.187-3.329,1.213-1.804,2.397h0Z" fill="#4cd36f"/></g><g id="AQUA_004_023_FRAG_010"><path d="M907.199,94.197c2.04,4.281,5.447,9.795,11.022,8.762,6.538-1.212,7.479-8.816,7.474-14.191-.002-1.907-2.981-2.278-2.98-.348,.003,3.888,.006,10.514-4.951,11.573-3.988,.852-6.444-4.118-7.817-7-.829-1.739-3.582-.546-2.749,1.204h0Z" fill="#4cd36f"/></g><g id="AQUA_004_023_FRAG_011"><path d="M940.883,98.15c2.262-2.568,6.206,1.634,8.229,2.504,1.653,.711,3.268,.879,5.012,.356,4.373-1.312,6.324-6.296,10.765-7.561,10.961-3.125,20.16,9.33,31.586,4.995,1.806-.685,.601-3.433-1.204-2.749-11.534,4.376-22.519-10.814-34.038-3.959-1.852,1.102-3.125,2.766-4.747,4.132-1.062,.895-2.481,2.299-3.947,2.47-2.487,.29-4.05-1.785-5.956-2.79-2.875-1.516-5.843-1.758-8.096,.799-1.279,1.452,1.128,3.245,2.397,1.804h0Z" fill="#4cd36f"/></g><g id="AQUA_004_024_FRAG__001"><path d="M611.345,806.98c-3.665-.101-7.33-.203-10.995-.304-1.832-.051-3.665-.101-5.497-.152-.833-.023-3.99,.313-4.801-.17-3.488-2.076,2.954-6.309,3.905-7.801,1.041-1.635,1.6-3.617,1.675-5.547,.341-8.785-9.336-13.568-16.553-9.297-1.64,.97-.459,3.733,1.204,2.749,6.491-3.841,15.041,1.9,11.663,9.508-1.581,3.562-7.338,4.957-6.778,9.568,.414,3.408,3.811,3.789,6.588,3.894,6.41,.243,12.828,.354,19.241,.532,1.915,.053,2.28-2.926,.348-2.98h0Z" fill="#b0dad4"/></g><g id="AQUA_004_024_FRAG__002"><path d="M582.298,769.983c4.981-4.937,5.793-12.455,1.913-18.315-1.067-1.612-3.413,.26-2.353,1.861,2.907,4.39,2.333,10.38-1.421,14.101-1.358,1.346,.49,3.712,1.861,2.353h0Z" fill="#b0dad4"/></g><g id="AQUA_004_024_FRAG__003"><path d="M565.76,748.95c-2.04,.13-13.817,2.608-11.702-2.922,.906-2.37,4.07-3.329,4.209-6.333,.072-1.563-.706-2.879-1.93-3.738-2.566-1.803-4.936,.025-7.553-.778-7.236-2.222,5.197-9.07,6.788-10.126,2.394-1.587,4.781-3.417,6.178-5.995,2.142-3.951,1.521-8.908-2.442-11.393-1.627-1.02-3.441,1.371-1.804,2.397,10.42,6.533-9.836,15.052-12.724,19.403-2.816,4.245-.823,8.543,4.283,8.683,1.237,.034,3.332-.64,4.363-.139,3.981,1.933-.729,4.792-1.766,6.214-1.153,1.581-2.331,3.578-1.636,5.614,1.781,5.223,12.451,2.317,16.192,2.078,1.924-.123,1.461-3.088-.457-2.966h0Z" fill="#b0dad4"/></g><g id="AQUA_004_024_FRAG__004"><path d="M541.71,703.08c4.926-.671,8.813-5.606,6.553-10.533-.962-2.097-2.918-3.742-5.158-4.323-1.279-.332-2.436-.248-3.715,.01-.235,.047-1.497,.524-1.709,.497-.873,.52-1.446,.115-1.719-1.215-1.724-1.368-1.314-2.287,1.231-2.755,1.7-.877,.59-3.52-1.204-2.749-4.775,1.521-5.976-.745-3.605-6.798l-1.532-2.551c-3.456,2.903-5.136,1.354-5.039-4.648,1.899-.326,1.453-3.294-.457-2.966-4.278,.735-6.783,5.106-4.207,9.025,2.761,4.201,7.998,3.518,11.565,.941,1.353-.977-.042-3.418-1.532-2.551-7.915,4.605-2.564,15.984,6.012,12.295l-1.204-2.749c-3.003,1.55-7.583,5.277-4.318,9.022,1.298,1.489,3.058,1.392,4.832,1.164,1.364-.176,2.626-1.068,4.003-1.167,6.497-.467,6.944,8.24,.747,9.083-1.912,.26-1.461,3.227,.457,2.966h0Z" fill="#b0dad4"/></g><g id="AQUA_004_024_FRAG__005"><path d="M522.335,652.864c1.838-3.665,4.527-6.206,8.259-7.907,1.39-.634,1.022-2.622-.428-2.864-2.695-.449-5.391-.899-8.086-1.348-1.232-.205-3.39-.109-4.492-.749l-1.717-.436,.952-3.197c1.488-1.185,5.186-.423,7.056-1.092,1.282-.459,2.325-1.136,3.162-2.216,3.904-5.033-.716-10.57-6.237-10.281-1.924,.101-1.459,3.066,.457,2.966,1.39,1.208,2.78,2.416,4.171,3.624l-3.801,3.341c-.828,.336-2.085,.111-2.97,.227-1.526,.2-2.84,.458-4.148,1.34-1.53,1.032-2.835,2.794-2.543,4.73,.329,2.18,2.077,3.145,4.008,3.714,4.394,1.294,9.325,1.604,13.843,2.357l-.428-2.864c-4.457,2.032-7.641,5.152-9.836,9.528-.867,1.729,1.921,2.843,2.781,1.128h0Z" fill="#b0dad4"/></g><g id="AQUA_004_024_FRAG__006"><path d="M531.255,609.57c3.361-4.151,3.029-9.725,.294-14.15-3.601-5.826-10.655-8.016-16.852-9.837-1.838-.54-2.979,2.237-1.128,2.781,4.363,1.282,9.034,2.58,12.615,5.514,4.082,3.345,6.305,9.402,2.673,13.888-1.218,1.505,1.184,3.303,2.397,1.804h0Z" fill="#b0dad4"/></g><g id="AQUA_004_024_FRAG__007"><path d="M529.144,573.125c-4.453-5.308-6.456-11.751-5.74-18.652,.199-1.919-2.78-2.272-2.98-.348-.794,7.643,1.424,14.97,6.366,20.861,1.24,1.478,3.597-.378,2.353-1.861h0Z" fill="#b0dad4"/></g><g id="AQUA_004_024_FRAG__008"><path d="M526.531,541.086c1.058-2.527,9.019-5.277,4.919-9.365-1.629-1.624-4.796-1.271-6.859-1.435-1.77-.141-3.541-.279-5.311-.424-.882-.066-1.764-.14-2.646-.221-1.935,.044-2.968-1.219-3.1-3.789,1.92,.143,2.278-2.836,.348-2.98-5.745-.427-5.599,6.68-1.246,8.839,3.329,1.651,8.001,1.267,11.607,1.554,.474,.038,3.516-.115,3.794,.303,1.57,2.36-.616,2.432-1.462,3.172-1.311,1.148-2.121,1.536-2.825,3.218-.747,1.784,2.035,2.908,2.781,1.128h0Z" fill="#b0dad4"/></g><g id="AQUA_004_024_FRAG__009"><path d="M516.888,512.209c6.675-5.13,4.961-15.531-3.268-17.858-1.841-.52-2.983,2.256-1.128,2.781,5.992,1.694,7.597,8.833,2.534,12.724-1.534,1.179,.329,3.531,1.861,2.353h0Z" fill="#b0dad4"/></g><g id="AQUA_004_024_FRAG__010"><path d="M525.368,485.865c4.264-.426,5.135-5.452,2.526-8.332-2.386-2.633-6.523-3.716-9.667-5.07-4.438-1.912-8.876-3.824-13.315-5.736-1.777-.765-2.899,2.018-1.128,2.781,3.883,1.673,7.767,3.346,11.65,5.019,1.664,.717,3.331,1.429,4.993,2.151,.958,.403,1.909,.82,2.855,1.25,2.414,.68,2.957,2.337,1.628,4.971-1.92,.192-1.463,3.157,.457,2.966h0Z" fill="#b0dad4"/></g><g id="AQUA_004_024_FRAG__011"><path d="M516.253,459.529c4.802-1.31,10.804-3.651,10.516-9.641-.333-6.897-7.254-13.834-12.182-17.963-1.484-1.244-3.28,1.161-1.804,2.397,3.733,3.128,6.937,6.753,9.266,11.054,3.582,6.615-.4,9.591-6.252,11.187-1.839,.502-1.409,3.475,.457,2.966h0Z" fill="#b0dad4"/></g><g id="AQUA_004_024_FRAG__012"><path d="M531.415,429.224c4.441-1.872,9.468-5.575,8.755-11.044-1.019-7.811-16.882-9.934-13.84-17.908,.688-1.805-2.092-2.933-2.781-1.128-1.554,4.074,.195,7.865,3.53,10.48,2.703,2.12,6.545,3.211,8.694,6.016,3.798,4.958-1.336,9.054-5.561,10.835-1.779,.75-.58,3.5,1.204,2.749h0Z" fill="#b0dad4"/></g><g id="AQUA_004_024_FRAG__013"><path d="M535.588,387.376c11.445-6.134,8.609-22.838-4.365-24.577-1.914-.257-2.263,2.723-.348,2.98,9.882,1.325,12.38,14.095,3.509,18.849-1.69,.906-.504,3.664,1.204,2.749h0Z" fill="#b0dad4"/></g><g id="AQUA_004_024_FRAG__014"><path d="M538.567,347.434c-3.075-5.468,1.832-11.407,7.764-8.695,1.342,.613,2.729-1.204,1.74-2.321-4.276-4.828,2.372-8.757,6.305-9.509,3.153-.604,6.555-.702,9.749-.711,6.041-.017,12.013,.712,17.914,1.973,1.887,.403,2.223-2.579,.348-2.98-9.431-2.016-20.807-3.438-30.29-.832-5.949,1.635-11.398,8.251-6.378,13.92,.58-.774,1.16-1.547,1.74-2.321-8.284-3.787-16.127,4.703-11.64,12.68,.937,1.667,3.697,.483,2.749-1.204h0Z" fill="#b0dad4"/></g></g></svg>