<?xml version="1.0" encoding="UTF-8"?><svg xmlns="http://www.w3.org/2000/svg" viewBox="0 0 1920 1080"><g id="AXE"><circle cx="958.134" cy="537.133" r="18.112" fill="#f86806"/><line x1="958.5" y1="36.5" x2="958.5" y2="523.5" fill="none" stroke="#f86806" stroke-linecap="square" stroke-linejoin="round" stroke-width=".5"/></g><g id="FRAGMENTS"><g id="AQUA_006_019_FRAG__001"><path d="M960.719,95.28c1.563-1.681,3.735-1.849,5.446-.252,1.406,1.312,3.627,.63,4.157-1.18,2.294-7.832,7.564-13.626,14.713-17.407,5.649-2.987,11.411-5.535,14.185-11.681,1.317-2.917-3.039-5.378-4.363-2.444-3.357,7.438-12.711,9.066-18.625,13.897-5.249,4.289-8.856,9.909-10.756,16.394l4.157-1.18c-3.695-3.449-9.049-3.345-12.516,.382-2.192,2.357,1.404,5.832,3.6,3.47h0Z" fill="#c6e1ca"/></g><g id="AQUA_006_019_FRAG__002"><path d="M1001.724,93.095c4.32,6.368,12.671,3.588,15.856-2.366,2.362-4.415,2.962-9.885,4.041-14.709,.696-3.111,1.392-6.222,2.088-9.333,.325-1.453,1.366-9.776,4.373-8.079,2.809,1.585,5.247-2.781,2.444-4.363-6.851-3.866-10.057,4.069-11.245,9.335-1.123,4.976-2.227,9.956-3.34,14.933-.559,2.501-.988,5.082-1.813,7.512s-5.037,9.031-8.133,4.467c-1.8-2.653-6.084-.071-4.27,2.603h0Z" fill="#c6e1ca"/></g><g id="AQUA_006_019_FRAG__003"><path d="M1038.752,81.884c4.98-1.624,4.284,12.384,5.298,15.467,1.167,3.553,3.245,6.843,6.216,9.147,5.819,4.512,14.458,4.101,19.351-1.53,2.106-2.424-1.484-5.905-3.6-3.47-3.312,3.812-8.847,4.017-12.748,.967-4.35-3.401-5.241-8.676-5.367-13.858-.144-5.898-3.044-13.973-10.567-11.52-3.05,.995-1.654,5.798,1.418,4.796h0Z" fill="#c6e1ca"/></g><g id="AQUA_006_019_FRAG__004"><path d="M1087.797,99.53c2.377-3.243,6.487-7.858,10.651-4.402,3.635,3.017,3.241,8.571,3.094,12.803-.112,3.218,4.888,3.117,4.999-.092,.237-6.827-.442-15.254-7.742-18.273-6.549-2.709-11.828,2.694-15.366,7.52-1.902,2.595,2.484,5.008,4.363,2.444h0Z" fill="#c6e1ca"/></g><g id="AQUA_006_019_FRAG__005"><path d="M1104.867,128.162c3.803,3.491,8.975,4.763,13.933,3.087,2.437-.824,4.357-2.287,5.956-4.277,1.773-2.206,5.52-11.192,9.349-7.451,1.455,1.421,4.466,.369,4.235-1.846-.609-5.835,3.791-9.905,9.62-8.26,3.104,.876,4.334-3.972,1.24-4.845-8.722-2.461-16.812,4.076-15.859,13.197l4.235-1.846c-3.318-3.242-8.2-2.525-11.476,.508-2.545,2.356-3.503,5.922-5.977,8.296-3.335,3.199-8.498,2.854-11.785-.162-2.37-2.176-5.846,1.419-3.47,3.6h0Z" fill="#c6e1ca"/></g><g id="AQUA_006_019_FRAG__006"><path d="M1155.241,139.082l6.535,.658c.657,1.527,2.9,2.675,4.198,1.026,2.656-3.374,7.66-9.879,12.58-5.839,2.474,2.032,5.961-1.554,3.47-3.6-7.33-6.02-14.85-.129-19.65,5.969l4.198,1.026c-3.066-7.119-11.192-8.037-15.694-1.684-1.862,2.628,2.52,5.044,4.363,2.444h0Z" fill="#c6e1ca"/></g><g id="AQUA_006_019_FRAG__007"><path d="M1203.157,120.677c3.984-3.954,9.94-4.214,14.459-1.046,2.638,1.849,5.056-2.532,2.444-4.363-6.353-4.452-15.058-3.465-20.503,1.939-2.288,2.271,1.315,5.738,3.6,3.47h0Z" fill="#c6e1ca"/></g><g id="AQUA_006_019_FRAG__008"><path d="M1225.847,141.441c-5.724,4.53-4.983,12.853,1.318,16.632,9.029,5.415,18.742-1.308,27.541-3.625l-2.89-3.62c-4.623,7.638-13.364,12.166-16.607,20.749-2.335,6.179-.778,13.15,4.927,16.784,2.722,1.733,5.149-2.64,2.444-4.363-12.622-8.038,9.499-23.952,13.599-30.726,1.169-1.931-.857-4.156-2.89-3.62-4.502,1.186-8.628,3.396-13.103,4.627-2.751,.757-5.658,1.286-8.453,.396-3.394-1.081-7.398-5.707-3.283-8.964,2.49-1.971-.078-6.269-2.603-4.27h0Z" fill="#c6e1ca"/></g><g id="AQUA_006_019_FRAG__009"><path d="M1270.975,182.831c1.993-1.313,6.219-4.545,8.668-3.19,2.766,1.531,2.396,4.397,1.469,6.686-.586,1.447-1.257,2.874-1.909,4.292-2.617,5.694-5.525,11.239-8.644,16.674-1.606,2.798,2.761,5.235,4.363,2.444,3.119-5.434,6.027-10.979,8.644-16.674,1.647-3.583,4.65-8.426,3.542-12.58-2.451-9.188-13.383-5.447-18.735-1.921-2.68,1.765-.095,6.047,2.603,4.27h0Z" fill="#c6e1ca"/></g><g id="AQUA_006_019_FRAG__010"><path d="M1285.31,224.231c3.905-2.414,7.719,2.496,3.782,5.316-2.588,1.853-.215,5.913,2.603,4.27,1.141-.811,2.415-1.113,3.823-.907,2.681,1.249,2.929,2.735,.744,4.46l2.509,4.133c3.066-2.78,5.942,2.046,5.916,4.397-.025,2.19-1.016,4.304-2.017,6.192-1.468,2.768-3.395,5.265-4.86,8.043-1.501,2.848,2.861,5.294,4.363,2.444,3.457-6.56,10.327-13.96,6.377-21.88-2.554-5.119-9.157-6.494-13.379-2.666-1.866,1.692,.202,4.886,2.509,4.133,4.269-1.394,6.386-6.329,4.196-10.405-2.534-4.715-8.724-4.582-12.783-2.214l2.603,4.27c9.035-6.47,.586-19.773-8.987-13.856-2.735,1.691-.143,5.968,2.603,4.27h0Z" fill="#c6e1ca"/></g><g id="AQUA_006_020_FRAG__001"><path d="M1327.973,275.964c4.56-.997,6.794,3.817,3.787,7.001-1.804,1.91,.144,4.629,2.509,4.133,8.09-1.696,11.096,8.696,13.631,14.18,2.035,4.403,4.619,8.209,8.952,10.581,2.827,1.547,5.269-2.817,2.444-4.363-7.119-3.896-7.768-12.953-12.184-19.061-3.405-4.71-8.471-7.347-14.261-6.133l2.509,4.133c6.652-7.044,.481-17.298-8.805-15.267-3.141,.687-1.718,5.482,1.418,4.796h0Z" fill="#52b378"/></g><g id="AQUA_006_020_FRAG__002"><path d="M1359.883,324.659c-.683,10.049,4.542,19.472,13.271,24.416,2.806,1.589,5.245-2.777,2.444-4.363-7.302-4.135-11.282-11.817-10.716-20.145,.218-3.21-4.782-3.099-4.999,.092h0Z" fill="#52b378"/></g><g id="AQUA_006_020_FRAG__003"><path d="M1380.074,363.247c3.323,2.483,4.509,6.314,2.51,10.101-.758,1.435-.025,3.219,1.561,3.644,7.21,1.932,4.266,11.552,3.707,16.73-.462,4.282-.068,8.258,2.298,11.934,1.738,2.701,6.018,.114,4.27-2.603-4.176-6.488,.482-14.104-.698-21.153-.79-4.719-3.663-8.502-8.337-9.754l1.561,3.644c2.929-5.547,1.7-12.331-3.403-16.145-2.547-1.904-6.045,1.675-3.47,3.6h0Z" fill="#52b378"/></g><g id="AQUA_006_020_FRAG__004"><path d="M1411.205,413.167c10.361,4.466-7.075,13.875-10.167,16.216-4.472,3.386-7.07,8.005-5.96,13.654,.619,3.152,5.413,1.723,4.796-1.418-1.731-8.809,13.655-12.257,17.488-18.828,2.82-4.835,1.767-11.625-3.713-13.987-2.932-1.264-5.397,3.09-2.444,4.363h0Z" fill="#52b378"/></g><g id="AQUA_006_020_FRAG__005"><path d="M1393.822,461.024c4.895,2.427,7.529,8.132,5.412,13.366-.607,1.501,.115,4.036,2.228,3.721,6.245-.929,6.476,9.994,9.273,13.71,2.652,3.524,6.709,4.671,10.95,4.855,11.877,.516,27.008-3.227,33.588,9.97,1.435,2.878,5.7,.265,4.27-2.603-6.011-12.056-20.096-13.327-32.054-12.571-3.385,.214-7.552,.83-10.674-.833-3.611-1.923-3.815-6.571-5.126-9.985-1.669-4.346-5.321-8.287-10.319-7.543l2.228,3.721c3.104-7.673,.244-16.418-7.331-20.173-2.879-1.427-5.331,2.932-2.444,4.363h0Z" fill="#52b378"/></g><g id="AQUA_006_020_FRAG__006"><path d="M1462.242,521.093c3.73,5.251,3.317,12.167-1.222,16.809-2.253,2.304,1.347,5.774,3.6,3.47,5.999-6.135,6.886-15.85,1.892-22.881-1.852-2.608-6.14-.03-4.27,2.603h0Z" fill="#52b378"/></g><g id="AQUA_006_020_FRAG__007"><path d="M1427.344,537.691c-13.513-.086-26.004,7.747-31.694,20.027-1.347,2.908,3.009,5.366,4.363,2.444,4.986-10.759,15.545-17.547,27.423-17.471,3.22,.02,3.126-4.979-.092-4.999h0Z" fill="#52b378"/></g><g id="AQUA_006_020_FRAG__008"><path d="M1389.965,572.227c-.771,5.711-1.543,11.422-2.314,17.132-.426,3.156,4.415,4.424,4.845,1.24,.771-5.711,1.543-11.422,2.314-17.132,.426-3.156-4.415-4.424-4.845-1.24h0Z" fill="#52b378"/></g><g id="AQUA_006_020_FRAG__009"><path d="M1385.775,605.961c2.019,4.63,.936,9.306-2.925,12.544-.899,.754-.786,2.107-.335,3.036,1.702,3.51,.372,7.483,.255,11.154-.085,2.67,.22,5.352,.781,7.96,1.199,5.572,3.898,10.467,7.521,14.821,2.058,2.473,5.51-1.149,3.47-3.6-4.327-5.2-6.803-11.663-6.776-18.457,.02-5.149,1.36-9.652-.981-14.481l-.335,3.036c5.091-4.269,6.78-11.336,4.121-17.432-1.268-2.908-6.083-1.534-4.796,1.418h0Z" fill="#52b378"/></g><g id="AQUA_006_021_FRAG__001"><path d="M1380.915,676.577c-6.196,4.29-8.137,11.928-6.059,19.02,2.883,9.843,11.664,16.107,17.53,24.033,1.898,2.565,6.19-.009,4.27-2.603-4.252-5.745-9.849-10.422-13.82-16.363-3.952-5.912-6.246-15.02,.682-19.817,2.633-1.823,.053-6.109-2.603-4.27h0Z" fill="#b6e565"/></g><g id="AQUA_006_021_FRAG__002"><path d="M1370.325,726.357c-2.141,1.917-6.353-.719-8.739-1.035-2.082-.276-4.195,.025-5.899,1.331-3.713,2.845-3.657,7.902-1.944,11.829,5.051,11.584,16.73,20.259,26.277,27.935,2.491,2.003,5.981-1.581,3.47-3.6-7.691-6.184-15.605-12.466-21.505-20.468-1.32-1.791-3.207-4.01-3.737-6.207-1.056-1.454-.553-2.621,1.507-3.501,.75-2.116,1.913-2.699,3.488-1.749,.876,.118,1.754,.625,2.629,.816,3.042,.664,5.729,.2,8.054-1.882,2.401-2.15-1.213-5.607-3.6-3.47h0Z" fill="#b6e565"/></g><g id="AQUA_006_021_FRAG__003"><path d="M1373.626,777.241c-1.812,2.025-4.501,2.613-6.779,.784-2.24-1.798-5.142,.504-3.87,3.101,1.888,3.853-5.088,2.447-5.98,2.236-1.359-.322-2.684-.793-4.008-1.232-2.727-.904-5.411-1.937-8.162-2.77-4.713-1.426-9.687-2.347-14.611-1.642-8.18,1.17-15.204,7.517-14.7,16.18,.186,3.204,5.186,3.128,4.999-.092-.467-8.027,7.445-11.64,14.419-11.305,6.435,.309,12.392,3.118,18.452,5.012,3.769,1.178,8.359,2.367,11.865-.188,2.979-2.171,3.535-5.66,1.996-8.801l-3.87,3.101c4.291,3.445,10.089,3.287,13.849-.914,2.144-2.395-1.449-5.874-3.6-3.47h0Z" fill="#b6e565"/></g><g id="AQUA_006_021_FRAG__004"><path d="M1302.742,812.543c-.438,15.212,2.914,29.984,9.712,43.587,1.438,2.877,5.703,.264,4.27-2.603-6.405-12.817-9.395-26.765-8.983-41.076,.093-3.219-4.907-3.119-4.999,.092h0Z" fill="#b6e565"/></g><g id="AQUA_006_021_FRAG__005"><path d="M1304.899,858.537c-10.001-2.191-15.947-10.482-22.815-17.315-3.688-3.669-10.747-10.307-15.888-4.834-4.635,4.934-.488,14.926,1.164,20.21,2.728,8.728,6.579,17.041,11.296,24.866,1.661,2.755,5.936,.161,4.27-2.603-3.884-6.444-7.169-13.188-9.651-20.297-1.077-3.085-2.011-6.219-2.803-9.389s-3.44-11.575,3.289-8.606c2.761,1.218,5.319,4.701,7.339,6.832,2.428,2.563,4.778,5.21,7.392,7.589,4.393,3.999,9.316,7.11,15.167,8.392,3.141,.688,4.387-4.156,1.24-4.845h0Z" fill="#b6e565"/></g><g id="AQUA_006_021_FRAG__006"><path d="M1271.405,887.793c-8.911-8.682-18.605-18.659-30.486-23.175-3.908-1.485-8.483-1.812-11.992,.818-4.324,3.241-4.207,8.747-3.557,13.602,.422,3.152,5.426,3.097,4.999-.092-.704-5.258-.132-11.774,7-10.247,4.095,.877,8.29,3.821,11.688,6.174,6.884,4.769,12.898,10.694,18.878,16.52,2.308,2.249,5.778-1.351,3.47-3.6h0Z" fill="#b6e565"/></g><g id="AQUA_006_021_FRAG__007"><path d="M1230.557,904.035c1.49,6.114,2.98,12.227,4.47,18.341,.762,3.125,5.558,1.708,4.796-1.418-1.49-6.114-2.98-12.227-4.47-18.341-.762-3.125-5.558-1.708-4.796,1.418h0Z" fill="#b6e565"/></g><g id="AQUA_006_021_FRAG__008"><path d="M1213.346,912.738c.12,6.568,1.422,12.885,3.985,18.938,1.239,2.926,6.053,1.55,4.796-1.418-2.394-5.656-3.669-11.467-3.782-17.612-.059-3.217-5.058-3.13-4.999,.092h0Z" fill="#b6e565"/></g><g id="AQUA_006_021_FRAG__009"><path d="M1195.668,913.149c-6.256-2.782-10.637,2.038-12.561,7.668-2.85,8.34-2.74,17.338-.502,25.791,.823,3.109,5.621,1.698,4.796-1.418-1.292-4.878-1.793-9.786-1.259-14.811,.323-3.035,1.996-15.128,7.082-12.867,2.922,1.299,5.385-3.055,2.444-4.363h0Z" fill="#b6e565"/></g><g id="AQUA_006_021_FRAG__010"><path d="M1160.972,923.664c-7.979-4.22-12.971,4.513-11.99,11.551,.748,5.37,3.661,9.998,5.454,15.028,1.834,5.145,2.303,17.604-6.743,15.001-3.099-.892-4.328,3.957-1.24,4.845,6.846,1.97,13.153-3.341,14.251-10.025,.773-4.705-.648-9.379-2.452-13.677-1.014-2.416-2.197-4.768-3.075-7.239-.385-1.084-.765-2.19-1.015-3.315-.323-1.454-1.424-10.868,4.366-7.806,2.847,1.505,5.292-2.857,2.444-4.363h0Z" fill="#b6e565"/></g><g id="AQUA_006_021_FRAG__011"><path d="M1115.891,939.442c1.786,3.575-.011,7.981-3.737,9.359-1.398,.517-2.433,2.303-1.426,3.699,3.159,4.383,3.132,9.984-.483,14.108-2.118,2.415,1.473,5.895,3.6,3.47,5.028-5.734,5.663-13.923,1.154-20.18l-1.426,3.699c6.91-2.556,9.874-10.185,6.589-16.758-1.438-2.877-5.703-.264-4.27,2.603h0Z" fill="#b6e565"/></g><g id="AQUA_006_021_FRAG__012"><path d="M1099.695,961.157c-1.827-2.188-4.265-2.614-7.013-2.477-2.914,.145-3.358,1.032-6.183-1.746-1.114-1.095-1.829-2.607-2.993-3.711-4.592-4.355-10.938-5.68-17.009-4.38-3.143,.673-1.719,5.468,1.418,4.796,3.379-.723,6.759-.293,9.769,1.463,2.671,1.559,3.723,3.828,5.686,5.988,1.206,1.327,2.524,2.361,4.329,2.741,2.516,.529,6.607-1.372,8.526,.927,2.062,2.47,5.514-1.152,3.47-3.6h0Z" fill="#b6e565"/></g><g id="AQUA_006_022_FRAG__001"><path d="M1028.657,990.59c-7.878,4.494-7.656-11.818-8.431-15.488-.742-3.516-2.654-7.844-6.763-8.185-3.63-.301-5.641,2.712-7.351,5.427-3.602,5.72-7.08,11.522-10.619,17.282-1.69,2.75,2.682,5.18,4.363,2.444,3.034-4.938,6.068-9.875,9.102-14.813,1.442-2.346,1.208-3.493,4.065-2.787s2.417,1.596,2.717,4.558c.212,2.092,.292,4.185,.654,6.261,1.232,7.066,7.448,13.802,14.864,9.571,2.796-1.595,.196-5.867-2.603-4.27h0Z" fill="#3db2af"/></g><g id="AQUA_006_022_FRAG__002"><path d="M982.588,971.343c-2.335,4.645-7.819,6.401-12.357,3.839-1.421-.802-3.228,.011-3.644,1.561-3.107,11.562-19.992,12.005-27.334,20.181-2.148,2.392,1.445,5.87,3.6,3.47,8.356-9.306,24.846-8.522,28.579-22.411l-3.644,1.561c6.848,3.865,15.614,1.303,19.164-5.758,1.444-2.873-2.916-5.323-4.363-2.444h0Z" fill="#3db2af"/></g><g id="AQUA_006_022_FRAG__003"><path d="M923.866,994.508l-4.05,2.206-1.546-3.338c-.179-1.107,.11-2.536,.212-3.654,.301-3.302,.722-6.596,1.218-9.875,.867-5.732,2.021-11.408,3.376-17.044,.46-1.914-1.286-3.468-3.131-3.018-2.314,.565-3.936,1.711-5.483,3.533-.747,.88-1.32,1.889-2.004,2.814-1.108,2.39-3.097,2.929-5.965,1.619-.372-.554-.707-1.128-1.006-1.724-1.716-2-2.142-4.419-4.399-6.091-2.004-1.484-3.756-1.622-6.11-1.163-3.153,.614-1.724,5.408,1.418,4.796,3.023-.589,5.192,6.263,6.811,8.052,1.355,1.498,3.024,2.58,5.091,2.704,6.941,.414,7.456-8.376,13.066-9.745l-3.131-3.018c-1.581,6.577-2.874,13.208-3.785,19.912-.628,4.619-2.259,10.707-.645,15.253,2.74,7.713,12.875,6.354,14.909-.979,.862-3.107-3.986-4.339-4.845-1.24h0Z" fill="#3db2af"/></g><g id="AQUA_006_022_FRAG__004"><path d="M871.831,953.193c-2.514,3.245-6.729,1.324-5.524-2.67l-4.845-1.24c-.565,1.965-1.53,6.557-4.133,6.829-2.223,.232-2.96-2.804-3.45-4.186-.663-1.872-1.902-3.482-3.919-4.021-5.567-1.487-8.569,4.785-10.855,8.59-4.047,6.737-7.78,13.847-12.235,20.321s-7.702,.375-7.451-4.599c.187-3.705,.75-7.039-.196-10.713-.802-3.115-5.599-1.702-4.796,1.418,1.727,6.713-3.148,18.005,5.798,21.583,8.377,3.35,13.331-9.069,16.52-14.376,2.877-4.788,5.631-9.682,8.642-14.386,.868-1.356,2.511-3.362,3.829-1.843,.51,.588,.362,2.05,.653,2.833,.455,1.221,1.133,2.364,2.175,3.17,7.061,5.457,12.644-3.764,14.26-9.379,.893-3.104-3.919-4.31-4.845-1.24-2.622,8.69,8.324,14.668,13.969,7.38,1.952-2.521-1.629-6.015-3.6-3.47h0Z" fill="#3db2af"/></g><g id="AQUA_006_022_FRAG__005"><path d="M812.313,940.175c-2.772,.754-4.823-1.891-5.665-3.996-.578-1.445-.868-2.935-1.184-4.454-.544-2.611-4.11-2.043-4.821,.089-.849,2.548-1.671,5.209-3.336,7.357-2.293,2.959-8.313,5.601-9.387,.014-.45-2.341-4.531-2.342-4.821,.089-.824,6.906-5.357,12.125-12.174,13.699-3.133,.723-1.714,5.519,1.418,4.796,8.313-1.919,14.587-8.752,15.601-17.255l-4.821,.089c1.03,5.36,6.511,8.123,11.608,6.542,6.334-1.964,8.851-8.371,10.757-14.09l-4.821,.089c1.367,6.565,5.146,13.982,13.063,11.829,3.103-.844,1.693-5.642-1.418-4.796h0Z" fill="#3db2af"/></g><g id="AQUA_006_022_FRAG__006"><path d="M758.437,939.307c1.492-7.101,2.984-14.202,4.476-21.302,.474-2.257-2.55-4.421-4.223-2.355-.634,.846-1.327,1.639-2.081,2.381-2.605,2.795-4.614,2.588-6.027-.623,1.022-2.444-1.899-5.204-3.982-2.957-5.172,5.579-10.223-3.079-11.435-7.353-1.183-4.17-1.9-8.292-3.741-12.251-1.354-2.912-5.616-.292-4.27,2.603,3.176,6.828,2.598,15.479,8.685,20.794,4.187,3.656,10.503,3.84,14.361-.323l-3.982-2.957c-1.611,3.852-.346,7.976,3.842,9.457,4.974,1.76,9.285-1.666,12.229-5.301l-4.223-2.355c-1.492,7.101-2.984,14.202-4.476,21.302-.661,3.145,4.183,4.393,4.845,1.24h0Z" fill="#3db2af"/></g><g id="AQUA_006_022_FRAG__007"><path d="M680.91,916.263c-2.365,.317,.942-4.994,1.209-5.41,.955-1.484,1.946-2.946,2.953-4.394,2.399-3.448,4.94-6.792,7.607-10.036,4.675-5.688,9.738-11.018,15.101-16.059l-3.6-3.47c-3.773,3.604-8.8-1.073-5.382-5.051,2.091-2.434-1.498-5.917-3.6-3.47-7.573,8.815,4.143,20.051,12.582,11.991,2.335-2.23-1.261-5.668-3.6-3.47-8.53,8.017-16.225,16.825-22.963,26.4-2.375,3.374-6.451,7.777-6.455,12.187-.003,3.517,2.708,6.254,6.239,5.781,3.152-.422,3.097-5.426-.092-4.999h0Z" fill="#3db2af"/></g><g id="AQUA_006_022_FRAG__008"><path d="M668.051,876.783c-5.484,2.635-10.969,5.27-16.453,7.905-2.897,1.392-.28,5.655,2.603,4.27,5.484-2.635,10.969-5.27,16.453-7.905,2.897-1.392,.28-5.655-2.603-4.27h0Z" fill="#3db2af"/></g><g id="AQUA_006_022_FRAG__008-2"><path d="M655.953,860.17c-1.602-.408,5.296-13.037,5.859-14.229,1.259-2.668,2.496-5.54,1.959-8.556-1.118-6.272-7.919-6.312-12.74-4.552-13.021,4.754-19.927,19.639-33.883,22.299-3.154,.601-1.724,5.395,1.418,4.796,13.105-2.498,19.912-14.835,30.981-20.928,1.493-.822,3.077-1.581,4.743-1.989,4.383-1.073,5.047,2.031,3.715,5.327-1.462,3.619-3.586,7.051-5.342,10.533-2.098,4.162-4.307,10.526,2.05,12.144,3.123,.795,4.36-4.051,1.24-4.845h0Z" fill="#3db2af"/></g><g id="AQUA_006_022_FRAG__010"><path d="M618.881,827.31c3.529-4.255,7.149-8.712,10.633-13.078,1.986-2.488,3.634-5.497,2.191-8.689-3.48-7.698-17.178,.45-21.778,2.816-2.861,1.471-.251,5.738,2.603,4.27,2.794-1.437,5.642-2.733,8.6-3.794,.764-.274,2.382-1.16,3.181-1.057l2.462,1.826c-.593,.831-1.228,1.628-1.905,2.391-3.084,3.72-7.411,7.346-9.727,11.616-1.286,2.372-1.618,5.707,.578,7.723,2.026,1.86,5.081,1.472,6.761-.554,2.045-2.465-1.542-5.952-3.6-3.47h0Z" fill="#3db2af"/></g><g id="AQUA_006_022_FRAG__011"><path d="M609.321,785.26c-4.806-14.846-24.355,2.105-30.305,6.92-1.352,1.095-2.838,2.848-4.359,3.667-4.187,2.256-.886-1.344-.091-2.633,2.431-3.942,4.861-7.884,7.292-11.827,4.861-7.884,9.722-15.769,14.583-23.653,1.694-2.747-2.678-5.177-4.363-2.444-5.208,8.448-10.417,16.895-15.625,25.343-2.43,3.941-4.918,7.852-7.292,11.827-1.336,2.237-2.966,4.446-1.703,7.091,2.31,4.837,7.803,2.292,10.798-.234,2.892-2.439,23.627-20.795,26.268-12.639,.988,3.053,5.791,1.656,4.796-1.418h0Z" fill="#3db2af"/></g><g id="AQUA_006_023_FRAG__001"><path d="M568.129,750.79c-.886-4.711-2.805-9.109-5.647-12.968-1.893-2.57-6.184,.004-4.27,2.603,2.628,3.568,4.302,7.429,5.121,11.783,.594,3.155,5.387,1.725,4.796-1.418h0Z" fill="#4cd36f"/></g><g id="AQUA_006_023_FRAG__002"><path d="M556.247,720.432c-4.01-5.91-5.93-12.978-4.717-20.103,1.106-6.493,4.391-12.172,4.383-18.892-.004-3.219-5.003-3.128-4.999,.092,.009,7.886-4.635,14.873-4.735,22.836-.084,6.7,2.056,13.155,5.798,18.67,1.8,2.653,6.084,.071,4.27-2.603h0Z" fill="#4cd36f"/></g><g id="AQUA_006_023_FRAG__003"><path d="M553.225,665.282c-1.462-7.204-3.814-14.064-6.963-20.701-1.377-2.903-5.64-.285-4.27,2.603,2.96,6.239,5.064,12.753,6.437,19.517,.639,3.149,5.433,1.722,4.796-1.418h0Z" fill="#4cd36f"/></g><g id="AQUA_006_023_FRAG__004"><path d="M539.798,620.841c-4.228-1.887-4.345-6.374-.191-8.443,2.288-1.14,1.007-4.686-1.347-4.635-1.872,.041-4.02,.309-5.71-.638-1.347-.755-5.061-4.286-1.996-5.574,2.496-1.049,2.238-4.871-.755-4.898-7.837-.07-14.824-3.751-19.26-10.227-1.811-2.644-6.096-.062-4.27,2.603,5.45,7.956,13.964,12.537,23.623,12.623l-.755-4.898c-3.964,1.666-6.06,5.736-4.261,9.9,2.291,5.303,8.366,6.219,13.476,6.108l-1.347-4.635c-7.385,3.678-7.204,13.705,.35,17.076,2.921,1.304,5.383-3.051,2.444-4.363h0Z" fill="#4cd36f"/></g><g id="AQUA_006_023_FRAG__005"><path d="M532.462,567.102c-4.274-4.371-9.072-8.161-14.429-11.126-2.397-1.327-4.884-2.474-7.438-3.466-1.74-.676-3.61-1.151-5.291-1.953l-1.366-.675c-3.068-1.295-3.423-3.266-1.065-5.913l1.842-4.604c-2.086-.429-4.336-.805-6.223-1.852-1.35-.749-5.28-6.115-1.04-6.414l-.755-4.898c-7.368,1.62-7.475-9.897-8.238-14.275-.683-3.919-2.093-7.405-5.12-10.071-2.411-2.123-5.891,1.468-3.47,3.6,5.588,4.922,3.12,13.387,6.345,19.543,2.386,4.554,6.816,7.118,11.901,6,2.741-.603,2.054-5.095-.755-4.898-4.672,.329-7.315,4.609-6.558,9.104,1.009,5.984,7.534,7.949,12.672,9.005,2.625,.54,4.563-3.409,1.842-4.604-8.098-3.555-12.221,6.847-6.781,12.418,3.799,3.892,10.116,4.794,14.824,7.137,5.88,2.927,11.049,6.855,15.632,11.541,2.254,2.305,5.72-1.299,3.47-3.6h0Z" fill="#4cd36f"/></g><g id="AQUA_006_023_FRAG__006"><path d="M487.49,490.005c2.244-5.601,8.835-3.612,13.365-2.882,4.015,.647,8.05,1.172,12.097,1.577,8.735,.873,18.19,1.724,26.933,.614,5.142-.653,10.533-3.415,11.168-9.157,.258-2.337-.547-4.427-2.111-6.14-1.429-1.564-10.65-5.553-7.956-8.091,1.268-1.194,.671-3.053-.578-3.916-3.432-2.372-5.453-5.505-6.48-9.529-.795-3.116-5.593-1.703-4.796,1.418,1.359,5.324,4.331,9.363,8.832,12.474l-.578-3.916c-4.661,4.39-.826,9.766,3.622,12.301,1.101,.628,3.261,1.379,4.051,2.404,3.605,4.674-3.011,6.89-6.041,7.253-4.167,.5-8.558,.258-12.736,.142-9.34-.259-18.494-1.475-27.716-2.877-5.953-.905-12.858-.561-15.44,5.882-1.183,2.952,3.169,5.424,4.363,2.444h0Z" fill="#4cd36f"/></g><g id="AQUA_006_023_FRAG__007"><path d="M529.638,437.195l-3.993-11.6c-1.043-3.03-5.848-1.637-4.796,1.418l3.993,11.6c1.043,3.03,5.848,1.637,4.796-1.418h0Z" fill="#4cd36f"/></g><g id="AQUA_006_023_FRAG__008"><path d="M545.083,425.196c9.939,.406,16.771-10.059,11.977-18.901-6.406-11.817-23.901-9.549-29.647-21.509-1.392-2.897-5.655-.28-4.27,2.603,3.531,7.35,10.967,10.048,18.046,12.959,4.535,1.865,9.585,4.16,11.723,8.898,2.549,5.648-2.003,11.192-7.922,10.951-3.217-.131-3.114,4.868,.092,4.999h0Z" fill="#4cd36f"/></g><g id="AQUA_006_023_FRAG__009"><path d="M543.421,379.799c1.41-3.934-.851-8.004-4.36-9.965-4.163-2.326-13.424-.96-14.473-6.833-.565-3.159-5.358-1.725-4.796,1.418,.641,3.588,3.441,5.983,6.75,7.211,3.276,1.215,14.099,1.169,12.034,6.928-1.087,3.032,3.768,4.245,4.845,1.24h0Z" fill="#4cd36f"/></g><g id="AQUA_006_023_FRAG__010"><path d="M564.757,357.799c8.103-4.87,9.7-16.139,2.042-22.334-4.007-3.241-9.12-3.095-13.947-3.8-6.764-.987-11.397-6.101-8.795-13.044,.751-2.003-2.03-3.997-3.724-2.755-9.911,7.268-17.39-4.773-16.775-13.66,.222-3.209-4.778-3.098-4.999,.092-.464,6.704,1.638,13.926,7.426,17.891,5.12,3.507,11.924,3.634,16.951-.053l-3.724-2.755c-2.593,6.921,.599,14.956,7.486,17.863,3.964,1.673,8.254,1.243,12.369,2.182,8.092,1.847,10.749,11.499,3.088,16.103-2.757,1.657-.163,5.932,2.603,4.27h0Z" fill="#4cd36f"/></g><g id="AQUA_006_024_FRAG__001"><path d="M562.075,296.8c5.355-7.832,6.845-17.278,4.401-26.42-.831-3.107-5.629-1.696-4.796,1.418,2.126,7.951,.665,15.783-3.968,22.558-1.82,2.661,2.56,5.081,4.363,2.444h0Z" fill="#b0dad4"/></g><g id="AQUA_006_024_FRAG__002"><path d="M583.415,276.398c4.822-1.937,8.249-6.193,8.262-11.57,.007-2.759-1.022-5.163-2.591-7.396-1.777-2.528-8.579-8.489-4.095-11.55,2.647-1.807,.065-6.092-2.603-4.27-3.971,2.711-4.638,7.308-2.599,11.536,1.373,2.847,3.79,4.817,5.445,7.462,2.509,4.011,1.453,9.109-3.236,10.993-2.957,1.188-1.576,5.999,1.418,4.796h0Z" fill="#b0dad4"/></g><g id="AQUA_006_024_FRAG__003"><path d="M605.613,230.523c4.648-.921,8.489,1.547,10.373,5.673,.924,2.023,4.083,1.251,4.558-.681,1.568-6.389,11.45-3.068,16.049-3.837,3.507-.586,6.279-2.244,8.106-5.318,1.648-2.774-2.721-5.208-4.363-2.444-3.316,5.58-12.27,1.694-17.46,3.179-3.629,1.038-6.279,3.523-7.177,7.179l4.558-.681c-2.873-6.291-9.426-9.182-16.061-7.867-3.151,.625-1.723,5.419,1.418,4.796h0Z" fill="#b0dad4"/></g><g id="AQUA_006_024_FRAG__004"><path d="M657.769,209.377c4.56-9.519,5.923-19.601,4.175-30-.532-3.162-5.325-1.726-4.796,1.418,1.51,8.983,.189,17.933-3.742,26.139-1.386,2.894,2.971,5.349,4.363,2.444h0Z" fill="#b0dad4"/></g><g id="AQUA_006_024_FRAG__005"><path d="M693.42,191.469c-2.658-4.818,.932-10.258,6.461-9.252,2.574,.468,3.947-2.306,2.355-4.223-4.216-5.075-1.055-11.918,5.377-12.42,2.605-.203,3.169-3.25,1.176-4.681-4.335-3.111-3.072-9.01,1.697-10.668,3.026-1.052,1.634-5.857-1.418-4.796-9.263,3.22-10.552,14.209-2.723,19.827l1.176-4.681c-11.008,.859-15.729,12.624-8.755,21.019l2.355-4.223c-9.939-1.808-16.864,7.831-11.971,16.7,1.555,2.819,5.825,.216,4.27-2.603h0Z" fill="#b0dad4"/></g><g id="AQUA_006_024_FRAG__006"><path d="M724.342,154.798c9.759,3.047,20.268,.129,27.09-7.471,2.148-2.392-1.445-5.871-3.6-3.47-5.721,6.373-14.089,8.644-22.25,6.096-3.079-.961-4.302,3.889-1.24,4.845h0Z" fill="#b0dad4"/></g><g id="AQUA_006_024_FRAG__007"><path d="M746.044,116.893c.623-4.97,4.508-9.052,9.622-9.353,3.204-.189,3.128-5.189-.092-4.999-7.144,.42-13.471,5.9-14.375,13.112-.396,3.155,4.446,4.426,4.845,1.24h0Z" fill="#b0dad4"/></g><g id="AQUA_006_024_FRAG__008"><path d="M775.03,119.934c7.183-1.117,13.043-6.816,14.608-13.873,.696-3.14-4.148-4.385-4.845-1.24-1.229,5.542-5.611,9.451-11.18,10.317-3.165,.492-1.726,5.285,1.418,4.796h0Z" fill="#b0dad4"/></g><g id="AQUA_006_024_FRAG__009"><path d="M810.728,99.932c11.695,5.385,25.339,3.092,34.522-5.98,2.294-2.266-1.31-5.732-3.6-3.47-7.496,7.406-18.877,9.509-28.478,5.087-2.91-1.34-5.369,3.016-2.444,4.363h0Z" fill="#b0dad4"/></g><g id="AQUA_006_024_FRAG__010"><path d="M857.116,81.146c-.02-4.854,3.63-8.342,8.552-7.584,2.157,.332,3.847-1.706,2.755-3.724-2.976-5.503-.727-11.008,4.743-13.597,2.904-1.375,.285-5.637-2.603-4.27-8.02,3.797-10.554,12.809-6.411,20.47l2.755-3.724c-8.177-1.259-14.826,4.127-14.792,12.521,.013,3.219,5.012,3.128,4.999-.092h0Z" fill="#b0dad4"/></g><g id="AQUA_006_024_FRAG__011"><path d="M885.351,59.514c6.469-1.096,12.758,1.107,17.37,5.696,2.285,2.274,5.753-1.328,3.47-3.6-5.969-5.94-14.009-8.289-22.258-6.892-3.162,.536-1.726,5.329,1.418,4.796h0Z" fill="#b0dad4"/></g><g id="AQUA_006_024_FRAG__012"><path d="M919.034,64.222c2.87-9.333,11.697,2.186,15.821,4.154,4.338,2.07,9.285,1.924,13.634,.05,2.915-1.256,1.541-6.071-1.418-4.796-5.345,2.303-9.885,1.106-14.043-2.789-2.092-1.96-4.048-4.154-6.923-4.964-5.358-1.51-10.367,2.069-11.916,7.106-.948,3.083,3.902,4.307,4.845,1.24h0Z" fill="#b0dad4"/></g></g></svg>