<?xml version="1.0" encoding="UTF-8"?><svg xmlns="http://www.w3.org/2000/svg" viewBox="0 0 1920 1080"><g id="AXE"><circle cx="958.134" cy="537.133" r="18.112" fill="#4ad0c9"/><line x1="958.5" y1="36.5" x2="958.5" y2="523.5" fill="none" stroke="#4ad0c9" stroke-linecap="square" stroke-linejoin="round" stroke-width=".5"/></g><g id="FRAGMENTS"><g id="CLAN_005_012_FRAG__001"><path d="M617.924,220.165c3.233-2.263,6.37-4.66,9.603-6.923,2.098-1.468,.035-4.898-2.082-3.416-3.233,2.263-6.37,4.66-9.603,6.923-2.098,1.468-.035,4.898,2.082,3.416h0Z" fill="#f37516"/></g><g id="CLAN_005_012_FRAG__002"><path d="M636.406,204.42c-5.305-8.78-8.948-20.034,4.102-23.819,1.326-.385,1.704-1.824,1.141-2.959-5.204-10.496-1.973-23.781,7.469-30.716,2.058-1.512-.001-4.945-2.082-3.416-11.308,8.306-15.036,23.644-8.803,36.215l1.141-2.959c-5.889,1.708-10.921,5.219-12.002,11.606-1.12,6.617,2.333,12.697,5.618,18.133,1.331,2.202,4.751,.127,3.416-2.082h0Z" fill="#f37516"/></g><g id="CLAN_005_012_FRAG__003"><path d="M667.088,151.458l18.756,10.513c1.105,.619,2.625,.014,2.916-1.249,.198-.859,.121-4.254,.796-4.611,.895-.473,6.302,2.829,7.587,3.36,3.694,1.526,7.528,2.73,11.562,2.77,8.81,.087,16.701-4.801,23.504-9.899,2.041-1.53-.017-4.964-2.082-3.416-4.309,3.229-8.858,6.349-14.013,8.062-6.475,2.152-12.477,.967-18.579-1.677-2.724-1.181-6.564-4.049-9.683-3.062-3.581,1.133-2.32,4.666-2.969,7.48l2.916-1.249c-6.252-3.504-12.504-7.008-18.756-10.513-2.25-1.261-4.202,2.231-1.955,3.49h0Z" fill="#f37516"/></g><g id="CLAN_005_012_FRAG__004"><path d="M743.73,145.167c6.774-4.53,13.174-9.548,19.196-15.038,1.906-1.738-.984-4.505-2.88-2.776-5.773,5.262-11.905,10.056-18.398,14.398-2.133,1.426-.066,4.853,2.082,3.416h0Z" fill="#f37516"/></g><g id="CLAN_005_012_FRAG__005"><path d="M765.928,110.276c10.073-8.73,21.948,8.462,30.291,12.416,8.848,4.194,19.094,3.521,27.59-1.126,2.259-1.236,.176-4.652-2.082-3.416-6.007,3.287-12.985,4.288-19.635,2.465-6.569-1.801-11.007-6.441-16.154-10.567-6.562-5.259-15.76-8.727-22.89-2.548-1.947,1.688,.947,4.451,2.88,2.776h0Z" fill="#f37516"/></g><g id="CLAN_005_012_FRAG__006"><path d="M842.147,110.289c3.344-2.484,6.241-5.334,8.588-8.788,2.493-3.669,3.663-11.038,7.477-13.392,5.391-3.327,12.028,2.116,16.693,4.344,4.558,2.177,9.356,2.935,14.368,2.435,2.544-.254,2.492-4.255-.074-3.999-7.514,.749-12.46-2.321-18.937-5.446-3.759-1.814-8.289-3.115-12.389-1.57-3.568,1.345-5.239,4.19-6.632,7.548-2.595,6.253-5.65,11.346-11.177,15.452-2.049,1.522,.01,4.956,2.082,3.416h0Z" fill="#f37516"/></g><g id="CLAN_005_012_FRAG__007"><path d="M900.133,67.554c7.084-6.791,15.953-10.787,25.739-11.562,2.554-.202,2.498-4.203-.074-3.999-10.865,.86-20.675,5.241-28.545,12.785-1.862,1.785,1.023,4.556,2.88,2.776h0Z" fill="#f37516"/></g><g id="CLAN_005_012_FRAG__008"><path d="M934.378,81.735c2.87,6.36,10.881,8.115,16.259,3.82,3.254-2.599,4.506-6.017,9.916-3.768,2.6,1.081,4.559,3.576,6.746,5.281,4.061,3.166,8.195,3.897,13.259,3.365,2.541-.267,2.49-4.269-.074-3.999-6.695,.703-9.869-2.113-14.781-5.997-2.503-1.979-5.574-3.721-8.887-3.503-3.051,.201-4.998,2.085-7.126,4.021-3.965,3.606-9.325,4.396-11.896-1.301-1.056-2.339-4.465-.241-3.416,2.082h0Z" fill="#f37516"/></g><g id="CLAN_005_013_FRAG__001"><path d="M1031.676,82.664c3.783,.718,7.565,1.435,11.348,2.153,2.521,.478,3.524-3.396,.992-3.876-3.783-.718-7.565-1.435-11.348-2.153-2.521-.478-3.524,3.396-.992,3.876h0Z" fill="#ef9b5e"/></g><g id="CLAN_005_013_FRAG__002"><path d="M1057.205,74.838c2.044-3.976,4.822-3.353,8.53-3.179,1.394,.066,2.359,.293,3.539-.824,1.468-1.389,1.572-3.835,2.464-5.526,2.329-4.416,7.356-5.707,11.678-3.393,2.272,1.216,4.227-2.274,1.955-3.49-6.535-3.499-14.308-1.181-17.451,5.663-.208,.453-.501,1.582-.771,1.981-1.073,1.584-.313,1.081-2.237,1.191-1.405,.08-2.615-.27-4.06,.037-3.21,.681-5.652,2.697-7.136,5.584-1.177,2.289,2.312,4.248,3.49,1.955h0Z" fill="#ef9b5e"/></g><g id="CLAN_005_013_FRAG__003"><path d="M1093.55,69.676c3.331,3.348,4.888,7.22,4.88,11.934-.002,1.394,1.334,2.13,2.567,1.882,6.998-1.411,9.86,5.707,10.712,11.205,.124,.802,1.171,1.506,1.955,1.433,11.764-1.104,16.628,10.927,19.515,20.17,.766,2.452,4.607,1.332,3.837-1.134-3.422-10.956-9.774-24.316-23.425-23.035,.652,.478,1.303,.955,1.955,1.433-1.255-8.095-6.58-15.743-15.683-13.908l2.567,1.882c.01-5.729-2.07-10.687-6.104-14.741-1.819-1.828-4.593,1.054-2.776,2.88h0Z" fill="#ef9b5e"/></g><g id="CLAN_005_013_FRAG__004"><path d="M1153.007,126.286c5.214,7.615,11.944,13.812,19.991,18.336,2.249,1.264,4.2-2.228,1.955-3.49-7.451-4.189-13.7-9.873-18.53-16.928-1.448-2.115-4.876-.05-3.416,2.082h0Z" fill="#ef9b5e"/></g><g id="CLAN_005_013_FRAG__005"><path d="M1197.907,131.669c6.903,5.439-1.518,14.29-.059,21.484,1.336,6.586,6.53,11.007,12.365,13.727,2.324,1.084,4.29-2.402,1.955-3.49-4.317-2.012-8.422-4.846-10.025-9.582-1.408-4.159,.287-7.502,1.705-11.377,1.876-5.128,1.314-10.115-3.164-13.643-2.006-1.58-4.8,1.285-2.776,2.88h0Z" fill="#ef9b5e"/></g><g id="CLAN_005_013_FRAG__006"><path d="M1225.192,173.316c6.425,2.014,13.255,1.937,19.506-.693,5.925-2.492,15.257-12.649,21.34-5.569,1.679,1.954,4.442-.941,2.776-2.88-4.078-4.746-10.535-4.002-15.579-1.281-4.087,2.205-7.47,5.316-11.973,6.763-5.012,1.61-10.106,1.343-15.078-.216-2.462-.772-3.44,3.109-.992,3.876h0Z" fill="#ef9b5e"/></g><g id="CLAN_005_013_FRAG__007"><path d="M1273.94,181.127c-1.096,3.153-5.041,11.883-1.438,14.725,1.4,1.104,3.397,.507,4.98,.208,.819-.155,3.863-1.221,4.577-.176,.148,.217-.939,4.226-.999,4.595-.541,3.327-.207,5.65,3.507,6.217,3.739,.571,6.703-1.469,10.52,.022,3.765,1.471,7.379,4.125,10.864,6.148,2.232,1.296,4.181-2.198,1.955-3.49-4.399-2.554-9.247-6.543-14.383-7.356-1.749-.277-5.953,1.297-7.324,.639-2.61-1.252-.108-5.075-.003-7.204,.136-2.743-1.341-4.301-4.022-4.315-1.898-.01-5.061,1.82-6.267,.374-1.333-1.599,1.325-7.711,1.91-9.394,.846-2.435-3.036-3.407-3.876-.992h0Z" fill="#ef9b5e"/></g><g id="CLAN_005_013_FRAG__008"><path d="M1304.124,228.333c3.859,6.724,5.854,13.94,6.023,21.688,.056,2.573,4.055,2.504,3.999-.074-.183-8.425-2.412-16.39-6.606-23.697-1.282-2.233-4.7-.154-3.416,2.082h0Z" fill="#ef9b5e"/></g><g id="CLAN_005_014_FRAG__001"><path d="M1331.928,276.166c.163,8.489,4.883,16.172,12.898,19.387,3.944,1.582,8.084,1.787,12.227,1.003,2.868-.543,6.363-1.968,9.3-1.283,3.945,.921,4.84,4.962,4.879,8.439,.015,1.311,1.326,2.235,2.567,1.882,8.226-2.339,24.809-3.653,23.612,9.725-.229,2.561,3.772,2.467,3.999-.074,.529-5.916-3.038-11.055-8.263-13.653-6.441-3.203-13.901-1.707-20.483,.165l2.567,1.882c-.091-8.001-4.704-13.356-13.008-12.234-6.035,.816-11.226,2.849-17.145-.093-5.862-2.914-9.028-8.827-9.151-15.219-.049-2.573-4.049-2.504-3.999,.074h0Z" fill="#e46441"/></g><g id="CLAN_005_014_FRAG__002"><path d="M1379.935,330.724c-7.836,4.438-17.452,7.053-22.565,15.061-4.238,6.637-3.328,14.748,3.079,19.617,7.243,5.505,16.681,4.083,24.944,2.218,5.415-1.222,10.77-2.704,16.047-4.429,5.259-1.719,15.753-6.499,18.39,1.39,.813,2.433,4.656,1.317,3.837-1.134-2.007-6.003-8.069-7.987-13.935-6.955-4.721,.83-9.257,2.877-13.841,4.245-4.418,1.319-8.888,2.483-13.4,3.435-4.903,1.035-10.291,1.918-15.191,.336-5.652-1.824-10.059-6.898-8.218-13.087,2.929-9.846,15.015-12.796,22.934-17.281,2.241-1.269,.16-4.686-2.082-3.416h0Z" fill="#e46441"/></g><g id="CLAN_005_014_FRAG__003"><path d="M1401.785,387.02c-5.308,1.557-11.039,3.377-14.711,7.788-3.607,4.333-3.978,9.953-3.065,15.3,.432,2.529,4.266,1.381,3.837-1.134-.861-5.042,.038-10.259,4.301-13.524,3.122-2.391,7.057-3.504,10.772-4.593,2.467-.724,1.344-4.564-1.134-3.837h0Z" fill="#e46441"/></g><g id="CLAN_005_014_FRAG__004"><path d="M1387.39,432.04c1.533,3.814,6.443,11.68,3.595,15.214-1.931,2.395-3.952,3.502-4.721,6.761-1.414,5.989,1.755,11.819,6.417,15.389,6.79,5.2,16.188,7.4,24.354,9.291,9.64,2.232,19.465,3.514,29.266,4.798,2.525,.331,3.54-3.542,.992-3.876-16.138-2.113-34.939-3.5-49.419-11.588-3.553-1.985-6.763-4.846-7.687-8.961-1.138-5.067,1.77-6.656,4.538-9.831,4.307-4.939-1.532-13.439-3.498-18.331-.951-2.365-4.8-1.261-3.837,1.134h0Z" fill="#e46441"/></g><g id="CLAN_005_014_FRAG__005"><path d="M1405.278,496.307c-4.362,11.761-5.695,24.158-3.924,36.577,.359,2.515,4.362,2.473,3.999-.074-1.726-12.103-.45-24.05,3.801-35.511,.895-2.414-2.989-3.383-3.876-.992h0Z" fill="#e46441"/></g><g id="CLAN_005_014_FRAG__006"><path d="M1403.129,551.78c-1.869,2.295-3.987,5.429-2.128,8.379,1.905,3.022,7.12,3.721,10.279,4.417,10.926,2.408,22.241,2.032,33.169,4.468,2.512,.56,3.508-3.315,.992-3.876-6.23-1.389-12.547-1.958-18.891-2.534-3.623-.329-7.25-.67-10.84-1.274-1.894-.319-13.78-1.794-9.701-6.804,1.616-1.985-1.252-4.776-2.88-2.776h0Z" fill="#e46441"/></g><g id="CLAN_005_014_FRAG__007"><path d="M1402.958,592.694c2.615,1.745,3.413,4.729,2.069,7.555-.748,1.573,.563,3.35,2.312,2.896,3.305-.859,6.4-1.774,8.96,.989,2.264,2.445,1.978,4.972,1.725,8.133-.114,1.423,1.422,2.089,2.567,1.882,13.61-2.47,27.325,.744,38.595,8.697,2.105,1.486,4.039-2.02,1.955-3.49-12.199-8.609-27.031-11.703-41.684-9.044,.856,.627,1.711,1.254,2.567,1.882,.332-4.141,.367-9.065-3.165-11.953-3.626-2.964-8.502-2.011-12.652-.932l2.312,2.896c2.316-4.869,.873-10.014-3.604-13-2.146-1.432-4.084,2.07-1.955,3.49h0Z" fill="#e46441"/></g><g id="CLAN_005_014_FRAG__008"><path d="M1465.721,630.92c1.051,8.956,15.335,9.78,22.18,10.298,2.566,.194,2.475-3.807-.074-3.999-3.716-.281-17.489-1.103-18.107-6.372-.297-2.533-4.3-2.485-3.999,.074h0Z" fill="#e46441"/></g><g id="CLAN_005_015_FRAG__001"><path d="M1386.227,658.552c-1.729,3.402-2.091,7.204-.284,10.681,2.192,4.217,6.521,5.429,10.345,7.71,1.238,.739,2.894,1.859,3.579,3.182,1.958,3.783-.514,3.066,.47,5.603,.426,1.097,.732,1.774,1.771,2.563,4.227,3.21,10.292,4.316,14.815,7.275,2.605,1.705,5.603,3.888,6.587,7.002,1.727,5.461-3.273,6.889-7.342,7.401-6.93,.872-13.754-1.377-20.331-3.282-9.689-2.806-20.12-4.959-29.326,.411-2.224,1.297-.146,4.716,2.082,3.416,12.245-7.143,26.088,1.168,38.573,3.135,6.906,1.088,21.764,.883,20.843-9.627-.384-4.376-3.579-7.933-6.937-10.441-2.219-1.657-4.631-3.017-7.107-4.247-2.422-1.203-5.999-1.986-8.115-3.653-2.029-1.598-.981-3.651-1.737-5.92-.644-1.931-2.091-3.518-3.636-4.773-4.877-3.959-15.155-5.838-10.76-14.484,1.166-2.294-2.322-4.253-3.49-1.955h0Z" fill="#fb2727"/></g><g id="CLAN_005_015_FRAG__002"><path d="M1359.082,729.298c2.629,6.368-4.753,6.421-7.707,9.379-1.282,1.283-1.05,2.411-.976,4.138,.27,6.289-3.659,7.753-8.804,9.401-3.938,1.262-7.949,2.197-12.017,2.933-2.527,.457-1.38,4.291,1.134,3.837,7.757-1.402,22.238-3.037,23.658-12.845,.318-2.197-.489-3.544,1.147-5.072,1.424-1.33,3.694-1.823,5.185-3.283,2.629-2.575,3.635-6.186,2.217-9.62-.971-2.353-4.821-1.25-3.837,1.134h0Z" fill="#fb2727"/></g><g id="CLAN_005_015_FRAG__003"><path d="M1326.355,777.673c3.93,1.768,9.932,9.399,2.096,11.107-1.879,.41-1.649,2.75-.41,3.664,3.228,2.381,6.53,4.795,9.302,7.718,1.142,1.204,2.966,2.906,3.566,4.486,2.052,5.406-1.518,5.948-4.79,6.705-2.506,.58-1.371,4.417,1.134,3.837,5.286-1.224,10.584-4.467,8.093-10.675-2.694-6.715-9.774-11.448-15.35-15.562-.137,1.221-.274,2.442-.41,3.664,3.871-.844,6.6-4.241,6.624-8.26,.029-4.832-3.824-8.341-7.899-10.175-2.335-1.05-4.304,2.434-1.955,3.49h0Z" fill="#fb2727"/></g><g id="CLAN_005_015_FRAG__004"><path d="M1327.287,835.645c-1.12,4.79-2.96,6.414-5.519,4.871-.78-.319-1.531-.696-2.252-1.132-1.016-.483-1.971-.917-3.028-1.323-1.295-.498-2.449,.819-2.496,1.975-.841,.956-1.682,1.911-2.523,2.867-1.221-.178-2.441-.356-3.662-.534-1.238-.503-2.382-1.515-3.392-2.353-2.097-1.741-4.074-3.658-6.082-5.498-3.967-3.633-7.893-7.309-11.79-11.016-1.867-1.776-4.645,1.103-2.776,2.88,3.898,3.707,7.824,7.383,11.79,11.016,3.303,3.025,6.767,6.99,10.996,8.747,5.047,2.097,11.197-.227,11.438-6.182-.832,.658-1.664,1.317-2.496,1.975,4.003,1.539,7.614,4.671,12.052,2.381,3.755-1.937,4.765-6.009,3.577-9.806-.767-2.452-4.608-1.332-3.837,1.134h0Z" fill="#fb2727"/></g><g id="CLAN_005_015_FRAG__005"><path d="M1267.272,839.065c2.123,4.064,3.392,8.441,3.193,13.074-.324,7.524-5.023,7.506-10.58,4.284-1.58-.916-3.286,.67-2.896,2.312,1.447,6.091-3.199,11.198-9.504,10.033-1.816-.335-2.951,1.388-2.204,2.979,5.323,11.338,11.048,24.282,5.489,36.649-1.05,2.335,2.435,4.304,3.49,1.955,6.243-13.888,.468-27.84-5.563-40.686l-2.204,2.979c9.307,1.719,16.531-5.796,14.333-15.043l-2.896,2.312c5.251,3.045,12.368,4.935,15.447-1.934,2.923-6.52,.411-15.064-2.689-20.997-1.192-2.282-4.606-.195-3.416,2.082h0Z" fill="#fb2727"/></g><g id="CLAN_005_015_FRAG__006"><path d="M1231.122,914.717c-10.376,4.173-17.48-9.051-26.389-12.047-8.11-2.727-14.348,2.496-19.524,8.155-1.737,1.899,1.138,4.68,2.88,2.776,3.277-3.583,7.159-7.988,12.49-7.744,5.217,.238,9.292,4.352,13.069,7.45,5.33,4.372,11.658,8.042,18.609,5.247,2.365-.951,1.261-4.8-1.134-3.837h0Z" fill="#fb2727"/></g><g id="CLAN_005_016_FRAG__001"><path d="M1156.98,951.43c-5.945,5.226-12.944,8.424-20.733,9.72-2.53,.421-1.381,4.255,1.134,3.837,8.479-1.41,16.036-5.117,22.478-10.781,1.936-1.702-.957-4.467-2.88-2.776h0Z" fill="#ffb17d"/></g><g id="CLAN_005_016_FRAG__002"><path d="M1116.623,971.859l-2.812-.31-.235-1.516c-.264-.545-.183-1.292-.439-1.872-.34-.773-.687-1.467-1.407-1.973-1.987-1.395-4.198-.2-5.659,1.32-1.217,1.266-1.979,2.848-2.842,4.355-.465,.812-1.094,2.566-1.891,3.02-1.87-.089-3.739-.178-5.609-.267l-.779-1.102c-2.245-1.534-3.456-4.104-6.695-3.215-1.027,.282-1.851,.984-2.582,1.718-.516,.518-.883,1.62-1.491,2-1.62,1.016-4.07-.053-5.147-1.77-2.034-3.242-2.272-6.88-5.123-9.751-6.441-6.487-16.14-6.296-24.585-5.787-2.562,.154-2.502,4.154,.074,3.999,6.277-.378,13.052-.858,18.722,2.376,5.694,3.249,5.054,9.273,8.975,13.594,1.973,2.174,5.221,3.404,7.969,1.941,1.51-.803,2.167-3.185,3.486-3.827,2.673-1.301,4.179,3.002,5.814,4.32,2.598,2.093,5.846,1.747,8.437-.176,1.4-1.039,2.383-2.45,3.267-3.925,.58-.969,1.029-2.013,1.628-2.97,.468-.865,1.054-1.649,1.76-2.351,.088,.48,.176,.961,.265,1.441,1.348,2.576,.848,5.26,4.59,5.949,3.083,.567,5.28-1.511,6.184-4.229,.815-2.447-3.067-3.422-3.876-.992h0Z" fill="#ffb17d"/></g><g id="CLAN_005_016_FRAG__003"><path d="M1031.277,979.871c-3.715,3.259-8.198,1.068-9.877-3.146-.826-2.072-1.156-4.309-2.052-6.361-1.305-2.99-3.535-5.868-6.966-6.369-10.407-1.518-12.193,15.668-23.392,13.18-2.512-.558-3.508,3.317-.992,3.876,4.687,1.041,8.912-.393,12.529-3.477,2.045-1.744,3.582-3.91,5.33-5.925,2.127-2.453,2.724-3.32,6.093-2.401,3.347,.914,3.416,1.56,4.46,4.784,1.362,4.208,2.414,8.689,6.85,10.624,3.827,1.67,7.858,.658,10.898-2.01,1.938-1.7-.955-4.465-2.88-2.776h0Z" fill="#ffb17d"/></g><g id="CLAN_005_016_FRAG__004"><path d="M966.347,976.491c-2.014,1.621-7.272-6.712-9.481-7.663-2.816-1.212-5.287-.127-7.591,1.553-2.347,1.711-3.577,3.305-6.693,2.924-2.971-.364-4.196-2.517-6.742-3.719-2.917-1.377-5.936-.876-8.593,.767-2.187,1.353-.114,4.775,2.082,3.416,4.6-2.845,8.322,3.514,13.017,3.915,3.824,.326,5.662-1.844,8.629-3.57l1.576-1.187,4.935,1.675c.647,.526,1.065,1.698,1.57,2.372,.886,1.183,1.827,2.311,3.136,3.034,2.504,1.384,4.886,.988,7.034-.74,2.003-1.612-.898-4.371-2.88-2.776h0Z" fill="#ffb17d"/></g><g id="CLAN_005_016_FRAG__005"><path d="M898.146,971.121c-4.496,3.22-7.693,7.588-11.692,11.335-5.346,5.01-11.899,6.428-19.025,6.596-2.572,.061-2.504,4.06,.074,3.999,6.153-.145,12.526-1.066,17.772-4.53,5.764-3.806,9.358-9.977,14.954-13.984,2.08-1.489,.018-4.92-2.082-3.416h0Z" fill="#ffb17d"/></g><g id="CLAN_005_016_FRAG__006"><path d="M848.719,965.01c-5.753-1.115-9.746,.219-15.189,1.725-6.133,1.697-7.956-4.288-13.413-4.936-2.281-.271-4.093,.758-6.272,1.021-3.649,.442-4.896-1.461-7.837-2.701-5.192-2.189-10.441,1.375-15.684-.05-2.489-.677-3.475,3.201-.992,3.876,5.061,1.376,10.7-1.987,15.368,.067,2.023,.89,3.442,2.545,5.684,2.972,2.112,.402,3.99-.242,6.027-.73,6.024-1.444,7.946,4.293,13.283,5.09,2.315,.346,4.379-.582,6.491-1.38,3.887-1.469,7.441-1.873,11.541-1.078,2.52,.489,3.522-3.386,.992-3.876h0Z" fill="#ffb17d"/></g><g id="CLAN_005_016_FRAG__007"><path d="M778.902,936.899c-.364-5.654-2.925-10.816-7.371-14.366-1.997-1.595-4.79,1.272-2.776,2.88,3.629,2.898,5.847,6.901,6.148,11.56,.165,2.561,4.165,2.502,3.999-.074h0Z" fill="#ffb17d"/></g><g id="CLAN_005_016_FRAG__008"><path d="M751.47,913.678c-7.152-4.986-10.585,4.137-14.173,8.237-5.648,6.455-14.234-4.918-19.681,3.52-1.396,2.162-1.633,6.574-3.729,8.033-2.579,1.795-7.729-2.507-11.071-1.474-3.263,1.009-4.966,4.093-6.315,6.956-2.612,5.542-7.418,9.417-13.641,6.024-2.264-1.234-4.217,2.257-1.955,3.49,5.611,3.059,12.89,1.977,16.819-3.3,1.331-1.787,1.882-3.933,3.007-5.827,2.265-3.813,3.969-3.746,7.769-2.256,2.416,.947,4.884,1.605,7.222,.046,1.909-1.272,2.763-3.493,3.561-5.537,.559-1.432,1.071-3.898,2.37-4.925,2.415-1.91,5.411,.196,7.692,1.017,3.119,1.123,6.085,1.239,8.836-.844,3.1-2.348,6.628-12.951,11.333-9.671,2.115,1.474,4.049-2.031,1.955-3.49h0Z" fill="#ffb17d"/></g><g id="CLAN_005_017_FRAG__001"><path d="M675.983,891.086c-4.202,1.683-5.975-.332-8.997-2.728-1.483-1.176-2.694-1.301-4.454-.6-3.031,1.207-5.218,3.886-8.398,4.877-4.289,1.337-8.608-.549-12.286-2.621-2.248-1.266-4.199,2.226-1.955,3.49,6.834,3.851,13.314,4.806,20.144,.541,.9-.612,1.803-1.218,2.71-1.819,1.399-.588,2.429-.3,3.09,.862,1.056,.515,1.84,1.381,2.966,1.862,2.729,1.168,5.592,1.062,8.312-.028,2.367-.948,1.262-4.797-1.134-3.837h0Z" fill="#fbbf08"/></g><g id="CLAN_005_017_FRAG__002"><path d="M637.702,879.952c2.092-3.227,2.806-7.001,1.843-10.767-.438-1.712-1.174-3.332-2.252-4.74-1.691-2.208-2.368-2.242-1.445-5.025,2.861-8.63-1.571-17.612-9.702-21.244-2.337-1.044-4.306,2.44-1.955,3.49,3.831,1.711,6.902,4.587,8.062,8.726,1.167,4.162-.811,6.963-1.37,10.914-.368,2.602,1.094,3.056,2.638,4.842,3.002,3.473,3.155,8.045,.69,11.847-1.404,2.166,2.096,4.106,3.49,1.955h0Z" fill="#fbbf08"/></g><g id="CLAN_005_017_FRAG__003"><path d="M611.047,823.503c-3.656-2.244-7.311-4.489-10.967-6.733-2.2-1.351-4.145,2.146-1.955,3.49,3.656,2.244,7.311,4.489,10.967,6.733,2.2,1.351,4.145-2.146,1.955-3.49h0Z" fill="#fbbf08"/></g><g id="CLAN_005_017_FRAG__004"><path d="M586.308,805.433c-6.168-1.942-11.585-1.219-17.835-1.744-12.844-1.078,2.35-16.041,5.632-19.632,4.766-5.215,12.188-14.368,3.511-19.932-2.173-1.393-4.114,2.106-1.955,3.49,6.988,4.481-6.092,15.468-9.051,18.715-3.436,3.771-7.484,7.834-7.192,13.336,.206,3.89,2.707,6.821,6.496,7.706,2.301,.537,4.662,.233,6.993,.157,4.282-.14,8.332,.497,12.409,1.78,2.461,.775,3.439-3.106,.992-3.876h0Z" fill="#fbbf08"/></g><g id="CLAN_005_017_FRAG__005"><path d="M560.836,758.693c-5.275-.067-10.799-2.407-12.53-7.822-1.889-5.91,2.801-9.614,5.645-14.087,3.183-5.006,3.07-12.199-3.539-14.03-2.486-.689-3.471,3.189-.992,3.876l2.559,5.061-1.075,2.455c-.837,1.508-2.016,2.801-3.057,4.165-1.084,1.42-2.144,2.838-2.869,4.482-1.401,3.173-1.452,6.625-.254,9.877,2.503,6.799,9.321,9.936,16.187,10.023,2.576,.033,2.5-3.967-.074-3.999h0Z" fill="#fbbf08"/></g><g id="CLAN_005_017_FRAG__006"><path d="M532.552,712.107c-6.461-3.738-11.315-9.44-13.899-16.451-.884-2.4-4.73-1.29-3.837,1.134,2.948,8.002,8.392,14.534,15.781,18.808,2.234,1.292,4.183-2.202,1.955-3.49h0Z" fill="#fbbf08"/></g><g id="CLAN_005_017_FRAG__007"><path d="M527.455,682.709c-2.662-3.218-4.826-6.493-1.632-10.416,1.289-1.584,3.001-2.846,4.363-4.379,1.246-1.403,.211-3.206-1.477-3.388-6.511-.7-8.607-7.33-5.097-12.355,1.476-2.113-2.029-4.047-3.49-1.955-5.466,7.824-.504,17.324,8.661,18.31l-1.477-3.388c-2.597,2.924-6.45,5.348-7.186,9.47-.769,4.304,1.987,7.87,4.56,10.981,1.64,1.983,4.401-.915,2.776-2.88h0Z" fill="#fbbf08"/></g><g id="CLAN_005_017_FRAG__008"><path d="M522.798,639.606c-1.191-2.759-1.968-5.556-2.073-8.584-.058-1.679-.186-7.367,1.899-8.257,2.337-.997,1.237-4.848-1.134-3.837-7.392,3.154-4.976,16.143-2.529,21.812,1.006,2.331,4.858,1.232,3.837-1.134h0Z" fill="#fbbf08"/></g><g id="CLAN_005_018_FRAG__001"><path d="M509.155,582.136c-2.664-3.239-2.12-7.719,.799-10.554,1.251-1.215,.222-3.433-1.477-3.388-3.077,.082-18.092,2.37-14.711-5.21,1.043-2.337-2.441-4.307-3.49-1.955-1.539,3.451-.701,7.193,2.399,9.526,4.592,3.455,10.644,1.778,15.876,1.638l-1.477-3.388c-4.606,4.474-4.7,11.342-.695,16.21,1.635,1.987,4.395-.912,2.776-2.88h0Z" fill="#ffdc91"/></g><g id="CLAN_005_018_FRAG__002"><path d="M488.051,550.626c-4.402-2.121-14.032-2.673-15.97-7.828-2.792-7.424,8.558-8.329,12.956-11.234,1.403-.927,1.176-3.224-.545-3.646-5.83-1.429-7.056-10.127,.051-10.932,2.008-.227,2.627-2.595,.941-3.745-2.318-1.581-6.462-4.302-4.87-7.903,.762-1.724,3.112-3.014,4.603-3.951,3.174-1.996,6.667-3.372,10.276-4.353,7.322-1.991,14.961-2.317,22.504-2.61,2.569-.1,2.504-4.099-.074-3.999-11.565,.449-23.915,1.057-34.118,7.146-3.396,2.027-7.575,4.887-7.629,9.304-.055,4.462,4.051,7.606,7.353,9.857l.941-3.745c-11.254,1.275-11.859,16.138-.969,18.807l-.545-3.646c-5.371,3.548-16.694,4.193-15.519,13.297,1.166,9.041,12.279,9.596,18.66,12.67,2.313,1.115,4.277-2.372,1.955-3.49h0Z" fill="#ffdc91"/></g><g id="CLAN_005_018_FRAG__003"><path d="M498.287,475.652c-2.33-1.239-5.056-3.143-2.85-6.414,.77-1.142,2.929-1.746,4.113-2.204,1.802-.697,1.919-3.291-.071-3.856-4.374-1.243-9.955-2.912-9.657-8.582,.135-2.572-3.865-2.487-3.999,.074-.395,7.511,6.49,10.63,12.664,12.385l-.071-3.856c-3.285,1.27-7.167,3.063-7.907,6.919-.795,4.142,2.515,7.268,5.823,9.026,2.275,1.21,4.231-2.28,1.955-3.49h0Z" fill="#ffdc91"/></g><g id="CLAN_005_018_FRAG__004"><path d="M488.126,433.74c-2.337-2.567-4.396-5.89-1.738-9.077,1.876-2.25,5.057-2.577,7.773-2.964,1.529-.218,2.833-2.204,1.351-3.44-2.488-2.075-5.561-5.491-4.299-9.086,1.667-4.752,8.241-3.87,12.036-3.758,7.035,.208,13.941,1.319,20.742,3.095,2.495,.651,3.483-3.226,.992-3.876-5.624-1.469-11.332-2.495-17.129-2.965-4.877-.395-11.324-1.274-15.916,.937-8.255,3.973-4.639,13.998,.799,18.533,.45-1.147,.901-2.293,1.351-3.44-4.775,.681-10.353,1.748-12.485,6.694-1.976,4.585,.701,8.879,3.747,12.226,1.736,1.907,4.503-.982,2.776-2.88h0Z" fill="#ffdc91"/></g><g id="CLAN_005_018_FRAG__005"><path d="M528.369,381.038c-.858-3.046-.452-6.007,1.669-8.462,.584-.676,1.47-1.123,1.928-1.903,.831-1.416,.623-2.544-.258-3.895-1.709-2.621-4.438-4.455-5.984-7.317-2.446-4.529-3.656-11.798,3.399-12.165,6.857-.356,12.672,5.602,19.526,4.395,4.534-.799,7.6-4.891,6.08-9.404-.819-2.431-4.662-1.315-3.837,1.134,1.941,5.763-5.825,4.315-8.203,3.516-1.665-.559-3.242-1.405-4.9-1.995-3.1-1.102-6.692-1.915-10.011-1.59-5.258,.515-8.056,4.241-7.976,9.415,.044,2.851,.878,5.581,2.167,8.108,.809,1.587,1.792,3.034,2.903,4.425,.715,.895,2.541,2.159,2.911,3.181,.392,1.083-.328,.817-1.492,2.409-.71,.972-1.253,1.998-1.657,3.135-.967,2.725-.876,5.4-.103,8.148,.697,2.476,4.537,1.35,3.837-1.134h0Z" fill="#ffdc91"/></g><g id="CLAN_005_018_FRAG__006"><path d="M549.75,326.912c-1.44-4.49-2.434-9.052-2.93-13.743-.269-2.54-4.271-2.49-3.999,.074,.534,5.045,1.542,9.971,3.093,14.804,.784,2.445,4.626,1.326,3.837-1.134h0Z" fill="#ffdc91"/></g><g id="CLAN_005_018_FRAG__007"><path d="M546.817,297.859c3.143-6.802,13.885-2.893,19.016-7.952,5.127-5.055,.741-11.713,.6-17.627-.061-2.572-4.061-2.504-3.999,.074,.068,2.844,.855,5.334,1.472,8.09,1.571,7.013-3.024,8.416-8.913,9.069-4.787,.531-9.474,1.647-11.666,6.391-1.075,2.327,2.41,4.294,3.49,1.955h0Z" fill="#ffdc91"/></g><g id="CLAN_005_018_FRAG__008"><path d="M571.49,256.644l3.002-3.65c1.262-.371,2.527-.431,3.794-.182,1.416,.143,2.626,.475,3.962,.953,2.371,.848,4.535,2.096,6.675,3.407,3.71,2.273,7.471,5.367,11.732,6.521,8.166,2.211,8.415-6.209,5.412-11.326-1.303-2.22-4.722-.143-3.416,2.082l1.277,2.611c-1.181,.757-2.362,1.514-3.542,2.271-.671,.046-2.19-1.132-2.779-1.465-2.07-1.17-4.042-2.506-6.058-3.764-3.415-2.13-7.015-4.18-10.996-5.02-5.963-1.258-12.579,.817-13.061,7.636-.181,2.567,3.819,2.478,3.999-.074h0Z" fill="#ffdc91"/></g></g></svg>