<?xml version="1.0" encoding="UTF-8"?><svg xmlns="http://www.w3.org/2000/svg" viewBox="0 0 1920 1080"><g id="AXE"><circle cx="958.134" cy="537.133" r="18.112" fill="#4ad0c9"/><line x1="958.5" y1="36.5" x2="958.5" y2="523.5" fill="none" stroke="#4ad0c9" stroke-linecap="square" stroke-linejoin="round" stroke-width=".5"/></g><g id="FRAGMENTS"><g id="CLAN_006_012_FRAG__001"><path d="M966.239,114.709l6.748-1.742c2.491-.643,1.361-4.481-1.134-3.837l-6.748,1.742c-2.491,.643-1.361,4.481,1.134,3.837h0Z" fill="#f37516"/></g><g id="CLAN_006_012_FRAG__002"><path d="M977.546,99.098c4.668-1.428,9.336-2.856,14.005-4.285,2.457-.752,1.336-4.593-1.134-3.837-4.668,1.428-9.336,2.856-14.005,4.285-2.457,.752-1.336,4.593,1.134,3.837h0Z" fill="#f37516"/></g><g id="CLAN_006_012_FRAG__003"><path d="M993.093,69.965c4.113-.719,7.403,2.128,8.132,6.006,.251,1.337,1.933,1.702,2.959,1.141l5.432,2.912c.085,1.717,2.204,2.616,3.44,1.351,3.683-3.771,6.671,4.437,7.607,6.377,1.13,2.341,2.478,4.517,4.107,6.545,3.014,3.751,6.759,6.658,11.011,8.871,2.284,1.189,4.242-2.3,1.955-3.49-4.169-2.17-7.82-5.045-10.622-8.851-2.304-3.131-3.331-6.877-5.446-10.076-2.611-3.949-7.833-5.899-11.493-2.151l3.44,1.351c-.311-6.249-6.114-9.204-11.514-6.254l2.959,1.141c-1.179-6.272-6.987-9.777-13.103-8.709-2.528,.442-1.381,4.276,1.134,3.837h0Z" fill="#f37516"/></g><g id="CLAN_006_012_FRAG__004"><path d="M1042.353,88.346c1.265-3.962,5.275-5.542,9-3.653,1.133,.575,2.599,.048,2.916-1.249,.791-3.243,2.991-5.167,6.216-5.775,2.524-.476,1.38-4.311-1.134-3.837-4.551,.858-7.869,4.152-8.958,8.62l2.916-1.249c-6.125-3.108-12.741-.393-14.831,6.151-.785,2.458,3.096,3.435,3.876,.992h0Z" fill="#f37516"/></g><g id="CLAN_006_012_FRAG__005"><path d="M1071.442,79.428c3.211-1.069,5.102-.275,5.674,2.382,.315,1.04,.558,2.097,.731,3.169,.317,1.494,.486,3.008,.988,4.461,.703,2.035,1.839,3.984,3.638,5.231,3.328,2.307,7.543,1.415,10.299-1.277,1.845-1.803-1.039-4.575-2.88-2.776-5.084,4.968-7.43-3.107-8.208-6.773-.619-2.916-1.318-5.821-3.625-7.896-3.198-2.875-8.091-2.458-10.107,1.523-1.162,2.295,2.326,4.255,3.49,1.955h0Z" fill="#f37516"/></g><g id="CLAN_006_012_FRAG__006"><path d="M1096.147,102.525c.601,4.686,1.705,10.227,6.757,11.984,4.728,1.644,9.395-1.192,12.14-4.938,1.936-2.642,2.963-5.748,4.344-8.681,.724-1.538,4.063-9.006,6.849-4.194,.484,.837-.14,3.417-.129,4.231,.072,5.31,2.692,10.577,8.673,10.209,2.562-.158,2.502-4.158-.074-3.999-7.041,.433-3.046-11.249-5.848-14.754-2.078-2.599-5.554-2.206-8.023-.389-3.842,2.827-5.191,7.922-7.181,11.998-1.632,3.344-4.014,7.129-8.214,6.645-4.23-.488-4.831-4.564-5.296-8.185-.324-2.526-4.327-2.48-3.999,.074h0Z" fill="#f37516"/></g><g id="CLAN_006_012_FRAG__007"><path d="M1152.512,111.349l5.024,3.193c-.715,1.731,.928,3.825,2.786,2.686l1.778,3.823-1.012,2.336c-.27,.625-.581,1.237-.811,1.879-.575,1.603-.972,3.23-.673,4.936,.453,2.585,2.086,4.163,4.478,4.955,2.448,.811,3.423-3.07,.992-3.876-3.747-1.241,.89-8.511,1.277-10.726,.292-1.667,.156-3.446-.735-4.916-1.597-2.636-4.793-3.412-7.378-1.827l2.786,2.686c3.143-7.607-5.326-13.836-11.395-7.924-1.848,1.8,1.036,4.572,2.88,2.776h0Z" fill="#f37516"/></g><g id="CLAN_006_012_FRAG__008"><path d="M1178.264,129.26c1.356-1.03,2.88-1.726,4.574-2.087,2.125,1.484,2.564,3.148,1.317,4.991-.58,1.318-1.367,2.564-2.056,3.824-1.22,2.229-3.077,4.667-3.316,7.26-.701,7.591,9.517,1.735,10.068,5.359,.266,1.746,2.045,2.559,3.44,1.351,2.148-1.86,4.31-2.859,7.074-3.482,2.51-.565,1.373-4.401-1.134-3.837-3.416,.769-6.18,2.256-8.82,4.543l3.44,1.351c-.454-2.985-2.27-5.622-5.569-5.841-1.074-.071-1.916,.551-2.886,.539-1.116,.846-1.494,.727-1.135-.358-.024-.826,.253-1.557,.833-2.195,1.105-2.454,2.745-4.653,3.803-7.136,1.27-2.981,1.866-6.53-.87-8.889-3.367-2.904-7.663-.887-10.842,1.19-2.15,1.405-.081,4.829,2.082,3.416h0Z" fill="#f37516"/></g><g id="CLAN_006_012_FRAG__009"><path d="M1212.207,145.365c1.177-.554,4.642-2.333,6.089-1.897l3.742,3.779c-.298,.848-.689,1.647-1.175,2.396-1.093,1.944-2.211,3.652-2.835,5.815-.345,1.197,.696,2.595,1.975,2.496,1.79-.139-1.81,7.444-2.002,7.966-.735,1.997-1.262,4.134-1.153,6.281,.178,3.49,1.9,6.316,4.799,8.176,2.173,1.394,4.113-2.106,1.955-3.49-7.047-4.522,.789-11.942,1.317-17.368,.306-3.146-1.709-5.818-4.989-5.564l1.975,2.496c1.385-4.8,7.044-9.483,2.473-14.449-3.93-4.27-9.835-2.133-14.253-.052-2.325,1.095-.23,4.505,2.082,3.416h0Z" fill="#f37516"/></g><g id="CLAN_006_013_FRAG__001"><path d="M1240.034,184.435c2.324,2.681,4.648,5.361,6.972,8.042,1.688,1.947,4.452-.947,2.776-2.88-2.324-2.681-4.648-5.361-6.972-8.042-1.688-1.947-4.452,.947-2.776,2.88h0Z" fill="#ef9b5e"/></g><g id="CLAN_006_013_FRAG__002"><path d="M1260.035,197.635c3.618-1.261,5.793,.604,7.654,3.532,.74,1.163,1.255,2.285,2.487,3.046,1.193,.737,2.594,.785,3.939,.874,3.689,.242,6.267,.791,8.913,3.514,1.798,1.85,4.569-1.034,2.776-2.88-1.928-1.984-4.157-3.494-6.854-4.211-1.222-.325-2.138-.185-3.351-.446-2.606-.559-3.463-1.008-5.041-3.063-2.986-3.888-6.664-5.94-11.656-4.201-2.42,.843-1.306,4.687,1.134,3.837h0Z" fill="#ef9b5e"/></g><g id="CLAN_006_013_FRAG__003"><path d="M1300.457,211.045c2.707-1.518,5.314,.563,6.086,3.106,.699,2.303,.189,4.461-.899,6.621-1.228,2.436-3.135,4.481-4.87,6.556-2.752,3.292-5.42,6.835-6.023,11.211-.879,6.38,4.261,12.416,10.854,10.727,2.493-.638,1.362-4.476-1.134-3.837-6.144,1.573-6.275-6.449-4.624-9.915,1.299-2.727,3.45-4.911,5.341-7.219,2.658-3.245,5.261-6.792,5.689-11.105,.686-6.915-5.765-13.339-12.503-9.562-2.246,1.259-.165,4.676,2.082,3.416h0Z" fill="#ef9b5e"/></g><g id="CLAN_006_013_FRAG__004"><path d="M1323.401,246.184c3.792-3.225,6.265,3.758,9.74,4.528,2.727,.604,10.496-3.734,11.811-1.367,1.251,2.251,4.668,.169,3.416-2.082-4.001-7.195-11.407,1.738-16.311-2.551-1.872-1.637-2.647-3.103-5.435-3.421-2.413-.275-4.308,.593-6.101,2.117-1.962,1.669,.933,4.431,2.88,2.776h0Z" fill="#ef9b5e"/></g><g id="CLAN_006_013_FRAG__005"><path d="M1340.62,270.314c5.195,1.684,8.137,7.332,5.443,12.407-1.666,3.139-5.159,4.769-7.219,7.591-2.708,3.708-2.857,8.456,.997,11.395,4.411,3.364,10.795,2.575,15.706,.925,3.266-1.097,6.358-2.783,9.262-4.612,3.313-2.087,9.2-8.107,12.997-4.308,1.823,1.824,4.597-1.058,2.776-2.88-4.849-4.851-10.474-1.177-15.096,1.951-3.475,2.352-7.075,4.656-11.073,6.013-3.434,1.165-16.439,3.247-12.94-5.261,1.255-3.053,5.4-4.896,7.289-7.608,1.615-2.318,2.43-5.156,2.3-7.981-.261-5.65-4.278-9.831-9.45-11.508-2.454-.796-3.43,3.086-.992,3.876h0Z" fill="#ef9b5e"/></g><g id="CLAN_006_013_FRAG__006"><path d="M1371.529,312.449c6.914,3.624-2.075,13.737-3.453,18.46-1.47,5.038-1.002,10.312,.884,15.157,.926,2.379,4.774,1.272,3.837-1.134-1.649-4.235-2.113-8.628-.845-13.03,1.096-3.803,3.777-6.791,5.173-10.451,1.762-4.616,1.041-10.039-3.641-12.492-2.281-1.196-4.238,2.294-1.955,3.49h0Z" fill="#ef9b5e"/></g><g id="CLAN_006_013_FRAG__007"><path d="M1372.315,359.211c1.33,4.005,2.659,8.01,3.989,12.014,.809,2.435,4.651,1.319,3.837-1.134-1.33-4.005-2.659-8.01-3.989-12.014-.809-2.435-4.651-1.319-3.837,1.134h0Z" fill="#ef9b5e"/></g><g id="CLAN_006_013_FRAG__008"><path d="M1388.953,381.19l2.387,12.36c.487,2.523,4.322,1.379,3.837-1.134-.796-4.12-1.591-8.24-2.387-12.36-.487-2.523-4.322-1.379-3.837,1.134h0Z" fill="#ef9b5e"/></g><g id="CLAN_006_013_FRAG__009"><path d="M1405.718,401.154c3.456,3.625,5.627,7.975,6.592,12.879,.496,2.521,4.331,1.379,3.837-1.134-1.095-5.565-3.746-10.526-7.653-14.625-1.78-1.867-4.55,1.019-2.776,2.88h0Z" fill="#ef9b5e"/></g><g id="CLAN_006_013_FRAG__010"><path d="M1408.033,423.944c-4.686,6.197-12.873,9.509-16.051,16.887-2.197,5.102-.994,10.65,3.558,13.881,2.101,1.491,4.034-2.015,1.955-3.49-10.5-7.453,9.518-19.346,13.417-24.502,1.536-2.031-1.328-4.828-2.88-2.776h0Z" fill="#ef9b5e"/></g><g id="CLAN_006_014_FRAG__001"><path d="M1401.288,470.424c-.62,4.312-1.24,8.624-1.86,12.936-.363,2.525,3.51,3.538,3.876,.992,.62-4.312,1.24-8.624,1.86-12.936,.363-2.525-3.51-3.538-3.876-.992h0Z" fill="#e46441"/></g><g id="CLAN_006_014_FRAG__002"><path d="M1419.186,491.537c-.283,3.146-.566,6.292-.849,9.438-.23,2.56,3.771,2.467,3.999-.074,.283-3.146,.566-6.292,.849-9.438,.23-2.56-3.771-2.467-3.999,.074h0Z" fill="#e46441"/></g><g id="CLAN_006_014_FRAG__003"><path d="M1417.407,511.226c-.884,7.503,1.043,14.623,5.698,20.603,1.562,2.007,4.999-.048,3.416-2.082-3.938-5.059-5.998-11.082-5.238-17.528,.297-2.523-3.576-3.541-3.876-.992h0Z" fill="#e46441"/></g><g id="CLAN_006_014_FRAG__004"><path d="M1405.099,537.489c-9.759,10.668,3.625,21.576,12.231,26.681,2.22,1.317,4.167-2.178,1.955-3.49-6.127-3.634-18.938-12.071-11.306-20.414,1.737-1.899-1.138-4.68-2.88-2.776h0Z" fill="#e46441"/></g><g id="CLAN_006_014_FRAG__005"><path d="M1417.328,571.619c5.615,9.956-12.364,12.277-17.794,14.236-4.175,1.506-7.935,4.685-6.163,9.507,.883,2.401,4.728,1.291,3.837-1.134-1.731-4.709,9.841-6.23,12.209-6.957,3.026-.93,6.074-2.125,8.512-4.205,4.125-3.521,5.53-8.717,2.817-13.528-1.265-2.243-4.682-.162-3.416,2.082h0Z" fill="#e46441"/></g><g id="CLAN_006_014_FRAG__006"><path d="M1390.842,612.268c.729,.795-4.047,3.818-4.628,4.569-1.291,1.668-1.235,3.162-1.23,5.166,.016,5.726-4.448,11.673-7.023,16.676-1.178,2.289,2.311,4.247,3.49,1.955,1.879-3.65,3.842-7.269,5.642-10.959,.666-1.365,1.44-2.771,1.751-4.277,.371-1.796-.04-3.353,.693-5.095,1.544-3.667,8.667-5.911,4.081-10.915-1.743-1.902-4.51,.988-2.776,2.88h0Z" fill="#e46441"/></g><g id="CLAN_006_014_FRAG__007"><path d="M1370.087,652.001c-.644,3.323,.064,6.108,2.009,8.907,1.028,1.479,2.35,2.719,3.57,4.029,1.046,1.022,2.029,2.104,2.948,3.244,1.958,2.219,1.523,4.718-1.305,7.497-1.988,.072-2.664,2.742-.941,3.745,2.875,1.673,9.296,5.917,4.804,9.549-2,1.617,.901,4.376,2.88,2.776,6.784-5.485-.64-12.854-5.729-15.815l-.941,3.745c4.482-.162,7.569-3.746,6.952-8.272-.964-7.075-11.785-11.109-10.37-18.41,.488-2.52-3.386-3.522-3.876-.992h0Z" fill="#e46441"/></g><g id="CLAN_006_014_FRAG__008"><path d="M1381.856,700.136c2.046,1.854,1.166,5.568-1.842,5.7-1.935,.085-2.732,2.781-.941,3.745,3.418,1.839,5.178,6.113,1.515,9.031-1.986,1.582,.068,5.021,2.082,3.416,5.797-4.619,4.836-12.453-1.642-15.938l-.941,3.745c6.979-.305,9.753-7.86,4.544-12.579-1.907-1.727-4.688,1.147-2.776,2.88h0Z" fill="#e46441"/></g><g id="CLAN_006_014_FRAG__009"><path d="M1363.334,716.178c-2.72,3.286-3.491,7.527-1.625,11.488,.875,1.856,2.15,3.247,3.828,4.392,1.246,.851,2.608,1.417,3.981,2.026,.693,.288,1.379,.593,2.058,.913,2.137,.716,2.815,2.457,2.034,5.223-2.065-.481-3.135,1.909-1.884,3.378,1.908,2.241,5.424,5.953,2.542,9.177-1.714,1.917,1.16,4.7,2.88,2.776,4.483-5.015,1.024-10.524-2.646-14.833l-1.884,3.378c4.661,1.087,8.291-3.423,6.184-7.825-2.857-5.968-20.174-8.153-12.588-17.316,1.634-1.973-1.235-4.763-2.88-2.776h0Z" fill="#e46441"/></g><g id="CLAN_006_014_FRAG__010"><path d="M1367.007,759.211c-6.431,3.684-13.607-3.97-20.511-2.041-4.507,1.259-6.654,4.934-5.276,9.391,.773,2.499,1.464,3.954-.841,5.815-.523,.423-1.249,.55-1.769,1.026-1.702,1.558-1.362,3.15-1.142,5.16,.478,4.35-1.29,4.498-4.096,7.091-1.456,1.345-2.522,2.744-2.819,4.756-.374,2.525,3.499,3.537,3.876,.992,.592-4.003,6.219-4.956,7.384-8.938,.708-2.42-1.364-4.832,.709-6.645,1.345-1.176,2.76-1.093,3.608-2.953,.811-1.779,.128-3.366-.144-5.129-.434-2.809-1.345-5.259,1.644-6.729,1.78-.876,4.287,.183,6.066,.701,5.285,1.539,10.143,3.927,15.393,.92,2.234-1.28,.155-4.698-2.082-3.416h0Z" fill="#e46441"/></g><g id="CLAN_006_014_FRAG__012"><path d="M1327.552,803.518c-.401,5.164-9.808,5.267-12.993,8.077-3.264,2.88-2.132,5.923-2.734,9.731-.559,3.54-2.746,3.662-5.238,5.077-1.314,.746-1.998,1.631-2.559,3.045-1.115,2.81-.672,4.881-3.197,7.177-2.194,1.996-5.076,3.098-7.812,4.125-2.394,.898-1.285,4.744,1.134,3.837,4.575-1.715,9.741-3.848,12.184-8.394,1.584-2.947,1.201-5.275,4.51-7.022,1.812-.956,3.19-1.238,4.206-3.257,1.099-2.185,.513-4.371,.707-6.701,.432-5.185,3.474-5.798,7.504-7.142,4.374-1.459,7.907-3.732,8.287-8.628,.199-2.565-3.801-2.474-3.999,.074h0Z" fill="#e46441"/></g><g id="CLAN_006_014_FRAG__012-2"><path d="M1273.858,833.193c-5.687,2.849-7.545,9.391-6.664,15.375,.536,3.645,2.072,7.055,3.732,10.312,.989,1.941,2.071,3.833,3.088,5.76,1.066,2.018,1.509,1.785-.423,3.716-2.251,2.251-3.016,.644-5.096-1.294l-2.776,2.88c4.196,3.14,.141,8.472-3.506,5.061-1.881-1.759-4.66,1.118-2.776,2.88,7.948,7.432,17.616-4.416,9.058-10.821-1.998-1.495-4.716,1.072-2.776,2.88,2.729,2.543,6.142,5.388,10.135,4.205,2.829-.838,4.353-3.302,3.889-6.212-.798-5.004-5-9.698-6.919-14.324-2.331-5.619-3.371-13.752,3.115-17,2.301-1.152,.211-4.564-2.082-3.416h0Z" fill="#e46441"/></g><g id="CLAN_006_014_FRAG__013"><path d="M1250.393,885.057c-1.533,1.481-2.842,1.194-3.927-.859l-1.822-2.272c-1.085-1.406-2.128-2.851-3.137-4.313-1.82-2.636-3.266-5.682-5.302-8.149-2.09-2.532-5.352-4.061-8.276-1.791-3.487,2.708-2.465,7.389-.91,10.828,1.53,3.382,3.323,6.667,4.988,9.984,.637,1.268,2.065,3.025,2.1,4.419,.913,1.335,.28,2.132-1.897,2.393-.764-.434-1.492-.923-2.183-1.466-1.451-1.055-3.388,.766-2.896,2.312,.651,1.055,.628,2.109-.069,3.161-2.256-1.25-4.208,2.242-1.955,3.49,5.65,3.131,7.168-3.674,5.861-7.786l-2.896,2.312c3.659,2.661,10.567,3.858,10.572-2.685,.003-3.401-2.619-7.035-4.068-9.921-1.129-2.249-2.314-4.48-3.391-6.755-2.175-2.539-1.383-4.32,2.375-5.345,.389,.618,.772,1.239,1.149,1.864,3.01,4.856,8.031,15.302,14.652,15.833,4.891,.392,6.92-4.707,3.806-8.133-1.734-1.909-4.501,.981-2.776,2.88h0Z" fill="#e46441"/></g><g id="CLAN_006_014_FRAG__014"><path d="M1202.344,881.965c-8.301-.743-13.789,7.05-11.584,14.763,.707,2.473,4.546,1.348,3.837-1.134-1.552-5.429,2.164-10.136,7.82-9.63,2.561,.229,2.467-3.772-.074-3.999h0Z" fill="#e46441"/></g><g id="CLAN_006_014_FRAG__015"><path d="M1195.311,919.542c.204,1.291-2.685,1.269-3.351,1.064-.889-.275-1.723-.755-2.571-1.133-1.08-.481-2.157-.997-3.313-1.275-2.053-.494-4.351-.366-6.034,1.028-1.596,1.322-2.1,3.361-2.072,5.354,.039,2.718,2.313,7.041,.155,9.254-1.8,1.846,1.08,4.622,2.88,2.776,1.948-1.998,2.203-4.48,1.797-7.165-.233-1.545-1.257-3.881-.846-5.432,.468-1.77,2.123-2.199,3.591-1.802,1.013,.274,1.944,.811,2.897,1.235,2.446,1.09,5.116,2.111,7.722,.908,2.506-1.157,3.39-3.359,2.982-5.946-.4-2.532-4.234-1.381-3.837,1.134h0Z" fill="#e46441"/></g><g id="CLAN_006_014_FRAG__016"><path d="M1158.344,924.378c-1.975,5.902-6.121,10.503-11.708,13.202-2.315,1.118-.222,4.529,2.082,3.416,6.536-3.157,11.212-8.781,13.502-15.626,.818-2.446-3.063-3.42-3.876-.992h0Z" fill="#e46441"/></g><g id="CLAN_006_015_FRAG__001"><path d="M1138.336,961.01l-9.857,1.213c-2.529,.311-2.483,4.314,.074,3.999l9.857-1.213c2.529-.311,2.483-4.314-.074-3.999h0Z" fill="#fb2727"/></g><g id="CLAN_006_015_FRAG__002"><path d="M1117.585,963.889c-7.206,1.746-14.497,2.226-21.863,1.35-2.523-.3-3.541,3.573-.992,3.876,8.114,.965,16.046,.535,23.99-1.389,2.501-.606,1.367-4.443-1.134-3.837h0Z" fill="#fb2727"/></g><g id="CLAN_006_015_FRAG__003"><path d="M1085.342,984.494c.538,2.811-2.079,3.735-4.175,2.848-2.69-1.138-3.291-4.254-2.767-6.995,.406-2.125-2.607-3.596-3.683-1.474l-3.976,.678c-.989-1.014-1.531-2.199-1.627-3.553-.316-1.461-.288-2.88-.284-4.369,.008-2.584-3.924-2.49-3.999,.074-.067,2.27-3.824-3.187-3.996-3.491-.819-1.453-1.697-2.804-2.775-4.081-1.89-2.238-4.09-3.928-6.596-5.416-2.22-1.318-4.166,2.177-1.955,3.49,3.435,2.04,5.948,4.606,7.91,8.089,1.202,2.135,2.045,4.408,4.377,5.567,3.607,1.793,6.921-.377,7.034-4.232l-3.999,.074c-.013,4.218,.377,9.414,4.513,11.782,3.319,1.901,7.173,.678,8.864-2.656l-3.683-1.474c-1,5.229,.724,11.498,6.763,12.512,5.227,.877,8.827-3.617,7.891-8.507-.483-2.523-4.318-1.379-3.837,1.134h0Z" fill="#fb2727"/></g><g id="CLAN_006_015_FRAG__004"><path d="M1041.335,968.891c-6.516,1.024-12.32,3.845-17.3,8.143-1.951,1.684,.944,4.447,2.88,2.776,4.472-3.86,9.738-6.168,15.554-7.082,2.532-.398,1.381-4.232-1.134-3.837h0Z" fill="#fb2727"/></g><g id="CLAN_006_015_FRAG__005"><path d="M1017.048,980.864c-3.386,1.885-6.964,3.094-10.783,3.735-2.53,.425-1.381,4.259,1.134,3.837,4.151-.697,8.056-2.11,11.731-4.156,2.25-1.253,.168-4.669-2.082-3.416h0Z" fill="#fb2727"/></g><g id="CLAN_006_015_FRAG__006"><path d="M997.225,986.296c-8.571,2.081-17.463-1.061-22.74-8.164-1.522-2.049-4.955,.01-3.416,2.082,6.379,8.587,16.872,12.449,27.29,9.919,2.5-.607,1.367-4.444-1.134-3.837h0Z" fill="#fb2727"/></g><g id="CLAN_006_015_FRAG__007"><path d="M962.727,981.131c-1.454-7.04-9.869-8.197-14.958-4.239-3.321,2.583-5.019,6.416-6.439,10.257-1.175,3.179-2.098,6.475-4.165,9.213-2.451,3.245-7.814,5.832-10.494,1.121-1.273-2.238-4.691-.158-3.416,2.082,3.533,6.209,11.607,5.366,16.025,.609,2.924-3.149,4.159-7.258,5.621-11.188,1.124-3.019,2.291-6.209,4.726-8.453,2.89-2.664,8.314-2.866,9.264,1.734,.52,2.518,4.356,1.377,3.837-1.134h0Z" fill="#fb2727"/></g><g id="CLAN_006_015_FRAG__008"><path d="M924.198,991.294c-1.022-2.593-2.043-5.186-3.065-7.779-.935-2.374-4.783-1.268-3.837,1.134,1.022,2.593,2.043,5.186,3.065,7.779,.935,2.374,4.783,1.268,3.837-1.134h0Z" fill="#fb2727"/></g><g id="CLAN_006_015_FRAG__009"><path d="M917.673,974.871c-3.324-10.359-13.22-17.29-24.116-16.712-2.565,.136-2.503,4.136,.074,3.999,9.104-.483,17.41,5.134,20.205,13.847,.785,2.445,4.626,1.326,3.837-1.134h0Z" fill="#fb2727"/></g><g id="CLAN_006_015_FRAG__010"><path d="M882.779,962.637c-2.638,2.17-5.276,4.341-7.913,6.511-1.987,1.635,.912,4.395,2.88,2.776,2.638-2.17,5.276-4.341,7.913-6.511,1.987-1.635-.912-4.395-2.88-2.776h0Z" fill="#fb2727"/></g><g id="CLAN_006_015_FRAG__011"><path d="M866.507,974.006c-.096,.74-.218,1.475-.367,2.206-.192,1.948-1.601,2.799-4.23,2.551-.702-.819-.371-2.946-.326-3.958l-3.999,.074c-.13,4.528-5.94,4.282-6.129,.005-.114-2.568-4.113-2.504-3.999,.074,.423,9.555,13.854,9.394,14.128-.152,.074-2.583-3.886-2.484-3.999,.074-.16,3.617,.634,8.545,5.095,8.978,5.107,.496,7.097-4.755,7.704-8.858,.373-2.525-3.5-3.537-3.876-.992h0Z" fill="#fb2727"/></g><g id="CLAN_006_015_FRAG__012"><path d="M838.347,973.392c-.224,1.632-1.788,2.31-3.326,1.899-1.665-.446-2.85-2.29-3.652-3.7-1.525-2.682-2.528-5.451-4.519-7.857-1.64-1.983-4.401,.915-2.776,2.88,3.281,3.967,3.907,10.059,9.165,12.24,3.596,1.491,8.412-.315,8.983-4.469,.347-2.525-3.526-3.539-3.876-.992h0Z" fill="#fb2727"/></g><g id="CLAN_006_015_FRAG__013"><path d="M820.052,958.631c.482-5.862-.559-12.809-5.722-16.459-4.251-3.005-10.394-3.067-14.007,.936-1.723,1.91,1.151,4.692,2.88,2.776,2.684-2.974,7.375-2.197,9.969,.552,3.031,3.213,3.221,8.131,2.881,12.268-.211,2.563,3.79,2.472,3.999-.074h0Z" fill="#fb2727"/></g><g id="CLAN_006_016_FRAG__001"><path d="M780.182,967.361c-3.403-.366-6.358-2.104-8.581-4.656-1.693-1.943-4.457,.951-2.776,2.88,2.967,3.404,6.979,5.297,11.431,5.775,2.553,.274,2.456-3.728-.074-3.999h0Z" fill="#ffb17d"/></g><g id="CLAN_006_016_FRAG__002"><path d="M768.523,948.395c-2.157-2.579-4.315-5.159-6.472-7.738-1.652-1.975-4.413,.922-2.776,2.88,2.157,2.579,4.315,5.159,6.472,7.738,1.652,1.975,4.413-.922,2.776-2.88h0Z" fill="#ffb17d"/></g><g id="CLAN_006_016_FRAG__003"><path d="M753.566,931.768l-8.212-6.208c-2.031-1.535-4.829,1.328-2.776,2.88,2.737,2.069,5.475,4.139,8.212,6.208,2.031,1.535,4.829-1.328,2.776-2.88h0Z" fill="#ffb17d"/></g><g id="CLAN_006_016_FRAG__004"><path d="M735.293,920.148c-3.225-1.465-6.451-2.93-9.676-4.395-2.332-1.059-4.3,2.425-1.955,3.49,3.225,1.465,6.451,2.93,9.676,4.395,2.332,1.059,4.3-2.425,1.955-3.49h0Z" fill="#ffb17d"/></g><g id="CLAN_006_016_FRAG__005"><path d="M715.199,911.485c-5.181-.976-9.587-3.804-12.503-8.219-1.415-2.142-4.841-.074-3.416,2.082,3.461,5.239,8.739,8.847,14.927,10.013,2.521,.475,3.524-3.399,.992-3.876h0Z" fill="#ffb17d"/></g><g id="CLAN_006_016_FRAG__006"><path d="M695.94,895.108c-3.208-3.91-6.925-7.26-11.081-10.136-2.12-1.467-4.055,2.037-1.955,3.49,3.867,2.676,7.279,5.893,10.26,9.526,1.632,1.989,4.392-.91,2.776-2.88h0Z" fill="#ffb17d"/></g><g id="CLAN_006_016_FRAG__007"><path d="M677.334,880.147c-2.035-2.419-4.956-3.096-8.018-2.672-3.234,.448-14.206,7.406-14.936,1.157-.296-2.533-4.298-2.486-3.999,.074,.448,3.832,3.365,6.318,7.261,6.538,5.181,.293,12.736-7.185,16.916-2.217,1.658,1.97,4.42-.926,2.776-2.88h0Z" fill="#ffb17d"/></g><g id="CLAN_006_016_FRAG__008"><path d="M649.281,865.018c-7.109-3.49-2.608-12.459-1.656-18.086,.682-4.03,.392-7.728-1.86-11.199-1.398-2.155-4.823-.086-3.416,2.082,5.851,9.02-8.034,24.306,4.976,30.694,2.307,1.132,4.269-2.354,1.955-3.49h0Z" fill="#ffb17d"/></g><g id="CLAN_006_016_FRAG__009"><path d="M639.239,826.105c-7.435-5.672-15.893-8.779-25.245-9.178-2.573-.11-2.491,3.89,.074,3.999,8.207,.351,15.855,3.07,22.396,8.059,2.026,1.545,4.823-1.319,2.776-2.88h0Z" fill="#ffb17d"/></g><g id="CLAN_006_016_FRAG__010"><path d="M614.779,805.597c-1.913-3.305-3.827-6.609-5.74-9.914-1.29-2.228-4.708-.15-3.416,2.082,1.913,3.305,3.827,6.609,5.74,9.914,1.29,2.228,4.708,.15,3.416-2.082h0Z" fill="#ffb17d"/></g><g id="CLAN_006_016_FRAG__011"><path d="M599.625,784.244l-3.619-7.441c-1.125-2.313-4.536-.22-3.416,2.082l3.619,7.441c1.125,2.313,4.536,.22,3.416-2.082h0Z" fill="#ffb17d"/></g><g id="CLAN_006_016_FRAG__012"><path d="M586.003,764.642c-6.016-2.234-8.047-8.935-4.877-14.356,1.303-2.228-2.191-4.176-3.49-1.955-4.576,7.823-.993,17.08,7.375,20.187,2.414,.896,3.382-2.989,.992-3.876h0Z" fill="#ffb17d"/></g><g id="CLAN_006_016_FRAG__013"><path d="M574.289,737.976c-4.668-.258-7.431-4.325-5.644-8.731,.585-1.442-.49-3.571-2.312-2.896-.652,.283-1.322,.51-2.011,.683-2.045,.783-3.599-.414-4.66-3.591l-2.082-3.416c-5.486,3.487-9.855-3.498-13.654-6.216-2.537-1.815-5.084-2.783-8.215-2.609-2.564,.142-2.503,4.142,.074,3.999,9.044-.502,13.719,14.699,23.877,8.242,2.169-1.379,.124-4.762-2.082-3.416-3.068,1.872-3.951,5.694-1.632,8.623,2.86,3.611,7.737,2.939,11.518,1.539l-2.312-2.896c-2.939,7.25,1.314,14.25,9.208,14.686,2.571,.142,2.485-3.858-.074-3.999h0Z" fill="#ffb17d"/></g><g id="CLAN_006_016_FRAG__014"><path d="M531.67,694.236c-.929-3.21-1.859-6.421-2.788-9.631-.715-2.47-4.555-1.346-3.837,1.134,.929,3.21,1.859,6.421,2.788,9.631,.715,2.47,4.555,1.346,3.837-1.134h0Z" fill="#ffb17d"/></g><g id="CLAN_006_016_FRAG__015"><path d="M524.67,670.32c-2.368-2.071,3.942-4.655,5.145-5.58,1.252-.962,2.246-2.172,2.68-3.71,.915-3.235-.729-6.53-3.612-8.072-2.272-1.215-4.228,2.275-1.955,3.49,3.16,1.69,1.507,4.492-.808,5.926-1.599,.99-3.29,1.697-4.523,3.184-1.917,2.311-2.044,5.595,.296,7.642,1.934,1.691,4.719-1.181,2.776-2.88h0Z" fill="#ffb17d"/></g><g id="CLAN_006_016_FRAG__016"><path d="M525.963,644.516c-.697-3.417-1.394-6.833-2.091-10.25-.514-2.519-4.349-1.377-3.837,1.134,.697,3.417,1.394,6.833,2.091,10.25,.514,2.519,4.349,1.377,3.837-1.134h0Z" fill="#ffb17d"/></g><g id="CLAN_006_016_FRAG__017"><path d="M520.469,622.541l-3.439-10.367c-.808-2.435-4.651-1.319-3.837,1.134l3.439,10.367c.808,2.435,4.651,1.319,3.837-1.134h0Z" fill="#ffb17d"/></g><g id="CLAN_006_016_FRAG__018"><path d="M514.548,600.227c-.795-3.243-1.59-6.486-2.386-9.728-.613-2.499-4.45-1.366-3.837,1.134,.795,3.243,1.59,6.486,2.386,9.728,.613,2.499,4.45,1.366,3.837-1.134h0Z" fill="#ffb17d"/></g><g id="CLAN_006_016_FRAG__019"><path d="M500.527,585.533c3.071-.3,5.182-1.941,6.294-4.9,1.181-3.145-2.096-16.149,3.089-15.353,2.07,.318,3.681-2.638,1.474-3.683-5.056-2.394,2.719-7.743,4.127-9.028s2.795-2.813,3.382-4.666c1.01-3.191-.158-6.437-3.104-8.003-2.275-1.21-4.231,2.28-1.955,3.49,4.778,2.54-2.96,7.764-4.39,9.089-1.39,1.288-2.769,2.844-3.32,4.707-.941,3.182,.294,6.476,3.305,7.901l1.474-3.683c-3.404-.523-6.071,1.003-7.524,4.201-1.65,3.633,2.4,15.408-2.924,15.928-2.545,.249-2.493,4.25,.074,3.999h0Z" fill="#ffb17d"/></g><g id="CLAN_006_017_FRAG__001"><path d="M669.183,191.975c3.859-1.353,7.249-3.603,9.914-6.714,1.669-1.949-1.201-4.736-2.88-2.776-2.218,2.59-4.944,4.523-8.168,5.653-2.418,.848-1.305,4.692,1.134,3.837h0Z" fill="#fbbf08"/></g><g id="CLAN_006_017_FRAG__002"><path d="M683.409,175.906l2.198-1.747c1.221,1.041,3.537,.365,3.388-1.477-.661-8.134,9.83-3.347,13.146-1.368,2.217,1.323,4.164-2.173,1.955-3.49-3.984-2.377-8.6-4.816-13.378-3.367-3.7,1.122-6.032,4.477-5.722,8.299l3.388-1.477c-4.426-3.771-10.798-.001-8.81,5.761,.836,2.423,4.68,1.309,3.837-1.134h0Z" fill="#fbbf08"/></g><g id="CLAN_006_017_FRAG__003"><path d="M709.654,162.321c5.159-4.145,11.765-5.304,18.081-3.514,2.482,.703,3.466-3.175,.992-3.876-7.798-2.21-15.675-.43-21.953,4.614-2.004,1.61,.897,4.369,2.88,2.776h0Z" fill="#fbbf08"/></g><g id="CLAN_006_017_FRAG__004"><path d="M736.376,158.083c7.55-.744,13.897-6.136,15.566-13.598,.562-2.511-3.313-3.507-3.876-.992-1.26,5.631-5.962,10.019-11.764,10.591-2.544,.251-2.493,4.252,.074,3.999h0Z" fill="#fbbf08"/></g><g id="CLAN_006_017_FRAG__005"><path d="M754.178,136.127c5.958,6.723,15.535,6.963,22.114,1.017,1.913-1.729-.977-4.496-2.88-2.776-5.049,4.563-12.021,3.887-16.459-1.121-1.71-1.929-4.475,.963-2.776,2.88h0Z" fill="#fbbf08"/></g><g id="CLAN_006_017_FRAG__006"><path d="M784.421,131.179c2.714-1.329,4.303-3.763,4.952-6.684,.953-4.29-1.822-12.393,3.433-14.531,2.36-.96,1.256-4.809-1.134-3.837-3.002,1.221-4.901,3.468-5.686,6.656-1.172,4.76,1.794,12.315-3.646,14.979-2.31,1.131-.218,4.542,2.082,3.416h0Z" fill="#fbbf08"/></g><g id="CLAN_006_017_FRAG__007"><path d="M809.648,111.244c.555-3.231,4.518-5.591,7.188-2.215,1.327,1.679,4.288,.738,3.627-1.608l6.615-1.829c1.383,1.108,4.132,.035,3.306-2.007-1.725-4.266,5.877-1.181,6.46-.968,1.402,.512,2.663,.931,4.162,1.125,2.524,.325,3.54-3.548,.992-3.876-4.025-.519-8.257-3.96-12.433-2.158-2.809,1.212-4.153,4.204-3.018,7.011l3.306-2.007c-2.83-2.267-6.37-3.835-9.904-2.082-3.062,1.519-4.217,4.757-3.324,7.925l3.627-1.608c-4.507-5.699-13.175-4.285-14.48,3.305-.434,2.524,3.44,3.53,3.876,.992h0Z" fill="#fbbf08"/></g><g id="CLAN_006_017_FRAG__008"><path d="M850.666,103.778c7.618-.412,14.229-6.061,15.522-13.644,.43-2.524-3.443-3.531-3.876-.992-.99,5.805-5.776,10.316-11.72,10.637-2.564,.139-2.503,4.139,.074,3.999h0Z" fill="#fbbf08"/></g><g id="CLAN_006_017_FRAG__009"><path d="M871.875,87.538c.809-1.993,2.234-2.21,4.275-.651,1.082,1.418,3.897,1.101,3.708-1.078-.523-6.03,7.488-.761,8.973,.497,1.957,1.658,4.745-1.212,2.776-2.88-2.835-2.401-6.211-5.062-10.183-4.362-3.357,.592-5.863,3.4-5.566,6.818l3.708-1.078c-3.099-4.06-8.764-4.01-11.181,.778-1.16,2.296,2.328,4.256,3.49,1.955h0Z" fill="#fbbf08"/></g><g id="CLAN_006_017_FRAG__010"><path d="M899.328,83.344c2.37-.931,4.029-.388,4.976,1.631,1.567,2.073,4.492,.257,3.416-2.082l2.655-.275,1.863,1.509c.731,.597,1.388,1.258,2.183,1.78,1.187,.779,2.306,1.229,3.725,1.416,2.525,.333,3.54-3.54,.992-3.876-4.502-.594-6.822-6.686-11.999-5.182-3.099,.9-4.105,3.95-2.836,6.711l3.416-2.082c-1.881-2.488-4.318-5.383-7.814-4.93-2.819,.365-4.83,2.651-4.578,5.456,.229,2.549,4.231,2.495,3.999-.074h0Z" fill="#fbbf08"/></g><g id="CLAN_006_017_FRAG__011"><path d="M925.606,87.901c6.703,1.23,13.352-.092,18.974-3.986,2.106-1.459,.042-4.888-2.082-3.416-4.734,3.279-10.208,4.57-15.899,3.526-2.522-.463-3.526,3.411-.992,3.876h0Z" fill="#fbbf08"/></g><g id="CLAN_006_018_FRAG__001"><path d="M514.515,519.654c-4.403-2.529-4.422-8.527,.457-10.589,1.381-.583,2.173-2.909,.41-3.664-2.201-.943-4.473-1.857-6.396-3.31-2.797-2.113-7.339-10.243-.094-10.604,2.271-.113,2.631-3.284,.459-3.938-4.62-1.391-9.329-3.228-12.229-7.3-3.131-4.397-2.917-10.297,2.3-12.878,2.306-1.141,.215-4.553-2.082-3.416-5.591,2.767-7.63,9.295-5.466,15.011,2.672,7.057,9.705,10.42,16.484,12.46l.459-3.938c-4.894,.244-8.388,4.319-7.807,9.278,.767,6.558,7.024,9.815,12.416,12.125l.41-3.664c-8.006,3.383-9.003,13.479-1.278,17.916,2.238,1.285,4.187-2.208,1.955-3.49h0Z" fill="#ffdc91"/></g><g id="CLAN_006_018_FRAG__002"><path d="M502.484,452.822c1.107-2.574,2.834-3.363,5.18-2.367,2.06,.342,3.709-2.731,1.474-3.683-5.784-2.464,1.613-6.188,3.112-6.626,1.973-.577,4.098-.633,6.138-.756,3.39-.204,6.789-.166,10.138-.819,5.084-.991,9.524-3.47,12.065-8.09,1.243-2.259-2.249-4.213-3.49-1.955-5.731,10.421-19.917,4.316-28.823,8.841-4.962,2.521-7.316,10.245-1.094,12.896l1.474-3.683c-3.388-.562-7.616-.942-9.894,2.255-1.929,2.705-.984,5.884,1.767,7.478,2.233,1.294,4.182-2.2,1.955-3.49h0Z" fill="#ffdc91"/></g><g id="CLAN_006_018_FRAG__003"><path d="M528.728,410.125c-4.423-3.824-3.929-9.681,1.12-12.621,1.319-.768,1.211-2.715-.064-3.453-5.285-3.059-12.036-7.093-10.958-14.269,.379-2.525-3.494-3.536-3.876-.992-1.383,9.209,5.715,14.605,12.879,18.751l-.064-3.453c-7.187,4.186-8.133,13.454-1.813,18.917,1.942,1.679,4.728-1.192,2.776-2.88h0Z" fill="#ffdc91"/></g><g id="CLAN_006_018_FRAG__004"><path d="M522.489,368.861l3.679-5.125c2.083,1.008,3.878-1.478,2.365-3.185-2.309-2.607-.964-6.452,1.544-8.279,2.351-1.712,5.403-2.013,8.239-1.833,5.301,.338,10.357,2.275,15.686,2.601,2.57,.157,2.483-3.843-.074-3.999-8.412-.514-18.495-5.733-26.289-.029-4.684,3.428-5.742,10.062-1.882,14.419l2.365-3.185c-7.808-3.779-14.46,5.18-8.409,11.496,1.785,1.863,4.555-1.023,2.776-2.88h0Z" fill="#ffdc91"/></g><g id="CLAN_006_018_FRAG__005"><path d="M553.262,329.533c1.734-3.566,3.902-6.583,6.742-9.351,.927-.904,.633-2.52-.462-3.133-1.85-1.036-7.091-3.61-6.89-6.363l3.38-4.708,2.028,.273c2.078,.585,3.942,2.207,5.582,3.547,1.479,1.208,3.912,.024,3.306-2.007-1.87-6.272-.514-12.562,3.872-17.455,1.717-1.915-1.157-4.698-2.88-2.776-5.329,5.945-7.116,13.695-4.829,21.365l3.306-2.007c-4.357-3.559-12.222-8.102-16.64-1.883-4.655,6.552,2.69,12.639,7.809,15.504l-.462-3.133c-3.066,2.989-5.481,6.322-7.353,10.172-1.123,2.31,2.363,4.273,3.49,1.955h0Z" fill="#ffdc91"/></g><g id="CLAN_006_018_FRAG__006"><path d="M580.038,284.106c5.367-2.9,11.158-3.49,17.017-1.862,1.73,.48,3.048-1.503,2.204-2.979-3.282-5.741-4.711-11.875-4.411-18.474,.117-2.573-3.883-2.489-3.999,.074-.331,7.279,1.382,14.163,4.994,20.483l2.204-2.979c-6.89-1.913-13.816-1.069-20.091,2.322-2.265,1.224-.181,4.639,2.082,3.416h0Z" fill="#ffdc91"/></g><g id="CLAN_006_018_FRAG__007"><path d="M599.137,252.274c1.27-6.555,4.655-12.352,9.94-16.479,2.004-1.565-.051-5.002-2.082-3.416-6.115,4.775-10.253,11.258-11.734,18.902-.488,2.52,3.386,3.522,3.876,.992h0Z" fill="#ffdc91"/></g><g id="CLAN_006_018_FRAG__008"><path d="M622.881,229.328c-.755-10.356,12.276-14.406,17.365-5.167,.712,1.293,2.787,1.248,3.453-.064,.548-1.412,1.528-2.396,2.939-2.952,2.248-1.256,.167-4.673-2.082-3.416-1.968,1.1-3.32,2.389-4.347,4.413l3.453-.064c-6.941-12.603-25.83-7.074-24.78,7.322,.186,2.557,4.187,2.5,3.999-.074h0Z" fill="#ffdc91"/></g><g id="CLAN_006_018_FRAG__009"><path d="M653.072,220.433c5.893,.852,11.439,1.77,16.747-1.579,4.27-2.694,7.115-7.044,7.904-12.01,.401-2.525-3.472-3.534-3.876-.992-.631,3.972-2.66,7.412-6.11,9.586-4.333,2.731-8.884,1.811-13.673,1.119-2.525-.365-3.538,3.508-.992,3.876h0Z" fill="#ffdc91"/></g></g></svg>