<?xml version="1.0" encoding="UTF-8"?><svg xmlns="http://www.w3.org/2000/svg" viewBox="0 0 1920 1080"><g id="AXE"><circle cx="958.134" cy="537.133" r="18.112" fill="#1a1aa7"/><line x1="958.5" y1="36.5" x2="958.5" y2="523.5" fill="none" stroke="#1a1aa7" stroke-linecap="square" stroke-linejoin="round" stroke-width=".5"/></g><g id="FRAGMENTS"><g id="GOUR_002_001_FRAG_001"><path d="M983.276,67.239c.392-1.382,2.805,2.134,3.001,2.275,1.173,.842,2.73,.893,4.059,.451,1.292-.43,2.573-2.434,3.9-2.385,1.286,.047,3.031,2.315,4.543,2.614,1.494,.296,2.722-.056,4.027-.774,2.144-1.181,1.686-2.085,3.71-.461,1.116,.896,1.949,1.801,3.447,2.044,3.21,.522,5.175-1.181,8.348,1.344,2.499,1.99,5.99-1.593,3.47-3.6-2.02-1.608-4.109-2.774-6.731-3.01-1.129-.102-2.353,.326-3.425,.183-1.813-.243-2.028-1.327-3.451-2.303-1.296-.89-2.769-1.244-4.324-.804-3.339,.944-2.87,3.153-6.277,1.005-1.712-1.08-3.259-1.689-5.283-1.044-.801,.255-1.888,1.523-2.541,1.617-1.357,.196-.203,.449-1.653-1.217-3.37-3.871-8.435-1.513-9.665,2.825-.88,3.102,3.968,4.332,4.845,1.24h0Z" fill="#8252b1"/></g><g id="GOUR_002_001_FRAG_002"><path d="M1055.576,77.987c-.42,.372,2.64,2.658,3.125,2.886,1.445,.681,2.915,.757,4.493,.633,6.033-.473,10.181,.457,15.71,3.174,2.883,1.417,5.336-2.942,2.444-4.363-6.08-2.988-10.829-4.254-17.561-3.915-4.631,.233-7.224-5.949-11.81-1.886-2.412,2.137,1.203,5.593,3.6,3.47h0Z" fill="#8252b1"/></g><g id="GOUR_002_001_FRAG_003"><path d="M1107.643,92.37c4.25-.645,5.453,5.12,7.66,7.556,1.786,1.971,3.479,2.644,6.042,3.087,5.108,.883,6.993,3.298,11.074,5.969,3.026,1.98,6.324,3.364,9.759,4.448,3.075,.971,4.298-3.88,1.24-4.845-5.245-1.655-9.063-4.341-13.276-7.763-2.428-1.972-4.415-2.276-7.423-2.739-6.825-1.052-6.826-11.979-15.168-10.712-3.135,.476-3.084,5.481,.092,4.999h0Z" fill="#8252b1"/></g><g id="GOUR_002_001_FRAG_004"><path d="M1162.233,129.749c8.519,1.402,12.957,10.794,22.511,8.339,3.423-.88,5.396-2.246,8.879-.33,2.054,1.13,3.595,2.227,5.962,2.703,5.554,1.119,11.977-.341,17.57-.823,3.189-.275,3.121-5.276-.092-4.999-5.738,.495-14.041,2.732-19.296-.142-3.598-1.968-5.895-3.552-10.174-2.538-2.475,.586-4.891,2.039-7.527,1.571-2.201-.39-4.183-1.892-5.964-3.148-3.361-2.37-6.468-4.794-10.627-5.479-3.156-.519-4.416,4.323-1.24,4.845h0Z" fill="#8252b1"/></g><g id="GOUR_002_001_FRAG_005"><path d="M1221.762,160.436c1.775,4.324,6.485,4.342,9.355,7.65,3.911,4.508,8.074,8.406,13.025,11.762,2.669,1.809,5.089-2.569,2.444-4.363-4.391-2.977-8.143-6.499-11.596-10.511-1.09-1.267-2.136-2.473-3.6-3.324-1.193-.693-4.262-1.245-4.832-2.632-1.209-2.944-6.021-1.566-4.796,1.418h0Z" fill="#8252b1"/></g><g id="GOUR_002_001_FRAG_006"><path d="M1270.659,186.638c-.858,6.029-.557,12.303,4.782,16.141,1.91,1.373,3.65,2.309,5.061,4.291,1.106,1.555,1.997,3.222,3.189,4.722,2.307,2.905,5.159,5.059,8.437,6.754,2.859,1.478,5.306-2.883,2.444-4.363-5.596-2.893-7.464-7.429-11.425-11.827-1.665-1.849-3.987-2.742-5.677-4.518-2.598-2.732-2.471-6.411-1.966-9.96,.449-3.157-4.392-4.423-4.845-1.24h0Z" fill="#8252b1"/></g><g id="GOUR_002_001_FRAG_007"><path d="M1313.303,230.811c1.129,4.738,4.12,8.11,7.869,11.093,4.558,3.626,8.31,6.863,11.692,11.682,4.645,6.62,11.454,12.933,19.942,8.95,2.908-1.364,.289-5.627-2.603-4.27-7.974,3.742-13.192-8.264-17.162-12.841-4.786-5.517-13.114-8.357-14.942-16.032-.745-3.129-5.541-1.711-4.796,1.418h0Z" fill="#8252b1"/></g><g id="GOUR_002_001_FRAG_008"><path d="M1371.485,269.657c-9.789,11.143-13.629,25.836-10.65,40.352,.646,3.148,5.44,1.721,4.796-1.418-2.601-12.678,.922-25.753,9.454-35.464,2.12-2.413-1.471-5.894-3.6-3.47h0Z" fill="#8252b1"/></g><g id="GOUR_002_001_FRAG_009"><path d="M1376.327,337.117c3.867,2.224,1.121,6.939,2.443,10.496s4.46,5.881,5.632,9.552c2.602,8.147-.957,17.289,.452,25.693,.53,3.162,5.323,1.726,4.796-1.418-1.632-9.736,3.138-20.126-1.987-29.304-.94-1.684-2.469-3.042-3.341-4.744-1.319-2.575-.363-4.803-.6-7.44-.288-3.204-2.248-5.643-4.951-7.198-2.796-1.608-5.233,2.759-2.444,4.363h0Z" fill="#8252b1"/></g><g id="GOUR_002_002_FRAG_001"><path d="M1405.186,405.731c-1.25,18.819,21.418,14.053,32.941,15.163,7.202,.694,2.708,4.683-.609,6.771-2.356,1.483-4.85,2.731-6.999,4.522-1.888,1.573-3.336,3.35-4.256,5.636-1.359,3.375-.865,7.588-3.292,10.494-2.054,2.459,1.533,5.945,3.6,3.47,2.082-2.493,2.755-5.076,3.382-8.227,.861-4.324,2.306-6.77,6.039-9.155,4.321-2.76,10.32-5.337,11.586-10.913,3.657-16.106-38.727,2.233-37.394-17.854,.213-3.21-4.787-3.1-4.999,.092h0Z" fill="#ad76ff"/></g><g id="GOUR_002_002_FRAG_002"><path d="M1438.354,469.1c3.017,3.391,3.846,7.209-.937,9.837-2.1,1.153-4.538,1.732-6.77,2.571-3.549,1.334-7.023,2.894-10.362,4.69-5.371,2.889-11.154,6.082-10.118,13.135,1.807,12.307,18.102,13.999,21.22,25.202,.862,3.098,5.661,1.689,4.796-1.418-1.56-5.606-5.722-9.175-10.24-12.527-5.32-3.947-16.643-11.886-6.929-17.889,4.13-2.552,8.505-4.694,13.051-6.398,3.316-1.243,6.893-2.103,9.754-4.283,6.306-4.806,4.681-11.265,.005-16.52-2.142-2.408-5.599,1.207-3.47,3.6h0Z" fill="#ad76ff"/></g><g id="GOUR_002_002_FRAG_003"><path d="M1441.936,545.728c2.378,11.756-16.36,11.598-23.241,13.484-6.039,1.656-12.442,5.98-13.414,12.652-1.006,6.908,4.651,11.487,9.955,14.649,7.081,4.222,15.16,7.386,19.472,14.854,1.609,2.787,5.882,.189,4.27-2.603-3.714-6.432-9.807-10.194-16.142-13.72-3.167-1.763-6.731-3.395-9.457-5.834-4.901-4.384-3.329-9.88,1.804-13.149,7.108-4.527,16.495-2.497,23.833-6.69,5.514-3.151,9.003-8.694,7.715-15.062-.637-3.149-5.431-1.722-4.796,1.418h0Z" fill="#ad76ff"/></g><g id="GOUR_002_002_FRAG_004"><path d="M1436.956,623.533c-4.825,1.938-7.631,6.423-7.257,11.679,.411,5.782,4.636,10.377,8.89,13.857,2.787,2.281,6.847,4.351,8.515,7.629,1.876,3.687-1.318,5.538-1.621,9.046-.229,2.652,1.142,4.216,2.785,6.072,3.186,3.597,4.946,7.054,3.921,12.03-.648,3.146,4.195,4.396,4.845,1.24,.994-4.823,.33-9.683-2.542-13.777-2.004-2.857-3.828-3.702-2.777-7.63,.541-2.02,1.624-3.339,1.357-5.613-.621-5.287-5.929-8.58-9.707-11.566-2.655-2.099-5.375-4.28-7.134-7.226-2.113-3.537-2.477-9.091,2.143-10.946,2.957-1.188,1.576-5.999-1.418-4.796h0Z" fill="#ad76ff"/></g><g id="GOUR_002_002_FRAG_005"><path d="M1441.434,702.513c-2.649,6.91-9.743-.989-13.092,3.184-1.028,1.281-.745,2.862-1.85,4.21-1.371,1.672-3.866,1.985-5.875,1.963-4.025-.044-8.107-1.66-11.811-3.048-6.156-2.306-13.13-5.879-19.887-4.261-4.905,1.174-8.336,5.012-8.454,10.088-.074,3.219,4.925,3.121,4.999-.092,.282-12.211,25.831,.922,31.546,1.91,3.347,.578,6.886,.65,9.998-.87,1.543-.753,2.856-1.807,3.853-3.212,.921-1.299,.967-3.025,1.843-4.244l-2.136,1.278c1.373-.15,3.151,.892,4.618,.998,1.744,.126,3.484-.07,5.139-.645,3.027-1.052,4.833-3.096,5.952-6.017,1.151-3.004-3.706-4.211-4.845-1.24h0Z" fill="#ad76ff"/></g><g id="GOUR_002_002_FRAG_006"><path d="M1373.047,738.052c1.436,10.442,3.485,20.995,4.306,31.502,.229,2.929-.892,5.932-4.161,5.231-1.543-.331-2.999-.993-4.547-1.313-2.681-.554-5.387-.327-7.32,1.808s-1.99,4.944-1.549,7.653c.251,1.542,1.554,4.185,1.046,5.701-1.085,3.24-5.691,1.762-8.036,1.497-6.942-.785-14.902-2.084-19.418,4.475-1.828,2.655,2.552,5.074,4.363,2.444,5.378-7.811,18.79,2.386,25.42-2.625,2.494-1.885,2.853-4.924,2.505-7.844-.292-2.459-1.851-4.929-.17-7.056,1.696-2.148,3.478-.675,5.895-.042,6.268,1.642,10.914-1.484,11.04-8.127,.097-5.083-1.212-10.396-1.903-15.417-.824-5.993-1.648-11.985-2.472-17.978-.433-3.149-5.437-3.095-4.999,.092h0Z" fill="#ad76ff"/></g><g id="GOUR_002_002_FRAG_007"><path d="M1344.978,832.362c-3.146-.385-6.134-.16-8.948,1.473-2.73,1.583-3.571,3.76-5.46,6.041-4.339,5.238-10.58-2.09-14.455-5.133-2.475-1.943-4.948-4.125-7.947-5.216-5.807-2.112-11.071,.883-13.412,6.405-2.885,6.803,1.454,18.322-6.343,22.212-2.878,1.436-.265,5.701,2.603,4.27,4.444-2.217,6.413-6.663,7.013-11.403,.56-4.423-.625-9.745,1.632-13.819,3.109-5.612,8.342-2.448,12.232,.557,4.393,3.393,10.167,9.912,16.338,9.377,7.399-.641,7.106-10.949,15.507-9.92,3.155,.386,4.426-4.455,1.24-4.845h0Z" fill="#ad76ff"/></g><g id="GOUR_002_002_FRAG_008"><path d="M1283.242,886.815c-6.99,5.437-10.521-5.123-16.817-4.815-1.195,.058-2.02,.736-3.126,.978-2.737,.601-3.942,.15-6.265-1.182-1.726-.989-3.036-1.725-5.094-1.445-3.456,.47-5.061,2.401-8.573,.473-2.018-1.108-3.784-2.599-5.969-3.407-5.751-2.127-11.085,.737-15.671,4.123-2.567,1.896,.007,6.187,2.603,4.27,3.637-2.685,7.854-5.515,12.457-3.185,2.236,1.132,4.115,2.885,6.51,3.725,2.216,.778,4.115,.763,6.345,.087,2.269-.687,2.864-1.125,5.209-.059,1.004,.456,1.845,1.166,2.927,1.526,2.403,.8,4.233,.461,6.634,.023,3.556-.649,4.398,.969,7.249,2.818,4.399,2.854,9.83,3.726,14.182,.341,2.51-1.952-.059-6.249-2.603-4.27h0Z" fill="#ad76ff"/></g><g id="GOUR_002_003_FRAG_001"><path d="M1212.501,918.497c-3.436,3.505-5.358,7.813-6.398,12.576-.612,2.799-.874,5.657-1.195,8.5-.363,3.219-.4,8.158-2.179,10.971-3.454,5.459-6.416-.194-8.196-3.183-1.204-2.023-2.48-3.932-4.205-5.55-3.628-3.403-8.121-5.055-13.018-5.456-3.204-.262-3.09,4.739,.092,4.999,8.495,.695,10.905,6.688,15.358,12.623,2.454,3.271,6.993,6.26,11.094,3.713,4.579-2.844,5.228-11.141,5.784-15.796,.843-7.055,1.203-14.56,6.463-19.927,2.256-2.302-1.345-5.771-3.6-3.47h0Z" fill="#cd99da"/></g><g id="GOUR_002_003_FRAG_002"><path d="M1164.787,976.027c-.836,1.564-2.306,4.747-4.231,4.938-1.588,.158-3.404-2.206-4.233-3.325-1.93-2.605-3.126-5.921-4.557-8.809-2.2-4.439-4.754-8.833-8.704-11.949-2.381-1.879-5.778-3.865-8.812-2.215-4.526,2.461-3.328,8.604-8.587,10.831-2.926,1.239-1.55,6.052,1.418,4.796,2.175-.921,4.039-1.992,5.603-3.819,1.489-1.741,1.682-4.515,3.094-6.096,4.278-4.791,11.562,10.76,12.9,13.495,2.143,4.381,4.864,11.593,10.573,12.13,4.887,.46,7.87-3.736,9.899-7.533,1.518-2.841-2.845-5.285-4.363-2.444h0Z" fill="#cd99da"/></g><g id="GOUR_002_003_FRAG_003"><path d="M1107.987,993.117c-5.689,1.21-7.705-6.133-9.418-9.997-1.508-3.404-3.156-6.788-5.074-9.981-2.757-4.591-6.605-9.008-12.514-8.207-5.759,.78-9.351,5.851-10.803,11.089-1.05,3.786-.656,7.892-1.923,11.612-1.018,2.99-3.128,5.407-6.747,4.628-2.955-.636-5.006-3.543-6.612-5.816-1.847-2.613-6.134-.034-4.27,2.603,3.576,5.058,9.402,10.586,16.13,7.662,8.283-3.6,6.172-13.772,8.7-20.683,1.086-2.969,3.219-5.931,6.644-6.016,3.222-.08,5.172,2.548,6.74,5.092,2.555,4.147,4.536,8.586,6.485,13.038,2.625,5.994,6.894,11.302,14.08,9.773,3.144-.669,1.72-5.464-1.418-4.796h0Z" fill="#cd99da"/></g><g id="GOUR_002_003_FRAG_004"><path d="M1028.967,983.045c-9.15-4.874-20.916-2.903-27.303,5.518-3.514,4.633-5.028,10.269-6.995,15.647-.92,2.514-2.916,8.828-5.752,9.847-4.094,1.472-4.188-5.973-4.342-8.254-.328-4.868,.567-12.081-3.101-15.978-3.24-3.442-8.525-2.713-12.256-.549-10.211,5.922-11.787,19.879-20.437,27.392-2.432,2.112,1.185,5.567,3.6,3.47,7.997-6.945,9.64-18.974,17.82-25.467,1.234-.98,3.568-2.46,5.278-2.261,3.484,.407,3.366,3.203,3.602,5.557,.329,3.291,.301,6.617,.618,9.909,.36,3.738,1.123,8.168,4.505,10.42,8.443,5.62,13.838-8.639,15.796-14.223,1.921-5.479,3.631-11.552,8.393-15.292,5.211-4.092,12.36-4.447,18.13-1.374,2.843,1.514,5.287-2.848,2.444-4.363h0Z" fill="#cd99da"/></g><g id="GOUR_002_003_FRAG_005"><path d="M932.581,1002.27c-1.063-7.994-3.537-17.772-12.338-20.458-10.619-3.242-18.265,9.295-28.377,6.617-3.116-.825-4.351,4.021-1.24,4.845,6.925,1.834,12.343-1.76,18.308-4.724,4.684-2.328,9.648-3.648,13.821,.64,3.366,3.459,4.217,8.589,4.827,13.172,.419,3.153,5.423,3.098,4.999-.092h0Z" fill="#cd99da"/></g><g id="GOUR_002_003_FRAG_006"><path d="M860.068,983.977c-6.756-1.306-12.627,.088-18.398,3.702-4.653,2.914-8.475,5.149-13.287,1.281-1.956-1.573-3.749-3.27-6.317-3.751-2.921-.547-5.51,.684-8.113,1.825s-5.097,2.574-6.545-1.327c-.497-1.34-.138-3.295-.48-4.749-1.27-5.4-5.321-9.22-10.424-11.024-3.037-1.074-4.251,3.78-1.24,4.845,4.42,1.563,6.656,5.151,7.069,9.625,.227,2.457,.278,4.965,2.111,6.866,5.139,5.329,10.957-1.457,16.301-.787,3.294,.413,4.858,3.256,7.679,4.739,2.465,1.296,5.228,1.54,7.915,.844,3.52-.911,6.239-3.25,9.337-5.009,4.137-2.349,8.451-3.143,13.155-2.234,3.15,.609,4.403-4.234,1.24-4.845h0Z" fill="#cd99da"/></g><g id="GOUR_002_003_FRAG_007"><path d="M772.725,972.921c-6.903,2.436-19.837,5.926-21.079-5.14-.789-7.029,3.576-13.883,3.541-20.952-.05-10.153-9.337-17.247-19.137-14.499-3.096,.868-1.688,5.667,1.418,4.796,8.727-2.447,13.688,5.385,12.411,13.237-1.051,6.466-4.231,12.837-2.972,19.52,2.511,13.328,17.86,11.144,27.236,7.835,3.02-1.066,1.629-5.871-1.418-4.796h0Z" fill="#cd99da"/></g><g id="GOUR_002_003_FRAG_008"><path d="M705.173,936.368c-7.318,4.317-8.754-2.554-8.511-8.383,.085-2.024-2.234-2.9-3.801-2.089-2.549,1.319-5.264,2.523-7.763,.912-1.48-.955-2.056-2.279-2.585-3.898-.943-2.886-1.177-6.054-1.429-9.064-.543-6.467-.372-12.929,.319-19.376,.342-3.191-4.66-3.07-4.999,.092-1.366,12.738-2.981,47.014,19.06,35.604l-3.801-2.089c-.182,4.348,.171,10.702,3.867,13.74,3.761,3.091,8.613,.964,12.245-1.179,2.772-1.635,.175-5.909-2.603-4.27h0Z" fill="#cd99da"/></g><g id="GOUR_002_004_FRAG_001"><path d="M639.079,867.781c3.221-1.395,4.736-4.964,2.546-8.108-2.868-4.12-10.373-3.416-14.607-3.302-6.971,.188-13.898,1.387-20.696,2.877-3.634,.796-7.243,1.701-10.853,2.599-1.805,.449-3.608,.905-5.415,1.344-1.573,.383-4.708,1.794-6.298,1.399-4.97-1.236,3.702-7.735,5.285-8.949,2.6-1.994,5.352-3.782,8.11-5.546,5.196-3.323,10.573-6.514,15.217-10.608,2.532-2.232,6.474-6.718,4.383-10.392-2.44-4.288-9.904-.917-13.369-4.327-2.297-2.261-5.766,1.34-3.47,3.6,1.433,1.41,2.98,2.357,4.936,2.88,1.648,.441,4.784-.06,6.13,.689,2.599,1.446-9.518,9.468-11.573,10.797-4.82,3.115-9.755,6.059-14.253,9.639-3.269,2.602-7.858,5.94-8.303,10.447-1.081,10.943,13.927,5.346,19.136,4.048,6.301-1.571,12.608-3.178,19.016-4.258,3.401-.573,6.834-.988,10.279-1.167,1.829-.095,3.668-.129,5.5-.08l1.838,.073c1.891-.188,3.572,.328,5.044,1.547-2.912,1.262-1.538,6.077,1.418,4.796h0Z" fill="#a41c78"/></g><g id="GOUR_002_004_FRAG_002"><path d="M593.883,799.176c-6.44,.966-12.042-2.084-14.713-8.023-.433-.962-1.895-1.415-2.844-1.097-6.657,2.234-13.625,3.478-20.669,3.112-2.359-.123-3.221,.206-4.293-2.148-1.059-2.324-.082-3.301,1.521-4.929,1.998-2.029,4.391-3.437,6.257-5.632,1.505-1.77,.303-4.01-1.846-4.235-4.322-.451-.627-6.165,.527-7.401,.954-1.021,2.083-1.903,3.123-2.831,3.021-2.697,5.854-5.574,8.421-8.709,3.05-3.725,8.78-9.804,6.07-15.071-2.743-5.331-11.257-4.558-16.13-4.525-8.282,.055-16.481,1.197-24.515,3.175-3.123,.769-1.707,5.565,1.418,4.796,8.215-2.022,16.578-3.076,25.044-2.965,1.435,.019,6.419-.509,7.485,.517,2.287,2.201,1.233,4.935-.205,6.981-2.365,3.366-5.094,6.492-8.019,9.378-3.736,3.686-9.625,7.218-10.142,12.997-.412,4.598,2.556,8.192,7.017,8.657l-1.846-4.235c-3.838,4.514-15.578,11.947-7.961,18.953,2.927,2.692,8.164,2.345,11.784,2.256,6.28-.154,12.433-1.351,18.378-3.346l-2.844-1.097c3.302,7.342,11.113,11.614,19.076,10.42,3.137-.47,3.086-5.476-.092-4.999h0Z" fill="#a41c78"/></g><g id="GOUR_002_004_FRAG_003"><path d="M533.028,704.757c.967-4.874,5.983-7.25,9.006-10.769,3.26-3.794,4.07-8.282,2.263-13.024-1.74-4.568-5.123-7.229-9.972-7.75-7.597-.816-14.509-.973-21.838-3.552-3.039-1.069-4.254,3.785-1.24,4.845,4.597,1.617,9.284,2.74,14.138,3.236,6.064,.619,16.367-.363,14.791,9.141-1.144,6.901-10.537,9.285-11.993,16.632-.624,3.149,4.218,4.4,4.845,1.24h0Z" fill="#a41c78"/></g><g id="GOUR_002_004_FRAG_004"><path d="M506.887,642.807c-3.738-3.938-8.097-8.656-5.496-14.395,.859-1.895,1.802-3.641,.301-5.578-1.567-2.023-5.22-2.747-7.379-4.023-4.731-2.797-8.314-6.794-8.04-12.574,.153-3.216-4.847-3.111-4.999,.092-.206,4.348,1.264,8.367,4.125,11.666,1.321,1.524,2.867,2.803,4.527,3.941,1.57,1.076,5.669,2.267,6.795,3.62,.926,1.112,.417-.736-.325,1.668-.201,.65-.487,1.271-.638,1.941-.403,1.794-.324,3.786,.077,5.563,1.057,4.686,4.372,8.298,7.582,11.679,2.22,2.339,5.683-1.269,3.47-3.6h0Z" fill="#a41c78"/></g><g id="GOUR_002_004_FRAG_005"><path d="M490.067,579.686c4.488-2.149,9.769-7.065,5.773-12.262-1.997-2.597-5.533-4.33-8.169-6.184-3.685-2.591-7.37-5.182-11.055-7.773-2.635-1.853-5.052,2.529-2.444,4.363,3.685,2.591,7.37,5.182,11.055,7.773,1.541,1.084,4.419,2.382,5.528,3.887,2.662,3.612-.672,4.672-3.29,5.926-2.898,1.388-.281,5.651,2.603,4.27h0Z" fill="#a41c78"/></g><g id="GOUR_002_004_FRAG_006"><path d="M493.764,530.229c5.354-6.722,8.478-14.294,1.817-21.371-2.976-3.161-6.905-4.939-10.463-7.31-1.387-.924-6.078-3.799-4.548-5.654,.674-.817,3.54-1.263,4.556-1.991,1.198-.858,1.775-2.848,.434-3.935-5.97-4.838-12.817-12.405-5.01-19.133,2.44-2.102-1.178-5.557-3.6-3.47-3.716,3.202-5.706,8-4.808,12.912,1.053,5.76,5.621,9.785,9.948,13.291l.434-3.935c-2.441,1.749-6.218,1.525-7.499,4.718-1.241,3.093,1.156,6.124,3.252,8.18,3.052,2.992,7.002,4.692,10.478,7.093,2.596,1.793,5.571,4.369,5.865,7.771,.305,3.53-2.411,6.797-4.455,9.364-1.99,2.499,1.593,5.99,3.6,3.47h0Z" fill="#a41c78"/></g><g id="GOUR_002_004_FRAG_007"><path d="M493.159,456.294c-1.482-6.962,14.523-1.245,17.131-6.066,1.031-1.906,.231-4.036-.723-5.791-1.458-2.681-8.751-9.043-2.302-10.638,1.507-.373,2.324-2.405,1.426-3.699-2.284-3.292-2.921-6.978-1.295-10.768,1.258-2.934-3.095-5.399-4.363-2.444-2.312,5.389-2.003,10.924,1.388,15.814l1.426-3.699c-3.451,.854-6.092,3.504-6.296,7.187-.089,1.609,.408,3.127,1.162,4.529,.748,1.391,4.215,4.323,4.272,5.758,.079,2.008-5.114,.75-6.679,.808-1.798,.067-3.658,.31-5.301,1.077-3.817,1.781-5.498,5.33-4.643,9.349,.669,3.144,5.464,1.719,4.796-1.418h0Z" fill="#a41c78"/></g><g id="GOUR_002_004_FRAG_008"><path d="M485.938,395.122c5.257-.096,10.472-.589,15.637-1.586,3.829-.739,9.675-1.296,12.229-4.7,2.595-3.458-.379-7.535,1.6-10.902,3.113-5.296,12.371-.747,17.432-.326,7.576,.63,16.059-1.318,20.698-7.822,4.181-5.862,4.343-13.536-.313-19.091-2.067-2.466-5.519,1.155-3.47,3.6,5.928,7.072-1.319,15.951-8.514,17.802-8.005,2.059-15.197-2.603-22.995-1.547-5.617,.761-9.178,4.816-8.673,10.468,.242,2.713,1.456,3.672-2.091,5.956-1.774,1.142-5.264,1.372-7.322,1.766-4.731,.906-9.501,1.295-14.311,1.383-3.217,.059-3.13,5.058,.092,4.999h0Z" fill="#a41c78"/></g><g id="GOUR_002_005_FRAG_001"><path d="M547.954,320.753c2.827-3.566,5.944-7.737,5.407-12.566-.254-2.283-1.33-4.06-2.55-5.936-.836-1.285-1.678-2.071-1.649-3.751,.037-2.079,.305-2.03,2.194-2.61,3.405-1.045,7.109-.854,9.856-3.487,3.028-2.903,2.867-7.336,1.347-10.971-1.545-3.695-10.139-11.842-2.395-13.683,2.477-.589,5.534,.072,8.059-.019,2.46-.088,4.914-.371,7.323-.879,9.421-1.986,17.765-8.451,19.68-18.211,.618-3.149-4.225-4.401-4.845-1.24-2.609,13.296-16.391,15.308-27.708,15.266-7.794-.029-13.7,4.588-9.699,12.738,1.999,4.071,9.949,11.559,2.453,14.543-3.081,1.226-6.614,.708-9.338,2.922-2.509,2.039-2.992,5.185-1.878,8.118,.621,1.634,1.802,2.947,2.701,4.42,2.733,4.478,.382,8.166-2.559,11.876-1.984,2.503,1.599,5.995,3.6,3.47h0Z" fill="#ee88f6"/></g><g id="GOUR_002_005_FRAG_002"><path d="M615.974,229.626c.414-3.17,.154-6.379,.58-9.533,.644-4.764,3.361-6.532,7.844-7.261,5.117-.832,10.747-.277,15.17-3.518,4.078-2.989,4.754-7.751,4.532-12.49-.374-8.01-1.333-16.034-2.004-24.024-.268-3.19-5.269-3.122-4.999,.092,.631,7.516,1.34,15.03,1.892,22.551,.278,3.791,.561,8.016-3.097,10.3-2.652,1.656-6.206,1.535-9.206,1.804-4.569,.41-9.469,1.268-12.537,5.024-3.657,4.477-2.333,10.536-3.022,15.815-.412,3.156,4.429,4.425,4.845,1.24h0Z" fill="#ee88f6"/></g><g id="GOUR_002_005_FRAG_003"><path d="M674.395,161.573c9.935,.411,23.04,8.254,31.188-1.347,3.527-4.156,4.118-10.147,4.93-15.321,1.078-6.87,1.722-13.793,2.016-20.74,.136-3.217-4.864-3.113-4.999,.092-.236,5.584-.683,11.149-1.46,16.685-.661,4.706-.926,11.531-3.899,15.456-6.146,8.112-19.765,.509-27.868,.174-3.217-.133-3.114,4.867,.092,4.999h0Z" fill="#ee88f6"/></g><g id="GOUR_002_005_FRAG_004"><path d="M747.826,143.308c.477-6.134,4.27-9.03,9.317-11.598,2.367-1.204,3.288-2.297,3.2-5.02-.311-9.525,2.579-17.701,11.505-22.435,2.843-1.508,.236-5.776-2.603-4.27-8.348,4.428-13.865,13.098-14.174,22.587-.035,1.073,.422,2.535,.18,3.511-.349,1.412-.118,.667-1.424,1.515-2.002,1.299-4.04,2.097-5.783,3.837-3.267,3.262-4.865,7.428-5.218,11.966-.249,3.206,4.752,3.093,4.999-.092h0Z" fill="#ee88f6"/></g><g id="GOUR_002_005_FRAG_005"><path d="M806.69,128.561c6.666,.595,14.855-1.288,16.132-8.994,1.368-8.253-7.938-15.209-3.967-23.33,3.362-6.876,10.139-11.063,8.904-19.608-.737-5.094-3.406-9.534-3.785-14.756-.421-5.802,.972-11.336,3.76-16.406,1.553-2.824-2.811-5.266-4.363-2.444-3.847,6.996-5.329,14.882-3.909,22.779,.809,4.503,3.662,8.956,3.429,13.567-.212,4.21-3.616,7.494-5.973,10.718-3.833,5.243-5.18,10.392-2.877,16.627,1.266,3.427,3.703,6.893,3.864,10.611,.269,6.2-6.739,6.644-11.307,6.237-3.201-.286-3.085,4.716,.092,4.999h0Z" fill="#ee88f6"/></g><g id="GOUR_002_005_FRAG_006"><path d="M861.037,77.946c3.825-7.688,12.436-9.708,19.451-4.828,1.044,.726,2.886,.186,3.403-.96,5.263-11.667,15.665,.301,22.582,2.744,3.121,1.102,6.147,.987,9.153-.41,1.952-.907,3.579-2.324,5.468-3.335,3.69-1.975,6.929-.144,10.094,1.951,2.69,1.78,5.113-2.597,2.444-4.363-4.337-2.871-8.851-4.883-13.902-2.508-2.817,1.325-5.409,4.224-8.643,4.473-3.056,.235-5.852-1.974-8.237-3.558-3.938-2.616-7.948-5.442-12.916-5.031-4.648,.384-8.52,3.412-10.406,7.593l3.403-.96c-9.153-6.367-21.304-3.208-26.258,6.748-1.432,2.877,2.928,5.329,4.363,2.444h0Z" fill="#ee88f6"/></g></g></svg>