<?xml version="1.0" encoding="UTF-8"?><svg xmlns="http://www.w3.org/2000/svg" viewBox="0 0 1920 1080"><g id="AXE"><circle cx="958.134" cy="537.133" r="18.112" fill="#1a1aa7"/><line x1="958.5" y1="36.5" x2="958.5" y2="523.5" fill="none" stroke="#1a1aa7" stroke-linecap="square" stroke-linejoin="round" stroke-width=".5"/></g><g id="FRAGMENTS"><path d="M974.688,61.298c3.672-2.439,3.49,12.024,3.544,13.343,.139,3.419,.52,6.939,2.07,10.044,2.557,5.124,7.367,7.858,13.025,6.907,3.162-.531,1.726-5.324-1.418-4.796-11.313,1.901-7.968-17.682-9.309-23.771-1.082-4.91-5.45-9.361-10.514-5.998-2.673,1.775-.088,6.057,2.603,4.27h0Z" fill="#8252b1"/><g id="GOUR_006_001_FRAG_002"><path d="M1016.15,95.738c3.58,2.353,8.111,.678,10.187-2.917,1.334-2.31,1.296-5.066,1.427-7.633,.079-1.541-.283-3.663,.505-5.089,2.365-4.278,6.329-2.129,9.347-.681,1.829,.878,4.401-.7,3.62-2.89-2.713-7.606,2.625-15.469,11.019-14.37,3.156,.413,4.425-4.428,1.24-4.845-11.887-1.556-21.201,9.009-17.055,20.633l3.62-2.89c-4.262-2.045-9.72-4.069-13.854-.612-1.737,1.452-2.656,3.582-3.103,5.758-.478,2.329,.244,14.298-4.508,11.175-2.696-1.772-5.12,2.605-2.444,4.363h0Z" fill="#8252b1"/></g><g id="GOUR_006_001_FRAG_003"><path d="M1069.845,68.841c7.616-.58,7.215,9.078,6.776,14.253-.152,1.793,2.364,3.21,3.801,2.089,5.595-4.364,10.462,2.646,13.126,6.932,1.697,2.73,5.974,.14,4.27-2.603-4.071-6.551-11.935-14.889-19.998-8.599l3.801,2.089c.689-8.102-1.071-19.983-11.867-19.16-3.195,.243-3.124,5.244,.092,4.999h0Z" fill="#8252b1"/></g><g id="GOUR_006_001_FRAG_004"><path d="M1108.525,108.224c4.302,3.508,9.985,2.722,13.818-1.246,2.338-2.42,3.623-5.503,5.046-8.497,.797-1.677,1.6-3.436,2.815-4.863,1.383-1.625,7.376-5.194,7.807-.047,.144,1.721,2.159,3.296,3.801,2.089,2.595-1.907,4.048-4.205,5.593-7.01,.334-.639,.686-1.269,1.054-1.889,1.261-2.657,3.323-2.824,6.185-.501,1.034,2.051-2.368,6.142-3.449,7.571-3.446,4.552-7.777,9.706-5.712,15.817,1.521,4.503,6.026,7.039,10.565,5.263,2.797-1.094,4.803-3.476,6.28-6.009,1.017-1.744,1.663-3.687,2.703-5.419,.717-1.195,5.319-6.344,6.738-2.276,1.055,3.024,5.86,1.633,4.796-1.418-1.874-5.372-8.614-6.176-12.756-2.719-3.624,3.025-4.178,8.012-7.231,11.399-1.605,1.78-4.601,1.735-6.299-.239-1.044-1.214,.043-3.877,.541-5.03,1.165-2.7,3.233-4.854,4.964-7.195,3.325-4.497,6.484-12.618,.318-16.419-8.781-5.412-12.09,8.273-16.891,11.803l3.801,2.089c-.516-6.166-7.199-9.175-12.571-6.434-2.914,1.487-4.95,4.24-6.471,7.064-1.868,3.467-5.94,15.434-11.972,10.516-2.48-2.022-5.968,1.563-3.47,3.6h0Z" fill="#8252b1"/></g><g id="GOUR_006_001_FRAG_005"><path d="M1174.303,128.743c3.773,4.057,10.065,5.168,14.794,2.013,1.166-.778,2.066-1.773,2.963-2.843,.835-.997,5.254-8.262,7.018-1.863,.428,1.551-2.274,4.502-2.968,5.747-.9,1.614-1.54,3.097-1.988,4.88-.458,1.824,1.297,3.59,3.131,3.018,6.011-1.875,9.828,4.033,6.361,9.008-1.206,1.731,.92,4.42,2.89,3.62,3.582-1.454,1.939,6.475,1.872,7.386-.125,1.678-.065,3.301,.419,4.924,.828,2.776,2.679,5.316,5.081,6.933,5.389,3.629,12.275,2.203,16.549-2.382,2.195-2.355-1.401-5.829-3.6-3.47-3.516,3.772-9.458,4.056-12.371-.611-2.187-3.505-.269-7.2-.549-10.957-.329-4.435-4.25-8.475-8.819-6.62l2.89,3.62c6.058-8.694-2.207-19.346-12.142-16.248l3.131,3.018c1.322-5.266,10.349-15.586,1.264-19.539-9.594-4.174-13.52,16.373-22.457,6.765-2.196-2.361-5.657,1.249-3.47,3.6h0Z" fill="#8252b1"/></g><g id="GOUR_006_001_FRAG_006"><path d="M1250.042,167.836c7.027-5.838,14.474-11.141,22.33-15.807,.304-.18,4.4-2.866,4.815-2.151,.532,.915-4.29,5.789-4.916,6.538-2.9,3.471-6.126,6.841-8.773,10.501-2.415,3.34-3.087,8.281,2.183,9.155,2.171,.36,4.086-.594,5.657-2.01,1.551-1.399,2.371-3.331,4.253-4.411,2.94-1.687,9.452,.556,5.842,4.603-2.14,2.398,1.452,5.877,3.6,3.47,4.856-5.443,.866-13.839-6.378-13.896-4.369-.035-6.645,2.477-9.565,5.209-1.707,1.597-2.1,1.927-.738-.151,1.021-1.558,2.565-3.071,3.76-4.501,2.088-2.5,4.202-4.981,6.266-7.501,2.003-2.445,4.886-5.72,3.604-9.184-1.164-3.147-4.605-3.564-7.385-2.568-5.064,1.813-10.019,5.744-14.414,8.765-4.751,3.266-9.308,6.786-13.74,10.469-2.475,2.056,1.148,5.507,3.6,3.47h0Z" fill="#8252b1"/></g><g id="GOUR_006_001_FRAG_007"><path d="M1297.215,192.322c1.716-1.895,1.457-2.074,4.317-1.779,3.832,.395,2.228,1.587,.936,4.056-1.411,2.696-3.409,5.187-5.049,7.75-1.97,3.077-4.502,7-1.773,10.448,1.856,2.345,5.22,2.849,7.978,2.1,2.92-.794,11.134-10.465,13.422-6.57,1.63,2.774,5.904,.178,4.27-2.603-2.372-4.038-7.489-4.306-11.262-1.968-2.544,1.577-4.141,4.689-6.827,5.972-5.333,2.545-1.424-4.966-.367-6.584,1.077-1.649,2.181-3.284,3.233-4.949,2.379-3.763,4.62-9.31,.488-12.848-4.49-3.844-9.844,.058-12.966,3.506-2.159,2.384,1.435,5.861,3.6,3.47h0Z" fill="#8252b1"/></g><g id="GOUR_006_001_FRAG_008"><path d="M1327.809,223.111c2.537,2.35,3.991,4.97,4.381,8.43,.198,1.756,2.098,3.244,3.801,2.089,3.615-2.451,15.569-9.07,16.241-.046,.238,3.196,5.239,3.124,4.999-.092-.345-4.635-3.5-8.061-8.03-9.194-5.771-1.442-11.26,1.975-15.813,5.062l3.801,2.089c-.537-4.767-2.369-8.656-5.91-11.938-2.361-2.187-5.836,1.408-3.47,3.6h0Z" fill="#8252b1"/></g><g id="GOUR_006_001_FRAG_009"><path d="M1347.832,257.832c2.3,7.229,9.195,11.126,16.572,11.102,9.977-.033,18.514-6.304,27.97-8.597,3.126-.758,1.709-5.554-1.418-4.796-9.847,2.388-33.064,17.42-38.328,.874-.973-3.059-5.775-1.66-4.796,1.418h0Z" fill="#8252b1"/></g><g id="GOUR_006_001_FRAG_010"><path d="M1377.051,295.949c1.938-1.135,5.049-3.352,7.431-2.458,5.89,2.212-.497,7.212-2.117,8.56-2.348,1.953,.749,4.987,3.101,3.87,4.37-2.074,9.141,1.287,8.062,6.173-.435,1.972-2.006,3.866-3.207,5.394-1.826,2.324-3.862,4.552-4.866,7.393-1.562,4.42-.305,9.749,4.299,11.684,2.94,1.236,5.407-3.117,2.444-4.363-6.246-2.626,.871-9.987,3.06-12.954s3.928-6.391,3.312-10.17c-1.254-7.696-9.166-10.53-15.707-7.426l3.101,3.87c4.088-3.4,8.599-9.435,4.045-14.462-4.325-4.774-10.976-2.066-15.561,.62-2.777,1.626-.18,5.9,2.603,4.27h0Z" fill="#8252b1"/></g><g id="GOUR_006_002_FRAG_001"><path d="M1395.872,370.875c9.287,4.665,19.416,6.886,29.811,6.202,2.311-.152,8.707-1.409,9.985,1.064l-.411,4.774c-.783,.477-1.6,.886-2.451,1.23-1.508,.691-3.032,1.261-4.607,1.783-5.051,1.674-10.293,2.731-15.252,4.686-7.628,3.007-15.11,8.486-16.591,17.085-1.266,7.356,3.311,15.009,10.907,16.18,3.157,.487,4.419-4.355,1.24-4.845-6.402-.987-8.731-7.644-6.387-13.181,2.222-5.247,7.157-8.383,12.248-10.444,4.938-1.998,10.208-3.008,15.252-4.686,3.627-1.207,8.474-2.681,10.919-5.855,4.854-6.302-2.442-12.671-8.588-13.078-5.006-.332-9.986,.688-15.028,.222-6.514-.602-12.775-2.574-18.603-5.501-2.873-1.443-5.323,2.917-2.444,4.363h0Z" fill="#ad76ff"/></g><g id="GOUR_006_002_FRAG_002"><path d="M1436.804,435.367c6.432,.922,.005,7.834-2.093,9.28-2.711,1.869-5.659,3.456-8.572,4.985-5.432,2.851-11.865,4.818-16.051,9.534-6.135,6.911-4.774,18.048,2.063,23.894,2.438,2.085,5.921-1.503,3.47-3.6-5.375-4.597-6.133-12.99-.797-17.985,5.288-4.95,13.631-7.158,19.817-10.892,4.206-2.539,9.336-5.842,9.795-11.257,.348-4.11-2.187-8.203-6.392-8.806-3.157-.452-4.422,4.389-1.24,4.845h0Z" fill="#ad76ff"/></g><g id="GOUR_006_002_FRAG_003"><path d="M1418.323,497.681c7.228,2.945,14.719,4.144,22.478,2.996,4.075-.603,8.178-1.969,12.336-1.797,4.578,.189,12.44,4.933,6.863,9.772-2.07,1.796,.319,4.569,2.509,4.133,1.958-.39,12.779-1.846,10.25,4.084-1.252,2.935,3.102,5.402,4.363,2.444,1.548-3.63,.718-7.316-2.39-9.88-3.88-3.202-9.088-2.35-13.641-1.444l2.509,4.133c6.658-5.777,1.776-15.268-5.525-17.479-5.135-1.556-10.293-.27-15.4,.658-7.524,1.366-14.773,.924-21.908-1.983-2.948-1.201-5.418,3.151-2.444,4.363h0Z" fill="#ad76ff"/></g><g id="GOUR_006_002_FRAG_004"><path d="M1435.003,532.79c3.356,11.985,10.849,21.994,21.309,28.71,2.715,1.743,5.141-2.631,2.444-4.363-9.375-6.019-15.957-15.051-18.957-25.765-.867-3.096-5.666-1.688-4.796,1.418h0Z" fill="#ad76ff"/></g><g id="GOUR_006_002_FRAG_005"><path d="M1428.261,581.352c3.368,6.543,8.316,12.063,14.615,15.911,2.218,1.355,13.261,5.718,8.499,9.602-2.771,2.26-10.073-1.462-13.383-1.66-2.588-.155-3.183,3.498-1.176,4.681,2.205,1.3,.1,3.298-1.568,3.849-2.274,.752-4.703-.325-6.778-1.24-2.479-1.093-5.124,1.893-2.957,3.982,2.78,2.679-5.689,2.929-6.822,2.971-1.272,.047-2.597,.126-3.843,.426-2.826,.681-5.512,2.206-7.537,4.294-4.263,4.396-5.158,10.741-3.127,16.373,1.086,3.01,5.892,1.621,4.796-1.418-2.022-5.606-.116-11.824,5.847-14.035,3.732-1.384,7.932,.163,11.608-1.51,4.163-1.894,6.041-7.336,2.547-10.702l-2.957,3.982c4.839,2.134,11.298,3.869,15.2-.998,2.762-3.446,1.764-8.139-1.967-10.338l-1.176,4.681c5.226,.314,10.16,3.78,15.341,1.179,3.692-1.854,4.802-5.982,3.238-9.698-1.922-4.565-6.749-6.075-10.691-8.386-5.893-3.454-10.332-8.512-13.44-14.549-1.473-2.861-5.739-.251-4.27,2.603h0Z" fill="#ad76ff"/></g><g id="GOUR_006_002_FRAG_006"><path d="M1404.179,662.669c7.907,4.256,15.814,8.513,23.722,12.769,1.821,.98,4.734,1.908,6.196,3.374,2.658,1.236,2.121,2.665-1.611,4.288l-1.673-.022c-4.634,.721-10.528-.778-15.084-1.575-5.783-1.012-13.43-4.64-19.174-1.733-4.437,2.245-5.627,7.826-1.831,11.248,2.389,2.153,5.866-1.44,3.47-3.6-4.299-3.874,5.869-3.331,6.591-3.189,2.33,.456,4.621,1.142,6.953,1.608,3.877,.773,7.792,1.344,11.726,1.737,5.259,.525,14.681,2.32,17.336-4.075,2.493-6.004-4.656-9.299-8.762-11.509-8.472-4.56-16.944-9.121-25.416-13.681-2.837-1.527-5.28,2.836-2.444,4.363h0Z" fill="#ad76ff"/></g><g id="GOUR_006_002_FRAG_007"><path d="M1410.914,725.419c-2.447,2.656-4.677,2.871-6.691,.643-.797-.701-1.565-1.432-2.304-2.192-1.472-1.456-4.419-.349-4.235,1.846,.217,2.581,.489,2.583-1.647,4.518-2.384,2.159-3.163,1.334-5.397-.462-1.728-1.39-3.249-3.057-5.196-4.164-3.097-1.762-6.788-1.915-10.037-.48-7.218,3.187-7.929,11.982-3.177,17.554,2.089,2.45,5.543-1.169,3.47-3.6-4.984-5.844,2.325-12.362,8.248-8.417,3.09,2.058,5.27,5.102,9.051,6.042,7.462,1.855,10.209-4.838,9.684-11.083l-4.235,1.846c3.33,3.295,7.69,6.836,12.701,5.183,3.806-1.255,5.567-4.863,4.561-8.651-.826-3.108-5.624-1.697-4.796,1.418h0Z" fill="#ad76ff"/></g><g id="GOUR_006_002_FRAG_008"><path d="M1361.008,760.703c-4.435,12.128-.92,25.889,8.642,34.521,2.387,2.155,5.864-1.438,3.47-3.6-8.358-7.546-11.124-19.136-7.267-29.681,1.106-3.024-3.75-4.235-4.845-1.24h0Z" fill="#ad76ff"/></g><g id="GOUR_006_002_FRAG_009"><path d="M1343.663,809.55c-5.841,2.154-12.884-.178-18.26,3.596-4.388,3.081-5.015,8.629-3.032,13.332,2.585,6.13,8.619,10.963,12.506,16.251,1.067,1.452,2.102,2.929,3.099,4.43,.423,.637,2.932,3.807,2.888,4.57-.122,2.116-1.853,.802-3.234,.34-2.361-.791-4.477-1.922-6.583-3.225-2.745-1.698-5.174,2.674-2.444,4.363,3.648,2.256,11.897,7.126,16.149,3.793,4.537-3.556-.885-10.048-3.011-13.19-1.972-2.914-4.077-5.733-6.297-8.463-2.524-3.103-5.867-6.03-7.833-9.544-6.685-11.951,11.422-9.227,17.469-11.457,3-1.106,1.613-5.914-1.418-4.796h0Z" fill="#ad76ff"/></g><g id="GOUR_006_002_FRAG_010"><path d="M1306.521,864.772c1.311,2.714-3.175,2.859-4.955,2.198-1.718-.638-3.153-2.033-4.502-3.227l-3.47,3.6c-.904,3.395-2.74,4.555-5.507,3.482-.877-.201-1.755-.402-2.632-.603-1.332-.278-2.655-.551-4.016-.621-2.825-.147-5.563,.423-8.139,1.574-4.83,2.159-8.094,6.026-9.937,10.906-1.137,3.01,3.72,4.219,4.845,1.24,1.864-4.936,6.59-8.549,11.923-8.744,4.312-.158,8.364,2.21,12.725,1.344,5.57-1.107,9.51-8.064,4.208-12.179-2.486-1.93-5.928,1.426-3.47,3.6,3.722,3.293,8.502,6.787,13.695,4.631,4.066-1.688,5.332-6.019,3.502-9.805-1.399-2.894-5.662-.278-4.27,2.603h0Z" fill="#ad76ff"/></g><g id="GOUR_006_003_FRAG_001"><path d="M1234.773,910.875c-16.833-1.59-1.984,33.584,.49,39.625,1.206,2.946,6.018,1.567,4.796-1.418-1.999-4.882-3.769-9.841-5.215-14.916-.707-2.482-5.926-18.854,.022-18.292,3.198,.302,3.08-4.699-.092-4.999h0Z" fill="#cd99da"/></g><g id="GOUR_006_003_FRAG_002"><path d="M1214.638,958.759c-10.294-12.714-28.188-15.198-41.707-6.087-2.659,1.792-.076,6.076,2.603,4.27,11.84-7.979,26.694-5.625,35.635,5.417,2.023,2.498,5.472-1.127,3.47-3.6h0Z" fill="#cd99da"/></g><g id="GOUR_006_003_FRAG_003"><path d="M1175.812,983.843c-1.886,2.879-5.983,1.683-7.975-.287-2.26-2.235-3.297-5.488-4.328-8.405-.915-2.587-4.966-2.167-4.898,.755,.058,2.467-2.751,3.553-4.757,3.096-1.363-.311-2.784-1.497-3.739-2.463-1.883-1.905-3.139-4.356-4.68-6.521-1.972-2.771-4.309-5.467-7.558-6.739-5.868-2.298-12.406,.779-15.043,6.3-1.383,2.895,2.975,5.351,4.363,2.444,3.366-7.046,10.331-4.469,13.967,.598,2.641,3.681,4.76,7.842,8.873,10.117,5.813,3.217,13.746,.421,13.574-6.923l-4.898,.755c1.845,5.219,4.221,11.285,9.896,13.316,4.4,1.575,8.997,.324,11.566-3.599,1.768-2.699-2.608-5.123-4.363-2.444h0Z" fill="#cd99da"/></g><g id="GOUR_006_003_FRAG_004"><path d="M1113.289,991.279c1.801,5.867-3.145,10.212-8.801,8.217-1.679-.592-2.995,1.004-3.12,2.469-.299,3.523-1.868,13.259-7.801,9.443-1.748-1.124-3.573,.492-3.721,2.228-.278,3.257-.525,7.24-2.896,9.764-3.689,3.927-7.58,.118-9.292-3.401-2.262-4.651-3.254-9.903-6.966-13.751-5.25-5.442-16.353-5.635-17.52,3.52-.402,3.155,4.439,4.425,4.845,1.24,.755-5.918,7.402-3.477,9.903-.237,2.217,2.871,3.122,6.427,4.502,9.724,1.57,3.753,3.818,7.687,7.843,9.169,10.191,3.753,13.946-8.696,14.58-16.12l-3.721,2.228c3.484,2.241,7.788,1.573,10.823-1.192,3.536-3.221,4.04-8.217,4.421-12.706l-3.12,2.469c9.321,3.287,17.691-5.183,14.837-14.48-.943-3.071-5.744-1.669-4.796,1.418h0Z" fill="#cd99da"/></g><g id="GOUR_006_003_FRAG_005"><path d="M1037.048,1001.396l-4.811,9.874c-1.487,3.051-2.729,7.202-4.811,9.874l-.619,1.215c-3.549,1.899-5.455,1.446-5.715-1.358-.736-1.552-.58-3.252-.55-4.908,.054-2.987,.159-5.74-.466-8.682-.461-2.171-3.577-2.278-4.58-.513-.602,1.742-1.958,2.594-4.065,2.555l-.109-1.435c-.282-1.201,.069-2.661-.083-3.908-.244-2.001-.829-3.387-2.219-4.86-1.423-1.507-4.457-.311-4.235,1.846-2.473-.142-3.611-1.288-3.413-3.437-.05-1.05-.086-2.101-.108-3.152-.119-1.768-.246-3.573-.93-5.234-1.118-2.713-3.302-4.785-6.054-5.79-5.808-2.12-11.075,1.387-13.201,6.754-1.183,2.988,3.676,4.193,4.845,1.24,1.38-3.485,6.145-4.909,8.794-1.915,1.958,2.213,1.417,5.495,1.654,8.189,.254,2.881,.998,5.967,3.311,7.909,3.883,3.26,10.662,.802,10.101-4.656l-4.235,1.846c3.013,3.191-1.082,9.008,3.839,11.792,4.573,2.587,8.445-1.737,10.47-5.301l-4.58-.513c1.37,6.451-1.763,21.714,9.851,20.574,3.775-.371,5.59-3.67,7.095-6.713,3.098-6.265,6.124-12.567,9.185-18.85,1.407-2.887-2.952-5.34-4.363-2.444h0Z" fill="#cd99da"/></g><g id="GOUR_006_003_FRAG_006"><path d="M961.052,999.272c-6.643,4.098-10.584,10.583-13.385,17.713-1.615,4.11-2.826,8.358-4.294,12.519-1.225,3.471-4.484,13.704-8.911,13.219-2.446-.268-1.943-.731-2.009-2.968-.036-1.227,.02-2.461,.082-3.686,.16-3.152,.565-6.292,1.215-9.381,.911-4.322,3.074-8.758,2.984-13.222-.123-6.156-6.036-11.955-11.949-7.636-2.579,1.884-.004,6.174,2.603,4.27l4.344,2.781-.127,2.347c-.163,1.101-.539,2.184-.842,3.251-.743,2.619-1.513,5.197-2.034,7.873-.91,4.673-1.538,9.655-1.269,14.416,.341,6.043,4.849,11.567,10.858,6.964,5.966-4.57,8.663-13.18,10.922-20.003,2.983-9.01,5.85-18.904,14.414-24.187,2.737-1.688,.145-5.965-2.603-4.27h0Z" fill="#cd99da"/></g><g id="GOUR_006_003_FRAG_007"><path d="M900.289,1003.591c-1.184-5.42-7.596-6.887-11.98-4.203-5.883,3.602-9.094,12.567-12.406,18.254-1.247,2.14-2.487,4.284-3.74,6.421-1.025,1.748-2.434,4.393-3.493,1.222-.25-.747,.536-2.719,.383-3.686-.182-1.145-.521-2.264-1.39-3.104-2.608-2.521-11.444,.499-8.093-6.122,1.767-3.493,5.723-5.49,8.219-8.391,3.681-4.279,5.036-11.023-.131-14.746-4.769-3.436-10.723-1.651-14.899,1.786-3.221,2.65-5.612,6.055-8.216,9.271-.575,.805-1.21,1.56-1.905,2.263-2.84-.478-3.806-1.865-2.898-4.162,.29-1.865,.943-3.666,.982-5.575,.108-5.31-4.631-9.849-9.771-7.208-2.862,1.47-.252,5.737,2.603,4.27,3.363-1.728,1.113,8.397,1.068,8.919-.094,1.079-.14,2.019,.037,3.105,.331,2.031,1.198,3.978,2.862,5.25,5.411,4.136,9.845-2.54,12.792-6.202,2.446-3.039,5.542-7.312,9.496-8.338,1.62-.42,3.985-.357,5.283,.906,2.956,2.876-.503,6.669-2.409,8.563-3.938,3.914-9.493,7.474-8.828,13.849,.219,2.103,1.236,4.124,2.889,5.475,.949,.776,2.07,1.351,3.289,1.551,.484,.079,2.218-.29,2.531-.09,1.978,1.265-.479,5.752,.565,7.949,.85,1.789,2.555,2.88,4.538,3.004,6.198,.388,9.187-7.88,11.664-12.132,2.182-3.746,4.357-7.495,6.545-11.237,1.069-1.829,8.095-12.411,9.617-5.445,.686,3.141,5.481,1.718,4.796-1.418h0Z" fill="#cd99da"/></g><g id="GOUR_006_003_FRAG_008"><path d="M812.1,976.236c-6.987,1.524-13.728-2.264-16.454-8.762-1.848-4.404-3.256-8.351-8.672-8.874-4.731-.457-8.681,2.222-11.593,5.717-4.579,5.495-8.309,11.878-12.342,17.774-2.21,3.231-4.42,6.462-6.63,9.692-1.014,1.483-2.115,4.099-3.557,5.156-.519,1.466-1.507,1.654-2.963,.565-.042-1.189-.011-2.376,.092-3.561,.668-7.566,4.066-14.569,5.725-21.917,2.216-9.817,1.121-20.983-7.656-27.162-2.634-1.854-5.051,2.528-2.444,4.363,13.207,9.297,2.037,28.868-.068,40.626-.726,4.056-2.158,11.584,2.503,14.013,4.766,2.483,8.328-3.2,10.522-6.408,4.604-6.731,9.208-13.462,13.813-20.193,3.028-4.427,12.5-21.01,17.837-10.238,2.394,4.832,3.817,8.809,8.758,11.767,4.466,2.674,9.51,3.337,14.549,2.238,3.141-.685,1.718-5.48-1.418-4.796h0Z" fill="#cd99da"/></g><g id="GOUR_006_004_FRAG_001"><path d="M702.195,934.72c-3.317,2.286-6.909,3.986-10.883,4.743-3.142,.599-7.677,1.715-7.801-3.369-.038-1.538,1.208-3.328,1.837-4.642,3.102-6.482,6.842-12.738,7.325-20.09,1.052-16.01-13.943-22.011-26.998-25.003-3.137-.719-4.38,4.125-1.24,4.845,9.385,2.151,22.032,5.367,23.233,16.897,.945,9.069-5.207,16.22-8.201,24.207-1.879,5.013-1.312,10.795,4.622,12.319,6.812,1.749,15.242-1.87,20.709-5.637,2.638-1.818,.057-6.103-2.603-4.27h0Z" fill="#a41c78"/></g><g id="GOUR_006_004_FRAG_002"><path d="M639.852,873.787c-5.197,2.215-9.55-3.454-5.041-7.586,1.761-1.614-.199-5.136-2.509-4.133-6.1,2.648-4.695-8.981-4.653-11.91,.062-4.318,.124-8.635,.185-12.953,.046-3.22-4.953-3.124-4.999,.092-.062,4.318-.124,8.635-.185,12.953-.051,3.552-.656,7.763,.174,11.263,1.161,4.896,6.33,7.334,10.896,5.352l-2.509-4.133c-8.007,7.336-.072,20.17,10.058,15.852,2.922-1.245,1.546-6.06-1.418-4.796h0Z" fill="#a41c78"/></g><g id="GOUR_006_004_FRAG_003"><path d="M606.324,804.831c-4.732,1.984-16.917,6.059-16.85-3.16,.014-1.853-2.233-3.134-3.801-2.089-4.692,3.126-10.4,7.17-16.349,5.64-8.64-2.222-5.28-10.651-1.042-15.483,1.234-1.407,.697-3.656-1.18-4.157-6.808-1.82,.751-13.002,1.322-17.054,.595-4.215-.623-7.722-4.042-10.261-2.581-1.917-4.993,2.47-2.444,4.363,5.19,3.854-2.773,13.89-2.606,18.943,.138,4.18,2.43,7.758,6.529,8.854l-1.18-4.157c-5.307,6.05-9.417,15.492-1.607,21.43,8.127,6.178,17.945,.987,25.201-3.847l-3.801-2.089c-.033,4.452,2.59,8.048,6.653,9.826,5.502,2.407,11.43,.212,16.614-1.961,2.932-1.229,1.555-6.042-1.418-4.796h0Z" fill="#a41c78"/></g><g id="GOUR_006_004_FRAG_004"><path d="M539.359,735.332c-3.533-.368-7.5-.863-10.345-3.177-1.326-1.079-2.727-2.55-3.03-4.328-.492-2.882,1.594-5.871,4.831-4.981,3.113,.857,4.323-3.95,1.24-4.845-3.978-1.154-3.557-6.314-1.284-8.848,2.145-2.392,5.384-3.46,8.38-4.288,2.281-.631,2.392-4.388-.089-4.821-2.623-.458,2.65-6.643,3.129-7.522,.92-1.689,1.418-3.643,1.436-5.57,.04-4.193-1.884-8.064-5.221-10.557-2.547-1.903-6.046,1.676-3.47,3.6,2.795,2.088,4.444,5.379,3.392,8.915-.872,2.93-3.801,4.673-4.807,7.567-1.238,3.562,.395,7.731,4.3,8.412l-.089-4.821c-5.666,1.566-12.118,4.673-13.489,11.004-1.106,5.107,1.508,10.305,6.57,11.774l1.24-4.845c-6.491-1.786-12.163,4.128-10.976,10.567,1.598,8.665,10.913,10.986,18.371,11.762,3.193,.332,3.073-4.67-.092-4.999h0Z" fill="#a41c78"/></g><g id="GOUR_006_004_FRAG_005"><path d="M518.532,655.727c-3.73-.881-23.289-1.59-16.609-9.547,3.126-3.724,9.752-3.148,13.403-6.553,6.896-6.432,1.643-16.624-7.042-16.898-3.219-.101-3.118,4.898,.092,4.999,6.719,.212,5.753,7.743,.755,9.875-2.237,.954-4.644,1.411-6.848,2.466-3.119,1.493-5.99,3.927-6.466,7.54-1.571,11.909,14.247,11.256,21.476,12.963,3.133,.74,4.375-4.105,1.24-4.845h0Z" fill="#a41c78"/></g><g id="GOUR_006_004_FRAG_006"><path d="M496.592,596.293l-1.593-3.943c.795-.875,1.742-1.5,2.841-1.873,1.333-.627,2.707-.984,4.126-1.367,2.341-.632,2.334-4.31-.089-4.821-3.024-.637-7.185-1.773-8.197-5.164-1.236-4.143,2.783-5.735,5.719-6.962,4.206-1.757,8.149-3.391,11.051-7.105,4.885-6.253,3.969-15.772-3.564-19.45-2.886-1.409-5.339,2.949-2.444,4.363,8.717,4.256,2.122,13.737-4.011,16.429-3.541,1.555-7.594,2.566-10.101,5.744-6.329,8.019,2.995,15.449,10.307,16.989l-.089-4.821c-5.384,1.453-12.321,4.611-11.591,11.392,.531,4.926,6.128,7.753,10.237,4.857,2.615-1.844,.037-6.131-2.603-4.27h0Z" fill="#a41c78"/></g><g id="GOUR_006_004_FRAG_007"><path d="M497.542,528.407c-3.315-5.51-4.557-11.485-3.896-17.87,.331-3.193-4.671-3.073-4.999,.092-.746,7.197,.901,14.191,4.625,20.381,1.658,2.757,5.933,.162,4.27-2.603h0Z" fill="#a41c78"/></g><g id="GOUR_006_004_FRAG_008"><path d="M502.276,497.956c7.956-3.935,9.392-14.28,5.233-21.524-2.394-4.17-6.27-7.306-10.399-9.656-5.668-3.226-15.922-5.092-15.898-13.221,.01-3.219-4.99-3.127-4.999,.092-.03,10.107,9.723,12.908,17.16,16.789,4.374,2.282,8.707,5.46,10.613,10.176,1.966,4.866,.561,10.664-4.313,13.074-2.882,1.426-.268,5.69,2.603,4.27h0Z" fill="#a41c78"/></g><g id="GOUR_006_004_FRAG_009"><path d="M484.733,437.047c4.895-8.729,17.221-6.407,25.243-10.031,6.114-2.763,10.244-8.862,8.368-15.633-.859-3.099-5.657-1.69-4.796,1.418,2.87,10.36-12.19,11.335-18.695,12.621-6.038,1.193-11.372,3.635-14.483,9.182-1.577,2.812,2.788,5.252,4.363,2.444h0Z" fill="#a41c78"/></g><g id="GOUR_006_005_FRAG_001"><path d="M942.879,50.655c-7.803-.024-10.814,8.058-10.209,14.737,.318,3.506,3.258,14.354-2.303,15.664-5.591,1.316-9.846-9.459-11.988-13.264-2.606-4.632-9.028-13.28-14.734-6.603-2.208,2.584-2,5.864-1.469,9,1.071,6.322-.575,12.024-7.515,13.777-3.118,.788-1.704,5.585,1.418,4.796,6.732-1.7,11.9-7.786,11.703-14.889-.058-2.099-1.277-4.655-1.035-6.696l.179-1.79,4.836,.924c.731,.536,1.449,2.474,1.914,3.305,2.371,4.239,4.671,8.89,7.782,12.648,4.362,5.269,11.352,5.491,15.152-.599,2.013-3.226,2.256-6.883,1.851-10.57-.492-4.483-3.109-15.465,4.508-15.441,3.219,.01,3.127-4.989-.092-4.999h0Z" fill="#ee88f6"/></g><g id="GOUR_006_005_FRAG_002"><path d="M872.42,91.326c-9.356-1.315-12.347-11.641-19.063-16.925-4.791-3.769-11.634-5.079-16.658-1.058-2.477,1.982,.09,6.281,2.603,4.27,7.579-6.066,14.328,4.192,18.372,9.36,3.52,4.498,7.652,8.376,13.507,9.199,3.157,.444,4.423-4.398,1.24-4.845h0Z" fill="#ee88f6"/></g><g id="GOUR_006_005_FRAG_003"><path d="M813.156,81.577c.466,6.845,1.119,14.461-2.693,20.552-3.485,5.568-12.177,8.713-16.107,1.707-1.074-1.914-4.019-1.337-4.558,.681-2.904,10.875-15.87,1.717-20.182-2.318-2.351-2.2-5.825,1.397-3.47,3.6,4.621,4.324,10.164,8.97,16.902,8.709,5.396-.209,10.184-3.465,11.596-8.751l-4.558,.681c4.074,7.26,13.788,8.242,20.126,3.36,8.708-6.709,8.619-18.386,7.944-28.313-.218-3.199-5.218-3.126-4.999,.092h0Z" fill="#ee88f6"/></g><g id="GOUR_006_005_FRAG_004"><path d="M747.154,99.413c-7.797-1.729-11.909,5.919-12.011,12.671-.062,4.139,.467,18.395-7.359,12.333-2.59-2.006-3.674-5.217-6.965-6.473-7.752-2.957-12.077,5.925-11.464,12.291,.445,4.621,2.443,8.828,3.344,13.342,.556,2.785,.849,6.241-.714,8.775-1.52,2.465-5.673,3.958-7.569,.992-1.73-2.707-6.01-.119-4.27,2.603,3.514,5.497,11.568,5.069,15.389,.045,6.932-9.115-2.301-18.593-1.217-28.031,.289-2.51,1.286-6.656,5.273-5.081,.684,.27,1.355,1.199,1.851,1.733,1.256,1.35,2.237,2.939,3.648,4.149,2.372,2.034,5.374,2.859,8.349,1.697,3.651-1.427,5.918-5.214,6.613-8.931,.726-3.884-2.186-19.054,5.859-17.27,3.14,.696,4.385-4.148,1.24-4.845h0Z" fill="#ee88f6"/></g><g id="GOUR_006_005_FRAG_005"><path d="M670.794,152.613c-.597,8.638-7.783,13.884-16.147,12.926-1.258-.144-2.596,1.332-2.454,2.546,.897,7.661,1.92,19.124-7.66,21.621-3.112,.811-1.7,5.609,1.418,4.796,11.989-3.125,12.424-16.413,11.242-26.509l-2.454,2.546c11.29,1.294,20.285-6.909,21.054-18.017,.222-3.209-4.778-3.099-4.999,.092h0Z" fill="#ee88f6"/></g><g id="GOUR_006_005_FRAG_006"><path d="M623.919,194.275c-10.025,1.248-18.273,10.096-17.113,20.527,.656,5.898,3.978,10.895,7.216,15.695,4.015,5.95,9.505,14.417,3.875,21.194-2.047,2.464,1.539,5.95,3.6,3.47,6.789-8.173,2.928-18.06-2.299-25.922-3.319-4.992-7.672-10.393-7.534-16.716,.147-6.687,5.865-12.441,12.345-13.248,3.16-.394,3.103-5.397-.092-4.999h0Z" fill="#ee88f6"/></g><g id="GOUR_006_005_FRAG_007"><path d="M605.281,252.934c-9.069-6.377-23.907-13.152-31.386-.645-1.656,2.77,2.713,5.203,4.363,2.444,5.837-9.761,18.131-1.969,24.579,2.565,2.635,1.853,5.052-2.529,2.444-4.363h0Z" fill="#ee88f6"/></g><g id="GOUR_006_005_FRAG_008"><path d="M561.868,262.778c-5.686,.103-10.975,2.942-13.507,8.184-1.33,2.753-1.671,5.934-1.139,8.923,.546,3.071,2.898,5.47,1.81,8.564-.949,2.699-2.852,4.556-3.319,7.563-.443,2.849-.124,5.864,.712,8.617,2,6.586,7.02,11.664,11.773,16.388,2.286,2.272,5.754-1.33,3.47-3.6-3.79-3.767-7.951-7.731-9.961-12.803-.956-2.411-1.436-5.107-1.039-7.68,.427-2.764,1.841-4.24,3.09-6.571,1.775-3.313,.658-5.451-.67-8.657-2.839-6.851,1.192-13.789,8.872-13.928,3.217-.058,3.13-5.057-.092-4.999h0Z" fill="#ee88f6"/></g><g id="GOUR_006_005_FRAG_009"><path d="M554.961,351.112c-5.608-7.987-17.115-6.195-19.558,3.44l4.157-1.18c-3.718-4.232-11.572-7.598-13.896-.083l4.821-.089c-2.442-6.285-11.079-6.352-12.133,.92l2.377-1.879c-5.067,.589-8.938,3.004-11.44,7.497-1.568,2.817,2.797,5.257,4.363,2.444,1.6-2.873,3.859-4.557,7.169-4.942,1.004-.117,2.211-.74,2.377-1.879l2.492-.743c.889,2.289,4.063,2.36,4.821-.089,.927-2.998,5.146,1.946,5.581,2.442,1.27,1.446,3.724,.531,4.157-1.18,1.306-5.15,7.286-6.575,10.443-2.078,1.839,2.619,6.126,.041,4.27-2.603h0Z" fill="#ee88f6"/></g></g></svg>