<?xml version="1.0" encoding="utf-8"?>
<!-- Generator: Adobe Illustrator 27.0.0, SVG Export Plug-In . SVG Version: 6.00 Build 0)  -->
<svg version="1.1" xmlns="http://www.w3.org/2000/svg" xmlns:xlink="http://www.w3.org/1999/xlink" x="0px" y="0px"
	 viewBox="0 0 1920 1080" enable-background="new 0 0 1920 1080" xml:space="preserve">
<g id="AXE">
	<circle fill="#1A1AA7" cx="958.134" cy="537.133" r="18.112"/>
	
		<line fill="none" stroke="#1A1AA7" stroke-width="0.5" stroke-linecap="square" stroke-linejoin="round" stroke-miterlimit="10" x1="958.5" y1="36.5" x2="958.5" y2="523.5"/>
</g>
<g id="FRAGMENTS">
	<g id="GOUR_x5F_006_x5F_001_x5F_FRAG_x5F_001">
		<g>
			<path fill="#8252B1" d="M974.688,61.298c3.672-2.439,3.49,12.024,3.544,13.343c0.139,3.419,0.52,6.939,2.07,10.044
				c2.557,5.124,7.367,7.858,13.025,6.907c3.162-0.531,1.726-5.324-1.418-4.796c-11.313,1.901-7.968-17.682-9.309-23.771
				c-1.082-4.91-5.45-9.361-10.514-5.998C969.413,58.803,971.997,63.085,974.688,61.298L974.688,61.298z"/>
		</g>
	</g>
	<g id="GOUR_x5F_006_x5F_001_x5F_FRAG_x5F_002">
		<g>
			<path fill="#8252B1" d="M1016.15,95.738c3.58,2.353,8.111,0.678,10.187-2.917c1.334-2.31,1.296-5.066,1.427-7.633
				c0.079-1.541-0.283-3.663,0.505-5.089c2.365-4.278,6.329-2.129,9.347-0.681c1.829,0.878,4.401-0.7,3.62-2.89
				c-2.713-7.606,2.625-15.469,11.019-14.37c3.156,0.413,4.425-4.428,1.24-4.845c-11.887-1.556-21.201,9.009-17.055,20.633
				c1.207-0.963,2.413-1.927,3.62-2.89c-4.262-2.045-9.72-4.069-13.854-0.612c-1.736,1.452-2.656,3.582-3.103,5.758
				c-0.478,2.329,0.244,14.298-4.508,11.175C1015.897,89.603,1013.474,93.979,1016.15,95.738L1016.15,95.738z"/>
		</g>
	</g>
	<g id="GOUR_x5F_006_x5F_001_x5F_FRAG_x5F_003">
		<g>
			<path fill="#8252B1" d="M1069.845,68.841c7.616-0.58,7.215,9.078,6.776,14.253c-0.152,1.793,2.364,3.21,3.801,2.089
				c5.595-4.364,10.462,2.646,13.126,6.932c1.697,2.73,5.974,0.14,4.27-2.603c-4.071-6.551-11.935-14.889-19.998-8.599
				c1.267,0.696,2.534,1.393,3.801,2.089c0.689-8.102-1.071-19.983-11.867-19.16C1066.559,64.085,1066.629,69.086,1069.845,68.841
				L1069.845,68.841z"/>
		</g>
	</g>
	<g id="GOUR_x5F_006_x5F_001_x5F_FRAG_x5F_004">
		<g>
			<path fill="#8252B1" d="M1108.526,108.224c4.302,3.508,9.985,2.722,13.818-1.246c2.338-2.42,3.623-5.503,5.046-8.497
				c0.797-1.677,1.6-3.436,2.815-4.863c1.383-1.625,7.376-5.194,7.807-0.047c0.144,1.721,2.16,3.296,3.801,2.089
				c2.594-1.907,4.048-4.205,5.593-7.01c0.334-0.639,0.686-1.269,1.054-1.889c1.261-2.657,3.323-2.824,6.185-0.501
				c1.034,2.051-2.368,6.142-3.449,7.571c-3.446,4.552-7.777,9.706-5.712,15.817c1.521,4.503,6.026,7.039,10.565,5.263
				c2.797-1.094,4.803-3.476,6.28-6.009c1.017-1.744,1.663-3.687,2.703-5.419c0.717-1.195,5.319-6.344,6.738-2.276
				c1.055,3.024,5.86,1.633,4.796-1.418c-1.874-5.372-8.614-6.176-12.756-2.719c-3.624,3.025-4.178,8.012-7.231,11.399
				c-1.605,1.78-4.601,1.735-6.299-0.239c-1.044-1.214,0.043-3.877,0.541-5.03c1.165-2.7,3.233-4.854,4.964-7.195
				c3.325-4.497,6.484-12.618,0.318-16.419c-8.781-5.412-12.09,8.273-16.891,11.803c1.267,0.696,2.534,1.393,3.801,2.089
				c-0.516-6.166-7.199-9.175-12.571-6.434c-2.914,1.487-4.95,4.24-6.471,7.064c-1.868,3.467-5.94,15.434-11.972,10.516
				C1109.516,102.602,1106.027,106.187,1108.526,108.224L1108.526,108.224z"/>
		</g>
	</g>
	<g id="GOUR_x5F_006_x5F_001_x5F_FRAG_x5F_005">
		<g>
			<path fill="#8252B1" d="M1174.303,128.743c3.773,4.057,10.065,5.168,14.794,2.013c1.166-0.778,2.066-1.773,2.963-2.843
				c0.835-0.997,5.254-8.262,7.018-1.863c0.427,1.551-2.274,4.502-2.968,5.747c-0.9,1.614-1.54,3.097-1.988,4.88
				c-0.458,1.824,1.297,3.59,3.131,3.018c6.011-1.875,9.828,4.033,6.361,9.008c-1.206,1.731,0.92,4.42,2.89,3.62
				c3.582-1.454,1.939,6.475,1.872,7.386c-0.125,1.678-0.065,3.301,0.419,4.924c0.828,2.776,2.679,5.316,5.081,6.933
				c5.389,3.629,12.275,2.203,16.549-2.382c2.195-2.355-1.401-5.829-3.6-3.47c-3.516,3.772-9.458,4.056-12.371-0.611
				c-2.188-3.505-0.27-7.2-0.549-10.957c-0.329-4.435-4.25-8.475-8.819-6.62c0.964,1.207,1.927,2.413,2.89,3.62
				c6.058-8.694-2.207-19.346-12.142-16.248c1.044,1.006,2.088,2.012,3.131,3.018c1.322-5.266,10.349-15.586,1.264-19.539
				c-9.594-4.174-13.52,16.373-22.457,6.765C1175.577,122.782,1172.116,126.392,1174.303,128.743L1174.303,128.743z"/>
		</g>
	</g>
	<g id="GOUR_x5F_006_x5F_001_x5F_FRAG_x5F_006">
		<g>
			<path fill="#8252B1" d="M1250.042,167.836c7.027-5.838,14.474-11.141,22.33-15.807c0.304-0.18,4.4-2.866,4.815-2.151
				c0.532,0.915-4.29,5.789-4.916,6.538c-2.9,3.471-6.126,6.841-8.773,10.501c-2.415,3.34-3.087,8.281,2.183,9.155
				c2.171,0.36,4.086-0.594,5.657-2.01c1.551-1.399,2.371-3.331,4.253-4.411c2.94-1.687,9.452,0.556,5.842,4.603
				c-2.14,2.398,1.452,5.877,3.6,3.47c4.856-5.443,0.866-13.839-6.378-13.896c-4.369-0.035-6.645,2.477-9.565,5.209
				c-1.707,1.597-2.1,1.927-0.738-0.151c1.021-1.558,2.565-3.071,3.76-4.501c2.089-2.5,4.202-4.981,6.266-7.501
				c2.003-2.445,4.886-5.72,3.604-9.184c-1.165-3.147-4.605-3.564-7.385-2.568c-5.064,1.813-10.019,5.744-14.414,8.765
				c-4.751,3.266-9.308,6.786-13.74,10.469C1243.968,166.423,1247.59,169.874,1250.042,167.836L1250.042,167.836z"/>
		</g>
	</g>
	<g id="GOUR_x5F_006_x5F_001_x5F_FRAG_x5F_007">
		<g>
			<path fill="#8252B1" d="M1297.215,192.322c1.716-1.895,1.457-2.074,4.317-1.779c3.832,0.395,2.228,1.587,0.936,4.056
				c-1.411,2.696-3.409,5.187-5.049,7.75c-1.97,3.077-4.502,7-1.773,10.448c1.856,2.345,5.22,2.849,7.978,2.1
				c2.92-0.794,11.134-10.465,13.422-6.57c1.63,2.774,5.904,0.178,4.27-2.603c-2.372-4.038-7.489-4.306-11.262-1.968
				c-2.544,1.577-4.141,4.689-6.827,5.972c-5.333,2.545-1.424-4.966-0.367-6.584c1.078-1.649,2.181-3.284,3.233-4.949
				c2.379-3.763,4.62-9.31,0.488-12.848c-4.49-3.844-9.844,0.058-12.966,3.506C1291.457,191.236,1295.05,194.714,1297.215,192.322
				L1297.215,192.322z"/>
		</g>
	</g>
	<g id="GOUR_x5F_006_x5F_001_x5F_FRAG_x5F_008">
		<g>
			<path fill="#8252B1" d="M1327.809,223.111c2.536,2.35,3.991,4.97,4.381,8.43c0.198,1.756,2.098,3.244,3.801,2.089
				c3.615-2.451,15.569-9.07,16.241-0.046c0.238,3.196,5.239,3.124,4.999-0.092c-0.345-4.635-3.5-8.061-8.03-9.194
				c-5.771-1.442-11.26,1.975-15.813,5.062c1.267,0.696,2.534,1.393,3.801,2.089c-0.537-4.767-2.369-8.656-5.91-11.938
				C1328.918,217.323,1325.443,220.919,1327.809,223.111L1327.809,223.111z"/>
		</g>
	</g>
	<g id="GOUR_x5F_006_x5F_001_x5F_FRAG_x5F_009">
		<g>
			<path fill="#8252B1" d="M1347.832,257.832c2.3,7.229,9.195,11.126,16.572,11.102c9.977-0.033,18.514-6.304,27.97-8.597
				c3.126-0.758,1.709-5.554-1.418-4.796c-9.847,2.388-33.064,17.42-38.328,0.874
				C1351.655,253.355,1346.853,254.754,1347.832,257.832L1347.832,257.832z"/>
		</g>
	</g>
	<g id="GOUR_x5F_006_x5F_001_x5F_FRAG_x5F_010">
		<g>
			<path fill="#8252B1" d="M1377.051,295.949c1.938-1.135,5.049-3.352,7.431-2.458c5.89,2.212-0.497,7.212-2.117,8.56
				c-2.348,1.953,0.749,4.987,3.101,3.87c4.37-2.074,9.141,1.287,8.062,6.173c-0.435,1.972-2.006,3.866-3.207,5.394
				c-1.826,2.324-3.862,4.552-4.866,7.393c-1.562,4.42-0.305,9.749,4.299,11.684c2.94,1.236,5.407-3.117,2.444-4.363
				c-6.246-2.626,0.87-9.987,3.06-12.954c2.183-2.958,3.928-6.391,3.312-10.17c-1.255-7.696-9.166-10.53-15.707-7.426
				c1.034,1.29,2.068,2.58,3.101,3.87c4.088-3.4,8.599-9.435,4.045-14.462c-4.325-4.774-10.975-2.066-15.561,0.62
				C1371.671,293.305,1374.268,297.579,1377.051,295.949L1377.051,295.949z"/>
		</g>
	</g>
	<g id="GOUR_x5F_006_x5F_002_x5F_FRAG_x5F_001">
		<g>
			<path fill="#AD76FF" d="M1395.872,370.875c9.287,4.665,19.416,6.886,29.811,6.202c2.311-0.152,8.707-1.409,9.985,1.064
				c-0.137,1.591-0.274,3.183-0.411,4.774c-0.783,0.477-1.6,0.887-2.451,1.23c-1.508,0.691-3.032,1.261-4.607,1.783
				c-5.051,1.674-10.293,2.731-15.252,4.686c-7.628,3.007-15.11,8.486-16.591,17.085c-1.266,7.356,3.311,15.009,10.907,16.18
				c3.156,0.487,4.419-4.355,1.24-4.845c-6.402-0.987-8.731-7.644-6.387-13.181c2.222-5.247,7.157-8.383,12.248-10.444
				c4.938-1.998,10.208-3.008,15.252-4.686c3.627-1.207,8.474-2.681,10.919-5.855c4.854-6.302-2.442-12.671-8.588-13.078
				c-5.006-0.332-9.986,0.688-15.028,0.222c-6.514-0.602-12.775-2.574-18.603-5.501
				C1395.442,365.069,1392.992,369.429,1395.872,370.875L1395.872,370.875z"/>
		</g>
	</g>
	<g id="GOUR_x5F_006_x5F_002_x5F_FRAG_x5F_002">
		<g>
			<path fill="#AD76FF" d="M1436.804,435.367c6.432,0.922,0.005,7.834-2.093,9.28c-2.711,1.869-5.659,3.456-8.572,4.985
				c-5.432,2.851-11.865,4.818-16.051,9.534c-6.135,6.911-4.774,18.048,2.063,23.894c2.438,2.085,5.921-1.503,3.47-3.6
				c-5.375-4.597-6.133-12.99-0.797-17.985c5.288-4.95,13.631-7.158,19.817-10.892c4.206-2.539,9.336-5.842,9.795-11.257
				c0.348-4.11-2.187-8.203-6.392-8.806C1434.888,430.069,1433.622,434.911,1436.804,435.367L1436.804,435.367z"/>
		</g>
	</g>
	<g id="GOUR_x5F_006_x5F_002_x5F_FRAG_x5F_003">
		<g>
			<path fill="#AD76FF" d="M1418.323,497.681c7.228,2.945,14.719,4.144,22.478,2.996c4.076-0.603,8.178-1.969,12.336-1.797
				c4.578,0.189,12.44,4.933,6.863,9.772c-2.07,1.796,0.319,4.569,2.509,4.133c1.958-0.39,12.779-1.846,10.25,4.084
				c-1.252,2.935,3.102,5.402,4.363,2.444c1.548-3.63,0.718-7.316-2.39-9.88c-3.88-3.202-9.088-2.35-13.641-1.444
				c0.836,1.378,1.673,2.755,2.509,4.133c6.658-5.777,1.776-15.268-5.525-17.479c-5.135-1.556-10.293-0.27-15.4,0.658
				c-7.524,1.366-14.773,0.924-21.908-1.983C1417.819,492.117,1415.349,496.469,1418.323,497.681L1418.323,497.681z"/>
		</g>
	</g>
	<g id="GOUR_x5F_006_x5F_002_x5F_FRAG_x5F_004">
		<g>
			<path fill="#AD76FF" d="M1435.003,532.79c3.356,11.985,10.849,21.994,21.309,28.71c2.715,1.743,5.141-2.631,2.444-4.363
				c-9.375-6.019-15.957-15.051-18.957-25.765C1438.932,528.276,1434.133,529.684,1435.003,532.79L1435.003,532.79z"/>
		</g>
	</g>
	<g id="GOUR_x5F_006_x5F_002_x5F_FRAG_x5F_005">
		<g>
			<path fill="#AD76FF" d="M1428.261,581.352c3.368,6.543,8.316,12.063,14.615,15.911c2.218,1.355,13.261,5.718,8.499,9.602
				c-2.771,2.26-10.073-1.462-13.383-1.66c-2.588-0.155-3.183,3.498-1.176,4.681c2.205,1.3,0.1,3.298-1.568,3.849
				c-2.273,0.752-4.703-0.325-6.777-1.24c-2.479-1.093-5.124,1.893-2.957,3.982c2.78,2.679-5.689,2.929-6.822,2.971
				c-1.272,0.047-2.597,0.126-3.843,0.426c-2.826,0.681-5.512,2.206-7.537,4.294c-4.263,4.396-5.158,10.741-3.126,16.373
				c1.086,3.01,5.892,1.621,4.796-1.418c-2.022-5.606-0.116-11.824,5.847-14.035c3.732-1.384,7.932,0.163,11.608-1.51
				c4.163-1.894,6.041-7.336,2.547-10.702c-0.986,1.327-1.971,2.654-2.957,3.982c4.839,2.134,11.298,3.869,15.2-0.998
				c2.762-3.446,1.764-8.139-1.967-10.338c-0.392,1.56-0.784,3.121-1.176,4.681c5.226,0.314,10.16,3.78,15.341,1.179
				c3.692-1.854,4.802-5.982,3.238-9.698c-1.922-4.565-6.749-6.075-10.691-8.386c-5.893-3.454-10.332-8.512-13.44-14.549
				C1431.058,575.889,1426.792,578.499,1428.261,581.352L1428.261,581.352z"/>
		</g>
	</g>
	<g id="GOUR_x5F_006_x5F_002_x5F_FRAG_x5F_006">
		<g>
			<path fill="#AD76FF" d="M1404.179,662.669c7.907,4.256,15.814,8.513,23.722,12.769c1.821,0.98,4.734,1.908,6.196,3.374
				c2.658,1.236,2.121,2.665-1.611,4.288c-0.558-0.007-1.115-0.015-1.673-0.022c-4.634,0.721-10.528-0.778-15.084-1.575
				c-5.783-1.012-13.43-4.64-19.174-1.733c-4.437,2.245-5.627,7.826-1.831,11.248c2.389,2.153,5.866-1.44,3.47-3.6
				c-4.299-3.874,5.869-3.331,6.592-3.189c2.33,0.456,4.62,1.142,6.953,1.608c3.877,0.773,7.792,1.344,11.726,1.737
				c5.26,0.525,14.682,2.32,17.337-4.075c2.493-6.004-4.656-9.299-8.762-11.509c-8.472-4.56-16.944-9.121-25.416-13.681
				C1403.786,656.779,1401.342,661.142,1404.179,662.669L1404.179,662.669z"/>
		</g>
	</g>
	<g id="GOUR_x5F_006_x5F_002_x5F_FRAG_x5F_007">
		<g>
			<path fill="#AD76FF" d="M1410.914,725.419c-2.447,2.656-4.677,2.871-6.692,0.643c-0.797-0.701-1.565-1.432-2.304-2.192
				c-1.472-1.456-4.419-0.349-4.235,1.846c0.217,2.581,0.489,2.583-1.647,4.518c-2.384,2.159-3.163,1.334-5.397-0.462
				c-1.728-1.39-3.249-3.057-5.196-4.164c-3.097-1.762-6.788-1.915-10.037-0.48c-7.218,3.187-7.929,11.982-3.177,17.554
				c2.089,2.45,5.543-1.169,3.47-3.6c-4.984-5.844,2.325-12.362,8.248-8.417c3.089,2.058,5.27,5.102,9.051,6.042
				c7.462,1.855,10.209-4.838,9.683-11.083c-1.411,0.615-2.823,1.231-4.234,1.846c3.33,3.295,7.69,6.836,12.701,5.183
				c3.806-1.255,5.567-4.863,4.561-8.651C1414.885,720.893,1410.087,722.304,1410.914,725.419L1410.914,725.419z"/>
		</g>
	</g>
	<g id="GOUR_x5F_006_x5F_002_x5F_FRAG_x5F_008">
		<g>
			<path fill="#AD76FF" d="M1361.008,760.703c-4.435,12.128-0.92,25.889,8.642,34.521c2.387,2.155,5.864-1.438,3.47-3.6
				c-8.358-7.546-11.124-19.136-7.267-29.681C1366.959,758.919,1362.103,757.708,1361.008,760.703L1361.008,760.703z"/>
		</g>
	</g>
	<g id="GOUR_x5F_006_x5F_002_x5F_FRAG_x5F_009">
		<g>
			<path fill="#AD76FF" d="M1343.663,809.55c-5.841,2.154-12.884-0.178-18.26,3.596c-4.388,3.081-5.015,8.629-3.032,13.332
				c2.585,6.13,8.619,10.963,12.506,16.251c1.067,1.452,2.102,2.929,3.099,4.43c0.423,0.637,2.932,3.807,2.889,4.57
				c-0.122,2.116-1.853,0.802-3.234,0.34c-2.361-0.791-4.477-1.922-6.583-3.225c-2.745-1.698-5.174,2.674-2.444,4.363
				c3.648,2.256,11.897,7.126,16.149,3.793c4.537-3.556-0.885-10.048-3.011-13.19c-1.972-2.914-4.077-5.733-6.297-8.463
				c-2.524-3.103-5.867-6.03-7.833-9.544c-6.685-11.951,11.422-9.227,17.469-11.457
				C1348.081,813.24,1346.693,808.433,1343.663,809.55L1343.663,809.55z"/>
		</g>
	</g>
	<g id="GOUR_x5F_006_x5F_002_x5F_FRAG_x5F_010">
		<g>
			<path fill="#AD76FF" d="M1306.521,864.772c1.311,2.714-3.175,2.859-4.955,2.198c-1.718-0.638-3.153-2.033-4.502-3.227
				c-1.157,1.2-2.313,2.4-3.47,3.6c-0.904,3.395-2.74,4.555-5.507,3.482c-0.877-0.201-1.755-0.402-2.632-0.603
				c-1.332-0.278-2.655-0.551-4.016-0.621c-2.825-0.147-5.563,0.423-8.139,1.574c-4.83,2.159-8.094,6.026-9.937,10.906
				c-1.137,3.01,3.72,4.219,4.845,1.24c1.864-4.936,6.59-8.549,11.923-8.744c4.312-0.158,8.364,2.21,12.725,1.344
				c5.57-1.107,9.51-8.064,4.208-12.179c-2.486-1.93-5.928,1.426-3.47,3.6c3.722,3.293,8.502,6.787,13.695,4.631
				c4.066-1.688,5.332-6.019,3.502-9.805C1309.393,859.275,1305.129,861.892,1306.521,864.772L1306.521,864.772z"/>
		</g>
	</g>
	<g id="GOUR_x5F_006_x5F_003_x5F_FRAG_x5F_001">
		<g>
			<path fill="#CD99DA" d="M1234.773,910.875c-16.833-1.59-1.984,33.584,0.49,39.625c1.206,2.946,6.018,1.567,4.796-1.418
				c-1.999-4.882-3.769-9.841-5.215-14.916c-0.708-2.482-5.926-18.854,0.022-18.292
				C1238.064,916.176,1237.946,911.175,1234.773,910.875L1234.773,910.875z"/>
		</g>
	</g>
	<g id="GOUR_x5F_006_x5F_003_x5F_FRAG_x5F_002">
		<g>
			<path fill="#CD99DA" d="M1214.638,958.759c-10.294-12.714-28.188-15.198-41.707-6.087c-2.659,1.792-0.076,6.076,2.603,4.27
				c11.84-7.979,26.694-5.625,35.635,5.417C1213.191,964.857,1216.64,961.232,1214.638,958.759L1214.638,958.759z"/>
		</g>
	</g>
	<g id="GOUR_x5F_006_x5F_003_x5F_FRAG_x5F_003">
		<g>
			<path fill="#CD99DA" d="M1175.812,983.843c-1.886,2.879-5.983,1.683-7.975-0.287c-2.26-2.235-3.297-5.488-4.328-8.405
				c-0.915-2.587-4.966-2.167-4.898,0.755c0.058,2.467-2.751,3.553-4.757,3.096c-1.363-0.311-2.784-1.497-3.74-2.463
				c-1.883-1.905-3.139-4.356-4.68-6.521c-1.972-2.771-4.309-5.467-7.558-6.739c-5.868-2.298-12.406,0.779-15.043,6.3
				c-1.383,2.895,2.974,5.351,4.363,2.444c3.366-7.046,10.331-4.469,13.967,0.598c2.641,3.681,4.76,7.841,8.873,10.117
				c5.813,3.217,13.746,0.421,13.574-6.923c-1.632,0.252-3.265,0.503-4.898,0.755c1.845,5.219,4.221,11.285,9.896,13.316
				c4.4,1.575,8.997,0.324,11.566-3.599C1181.943,983.589,1177.567,981.165,1175.812,983.843L1175.812,983.843z"/>
		</g>
	</g>
	<g id="GOUR_x5F_006_x5F_003_x5F_FRAG_x5F_004">
		<g>
			<path fill="#CD99DA" d="M1113.289,991.279c1.801,5.867-3.145,10.212-8.801,8.217c-1.679-0.592-2.995,1.004-3.12,2.469
				c-0.299,3.522-1.868,13.259-7.801,9.443c-1.748-1.124-3.573,0.492-3.721,2.228c-0.278,3.257-0.525,7.24-2.896,9.764
				c-3.689,3.927-7.58,0.118-9.292-3.401c-2.262-4.651-3.254-9.903-6.966-13.751c-5.25-5.442-16.353-5.635-17.52,3.521
				c-0.402,3.155,4.439,4.425,4.845,1.24c0.755-5.918,7.401-3.477,9.903-0.237c2.217,2.871,3.122,6.427,4.502,9.724
				c1.569,3.753,3.818,7.687,7.843,9.169c10.191,3.753,13.946-8.696,14.58-16.12c-1.24,0.742-2.481,1.485-3.721,2.227
				c3.484,2.241,7.788,1.573,10.823-1.192c3.536-3.221,4.04-8.217,4.421-12.706c-1.04,0.823-2.08,1.646-3.12,2.469
				c9.321,3.287,17.691-5.183,14.837-14.48C1117.143,986.791,1112.342,988.192,1113.289,991.279L1113.289,991.279z"/>
		</g>
	</g>
	<g id="GOUR_x5F_006_x5F_003_x5F_FRAG_x5F_005">
		<g>
			<path fill="#CD99DA" d="M1037.048,1001.396c-1.604,3.291-3.208,6.583-4.811,9.874c-1.487,3.051-2.729,7.201-4.811,9.874
				c-0.206,0.405-0.412,0.81-0.619,1.215c-3.549,1.899-5.455,1.446-5.715-1.358c-0.736-1.552-0.58-3.252-0.55-4.908
				c0.054-2.987,0.159-5.74-0.466-8.682c-0.461-2.171-3.577-2.278-4.58-0.513c-0.602,1.742-1.958,2.594-4.065,2.555
				c-0.036-0.478-0.072-0.956-0.109-1.435c-0.282-1.201,0.069-2.661-0.083-3.908c-0.244-2.001-0.829-3.387-2.219-4.86
				c-1.423-1.507-4.457-0.311-4.234,1.846c-2.473-0.142-3.611-1.288-3.413-3.437c-0.05-1.05-0.086-2.101-0.108-3.152
				c-0.119-1.768-0.246-3.573-0.93-5.234c-1.118-2.713-3.302-4.785-6.054-5.79c-5.808-2.12-11.075,1.387-13.201,6.754
				c-1.183,2.988,3.675,4.193,4.845,1.24c1.38-3.485,6.145-4.909,8.794-1.915c1.958,2.213,1.417,5.495,1.654,8.189
				c0.254,2.881,0.998,5.967,3.311,7.909c3.883,3.26,10.662,0.802,10.101-4.656c-1.411,0.615-2.823,1.231-4.234,1.846
				c3.013,3.191-1.082,9.008,3.839,11.792c4.573,2.587,8.445-1.737,10.47-5.301c-1.527-0.171-3.053-0.342-4.58-0.513
				c1.37,6.451-1.763,21.714,9.851,20.574c3.775-0.371,5.59-3.67,7.095-6.713c3.098-6.265,6.124-12.567,9.185-18.85
				C1042.818,1000.953,1038.459,998.5,1037.048,1001.396L1037.048,1001.396z"/>
		</g>
	</g>
	<g id="GOUR_x5F_006_x5F_003_x5F_FRAG_x5F_006">
		<g>
			<path fill="#CD99DA" d="M961.052,999.272c-6.643,4.098-10.584,10.583-13.385,17.713c-1.615,4.11-2.826,8.358-4.294,12.519
				c-1.225,3.471-4.484,13.704-8.911,13.219c-2.446-0.268-1.943-0.731-2.009-2.968c-0.036-1.227,0.02-2.461,0.082-3.686
				c0.16-3.152,0.565-6.292,1.215-9.381c0.911-4.322,3.074-8.758,2.984-13.222c-0.123-6.156-6.036-11.954-11.949-7.636
				c-2.579,1.884-0.004,6.174,2.603,4.27c1.448,0.927,2.896,1.854,4.344,2.781c-0.042,0.782-0.085,1.565-0.127,2.347
				c-0.163,1.101-0.539,2.184-0.842,3.251c-0.743,2.619-1.513,5.197-2.034,7.873c-0.91,4.673-1.538,9.655-1.269,14.416
				c0.341,6.044,4.849,11.567,10.858,6.964c5.966-4.57,8.663-13.18,10.922-20.004c2.983-9.01,5.85-18.904,14.414-24.187
				C966.391,1001.854,963.8,997.577,961.052,999.272L961.052,999.272z"/>
		</g>
	</g>
	<g id="GOUR_x5F_006_x5F_003_x5F_FRAG_x5F_007">
		<g>
			<path fill="#CD99DA" d="M900.289,1003.591c-1.184-5.42-7.596-6.887-11.98-4.203c-5.883,3.602-9.094,12.567-12.406,18.254
				c-1.247,2.14-2.487,4.284-3.74,6.421c-1.025,1.748-2.434,4.393-3.493,1.222c-0.25-0.747,0.536-2.719,0.383-3.686
				c-0.182-1.145-0.521-2.264-1.39-3.104c-2.608-2.521-11.444,0.499-8.093-6.122c1.767-3.493,5.723-5.49,8.219-8.391
				c3.681-4.279,5.036-11.023-0.131-14.746c-4.769-3.436-10.723-1.651-14.899,1.786c-3.221,2.65-5.612,6.055-8.216,9.271
				c-0.575,0.805-1.21,1.56-1.905,2.263c-2.84-0.478-3.806-1.865-2.898-4.161c0.29-1.865,0.943-3.666,0.982-5.575
				c0.108-5.31-4.631-9.849-9.771-7.208c-2.862,1.47-0.252,5.737,2.603,4.27c3.364-1.728,1.113,8.397,1.068,8.919
				c-0.094,1.079-0.14,2.019,0.037,3.105c0.331,2.031,1.198,3.978,2.862,5.25c5.411,4.136,9.845-2.54,12.792-6.202
				c2.446-3.039,5.542-7.312,9.496-8.338c1.62-0.42,3.985-0.357,5.283,0.906c2.956,2.876-0.503,6.669-2.409,8.563
				c-3.938,3.914-9.492,7.474-8.828,13.849c0.219,2.102,1.236,4.124,2.889,5.475c0.949,0.776,2.07,1.351,3.289,1.551
				c0.484,0.079,2.218-0.29,2.531-0.09c1.978,1.265-0.479,5.752,0.565,7.949c0.85,1.789,2.555,2.88,4.538,3.005
				c6.198,0.388,9.187-7.88,11.664-12.132c2.182-3.746,4.357-7.495,6.545-11.237c1.069-1.829,8.095-12.411,9.617-5.445
				C896.179,1008.15,900.974,1006.727,900.289,1003.591L900.289,1003.591z"/>
		</g>
	</g>
	<g id="GOUR_x5F_006_x5F_003_x5F_FRAG_x5F_008">
		<g>
			<path fill="#CD99DA" d="M812.1,976.236c-6.987,1.524-13.728-2.264-16.454-8.762c-1.848-4.404-3.256-8.351-8.672-8.874
				c-4.731-0.457-8.681,2.222-11.593,5.717c-4.579,5.495-8.309,11.878-12.342,17.774c-2.21,3.231-4.42,6.462-6.63,9.692
				c-1.014,1.483-2.115,4.099-3.557,5.156c-0.519,1.466-1.507,1.654-2.964,0.565c-0.042-1.189-0.011-2.376,0.092-3.561
				c0.668-7.566,4.066-14.569,5.725-21.917c2.216-9.817,1.121-20.983-7.656-27.162c-2.634-1.854-5.051,2.528-2.444,4.363
				c13.207,9.297,2.037,28.868-0.068,40.626c-0.726,4.056-2.158,11.584,2.503,14.013c4.766,2.483,8.328-3.2,10.522-6.408
				c4.604-6.731,9.208-13.462,13.813-20.193c3.028-4.427,12.5-21.01,17.837-10.238c2.394,4.832,3.817,8.809,8.758,11.767
				c4.466,2.674,9.51,3.337,14.549,2.238C816.659,980.347,815.235,975.552,812.1,976.236L812.1,976.236z"/>
		</g>
	</g>
	<g id="GOUR_x5F_006_x5F_004_x5F_FRAG_x5F_001">
		<g>
			<path fill="#A41C78" d="M702.195,934.72c-3.317,2.286-6.909,3.986-10.883,4.743c-3.142,0.599-7.677,1.715-7.801-3.369
				c-0.038-1.538,1.208-3.328,1.837-4.642c3.102-6.482,6.842-12.738,7.326-20.09c1.052-16.01-13.943-22.011-26.998-25.003
				c-3.137-0.719-4.38,4.125-1.24,4.845c9.385,2.151,22.032,5.367,23.233,16.897c0.945,9.069-5.207,16.22-8.201,24.207
				c-1.879,5.013-1.312,10.795,4.622,12.319c6.812,1.749,15.242-1.87,20.709-5.637C707.435,937.172,704.855,932.887,702.195,934.72
				L702.195,934.72z"/>
		</g>
	</g>
	<g id="GOUR_x5F_006_x5F_004_x5F_FRAG_x5F_002">
		<g>
			<path fill="#A41C78" d="M639.852,873.787c-5.197,2.215-9.55-3.454-5.041-7.586c1.761-1.614-0.199-5.136-2.509-4.133
				c-6.1,2.648-4.695-8.981-4.653-11.91c0.062-4.318,0.124-8.635,0.185-12.953c0.046-3.22-4.953-3.124-4.999,0.092
				c-0.062,4.318-0.124,8.635-0.185,12.953c-0.051,3.552-0.656,7.763,0.174,11.263c1.161,4.896,6.33,7.334,10.896,5.352
				c-0.836-1.378-1.673-2.755-2.509-4.133c-8.007,7.336-0.072,20.17,10.058,15.852C644.192,877.338,642.816,872.524,639.852,873.787
				L639.852,873.787z"/>
		</g>
	</g>
	<g id="GOUR_x5F_006_x5F_004_x5F_FRAG_x5F_003">
		<g>
			<path fill="#A41C78" d="M606.324,804.831c-4.732,1.984-16.917,6.059-16.85-3.16c0.014-1.853-2.233-3.134-3.801-2.089
				c-4.692,3.126-10.4,7.17-16.349,5.64c-8.64-2.222-5.28-10.651-1.042-15.483c1.234-1.407,0.697-3.656-1.18-4.157
				c-6.808-1.82,0.751-13.002,1.322-17.054c0.595-4.215-0.623-7.722-4.042-10.261c-2.581-1.917-4.993,2.47-2.444,4.363
				c5.19,3.854-2.773,13.89-2.606,18.943c0.138,4.18,2.43,7.758,6.529,8.854c-0.393-1.386-0.787-2.772-1.18-4.157
				c-5.307,6.05-9.417,15.492-1.607,21.43c8.127,6.178,17.945,0.987,25.201-3.847c-1.267-0.696-2.534-1.393-3.801-2.089
				c-0.032,4.452,2.59,8.048,6.653,9.826c5.502,2.407,11.43,0.212,16.614-1.961C610.673,808.398,609.296,803.585,606.324,804.831
				L606.324,804.831z"/>
		</g>
	</g>
	<g id="GOUR_x5F_006_x5F_004_x5F_FRAG_x5F_004">
		<g>
			<path fill="#A41C78" d="M539.359,735.332c-3.533-0.368-7.5-0.863-10.345-3.177c-1.326-1.079-2.727-2.55-3.03-4.328
				c-0.492-2.882,1.594-5.871,4.831-4.981c3.113,0.857,4.323-3.951,1.24-4.845c-3.978-1.154-3.557-6.314-1.284-8.849
				c2.145-2.392,5.384-3.46,8.38-4.288c2.281-0.631,2.392-4.388-0.089-4.821c-2.623-0.458,2.65-6.643,3.129-7.522
				c0.92-1.689,1.418-3.643,1.436-5.57c0.04-4.193-1.884-8.064-5.221-10.557c-2.547-1.903-6.046,1.676-3.47,3.6
				c2.795,2.088,4.444,5.379,3.392,8.915c-0.872,2.93-3.801,4.673-4.807,7.567c-1.238,3.562,0.395,7.731,4.3,8.412
				c-0.03-1.607-0.059-3.214-0.089-4.821c-5.666,1.566-12.118,4.673-13.489,11.004c-1.106,5.107,1.508,10.305,6.57,11.774
				c0.413-1.615,0.827-3.23,1.24-4.845c-6.491-1.786-12.163,4.128-10.976,10.567c1.598,8.665,10.913,10.986,18.371,11.762
				C542.644,740.664,542.524,735.662,539.359,735.332L539.359,735.332z"/>
		</g>
	</g>
	<g id="GOUR_x5F_006_x5F_004_x5F_FRAG_x5F_005">
		<g>
			<path fill="#A41C78" d="M518.532,655.727c-3.73-0.881-23.289-1.59-16.609-9.547c3.126-3.724,9.752-3.148,13.403-6.553
				c6.896-6.432,1.643-16.624-7.042-16.898c-3.219-0.101-3.118,4.898,0.092,4.999c6.719,0.212,5.753,7.743,0.755,9.875
				c-2.237,0.954-4.644,1.411-6.848,2.466c-3.118,1.493-5.99,3.927-6.466,7.54c-1.571,11.909,14.247,11.256,21.476,12.963
				C520.424,661.312,521.666,656.467,518.532,655.727L518.532,655.727z"/>
		</g>
	</g>
	<g id="GOUR_x5F_006_x5F_004_x5F_FRAG_x5F_006">
		<g>
			<path fill="#A41C78" d="M496.592,596.293c-0.531-1.314-1.062-2.628-1.593-3.943c0.795-0.875,1.742-1.5,2.841-1.873
				c1.333-0.627,2.707-0.984,4.126-1.367c2.341-0.632,2.334-4.31-0.089-4.821c-3.024-0.637-7.185-1.773-8.197-5.164
				c-1.236-4.143,2.783-5.735,5.719-6.962c4.206-1.758,8.149-3.391,11.051-7.105c4.885-6.253,3.969-15.772-3.564-19.45
				c-2.886-1.409-5.339,2.949-2.444,4.363c8.717,4.256,2.122,13.737-4.011,16.429c-3.541,1.555-7.594,2.566-10.101,5.744
				c-6.329,8.019,2.995,15.449,10.307,16.989c-0.03-1.607-0.059-3.214-0.089-4.821c-5.384,1.453-12.321,4.611-11.591,11.392
				c0.531,4.926,6.128,7.753,10.237,4.857C501.81,598.719,499.232,594.432,496.592,596.293L496.592,596.293z"/>
		</g>
	</g>
	<g id="GOUR_x5F_006_x5F_004_x5F_FRAG_x5F_007">
		<g>
			<path fill="#A41C78" d="M497.542,528.407c-3.315-5.51-4.557-11.485-3.896-17.87c0.331-3.193-4.671-3.073-4.999,0.092
				c-0.746,7.197,0.901,14.191,4.625,20.381C494.93,533.766,499.205,531.172,497.542,528.407L497.542,528.407z"/>
		</g>
	</g>
	<g id="GOUR_x5F_006_x5F_004_x5F_FRAG_x5F_008">
		<g>
			<path fill="#A41C78" d="M502.276,497.956c7.956-3.935,9.392-14.28,5.233-21.524c-2.394-4.17-6.27-7.306-10.399-9.656
				c-5.668-3.226-15.922-5.092-15.898-13.221c0.01-3.219-4.99-3.127-4.999,0.092c-0.03,10.107,9.723,12.908,17.16,16.789
				c4.374,2.282,8.707,5.46,10.613,10.176c1.966,4.866,0.561,10.664-4.313,13.074C496.791,495.112,499.405,499.376,502.276,497.956
				L502.276,497.956z"/>
		</g>
	</g>
	<g id="GOUR_x5F_006_x5F_004_x5F_FRAG_x5F_009">
		<g>
			<path fill="#A41C78" d="M484.733,437.047c4.895-8.729,17.221-6.407,25.243-10.031c6.114-2.763,10.244-8.862,8.368-15.633
				c-0.859-3.099-5.657-1.69-4.796,1.418c2.87,10.36-12.19,11.335-18.695,12.621c-6.038,1.193-11.372,3.635-14.483,9.182
				C478.793,437.415,483.158,439.855,484.733,437.047L484.733,437.047z"/>
		</g>
	</g>
	<g id="GOUR_x5F_006_x5F_005_x5F_FRAG_x5F_001">
		<g>
			<path fill="#EE88F6" d="M526.868,317.017c-5.786,4.981-2.573,13.065,2.068,17.552c3.198,3.092,9.719,6.598,9.023,11.882
				c-0.894,6.788-12.419,1.425-16.4,0.076c-5.174-1.754-16.688-5.383-16.965,4.072c-0.125,4.272,3.38,6.534,6.275,8.97
				c4.48,3.77,5.378,9.477,2.022,14.347c-1.829,2.654,2.551,5.073,4.363,2.444c3.947-5.728,3.614-13.853-1.306-18.948
				c-0.867-0.898-1.871-1.577-2.834-2.355c-1.846-1.49-2.535-1.293-1.747-3.996c0.771-2.648,1.152-2.182,3.505-1.558
				c1.279,0.339,2.513,0.858,3.762,1.29c4.68,1.618,9.863,3.89,14.855,4.177c7.272,0.417,10.944-6,8.894-12.565
				c-1.119-3.583-3.834-6.152-6.603-8.526c-3.369-2.889-10.591-8.849-5.314-13.391C532.909,318.386,529.291,314.931,526.868,317.017
				L526.868,317.017z"/>
		</g>
	</g>
	<g id="GOUR_x5F_006_x5F_005_x5F_FRAG_x5F_002">
		<g>
			<path fill="#EE88F6" d="M570.496,284.53c-6.939,5.786-17.343,0.835-25.386,2.305c-6.243,1.141-11.194,5.508-11.639,11.995
				c-0.22,3.21,4.781,3.099,4.999-0.092c0.686-10.017,15.048-6.796,21.304-6.511c5.332,0.242,10.173-0.768,14.321-4.227
				C576.568,285.939,572.946,282.487,570.496,284.53L570.496,284.53z"/>
		</g>
	</g>
	<g id="GOUR_x5F_006_x5F_005_x5F_FRAG_x5F_003">
		<g>
			<path fill="#EE88F6" d="M593.032,258.351c-4.626-4.366-9.662-8.985-11.531-15.279c-2.008-6.764,1.898-16.424,10.361-13.74
				c2.219,0.704,3.704-1.924,2.755-3.724c-2.145-4.068,0.851-8.206,4.43-10.043c3.721-1.909,8.047-1.864,12.127-1.842
				c3.22,0.017,3.126-4.982-0.092-4.999c-6.559-0.034-14.005,0.41-18.717,5.627c-3.545,3.925-4.489,9.173-2.018,13.86
				c0.918-1.241,1.837-2.483,2.755-3.724c-8.467-2.686-16.281,4.058-17.156,12.404c-1.094,10.438,6.634,18.471,13.616,25.06
				C591.904,264.161,595.377,260.564,593.032,258.351L593.032,258.351z"/>
		</g>
	</g>
	<g id="GOUR_x5F_006_x5F_005_x5F_FRAG_x5F_004">
		<g>
			<path fill="#EE88F6" d="M660.896,136.944c-7.021,0.113-9.922,7.445-8.833,13.555c0.469,2.632,1.518,5.107,2.055,7.718
				c0.541,2.631,0.79,8.228-3.139,8.68c-3.19,0.367-6.506-4.323-9.551-5.219c-7.243-2.131-11.498,5.455-10.304,11.73
				c0.845,4.441,3.483,8.2,5.735,12.023c1.569,2.663,3.166,5.62,3.278,8.793c0.122,3.481-3.621,8.942-7.38,5.485
				c-2.368-2.178-5.844,1.416-3.47,3.6c5.085,4.677,13.075,1.732,15.192-4.546c1.375-4.078,0.377-8.489-1.386-12.289
				c-1.595-3.437-10.767-14.917-6.599-18.484c4.361-3.733,8.194,2.509,12.24,3.584c3.028,0.804,6.078-0.195,8.106-2.568
				c2.252-2.636,2.924-6.243,2.557-9.595c-0.43-3.928-6.518-17.336,1.591-17.466C664.205,141.892,664.118,136.892,660.896,136.944
				L660.896,136.944z"/>
		</g>
	</g>
	<g id="GOUR_x5F_006_x5F_005_x5F_FRAG_x5F_005_00000078751199850419781280000003104912553748031891_">
		<g>
			<path fill="#EE88F6" d="M679.09,141.39c2.689-7.681,10.845-11.421,18.435-8.33c1.339,0.545,3.367,0.206,3.644-1.561
				c1.195-7.618,3.263-18.927,13.205-18.752c3.22,0.057,3.123-4.942-0.092-4.999c-12.396-0.218-16.383,12.47-17.958,22.511
				c1.215-0.52,2.43-1.041,3.644-1.561c-10.716-4.364-21.881,0.477-25.723,11.453C673.18,143.191,678.034,144.406,679.09,141.39
				L679.09,141.39z"/>
		</g>
	</g>
	<g id="GOUR_x5F_006_x5F_005_x5F_FRAG_x5F_006_00000102529594387192846830000000337112447039470780_">
		<g>
			<path fill="#EE88F6" d="M736.384,125.49c8.296,4.263,19.26,2.074,24.585-5.887c3.227-4.825,3.677-10.784,3.747-16.42
				c0.098-7.867-0.642-19.285,8.825-22.048c3.085-0.9,1.68-5.7-1.418-4.796c-11.169,3.26-12.38,15.221-12.408,25.117
				c-0.019,6.465-0.045,14.005-5.698,18.331c-4.361,3.337-10.346,3.829-15.189,1.341
				C735.966,119.656,733.518,124.017,736.384,125.49L736.384,125.49z"/>
		</g>
	</g>
	<g id="GOUR_x5F_006_x5F_005_x5F_FRAG_x5F_007_00000129885316162524694080000011539029391027632004_">
		<g>
			<path fill="#EE88F6" d="M794.232,76.792c7.639,7.819,21.12,17.548,30.75,6.639c2.126-2.409-1.465-5.889-3.6-3.47
				c-7.569,8.575-18.063-1.019-23.68-6.769C795.449,70.886,791.984,74.491,794.232,76.792L794.232,76.792z"/>
		</g>
	</g>
	<g id="GOUR_x5F_006_x5F_005_x5F_FRAG_x5F_008_00000078031196632788161240000014087165613651660704_">
		<g>
			<path fill="#EE88F6" d="M836.719,93.357c3.606,4.253,9.291,6.5,14.818,5.077c2.201-0.566,4.298-1.681,6.005-3.176
				c2.687-2.355,3.839-6.977,7.257-8.404c2.289-0.956,4.946-0.657,7.32-1.983c2.309-1.289,4.26-3.099,5.849-5.203
				c4.512-5.974,5.3-13.535,6.007-20.754c0.313-3.196-4.689-3.078-4.999,0.092c-0.561,5.738-1.127,12.115-4.497,17.014
				c-1.685,2.45-4.133,4.595-7.025,5.421c-1.911,0.546-4.017,0.222-5.903,0.897c-3.602,1.288-3.927,4.909-5.949,7.645
				c-4.046,5.477-11.33,4.589-15.413-0.227C838.108,87.301,834.655,90.921,836.719,93.357L836.719,93.357z"/>
		</g>
	</g>
	<g id="GOUR_x5F_006_x5F_005_x5F_FRAG_x5F_009_00000142151197557477559750000002370123081014928552_">
		<g>
			<path fill="#EE88F6" d="M898.788,62.911c-1.217,9.595,8.231,16.394,16.675,10.811c-1.267-0.696-2.534-1.393-3.801-2.089
				c-0.103,5.891,3.611,13.522,10.639,9.502c-1.267-0.696-2.534-1.393-3.801-2.089c1.515,9.952,11.482,11.642,19.76,8.397
				c2.97-1.164,1.587-5.974-1.418-4.796c-4.559,1.787-12.361,2.755-13.343-3.693c-0.28-1.841-1.998-3.121-3.801-2.089
				c-3.104,1.775-3.064-3.787-3.037-5.324c0.033-1.864-2.244-3.119-3.801-2.089c-4.201,2.777-9.925,0.192-9.228-5.3
				C904.034,60.996,899.192,59.726,898.788,62.911L898.788,62.911z"/>
		</g>
	</g>
</g>
</svg>
