<?xml version="1.0" encoding="utf-8"?>
<!-- Generator: Adobe Illustrator 27.0.0, SVG Export Plug-In . SVG Version: 6.00 Build 0)  -->
<svg version="1.1" xmlns="http://www.w3.org/2000/svg" xmlns:xlink="http://www.w3.org/1999/xlink" x="0px" y="0px"
	 viewBox="0 0 1920 1080" enable-background="new 0 0 1920 1080" xml:space="preserve">
<g id="AXE">
	<circle fill="#FF1A1A" cx="958.134" cy="537.133" r="18.112"/>
	
		<line fill="none" stroke="#FF1A1A" stroke-width="0.5" stroke-linecap="square" stroke-linejoin="round" stroke-miterlimit="10" x1="958.5" y1="36.5" x2="958.5" y2="523.5"/>
</g>
<g id="FRAGMENTS">
	<g id="PHIL_x5F_004_x5F_006_x5F_FRAG_x5F_001">
		<g>
			<path fill="#2C2CFF" d="M976.446,112.928c-2.703,11.308,8.956,18.898,19.112,16.122c13.462-3.679,19.786-19.145,26.154-30.081
				c4.352-7.473,8.703-14.945,13.055-22.418c2.075-3.563,3.971-7.375,6.408-10.709c2.042-2.793,8.384-8.637,10.276-2.432
				c1.006,3.299-0.544,7.39-1.386,10.565c-1.173,4.42-2.345,8.839-3.518,13.259c-1.849,6.967-5.191,14.812-5.241,22.071
				c-0.039,5.651,3.879,9.727,9.599,9.694c5.84-0.033,15.425-7.477,20.237-2.44c1.078,1.129,3.215,0.829,3.916-0.578
				c4.067-8.154,12.912-12.877,21.962-11.284c3.154,0.555,4.411-4.287,1.24-4.845c-11.206-1.973-22.45,3.428-27.565,13.685
				c1.306-0.193,2.611-0.385,3.917-0.578c-4.515-4.726-10.892-3.024-16.294-0.934c-4.699,1.818-13.055,4.301-11.877-4.437
				c0.65-4.825,2.449-9.679,3.696-14.379c2.188-8.249,5.494-16.891,6.39-25.405c0.57-5.415-1.395-11.74-7.735-12.241
				c-6.776-0.535-11.411,6.633-14.37,11.647c-5.07,8.593-10.042,17.245-15.063,25.867c-4.827,8.29-9.129,17.978-15.708,25.056
				c-3.438,3.7-8.238,6.846-13.499,6.602c-5.436-0.252-10.199-4.964-8.86-10.567C982.04,111.036,977.195,109.795,976.446,112.928
				L976.446,112.928z"/>
		</g>
	</g>
	<g id="PHIL_x5F_004_x5F_006_x5F_FRAG_x5F_002">
		<g>
			<path fill="#2C2CFF" d="M1144.281,113.244c-2.566,10.054-5.131,20.107-7.697,30.161c-1.283,5.027-2.566,10.054-3.849,15.08
				c-1.221,4.785-3.11,9.801-3.567,14.722c-0.593,6.387,3.805,10.249,9.645,11.738c3.529,0.9,7.328,0.62,10.755,1.936
				c4.985,1.915,4.919,6.557,4.841,11.148c-0.097,5.731,0.183,12.298,6.253,14.939c6.395,2.783,13.009-1.246,17-6.111
				c5.69-6.937,10.357-14.523,16.479-21.157c6.459-6.999,13.766-14.205,21.858-19.297c0.792-0.498,2.22-1.634,3.15-1.694
				c5.013-0.32,3.904,3.518,3.298,5.809c-0.57,2.154-1.628,4.139-2.453,6.197c-1.61,4.019-2.539,8.198-2.869,12.513
				c-0.704,9.23,1.784,18.399,6.755,26.164c1.732,2.705,6.012,0.118,4.27-2.603c-4.988-7.791-7.09-16.951-5.737-26.139
				c0.999-6.784,6.415-13.594,5.525-20.57c-0.805-6.313-7.236-7.842-12.352-5.26c-7.242,3.654-13.94,10.293-19.692,15.906
				c-6.06,5.913-11.575,12.356-16.538,19.214c-2.592,3.582-4.827,7.837-8.382,10.564c-4.927,3.778-11.031,2.507-11.562-4.131
				c-0.454-5.677,1.184-12.031-2.902-16.783c-4.606-5.358-11.969-3.764-17.95-5.949c-6.976-2.549-3.549-9.852-2.184-15.203
				c1.363-5.341,2.726-10.682,4.089-16.023c2.886-11.31,5.773-22.621,8.659-33.931
				C1149.923,111.362,1145.077,110.125,1144.281,113.244L1144.281,113.244z"/>
		</g>
	</g>
	<g id="PHIL_x5F_004_x5F_006_x5F_FRAG_x5F_003">
		<g>
			<path fill="#2C2CFF" d="M1314.891,206.449c16.687,5.491-20.292,46.019-26.189,51.78c-1.073,1.048-0.885,3.267,0.578,3.916
				c10.07,4.472-0.607,22.359-3.28,29.078c-3.839,9.651-7.678,19.301-11.517,28.952c-1.188,2.986,3.671,4.19,4.845,1.24
				c5.039-12.666,10.078-25.333,15.117-37.999c3.213-8.076,8.057-20.848-2.72-25.634c0.193,1.305,0.385,2.611,0.578,3.916
				c8.592-8.395,49.489-51.652,23.829-60.095C1313.069,200.597,1311.849,205.449,1314.891,206.449L1314.891,206.449z"/>
		</g>
	</g>
	<g id="PHIL_x5F_004_x5F_007_x5F_FRAG_x5F_001">
		<g>
			<path fill="#8080DD" d="M1357.386,300.53c-2.918,4.551-2.165,9.949,0.827,14.305c3.541,5.155,9.147,7.39,15.152,8.268
				c7.454,1.089,15.722,0.227,22.189,4.778c7.972,5.609,3.656,13.529-2.423,18.432c-5.321,4.291-11.287,7.687-16.579,12.047
				c-6.017,4.958-11.724,10.548-16.416,16.792c-7.206,9.592-10.153,22.959,1.275,30.615c5.652,3.787,12.479,4.924,19.037,6.111
				c7.34,1.329,16.667,3.43,19.679,11.188c1.155,2.975,5.964,1.592,4.796-1.418c-4.267-10.991-16.145-13.284-26.522-15.182
				c-5.941-1.087-12.943-2.578-17.095-7.345c-6.362-7.306-0.609-16.924,4.478-23.087c4.856-5.883,10.476-11.241,16.504-15.908
				c5.15-3.988,10.942-7.145,15.813-11.49c7.991-7.128,9.85-18.284,0.186-24.963c-5.671-3.92-12.452-4.419-19.108-4.957
				c-4.772-0.386-10.501-0.775-14.364-3.991c-3.488-2.903-5.72-7.617-3.068-11.753
				C1363.491,300.258,1359.116,297.832,1357.386,300.53L1357.386,300.53z"/>
		</g>
	</g>
	<g id="PHIL_x5F_004_x5F_007_x5F_FRAG_x5F_002">
		<g>
			<path fill="#8080DD" d="M1430.241,486.795c-5.679,1.526-10.011,5.877-11.768,11.489c-1.939,6.194-0.071,11.577,3.821,16.484
				c2.491,3.14,6.82,7.155,4.219,11.453c-1.412,2.333-4.289,3.737-6.465,5.212c-4.217,2.859-8.29,6.419-7.674,12.011
				c0.89,8.083,9.388,10.406,14.104,15.652c6.537,7.27-3.73,15.046-7.111,21.138c-6.212,11.193-1.55,25.915,9.457,32.075
				c2.814,1.575,5.253-2.791,2.444-4.363c-6.042-3.381-9.715-9.848-9.701-16.786c0.014-6.992,4.363-11.457,8.144-16.829
				c3.083-4.38,5.272-9.507,3.007-14.774c-2.511-5.838-8.826-7.758-12.892-12.141c-6.366-6.864,1.586-10.555,6.505-14.203
				c3.684-2.732,6.59-6.318,5.93-11.181c-0.775-5.711-6.019-8.967-8.482-13.812c-3.349-6.588,1.034-14.787,7.878-16.626
				C1434.765,490.756,1433.354,485.958,1430.241,486.795L1430.241,486.795z"/>
		</g>
	</g>
	<g id="PHIL_x5F_004_x5F_007_x5F_FRAG_x5F_003">
		<g>
			<path fill="#8080DD" d="M1412.879,661.942c-20.923,12.727-31.431,38.659-25.402,62.369c0.793,3.117,5.59,1.703,4.796-1.418
				c-5.479-21.549,4.234-45.14,23.209-56.681C1418.23,664.541,1415.637,660.265,1412.879,661.942L1412.879,661.942z"/>
		</g>
	</g>
	<g id="PHIL_x5F_004_x5F_008_x5F_FRAG_x5F_001">
		<g>
			<path fill="#48BFED" d="M1378.587,805.625c-3.488,6.47-12.105,6.381-18.081,3.735c-6.474-2.867-11.493-8.293-17.276-12.249
				c-8.373-5.727-22.158-8.899-29.036,0.828c-3.599,5.09-3.122,11.422-2.373,17.294c0.99,7.762,1.195,14.38-1.457,21.89
				c-4.152,11.758-11.319,25.342-2.846,37.016c1.877,2.586,6.166,0.01,4.27-2.603c-9.049-12.467,2.88-27.312,5.362-39.895
				c1.208-6.123,0.183-11.925-0.525-18.026c-0.824-7.102-0.254-15.406,8.435-16.763c13.84-2.161,22.608,12.566,34.13,17.362
				c8.215,3.419,19.19,2.327,23.759-6.147C1384.479,805.233,1380.115,802.789,1378.587,805.625L1378.587,805.625z"/>
		</g>
	</g>
	<g id="PHIL_x5F_004_x5F_008_x5F_FRAG_x5F_002">
		<g>
			<path fill="#48BFED" d="M1260.429,918.362c-9.779,7.134-19.404-5.437-25.954-11.187c-5.444-4.779-12.309-8.128-19.661-5.948
				c-7.393,2.192-9.16,8.658-8.137,15.647c1.654,11.299-1.781,21.972-11.678,28.442c-1.607,1.051-1.54,3.32,0.079,4.317
				c11.432,7.037,0.74,21.23-5.097,27.816c-2.131,2.405,1.46,5.884,3.6,3.47c5.028-5.673,10.514-11.981,11.256-19.862
				c0.596-6.333-1.825-12.407-7.315-15.786c0.026,1.439,0.053,2.878,0.079,4.317c6.998-4.575,12.071-11.547,13.933-19.747
				c0.933-4.108,0.892-8.132,0.277-12.281c-0.913-6.163-0.04-11.653,7.179-11.982c9.737-0.443,15.557,9.652,22.492,14.86
				c6.154,4.622,14.849,7.083,21.548,2.195C1265.612,920.75,1263.037,916.46,1260.429,918.362L1260.429,918.362z"/>
		</g>
	</g>
	<g id="PHIL_x5F_004_x5F_008_x5F_FRAG_x5F_003">
		<g>
			<path fill="#48BFED" d="M1131.72,973.454c-4.901,4.426-10.422,3.841-15.89,1.047c-3.514-1.796-6.656-2.214-10.199-0.227
				c-4.297,2.41-7.562,5.284-12.546,6.45c-5.617,1.314-11.264,0.671-16.596-1.423c-2.992-1.175-4.198,3.684-1.24,4.845
				c10.506,4.126,21.493,2.267,30.65-4.039c3.899-2.685,6.524-1.435,10.319,0.249c1.888,0.838,3.882,1.358,5.953,1.468
				c4.988,0.266,9.489-1.594,13.15-4.9C1137.712,974.763,1134.099,971.305,1131.72,973.454L1131.72,973.454z"/>
		</g>
	</g>
	<g id="PHIL_x5F_004_x5F_009_x5F_FRAG_x5F_001">
		<g>
			<path fill="#A9CCFF" d="M1014.748,999.6c-4.774,6.724-9.547,13.449-14.321,20.173c-3.438,4.842-10.17,18.353-17.278,11.074
				c-5.14-5.265-3.657-14.01-6.962-20.256c-2.251-4.254-6.454-7.951-11.544-7.615c-5.089,0.336-8.157,5.323-12.852,6.072
				c-3.412,0.544-5.452-2.875-8.312-4.043c-2.524-1.031-5.182-0.863-7.775-0.175c-6.509,1.725-11.629,4.613-18.642,3.663
				c-6.645-0.899-12.499-4.198-16.905-9.199c-2.13-2.418-5.586,1.198-3.47,3.6c8.425,9.562,22.16,13.285,34.229,9.052
				c5.058-1.774,8.061-3.728,13.138-0.656c2.078,1.257,3.651,2.734,6.251,2.883c6.045,0.347,10.683-7.636,16.5-5.996
				c8.335,2.351,6.747,16.015,9.946,22.189c2.408,4.647,7.327,8.708,12.861,7.593c6.177-1.244,9.66-7.969,12.976-12.639
				c5.508-7.759,11.016-15.518,16.524-23.277C1020.975,999.418,1016.593,997.002,1014.748,999.6L1014.748,999.6z"/>
		</g>
	</g>
	<g id="PHIL_x5F_004_x5F_009_x5F_FRAG_x5F_002">
		<g>
			<path fill="#A9CCFF" d="M848.312,990.894c-7.635-8.133-19.607-11.576-30.367-8.338c-5.973,1.798-10.562,5.994-16.03,8.78
				c-3.202,1.631-6.952,2.547-10.448,1.283c-4.352-1.574-4.155-5.364-4.645-9.307c-1.373-11.055-11.27-9.405-19.6-8.571
				c-2.155,0.216-4.656,0.52-6.672-0.452c-4.163-2.007-2.802-7.314-2.129-10.921c1.038-5.568,1.377-10.672-1.45-15.793
				c-7.328-13.276-23.636-14.06-37.029-13.86c-3.217,0.048-3.13,5.047,0.092,4.999c9.318-0.139,19.916-0.442,27.655,5.635
				c3.442,2.703,6.212,6.586,6.615,11.045c0.34,3.768-1.06,7.521-1.484,11.236c-0.635,5.557,1.288,11.051,7.072,12.766
				c5.368,1.591,10.79-0.748,16.189-0.575c8.359,0.267,4.41,10.532,8.815,15.402c3.825,4.228,10.426,4.757,15.589,3.125
				c7.564-2.392,13.03-8.905,20.936-10.528c8.622-1.769,17.466,1.332,23.422,7.677C847.049,996.845,850.51,993.236,848.312,990.894
				L848.312,990.894z"/>
		</g>
	</g>
	<g id="PHIL_x5F_004_x5F_009_x5F_FRAG_x5F_003">
		<g>
			<path fill="#A9CCFF" d="M675.896,900.013c-4.831,0.078-9.004-2.628-10.536-7.249c-0.947-2.858-1.015-5.731-3.397-7.866
				c-4.466-4.002-12.304-0.247-15.833-5.16c-1.683-2.343-2.002-5.227-4.159-7.328c-2.076-2.022-4.865-2.624-7.536-3.46
				c-7.532-2.355-12.533-7.987-13.737-15.842c-0.485-3.166-5.278-1.725-4.796,1.418c1.051,6.861,5.032,12.929,10.951,16.597
				c3.244,2.011,7.214,2.222,10.383,4.177c3.47,2.141,3.557,6.854,6.641,9.506c2.06,1.772,4.7,2.259,7.322,2.499
				c1.702,0.155,3.789-0.119,5.414,0.45c2.967,1.038,3.135,3.771,3.952,6.427c2.088,6.792,8.469,10.943,15.424,10.831
				C679.206,904.961,679.118,899.961,675.896,900.013L675.896,900.013z"/>
		</g>
	</g>
	<g id="PHIL_x5F_004_x5F_010_x5F_FRAG_x5F_001">
		<g>
			<path fill="#1A1AA8" d="M581.713,803.846c-6.309-5.929-13.493-10.773-21.491-14.13c-3.82-1.603-7.739-2.739-11.731-3.818
				c-4.085-1.105-9.003-2.234-11.328-6.155c-1.24-2.092-1.865-5.024-0.007-7.008c1.824-1.948,5.315-1.802,7.74-2.128
				c2.935-0.394,5.781-1.185,8-3.279c1.634-1.541,2.874-3.632,2.731-5.957c-0.238-3.879-3.758-4.693-5.506-7.589
				c-3.202-5.306,3.009-10.433,6.96-12.627c3.293-1.828,6.891-3.082,10.057-5.147c5.359-3.496,9.732-9.227,8.047-15.954
				c-4.008-16.005-25.009-13.125-35.658-21.019c-2.583-1.915-4.996,2.472-2.444,4.363c6.516,4.83,14.413,5.312,21.862,7.86
				c3.874,1.325,7.826,3.621,10.098,7.131c3.411,5.271,0.092,10.297-4.507,13.347c-6.002,3.981-13.94,5.453-17.949,12
				c-3.397,5.546-2.39,10.499,1.54,15.187c5.496,6.556-4.663,6.57-8.407,7.352c-2.695,0.562-5.222,1.654-6.924,3.91
				c-3.098,4.109-1.833,9.941,1.202,13.699c4.712,5.836,12.997,6.472,19.658,8.67c9.233,3.047,17.525,8.251,24.589,14.89
				C580.59,809.651,584.063,806.055,581.713,803.846L581.713,803.846z"/>
		</g>
	</g>
	<g id="PHIL_x5F_004_x5F_010_x5F_FRAG_x5F_002">
		<g>
			<path fill="#1A1AA8" d="M511.946,650.075c-3.464-1.814-3.56-6.239-1.943-9.411c1.928-3.782,5.976-6.25,9.203-8.792
				c4.487-3.536,8.973-8.038,9.284-14.093c0.516-10.051-10.053-14.623-16.916-19.567c-5.595-4.03-9.601-9.718-4.657-16.292
				c4.955-6.589,13.578-7.936,20.704-11.076c9.691-4.271,20.415-17.654,9.493-26.842c-2.753-2.316-6.317-3.438-9.661-4.595
				c-4.866-1.683-9.738-3.347-14.608-5.021c-10.043-3.452-20.085-6.904-30.128-10.356c-3.048-1.048-4.264,3.806-1.24,4.845
				c8.521,2.929,17.042,5.858,25.563,8.787c4.261,1.464,8.521,2.929,12.782,4.393c3.972,1.365,8.536,2.373,12.182,4.516
				c10.524,6.186,0.714,16.663-6.701,19.848c-6.411,2.754-13.417,4.225-18.875,8.823c-8.807,7.42-8.679,18.234,0.101,25.381
				c7.947,6.468,24.839,13.058,12.436,24.942c-4.903,4.697-11.991,7.942-14.255,14.842c-1.725,5.255-0.324,11.351,4.794,14.032
				C512.354,655.931,514.8,651.57,511.946,650.075L511.946,650.075z"/>
		</g>
	</g>
	<g id="PHIL_x5F_004_x5F_010_x5F_FRAG_x5F_003">
		<g>
			<path fill="#1A1AA8" d="M505.645,469.116c-0.783-4.209,0.844-8.551,4.096-11.334c3.14-2.687,6.558-2.217,10.191-3.382
				c1.977-0.633,3.669-1.749,4.497-3.705c1.326-3.129-0.769-5.766-1.486-8.717c-2.406-9.894,6.557-17.81,12.149-24.642
				c4.97-6.07,8.987-13.028,7.972-21.132c-0.396-3.16-5.4-3.102-4.999,0.092c2.319,18.5-24.174,26.924-20.076,46.31
				c0.418,1.978,2.143,4.185,1.125,5.968c-0.996,1.746-2.958,1.404-4.801,1.749c-2.879,0.54-5.442,1.679-7.682,3.586
				c-4.905,4.177-6.95,10.357-5.784,16.623C501.436,473.69,506.229,472.258,505.645,469.116L505.645,469.116z"/>
		</g>
	</g>
	<g id="PHIL_x5F_004_x5F_011_x5F_FRAG_x5F_001">
		<g>
			<path fill="#7F9CC6" d="M565.632,300.333c-2.502-3.043-1.502-7.62,0.974-10.366c2.539-2.817,6.418-3.685,10.09-3.545
				c8.14,0.311,14.992,5.409,22.142,8.682c10.578,4.843,24.796,5.805,30.542-6.497c5.406-11.572-0.772-23.457-8.27-32.374
				c-4.699-5.589-11.149-11.006-12.493-18.549c-1.474-8.275,4.472-15.448,9.42-21.37c2.055-2.459-1.532-5.944-3.6-3.47
				c-4.541,5.434-9.383,11.371-10.725,18.531c-1.204,6.422,1.002,12.441,4.733,17.631c4.772,6.637,11.164,11.928,15.026,19.244
				c3.722,7.051,4.835,17.439-2.293,22.891c-8.001,6.119-18.553,0.375-26.096-3.544c-6.482-3.367-13.333-6.676-20.85-6.117
				c-10.873,0.808-20.002,12.807-12.071,22.453C564.204,306.417,567.655,302.794,565.632,300.333L565.632,300.333z"/>
		</g>
	</g>
	<g id="PHIL_x5F_004_x5F_011_x5F_FRAG_x5F_002">
		<g>
			<path fill="#7F9CC6" d="M671.52,166.59c6.671-3.505,14.249,6.445,18.936,10.012c4.911,3.737,10.412,6.601,16.257,8.573
				c9.19,3.1,25.799,6.477,32.213-3.363c2.789-4.279,2.786-9.766,1.884-14.61c-0.717-3.852-2.17-7.54-2.821-11.406
				c-0.232-1.376-1.012-5.307,0.002-6.615c0.755-0.336,1.51-0.672,2.265-1.008c1.224-1.341,2.299-1.431,3.224-0.269
				c1.223,0.656,2.091,2.078,2.826,3.204c2.601,3.987,4.722,8.773,9.88,9.88c4.616,0.99,9.263-1.787,11.835-5.483
				c4.078-5.862,2.712-13.186,1.429-19.718c-0.908-4.619-2.114-9.891-0.061-14.381c1.672-3.657,6.716-6.488,10.063-3.06
				c1.4,1.434,3.584,0.521,4.157-1.18c1.674-4.96,5.29-8.394,10.26-9.964c3.061-0.967,1.662-5.769-1.418-4.796
				c-6.713,2.12-11.444,6.87-13.688,13.52c1.386-0.393,2.772-0.787,4.157-1.18c-3.284-3.363-8.077-3.687-12.212-1.651
				c-4.943,2.433-7.076,7.511-7.376,12.797c-0.45,7.938,4.354,16.365,1.899,24.13c-1.532,4.844-6.909,8.171-11.037,4.126
				c-2.241-2.197-3.223-5.55-5.245-7.946c-3.197-3.787-8.81-6.514-13.125-2.767c-4.554,3.955-3.275,11.362-2.03,16.464
				c1.648,6.756,6.214,18.975-3.212,22.331c-7.108,2.53-16.554,0.269-23.403-2.161c-8.547-3.032-14.591-8.593-21.539-14.107
				c-4.968-3.943-10.642-6.836-16.722-3.641C666.069,163.816,668.676,168.084,671.52,166.59L671.52,166.59z"/>
		</g>
	</g>
	<g id="PHIL_x5F_004_x5F_011_x5F_FRAG_x5F_003">
		<g>
			<path fill="#7F9CC6" d="M830.436,100.63c12.996,5.565,25.588-4.27,30.816-15.879c3.297-7.322,4.665-15.244,7.259-22.801
				c1.443-4.204,4.34-10.952,9.989-7.336c4.546,2.91,4.53,9.168,4.671,13.936c0.067,2.27,2.723,3.11,4.3,1.689
				c3.989-3.596,10.094-2.019,13.828,1.175c3.897,3.333,6.101,8.308,8.34,12.803c3.694,7.415,7.971,14.398,16.141,17.284
				c3.038,1.073,4.252-3.781,1.24-4.845c-11.719-4.14-13.177-19.572-21.103-27.734c-5.817-5.991-15.498-8.056-22.047-2.153
				c1.433,0.563,2.866,1.126,4.3,1.689c-0.21-7.119-1.152-15.432-8.432-18.857c-6.722-3.163-12.254,1.633-14.792,7.618
				c-3.544,8.359-4.562,17.575-8.408,25.835c-3.941,8.465-13.63,17.507-23.658,13.213C829.945,95.01,827.479,99.364,830.436,100.63
				L830.436,100.63z"/>
		</g>
	</g>
</g>
</svg>
