<?xml version="1.0" encoding="UTF-8"?>
<svg xmlns="http://www.w3.org/2000/svg" viewBox="0 0 1920 1080">
  <g id="AXE">
    <circle cx="958.134" cy="537.133" r="18.112" fill="#ff1a1a" />
    <line x1="958.5" y1="36.5" x2="958.5" y2="523.5" fill="none" stroke="#ff1a1a" stroke-linecap="square"
      stroke-linejoin="round" stroke-width=".5" />
  </g>
  <g id="FRAGMENTS">
    <path
      d="M975.667,41.34c5.376,.914,8.719,5.974,7.222,11.253-.814,2.871,3.087,4.084,4.604,1.842,2.618-3.869,7.553-.537,9.2,2.246,1.499,2.533,2.033,5.616,2.603,8.464,.631,3.15,5.425,1.723,4.796-1.418-1.15-5.744-2.911-12.351-8.782-14.949-4.523-2.002-9.407-.886-12.18,3.213l4.604,1.842c2.2-7.761-2.816-15.977-10.827-17.338-3.155-.536-4.414,4.306-1.24,4.845h0Z"
      fill="#2c2cff" id="PHIL_006_006_FRAG_001" />
    <g id="PHIL_006_006_FRAG_002">
      <path
        d="M1024.14,75.942c9.408-3.036,10.087,10.338,9.956,16.143-.047,2.109,2.896,3.323,4.3,1.689,2.856-3.325,6.767,.171,7.705,3.27,.808,2.669,.568,5.617,.417,8.358-.3,5.458-.993,10.957,.159,16.369,1.66,7.801,8.313,15.119,16.826,14.02,3.156-.408,3.1-5.411-.092-4.999-8.127,1.05-11.952-7.233-12.344-14.078-.362-6.329,1.281-12.723,.259-19.017-1.198-7.376-10.274-14.674-16.53-7.392l4.3,1.689c.132-5.86,.095-12.477-4.033-17.129-3.175-3.578-7.736-5.203-12.34-3.718-3.054,.985-1.656,5.788,1.418,4.796h0Z"
        fill="#2c2cff" />
    </g>
    <g id="PHIL_006_006_FRAG_003">
      <path
        d="M1084.071,99.669c5.593-1.298,11.229-1.5,16.896-.568,3.156,.519,4.416-4.322,1.24-4.845-6.582-1.083-13.054-.892-19.554,.617-3.133,.727-1.713,5.523,1.418,4.796h0Z"
        fill="#2c2cff" />
    </g>
    <g id="PHIL_006_006_FRAG_004">
      <path
        d="M1115.264,115.202c-.197,10.574-.303,22.41,6.146,31.403,5.14,7.167,13.494,11.472,22.296,9.551,3.141-.685,1.718-5.48-1.418-4.796-8.457,1.845-16.075-4.568-19.223-11.987-3.219-7.587-2.952-16.191-2.802-24.263,.06-3.22-4.939-3.123-4.999,.092h0Z"
        fill="#2c2cff" />
    </g>
    <g id="PHIL_006_006_FRAG_005">
      <path
        d="M1165.366,146.982c4.587-1.902,20.615-17.165,23.316-6.608,.87,3.402-1.196,7.534-1.697,10.883-.463,3.089-.219,5.835,1.227,8.625,1.481,2.857,5.748,.248,4.27-2.603-3.856-7.439,6.47-17.686-2.741-23.83-9.683-6.459-17.882,5.457-25.793,8.737-2.939,1.218-1.561,6.031,1.418,4.796h0Z"
        fill="#2c2cff" />
    </g>
    <g id="PHIL_006_006_FRAG_006">
      <path
        d="M1210.8,171.726c1.724-2.913,8.133,1.027,10.502,1.155,2.644,.142,4.917-.87,6.84-2.634,2.247-2.063,3.517-4.98,5.804-6.992,3.506-3.084,8.478-2.65,11.762,.533,2.314,2.242,5.784-1.357,3.47-3.6-6.261-6.068-15.46-4.906-20.716,1.721-1.311,1.652-2.377,3.79-4.143,4.999-3.199,2.191-6.249-.487-9.453-1.042-3.427-.594-6.622,.365-8.428,3.417-1.643,2.777,2.726,5.211,4.363,2.444h0Z"
        fill="#2c2cff" />
    </g>
    <g id="PHIL_006_006_FRAG_007">
      <path
        d="M1249.858,183.764c-2.92,3.319-6.087,7.369-5.486,12.077,.479,3.751,3.48,6.498,7.034,7.432,4.856,1.277,9.321-.896,13.621-2.901,6.628-3.09,13.292-5.207,20.582-6.04,3.169-.362,3.108-5.365-.092-4.999-6.918,.79-13.595,2.44-19.966,5.292-3.45,1.544-7.118,4.152-11.022,4.054-2.822-.071-5.436-1.828-5.133-4.999,.227-2.381,2.594-4.778,4.062-6.447,2.122-2.412-1.469-5.892-3.6-3.47h0Z"
        fill="#2c2cff" />
    </g>
    <g id="PHIL_006_006_FRAG_008">
      <path
        d="M1289.65,211.735c4.176,3.961,8.352,7.923,12.527,11.884,2.337,2.217,5.809-1.381,3.47-3.6-4.176-3.961-8.352-7.923-12.527-11.884-2.337-2.217-5.809,1.381-3.47,3.6h0Z"
        fill="#2c2cff" />
    </g>
    <g id="PHIL_006_006_FRAG_009">
      <path
        d="M1330.07,229.411l3.565,3.692c-.336,1.23-.989,2.215-1.958,2.955-.926,.899-1.924,1.422-3.077,1.991-1.921,.949-1.344,4.146,.681,4.558,8.961,1.823,3.281,12.89,.044,17.127-3.653,4.782-7.946,9.665-8.289,15.992-.684,12.621,12.963,15.894,22.876,16.019,3.22,.041,3.124-4.959-.092-4.999-7.222-.091-19.095-1.681-17.698-11.766,.906-6.545,7.084-11.268,10.281-16.719,4.093-6.977,3.74-18.542-5.882-20.5l.681,4.558c4.311-2.129,8.37-6.338,7.372-11.565-.888-4.649-5.472-7.443-9.922-6.14-3.084,.903-1.68,5.703,1.418,4.796h0Z"
        fill="#2c2cff" />
    </g>
    <g id="PHIL_006_007_FRAG_001">
      <path
        d="M1377.334,313.103c1.27,5.605,2.54,11.21,3.81,16.816,.711,3.136,5.506,1.715,4.796-1.418-1.27-5.605-2.54-11.21-3.81-16.816-.711-3.136-5.506-1.715-4.796,1.418h0Z"
        fill="#8080dd" />
    </g>
    <g id="PHIL_006_007_FRAG_002">
      <path
        d="M1404.052,339.333c2.798,3.19,3.065,7.371,.988,10.981-1.059,1.841-2.499,3.224-2.739,5.447-.303,2.803,1.332,4.731,2.04,7.283,1.055,3.803-.884,7.148-4.332,8.806-1.483,.713-1.493,2.904-.434,3.935,5.863,5.704-1.432,13.671-4.192,18.978-2.252,4.33-3.333,8.948-1.674,13.66,1.063,3.021,5.869,1.63,4.796-1.418-2.791-7.93,5.127-14.121,7.379-21.117,1.574-4.889,.912-10.053-2.84-13.703l-.434,3.935c3.149-1.514,5.495-4.133,6.513-7.505,.497-1.647,.676-3.375,.432-5.084-.298-2.087-1.78-3.838-2.078-5.84-.393-2.639,1.916-4.57,2.862-6.773,.628-1.461,1.019-3.012,1.101-4.606,.208-4.049-1.285-7.576-3.919-10.581-2.124-2.422-5.58,1.194-3.47,3.6h0Z"
        fill="#8080dd" />
    </g>
    <g id="PHIL_006_007_FRAG_003">
      <path
        d="M1397.983,422.491c-5.138,16.518-9.846,36.316,3.634,50.274,2.24,2.32,5.704-1.287,3.47-3.6-12.064-12.491-6.787-30.877-2.259-45.433,.958-3.08-3.892-4.303-4.845-1.24h0Z"
        fill="#8080dd" />
    </g>
    <g id="PHIL_006_007_FRAG_004">
      <path
        d="M1411.599,487.325c10.064,.031,6.195,12.71,15.208,14.272,4.337,.752,8.563-.506,11.93,3.195,4.445,4.887,1.291,11.522-3.907,14.046-6.813,3.308-15.722,3.329-19.64,10.945-2.744,5.335-.01,12.492,6.255,13.282,3.155,.398,4.426-4.444,1.24-4.845-4.885-.616-3.794-6.02-1.051-8.558,1.916-1.772,4.426-2.64,6.878-3.41,3.801-1.193,7.784-2.103,11.13-4.376,5.585-3.796,7.814-11.225,4.837-17.366-1.479-3.051-4.132-5.436-7.27-6.701-3.451-1.392-8.441,.106-10.994-2.371-2.592-2.515-2.391-6.901-5.356-9.661-2.582-2.403-5.884-3.442-9.351-3.452-3.219-.01-3.127,4.989,.092,4.999h0Z"
        fill="#8080dd" />
    </g>
    <g id="PHIL_006_007_FRAG_005">
      <path
        d="M1432.402,560.96c1.668,2.557,1.541,5.688-1.053,7.689-1.559,1.202-1.552,3.178,.079,4.317,1.862,1.3,3.82,2.12,5.906,2.966,1.114,.452,2.323,.854,3.345,1.505,2.313,1.472,3.367,2.478,2.083,5.186-2.725,5.745-11.46,2.327-16.618,2.786-6.832,.608-12.548,6.426-9.344,13.31,1.355,2.911,5.617,.291,4.27-2.603-2.289-4.918,5.458-5.87,8.399-5.745s5.856,.727,8.817,.453c3.895-.36,7.935-2.145,9.717-5.866,4.711-9.835-8.669-12.542-14.132-16.356l.079,4.317c4.646-3.584,6.009-9.519,2.72-14.561-1.754-2.689-6.035-.103-4.27,2.603h0Z"
        fill="#8080dd" />
    </g>
    <g id="PHIL_006_007_FRAG_006">
      <path
        d="M1422.098,618.06c2.884,2.346-1.589,3.976-2.939,4.265-1.299,.278-2.649,.074-3.958-.01-2.486-.161-5.013-.511-7.471,.126-3.67,.951-6.332,3.757-7.405,7.355-2.774,9.297,4.553,16.266,11.237,21.398,2.527,1.94,6.023-1.64,3.47-3.6-4.181-3.21-9.724-7.135-10.261-12.844-.355-3.775,1.427-6.998,5.377-7.662,2.842-.478,5.864,.506,8.741,.313,6.107-.411,13.097-7.719,6.678-12.941-2.482-2.019-5.97,1.566-3.47,3.6h0Z"
        fill="#8080dd" />
    </g>
    <g id="PHIL_006_007_FRAG_007">
      <path
        d="M1407.618,678.193c-2.6,5.569-8.969,6.026-14.278,7.27-4.387,1.028-8.348,2.738-11.288,6.262-5.026,6.022-5.602,14.745-1.583,21.405,1.662,2.754,5.937,.16,4.27-2.603-5.137-8.513,.272-17.845,9.262-20.084,6.913-1.722,14.61-2.588,17.98-9.806,1.356-2.905-3-5.362-4.363-2.444h0Z"
        fill="#8080dd" />
    </g>
    <g id="PHIL_006_008_FRAG_001">
      <path
        d="M1387.458,733.393c-3.557,4.995-6.967,10.091-10.525,15.086-1.868,2.623,2.515,5.039,4.363,2.444,3.557-4.995,6.967-10.091,10.525-15.086,1.868-2.623-2.515-5.039-4.363-2.444h0Z"
        fill="#48bfed" />
    </g>
    <g id="PHIL_006_008_FRAG_002">
      <path
        d="M1365.974,767.938c3.751,10.397-1.83,20.882-12.57,23.465-1.484,.357-2.353,2.426-1.426,3.699,7.516,10.328-8.717,16.552-15.726,19.073-6.755,2.429-13.32,5.588-16.677,12.287-1.441,2.874,2.919,5.325,4.363,2.444,5.183-10.34,19.008-9.896,27.53-16.159,6.211-4.564,9.678-13.517,4.781-20.247l-1.426,3.699c13.307-3.201,20.593-16.804,15.948-29.679-1.086-3.01-5.892-1.621-4.796,1.418h0Z"
        fill="#48bfed" />
    </g>
    <g id="PHIL_006_008_FRAG_003">
      <path
        d="M1307.403,848.213c.565,7.521-.531,14.693-3.266,21.714-1.167,2.996,3.691,4.202,4.845,1.24,2.889-7.415,4.016-15.115,3.42-23.046-.24-3.195-5.241-3.124-4.999,.092h0Z"
        fill="#48bfed" />
    </g>
    <g id="PHIL_006_008_FRAG_004">
      <path
        d="M1285.858,883.617c-18.764,.234-35.53,12.381-41.911,29.954-1.099,3.027,3.756,4.239,4.845,1.24,5.621-15.48,20.76-25.991,37.158-26.196,3.218-.04,3.129-5.039-.092-4.999h0Z"
        fill="#48bfed" />
    </g>
    <g id="PHIL_006_008_FRAG_005">
      <path
        d="M1223.773,920.824c.144,9.217-5.639,18.218-14.5,21.294-7.673,2.664-16.445,.576-21.391,8.467-1.714,2.734,2.659,5.163,4.363,2.444,3.4-5.426,10.972-4.211,16.429-5.537,3.81-.926,7.363-2.828,10.35-5.355,6.315-5.341,9.877-13.152,9.748-21.406-.05-3.217-5.05-3.13-4.999,.092h0Z"
        fill="#48bfed" />
    </g>
    <g id="PHIL_006_008_FRAG_006">
      <path
        d="M1163.895,956.243c-6.984,9.678-19.849,13.115-30.878,8.984-3.014-1.129-4.223,3.728-1.24,4.845,13.288,4.977,28.268-.003,36.481-11.385,1.884-2.61-2.5-5.025-4.363-2.444h0Z"
        fill="#48bfed" />
    </g>
    <g id="PHIL_006_008_FRAG_007">
      <path
        d="M1115.806,964.151c-9.259,.253-17.987,2.813-25.911,7.607-2.752,1.665-.159,5.941,2.603,4.27,7.203-4.358,14.988-6.648,23.4-6.878,3.215-.088,3.131-5.087-.092-4.999h0Z"
        fill="#48bfed" />
    </g>
    <g id="PHIL_006_008_FRAG_008">
      <path
        d="M1076.876,988.177c-3.101,6.475-7.955,16.575-16.794,15.095-6.369-1.066-9.126-9.285-14.743-12.177-11.592-5.968-23.765,1.571-33.042,8.238-2.596,1.865-.019,6.154,2.603,4.27,6.462-4.644,13.643-9.966,22.02-9.588,8.777,.396,10.799,7.706,17.039,12.068,12.228,8.548,22.688-5.876,27.28-15.463,1.386-2.894-2.971-5.349-4.363-2.444h0Z"
        fill="#48bfed" />
    </g>
    <g id="PHIL_006_009_FRAG_001">
      <path
        d="M982.199,1002.959c-7.119-2.887-14.863-3.11-21.935,.144-8.227,3.785-13.241,15.028-22.83,15.308-3.214,.094-3.131,5.093,.092,4.999,7.336-.214,12.087-4.933,17.001-9.841,6.89-6.883,15.803-10.069,25.229-6.247,2.949,1.196,5.42-3.156,2.444-4.363h0Z"
        fill="#a9ccff" />
    </g>
    <g id="PHIL_006_009_FRAG_002">
      <path
        d="M916.787,1021.303c-9.881,1.25-9.774-11.322-10.016-17.925-.193-5.266-1.021-10.305-4.158-14.671-5.456-7.594-15.072-11.074-24.103-8.967-3.132,.731-1.713,5.527,1.418,4.796,5.754-1.343,11.766,.335,16.142,4.307,5.091,4.62,5.571,10.668,5.766,17.148,.27,8.988,3.352,21.79,15.043,20.311,3.159-.4,3.101-5.403-.092-4.999h0Z"
        fill="#a9ccff" />
    </g>
    <g id="PHIL_006_009_FRAG_003">
      <path
        d="M856.643,1014.716c-6.937,2.662-15.244-1.092-16.752-8.694-1.446-7.289,1.907-14.728-1.272-21.831-6.288-14.051-24.577-10.537-36.655-12.848-3.151-.603-4.404,4.24-1.24,4.845,8.116,1.553,16.868,.189,24.715,2.982,4.552,1.62,8.441,4.688,9.434,9.643,.822,4.104-.122,8.426-.228,12.553-.16,6.278,1.648,12.013,6.876,15.827,4.8,3.501,10.986,4.451,16.54,2.32,2.981-1.144,1.597-5.953-1.418-4.796h0Z"
        fill="#a9ccff" />
    </g>
    <g id="PHIL_006_009_FRAG_004">
      <path
        d="M773.646,962.697c-3.522,1.011-8.671,2.637-12.066,.404-4.817-3.168-1.953-10.044-.941-14.392,1.228-5.276,1.681-11.766-3.062-15.491-4.77-3.747-11.47-1.983-15.792,1.574-6.008,4.944-10.4,18.628-20.12,15.741-3.092-.918-4.319,3.931-1.24,4.845,7.28,2.162,13.368-2.562,17.562-8.112,2.774-3.671,5.171-8.235,9.54-10.214,2.71-1.227,5.531-1.397,7.543,1.016,1.902,2.282,1.555,5.257,1.03,8.031-1.189,6.287-4.435,13.84,.62,19.38,4.717,5.17,12.394,3.723,18.344,2.015,3.09-.887,1.684-5.686-1.418-4.796h0Z"
        fill="#a9ccff" />
    </g>
    <g id="PHIL_006_009_FRAG_005">
      <path
        d="M702.521,941.097c-8.654-11.197,14.822-27.964,.307-38.496-4.971-3.607-11.58-1.831-16.322,1.235-4.956,3.205-15.709,15.19-21.067,6.436-1.679-2.743-5.955-.151-4.27,2.603,2.803,4.581,8.221,6.02,13.295,4.766,7.42-1.833,11.548-9.35,18.715-11.518,6.362-1.924,10.138,2.856,9.084,8.921-.722,4.156-3.16,7.822-4.761,11.665-2.309,5.542-3.147,11.949,.749,16.99,1.946,2.517,6.241-.053,4.27-2.603h0Z"
        fill="#a9ccff" />
    </g>
    <g id="PHIL_006_009_FRAG_006">
      <path
        d="M668.146,884.735c-2.89-9.478-11.05-16.641-20.923-17.953-3.156-.419-4.424,4.422-1.24,4.845,8.192,1.089,14.941,6.57,17.367,14.526,.937,3.073,5.738,1.671,4.796-1.418h0Z"
        fill="#a9ccff" />
    </g>
    <g id="PHIL_006_009_FRAG_007">
      <path
        d="M626.691,857.855c-4.745,.131-9.44-3.086-10.392-7.944-.848-4.325,1.977-7.974,3.014-11.983,1.217-4.703,.392-10.392-4.56-12.521-2.722-1.17-5.611-.682-8.468-.64-5.303,.078-4.63-3.898-6.357-7.71-2.952-6.517-10.583-7.049-16.821-6.794-3.211,.131-3.13,5.131,.092,4.999,5.981-.244,11.28,.009,12.861,6.703,.597,2.527,1.1,4.794,3.393,6.385,4.973,3.451,17.213-2.193,15.157,7.73-1.387,6.695-5.419,11.497-1.939,18.353,2.709,5.339,8.155,8.586,14.111,8.422,3.215-.089,3.131-5.088-.092-4.999h0Z"
        fill="#a9ccff" />
    </g>
    <g id="PHIL_006_010_FRAG_001">
      <path
        d="M582.039,770.094c-.843-10.138-10.343-14.545-19.497-14.904-6.913-.271-14.16,1.604-20.914-.542-6.253-1.988-10.534-7.252-12.066-13.492-.767-3.124-5.564-1.707-4.796,1.418,2.291,9.325,9.736,16.266,19.263,17.701,9.23,1.39,31.783-4.856,33.011,9.912,.265,3.191,5.266,3.122,4.999-.092h0Z"
        fill="#1a1aa8" />
    </g>
    <g id="PHIL_006_010_FRAG_002">
      <path
        d="M525.519,712.011c.837-5.057,3.308-8.976,7.666-11.726,1.506-.95,1.662-3.478-.079-4.317-7.799-3.756,5.055-15.668,6.777-20.396,2.418-6.638,1.422-13.841-2.225-19.808-1.677-2.744-5.953-.152-4.27,2.603,2.684,4.392,3.612,9.561,2.12,14.551-1.418,4.743-5.151,7.814-7.661,11.905-3.101,5.053-3.193,12.615,2.816,15.509l-.079-4.317c-5.386,3.399-8.865,8.445-9.909,14.756-.522,3.156,4.32,4.416,4.845,1.24h0Z"
        fill="#1a1aa8" />
    </g>
    <g id="PHIL_006_010_FRAG_003">
      <path
        d="M511.348,653.333c-11.552-8.088,3.811-24.236,7.007-32.79,2.842-7.605,1.549-17.409-6.629-21.028-2.924-1.294-5.387,3.061-2.444,4.363,13.759,6.09-.932,23.405-4.511,31.31-3.549,7.84-3.453,17.198,4.132,22.508,2.639,1.848,5.057-2.534,2.444-4.363h0Z"
        fill="#1a1aa8" />
    </g>
    <g id="PHIL_006_010_FRAG_004">
      <path
        d="M500.339,580.723c-6.411-2.342-14.537-5.34-16.365-12.796-1.854-7.563,6.315-11.174,11.416-14.525,6.754-4.437,12.912-13.306,6.008-20.524-2.229-2.33-5.692,1.277-3.47,3.6,6.411,6.703-6.092,13.029-10.377,15.907-4.035,2.709-7.77,6.233-8.664,11.22-2.202,12.284,10.898,18.56,20.211,21.963,3.024,1.105,4.236-3.751,1.24-4.845h0Z"
        fill="#1a1aa8" />
    </g>
    <g id="PHIL_006_010_FRAG_005">
      <path
        d="M508.086,514.472c-2.722-1.6-3.352-5.86-.687-7.913,1.61-1.241,1.581-4.011-.681-4.558-4.238-1.024-7.581-4.29-7.463-8.92,.125-4.907,4.061-7.165,6.923-10.42,3.099-3.524,4.438-7.804,2.188-12.105-1.492-2.851-5.759-.243-4.27,2.603,2.463,4.707-5.099,8.979-7.321,12.203-1.759,2.552-2.605,5.507-2.478,8.608,.266,6.512,5.043,11.394,11.181,12.877l-.681-4.558c-5.589,4.306-5.383,12.886,.846,16.546,2.782,1.635,5.216-2.734,2.444-4.363h0Z"
        fill="#1a1aa8" />
    </g>
    <g id="PHIL_006_010_FRAG_006">
      <path
        d="M503.701,453.107c-6.757-7.13-14.618-12.942-23.418-17.31-2.879-1.429-5.33,2.93-2.444,4.363,8.445,4.192,15.905,9.703,22.392,16.547,2.218,2.341,5.681-1.267,3.47-3.6h0Z"
        fill="#1a1aa8" />
    </g>
    <g id="PHIL_006_010_FRAG_007">
      <path
        d="M503.749,418.666c-.011-4.873-1.989-8.8-4.432-12.914-1.399-2.357-2.995-4.759-3.587-7.472-.834-3.818,1.795-10.034,6.26-6.715,2.291,1.703,5.025-2.099,2.957-3.982-4.85-4.416-12.772-14.428-2.199-17.652,5.518-1.682,11.397-.267,16.685-3.088,8.964-4.782,11.376-15.631,6.687-24.279-1.534-2.83-5.803-.225-4.27,2.603,3.766,6.947,.872,15.724-6.923,18.158-5.656,1.766-11.903,.097-17.207,3.324-10.79,6.565-2.84,18.529,3.757,24.535l2.957-3.982c-5.432-4.037-12.432,.077-13.698,6.163-2.028,9.752,7.994,16.135,8.014,25.393,.007,3.219,5.006,3.128,4.999-.092h0Z"
        fill="#1a1aa8" />
    </g>
    <g id="PHIL_006_011_FRAG_001">
      <path
        d="M552.539,313.201c2.692-3.559,5.212-7.243,7.904-10.802,1.92-2.538-1.659-6.035-3.6-3.47-2.692,3.559-5.212,7.243-7.904,10.802-1.92,2.538,1.659,6.035,3.6,3.47h0Z"
        fill="#7f9cc6" />
    </g>
    <g id="PHIL_006_011_FRAG_002">
      <path
        d="M570.774,281.854c2.627-8.257,.826-17.031-4.955-23.511-3.259-3.653-12.08-10.167-7.072-15.715,4.73-5.239,12.797-1.213,17.765,1.287,2.164,1.089,4.738-1.284,3.357-3.483-4.352-6.928,7.826-6.259,11.154-5.528,3.495,.767,6.919,1.706,10.532,1.249,5.773-.73,10.519-4.522,13.039-9.668,1.413-2.885-2.946-5.338-4.363-2.444-2.894,5.911-8.329,8.007-14.613,6.793-4.066-.785-8.062-2.168-12.252-1.562-6.52,.944-11.685,7.525-7.767,13.762l3.357-3.483c-5.185-2.609-11.004-5.417-16.97-4.094-4.779,1.06-8.992,4.53-9.56,9.589-.671,5.97,3.642,10.485,7.487,14.396,5.908,6.01,8.664,12.85,6.017,21.17-.978,3.073,3.873,4.295,4.845,1.24h0Z"
        fill="#7f9cc6" />
    </g>
    <g id="PHIL_006_011_FRAG_003">
      <path
        d="M632.204,202.37c-.753-5.901-3.48-10.734-5.667-16.165-1.13-2.806-2.187-5.928-1.963-8.996,.281-3.854,3.776-8.937,8.339-7.048,1.808,.749,4.454-.622,3.62-2.89-1.545-4.201-2.669-12.145,4.572-10.182,3.783,1.025,6.723,4.453,9.893,6.618,6.103,4.17,13.056,6.344,20.366,7.074,3.195,.319,3.076-4.683-.092-4.999-6.891-.689-13.316-3.127-18.895-7.236-3.723-2.742-7.212-6.205-12.058-6.656-10.43-.972-11.331,9.324-8.582,16.798l3.62-2.89c-6.301-2.609-13.179,1.123-15.165,7.627-3.187,10.441,5.755,19.188,7.012,29.037,.403,3.158,5.407,3.101,4.999-.092h0Z"
        fill="#7f9cc6" />
    </g>
    <g id="PHIL_006_011_FRAG_004">
      <path
        d="M680.294,138.278c-.484-3.413-.382-7.611,2.547-9.978,4.248-3.432,9.556,.527,12.871,3.284,4.515,3.754,8.817,7.529,14.987,7.775,12.853,.512,21.042-10.531,27.387-20.096,1.783-2.688-2.594-5.111-4.363-2.444-4.45,6.709-9.453,14.379-17.614,16.825-9.338,2.799-13.808-4.084-20.695-8.593-4.617-3.023-10.761-4.534-15.49-.894-4.27,3.287-5.346,9.159-4.63,14.212,.446,3.145,5.45,3.092,4.999-.092h0Z"
        fill="#7f9cc6" />
    </g>
    <g id="PHIL_006_011_FRAG_005">
      <path
        d="M769.16,104.923c-1.132-5.332,6.012-4.064,8.026-2.482,1.684,1.322,2.814,3.173,3.861,5s4.11,1.417,4.558-.681c1.622-7.608,10.678-8.112,13.773-1.32,1.054,2.313,4.744,.991,4.635-1.347-.486-10.386,11.345-3.84,16.849-4.646,5.135-.752,8.796-4.374,10.437-9.152,1.047-3.048-3.807-4.264-4.845-1.24-3.498,10.187-12.984,2.041-19.883,4.049-4.865,1.416-7.787,6.168-7.557,11.08l4.635-1.347c-4.99-10.951-20.42-8.894-22.888,2.682l4.558-.681c-2.7-4.711-7.199-9.682-13.18-8.944-5.26,.649-8.875,5.259-7.773,10.447,.668,3.144,5.462,1.72,4.796-1.418h0Z"
        fill="#7f9cc6" />
    </g>
    <g id="PHIL_006_011_FRAG_006">
      <path
        d="M857.867,78.813c-1.583-4.937,3.626-9.473,7.647-5.005,1.708,1.898,4.831-.215,4.133-2.509-1.35-4.436-3.1-9.545-1.594-14.162,1.556-4.77,6.446-7.76,10.734-3.96,4.595,4.071,6.049,10.191,11.37,13.708,2.691,1.779,5.114-2.598,2.444-4.363-7.151-4.728-9.97-19.952-21.554-15.577-10.832,4.091-8.835,17.104-6.196,25.772l4.133-2.509c-7.37-8.189-19.061,.202-15.913,10.023,.98,3.056,5.782,1.658,4.796-1.418h0Z"
        fill="#7f9cc6" />
    </g>
    <g id="PHIL_006_011_FRAG_007">
      <path
        d="M918.101,67.21c9.256-1.662,18.438-.146,26.781,4.135,2.862,1.469,5.311-2.892,2.444-4.363-9.61-4.931-20.016-6.476-30.643-4.568-3.159,.567-1.725,5.361,1.418,4.796h0Z"
        fill="#7f9cc6" />
    </g>
  </g>
</svg>