<?xml version="1.0" encoding="UTF-8"?><svg xmlns="http://www.w3.org/2000/svg" viewBox="0 0 1920 1080"><g id="AXE"><circle cx="958.134" cy="537.133" r="18.112" fill="#ff1a1a"/><line x1="958.5" y1="36.5" x2="958.5" y2="523.5" fill="none" stroke="#ff1a1a" stroke-linecap="square" stroke-linejoin="round" stroke-width=".5"/></g><g id="FRAGMENTS"><path d="M976.446,112.928c-2.703,11.308,8.956,18.898,19.112,16.122,13.462-3.679,19.786-19.145,26.154-30.081,4.352-7.473,8.703-14.945,13.055-22.418,2.075-3.563,3.971-7.375,6.408-10.709,2.042-2.793,8.384-8.637,10.276-2.432,1.006,3.299-.544,7.39-1.386,10.565-1.173,4.42-2.345,8.839-3.518,13.259-1.848,6.967-5.191,14.812-5.241,22.071-.039,5.651,3.879,9.727,9.599,9.694,5.84-.033,15.425-7.477,20.237-2.44,1.078,1.129,3.215,.829,3.916-.578,4.067-8.154,12.912-12.877,21.962-11.284,3.154,.555,4.411-4.287,1.24-4.845-11.205-1.973-22.45,3.428-27.565,13.685l3.916-.578c-4.514-4.726-10.892-3.024-16.294-.934-4.699,1.818-13.055,4.301-11.877-4.437,.65-4.825,2.449-9.679,3.696-14.379,2.189-8.249,5.494-16.891,6.39-25.405,.57-5.415-1.395-11.74-7.735-12.241-6.776-.535-11.411,6.633-14.37,11.647-5.07,8.593-10.042,17.245-15.063,25.867-4.827,8.29-9.129,17.978-15.708,25.056-3.438,3.7-8.238,6.846-13.499,6.602-5.436-.252-10.199-4.964-8.86-10.567,.748-3.132-4.096-4.373-4.845-1.24h0Z" fill="#2c2cff"/><g id="PHIL_004_006_FRAG_002"><path d="M1144.281,113.244c-2.566,10.054-5.131,20.107-7.697,30.161-1.283,5.027-2.566,10.054-3.849,15.08-1.221,4.785-3.11,9.801-3.566,14.722-.593,6.387,3.805,10.249,9.645,11.738,3.529,.9,7.328,.62,10.755,1.936,4.985,1.915,4.919,6.557,4.841,11.148-.097,5.731,.183,12.298,6.253,14.939,6.395,2.783,13.009-1.246,17-6.111,5.69-6.937,10.357-14.523,16.479-21.157,6.459-6.999,13.765-14.205,21.858-19.297,.792-.498,2.22-1.634,3.15-1.694,5.013-.32,3.904,3.518,3.298,5.809-.57,2.154-1.628,4.139-2.453,6.197-1.61,4.019-2.539,8.198-2.869,12.513-.704,9.23,1.784,18.399,6.755,26.164,1.732,2.705,6.012,.118,4.27-2.603-4.988-7.791-7.09-16.951-5.737-26.139,.999-6.784,6.415-13.594,5.525-20.57-.805-6.313-7.236-7.842-12.352-5.26-7.242,3.654-13.94,10.293-19.692,15.906-6.06,5.913-11.575,12.356-16.538,19.214-2.592,3.582-4.827,7.837-8.382,10.564-4.926,3.778-11.031,2.507-11.562-4.131-.454-5.677,1.184-12.031-2.902-16.783-4.606-5.358-11.97-3.764-17.95-5.949-6.976-2.549-3.549-9.852-2.184-15.203l4.089-16.023c2.886-11.31,5.773-22.621,8.659-33.931,.797-3.122-4.049-4.359-4.845-1.24h0Z" fill="#2c2cff"/></g><g id="PHIL_004_006_FRAG_003"><path d="M1314.891,206.449c16.687,5.491-20.292,46.019-26.189,51.78-1.072,1.048-.885,3.267,.578,3.916,10.07,4.472-.607,22.359-3.28,29.078-3.839,9.651-7.678,19.301-11.517,28.952-1.188,2.986,3.671,4.19,4.845,1.24,5.039-12.666,10.078-25.333,15.117-37.999,3.213-8.076,8.057-20.848-2.72-25.634l.578,3.916c8.592-8.395,49.489-51.652,23.83-60.095-3.063-1.008-4.282,3.844-1.24,4.845h0Z" fill="#2c2cff"/></g><g id="PHIL_004_007_FRAG_001"><path d="M1357.386,300.53c-2.918,4.551-2.165,9.949,.827,14.305,3.541,5.155,9.147,7.39,15.152,8.268,7.454,1.089,15.722,.227,22.189,4.778,7.972,5.609,3.656,13.529-2.423,18.432-5.321,4.291-11.287,7.687-16.579,12.047-6.017,4.958-11.724,10.548-16.416,16.792-7.206,9.592-10.153,22.959,1.275,30.615,5.652,3.787,12.479,4.924,19.037,6.111,7.34,1.329,16.667,3.43,19.679,11.188,1.155,2.975,5.964,1.592,4.796-1.418-4.267-10.991-16.145-13.284-26.522-15.182-5.941-1.087-12.943-2.578-17.095-7.345-6.362-7.306-.609-16.924,4.478-23.087,4.856-5.883,10.476-11.241,16.504-15.908,5.15-3.988,10.942-7.145,15.813-11.49,7.991-7.128,9.85-18.284,.186-24.963-5.671-3.92-12.452-4.419-19.108-4.957-4.772-.386-10.501-.775-14.364-3.991-3.488-2.903-5.72-7.617-3.068-11.753,1.742-2.716-2.633-5.142-4.363-2.444h0Z" fill="#8080dd"/></g><g id="PHIL_004_007_FRAG_002"><path d="M1430.241,486.795c-5.679,1.526-10.011,5.877-11.768,11.489-1.939,6.194-.071,11.577,3.821,16.484,2.491,3.14,6.82,7.155,4.219,11.453-1.412,2.333-4.289,3.737-6.465,5.212-4.217,2.859-8.29,6.419-7.674,12.011,.89,8.083,9.388,10.406,14.104,15.652,6.537,7.27-3.73,15.046-7.111,21.138-6.212,11.193-1.55,25.915,9.457,32.075,2.814,1.575,5.253-2.791,2.444-4.363-6.042-3.381-9.715-9.848-9.701-16.786,.014-6.992,4.363-11.457,8.144-16.829,3.083-4.38,5.272-9.507,3.007-14.774-2.511-5.838-8.826-7.758-12.892-12.141-6.366-6.864,1.586-10.555,6.505-14.203,3.684-2.732,6.59-6.318,5.93-11.181-.775-5.711-6.019-8.967-8.482-13.812-3.349-6.588,1.034-14.787,7.878-16.626,3.106-.835,1.695-5.633-1.418-4.796h0Z" fill="#8080dd"/></g><g id="PHIL_004_007_FRAG_003"><path d="M1412.879,661.942c-20.923,12.727-31.431,38.659-25.402,62.369,.793,3.117,5.59,1.703,4.796-1.418-5.479-21.548,4.234-45.14,23.209-56.681,2.748-1.671,.155-5.947-2.603-4.27h0Z" fill="#8080dd"/></g><g id="PHIL_004_008_FRAG_001"><path d="M1378.587,805.625c-3.488,6.47-12.105,6.381-18.081,3.735-6.474-2.866-11.493-8.293-17.275-12.249-8.373-5.727-22.158-8.899-29.036,.828-3.599,5.09-3.122,11.422-2.373,17.294,.99,7.762,1.195,14.38-1.457,21.89-4.152,11.758-11.319,25.342-2.846,37.016,1.877,2.585,6.166,.01,4.27-2.603-9.049-12.467,2.88-27.312,5.362-39.895,1.208-6.123,.183-11.925-.525-18.026-.824-7.102-.254-15.406,8.435-16.763,13.84-2.161,22.608,12.566,34.13,17.362,8.215,3.419,19.19,2.327,23.759-6.147,1.529-2.836-2.834-5.279-4.363-2.444h0Z" fill="#48bfed"/></g><g id="PHIL_004_008_FRAG_002"><path d="M1260.429,918.362c-9.779,7.134-19.404-5.437-25.954-11.187-5.444-4.779-12.309-8.128-19.661-5.948-7.393,2.192-9.16,8.658-8.137,15.647,1.654,11.299-1.781,21.972-11.678,28.442-1.607,1.051-1.54,3.32,.079,4.317,11.432,7.037,.74,21.23-5.097,27.816-2.131,2.405,1.46,5.884,3.6,3.47,5.028-5.673,10.514-11.981,11.256-19.862,.596-6.333-1.825-12.407-7.315-15.786l.079,4.317c6.998-4.575,12.071-11.547,13.933-19.747,.933-4.108,.892-8.132,.277-12.281-.913-6.163-.04-11.653,7.179-11.982,9.737-.443,15.557,9.652,22.492,14.86,6.154,4.622,14.849,7.083,21.549,2.195,2.58-1.882,.005-6.173-2.603-4.27h0Z" fill="#48bfed"/></g><g id="PHIL_004_008_FRAG_003"><path d="M1131.72,973.454c-4.901,4.426-10.422,3.841-15.89,1.047-3.514-1.796-6.656-2.214-10.199-.227-4.297,2.41-7.563,5.284-12.546,6.45-5.617,1.314-11.264,.671-16.596-1.423-2.992-1.175-4.198,3.684-1.24,4.845,10.506,4.126,21.493,2.267,30.65-4.039,3.899-2.685,6.524-1.435,10.319,.249,1.888,.838,3.882,1.358,5.953,1.468,4.988,.266,9.489-1.594,13.15-4.9,2.393-2.16-1.221-5.619-3.6-3.47h0Z" fill="#48bfed"/></g><g id="PHIL_004_009_FRAG_001"><path d="M1014.748,999.6c-4.774,6.724-9.547,13.449-14.321,20.173-3.438,4.842-10.17,18.353-17.278,11.074-5.14-5.265-3.657-14.01-6.962-20.256-2.251-4.254-6.454-7.951-11.544-7.615s-8.157,5.323-12.852,6.072c-3.412,.544-5.452-2.875-8.312-4.043-2.524-1.031-5.182-.863-7.775-.175-6.509,1.725-11.629,4.613-18.642,3.663-6.645-.899-12.499-4.198-16.905-9.199-2.13-2.418-5.586,1.198-3.47,3.6,8.425,9.562,22.16,13.285,34.229,9.052,5.058-1.774,8.061-3.728,13.138-.656,2.078,1.257,3.651,2.734,6.251,2.883,6.045,.347,10.683-7.636,16.5-5.996,8.335,2.351,6.747,16.015,9.946,22.189,2.408,4.647,7.327,8.708,12.861,7.593,6.177-1.244,9.66-7.969,12.976-12.639l16.524-23.277c1.864-2.626-2.518-5.042-4.363-2.444h0Z" fill="#a9ccff"/></g><g id="PHIL_004_009_FRAG_002"><path d="M848.312,990.894c-7.635-8.133-19.607-11.576-30.367-8.338-5.973,1.798-10.562,5.994-16.03,8.78-3.202,1.631-6.953,2.547-10.448,1.283-4.352-1.574-4.155-5.364-4.645-9.307-1.373-11.055-11.27-9.405-19.6-8.571-2.155,.216-4.656,.52-6.672-.452-4.163-2.007-2.802-7.314-2.129-10.921,1.038-5.568,1.377-10.672-1.45-15.793-7.328-13.276-23.636-14.06-37.029-13.86-3.217,.048-3.13,5.047,.092,4.999,9.318-.139,19.916-.442,27.655,5.635,3.442,2.703,6.212,6.586,6.615,11.045,.34,3.768-1.06,7.521-1.484,11.236-.635,5.557,1.288,11.051,7.072,12.766,5.368,1.591,10.79-.748,16.189-.575,8.359,.267,4.41,10.532,8.815,15.402,3.825,4.228,10.426,4.757,15.589,3.125,7.564-2.392,13.03-8.905,20.936-10.527,8.622-1.769,17.466,1.332,23.423,7.677,2.207,2.351,5.669-1.258,3.47-3.6h0Z" fill="#a9ccff"/></g><g id="PHIL_004_009_FRAG_003"><path d="M675.896,900.013c-4.831,.078-9.004-2.628-10.536-7.249-.947-2.858-1.015-5.731-3.397-7.866-4.466-4.002-12.304-.247-15.833-5.16-1.683-2.343-2.002-5.227-4.159-7.328-2.076-2.022-4.865-2.624-7.536-3.46-7.532-2.355-12.533-7.987-13.737-15.842-.485-3.166-5.278-1.725-4.796,1.418,1.051,6.861,5.032,12.929,10.951,16.597,3.244,2.011,7.214,2.222,10.383,4.177,3.47,2.141,3.557,6.854,6.641,9.506,2.06,1.772,4.7,2.259,7.322,2.499,1.702,.155,3.789-.119,5.414,.45,2.967,1.038,3.135,3.771,3.952,6.427,2.088,6.792,8.469,10.943,15.424,10.831,3.217-.052,3.13-5.051-.092-4.999h0Z" fill="#a9ccff"/></g><g id="PHIL_004_010_FRAG_001"><path d="M581.713,803.846c-6.309-5.929-13.493-10.773-21.491-14.13-3.82-1.603-7.739-2.739-11.731-3.818-4.085-1.105-9.003-2.234-11.328-6.155-1.24-2.092-1.865-5.024-.007-7.008,1.824-1.948,5.315-1.802,7.74-2.128,2.935-.394,5.781-1.185,8-3.279,1.634-1.541,2.874-3.632,2.731-5.957-.239-3.879-3.758-4.693-5.506-7.589-3.202-5.306,3.009-10.433,6.96-12.627,3.293-1.828,6.891-3.082,10.057-5.147,5.359-3.496,9.732-9.227,8.047-15.954-4.008-16.005-25.009-13.125-35.658-21.019-2.583-1.915-4.996,2.472-2.444,4.363,6.516,4.83,14.413,5.312,21.862,7.86,3.874,1.325,7.826,3.621,10.098,7.131,3.411,5.271,.092,10.297-4.507,13.347-6.002,3.981-13.94,5.453-17.949,12-3.397,5.546-2.39,10.499,1.54,15.187,5.496,6.556-4.663,6.57-8.407,7.352-2.695,.562-5.222,1.654-6.924,3.91-3.098,4.109-1.833,9.941,1.202,13.699,4.712,5.836,12.997,6.472,19.658,8.67,9.233,3.047,17.525,8.251,24.589,14.89,2.346,2.205,5.82-1.392,3.47-3.6h0Z" fill="#1a1aa8"/></g><g id="PHIL_004_010_FRAG_002"><path d="M511.946,650.075c-3.464-1.814-3.56-6.239-1.943-9.411,1.928-3.782,5.976-6.25,9.202-8.792,4.487-3.536,8.973-8.038,9.284-14.093,.516-10.051-10.053-14.623-16.916-19.567-5.595-4.03-9.601-9.718-4.657-16.292s13.578-7.936,20.704-11.076c9.691-4.271,20.415-17.654,9.493-26.842-2.754-2.316-6.317-3.438-9.661-4.595-4.866-1.683-9.738-3.347-14.608-5.021-10.043-3.452-20.085-6.904-30.128-10.356-3.048-1.048-4.264,3.806-1.24,4.845,8.521,2.929,17.042,5.858,25.563,8.787,4.261,1.464,8.521,2.929,12.782,4.393,3.972,1.365,8.536,2.373,12.182,4.516,10.524,6.186,.714,16.663-6.701,19.848-6.411,2.754-13.417,4.225-18.875,8.823-8.807,7.42-8.679,18.234,.101,25.381,7.947,6.468,24.839,13.058,12.436,24.942-4.903,4.697-11.991,7.942-14.255,14.842-1.725,5.255-.324,11.351,4.794,14.032,2.852,1.494,5.298-2.868,2.444-4.363h0Z" fill="#1a1aa8"/></g><g id="PHIL_004_010_FRAG_003"><path d="M505.645,469.116c-.783-4.209,.844-8.551,4.096-11.334,3.14-2.687,6.558-2.217,10.191-3.381,1.977-.633,3.669-1.749,4.497-3.705,1.326-3.129-.769-5.766-1.486-8.717-2.405-9.894,6.557-17.81,12.149-24.642,4.97-6.07,8.987-13.028,7.972-21.132-.396-3.16-5.399-3.102-4.999,.092,2.319,18.5-24.174,26.924-20.076,46.31,.418,1.978,2.143,4.185,1.125,5.968-.996,1.746-2.958,1.404-4.801,1.749-2.879,.54-5.442,1.679-7.682,3.586-4.905,4.177-6.95,10.357-5.784,16.623,.587,3.156,5.381,1.725,4.796-1.418h0Z" fill="#1a1aa8"/></g><g id="PHIL_004_011_FRAG_001"><path d="M565.632,300.333c-2.501-3.042-1.502-7.62,.974-10.366,2.539-2.817,6.418-3.685,10.09-3.545,8.14,.311,14.992,5.409,22.142,8.682,10.578,4.843,24.796,5.805,30.542-6.497,5.406-11.572-.772-23.457-8.27-32.374-4.699-5.589-11.149-11.006-12.493-18.549-1.474-8.275,4.472-15.448,9.42-21.37,2.055-2.459-1.532-5.944-3.6-3.47-4.541,5.434-9.383,11.371-10.725,18.531-1.204,6.422,1.002,12.441,4.733,17.631,4.772,6.637,11.164,11.928,15.026,19.244,3.722,7.051,4.835,17.439-2.293,22.891-8.001,6.119-18.553,.375-26.096-3.544-6.482-3.367-13.333-6.676-20.85-6.117-10.873,.808-20.002,12.807-12.071,22.453,2.043,2.484,5.493-1.139,3.47-3.6h0Z" fill="#7f9cc6"/></g><g id="PHIL_004_011_FRAG_002"><path d="M671.52,166.59c6.671-3.505,14.249,6.445,18.936,10.012,4.911,3.737,10.412,6.601,16.257,8.573,9.19,3.1,25.799,6.477,32.213-3.363,2.789-4.279,2.786-9.766,1.884-14.61-.717-3.852-2.17-7.54-2.821-11.406-.232-1.376-1.012-5.307,.002-6.615l2.265-1.008c1.224-1.341,2.299-1.431,3.224-.269,1.223,.656,2.091,2.078,2.826,3.204,2.601,3.987,4.722,8.773,9.879,9.88,4.616,.99,9.263-1.787,11.835-5.483,4.078-5.862,2.712-13.186,1.429-19.718-.908-4.619-2.114-9.891-.061-14.381,1.672-3.657,6.716-6.488,10.063-3.06,1.4,1.434,3.584,.521,4.157-1.18,1.674-4.96,5.29-8.394,10.26-9.964,3.061-.967,1.662-5.769-1.418-4.796-6.713,2.12-11.444,6.87-13.688,13.52l4.157-1.18c-3.284-3.363-8.077-3.687-12.212-1.651-4.943,2.433-7.076,7.511-7.376,12.797-.449,7.938,4.354,16.365,1.899,24.13-1.532,4.844-6.909,8.171-11.037,4.126-2.241-2.196-3.223-5.55-5.245-7.946-3.197-3.787-8.81-6.514-13.125-2.767-4.554,3.955-3.275,11.362-2.03,16.464,1.648,6.756,6.214,18.975-3.212,22.331-7.108,2.53-16.554,.269-23.403-2.161-8.547-3.032-14.591-8.593-21.539-14.107-4.968-3.943-10.642-6.836-16.722-3.641-2.849,1.497-.241,5.764,2.603,4.27h0Z" fill="#7f9cc6"/></g><g id="PHIL_004_011_FRAG_003"><path d="M830.436,100.63c12.996,5.565,25.588-4.27,30.816-15.879,3.297-7.322,4.665-15.244,7.259-22.801,1.443-4.204,4.34-10.952,9.989-7.336,4.546,2.91,4.53,9.168,4.671,13.936,.067,2.27,2.723,3.11,4.3,1.689,3.989-3.596,10.094-2.019,13.828,1.175,3.897,3.333,6.101,8.308,8.34,12.803,3.694,7.415,7.971,14.398,16.141,17.284,3.038,1.073,4.252-3.781,1.24-4.845-11.719-4.14-13.177-19.572-21.103-27.734-5.817-5.991-15.498-8.056-22.047-2.153l4.3,1.689c-.21-7.119-1.152-15.432-8.432-18.857-6.722-3.163-12.254,1.633-14.792,7.618-3.544,8.359-4.562,17.575-8.408,25.835-3.941,8.465-13.63,17.507-23.658,13.213-2.934-1.257-5.4,3.097-2.444,4.363h0Z" fill="#7f9cc6"/></g></g></svg>