<?xml version="1.0" encoding="UTF-8"?><svg xmlns="http://www.w3.org/2000/svg" viewBox="0 0 1692.932 902.27"><g id="FRAGMENTS"><g id="AQUA_005_021_FRAG__001"><path d="M10.555,186.083c26.09-8.756,42.621-33.66,51.042-58.683,5.162-15.338,7.782-31.413,10.766-47.273,2.87-15.256,5.593-31.884,13.207-45.63,5.148-9.294,15.897-22.349,28.078-19.244,11.039,2.814,13.989,16.431,15.288,26.091,2.144,15.941,2.132,32.325,3.003,48.375,.992,18.26,1.984,36.52,2.976,54.78,.992,18.26,1.984,36.52,2.976,54.78,.856,15.748,.481,32.767,7.344,47.364,5.737,12.204,17.513,23.015,31.579,23.479,12.211,.403,22.634-6.196,29.299-16.168,6.74-10.085,10.26-22.004,12.467-33.824,3.18-17.031,5.452-34.277,8.147-51.391,2.809-17.837,5.618-35.675,8.427-53.512,1.359-8.631,2.567-17.302,4.087-25.906,.922-5.219,2.584-10.63,5.499-15.101,2.069-3.174,5.212-6.665,9.219-4.421,5.347,2.994,7.775,12.144,9.124,17.561,3.863,15.52,2.805,31.633,2.942,47.469,.212,24.549,4.827,53.585,26.384,68.977,5.116,3.653,10.643,5.857,16.725,7.286,3.949,.928,7.888-2.884,8.319-6.58,.515-4.41-2.619-7.388-6.58-8.319-23.991-5.638-29.541-37.387-29.931-57.868-.306-16.063,.949-32.329-1.958-48.23-2.459-13.452-8.182-32.114-23.467-35.538-12.994-2.911-22.376,7.749-27.038,18.57-2.738,6.357-3.936,13.135-5.006,19.928-1.379,8.757-2.758,17.513-4.137,26.27-2.809,17.837-5.618,35.675-8.427,53.512-2.583,16.402-4.447,33.119-7.994,49.344-2.182,9.982-5.886,22.026-13.992,28.865-9.289,7.837-20.744,3.121-27.273-5.852-9.027-12.407-7.976-30.644-8.768-45.209-.992-18.26-1.984-36.52-2.976-54.78-.992-18.26-1.984-36.52-2.976-54.78-.903-16.614-.989-33.508-2.996-50.031-1.495-12.305-5.169-25.337-14.935-33.672-10.498-8.961-25.073-8.443-36.396-1.506-27.179,16.65-31.501,53.669-36.8,82.1-5.089,27.301-11.838,57.99-34.818,76.227-4.972,3.946-10.437,6.781-16.45,8.799-9.145,3.069-3.091,16.8,6.018,13.743h0Z" fill="#b6e565"/></g><g id="AQUA_005_019_FRAG__002"><path d="M103.474,580.102c9.215-10.976,20.422-23.896,34.793-27.891,11.37-3.16,21.425,1.86,29.367,9.762,16.129,16.047,27.056,40.219,52.021,43.681,9.567,1.327,11.304-13.572,1.739-14.899-11.084-1.537-18.852-10.329-25.582-18.531-7.852-9.567-15.15-20.099-25.281-27.457-12.109-8.794-27-10.794-40.996-5.347-15.535,6.046-27.576,19.185-38.048,31.658-6.225,7.415,5.799,16.392,11.987,9.022h0Z" fill="#c6e1ca"/></g><g id="AQUA_005_020_FRAG__003"><path d="M375.321,811.64c2.79-10.916,5.601-23.804,14.091-31.887,5.523-5.258,16.951-8.995,22.999-2.511,4.071,4.364,10.104,3.336,12.835-1.834,6.894-13.05,9.661-27.634,12.415-41.997,2.613-13.624,5.324-28.137,13.372-39.766,6.48-9.364,17.966-17.97,30.008-15.814,8.94,1.601,17.963,11.52,14.681,20.945-2.923,8.393,7.224,13.387,12.946,7.33,8.567-9.07,24.821-2.778,31.765,5.129,11.133,12.678,11.251,32.175,11.492,48.077,.061,4.049,2.177,7.805,6.58,8.319,3.615,.422,8.381-2.501,8.319-6.58-.333-21.933-1.148-47.358-18.68-63.205-14.42-13.034-37.522-15.521-51.462-.762,4.315,2.443,8.63,4.887,12.946,7.33,5.023-14.423-2.241-29.696-15.104-37.222-14.537-8.505-32.361-4.209-44.873,6.006-29.398,24.002-22.015,65.731-38.307,96.572,4.278-.611,8.556-1.222,12.835-1.834-10.655-11.421-27.284-11.117-39.934-3.06-13.943,8.881-18.973,26.056-22.825,41.126-1.01,3.952,.038,8.064,4.133,9.771,3.347,1.395,8.768-.21,9.771-4.133h0Z" fill="#52b378"/></g><g id="AQUA_005_022_FRAG__004"><path d="M457.026,360.819c6.476,16.075,12.777,32.219,19.059,48.371,3.195,8.216,6.387,16.434,9.599,24.644,2.46,6.287,4.205,14.019,10.033,18.107,4.859,3.408,11.396,3.728,16.667,1.148,4.968-2.431,7.199-6.954,9.123-11.85,3.187-8.108,6.23-16.274,9.14-24.485,17.246-48.664,30.526-99.288,36.248-150.671,3.624-32.549,4.102-65.727-.985-98.147-1.494-9.523-16.33-7.284-14.829,2.283,8.21,52.327,1.684,106.158-9.943,157.462-4.999,22.057-11.174,43.84-18.219,65.328-2.996,9.137-6.154,18.221-9.476,27.244-1.235,3.355-2.494,6.702-3.776,10.039-.809,2.107-1.894,7.798-3.662,9.186-2.971,2.334-5.191-8.119-5.864-9.837-3.096-7.905-6.171-15.818-9.248-23.731-6.635-17.065-13.282-34.126-20.123-51.109-3.608-8.957-17.354-2.948-13.743,6.018h0Z" fill="#3db2af"/></g><g id="AQUA_005_022_FRAG__005"><path d="M608.234,294.825c7.599,27.754,16.105,55.257,25.634,82.41,4.657,13.27,9.549,26.457,14.674,39.553,4.863,12.427,9.45,25.265,15.509,37.17,4.793,9.418,11.624,18.803,22.286,21.808,11.968,3.374,23.937-2.352,31.563-11.618,8.276-10.056,10.436-23.665,12.943-36.033,3.014-14.869,6.027-29.739,9.041-44.608,6.551-32.325,13.102-64.65,19.654-96.975,1.917-9.46-12.992-11.147-14.899-1.739-5.306,26.183-10.613,52.366-15.919,78.549-2.686,13.253-5.372,26.506-8.058,39.76-2.493,12.303-4.348,24.966-7.725,37.06-2.494,8.932-8.056,21.41-19.072,21.701-8.627,.228-13.799-9.137-17.009-15.824-10.703-22.297-19.03-46.122-27.325-69.398-9.869-27.692-18.702-55.746-26.466-84.1-1.065-3.89-4.228-6.957-8.556-6.273-3.648,.577-7.352,4.613-6.273,8.556h0Z" fill="#3db2af"/></g><g id="AQUA_005_023_FRAG__005"><path d="M887.913,106.06c16.606,3.699,18.335,26.721,18.626,40.043,.394,18.024,.639,37.271,14.002,51.127,12.158,12.607,30.465,13.425,43.977,2.333,14.909-12.238,18.292-30.945,20.102-49.112,1.562-15.67,3.823-41.633,23.19-45.827,9.381-2.031,7.188-16.88-2.283-14.829-16.42,3.556-27.169,17.629-31.657,33.204-5.129,17.8-1.795,38.681-10.864,55.232-3.381,6.171-9.03,12.273-16.093,13.973-6.954,1.674-13.136-1.994-17.298-7.37-11.496-14.849-6.976-35.797-8.948-53.143-2.071-18.224-12.021-36.3-31.015-40.531-3.96-.882-7.884,2.851-8.319,6.58-.51,4.372,2.609,7.435,6.58,8.319h0Z" fill="#4cd36f"/></g><g id="AQUA_005_024_FRAG__009"><path d="M1204.136,129.071c14.299,34.58,54.91,51.742,90.592,45.768,41.713-6.983,73.746-39.129,93.857-74.57,13.01-22.927,22.128-47.669,31.104-72.375,3.294-9.066-10.604-14.722-13.904-5.638-13.723,37.773-27.944,78.068-57.237,106.911-24.322,23.947-59.055,39.575-92.949,27.693-16.642-5.834-30.89-17.287-37.721-33.807-3.689-8.922-17.439-2.92-13.743,6.018h0Z" fill="#b0dad4"/></g><g id="AQUA_005_021_FRAG__008"><path d="M1492.838,541.595c.398,31.064,1.765,65.055,26.325,87.498,10.094,9.224,23.474,15.084,37.258,14.619,13.94-.47,26.301-8.182,34.827-18.915,20.466-25.761,14.817-59.225,18.641-89.623,1.711-13.602,5.707-28.051,15.871-37.864,10.404-10.044,22.608-16.828,24.997-32.437,2.37-15.484-7.177-32.191,.831-46.765,6.472-11.779,20.235-18.394,33.356-15.642,9.444,1.981,11.126-12.93,1.739-14.899-24.649-5.17-51.497,14.637-53.23,39.946-.529,7.731,.976,15.336,2.025,22.951,.881,6.397,1.572,13.327-1.963,19.088-3.321,5.413-9.02,9.066-13.777,13.088-5.097,4.311-9.676,9.177-13.158,14.897-16.43,26.987-10.523,58.571-15.151,88.304-3.614,23.218-21.167,51.224-48.452,40.701-33.037-12.741-34.856-53.24-35.24-83.211-.052-4.049-2.184-7.806-6.58-8.319-3.623-.423-8.371,2.501-8.319,6.58h0Z" fill="#b6e565"/></g><g id="AQUA_005_019_FRAG__010"><path d="M958.428,849.428c13.129,10.559,29.15,20.95,46.592,14.385,17.902-6.738,17.926-26.54,17.89-42.553-.044-20.092-.929-40.389-.092-60.462,.115-2.768,.259-11.798,4.499-11.008,3.192,.595,7.083,5.859,9.266,7.968,3.791,3.66,7.582,7.32,11.372,10.981,16.822,16.242,33.643,32.485,50.465,48.727,2.936,2.835,8.249,1.447,10.504-1.483,2.724-3.539,1.416-7.705-1.483-10.504-14.689-14.183-29.379-28.367-44.068-42.55-7.469-7.212-14.776-14.653-22.444-21.652-5.985-5.463-13.987-8.837-21.763-4.988-14.77,7.311-11.273,30.335-11.244,43.462,.023,10.274,.045,20.548,.068,30.822,.02,8.957,.709,18.221-.52,27.12-1.124,8.135-5.954,13.496-14.545,13.184-9.908-.36-18.139-7.532-25.478-13.434-7.544-6.067-16.534,5.945-9.022,11.987h0Z" fill="#c6e1ca"/></g><g id="AQUA_005_024_FRAG__015"><path d="M1080.683,417.132c20.093-12.801,45.228,1.227,57.574,18.039,15.433,21.017,19.59,47.934,26.797,72.371,6.603,22.389,18.128,53.512,44.921,57.458,12.008,1.768,23.136-4.271,30.718-13.238,8.471-10.019,11.435-22.964,13.785-35.538,2.301-12.313,4.27-27.291,14.495-35.936,5.979-5.056,20.618-6.877,22.674,3.51,1.866,9.432,16.71,7.224,14.829-2.283-2.266-11.454-12.057-18.931-23.415-20.244-12.317-1.424-23.448,5.112-30.493,14.929-8.103,11.291-10.492,24.93-12.988,38.285-2.243,12.002-5.341,26.379-16.629,33.298-10.961,6.72-21.954-1.444-28.55-10.212-8.176-10.868-12.411-24.783-16.072-37.707-7.593-26.809-12.902-55.685-31.225-77.739-18.199-21.905-50.236-32.997-75.726-16.758-3.443,2.194-3.528,7.563-1.23,10.535,2.687,3.475,7.138,3.394,10.535,1.23h0Z" fill="#b0dad4"/></g></g><g id="_NUMEROS"><text transform="translate(13.133 211.069)" font-family="NectoMono-Regular, &apos;Necto Mono&apos;" font-size="12"><tspan x="0" y="0">1.</tspan></text><text transform="translate(105.134 610.069)" font-family="NectoMono-Regular, &apos;Necto Mono&apos;" font-size="12"><tspan x="0" y="0">2.</tspan></text><text transform="translate(436.133 394.069)" font-family="NectoMono-Regular, &apos;Necto Mono&apos;" font-size="12"><tspan x="0" y="0">4.</tspan></text><text transform="translate(387.133 831.069)" font-family="NectoMono-Regular, &apos;Necto Mono&apos;" font-size="12"><tspan x="0" y="0">3.</tspan></text><text transform="translate(874.133 151.069)" font-family="NectoMono-Regular, &apos;Necto Mono&apos;" font-size="12"><tspan x="0" y="0">5.</tspan></text><text transform="translate(1194.133 174.069)" font-family="NectoMono-Regular, &apos;Necto Mono&apos;" font-size="12"><tspan x="0" y="0">6.</tspan></text><text transform="translate(1525.133 551.069)" font-family="NectoMono-Regular, &apos;Necto Mono&apos;" font-size="12"><tspan x="0" y="0">7.</tspan></text><text transform="translate(948.133 883.069)" font-family="NectoMono-Regular, &apos;Necto Mono&apos;" font-size="12"><tspan x="0" y="0">8.</tspan></text><text transform="translate(1082.133 450.069)" font-family="NectoMono-Regular, &apos;Necto Mono&apos;" font-size="12"><tspan x="0" y="0">9.</tspan></text></g></svg>