<?xml version="1.0" encoding="UTF-8"?><svg xmlns="http://www.w3.org/2000/svg" viewBox="0 0 1920 1080"><g id="FRAGMENTS"><g id="CLAN_003_012_FRAG__001"><path d="M228.401,270.799c44.323-16.848,64.857-60.628,87.224-99.015,8.845-15.18,24.693-35.221,43.455-21.188,18.543,13.869,23.323,41.07,31.562,61.297,10.647,26.138,28.606,49.668,57.892,55.257,5.3,1.012,10.778-1.75,12.171-7.21,1.273-4.99-1.88-11.153-7.21-12.171-53.633-10.236-43.997-82.349-80.536-111.574-10.215-8.17-22.53-12.354-35.569-9.579-11.199,2.383-20.76,10.129-27.851,18.823-14.443,17.705-23.426,39.489-35.731,58.661-12.633,19.684-28.603,38.97-51.079,47.513-5.046,1.918-8.367,6.965-6.757,12.428,1.439,4.884,7.355,8.685,12.428,6.757h0Z" fill="#f47516"/></g><g id="CLAN_003_013_FRAG__002"><path d="M583.806,431.341c16.893,25.52,50.581,36.51,79.704,27.897,33.223-9.824,45.204-42.094,58.973-70.356,6.971-14.308,15.35-27.589,29.13-36.202,12.949-8.094,28.735-11.225,43.267-5.528,32.287,12.656,43.911,52.053,57.686,80.29,9.14,18.735,20.693,35.923,38.16,47.791,16.041,10.898,36.815,15.902,55.481,9.195,12.047-4.329,6.489-23.554-5.671-19.185-14.409,5.178-29.295,.418-41.298-8.337-13.679-9.978-22.297-24.939-29.592-39.874-14.935-30.577-26.64-65.027-57.499-83.52-30.681-18.387-69.387-6.995-91.168,19.793-10.062,12.375-16.478,26.814-23.105,41.183-6.193,13.426-12.807,27.714-24.422,37.379-21.072,17.535-57.288,12.146-72.566-10.935-7.085-10.703-24.213-.365-17.081,10.41h0Z" fill="#f09c5e"/></g><g id="CLAN_003_014_FRAG__004"><path d="M205.862,835.202c19.91-24.829,60.537-25.483,81.266-1.357,4.846,5.641,15.243,2.278,16.63-4.719,3.871-19.524,7.673-41.045,21.825-56.078,5.72-6.075,12.963-10.94,21.33-12.333,10.258-1.708,20.741,1.206,30.73,3.205,10.944,2.19,21.9,3.724,33.003,1.886,10.058-1.665,19.63-5.946,28.058-11.628,17.21-11.603,30.898-28.125,42.254-45.31,13.212-19.996,22.879-42.092,30.862-64.624,1.804-5.092-2.313-10.922-7.21-12.171-5.635-1.437-10.36,2.1-12.171,7.21-6.853,19.342-15.279,38.161-26.204,55.569-10.338,16.474-23.35,33.069-39.975,43.579-7.688,4.86-16.148,8.17-25.331,8.323-10.648,.177-20.986-3.008-31.397-4.794-10.945-1.877-22.278-2.667-33.017,.789-9.219,2.967-17.501,8.474-24.287,15.333-17.499,17.691-23.178,42.501-27.853,66.084,5.543-1.573,11.087-3.146,16.63-4.719-27.265-31.733-83.379-30.753-109.545,1.877-3.376,4.21-3.877,10.152,.26,14.14,3.618,3.487,10.745,3.973,14.14-.26h0Z" fill="#e56441"/></g><g id="CLAN_003_015_FRAG__007"><path d="M614.459,886.159c22.929-3.519,47.779,3.206,65.977,17.506,4.243,3.334,10.126,3.904,14.14-.26,3.457-3.587,4.008-10.786-.26-14.14-24.495-19.248-54.788-27.008-85.527-22.29-5.344,.82-8.136,7.748-6.757,12.428,1.695,5.753,7.067,7.58,12.428,6.757h0Z" fill="#fc2627"/></g><g id="CLAN_003_016_FRAG__010"><path d="M986.743,756.525c16.877-5.864,33.753-11.729,50.63-17.593,3.733-1.297,8.343-3.719,12.313-4.096,2.848-.27,4.965,1.152,7.4,2.562,6.758,3.913,13.718,7.206,21.123,9.722,29.032,9.865,60.786,6.871,90.68,3.667,5.37-.576,9.92-4.438,9.814-10.182-.093-5.039-4.781-10.393-10.182-9.814-29.207,3.13-61.062,6.833-89.078-4.405-7.293-2.925-13.616-7.985-21.085-10.431-8.625-2.826-16.653,.317-24.782,3.141-17.502,6.081-35.004,12.163-52.505,18.244-12.104,4.206-6.536,23.426,5.671,19.185h0Z" fill="#ffb27d"/></g><g id="CLAN_003_017_FRAG__008"><path d="M1156.438,237.199c15.441-5.843,33.873-1.409,44.537,11.494,11.276,13.643,10.848,33.636,20.668,48.284,12.575,18.757,36.603,21.837,55.097,9.646,20.06-13.223,25.793-37.429,32.765-58.845,3.761-11.552,8.683-22.368,17.787-30.687,7.696-7.032,17.951-11.77,28.316-12.964,5.365-.618,9.921-4.408,9.814-10.182-.092-5.005-4.785-10.436-10.182-9.814-22.468,2.589-42.684,14.689-54.591,34.127-12.008,19.603-12.528,44.643-26.177,63.276-5.164,7.049-13.484,12.982-22.567,12.66-7.872-.279-12.38-5.497-15.671-11.893-3.97-7.717-5.785-16.791-8.695-25.051-3.268-9.274-7.611-17.906-14.569-24.981-15.708-15.974-41.123-22.231-62.203-14.254-5.049,1.91-8.365,6.97-6.757,12.428,1.441,4.891,7.352,8.677,12.428,6.757h0Z" fill="#fcc00b"/></g><g id="CLAN_003_018_FRAG__008"><path d="M1474.895,498.575c9.51,19.764,34.567,26.605,54.454,20.497,22.329-6.857,38.458-26.337,49.503-45.996,11.367-20.232,18.188-42.519,27.416-63.718,8.339-19.157,18.993-39.681,36.697-51.818,17.016-11.666,40.146-15.593,57.566-2.747,4.35,3.208,11.206,.458,13.614-3.839,2.918-5.206,.522-10.398-3.839-13.614-16.609-12.248-39.295-13.1-58.328-6.519-21.275,7.357-37.332,23.106-49.216,41.826-12.005,18.91-19.275,40.235-27.549,60.911-8.159,20.391-17.742,41.471-34.425,56.36-7.487,6.682-17.217,11.69-27.43,11.455-9.151-.21-17.394-4.919-21.383-13.208-2.342-4.867-9.46-5.949-13.746-3.335-4.986,3.041-5.686,8.86-3.335,13.746h0Z" fill="#ffdd92"/></g><g id="CLAN_003_015_FRAG__011"><path d="M1455.076,761.686c13.302-4.582,26.062,2.629,35.368,11.997,11.131,11.205,16.745,26.5,22.935,40.717,6.806,15.63,14.368,31.029,27.048,42.808,11.046,10.261,24.769,17.633,39.327,21.488,16.942,4.486,35.237,4.143,51.854-1.511,12.138-4.13,6.563-23.347-5.671-19.185-26.405,8.985-56.718,1.268-75.671-19.241-10.946-11.845-16.588-27.706-22.972-42.23-6.654-15.136-14.129-29.896-26.865-40.886-13.997-12.078-32.769-19.43-51.024-13.142-12.119,4.174-6.548,23.393,5.671,19.185h0Z" fill="#fc2627"/></g></g><g id="_NUMEROS"><text transform="translate(208.086 227.612)" font-family="NectoMono-Regular, &apos;Necto Mono&apos;" font-size="12"><tspan x="0" y="0">1.</tspan></text><text transform="translate(611.086 401.612)" font-family="NectoMono-Regular, &apos;Necto Mono&apos;" font-size="12"><tspan x="0" y="0">2.</tspan></text><text transform="translate(604.086 911.612)" font-family="NectoMono-Regular, &apos;Necto Mono&apos;" font-size="12"><tspan x="0" y="0">4.</tspan></text><text transform="translate(454.086 633.612)" font-family="NectoMono-Regular, &apos;Necto Mono&apos;" font-size="12"><tspan x="0" y="0">3.</tspan></text><text transform="translate(996.086 776.612)" font-family="NectoMono-Regular, &apos;Necto Mono&apos;" font-size="12"><tspan x="0" y="0">5.</tspan></text><text transform="translate(1166.086 264.612)" font-family="NectoMono-Regular, &apos;Necto Mono&apos;" font-size="12"><tspan x="0" y="0">6.</tspan></text><text transform="translate(1505.086 467.612)" font-family="NectoMono-Regular, &apos;Necto Mono&apos;" font-size="12"><tspan x="0" y="0">7.</tspan></text><text transform="translate(1598.086 836.612)" font-family="NectoMono-Regular, &apos;Necto Mono&apos;" font-size="12"><tspan x="0" y="0">8.</tspan></text></g></svg>