<?xml version="1.0" encoding="UTF-8"?><svg xmlns="http://www.w3.org/2000/svg" viewBox="0 0 1920 1080"><g id="FRAGMENTS"><g id="GOUR_001_001_FRAG_001"><path d="M209.786,295.484c45.167,15.689,99.638,30.301,142.837,.999,36.582-24.814,47.843-69.173,71.916-103.847,12.312-17.733,28.83-33.051,50.819-36.47,5.342-.831,8.138-7.741,6.757-12.428-1.693-5.745-7.069-7.59-12.428-6.757-42.789,6.655-66.032,48.667-84,83.504-9.218,17.871-18.681,36.192-33.189,50.422-15.257,14.964-35.644,21.761-56.734,22.441-27.946,.901-54.956-8.191-81.018-17.244-5.102-1.772-10.916,2.29-12.171,7.21-1.431,5.609,2.089,10.392,7.21,12.171h0Z" fill="#8252b1"/></g><g id="GOUR_001_002_FRAG_002"><path d="M301.015,770.808c16.092,13.223,23.73,33.051,33.197,51.003,9.177,17.402,22.247,35.317,40.913,43.269,21.223,9.041,43.227,2.676,59.765-12.524,16.919-15.55,24.425-37.702,31.891-58.767,6.941-19.585,16.071-44.224,36.772-53.141,4.957-2.135,8.414-6.804,6.757-12.428-1.387-4.705-7.437-8.906-12.428-6.757-19.077,8.217-32.094,24.144-40.768,42.673-9.378,20.033-13.749,42.345-25.52,61.256-8.663,13.919-24.772,27.455-42.273,23.467-17.639-4.02-29.291-21.118-37.297-36.078-10.647-19.895-19.212-41.65-37.131-56.375-4.17-3.427-10.183-3.845-14.14,.26-3.523,3.655-3.931,10.696,.26,14.14h0Z" fill="#ad76ff"/></g><g id="GOUR_001_003_FRAG_003"><path d="M743.261,464.883c27.529,15.143,61.153,18.882,91.126,9.022,27.464-9.035,50.88-28.526,64.926-53.765,6.271-11.269-11.189-21.03-17.452-9.775-11.521,20.703-30.559,36.926-53.144,44.356-25.027,8.233-52.65,5.379-75.68-7.29-11.297-6.214-21.062,11.243-9.775,17.452h0Z" fill="#cd99da"/></g><g id="GOUR_001_004_FRAG_004"><path d="M924.173,847.565c28.544,28.316,58.168,57.045,96.169,72.099,34.415,13.634,75.267,14.407,106.117-8.318,15.66-11.535,27.654-27.518,32.072-46.669,2.894-12.544-16.484-17.515-19.38-4.961-6.326,27.419-32.817,46.374-60.044,49.244-35.167,3.707-68.73-12.694-95.649-33.999-16.151-12.782-30.802-27.311-45.405-41.797-9.154-9.081-23.026,5.326-13.88,14.4h0Z" fill="#a41c78"/></g><g id="GOUR_001_005_FRAG_005"><path d="M1183.936,332.222c32.498-.881,64.996-1.761,97.493-2.642,14.051-.381,29.579,.587,42.828-4.911,12.264-5.089,20.72-15.129,23.832-28.051,2.938-12.196,1.577-24.889,.645-37.231-.868-11.501-.612-22.852,1.981-34.133,4.713-20.5,17.109-41.805,37.689-49.06,19.134-6.746,43.393-3.007,54.321,15.237,6.612,11.039,23.712,.661,17.081-10.41-11.864-19.807-35.25-29.365-57.786-27.823-25.105,1.717-46.099,16.058-58.949,37.438-13.558,22.559-15.924,48.55-13.933,74.222,.8,10.312,2.583,22.964-2.46,32.525-5.764,10.929-19.202,11.427-30.121,11.779-37.656,1.213-75.328,2.044-112.989,3.064-12.859,.348-12.522,20.346,.368,19.997h0Z" fill="#ee88f6"/></g><g id="GOUR_001_002_FRAG_006"><path d="M1625.382,560.658c17.818,59.259,53.187,113.147,100.483,153.067,13.613,11.49,28.182,21.879,43.499,30.972,11.099,6.589,20.833-10.887,9.775-17.452-50.215-29.813-90.813-74.323-116.707-126.61-7.267-14.674-13.152-29.972-17.866-45.648-3.7-12.307-22.903-6.696-19.185,5.671h0Z" fill="#ad76ff"/></g></g><g id="_NUMEROS"><text transform="translate(216.086 249.612)" font-family="NectoMono-Regular, &apos;Necto Mono&apos;" font-size="12"><tspan x="0" y="0">1.</tspan></text><text transform="translate(470.086 700.612)" font-family="NectoMono-Regular, &apos;Necto Mono&apos;" font-size="12"><tspan x="0" y="0">2.</tspan></text><text transform="translate(942.086 817.612)" font-family="NectoMono-Regular, &apos;Necto Mono&apos;" font-size="12"><tspan x="0" y="0">4.</tspan></text><text transform="translate(754.086 431.612)" font-family="NectoMono-Regular, &apos;Necto Mono&apos;" font-size="12"><tspan x="0" y="0">3.</tspan></text><text transform="translate(1188.086 288.612)" font-family="NectoMono-Regular, &apos;Necto Mono&apos;" font-size="12"><tspan x="0" y="0">5.</tspan></text><text transform="translate(1594.086 585.612)" font-family="NectoMono-Regular, &apos;Necto Mono&apos;" font-size="12"><tspan x="0" y="0">6.</tspan></text></g></svg>