<?xml version="1.0" encoding="utf-8"?>
<!-- Generator: Adobe Illustrator 27.0.0, SVG Export Plug-In . SVG Version: 6.00 Build 0)  -->
<svg version="1.1" xmlns="http://www.w3.org/2000/svg" xmlns:xlink="http://www.w3.org/1999/xlink" x="0px" y="0px"
	 viewBox="0 0 1920 1080" enable-background="new 0 0 1920 1080" xml:space="preserve">
<g id="FRAGMENTS">
	<g id="PHIL_x5F_005_x5F_006_x5F_FRAG_x5F_001">
		<g>
			<path fill="#2C2CFF" d="M452.85,245.028c5.639-11.869,19.832-16.039,32.105-13.085c15.615,3.758,26.468,18.804,32.006,33.156
				c14.513,37.614,5.499,82.535,31.201,116.197c11.488,15.046,29.623,26.673,49.251,22.25c19.2-4.326,25.523-23.376,32.405-39.259
				c11.36-26.218,35.211-42.305,58.282-58.018c27.527-18.748,55.741-38.412,67.671-70.94c1.86-5.072-2.353-10.932-7.209-12.171
				c-5.682-1.449-10.304,2.119-12.171,7.21c-9.223,25.146-33.674,41.756-55.575,56.691c-24.102,16.436-49.997,33.323-64.553,59.483
				c-3.781,6.795-6.246,14.16-9.387,21.249c-2.79,6.296-6.174,13.545-13.104,16.03c-6.586,2.362-14.156-0.765-19.617-4.455
				c-6.91-4.67-11.827-11.819-15.615-19.12c-8.865-17.092-10.638-37.013-12.965-55.801c-2.529-20.417-5.74-40.953-15.984-59.122
				c-10.12-17.947-27.037-32.18-48.069-34.026c-18.217-1.599-38.018,6.894-46.125,23.958
				C429.891,246.844,447.32,256.668,452.85,245.028L452.85,245.028z"/>
		</g>
	</g>
	<g id="PHIL_x5F_005_x5F_008_x5F_FRAG_x5F_002_00000155857298689075818430000012226128625237310877_">
		<g>
			<path fill="#48BDEB" d="M440.012,715.112c6.124-7.309,15.525-7.525,24.403-4.439c11.001,3.824,18.392,13.878,24.344,23.354
				c13.741,21.877,25.585,48.665,52.679,56.477c27.798,8.015,50.208-12.953,72.94-24.949c23.671-12.491,52.45-9.199,76.079,1.719
				c29.75,13.747,52.819,37.948,75.237,61.168c8.959,9.28,22.815-5.145,13.88-14.4c-21.146-21.903-42.846-44.102-69.59-59.207
				c-26.245-14.823-58.511-22.187-88.058-13.762c-13.637,3.888-25.406,11.668-37.32,19.073c-9.782,6.08-21.109,13.234-33.174,12.057
				c-11.897-1.161-21.411-10.609-28.046-19.806c-8.127-11.265-13.846-24.054-21.928-35.353
				c-8.998-12.579-20.498-23.222-35.936-26.846c-14.153-3.323-30.214-0.537-39.909,11.033c-3.467,4.137-3.819,10.208,0.26,14.14
				C429.557,718.924,436.528,719.269,440.012,715.112L440.012,715.112z"/>
		</g>
	</g>
	<g id="PHIL_x5F_005_x5F_009_x5F_FRAG_x5F_003_00000082329124898934405680000010904570924757442462_">
		<g>
			<path fill="#A7CAFF" d="M1022.729,396.766c34.671-9.55,57.201-38.379,81.713-62.536c20.236-19.943,48.867-41.739,77.94-28.696
				c6.029,2.705,11.987,6.836,15.763,11.743c4.277,5.557,5.776,10.749,5.48,17.54c-0.327,7.513,9.098,12.391,15.203,8.356
				c25.532-16.872,58.547-3.959,81.146,12.009c26.701,18.866,48.3,44.415,78.276,58.601c11.597,5.488,21.422-11.94,9.775-17.452
				c-31.78-15.041-54.103-43.303-83.396-62.054c-27.914-17.868-66.581-27.766-96.212-8.185c5.068,2.785,10.136,5.571,15.203,8.356
				c1.453-33.365-35.073-55.733-65.428-52.682c-39.187,3.939-65.478,36.465-91.35,62.472
				c-14.244,14.318-29.922,27.871-49.786,33.342C1004.658,380.997,1010.294,400.191,1022.729,396.766L1022.729,396.766z"/>
		</g>
	</g>
	<g id="PHIL_x5F_005_x5F_011_x5F_FRAG_x5F_005">
		<g>
			<path fill="#7F9AC4" d="M1286.326,728.674c9.621-19.63,33.319-30.546,54.368-24.116c20.705,6.324,34.349,30.215,30.309,51.243
				c-1.272,6.622,4.965,15.344,12.525,12.073c13.051-5.646,26.807-0.257,37.197,8.463c12.241,10.273,20.132,24.559,29.553,37.23
				c9.581,12.887,20.571,24.571,35.669,30.837c14.646,6.078,31.308,6.956,45.042-1.976c10.766-7.002,0.421-24.125-10.41-17.081
				c-10.783,7.013-23.83,3.276-34.04-3.066c-12.963-8.052-21.266-21.987-29.82-34.193c-9.328-13.312-19.388-26.056-33.646-34.365
				c-13.488-7.86-30.437-11.427-45.215-5.034c4.175,4.024,8.35,8.049,12.525,12.073c6.086-31.681-12.655-64.872-43.446-75.175
				c-29.407-9.84-64.548,5.739-78.064,33.312C1263.219,730.436,1280.654,740.247,1286.326,728.674L1286.326,728.674z"/>
		</g>
	</g>
</g>
<g id="_NUMEROS">
	<rect x="448.678" y="281.048" fill="none" width="29.241" height="27.688"/>
	<text transform="matrix(1 0 0 1 448.6777 291.248)" font-family="'NectoMono-Regular'" font-size="12px">1.</text>
	<rect x="420.086" y="663.412" fill="none" width="29.241" height="27.688"/>
	<text transform="matrix(1 0 0 1 420.0864 673.6116)" font-family="'NectoMono-Regular'" font-size="12px">2.</text>
	<rect x="1271.086" y="760.412" fill="none" width="29.241" height="27.688"/>
	<text transform="matrix(1 0 0 1 1271.0859 770.6116)" font-family="'NectoMono-Regular'" font-size="12px">4.</text>
	<rect x="1044.086" y="407.412" fill="none" width="29.241" height="27.688"/>
	<text transform="matrix(1 0 0 1 1044.0858 417.6116)" font-family="'NectoMono-Regular'" font-size="12px">3.</text>
</g>
</svg>
