<?xml version="1.0" encoding="UTF-8"?><svg xmlns="http://www.w3.org/2000/svg" viewBox="0 0 1159.241 983.989"><g id="FRAGMENTS"><g id="DECOUPAGE_AQUA_008_N5_FRAG_01"><path d="M45.237,542.894c-1.693-7.663,6.216-13.11,13.038-14.008,8.537-1.123,17.295,2.593,25.406,4.647,12.814,3.245,29.698,3.198,37.341-9.683,3.256-5.487-4.71-11.545-7.991-6.014-9.506,16.021-33.355,2.926-46.729,1.265-14.555-1.807-34.851,7.658-30.951,25.315,1.38,6.246,11.279,4.786,9.886-1.522h0Z" fill="#c6e1ca"/></g><g id="DECOUPAGE_AQUA_008_N5_FRAG_02"><path d="M30.499,385.898c24.537-.905,49.183,5.322,70.348,17.769,5.496,3.232,11.556-4.733,6.014-7.991-23.719-13.948-50.389-20.678-77.885-19.664-6.411,.237-4.854,10.121,1.522,9.886h0Z" fill="#52b378"/></g><g id="DECOUPAGE_AQUA_008_N5_FRAG_03"><path d="M83.733,182.152c-1.898,31.916,9.449,63.795,31.561,86.978,4.411,4.625,12.291-1.54,7.843-6.203-20.288-21.27-31.221-50.207-29.472-79.615,.381-6.397-9.55-7.599-9.933-1.16h0Z" fill="#b6e565"/></g><g id="DECOUPAGE_AQUA_008_N5_FRAG_04"><path d="M150.291,31.989c-17.734-1.309-35.534,4.923-48.046,17.697-12.542,12.805-18.377,30.718-16.711,48.458,.601,6.404,10.487,4.878,9.886-1.522-2.892-30.797,22.906-56.975,53.712-54.7,6.4,.473,7.593-9.457,1.16-9.933h0Z" fill="#b0dad4"/></g><g id="DECOUPAGE_AQUA_008_N5_FRAG_05"><path d="M222.683,105.201c-1.112,12.198,4.429,24.791,15.063,31.278,11.194,6.828,25.049,5.94,35.833-1.162,5.381-3.544-.86-11.362-6.203-7.843-15.899,10.47-36.459-2.477-34.76-21.113,.583-6.399-9.347-7.583-9.933-1.16h0Z" fill="#3db2af"/></g><g id="DECOUPAGE_AQUA_008_N5_FRAG_06"><path d="M298.744,247.239c-5.466-9.235-12.214-19.894-10.739-31.118,1.429-10.87,9.768-17.122,20.553-13.92,10.601,3.148,20.306,10.588,28.727,17.528,8.457,6.969,16.189,14.742,23.768,22.641,27.146,28.291,57.743,62.356,100.54,60.56,19.134-.803,38.599-9.649,48.465-26.639,3.199-5.509-4.764-11.571-7.991-6.014-9.258,15.943-27.511,23.225-45.438,22.784-21.458-.528-40.383-12.12-56.267-25.691-17.216-14.709-31.554-32.389-48.126-47.779-8.28-7.689-17.127-14.813-26.916-20.502-9.263-5.383-20.472-10.457-31.245-6.452-9.496,3.531-15.034,13.312-16.091,23.012-1.411,12.948,5.25,24.872,11.6,35.601,3.235,5.466,12.442,1.531,9.162-4.012h0Z" fill="#4cd36f"/></g><g id="DECOUPAGE_AQUA_008_N5_FRAG_07"><path d="M457.398,389.516c12.855,.971,23.26,11.039,24.668,23.852,.604,5.494,9.8,5.526,9.909-.181,.368-19.218,4.656-37.764,12.814-55.171,2.737-5.84-6.547-9.566-9.269-3.759-8.486,18.105-13.094,37.777-13.477,57.77l9.909-.181c-1.871-17.027-16.317-30.973-33.394-32.262-6.4-.483-7.592,9.447-1.16,9.933h0Z" fill="#b0dad4"/></g><g id="DECOUPAGE_AQUA_008_N5_FRAG_08"><path d="M558.492,600.825c2.775-8.422,12.413-11.493,20.564-9.96,10.769,2.024,19.345,10.813,26.91,18.105,3.797,3.66,9.372-1.759,7.588-6.002-11.902-28.297-22.884-56.975-32.865-86.006-4.881-14.197-10.999-28.9-12.702-43.905-1.358-11.97,1.822-26.247,13.493-32.109,5.727-2.877,1.761-12.061-4.012-9.162-11.617,5.835-18.365,17.838-19.573,30.577-1.55,16.333,4.816,32.392,9.897,47.594,10.961,32.793,23.194,65.151,36.599,97.023l7.588-6.002c-9.779-9.427-21.17-19.847-35.531-20.434-11.373-.464-23.481,5.151-27.228,16.522-2.007,6.09,7.254,9.876,9.269,3.759h0Z" fill="#c6e1ca"/></g><g id="DECOUPAGE_AQUA_008_N5_FRAG_09"><path d="M531.754,698.378c-1.97,17.231-3.936,35.981,3.865,52.147,3.076,6.375,7.465,12.241,13.084,16.592,5.915,4.581,12.339,6.285,19.581,7.428,3.571,.564,6.196,1.341,7.404,5.011,1.08,3.282,1.124,6.88,1.99,10.226,1.684,6.508,5.905,11.634,12.716,13.009,16.113,3.252,27.325-14.125,34.54-25.768,10.096-16.291,16.725-34.35,19.704-53.276,1.001-6.362-8.933-7.51-9.933-1.16-2.28,14.487-6.902,28.433-13.746,41.411-3.375,6.4-7.36,12.491-11.78,18.217-3.721,4.819-8.81,11.468-15.656,10.936-6.575-.511-6.425-7.64-7.396-12.645-1.076-5.549-3.23-10.707-8.427-13.52-5.412-2.93-11.879-2.111-17.478-4.546-5.548-2.412-10.005-6.907-13.24-11.946-9.646-15.028-7.216-34.163-5.295-50.957,.731-6.392-9.2-7.564-9.933-1.16h0Z" fill="#52b378"/></g><g id="DECOUPAGE_AQUA_008_N5_FRAG_010"><path d="M622.007,276.573c-.246-3.899,7.584-2.415,9.211-.899,5.24,4.882,4.094,14.935,4.129,21.352,.093,17.357,1.324,34.691,3.836,51.868,4.002,27.37,10.734,65.134,42.414,73.123,28.596,7.211,48.66-20.735,59.79-42.782,14.548-28.817,24.456-59.687,31.894-91.032,8.502-35.825,13.659-72.327,18.751-108.76,.891-6.377-9.042-7.535-9.933-1.16-9.061,64.834-18.364,131.099-46.836,190.782-10.183,21.346-32.639,58.261-60.914,38.853-13.216-9.072-18.483-24.952-21.647-39.938-3.655-17.308-5.874-34.96-6.873-52.617-.535-9.45-.153-18.93-.71-28.367-.411-6.977-2.282-14.76-7.929-19.42-9.149-7.55-25.891-2.527-25.069,10.519,.404,6.413,10.289,4.87,9.886-1.522h0Z" fill="#b6e565"/></g><g id="DECOUPAGE_AQUA_008_N5_FRAG_011"><path d="M851.294,98.011c-4.722,13.501-12.815,25.178-23.916,34.215-4.994,4.065,1.202,11.915,6.203,7.843,12.373-10.073,21.71-23.229,26.982-38.3,2.121-6.064-7.142-9.84-9.269-3.759h0Z" fill="#b0dad4"/></g><g id="DECOUPAGE_AQUA_008_N5_FRAG_012"><path d="M901.076,57.421c7.035-10.327,7.065-22.481,11.514-33.766,4.103-10.409,14.798-19.265,24.134-8.732,3.929,4.433,6.457,9.893,9.074,15.148,3.231,6.489,6.318,13.05,9.262,19.674,6.018,13.54,11.404,27.346,16.221,41.358,2.091,6.084,11.246,2.051,9.162-4.012-5.534-16.099-11.828-31.924-18.948-47.388-3.47-7.536-6.957-15.174-11.072-22.385-3.026-5.302-6.606-10.508-11.783-13.921-11.185-7.375-24.048-1.909-31.022,8.405-8.132,12.026-6.442,27.729-14.532,39.604-3.62,5.313,4.362,11.341,7.991,6.014h0Z" fill="#4cd36f"/></g><g id="DECOUPAGE_AQUA_008_N5_FRAG_013"><path d="M1011.306,216.11c14.054,5.443,29.039,7.158,43.959,5.018,6.364-.913,4.865-10.802-1.522-9.886-13.176,1.89-26.264,.406-38.678-4.402-6.005-2.326-9.765,6.944-3.759,9.269h0Z" fill="#b0dad4"/></g><g id="DECOUPAGE_AQUA_008_N5_FRAG_014"><path d="M1038.467,328.067c7.655-15.263,27.438-21.843,42.878-15.078,5.908,2.588,9.646-6.69,3.759-9.269-20.705-9.072-45.87,.578-55.906,20.589-2.89,5.762,6.402,9.475,9.269,3.759h0Z" fill="#c6e1ca"/></g><g id="DECOUPAGE_AQUA_008_N5_FRAG_015"><path d="M1063.8,417.002c7.009-1.407,13.032-4.793,19.512-7.624,5.69-2.486,14.452-5.072,19.023,.806,4.456,5.731,2.296,13.662-.356,19.624-3.199,7.192-7.374,14.024-11.136,20.931-16.235,29.812-32.469,59.624-48.704,89.435-1.802,3.309,1.909,7.594,5.396,6.822,14.117-3.125,28.235-6.25,42.352-9.375,6.245-1.382,4.785-11.282-1.522-9.886-14.117,3.125-28.235,6.25-42.352,9.375,1.799,2.274,3.597,4.548,5.396,6.822,18.74-34.412,37.59-68.767,56.219-103.239,6.6-12.212,12.502-30.478-1.326-40.428-14.673-10.559-29.811,3.997-44.024,6.85-6.283,1.261-4.813,11.158,1.522,9.886h0Z" fill="#52b378"/></g><g id="DECOUPAGE_AQUA_008_N5_FRAG_016"><path d="M1039.987,621.716c11.898,7.772,21.787,17.682,29.557,29.578,3.523,5.393,11.341-.849,7.843-6.203-8.184-12.529-18.858-23.182-31.386-31.366-5.372-3.509-11.409,4.468-6.014,7.991h0Z" fill="#4cd36f"/></g><g id="DECOUPAGE_AQUA_008_N5_FRAG_017"><path d="M989.466,711.154c9.468,8.505,18.937,17.009,28.405,25.514,4.797,4.309,10.769-3.72,6.014-7.991-9.468-8.505-18.937-17.009-28.405-25.514-4.797-4.309-10.769,3.72-6.014,7.991h0Z" fill="#3db2af"/></g><g id="DECOUPAGE_AQUA_008_N5_FRAG_018"><path d="M900.264,808.999c12.915-8.058,31.388-.544,36.423,13.288,2.202,6.048,11.359,2.025,9.162-4.012-7.446-20.455-33.747-28.375-51.788-17.119-5.459,3.406,.794,11.218,6.203,7.843h0Z" fill="#b6e565"/></g><g id="DECOUPAGE_AQUA_008_N5_FRAG_019"><path d="M765.533,907.378c5.784,16.204,24.848,21.591,40.018,16.269,18.553-6.509,28.539-24.612,37.1-40.994,2.983-5.708-6.314-9.414-9.269-3.759-6.67,12.763-14.081,27.086-27.579,33.788-11.105,5.514-26.459,3.705-31.108-9.317-2.164-6.061-11.32-2.035-9.162,4.012h0Z" fill="#b6e565"/></g><g id="DECOUPAGE_AQUA_008_N5_FRAG_020"><path d="M469.661,930.038c23.293,21.93,57.623,22.362,87.241,16.788,34.102-6.418,70.007-20.87,104.666-9.499,6.092,1.999,9.879-7.262,3.759-9.269-33.616-11.029-67.6-.251-100.736,6.994-29.799,6.515-64.846,9.655-88.915-13.005-4.689-4.414-10.653,3.624-6.014,7.991h0Z" fill="#c6e1ca"/></g><g id="DECOUPAGE_AQUA_008_N5_FRAG_021"><path d="M169.001,723.218c18.879,29.709,34.576,61.331,47.01,94.257,1.324,3.506,6.458,3.956,8.576,1.001,7.593-10.59,23.54-8.913,33.083-1.957,12.57,9.162,17.701,25.58,22.696,39.577,4.843,13.572,10.384,27.472,21.059,37.581,9.455,8.954,22.26,12.757,35.127,11.425,13.951-1.444,27.394-9.107,34.601-21.299,3.246-5.491-4.719-11.549-7.991-6.014-6.415,10.852-18.069,17.166-30.6,17.611-14.182,.503-25.36-7.542-32.544-19.326-14.413-23.64-15.65-61.191-45.384-72.456-13.144-4.98-29.392-3.214-38.037,8.843l8.576,1.001c-12.745-33.75-28.981-66.004-48.328-96.449-3.453-5.433-11.267,.815-7.843,6.203h0Z" fill="#3db2af"/></g></g><g id="_NUMEROS"><text transform="translate(11 561.788)" font-family="NectoMono-Regular, &apos;Necto Mono&apos;" font-size="12"><tspan x="0" y="0">1.</tspan></text><text transform="translate(339 924.788)" font-family="NectoMono-Regular, &apos;Necto Mono&apos;" font-size="12"><tspan x="0" y="0">21.</tspan></text><text transform="translate(0 400.788)" font-family="NectoMono-Regular, &apos;Necto Mono&apos;" font-size="12"><tspan x="0" y="0">2.</tspan></text><text transform="translate(56 96.788)" font-family="NectoMono-Regular, &apos;Necto Mono&apos;" font-size="12"><tspan x="0" y="0">4.</tspan></text><text transform="translate(59 243.788)" font-family="NectoMono-Regular, &apos;Necto Mono&apos;" font-size="12"><tspan x="0" y="0">3.</tspan></text><text transform="translate(234 85.788)" font-family="NectoMono-Regular, &apos;Necto Mono&apos;" font-size="12"><tspan x="0" y="0">5.</tspan></text><text transform="translate(328 178.788)" font-family="NectoMono-Regular, &apos;Necto Mono&apos;" font-size="12"><tspan x="0" y="0">6.</tspan></text><text transform="translate(517 352.788)" font-family="NectoMono-Regular, &apos;Necto Mono&apos;" font-size="12"><tspan x="0" y="0">7.</tspan></text><text transform="translate(539 500.788)" font-family="NectoMono-Regular, &apos;Necto Mono&apos;" font-size="12"><tspan x="0" y="0">8.</tspan></text><text transform="translate(547 677.788)" font-family="NectoMono-Regular, &apos;Necto Mono&apos;" font-size="12"><tspan x="0" y="0">9.</tspan></text><text transform="translate(869 33.788)" font-family="NectoMono-Regular, &apos;Necto Mono&apos;" font-size="12"><tspan x="0" y="0">12.</tspan></text><text transform="translate(1040 184.788)" font-family="NectoMono-Regular, &apos;Necto Mono&apos;" font-size="12"><tspan x="0" y="0">13.</tspan></text><text transform="translate(1103 294.788)" font-family="NectoMono-Regular, &apos;Necto Mono&apos;" font-size="12"><tspan x="0" y="0">14.</tspan></text><text transform="translate(1130 411.788)" font-family="NectoMono-Regular, &apos;Necto Mono&apos;" font-size="12"><tspan x="0" y="0">15.</tspan></text><text transform="translate(1095 658.788)" font-family="NectoMono-Regular, &apos;Necto Mono&apos;" font-size="12"><tspan x="0" y="0">16.</tspan></text><text transform="translate(1044 753.788)" font-family="NectoMono-Regular, &apos;Necto Mono&apos;" font-size="12"><tspan x="0" y="0">17.</tspan></text><text transform="translate(954 854.788)" font-family="NectoMono-Regular, &apos;Necto Mono&apos;" font-size="12"><tspan x="0" y="0">18.</tspan></text><text transform="translate(849 910.788)" font-family="NectoMono-Regular, &apos;Necto Mono&apos;" font-size="12"><tspan x="0" y="0">19.</tspan></text><text transform="translate(640 964.788)" font-family="NectoMono-Regular, &apos;Necto Mono&apos;" font-size="12"><tspan x="0" y="0">20.</tspan></text><text transform="translate(801 118.788)" font-family="NectoMono-Regular, &apos;Necto Mono&apos;" font-size="12"><tspan x="0" y="0">11.</tspan></text><text transform="translate(692 444.788)" font-family="NectoMono-Regular, &apos;Necto Mono&apos;" font-size="12"><tspan x="0" y="0">10.</tspan></text></g></svg>