<?xml version="1.0" encoding="utf-8"?>
<!-- Generator: Adobe Illustrator 27.0.0, SVG Export Plug-In . SVG Version: 6.00 Build 0)  -->
<svg version="1.1" xmlns="http://www.w3.org/2000/svg" xmlns:xlink="http://www.w3.org/1999/xlink" x="0px" y="0px"
	 viewBox="0 0 1920 1080" enable-background="new 0 0 1920 1080" xml:space="preserve">
<g id="FRAGMENTS">
	<g id="DECOUPAGE_x5F_CLAN_x5F_009_x5F_N5_x5F_FRAG_x5F_01">
		<g>
			<path fill="#F09C5E" d="M741.493,420.515c-7.143-12.937-17.659-23.787-30.212-31.562c-13.799-8.546-29.298-11.777-45.29-13.012
				c-15.554-1.2-31.956-0.34-46.739-6.171c-12.868-5.076-23.096-14.92-29.575-27.001c-6.085-11.346-23.159-0.923-17.081,10.41
				c7.072,13.187,18.138,24.329,31.346,31.403c14.907,7.984,31.526,9.665,48.137,10.539c15.076,0.793,30.488,1.262,44.198,8.326
				c12.045,6.206,21.597,15.637,28.135,27.478C730.636,442.197,747.716,431.786,741.493,420.515L741.493,420.515z"/>
		</g>
	</g>
	<g id="DECOUPAGE_x5F_CLAN_x5F_009_x5F_N5_x5F_FRAG_x5F_02_00000048464962901395407170000012396857112707248024_">
		<g>
			<path fill="#F47516" d="M796.808,410.878c1.085-21.692,1.682-43.397-0.237-65.066c-2.366-26.702-7.58-56.067-23.985-78.075
				c-9.305-12.482-21.528-21.649-36.605-25.927c2.403,4.057,4.806,8.114,7.21,12.171c6.249-26.382-3.449-54.509-17.519-76.74
				c-16.27-25.709-40.207-46.775-68.756-57.654c-31.057-11.834-65.287-7.338-93.316,10.105
				c-27.849,17.331-44.587,46.307-42.479,79.392c0.947,14.86,5.022,29.163,11.25,42.633c4.311,9.323,9.939,19.195,17.795,26.009
				c9.7,8.414,23.627-5.945,13.88-14.4c-1.041-0.903-2.016-1.87-2.944-2.889c-0.537-0.59-1.044-1.205-1.562-1.811
				c1.93,2.261-0.387-0.556-0.815-1.149c-2.605-3.605-4.889-7.444-6.937-11.39c-0.54-1.041-1.063-2.09-1.57-3.148
				c-0.263-0.549-1.533-3.403-0.834-1.782c-1.134-2.631-2.168-5.306-3.1-8.015c-1.814-5.273-3.193-10.658-4.229-16.135
				c-0.295-1.559-0.638-4.229-0.864-7.235c-0.227-3.015-0.305-6.041-0.219-9.064c0.167-5.885,0.809-10.317,2.699-16.714
				c3.468-11.734,11.337-22.874,21.552-31.11c11.632-9.378,25.804-15.914,40.439-18.804c12.284-2.426,25.119-1.502,37.295,1.906
				c24.093,6.743,45.784,23.914,60.41,43.981c8.474,11.626,14.587,23.093,18.486,36.343c0.872,2.964,1.614,5.967,2.199,9.001
				c0.525,2.725,0.216,0.527,0.524,3.256c0.164,1.451,0.311,2.902,0.405,4.36c0.193,2.989,0.155,5.961,0.011,8.951
				c-0.029,0.61-0.091,1.224-0.149,1.832c0.213-2.23-0.109,0.699-0.151,0.936c-0.257,1.468-0.539,2.921-0.883,4.372
				c-1.27,5.36,1.929,10.672,7.21,12.171c5.123,1.454,8.772,3.101,14.117,6.726c2.464,1.671-0.813-0.681,0.578,0.419
				c0.61,0.483,1.214,0.972,1.806,1.478c0.947,0.809,1.868,1.65,2.762,2.518c0.897,0.871,1.767,1.772,2.609,2.696
				c0.53,0.581,1.042,1.176,1.554,1.772c0.443,0.533,0.409,0.479-0.101-0.162c0.296,0.373,0.586,0.75,0.871,1.131
				c7.585,10.241,11.255,19.064,14.723,31.053c6.797,23.501,8.139,47.509,7.915,72.784c-0.088,9.891-0.549,19.765-1.043,29.642
				c-0.27,5.4,5.044,9.909,10.182,9.814C792.713,420.955,796.537,416.294,796.808,410.878L796.808,410.878z"/>
		</g>
	</g>
	<g id="DECOUPAGE_x5F_CLAN_x5F_009_x5F_N5_x5F_FRAG_x5F_03_00000050642934061976698160000007222320763490258073_">
		<g>
			<path fill="#FFDD92" d="M836.717,458.055c4.801-4.9,11.946-12.875,19.564-12.22c5.139,0.441,9.643,7.171,13.336,11.15
				c5.137,5.535,11.23,10.418,18.869,11.703c9.449,1.59,17.611-2.47,25.835-6.531c2.52-1.244,5.257-2.599,8.044-2.907
				c1.967-0.217,1.474-0.228,3.061,0.287c0.063,0.021,1.567,0.616,2.861,1.37c3.842,2.238,8.857,8.275,12.81,12.331
				c4.988,5.117,10.617,9.716,17.526,11.901c8.912,2.819,17-0.443,25.215-3.672c4.344-1.707,7.195-2.177,11.655-0.755
				c5.608,1.787,11.06,4.204,16.542,6.341c11.883,4.631,23.765,9.263,35.648,13.894c5.034,1.962,10.951-2.428,12.171-7.21
				c1.471-5.767-2.156-10.201-7.209-12.171c-10.969-4.275-21.937-8.55-32.906-12.825c-9.561-3.727-20.198-9.683-30.758-9.022
				c-4.868,0.305-9.253,1.918-13.706,3.765c-1.905,0.79-3.814,1.683-5.811,2.217c-0.05,0.013-1.325,0.443-1.828,0.516
				c-0.094,0.013-3.56-0.207-2.046,0.064c-1.826-0.328-4.085-1.541-5.27-2.464c-2.675-2.085-5.013-4.613-7.337-7.071
				c-4.801-5.077-9.633-10.411-15.837-13.825c-7.805-4.295-16.789-4.687-25.082-1.526c-5.806,2.213-13.562,8.361-19.883,7.705
				c-4.932-0.512-9.825-7.99-13.794-12.097c-7.534-7.798-17.029-12.565-28.076-10.627c-11.212,1.967-20.273,9.92-27.993,17.8
				C813.295,453.384,827.698,467.261,836.717,458.055L836.717,458.055z"/>
		</g>
	</g>
	<g id="DECOUPAGE_x5F_CLAN_x5F_009_x5F_N5_x5F_FRAG_x5F_04_00000030455288718134498810000001478487508610139289_">
		<g>
			<path fill="#F47516" d="M1120.041,419.594c6.275-66.634,38.163-129.855,87.034-175.366c9.439-8.79-5-22.633-14.4-13.88
				c-40.794,37.99-70.27,87.851-84.376,141.757c-4.109,15.703-6.733,31.703-8.254,47.856c-0.507,5.385,5.213,9.906,10.182,9.814
				C1116.135,429.668,1119.532,424.995,1120.041,419.594L1120.041,419.594z"/>
		</g>
	</g>
	<g id="DECOUPAGE_x5F_CLAN_x5F_009_x5F_N5_x5F_FRAG_x5F_05_00000038377447814636678900000008672437238071070143_">
		<g>
			<path fill="#F09C5E" d="M1426.007,167.166c-13.13-23.565-39.242-36.825-65.624-38.235c-30.352-1.622-59.67,12.238-82.994,30.648
				c-13.846,10.929-26.276,23.345-38.349,36.171c-8.829,9.378,5.559,23.271,14.4,13.88c22.956-24.385,48.218-49.199,81.564-58.004
				c27.218-7.187,59.41-0.095,73.923,25.951C1415.193,188.824,1432.275,178.417,1426.007,167.166L1426.007,167.166z"/>
		</g>
	</g>
	<g id="DECOUPAGE_x5F_CLAN_x5F_009_x5F_N5_x5F_FRAG_x5F_06_00000096024834929477706690000008331978860405502385_">
		<g>
			<path fill="#FC2627" d="M1407.171,286.282c1.594,18.14-5.129,35.716-17.562,48.923c-5.835,6.198-12.779,11.396-20.552,14.931
				c-4.175,1.899-8.766,3.277-13.274,4.099c-4.571,0.834-9.287,0.785-13.665,2.509c-6.152,2.423-10.279,7.504-11.37,14.031
				c-0.839,5.022-0.121,9.954-1.42,14.925c-2.147,8.215-7.529,14.964-13.676,20.656c-14.735,13.645-34.651,21.161-53.262,27.761
				c-26.411,9.367-53.851,15.869-81.684,19.145c-5.364,0.631-9.921,4.398-9.814,10.182c0.092,4.994,4.786,10.45,10.182,9.814
				c26.575-3.129,52.81-8.652,78.251-16.979c21.943-7.182,44.922-15.553,63.338-29.86c8.228-6.392,15.723-13.827,20.859-22.99
				c2.539-4.53,4.581-9.618,5.649-14.707c0.55-2.623,0.881-5.333,1.06-8.003c0.062-0.922,0.088-1.837,0.108-2.759
				c-0.009-1.088-0.008-2.177,0.003-3.265c0.187-1.123-0.256-0.848-1.33,0.826c0.389,0.142,3.779-0.815,4.247-0.871
				c2.74-0.325,5.485-0.704,8.194-1.232c5.029-0.98,9.857-2.612,14.547-4.658c9.934-4.336,18.896-10.466,26.545-18.168
				c16.726-16.843,26.719-40.823,24.623-64.68c-0.473-5.381-4.512-9.919-10.182-9.814
				C1411.863,276.194,1406.695,280.873,1407.171,286.282L1407.171,286.282z"/>
		</g>
	</g>
	<g id="DECOUPAGE_x5F_CLAN_x5F_009_x5F_N5_x5F_FRAG_x5F_07_00000103228498748905555120000008005852177110487168_">
		<g>
			<path fill="#FFDD92" d="M1022.056,589.018c-7.999,0.817-15.999,1.633-23.998,2.45c-5.373,0.549-9.92,4.457-9.814,10.182
				c0.093,5.061,4.779,10.366,10.182,9.814c7.999-0.817,15.999-1.633,23.998-2.45c5.373-0.548,9.92-4.457,9.814-10.182
				C1032.145,593.771,1027.459,588.466,1022.056,589.018L1022.056,589.018z"/>
		</g>
	</g>
	<g id="DECOUPAGE_x5F_CLAN_x5F_009_x5F_N5_x5F_FRAG_x5F_08_00000152233798432822970710000000459496775980157588_">
		<g>
			<path fill="#FFB27D" d="M897.79,601.777c1.353,27.352,3.291,56.87-8.326,82.495c-4.952,10.925-11.997,20.887-21.83,27.941
				c-10.095,7.242-21.546,11.766-33.373,15.315c-22.281,6.686-52.334,8.313-59.066,35.451c-5.737,23.125,8.295,46.425,29.096,56.177
				c13.201,6.189,27.729,8.197,42.195,8.43c13.277,0.214,29.518-1.633,33.724-16.706c-6.427,0.118-12.855,0.237-19.282,0.355
				c6.102,19.889,30.155,29.67,48.903,21.453c19.755-8.659,27.788-33.742,20.384-53.281c-1.913-5.048-6.969-8.366-12.428-6.757
				c-4.889,1.441-8.68,7.353-6.757,12.428c3.758,9.917,1.999,24.053-8.794,29.212c-7.709,3.685-19.515-0.223-22.123-8.725
				c-2.923-9.528-16.635-9.132-19.282,0.355c0.2-0.718-0.26,0.221-1.121,0.577c-1.073,0.443-3.03,0.773-4.119,0.9
				c-5.44,0.636-11.237,0.263-16.686-0.091c-10.51-0.683-21.255-2.951-30.304-8.543c-12.34-7.626-20.843-27.783-9.889-38.436
				c7.086-6.891,19.44-7.827,28.601-10.155c11.911-3.027,23.607-6.629,34.79-11.775c21.58-9.93,37.77-26.802,46.709-48.82
				c11.385-28.043,10.445-58.485,8.977-88.166C917.152,588.579,897.153,588.891,897.79,601.777L897.79,601.777z"/>
		</g>
	</g>
	<g id="DECOUPAGE_x5F_CLAN_x5F_009_x5F_N5_x5F_FRAG_x5F_09_00000070808266409321754570000000968519708135014061_">
		<g>
			<path fill="#FCC00B" d="M824.46,931.739c39.036,19.254,85.697,21.479,126.063,4.816c4.989-2.059,8.398-6.86,6.757-12.428
				c-1.405-4.768-7.408-8.829-12.428-6.757c-35.441,14.63-76.102,13.94-110.618-3.084
				C822.709,908.602,812.901,926.037,824.46,931.739L824.46,931.739z"/>
		</g>
	</g>
</g>
<g id="_NUMEROS">
	<rect x="704.086" y="435.412" fill="none" width="29.241" height="27.688"/>
	<text transform="matrix(1 0 0 1 704.0859 445.6116)" font-family="'NectoMono-Regular'" font-size="12px">1.</text>
	<rect x="523.086" y="286.412" fill="none" width="29.241" height="27.688"/>
	<text transform="matrix(1 0 0 1 523.0864 296.6116)" font-family="'NectoMono-Regular'" font-size="12px">2.</text>
	<rect x="1078.086" y="408.412" fill="none" width="21.914" height="27.688"/>
	<text transform="matrix(1 0 0 1 1078.0859 418.6116)" font-family="'NectoMono-Regular'" font-size="12px">4.</text>
	<rect x="839.086" y="397.412" fill="none" width="29.241" height="27.688"/>
	<text transform="matrix(1 0 0 1 839.0859 407.6116)" font-family="'NectoMono-Regular'" font-size="12px">3.</text>
	<rect x="1218.086" y="185.412" fill="none" width="29.241" height="27.688"/>
	<text transform="matrix(1 0 0 1 1218.0859 195.6116)" font-family="'NectoMono-Regular'" font-size="12px">5.</text>
	<rect x="1436.086" y="272.412" fill="none" width="29.241" height="27.688"/>
	<text transform="matrix(1 0 0 1 1436.0859 282.6116)" font-family="'NectoMono-Regular'" font-size="12px">6.</text>
	<rect x="1044.086" y="587.412" fill="none" width="29.241" height="27.688"/>
	<text transform="matrix(1 0 0 1 1044.0859 597.6116)" font-family="'NectoMono-Regular'" font-size="12px">7.</text>
	<rect x="899.086" y="569.412" fill="none" width="29.241" height="27.688"/>
	<text transform="matrix(1 0 0 1 899.0859 579.6116)" font-family="'NectoMono-Regular'" font-size="12px">8.</text>
	<rect x="969.086" y="916.412" fill="none" width="29.241" height="27.688"/>
	<text transform="matrix(1 0 0 1 969.0859 926.6116)" font-family="'NectoMono-Regular'" font-size="12px">9.</text>
	<g>
		<g>
			<path fill="#F09C5E" d="M-77.933-1118.86c15.959-1.306,31.566-6.631,44.465-16.255c12.606-9.407,21.522-21.66,28.878-35.429
				c6.717-12.574,12.372-26.275,22.194-36.837c9.78-10.517,23.403-16.956,37.716-17.949c12.793-0.887,12.503-20.889-0.368-19.997
				c-16.52,1.146-31.969,7.122-44.794,17.62c-11.77,9.634-19.483,22.786-26.371,36.125c-6.62,12.821-12.854,25.968-23.587,35.933
				c-10.421,9.676-24.366,15.635-38.502,16.792c-5.384,0.441-9.918,4.535-9.814,10.182
				C-88.021-1123.526-83.344-1118.417-77.933-1118.86L-77.933-1118.86z"/>
		</g>
	</g>
	<g id="DECOUPAGE_x5F_CLAN_x5F_009_x5F_N5_x5F_FRAG_x5F_02">
		<g>
			<path fill="#F47516" d="M142.106-1261.177c5.377-12.942,15.378-23.891,28.77-28.728c14.855-5.365,30.825-3.193,44.1,5.171
				c5.012,3.158,13.725,0.048,14.578-6.246c5.295-39.069,38.291-72.722,78.056-76.399c5.378-0.497,9.919-4.494,9.814-10.182
				c-0.094-5.102-4.775-10.314-10.182-9.814c-47.975,4.436-90.529,43.185-97.069,91.435c4.859-2.082,9.718-4.164,14.578-6.246
				c-35.233-22.199-84.02-7.462-100.097,31.235c-2.07,4.983-1.256,10.758,3.839,13.614
				C132.776-1254.938,140.023-1256.163,142.106-1261.177L142.106-1261.177z"/>
		</g>
	</g>
	<g id="DECOUPAGE_x5F_CLAN_x5F_009_x5F_N5_x5F_FRAG_x5F_03">
		<g>
			<path fill="#FFDD92" d="M391.979-1452.836c3.15-5.812,7.06-13.752,13.457-16.628c5.376-2.417,10.97,2.042,15.623,4.939
				c6.903,4.298,14.538,8.392,22.96,7.639c8.731-0.781,15.335-5.763,21.619-11.442c2.387-2.157,4.537-4.363,7.245-6.003
				c2.057-1.246,4.209-1.764,5.35-1.649c6.135,0.614,11.874,5.165,17.437,8.399c6.741,3.919,14.213,7.422,22.198,7.177
				c9.068-0.277,15.363-5.354,22.24-10.551c3.635-2.748,6.217-3.934,10.789-3.807c5.882,0.164,11.79,1.011,17.646,1.563
				c12.697,1.197,25.394,2.393,38.091,3.589c5.385,0.508,9.906-5.213,9.814-10.182c-0.109-5.909-4.781-9.305-10.182-9.814
				c-11.72-1.104-23.441-2.209-35.161-3.313c-10.366-0.977-22.557-3.899-32.62-0.071c-4.321,1.644-7.844,4.189-11.428,7.039
				c-2.638,2.098-5.411,4.753-8.786,5.487c-0.045,0.01-2.586,0.006-2.042,0.081c-1.5-0.208-3.033-0.683-4.436-1.247
				c-2.328-0.935-6.312-3.376-9.071-5.02c-6.429-3.83-13.13-7.803-20.662-8.861c-9.658-1.357-17.767,2.187-25.108,8.241
				c-4.443,3.664-9.936,10.312-14.586,10.476c-5.686,0.201-12.485-6.132-17.884-8.957c-9.652-5.05-20.332-6.047-30.028-0.464
				c-9.056,5.214-15.072,14.649-19.926,23.604C368.384-1451.28,385.839-1441.508,391.979-1452.836L391.979-1452.836z"/>
		</g>
	</g>
	<g id="DECOUPAGE_x5F_CLAN_x5F_009_x5F_N5_x5F_FRAG_x5F_04">
		<g>
			<path fill="#F47516" d="M671.695-1296.162c63.832-19.728,134.37-15.647,195.268,12.049c4.913,2.234,10.819,1.147,13.614-3.839
				c2.471-4.409,1.099-11.368-3.839-13.614c-65.815-29.932-141.551-35.158-210.714-13.781
				C653.751-1311.553,659.354-1292.348,671.695-1296.162L671.695-1296.162z"/>
		</g>
	</g>
	<g id="DECOUPAGE_x5F_CLAN_x5F_009_x5F_N5_x5F_FRAG_x5F_05">
		<g>
			<path fill="#F09C5E" d="M919.162-1097.778c16.003,22.598,43.965,34.057,71.332,31.752c30.106-2.535,56.716-18.705,78.003-39.377
				c12.339-11.983,23.021-25.515,33.375-39.21c3.254-4.304,3.955-10.077-0.26-14.14c-3.529-3.401-10.865-4.072-14.14,0.26
				c-19.793,26.179-42.094,54.096-73.567,66.519c-26.024,10.272-60.127,8.548-77.662-16.214
				C928.847-1118.631,911.697-1108.319,919.162-1097.778L919.162-1097.778z"/>
		</g>
	</g>
	<g id="DECOUPAGE_x5F_CLAN_x5F_009_x5F_N5_x5F_FRAG_x5F_06">
		<g>
			<path fill="#FC2627" d="M1187.217-1194.165c11.938-12.726,28.806-19.077,46.074-19.123c8.188-0.022,16.45,1.378,24.127,4.387
				c4.082,1.6,8.034,3.781,11.659,6.237c4.304,2.916,7.695,7.12,12.213,9.732c5.737,3.316,12.413,3.786,18.314,0.594
				c4.35-2.353,7.537-6.364,11.825-8.871c7.716-4.512,17.031-5.224,25.769-4.373c20.956,2.04,40.694,12.598,58.779,22.648
				c23.886,13.273,46.18,29.083,66.639,47.192c9.624,8.519,23.543-5.847,13.88-14.4c-19.496-17.256-40.642-32.72-63.109-45.887
				c-20.306-11.9-42.38-23.844-65.767-28.131c-11.022-2.021-22.38-2.467-33.311,0.359c-5.252,1.358-10.559,3.631-15.09,6.622
				c-2.312,1.526-4.478,3.293-6.571,5.101c-0.587,0.507-1.555,1.694-2.281,1.977c-0.278,0.109,1.682,0.482,0.699-0.283
				c-8.154-6.352-15.392-12.505-25.1-16.466c-9.9-4.039-20.336-6.174-31.039-6.417c-23.026-0.522-46.269,8.337-62.109,25.223
				C1164.006-1198.652,1178.392-1184.758,1187.217-1194.165L1187.217-1194.165z"/>
		</g>
	</g>
	<g id="DECOUPAGE_x5F_CLAN_x5F_009_x5F_N5_x5F_FRAG_x5F_07">
		<g>
			<path fill="#FFDD92" d="M1626.658-1298.825c7.192-3.596,14.384-7.192,21.576-10.788c4.83-2.415,5.979-9.411,3.335-13.746
				c-3.007-4.931-8.897-5.759-13.746-3.335c-7.192,3.596-14.384,7.192-21.576,10.788c-4.83,2.415-5.979,9.411-3.335,13.746
				C1615.919-1297.229,1621.81-1296.401,1626.658-1298.825L1626.658-1298.825z"/>
		</g>
	</g>
	<g id="DECOUPAGE_x5F_CLAN_x5F_009_x5F_N5_x5F_FRAG_x5F_08">
		<g>
			<path fill="#FFB27D" d="M1807.577-1133.626c33.792-1.759,60.9,22.311,84.988,42.781c13.056,11.095,26.435,22.193,41.541,30.418
				c14.716,8.013,30.982,13.524,47.556,15.993c19.353,2.883,38.753,2.135,57.799-2.406c12.514-2.984,6.842-22.168-5.671-19.184
				c-30.699,7.321-63.834,2.772-91.378-12.666c-29.505-16.537-51.381-43.632-80.807-60.377
				c-16.531-9.408-35.207-15.553-54.396-14.554C1794.383-1152.955,1794.692-1132.955,1807.577-1133.626L1807.577-1133.626z"/>
		</g>
	</g>
	<g id="DECOUPAGE_x5F_CLAN_x5F_009_x5F_N5_x5F_FRAG_x5F_09">
		<g>
			<path fill="#FCC00B" d="M2129.46-1124.261c39.036,19.254,85.698,21.479,126.063,4.816c4.989-2.059,8.397-6.86,6.757-12.428
				c-1.405-4.768-7.408-8.829-12.428-6.757c-35.441,14.63-76.102,13.94-110.617-3.084
				C2127.709-1147.398,2117.9-1129.963,2129.46-1124.261L2129.46-1124.261z"/>
		</g>
	</g>
</g>
</svg>
