<?xml version="1.0" encoding="utf-8"?>
<!-- Generator: Adobe Illustrator 27.0.0, SVG Export Plug-In . SVG Version: 6.00 Build 0)  -->
<svg version="1.1" xmlns="http://www.w3.org/2000/svg" xmlns:xlink="http://www.w3.org/1999/xlink" x="0px" y="0px"
	 viewBox="0 0 1920 1080" enable-background="new 0 0 1920 1080" xml:space="preserve">
<g id="FRAGMENTS">
	<g id="DECOUPAGE_x5F_GOUR_x5F_003_x5F_N5_x5F_FRAG_x5F_01_00000094608421631964032700000010769446724329000093_">
		<g>
			<path fill="#8252B1" d="M477.928,724.804c0.091-0.798,0.181-1.581,0.334-2.37c0.066-0.459,0.167-0.91,0.304-1.353
				c0.308-0.945,0.219-0.894-0.267,0.155c-0.576,0.261-1.152,0.521-1.728,0.782c0.315-0.09,0.63-0.18,0.945-0.27
				c-1.201-0.291,0.831-0.021,1.328-0.035c3.639-0.101,7.251,0.215,10.866-0.286c5.195-0.72,10.074-2.408,14.298-5.577
				c3.958-2.969,6.798-7.113,10.683-10.094c3.843-2.948,8.57-3.962,12.312-7.222c3.774-3.289,4.927-7.662,7.772-11.527
				c2.422-3.291,6.108-5.73,9.147-8.408c3.738-3.294,7.073-7.135,9.21-11.669c2.302-4.883,1.102-10.844-3.839-13.614
				c-4.461-2.5-11.302-1.066-13.614,3.839c-3.937,8.352-13.594,12.385-18.497,20.289c-1.127,1.817-1.745,4.171-3.12,5.799
				c-1.099,1.301-2.793,1.845-4.368,2.576c-5.21,2.419-9.272,5.698-13.238,9.842c-2.829,2.956-5.316,5.649-9.574,6.144
				c-2.057,0.239-7.092-0.262-10.211,0.017c-5.548,0.495-10.08,2.238-13.654,6.681c-3.962,4.926-4.401,10.632-5.086,16.668
				c-0.61,5.376,5.287,9.904,10.182,9.814C474.105,734.876,477.316,730.196,477.928,724.804L477.928,724.804z"/>
		</g>
	</g>
	<g id="DECOUPAGE_x5F_GOUR_x5F_003_x5F_N5_x5F_FRAG_x5F_02_00000090279102045197001810000012893198668286726328_">
		<g id="DECOUPAGE_x5F_GOUR_x5F_003_x5F_N5_x5F_FRAG_x5F_02">
			<g>
				<path fill="#CD99DA" d="M431.073,630.83c18.059-32.138,59.563-39.321,93.296-39.858c12.869-0.205,12.519-20.202-0.368-19.997
					c-41.153,0.655-88.659,11.424-110.38,50.08C407.303,632.3,424.765,642.057,431.073,630.83L431.073,630.83z"/>
			</g>
		</g>
		<g>
			<g>
				<path fill="#CD99DA" d="M514.522,532.514c-2.635-11.648-3.443-23.518-2.776-35.438c0.676-12.077,4.225-23.757,4.668-35.829
					c0.472-12.871-19.526-12.464-19.997,0.368c-0.215,5.855-1.71,11.504-2.655,17.266c-1.106,6.743-1.81,13.606-2.106,20.432
					c-0.567,13.074,0.796,26.117,3.681,38.872c1.192,5.27,7.488,8.213,12.428,6.757C513.23,543.331,515.718,537.799,514.522,532.514
					L514.522,532.514z"/>
			</g>
		</g>
	</g>
	<g id="DECOUPAGE_x5F_GOUR_x5F_003_x5F_N5_x5F_FRAG_x5F_03_00000041294796355624899500000015695634030886731679_">
		<g>
			<path fill="#AD76FF" d="M585.562,210.956c2.525-5.532,5.262-11.124,6.803-17.031c1.632-6.252,1.192-12.216,0.264-18.535
				c-1.808-12.306-5.473-24.659-5.645-37.156c-0.134-9.696,4.179-19.677,12.78-24.739c8.213-4.834,16.316-2.551,22.453,4.084
				c6.642,7.182,11.189,16.251,16.929,24.141c6.167,8.479,12.977,16.703,21.16,23.318c8.312,6.718,18.01,12.489,28.596,14.693
				c12.842,2.675,27.868,2.502,40.712-0.098c23.839-4.826,45.989-25.511,49.988-49.726c0.879-5.323-1.657-10.754-7.21-12.171
				c-4.884-1.246-11.286,1.853-12.171,7.21c-3.304,20.01-21.484,33.922-41.085,35.818c-10.992,1.063-23.397,1.555-33.68-3.197
				c-8.954-4.138-16.273-10.709-22.733-18.061c-12.648-14.394-20.518-37.33-38.88-45.589c-23.092-10.386-47.265,6.456-54.609,28.507
				c-4.453,13.372-1.178,27.526,1.083,40.966c1.092,6.492,2.499,12.895,3.149,19.45c0.642,6.474-2.732,12.589-5.357,18.34
				c-2.241,4.91-1.142,10.822,3.839,13.614C576.363,217.268,583.31,215.89,585.562,210.956L585.562,210.956z"/>
		</g>
	</g>
	<g id="DECOUPAGE_x5F_GOUR_x5F_003_x5F_N5_x5F_FRAG_x5F_04_00000029018833235684783720000015580991174535907218_">
		<g>
			<path fill="#A41C78" d="M912.959,166.628c22.156-3.507,44.55-4.949,65.634,4.33c9.458,4.163,17.898,10.255,25.344,17.376
				c8.117,7.763,13.94,16.939,20.769,25.757c3.573,4.614,8.387,5.898,13.746,3.335c4.249-2.032,7.408-6.66,10.917-9.733
				c3.933-3.444,8.191-6.506,12.446-9.538c8.728-6.218,17.462-11.396,27.91-14.09c10.556-2.721,21.497-4.549,32.279-6.121
				c5.726-0.835,11.475-1.479,17.246-1.9c2.462-0.18,4.924-0.385,7.388-0.529c1.071-0.063,2.142-0.107,3.214-0.146
				c0.229-0.008,3.508,0.293,2.119-0.135c12.33,3.796,17.227-15.604,4.961-19.38c-4.771-1.469-10.614-0.339-15.52,0.017
				c-6.299,0.458-12.563,1.056-18.818,1.939c-12.306,1.736-24.731,3.727-36.819,6.644c-11.493,2.773-21.841,7.929-31.533,14.624
				c-5.147,3.555-10.179,7.284-15.043,11.217c-2.14,1.73-4.251,3.491-6.273,5.359c-1.381,1.276-3.892,4.219-4.883,4.693
				c4.582,1.112,9.164,2.223,13.745,3.335c-8.018-10.354-14.963-21.258-24.561-30.312c-8.86-8.357-19.126-15.752-30.37-20.519
				c-11.905-5.047-24.523-7.931-37.406-8.969c-14.144-1.14-28.243,1.359-42.161,3.562c-5.339,0.845-8.141,7.731-6.757,12.428
				C902.221,165.605,907.603,167.476,912.959,166.628L912.959,166.628z"/>
		</g>
	</g>
	<g id="DECOUPAGE_x5F_GOUR_x5F_003_x5F_N5_x5F_FRAG_x5F_05_00000070833413633451316800000010940018425686178952_">
		<g>
			<path fill="#EE88F6" d="M704.297,409.873c23.849,8.553,46.113,21.52,65.412,37.919c5.629,4.783,14.677,2.916,16.63-4.719
				c5.506-21.529,10.996-44.721,25.533-62.22c11.555-13.909,28.631-24.006,47.163-19.436c21.266,5.244,24.463,26.464,26.067,45.286
				c2.063,24.199,2.391,49.691,11.863,72.447c8.97,21.55,24.649,40.305,47.653,47.157c12.364,3.683,17.271-15.713,4.961-19.38
				c-18.557-5.528-30.552-23.321-36.18-40.973c-8.034-25.199-6.146-51.928-10.46-77.759c-1.972-11.812-6.16-23.207-14.375-32.138
				c-7.023-7.636-17.173-12.725-27.307-14.612c-22.479-4.187-44.089,4.857-59.716,20.988c-19.902,20.544-27.689,48.725-34.583,75.68
				c5.543-1.573,11.087-3.146,16.63-4.719c-22.082-18.764-47.065-33.121-74.331-42.899c-5.085-1.823-10.925,2.327-12.171,7.21
				C695.646,403.353,699.194,408.043,704.297,409.873L704.297,409.873z"/>
		</g>
	</g>
	<g id="DECOUPAGE_x5F_GOUR_x5F_003_x5F_N5_x5F_FRAG_x5F_06_00000176011823261021534020000009283199568326721942_">
		<g>
			<path fill="#CD99DA" d="M1012.687,534.948c30.364-26.787,55.59-57.54,78.458-90.833c9.02-13.132,18.774-27.004,32.677-35.363
				c12.193-7.331,26.142-8.184,38.98-1.979c13.72,6.63,24.958,19.563,26.077,34.95c0.565,7.765,11.468,14.106,17.198,6.756
				c14.367-18.429,31.494-41.425,56.706-44.068c20.626-2.162,38.076,14.603,37.159,35.271c-0.57,12.866,19.428,12.45,19.997-0.368
				c1.3-29.322-23.519-54.894-52.645-55.116c-33.397-0.255-56.8,26.263-75.617,50.4c5.733,2.252,11.466,4.504,17.198,6.756
				c-2.694-37.035-40.557-65.228-76.869-57.36c-18.732,4.059-33.852,17.882-45.357,32.506
				c-12.659,16.092-23.243,33.668-36.026,49.685c-15.798,19.795-33.348,38.129-52.337,54.882c-4.052,3.575-3.407,10.605,0.26,14.14
				C1002.701,539.212,1008.624,538.532,1012.687,534.948L1012.687,534.948z"/>
		</g>
	</g>
	<g id="DECOUPAGE_x5F_GOUR_x5F_003_x5F_N5_x5F_FRAG_x5F_07_00000174597750183392034820000000828916229757037490_">
		<g>
			<path fill="#A41C78" d="M888.369,647.328c10.69-3.56,21.04,1.46,28.728,8.966c9.719,9.49,12.547,27.122,29.515,25.256
				c7.545-0.83,14.289-5.34,21.461-7.635c6.657-2.13,13.466-3.515,20.441-3.983c13.93-0.935,28.067,1.199,40.886,6.837
				c4.941,2.173,10.796,1.188,13.614-3.839c2.444-4.362,1.128-11.429-3.839-13.614c-15.055-6.621-31.172-10.092-47.665-9.55
				c-7.589,0.249-15.258,1.333-22.632,3.136c-7.765,1.898-14.66,5.369-22.084,8.144c-0.257,0.096-2.964,0.485-1.633,1.048
				c-0.479-0.202-1.308-2.442-1.551-2.901c-1.476-2.781-2.968-5.496-4.813-8.06c-4.344-6.037-9.412-11.173-15.438-15.521
				c-11.707-8.446-26.705-12.118-40.66-7.471C870.528,632.197,876.109,651.411,888.369,647.328L888.369,647.328z"/>
		</g>
	</g>
	<g id="DECOUPAGE_x5F_GOUR_x5F_003_x5F_N5_x5F_FRAG_x5F_08_00000096767136873711635540000004757891511825430701_">
		<g>
			<path fill="#CD99DA" d="M1036.609,773.818c-11.521,7.797-25.764,10.792-39.487,8.333c-6.991-1.253-13.573-3.553-19.676-7.197
				c-6.582-3.93-11.307-9.368-16.194-15.171c-6.427-7.631-14.662-12.817-24.998-12.028c-10.454,0.798-20.764,3.696-31.224,4.79
				c-19.689,2.059-39.766,1.599-58.737-4.527c-17.347-5.602-33.369-16.226-43.445-31.609c-7.035-10.741-24.161-0.399-17.081,10.41
				c22.874,34.923,65.235,48.083,105.266,46.73c11.468-0.388,22.862-1.87,34.164-3.8c4.313-0.737,10.88-3.265,15.222-1.851
				c3.306,1.077,5.796,4.885,7.913,7.447c10.96,13.268,25.486,22.536,42.497,25.933c19.234,3.842,39.808,0.708,56.191-10.38
				C1057.64,783.712,1047.311,766.576,1036.609,773.818L1036.609,773.818z"/>
		</g>
	</g>
	<g id="DECOUPAGE_x5F_GOUR_x5F_003_x5F_N5_x5F_FRAG_x5F_09_00000023268445176841278830000016700610448871893636_">
		<g>
			<path fill="#EE88F6" d="M948.832,821.901c-20.369-0.345-40.358-3.447-59.924-9.113c-12.391-3.588-17.305,15.805-4.961,19.38
				c21.208,6.142,43.18,9.356,65.253,9.73C962.078,842.116,961.693,822.119,948.832,821.901L948.832,821.901z"/>
		</g>
	</g>
	<g id="DECOUPAGE_x5F_GOUR_x5F_003_x5F_N5_x5F_FRAG_x5F_10_00000024701847297757340240000000779468168996031617_">
		<g>
			<path fill="#A41C78" d="M961.758,960.485c-27.576,6.681-56.834,11.635-85.099,6.361c-22.549-4.207-45.061-14.699-59.228-33.327
				c-3.265-4.292-8.799-6.352-13.746-3.335c-4.247,2.59-6.623,9.423-3.335,13.746c17.059,22.43,42.334,36.53,69.808,42
				c32.4,6.452,65.558,1.424,97.271-6.26C979.932,976.64,974.264,957.455,961.758,960.485L961.758,960.485z"/>
		</g>
	</g>
	<g id="DECOUPAGE_x5F_GOUR_x5F_003_x5F_N5_x5F_FRAG_x5F_11_00000164490944438531231590000016679097309677979307_">
		<g>
			<path fill="#AD76FF" d="M1163.281,918.414c12.07-26.707,47.714-24.188,71.941-27.439c28.727-3.855,57.58-14.349,74.169-39.553
				c9.003-13.678,12.367-30.039,9.155-46.079c-1.061-5.299-7.58-8.185-12.428-6.757c-5.567,1.641-7.821,7.113-6.757,12.428
				c2.969,14.823-4.751,29.836-15.307,39.797c-11.966,11.29-28.596,16.558-44.444,19.416c-18.334,3.306-37.329,2.399-55.303,7.85
				c-15.974,4.844-31.418,14.938-38.479,30.561c-2.223,4.919-1.155,10.815,3.839,13.614
				C1154.068,924.719,1161.048,923.357,1163.281,918.414L1163.281,918.414z"/>
		</g>
	</g>
	<g id="DECOUPAGE_x5F_GOUR_x5F_003_x5F_N5_x5F_FRAG_x5F_12_00000114064369334922015810000009401339645738807719_">
		<g>
			<path fill="#8252B1" d="M1271.334,212.359c22.902,15.782,47.534,31.468,76.028,33.471c23.987,1.686,45.701-9.675,65.631-21.643
				c16.541-9.933,35.061-23.379,54.35-23.766c17.605-0.353,30.647,11.139,36.041,27.101c5.918,17.514,4.632,37.369-2.06,54.949
				c-8.866,23.289-25.768,44.378-38.251,66.358c-6.618,11.652-12.386,23.966-15.994,36.905c-4.041,14.492-5.334,29.756-5.39,44.754
				c-0.108,28.954,3.775,57.686,2.175,86.672c-3.393,61.469-24.369,121.417-59.178,172.098c-3.059,4.454-0.568,11.144,3.839,13.614
				c5.078,2.846,10.547,0.626,13.614-3.839c32.172-46.842,52.749-101.615,59.54-158.026c3.569-29.652,2.238-58.751,0.669-88.467
				c-1.537-29.118-0.49-57.338,12.78-83.868c12.017-24.023,29.092-45.143,40.582-69.456c9.662-20.443,13.535-42.67,9.852-65.085
				c-3.251-19.789-14.181-39.613-33.07-48.252c-21.581-9.87-43.704-4.378-63.89,6.061c-21.606,11.173-41.349,27.923-65.627,33.03
				c-29.774,6.264-58.624-14.046-81.867-30.064c-4.45-3.066-11.147-0.563-13.614,3.839
				C1264.647,203.829,1266.874,209.286,1271.334,212.359L1271.334,212.359z"/>
		</g>
	</g>
</g>
<g id="_NUMEROS">
	<rect x="459.086" y="752.412" fill="none" width="29.241" height="27.688"/>
	<text transform="matrix(1 0 0 1 459.0859 762.6116)" font-family="'NectoMono-Regular'" font-size="12px">1.</text>
	<rect x="399.086" y="643.412" fill="none" width="29.241" height="27.688"/>
	<text transform="matrix(1 0 0 1 399.0864 653.6116)" font-family="'NectoMono-Regular'" font-size="12px">2.</text>
	<rect x="871.086" y="153.412" fill="none" width="29.241" height="27.688"/>
	<text transform="matrix(1 0 0 1 871.0859 163.6116)" font-family="'NectoMono-Regular'" font-size="12px">4.</text>
	<rect x="550.086" y="222.412" fill="none" width="29.241" height="27.688"/>
	<text transform="matrix(1 0 0 1 550.0859 232.6116)" font-family="'NectoMono-Regular'" font-size="12px">3.</text>
	<rect x="901.086" y="336.412" fill="none" width="29.241" height="27.688"/>
	<text transform="matrix(1 0 0 1 901.0859 346.6116)" font-family="'NectoMono-Regular'" font-size="12px">5.</text>
	<rect x="1090.086" y="363.412" fill="none" width="29.241" height="27.688"/>
	<text transform="matrix(1 0 0 1 1090.0859 373.6116)" font-family="'NectoMono-Regular'" font-size="12px">6.</text>
	<rect x="1020.086" y="629.412" fill="none" width="29.241" height="27.688"/>
	<text transform="matrix(1 0 0 1 1020.0859 639.6116)" font-family="'NectoMono-Regular'" font-size="12px">7.</text>
	<rect x="1021.086" y="743.412" fill="none" width="29.241" height="27.688"/>
	<text transform="matrix(1 0 0 1 1021.0859 753.6116)" font-family="'NectoMono-Regular'" font-size="12px">8.</text>
	<rect x="976.086" y="833.412" fill="none" width="29.241" height="27.688"/>
	<text transform="matrix(1 0 0 1 976.0859 843.6116)" font-family="'NectoMono-Regular'" font-size="12px">9.</text>
	<rect x="987.086" y="945.412" fill="none" width="29.241" height="27.688"/>
	<text transform="matrix(1 0 0 1 987.0859 955.6116)" font-family="'NectoMono-Regular'" font-size="12px">10.</text>
	<rect x="1154.086" y="938.412" fill="none" width="29.241" height="27.688"/>
	<text transform="matrix(1 0 0 1 1154.0859 948.6116)" font-family="'NectoMono-Regular'" font-size="12px">11.</text>
	<rect x="1397.086" y="721.412" fill="none" width="29.241" height="27.688"/>
	<text transform="matrix(1 0 0 1 1397.0859 731.6116)" font-family="'NectoMono-Regular'" font-size="12px">12.</text>
</g>
</svg>
