<?xml version="1.0" encoding="utf-8"?>
<!-- Generator: Adobe Illustrator 27.0.0, SVG Export Plug-In . SVG Version: 6.00 Build 0)  -->
<svg version="1.1" xmlns="http://www.w3.org/2000/svg" xmlns:xlink="http://www.w3.org/1999/xlink" x="0px" y="0px"
	 viewBox="0 0 1920 1080" enable-background="new 0 0 1920 1080" xml:space="preserve">
<g id="NUMEROS">
	<rect x="673.573" y="182.096" fill="none" width="29.241" height="27.688"/>
	<text transform="matrix(1 0 0 1 673.5725 192.2951)" font-family="'NectoMono-Regular'" font-size="12px">1.</text>
	<rect x="782.573" y="339.096" fill="none" width="29.241" height="27.688"/>
	<text transform="matrix(1 0 0 1 782.5725 349.2951)" font-family="'NectoMono-Regular'" font-size="12px">2.</text>
	<rect x="1010.573" y="293.096" fill="none" width="29.241" height="27.688"/>
	<text transform="matrix(1 0 0 1 1010.5725 303.2951)" font-family="'NectoMono-Regular'" font-size="12px">3.</text>
	<rect x="1053.573" y="339.096" fill="none" width="29.241" height="27.688"/>
	<text transform="matrix(1 0 0 1 1053.5725 349.2951)" font-family="'NectoMono-Regular'" font-size="12px">4.</text>
	<rect x="954.573" y="287.096" fill="none" width="29.241" height="27.688"/>
	<text transform="matrix(1 0 0 1 954.5725 297.2951)" font-family="'NectoMono-Regular'" font-size="12px">5.</text>
	<rect x="1025.573" y="614.096" fill="none" width="29.241" height="27.688"/>
	<text transform="matrix(1 0 0 1 1025.5725 624.2951)" font-family="'NectoMono-Regular'" font-size="12px">6.</text>
	<rect x="864.573" y="825.096" fill="none" width="29.241" height="27.688"/>
	<text transform="matrix(1 0 0 1 864.5725 835.2951)" font-family="'NectoMono-Regular'" font-size="12px">7.</text>
	<rect x="965.573" y="839.096" fill="none" width="29.241" height="27.688"/>
	<text transform="matrix(1 0 0 1 965.5725 849.2951)" font-family="'NectoMono-Regular'" font-size="12px">8.</text>
	<rect x="969.573" y="728.096" fill="none" width="29.241" height="27.688"/>
	<text transform="matrix(1 0 0 1 969.5725 738.2951)" font-family="'NectoMono-Regular'" font-size="12px">9.</text>
	<rect x="1161.573" y="827.096" fill="none" width="29.241" height="27.688"/>
	<text transform="matrix(1 0 0 1 1161.5725 837.2951)" font-family="'NectoMono-Regular'" font-size="12px">10.</text>
</g>
<g id="FRAGMENTS">
	<g id="DECOUPAGE_x5F_PHIL_x5F_009_x5F_N5_x5F_FRAG_x5F_01">
		<g>
			<path fill="#7F9AC4" d="M695.68,182.682c1.345,29.166,16.829,59.67,48.527,63.627c28.395,3.545,58.711-15.665,84.854,1.766
				c12.839,8.561,21.372,22.854,27.653,36.583c2.247,4.912,9.524,5.91,13.746,3.335c5.057-3.084,5.591-8.815,3.335-13.746
				c-11.977-26.177-33-50.507-63.249-53.491c-15.184-1.498-30.026,2.802-44.908,5.061c-12.016,1.824-25.494,2.28-35.11-6.393
				c-10.275-9.267-14.233-23.708-14.851-37.111C715.085,169.479,695.086,169.794,695.68,182.682L695.68,182.682z"/>
		</g>
	</g>
	<g id="DECOUPAGE_x5F_PHIL_x5F_009_x5F_N5_x5F_FRAG_x5F_02">
		<g>
			<path fill="#48BDEB" d="M848.16,308.371c-11.838,7.145-27,8.853-39.904,3.399c-4.971-2.101-10.77-1.236-13.614,3.839
				c-2.414,4.306-1.161,11.501,3.839,13.614c19.665,8.311,41.657,7.354,60.09-3.77C869.586,318.804,859.211,301.702,848.16,308.371
				L848.16,308.371z"/>
		</g>
	</g>
	<g id="DECOUPAGE_x5F_PHIL_x5F_009_x5F_N5_x5F_FRAG_x5F_03">
		<g>
			<path fill="#2C2CFF" d="M1055.594,306.613c-1.672-32.065,8.708-64.564,31.884-87.356c23.359-22.973,56.591-32.078,88.702-28.869
				c5.383,0.538,9.905-5.235,9.814-10.182c-0.109-5.933-4.784-9.275-10.182-9.814c-29.01-2.899-59.19,3.797-83.724,19.743
				c-24.215,15.739-41.495,39.761-50.283,67.137c-5.122,15.954-7.079,33-6.207,49.71
				C1036.266,319.807,1056.266,319.498,1055.594,306.613L1055.594,306.613z"/>
		</g>
	</g>
	<g id="DECOUPAGE_x5F_PHIL_x5F_009_x5F_N5_x5F_FRAG_x5F_04">
		<g>
			<path fill="#A7CAFF" d="M1157.191,289.036c-2.806,13.766-18.564,17.867-30.683,18.919c-17.129,1.486-34.928-0.128-51.099,6.842
				c-4.956,2.136-8.415,6.803-6.757,12.428c1.386,4.704,7.438,8.908,12.428,6.757c18.013-7.764,38.36-4.104,57.291-7.588
				c17.182-3.162,34.501-14.246,38.201-32.396C1179.137,281.409,1159.765,276.409,1157.191,289.036L1157.191,289.036z"/>
		</g>
	</g>
	<g id="DECOUPAGE_x5F_PHIL_x5F_009_x5F_N5_x5F_FRAG_x5F_05">
		<g>
			<path fill="#48BDEB" d="M953.502,324.684c1.446,21.49,0.531,42.997-4.136,64.063c-3.565,16.091-9.031,31.213-15.244,45.448
				c-5.374,12.312-11.342,24.423-15.737,37.138c-6.857,19.835-10.62,43.504-0.672,62.853c11.04,21.474,35.695,32.088,58.644,34.055
				c5.389,0.462,9.906-5.181,9.814-10.182c-0.108-5.873-4.778-9.351-10.182-9.814c-16.118-1.382-34.418-9.669-41.497-25.083
				c-6.974-15.186-1.136-35.161,4.442-50.11c0.249-0.668,1.374-3.546,1.114-2.9c-0.22,0.547,0.913-2.193,1.238-2.962
				c1.279-3.024,2.611-6.025,3.952-9.021c2.691-6.014,5.426-12.009,8.008-18.071c6.316-14.83,11.812-29.991,15.354-45.74
				c5.16-22.945,6.475-46.612,4.898-70.04C972.637,311.518,952.635,311.811,953.502,324.684L953.502,324.684z"/>
		</g>
	</g>
	<g id="DECOUPAGE_x5F_PHIL_x5F_009_x5F_N5_x5F_FRAG_x5F_06">
		<g>
			<path fill="#8080DD" d="M1051.927,655.577c19.343-13.056,42.205-19.172,65.497-17.62c17.442,1.162,41.749,7.689,48.048,26.33
				c4.105,12.149,23.322,6.572,19.185-5.671c-8.923-26.406-37.075-37.46-62.662-40.212c-28.064-3.018-57.099,4.312-80.478,20.092
				C1030.886,645.672,1041.217,662.806,1051.927,655.577L1051.927,655.577z"/>
		</g>
	</g>
	<g id="DECOUPAGE_x5F_PHIL_x5F_009_x5F_N5_x5F_FRAG_x5F_07">
		<g>
			<path fill="#1A1AA8" d="M983.406,645.956c-15.815-8.398-33.461-15.66-51.737-14.408c-16.943,1.16-32.868,8.897-41.982,23.607
				c-8.569,13.831-9.301,31.428-7.188,47.125c2.407,17.885,9.007,35.797,7.42,54.034c-1.415,16.254-12.425,30.383-27.907,35.561
				c-12.165,4.068-6.585,23.283,5.671,19.185c14.774-4.941,27.469-15.194,34.95-28.94c8.982-16.506,8.275-35.067,5.141-53.031
				c-4.131-23.677-17.345-65.452,14.998-75.721c17.545-5.57,35.443,1.856,50.859,10.042
				C985.009,669.451,994.788,652.001,983.406,645.956L983.406,645.956z"/>
		</g>
	</g>
	<g id="DECOUPAGE_x5F_PHIL_x5F_009_x5F_N5_x5F_FRAG_x5F_08">
		<g>
			<path fill="#2C2CFF" d="M976.755,875.219c12.885,12.94,25.889,25.799,39.267,38.231c12.126,11.269,26.261,17.765,42.865,12.84
				c14.825-4.397,26.432-15.443,34.814-28.043c8.392-12.615,13.926-27.156,23.777-38.782c3.489-4.119,3.804-10.223-0.26-14.14
				c-3.702-3.568-10.634-3.878-14.14,0.26c-9.234,10.899-15.327,23.576-22.463,35.83c-5.91,10.149-13.355,20.244-24.656,24.757
				c-4.504,1.799-9.472,2.669-14.18,1.141c-6.371-2.068-11.247-7.648-15.965-12.126c-11.892-11.287-23.613-22.751-35.181-34.369
				C981.535,851.68,967.667,866.092,976.755,875.219L976.755,875.219z"/>
		</g>
	</g>
	<g id="DECOUPAGE_x5F_PHIL_x5F_009_x5F_N5_x5F_FRAG_x5F_09">
		<g>
			<path fill="#A7CAFF" d="M1084.316,754.4c0.038-0.642-0.793,1.286,0.024,0.269c-0.879,1.094-1.627,1.679-2.453,2.096
				c-2.217,1.117-4.675,1.301-6.686,0.76c-7.618-2.049-13.144-9.597-17.959-15.337c-3.272-3.9-11.002-3.622-14.14,0.26
				c-3.666,4.537-7.333,9.073-10.999,13.61c-2.794,3.458-5.991,9.344-9.991,11.49c-7.056,3.786-14.358-7.865-17.519-12.41
				c-7.313-10.516-24.457-0.197-17.081,10.41c8.379,12.049,19.476,24.476,35.731,22.257c7.852-1.072,13.508-5.875,18.371-11.819
				c5.335-6.52,10.592-13.106,15.887-19.658c-4.713,0.087-9.427,0.173-14.14,0.26c8.756,10.436,19.726,21.384,34.391,21.218
				c13.76-0.156,25.739-9.783,26.561-23.775c0.318-5.398-5.077-9.908-10.182-9.814
				C1088.374,744.324,1084.635,748.987,1084.316,754.4L1084.316,754.4z"/>
		</g>
	</g>
	<g id="DECOUPAGE_x5F_PHIL_x5F_009_x5F_N5_x5F_FRAG_x5F_10">
		<g>
			<path fill="#7F9AC4" d="M1153.433,825.091c17.512-15.348,35.284-31.214,47.009-51.648c11.605-20.225,16.706-45.372,8.605-67.778
				c-4.352-12.036-23.578-6.481-19.184,5.671c14.921,41.27-23.177,75.64-50.83,99.876c-4.064,3.562-3.398,10.614,0.26,14.14
				C1143.457,829.364,1149.359,828.661,1153.433,825.091L1153.433,825.091z"/>
		</g>
	</g>
</g>
</svg>
