<?xml version="1.0" encoding="utf-8"?>
<!-- Generator: Adobe Illustrator 27.0.0, SVG Export Plug-In . SVG Version: 6.00 Build 0)  -->
<svg version="1.1" xmlns="http://www.w3.org/2000/svg" xmlns:xlink="http://www.w3.org/1999/xlink" x="0px" y="0px"
	 viewBox="0 0 32 32" enable-background="new 0 0 32 32" xml:space="preserve">
<g id="Calque_2">
</g>
<g id="Calque_1">
	<g>
		<circle cx="16" cy="16" r="15.5"/>
		<path fill="#FFFFFF" stroke="#000000" stroke-width="0.2835" stroke-miterlimit="10" d="M15.305,11.672
			c-0.022-0.01-0.045-0.02-0.067-0.03c1.053-1.408,2.18-3.046,1.31-6.59C16.47,4.736,16.15,4.542,15.833,4.62
			c-0.317,0.078-0.511,0.398-0.433,0.715c0.046,0.188,0.086,0.369,0.12,0.545l-4.83,1.187c-0.067-0.212-0.13-0.432-0.187-0.666
			c-0.078-0.317-0.398-0.511-0.715-0.433C9.469,6.045,9.276,6.365,9.354,6.682c0.794,3.23,2.426,4.564,4.104,5.432
			c-0.661,1.069-1.127,2.41-0.647,4.529c0.611,2.695,2.296,3.714,3.971,4.641c-1.088,1.36-2.209,2.956-1.45,6.017
			c0.078,0.317,0.399,0.51,0.716,0.431c0.014-0.003,0.028-0.007,0.041-0.012c0.292-0.095,0.466-0.401,0.39-0.704
			c-0.009-0.038-0.015-0.073-0.024-0.111c0.064,0.014,0.131,0.015,0.199-0.001l4.378-1.076c0.03,0.105,0.061,0.207,0.088,0.317
			c0.078,0.317,0.398,0.511,0.715,0.433c0.014-0.004,0.028-0.008,0.042-0.012c0.292-0.095,0.465-0.4,0.391-0.703
			c-0.313-1.276-0.806-2.23-1.396-2.979c-0.031-0.066-0.079-0.12-0.136-0.162c-0.655-0.779-1.415-1.331-2.181-1.792
			c0.838-1.17,1.501-2.614,0.97-4.954C18.909,13.252,17.077,12.449,15.305,11.672z M16.47,13.558l-2.603,0.639
			c0.116-0.605,0.361-1.103,0.666-1.574c0.099,0.044,0.199,0.088,0.297,0.131C15.429,13.017,15.982,13.261,16.47,13.558z
			 M18.221,15.704c-0.098-0.062-0.221-0.087-0.343-0.057l-3.859,0.948c-0.019-0.071-0.039-0.139-0.056-0.213
			c-0.105-0.465-0.157-0.878-0.167-1.254l3.441-0.845c0.011-0.003,0.021-0.006,0.032-0.009c0.026-0.009,0.047-0.026,0.07-0.039
			C17.712,14.612,18.011,15.082,18.221,15.704z M18.518,17.932c-0.025,0.002-0.051,0.005-0.076,0.011l-3.25,0.799
			c-0.348-0.36-0.647-0.782-0.881-1.305l3.779-0.928c0.011-0.003,0.021-0.006,0.032-0.009c0.118-0.038,0.207-0.125,0.258-0.23
			C18.521,16.904,18.558,17.449,18.518,17.932z M15.645,6.762c0.052,0.583,0.03,1.087-0.049,1.534l-3.786,0.93
			c-0.013,0.003-0.024,0.009-0.037,0.013c-0.284-0.378-0.542-0.818-0.768-1.337L15.645,6.762z M12.439,9.984l2.869-0.705
			c-0.281,0.671-0.69,1.22-1.109,1.78c-0.019,0.025-0.038,0.051-0.057,0.076C13.545,10.833,12.966,10.475,12.439,9.984z
			 M17.826,21.871c0.516,0.304,1.009,0.633,1.458,1.039l-2.603,0.639C16.972,22.944,17.384,22.42,17.826,21.871z M16.308,26.102
			c-0.073-0.593-0.052-1.103,0.038-1.557l3.63-0.892c0.291,0.377,0.547,0.817,0.764,1.334l-4.297,1.056
			C16.393,26.054,16.349,26.076,16.308,26.102z M17.523,20.343c-0.529-0.291-1.033-0.572-1.492-0.894l2.293-0.563
			C18.142,19.424,17.858,19.89,17.523,20.343z"/>
	</g>
</g>
</svg>
