<?xml version="1.0" encoding="UTF-8" standalone="no"?><!DOCTYPE svg PUBLIC "-//W3C//DTD SVG 1.1//EN" "http://www.w3.org/Graphics/SVG/1.1/DTD/svg11.dtd"><svg width="32px" height="32px" version="1.1" xmlns="http://www.w3.org/2000/svg" xmlns:xlink="http://www.w3.org/1999/xlink" xml:space="preserve" xmlns:serif="http://www.serif.com/" style="fill-rule:evenodd;clip-rule:evenodd;stroke-linecap:square;stroke-linejoin:round;stroke-miterlimit:10;"><g id="Calque_1"><g><circle cx="16" cy="16" r="15.25" style="fill:white;stroke:white;stroke-width:0.5px;"/><g transform="matrix(1.5285,0,0,1.5285,-21.3091,2.28389)"><path d="M19.762,14.318C20.029,14.318 20.194,14.229 20.461,13.976L24.409,10.002L28.357,13.963C28.611,14.229 28.789,14.306 29.043,14.306C29.411,14.306 29.741,14.001 29.741,13.633C29.741,13.379 29.652,13.214 29.424,12.985L25.45,8.974L29.436,4.949C29.652,4.721 29.741,4.543 29.741,4.302C29.741,3.946 29.424,3.629 29.055,3.629C28.789,3.629 28.624,3.718 28.37,3.984L24.409,7.945L20.473,3.984C20.207,3.718 20.042,3.629 19.775,3.629C19.407,3.629 19.09,3.946 19.09,4.314C19.09,4.568 19.166,4.733 19.394,4.962L23.381,8.974L19.394,12.998C19.153,13.227 19.077,13.404 19.077,13.658C19.077,14.014 19.407,14.318 19.762,14.318Z" style="fill-rule:nonzero;"/></g></g></g></svg>