<?xml version="1.0" encoding="utf-8"?>
<!-- Generator: Adobe Illustrator 27.0.0, SVG Export Plug-In . SVG Version: 6.00 Build 0)  -->
<svg version="1.1" xmlns="http://www.w3.org/2000/svg" xmlns:xlink="http://www.w3.org/1999/xlink" x="0px" y="0px"
	 viewBox="0 0 32 32" enable-background="new 0 0 32 32" xml:space="preserve">
<g id="Calque_2">
</g>
<g id="Calque_1">
	<g>
		
			<circle fill="#FFFFFF" stroke="#FFFFFF" stroke-width="0.5" stroke-linecap="square" stroke-linejoin="round" stroke-miterlimit="10" cx="16" cy="16" r="15.25"/>
		<g>
			<path stroke="#000000" stroke-width="0.2835" stroke-miterlimit="10" d="M14.58,15.83h0.774c2.088,0,3.284-1.408,3.284-3.143
				c0-1.854-1.197-3.003-2.933-3.003c-1.333,0-2.211,0.472-2.876,1.474c-0.217,0.327-0.652,0.428-1.001,0.247l0,0
				c-0.413-0.214-0.549-0.738-0.296-1.129c0.877-1.357,2.354-2.071,4.172-2.071c2.768,0,4.622,1.807,4.622,4.481
				c0,2.487-1.713,4.246-4.199,4.434v2.065c0,0.428-0.347,0.774-0.774,0.774h0c-0.428,0-0.774-0.347-0.774-0.774V15.83z
				 M14.088,23.267c0-0.727,0.587-1.267,1.243-1.267c0.657,0,1.243,0.54,1.243,1.267c0,0.704-0.587,1.243-1.243,1.243
				C14.674,24.51,14.088,23.971,14.088,23.267z"/>
		</g>
	</g>
</g>
</svg>
