<?xml version="1.0" encoding="UTF-8" standalone="no"?><!DOCTYPE svg PUBLIC "-//W3C//DTD SVG 1.1//EN" "http://www.w3.org/Graphics/SVG/1.1/DTD/svg11.dtd"><svg width="23px" height="32px" version="1.1" xmlns="http://www.w3.org/2000/svg" xmlns:xlink="http://www.w3.org/1999/xlink" xml:space="preserve" xmlns:serif="http://www.serif.com/" style="fill-rule:evenodd;clip-rule:evenodd;stroke-linecap:round;stroke-miterlimit:2;"><g id="Artboard1" transform="matrix(1.81853,0,0,1.79761,-19.2016,-12.8393)"><rect x="10.559" y="7.142" width="12.225" height="17.801" style="fill:none;"/><clipPath id="_clip1"><rect x="10.559" y="7.142" width="12.225" height="17.801"/></clipPath><g clip-path="url(#_clip1)"><g id="Calque_1" transform="matrix(1.0329,0,0,0.989265,-0.587537,0.457534)"><path d="M22.202,10.106L22.107,9.96C21.222,8.587 19.72,7.724 18.088,7.652L17.877,7.643C17.682,7.634 17.498,7.736 17.402,7.906L11.474,18.304C11.436,18.372 11.413,18.547 11.408,18.625L11.06,23.89C11.047,24.088 11.148,24.276 11.32,24.375C11.349,24.392 11.379,24.405 11.41,24.416C11.562,24.468 11.733,24.447 11.869,24.355L16.153,21.456C16.221,21.41 16.276,21.349 16.316,21.278L22.219,10.64C22.312,10.472 22.305,10.267 22.202,10.106Z" style="fill-rule:nonzero;stroke:white;stroke-width:0.48px;"/></g></g></g></svg>