<?xml version="1.0" encoding="utf-8"?>
<!-- Generator: Adobe Illustrator 27.0.0, SVG Export Plug-In . SVG Version: 6.00 Build 0)  -->
<svg version="1.1" xmlns="http://www.w3.org/2000/svg" xmlns:xlink="http://www.w3.org/1999/xlink" x="0px" y="0px"
	 viewBox="0 0 32 32" enable-background="new 0 0 32 32" xml:space="preserve">
<g id="Calque_2">
</g>
<g id="Calque_1">
	
		<circle fill="#FFFFFF" stroke="#FFFFFF" stroke-width="0.5" stroke-linecap="square" stroke-linejoin="round" stroke-miterlimit="10" cx="16" cy="16" r="15.25"/>
	<path d="M22.202,10.106L22.107,9.96c-0.885-1.373-2.387-2.236-4.019-2.308l-0.211-0.009c-0.195-0.009-0.379,0.093-0.475,0.263
		l-5.928,10.398c-0.038,0.068-0.061,0.243-0.066,0.321L11.06,23.89c-0.013,0.198,0.088,0.386,0.26,0.485
		c0.029,0.017,0.059,0.03,0.09,0.041c0.152,0.052,0.323,0.031,0.459-0.061l4.284-2.899c0.068-0.046,0.123-0.107,0.163-0.178
		l5.903-10.638C22.312,10.472,22.305,10.267,22.202,10.106z"/>
</g>
</svg>
