<?xml version="1.0" encoding="utf-8"?>
<!-- Generator: Adobe Illustrator 27.0.0, SVG Export Plug-In . SVG Version: 6.00 Build 0)  -->
<svg version="1.1" xmlns="http://www.w3.org/2000/svg" xmlns:xlink="http://www.w3.org/1999/xlink" x="0px" y="0px"
	 viewBox="0 0 32 32" enable-background="new 0 0 32 32" xml:space="preserve">
<g id="Calque_2">
</g>
<g id="Calque_1">
	
		<circle fill="#FFFFFF" stroke="#FFFFFF" stroke-width="0.5" stroke-linecap="square" stroke-linejoin="round" stroke-miterlimit="10" cx="16" cy="16" r="15.25"/>
	<g>
		<path d="M8.177,21.775l7.647-5.101c0.481-0.321,0.481-1.027,0-1.347l-7.647-5.101c-0.538-0.359-1.259,0.027-1.259,0.674v10.202
			C6.918,21.748,7.639,22.134,8.177,21.775z"/>
		<path d="M19.159,21.726L19.159,21.726c-0.654,0-1.185-0.53-1.185-1.185v-9.082c0-0.654,0.53-1.185,1.185-1.185h0
			c0.654,0,1.185,0.53,1.185,1.185v9.082C20.344,21.195,19.813,21.726,19.159,21.726z"/>
		<path d="M23.898,21.726L23.898,21.726c-0.654,0-1.185-0.53-1.185-1.185v-9.082c0-0.654,0.53-1.185,1.185-1.185h0
			c0.654,0,1.185,0.53,1.185,1.185v9.082C25.082,21.195,24.552,21.726,23.898,21.726z"/>
	</g>
</g>
</svg>
