<?xml version="1.0" encoding="utf-8"?>
<!-- Generator: Adobe Illustrator 27.0.0, SVG Export Plug-In . SVG Version: 6.00 Build 0)  -->
<svg version="1.1" xmlns="http://www.w3.org/2000/svg" xmlns:xlink="http://www.w3.org/1999/xlink" x="0px" y="0px"
	 viewBox="0 0 32 32" enable-background="new 0 0 32 32" xml:space="preserve">
<g id="Calque_2">
</g>
<g id="Calque_1">
	
		<circle fill="#FFFFFF" stroke="#FFFFFF" stroke-width="0.5" stroke-linecap="square" stroke-linejoin="round" stroke-miterlimit="10" cx="16" cy="16" r="15.25"/>
	<g>
		<path stroke="#000000" stroke-width="0.2835" stroke-miterlimit="10" d="M6.583,15.803c0.039,0.007,0.078,0.011,0.117,0.011
			c0.138,0,0.273-0.044,0.385-0.128l2.964-2.223c0.283-0.212,0.341-0.614,0.128-0.897l0,0c-0.212-0.283-0.614-0.341-0.897-0.128
			l-1.648,1.236c0.809-4.104,4.461-7.079,8.76-6.945c3.937,0.122,7.242,3.036,8.191,6.859l0.079,0.317l1.244-0.309l-0.072-0.289
			c-1.125-4.54-5.154-7.915-9.831-7.864c-4.753,0.051-8.734,3.412-9.631,7.995l-0.98-1.568c-0.188-0.3-0.583-0.391-0.883-0.204l0,0
			c-0.3,0.188-0.391,0.583-0.204,0.883l1.852,2.964C6.252,15.665,6.406,15.77,6.583,15.803z"/>
		<path stroke="#000000" stroke-width="0.2835" stroke-miterlimit="10" d="M27.492,20.334c0.3-0.188,0.391-0.583,0.204-0.883
			l-1.852-2.964c-0.095-0.152-0.25-0.258-0.426-0.29c-0.176-0.033-0.358,0.01-0.502,0.117l-2.964,2.223
			c-0.283,0.212-0.341,0.614-0.128,0.897l0,0c0.212,0.283,0.614,0.341,0.897,0.128l1.649-1.236c-0.809,4.104-4.461,7.08-8.761,6.945
			c-3.937-0.123-7.241-3.036-8.19-6.859l-0.079-0.319l-1.244,0.308l0.073,0.294c1.126,4.539,5.154,7.912,9.831,7.861
			c4.753-0.052,8.733-3.413,9.63-7.995l0.98,1.568C26.796,20.431,27.192,20.522,27.492,20.334L27.492,20.334z"/>
	</g>
</g>
</svg>
